# This file uses meters as units for non-parametric coordinates.

v 4.000000 0.000000 -24.000168
v 4.000031 32.799858 -24.000168
v 24.000015 0.000000 -4.000093
v 24.000031 20.785271 -4.000090
v 0.000000 0.000000 0.000000
v 0.000000 0.000000 -24.000168
v 24.000031 0.000000 -0.000002
v 0.000015 32.799850 -24.000168
v 24.000046 18.908981 -0.000002
v 0.358944 17.613953 0.084829
vt 0.503260 0.998283
vt 0.503260 0.998283
vt 0.503260 0.998283
vt 0.503260 0.998283
vt 0.503260 0.998283
vt 0.503260 0.998283
vt 0.503260 0.998283
vt 0.503260 0.998283
vt 0.503260 0.998283
vt 0.503260 0.998283
vn 1.000000 -0.000001 -0.000004
vn 1.000000 -0.000001 -0.000004
vn 1.000000 -0.000001 -0.000004
vn 1.000000 -0.000001 -0.000004
vn -1.000000 0.000000 0.000000
vn -1.000000 0.000000 0.000000
vn -1.000000 0.000000 0.000000
vn 0.000000 0.000000 -1.000000
vn 0.000000 0.000000 -1.000000
vn 0.000000 0.000000 -1.000000
vn 0.000000 0.000000 -1.000000
vn 0.001844 -0.002341 0.999996
vn 0.001844 -0.002341 0.999996
vn 0.001844 -0.002341 0.999996
vn 0.001844 -0.002341 0.999996
vn -0.999413 0.020233 0.027651
vn -0.999413 0.020233 0.027651
vn -0.999413 0.020233 0.027651
s off
f 7/1/1 3/4/2 4/3/3 9/2/4
f 6/5/5 5/7/6 8/6/7
f 1/10/8 6/5/9 8/6/10 2/8/11
f 5/7/12 7/1/13 9/2/14 10/9/15
f 5/7/16 10/9/17 8/6/18
