# This file uses meters as units for non-parametric coordinates.

v 250.000000 290.000000 19.999996
v 250.000000 -0.000000 19.999996
v 0.000000 290.000000 20.000002
v 0.000000 0.000000 20.000002
v 250.000000 290.000000 0.000056
v 250.000000 -0.000000 0.000056
v 0.000000 290.000000 0.000050
v 0.000000 0.000000 0.000050
v 179.931519 -0.000000 22.000666
v 73.596512 -0.000000 22.000668
v 73.596512 228.416718 22.000668
v 179.931519 228.416718 22.000666
v 73.596512 -0.000000 -2.000613
v 179.931519 -0.000000 -2.000612
v 179.931519 228.416718 -2.000612
v 73.596512 228.416718 -2.000613
v 68.996735 -0.000000 0.000054
v 68.996735 232.265671 0.000054
v 184.310791 232.265671 0.000055
v 184.310791 -0.000000 0.000055
v 184.310791 -0.000000 19.999996
v 184.310791 232.265671 19.999996
v 68.996735 232.265671 20.000000
v 68.996735 -0.000000 20.000000
v 184.310791 -0.000000 -2.000612
v 184.310791 232.265671 -2.000612
v 68.996735 232.265671 -2.000614
v 68.996735 -0.000000 -2.000614
v 184.310791 -0.000000 22.000664
v 184.310791 232.265671 22.000664
v 68.996735 232.265671 22.000668
v 68.996735 -0.000000 22.000668
vt 0.006968 0.992824
vt 0.006968 0.750108
vt 0.167769 0.750108
vt 0.167769 0.992824
vt 0.006968 0.992824
vt 0.006968 0.750108
vt 0.167769 0.750108
vt 0.167769 0.992824
vt 0.069614 0.378979
vt 0.069614 0.378979
vt 0.069614 0.378979
vt 0.069614 0.378979
vt 0.069614 0.378979
vt 0.069614 0.378979
vt 0.069614 0.378979
vt 0.069614 0.378979
vt 0.069614 0.378979
vt 0.069614 0.378979
vt 0.069614 0.378979
vt 0.069614 0.378979
vt 0.069614 0.378979
vt 0.069614 0.378979
vt 0.069614 0.378979
vt 0.069614 0.378979
vt 0.131337 0.750108
vt 0.131337 0.944257
vt 0.044133 0.944257
vt 0.044133 0.750108
vt 0.131337 0.750108
vt 0.131337 0.944257
vt 0.044133 0.944257
vt 0.044133 0.750108
vt 0.069614 0.378979
vt 0.069614 0.378979
vt 0.069614 0.378979
vt 0.069614 0.378979
vt 0.069614 0.378979
vt 0.069614 0.378979
vt 0.069614 0.378979
vt 0.069614 0.378979
vn 0.000000 0.000000 1.000000
vn 0.000000 0.000000 1.000000
vn 0.000000 0.000000 1.000000
vn 0.000000 0.000000 1.000000
vn 0.000000 1.000000 0.000000
vn 0.000000 1.000000 0.000000
vn 0.000000 1.000000 0.000000
vn 0.000000 1.000000 0.000000
vn 0.000000 0.000000 1.000000
vn 0.000000 0.000000 1.000000
vn 0.000000 0.000000 1.000000
vn 0.000000 0.000000 1.000000
vn 1.000000 0.000000 0.000000
vn 1.000000 0.000000 0.000000
vn 1.000000 0.000000 0.000000
vn 1.000000 0.000000 0.000000
vn -1.000000 0.000000 0.000000
vn -1.000000 0.000000 0.000000
vn -1.000000 0.000000 0.000000
vn -1.000000 0.000000 0.000000
vn 0.000000 0.000000 1.000000
vn 0.000000 0.000000 1.000000
vn 0.000000 0.000000 1.000000
vn 0.000000 0.000000 1.000000
vn 1.000000 0.000000 0.000000
vn 1.000000 0.000000 0.000000
vn 1.000000 0.000000 0.000000
vn 1.000000 0.000000 0.000000
vn -1.000000 0.000000 0.000000
vn -1.000000 0.000000 0.000000
vn -1.000000 0.000000 0.000000
vn -1.000000 0.000000 0.000000
vn 0.000000 -1.000000 0.000000
vn 0.000000 -1.000000 0.000000
vn 0.000000 -1.000000 0.000000
vn 0.000000 -1.000000 0.000000
vn 0.000000 0.000000 -1.000000
vn 0.000000 0.000000 -1.000000
vn 0.000000 0.000000 -1.000000
vn 0.000000 0.000000 -1.000000
vn 0.000000 0.000000 -1.000000
vn 0.000000 0.000000 -1.000000
vn 0.000000 -0.000000 -1.000000
vn 0.000000 -0.000000 -1.000000
vn 0.000000 -0.000000 -1.000000
vn 0.000000 -0.000000 -1.000000
vn 0.000000 0.000000 -1.000000
vn 0.000000 0.000000 -1.000000
vn 0.000000 0.000000 -1.000000
vn 0.000000 0.000000 -1.000000
vn 0.000000 0.000000 -1.000000
vn 0.000000 0.000000 -1.000000
vn 0.000000 0.000000 1.000000
vn 0.000000 0.000000 1.000000
vn 0.000000 0.000000 1.000000
vn 0.000000 0.000000 1.000000
vn 0.000000 0.000000 1.000000
vn 0.000000 0.000000 1.000000
vn 0.000000 -0.000000 1.000000
vn 0.000000 -0.000000 1.000000
vn 0.000000 -0.000000 1.000000
vn 0.000000 -0.000000 1.000000
vn 0.000000 0.000000 1.000000
vn 0.000000 0.000000 1.000000
vn 0.000000 0.000000 1.000000
vn 0.000000 0.000000 1.000000
vn 0.000000 0.000000 1.000000
vn 0.000000 0.000000 1.000000
vn -0.000000 0.000000 -1.000000
vn -0.000000 0.000000 -1.000000
vn -0.000000 0.000000 -1.000000
vn -0.000000 0.000000 -1.000000
vn 0.000000 -0.000000 -1.000000
vn 0.000000 -0.000000 -1.000000
vn 0.000000 -0.000000 -1.000000
vn 0.000000 -0.000000 -1.000000
vn 0.000000 0.000000 -1.000000
vn 0.000000 0.000000 -1.000000
vn 0.000000 0.000000 -1.000000
vn 0.000000 0.000000 -1.000000
vn 1.000000 0.000000 0.000000
vn 1.000000 0.000000 0.000000
vn 1.000000 0.000000 0.000000
vn 1.000000 0.000000 0.000000
vn 0.000000 1.000000 0.000000
vn 0.000000 1.000000 0.000000
vn 0.000000 1.000000 0.000000
vn 0.000000 1.000000 0.000000
vn -1.000000 0.000000 0.000000
vn -1.000000 0.000000 0.000000
vn -1.000000 0.000000 0.000000
vn -1.000000 0.000000 0.000000
s off
f 12/9/1 30/38/2 31/39/3 11/12/4
f 26/34/5 27/35/6 18/15/7 19/16/8
f 11/12/9 31/39/10 32/40/11 10/18/12
f 26/34/13 19/16/14 20/19/15 25/33/16
f 17/21/17 18/15/18 27/35/19 28/36/20
f 29/37/21 30/38/22 12/9/23 9/24/24
f 11/12/25 10/18/26 13/22/27 16/14/28
f 9/24/29 12/9/30 15/13/31 14/20/32
f 12/9/33 11/12/34 16/14/35 15/13/36
f 7/8/37 18/30/38 8/7/39
f 8/7/40 18/30/41 17/29/42
f 5/5/43 19/31/44 18/30/45 7/8/46
f 20/32/47 19/31/48 6/6/49
f 6/6/50 19/31/51 5/5/52
f 1/1/53 22/27/54 2/2/55
f 2/2/56 22/27/57 21/28/58
f 3/4/59 23/26/60 22/27/61 1/1/62
f 24/25/63 23/26/64 4/3/65
f 4/3/66 23/26/67 3/4/68
f 15/13/69 26/34/70 25/33/71 14/20/72
f 15/13/73 16/14/74 27/35/75 26/34/76
f 28/36/77 27/35/78 16/14/79 13/22/80
f 21/23/81 22/10/82 30/38/83 29/37/84
f 31/39/85 30/38/86 22/10/87 23/11/88
f 32/40/89 31/39/90 23/11/91 24/17/92
v 74.394974 228.430817 8.475578
v 179.399109 228.430817 8.475582
v 74.394989 1.190729 8.475578
v 179.399124 1.190735 8.475582
v 74.394989 228.430817 18.475586
v 179.399124 228.430817 18.475580
v 179.399124 1.190735 18.475580
v 74.394989 1.190729 18.475586
v 167.628082 109.209160 17.134983
v 165.945953 109.905960 17.134983
v 164.263855 109.209160 17.134983
v 163.567169 107.527054 17.134983
v 164.263855 105.844963 17.134983
v 165.945953 105.148262 17.134983
v 167.628082 105.844963 17.134983
v 168.324768 107.527054 17.134983
v 169.634552 111.215660 25.352882
v 165.945953 112.743462 25.352882
v 162.257355 111.215660 25.352882
v 160.729584 107.527054 25.352882
v 162.257355 103.838455 25.352882
v 165.945953 102.310661 25.352882
v 169.634552 103.838455 25.352882
v 171.162354 107.527054 25.352882
v 165.945953 107.527054 25.352882
v 171.013275 112.594261 22.602783
v 165.945953 114.693153 22.602783
v 160.878662 112.594261 22.602783
v 158.779877 107.527054 22.602783
v 160.878662 102.459862 22.602783
v 165.945953 100.360954 22.602783
v 171.013275 102.459862 22.602783
v 173.112061 107.527054 22.602783
v 167.628082 109.209160 9.816181
v 165.945953 109.905960 9.816181
v 164.263855 109.209160 9.816181
v 163.567169 107.527054 9.816181
v 164.263855 105.844963 9.816181
v 165.945953 105.148262 9.816181
v 167.628082 105.844963 9.816181
v 168.324768 107.527054 9.816181
v 169.634552 111.215660 1.598282
v 165.945953 112.743462 1.598282
v 162.257339 111.215660 1.598282
v 160.729568 107.527054 1.598282
v 162.257339 103.838455 1.598282
v 165.945953 102.310661 1.598282
v 169.634552 103.838455 1.598282
v 171.162354 107.527054 1.598282
v 165.945953 107.527054 1.598282
v 171.013275 112.594261 4.348381
v 165.945953 114.693153 4.348381
v 160.878647 112.594261 4.348381
v 158.779861 107.527054 4.348381
v 160.878647 102.459862 4.348381
v 165.945953 100.360954 4.348381
v 171.013275 102.459862 4.348381
v 173.112061 107.527054 4.348381
vt 0.059852 0.378397
vt 0.059514 0.378397
vt 0.059514 0.378059
vt 0.059768 0.378397
vt 0.059514 0.378059
vt 0.059852 0.378059
vt 0.059852 0.378397
vt 0.059599 0.378397
vt 0.059599 0.378059
vt 0.059044 0.376844
vt 0.058660 0.376414
vt 0.058660 0.376414
vt 0.058660 0.376414
vt 0.058660 0.376414
vt 0.058660 0.376414
vt 0.058660 0.376414
vt 0.058660 0.376414
vt 0.058660 0.376414
vt 0.058660 0.376414
vt 0.058660 0.376414
vt 0.058660 0.376414
vt 0.058660 0.376414
vt 0.058660 0.376414
vt 0.058660 0.376414
vt 0.058660 0.376414
vt 0.058660 0.376414
vt 0.058660 0.376414
vt 0.058660 0.376414
vt 0.058660 0.376414
vt 0.058660 0.376414
vt 0.058660 0.376414
vt 0.058660 0.376414
vt 0.058660 0.376414
vt 0.058660 0.376414
vt 0.058660 0.376414
vt 0.058660 0.376414
vt 0.058660 0.376414
vt 0.058660 0.376414
vt 0.058660 0.376414
vt 0.058660 0.376414
vt 0.058660 0.376414
vt 0.058660 0.376414
vt 0.058660 0.376414
vt 0.058660 0.376414
vt 0.058660 0.376414
vt 0.058660 0.376414
vt 0.058639 0.376237
vt 0.058639 0.376236
vt 0.058639 0.376237
vt 0.058419 0.375277
vt 0.060767 0.375277
vt 0.060767 0.377626
vt 0.058419 0.377626
vt 0.059010 0.376920
vt 0.058660 0.376414
vt 0.058660 0.376414
vt 0.058660 0.376414
vt 0.058660 0.376414
vt 0.058660 0.376414
vt 0.058660 0.376414
vt 0.058660 0.376414
vt 0.058660 0.376414
vt 0.058660 0.376414
vt 0.058660 0.376414
vt 0.058660 0.376414
vt 0.058660 0.376414
vt 0.058660 0.376414
vt 0.058660 0.376414
vt 0.058660 0.376414
vt 0.058660 0.376414
vt 0.058660 0.376414
vt 0.058660 0.376414
vt 0.058660 0.376414
vt 0.058660 0.376414
vt 0.058660 0.376414
vt 0.058660 0.376414
vt 0.058660 0.376414
vt 0.058660 0.376414
vt 0.058660 0.376414
vt 0.058660 0.376414
vt 0.058660 0.376414
vt 0.058660 0.376414
vt 0.058660 0.376414
vt 0.058660 0.376414
vt 0.058660 0.376414
vt 0.058660 0.376414
vt 0.058660 0.376414
vt 0.058660 0.376414
vt 0.058660 0.376414
vt 0.058660 0.376414
vt 0.058639 0.376237
vt 0.058639 0.376236
vt 0.059044 0.376844
vt 0.059010 0.376920
vn 0.000000 1.000000 0.000000
vn 0.000000 1.000000 0.000000
vn 0.000000 1.000000 0.000000
vn 0.000000 1.000000 0.000000
vn 0.320117 0.772859 0.547918
vn 0.320117 0.772859 0.547918
vn 0.320117 0.772859 0.547918
vn 0.320117 0.772859 0.547918
vn -0.320118 0.772859 0.547917
vn -0.320118 0.772859 0.547917
vn -0.320118 0.772859 0.547917
vn -0.320118 0.772859 0.547917
vn -0.772858 0.320109 0.547923
vn -0.772858 0.320109 0.547924
vn -0.772858 0.320109 0.547924
vn -0.772859 0.320109 0.547923
vn -0.772858 -0.320110 0.547923
vn -0.772858 -0.320110 0.547924
vn -0.772858 -0.320110 0.547924
vn -0.772858 -0.320110 0.547924
vn -0.320119 -0.772860 0.547915
vn -0.320119 -0.772860 0.547915
vn -0.320119 -0.772860 0.547915
vn -0.320119 -0.772860 0.547915
vn 0.320118 -0.772859 0.547917
vn 0.320118 -0.772859 0.547917
vn 0.320118 -0.772859 0.547917
vn 0.320118 -0.772859 0.547917
vn 0.772856 -0.320111 0.547926
vn 0.772856 -0.320111 0.547926
vn 0.772856 -0.320111 0.547926
vn 0.772856 -0.320111 0.547926
vn 0.772856 0.320110 0.547927
vn 0.772856 0.320110 0.547927
vn 0.772856 0.320110 0.547927
vn 0.772856 0.320110 0.547927
vn 0.000000 0.000000 1.000000
vn 0.000000 0.000000 1.000000
vn 0.000000 0.000000 1.000000
vn 0.000000 0.000000 1.000000
vn 0.000000 0.000000 1.000000
vn 0.000000 0.000000 1.000000
vn 0.000000 0.000000 1.000000
vn 0.000000 0.000000 1.000000
vn 0.000000 0.000000 1.000000
vn 0.000000 0.000000 1.000000
vn 0.000000 0.000000 1.000000
vn 0.000000 0.000000 1.000000
vn 0.000001 0.000000 1.000000
vn 0.000001 0.000000 1.000000
vn 0.000001 0.000000 1.000000
vn 0.000000 0.000000 1.000000
vn 0.000000 0.000000 1.000000
vn 0.000000 0.000000 1.000000
vn 0.000000 0.000000 1.000000
vn 0.000000 0.000000 1.000000
vn 0.000000 0.000000 1.000000
vn 0.000000 0.000000 1.000000
vn 0.000000 0.000000 1.000000
vn 0.000000 0.000000 1.000000
vn 0.297529 0.718304 -0.628901
vn 0.297529 0.718304 -0.628901
vn 0.297529 0.718304 -0.628901
vn 0.297529 0.718304 -0.628901
vn -0.297531 0.718303 -0.628900
vn -0.297531 0.718303 -0.628900
vn -0.297531 0.718303 -0.628900
vn -0.297531 0.718303 -0.628900
vn -0.718306 0.297514 -0.628906
vn -0.718306 0.297514 -0.628906
vn -0.718306 0.297514 -0.628906
vn -0.718306 0.297514 -0.628906
vn -0.718306 -0.297515 -0.628905
vn -0.718306 -0.297515 -0.628905
vn -0.718306 -0.297515 -0.628905
vn -0.718306 -0.297515 -0.628905
vn -0.297523 -0.718304 -0.628903
vn -0.297523 -0.718304 -0.628903
vn -0.297523 -0.718304 -0.628903
vn -0.297523 -0.718304 -0.628903
vn 0.297520 -0.718304 -0.628905
vn 0.297520 -0.718304 -0.628905
vn 0.297520 -0.718304 -0.628904
vn 0.297520 -0.718304 -0.628905
vn 0.718307 -0.297513 -0.628905
vn 0.718307 -0.297513 -0.628905
vn 0.718307 -0.297513 -0.628905
vn 0.718307 -0.297513 -0.628905
vn 0.718306 0.297511 -0.628907
vn 0.718306 0.297511 -0.628907
vn 0.718306 0.297511 -0.628907
vn 0.718306 0.297511 -0.628907
vn 0.000000 -1.000000 0.000000
vn 0.000000 -1.000000 0.000000
vn 0.000000 -1.000000 0.000000
vn 0.000000 -1.000000 0.000000
vn -1.000000 -0.000000 0.000001
vn -1.000000 -0.000000 0.000001
vn -1.000000 -0.000000 0.000001
vn -1.000000 -0.000000 0.000001
vn 0.000000 0.000000 1.000000
vn 0.000000 0.000000 1.000000
vn 0.000000 0.000000 1.000000
vn -0.000000 0.000000 1.000000
vn -0.000000 0.000000 1.000000
vn -0.000000 0.000000 1.000000
vn 0.320117 0.772858 -0.547919
vn 0.320117 0.772859 -0.547919
vn 0.320117 0.772858 -0.547919
vn 0.320117 0.772858 -0.547919
vn -0.320118 0.772860 -0.547916
vn -0.320118 0.772860 -0.547916
vn -0.320118 0.772860 -0.547916
vn -0.320118 0.772860 -0.547916
vn -0.772858 0.320109 -0.547923
vn -0.772859 0.320109 -0.547923
vn -0.772858 0.320109 -0.547923
vn -0.772858 0.320109 -0.547923
vn -0.772859 -0.320110 -0.547922
vn -0.772859 -0.320110 -0.547922
vn -0.772859 -0.320110 -0.547922
vn -0.772859 -0.320110 -0.547922
vn -0.320118 -0.772860 -0.547916
vn -0.320118 -0.772860 -0.547916
vn -0.320118 -0.772860 -0.547916
vn -0.320118 -0.772860 -0.547916
vn 0.320118 -0.772858 -0.547919
vn 0.320118 -0.772858 -0.547919
vn 0.320118 -0.772858 -0.547919
vn 0.320118 -0.772858 -0.547919
vn 0.772856 -0.320111 -0.547926
vn 0.772856 -0.320111 -0.547926
vn 0.772856 -0.320111 -0.547926
vn 0.772856 -0.320111 -0.547926
vn 0.772856 0.320110 -0.547927
vn 0.772856 0.320110 -0.547927
vn 0.772856 0.320110 -0.547927
vn 0.772856 0.320110 -0.547927
vn 0.000000 0.000000 -1.000000
vn 0.000000 0.000000 -1.000000
vn 0.000000 0.000000 -1.000000
vn 0.000000 0.000000 -1.000000
vn 0.000000 0.000000 -1.000000
vn 0.000000 0.000000 -1.000000
vn 0.000000 0.000000 -1.000000
vn 0.000000 0.000000 -1.000000
vn 0.000000 0.000000 -1.000000
vn 0.000000 0.000000 -1.000000
vn 0.000000 0.000000 -1.000000
vn 0.000000 0.000000 -1.000000
vn 0.000000 0.000000 -1.000000
vn 0.000000 0.000000 -1.000000
vn 0.000000 0.000000 -1.000000
vn -0.000000 0.000000 -1.000000
vn -0.000000 0.000000 -1.000000
vn -0.000000 0.000000 -1.000000
vn 0.000000 0.000000 -1.000000
vn 0.000000 0.000000 -1.000000
vn 0.000000 0.000000 -1.000000
vn 0.000000 0.000000 -1.000000
vn 0.000000 0.000000 -1.000000
vn 0.000000 0.000000 -1.000000
vn 0.297529 0.718304 0.628900
vn 0.297529 0.718304 0.628900
vn 0.297529 0.718304 0.628900
vn 0.297529 0.718304 0.628900
vn -0.297531 0.718303 0.628900
vn -0.297531 0.718303 0.628900
vn -0.297531 0.718303 0.628900
vn -0.297531 0.718303 0.628900
vn -0.718305 0.297513 0.628907
vn -0.718305 0.297513 0.628907
vn -0.718305 0.297513 0.628907
vn -0.718305 0.297513 0.628907
vn -0.718305 -0.297515 0.628906
vn -0.718305 -0.297515 0.628906
vn -0.718305 -0.297515 0.628906
vn -0.718305 -0.297515 0.628906
vn -0.297522 -0.718302 0.628905
vn -0.297522 -0.718302 0.628905
vn -0.297522 -0.718302 0.628905
vn -0.297522 -0.718302 0.628905
vn 0.297520 -0.718305 0.628904
vn 0.297520 -0.718305 0.628904
vn 0.297520 -0.718305 0.628904
vn 0.297520 -0.718305 0.628904
vn 0.718306 -0.297513 0.628906
vn 0.718306 -0.297513 0.628906
vn 0.718306 -0.297513 0.628906
vn 0.718306 -0.297513 0.628906
vn 0.718306 0.297511 0.628906
vn 0.718306 0.297511 0.628907
vn 0.718306 0.297511 0.628906
vn 0.718306 0.297511 0.628906
vn 0.000000 0.000000 -1.000000
vn 0.000000 0.000000 -1.000000
vn 0.000000 0.000000 -1.000000
vn 0.000000 0.000000 -1.000000
vn 0.000000 0.000000 -1.000000
vn 0.000000 0.000000 -1.000000
vn 1.000000 0.000000 -0.000001
vn 1.000000 0.000000 -0.000001
vn 1.000000 0.000000 -0.000001
vn 1.000000 0.000000 -0.000001
s off
f 38/45/93 34/41/94 33/42/95 37/43/96
f 58/51/97 59/52/98 50/53/99 49/54/100
f 59/52/101 60/55/102 51/56/103 50/53/104
f 60/55/105 61/57/106 52/58/107 51/56/108
f 61/57/109 62/59/110 53/60/111 52/58/112
f 62/59/113 63/61/114 54/62/115 53/60/116
f 63/61/117 64/63/118 55/64/119 54/62/120
f 64/63/121 65/65/122 56/66/123 55/64/124
f 65/65/125 58/67/126 49/68/127 56/66/128
f 49/69/129 50/70/130 57/71/131
f 50/70/132 51/72/133 57/71/134
f 51/72/135 52/73/136 57/71/137
f 52/73/138 53/74/139 57/71/140
f 53/74/141 54/75/142 57/71/143
f 54/75/144 55/76/145 57/71/146
f 55/76/147 56/77/148 57/71/149
f 56/77/150 49/69/151 57/71/152
f 41/78/153 42/79/154 59/52/155 58/51/156
f 42/79/157 43/80/158 60/55/159 59/52/160
f 43/80/161 44/81/162 61/57/163 60/55/164
f 44/81/165 45/82/166 62/59/167 61/57/168
f 45/82/169 46/83/170 63/61/171 62/59/172
f 46/83/173 47/84/174 64/63/175 63/61/176
f 47/84/177 48/85/178 65/65/179 64/63/180
f 48/85/181 41/86/182 58/67/183 65/65/184
f 39/90/185 40/91/186 35/92/187 36/93/188
f 33/47/189 35/48/190 40/49/191 37/50/192
f 37/50/193 40/94/194 38/87/195
f 39/89/196 38/87/197 40/88/198
f 83/95/199 74/96/200 75/97/201 84/98/202
f 84/98/203 75/97/204 76/99/205 85/100/206
f 85/100/207 76/99/208 77/101/209 86/102/210
f 86/102/211 77/101/212 78/103/213 87/104/214
f 87/104/215 78/103/216 79/105/217 88/106/218
f 88/106/219 79/105/220 80/107/221 89/108/222
f 89/108/223 80/107/224 81/109/225 90/110/226
f 90/110/227 81/109/228 74/111/229 83/112/230
f 74/113/231 82/114/232 75/115/233
f 75/115/234 82/114/235 76/116/236
f 76/116/237 82/114/238 77/117/239
f 77/117/240 82/114/241 78/118/242
f 78/118/243 82/114/244 79/119/245
f 79/119/246 82/114/247 80/120/248
f 80/120/249 82/114/250 81/121/251
f 81/121/252 82/114/253 74/113/254
f 66/122/255 83/95/256 84/98/257 67/123/258
f 67/123/259 84/98/260 85/100/261 68/124/262
f 68/124/263 85/100/264 86/102/265 69/125/266
f 69/125/267 86/102/268 87/104/269 70/126/270
f 70/126/271 87/104/272 88/106/273 71/127/274
f 71/127/275 88/106/276 89/108/277 72/128/278
f 72/128/279 89/108/280 90/110/281 73/129/282
f 73/129/283 90/110/284 83/112/285 66/130/286
f 35/134/287 33/133/288 36/132/289
f 34/131/290 36/132/291 33/133/292
f 36/44/293 34/41/294 38/45/295 39/46/296
