# This file uses meters as units for non-parametric coordinates.

v -66.118225 25.142353 36.174347
v 53.279053 25.142353 36.174347
v -66.118225 25.142353 -36.173660
v 53.279053 25.142353 -36.173660
v -74.721436 24.001152 44.427490
v 61.882324 24.001152 44.427490
v -74.721436 24.001152 -44.426758
v 61.882324 24.001152 -44.426758
v -74.721436 14.241618 -44.426758
v 61.882324 14.241618 -44.426758
v 61.882324 14.241618 44.427490
v -74.721436 14.241618 44.427490
v -80.494629 0.000000 47.364746
v 80.494629 0.000000 47.364746
v 80.494507 14.241617 43.543243
v -80.494629 14.241618 47.364746
v -80.494629 12.231757 -47.364746
v 80.494629 12.682642 -47.364746
v 80.494629 0.000000 -47.364746
v -80.494629 0.000000 -47.364746
v -72.802246 24.001152 42.707886
v 59.963379 24.001152 42.707886
v 59.963379 24.001152 -42.707275
v -72.802246 24.001152 -42.707275
v -71.234131 26.670185 41.479858
v 58.395508 26.670185 38.324799
v 58.395508 26.670185 -41.479126
v -71.234131 26.670185 -41.479126
v -66.797607 26.670185 36.768188
v 53.958496 26.670185 36.768188
v 53.958496 26.670185 -36.768066
v -66.797607 26.670185 -36.768066
v -65.043213 24.001152 34.777832
v 52.204102 24.001152 34.777832
v 52.204102 24.001152 -34.777100
v -65.043213 24.001152 -34.777100
v -65.043213 14.241619 34.777832
v 52.204102 14.241619 34.777832
v 52.204102 14.241619 -34.777100
v -65.043213 14.241619 -34.777100
v 61.882324 17.094994 -41.971313
v 61.882324 17.094994 41.971802
v 61.882324 21.147776 -41.971313
v 61.882324 21.147776 41.971802
v -74.721436 17.094994 41.971802
v -74.721436 17.094994 -41.971313
v -74.721436 21.147776 41.971802
v -74.721436 21.147776 -41.971313
v 61.882324 17.094994 37.455933
v 61.882324 21.147776 37.455933
v 61.882324 17.094994 -37.455322
v 61.882324 21.147776 -37.455322
v -74.721191 17.094994 -37.455322
v -74.721191 21.147776 -37.455322
v -74.721436 17.094994 37.455933
v -74.721436 21.147776 37.455933
v 63.862061 17.311127 37.627197
v 63.862061 17.311127 41.795044
v 63.862061 20.931641 37.627197
v 63.862061 20.931641 41.795044
v -76.700684 17.311127 -37.626587
v -76.700928 17.311127 -41.794312
v -76.700684 20.931641 -37.626587
v -76.700928 20.931641 -41.794312
v 63.862061 17.311127 -37.626709
v 63.862061 20.931641 -37.626709
v 63.862061 17.311127 -41.794434
v 63.862061 20.931641 -41.794434
v -76.700928 17.311127 37.627197
v -76.700928 20.931641 37.627197
v -76.700928 17.311127 41.795044
v -76.700928 20.931641 41.795044
v 63.386841 14.241618 -47.364746
v 80.494629 14.241618 -41.299423
v 80.494629 14.241618 9.705505
v 80.494629 14.241618 40.967087
v 77.366089 14.241618 25.924286
v 80.494629 12.310160 26.422867
v 76.372559 14.241619 47.364746
v 80.494629 12.399427 47.364746
v 58.395508 26.670185 -3.064056
v 58.395508 26.670185 -29.546295
v 56.229858 26.670185 -20.912247
v 59.137085 25.407867 -21.018631
v 59.456299 24.864386 42.310699
v 56.177002 26.670185 41.479858
v 6.489624 26.670185 -36.768066
v 22.629517 26.670185 -36.768066
v 17.863647 26.670185 -39.002197
v 16.024536 25.821358 -36.134888
v -53.256226 26.670185 -41.479126
v -22.450806 26.670185 -41.479126
v -36.072876 26.670185 -39.685928
v -35.808228 25.867981 -41.848251
v -71.234131 26.670185 22.332993
v -71.234131 26.670185 12.788147
v -69.607910 26.670185 18.000488
v -71.855896 25.611923 18.005753
v -40.779053 24.001152 44.427490
v -19.053223 24.001152 44.427490
v -30.921631 24.001152 42.707886
v -31.180542 21.908421 44.427490
v -80.494629 14.241618 -44.192719
v -77.034302 14.241618 -47.364746
vt 0.568738 0.017620
vt 0.568738 0.017620
vt 0.568738 0.017620
vt 0.568738 0.017620
vt 0.111298 0.301711
vt 0.111298 0.301711
vt 0.111298 0.301711
vt 0.111298 0.301711
vt 0.078857 0.227769
vt 0.078857 0.227769
vt 0.078857 0.227769
vt 0.078857 0.227769
vt 0.111298 0.301711
vt 0.111298 0.301711
vt 0.111298 0.301711
vt 0.111298 0.301711
vt 0.111298 0.301711
vt 0.111298 0.301711
vt 0.111298 0.301711
vt 0.111298 0.301711
vt 0.111298 0.301711
vt 0.111298 0.301711
vt 0.111298 0.301711
vt 0.111298 0.301711
vt 0.111298 0.301711
vt 0.111298 0.301711
vt 0.111298 0.301711
vt 0.111298 0.301711
vt 0.113469 0.350006
vt 0.113469 0.350006
vt 0.113469 0.350006
vt 0.113469 0.350006
vt 0.113695 0.275436
vt 0.113695 0.275436
vt 0.113695 0.275435
vt 0.113695 0.275435
vt 0.113469 0.350006
vt 0.113469 0.350006
vt 0.113469 0.350006
vt 0.113469 0.350006
vt 0.113469 0.350006
vt 0.113469 0.350006
vt 0.113469 0.350006
vt 0.113469 0.350006
vt 0.111298 0.301711
vt 0.111298 0.301711
vt 0.111298 0.301711
vt 0.111298 0.301711
vt 0.111298 0.301711
vt 0.111298 0.301711
vt 0.111298 0.301711
vt 0.111298 0.301711
vt 0.111298 0.301711
vt 0.111298 0.301711
vt 0.111298 0.301711
vt 0.111298 0.301711
vt 0.111298 0.301711
vt 0.113469 0.350006
vt 0.113469 0.350006
vt 0.113469 0.350006
vt 0.113469 0.350006
vt 0.113469 0.350006
vt 0.113469 0.350006
vt 0.113469 0.350006
vt 0.113469 0.350006
vt 0.113469 0.350006
vt 0.113469 0.350006
vt 0.113469 0.350006
vt 0.113469 0.350006
vt 0.113469 0.350006
vt 0.113469 0.350006
vt 0.113469 0.350006
vt 0.113469 0.350006
vt 0.113469 0.350006
vt 0.113469 0.350006
vt 0.113469 0.350006
vt 0.113469 0.350006
vt 0.113469 0.350006
vt 0.113469 0.350006
vt 0.113469 0.350006
vt 0.113469 0.350006
vt 0.113469 0.350006
vt 0.113469 0.350006
vt 0.113469 0.350006
vt 0.113469 0.350006
vt 0.113469 0.350006
vt 0.113469 0.350006
vt 0.113469 0.350006
vt 0.113469 0.350006
vt 0.113469 0.350006
vt 0.113469 0.350006
vt 0.113469 0.350006
vt 0.113469 0.350006
vt 0.113817 0.275436
vt 0.113817 0.275436
vt 0.113817 0.275435
vt 0.113817 0.275435
vt 0.113695 0.275435
vt 0.113695 0.275436
vt 0.113695 0.275436
vt 0.113695 0.275435
vt 0.113817 0.275435
vt 0.113817 0.275436
vt 0.113817 0.275436
vt 0.113817 0.275435
vt 0.113695 0.275436
vt 0.113695 0.275436
vt 0.113695 0.275435
vt 0.113695 0.275435
vt 0.113817 0.275436
vt 0.113817 0.275436
vt 0.113817 0.275435
vt 0.113817 0.275435
vt 0.113695 0.275435
vt 0.113695 0.275436
vt 0.113695 0.275436
vt 0.113695 0.275435
vt 0.113817 0.275435
vt 0.113817 0.275436
vt 0.113817 0.275436
vt 0.113817 0.275435
vt 0.111298 0.301711
vt 0.111298 0.301711
vt 0.111298 0.301711
vt 0.111298 0.301711
vt 0.111298 0.301711
vt 0.111298 0.301711
vt 0.111298 0.301711
vt 0.111298 0.301711
vt 0.111298 0.301711
vt 0.111298 0.301711
vt 0.111298 0.301711
vt 0.111298 0.301711
vt 0.111298 0.301711
vt 0.111298 0.301711
vt 0.111298 0.301711
vt 0.111298 0.301711
vt 0.111298 0.301711
vt 0.113469 0.350006
vt 0.113469 0.350006
vt 0.113469 0.350006
vt 0.113469 0.350006
vt 0.113469 0.350006
vt 0.113469 0.350006
vt 0.113469 0.350006
vt 0.113469 0.350006
vt 0.113469 0.350006
vt 0.113469 0.350006
vt 0.113469 0.350006
vt 0.113469 0.350006
vt 0.113469 0.350006
vt 0.113469 0.350006
vt 0.113469 0.350006
vt 0.113469 0.350006
vt 0.113469 0.350006
vt 0.113469 0.350006
vt 0.113469 0.350006
vt 0.113469 0.350006
vt 0.113469 0.350006
vt 0.113469 0.350006
vt 0.111298 0.301711
vt 0.111298 0.301711
vt 0.111298 0.301711
vt 0.111298 0.301711
vt 0.111298 0.301711
vn 0.000000 1.000000 0.000000
vn 0.000000 1.000000 0.000000
vn 0.000000 1.000000 0.000000
vn 0.000000 1.000000 0.000000
vn 0.000000 0.000000 1.000000
vn 0.000000 0.000000 1.000000
vn 0.000000 0.000000 1.000000
vn 0.000000 0.000000 1.000000
vn 0.000000 0.000000 1.000000
vn 0.000000 1.000000 0.000000
vn 0.000000 1.000000 0.000000
vn 0.000000 1.000000 0.000000
vn 0.000000 1.000000 0.000000
vn 0.000000 -1.000000 0.000000
vn 0.000000 -1.000000 0.000000
vn 0.000000 -1.000000 0.000000
vn 0.000000 -1.000000 0.000000
vn 1.000000 0.000002 0.000001
vn 1.000000 0.000002 0.000001
vn 1.000000 0.000002 0.000001
vn 1.000000 0.000002 0.000001
vn 1.000000 0.000002 0.000001
vn -1.000000 -0.000000 0.000000
vn -1.000000 -0.000000 0.000000
vn -1.000000 -0.000000 0.000000
vn -1.000000 -0.000000 0.000000
vn -1.000000 -0.000000 0.000000
vn 0.000000 0.000000 -1.000000
vn 0.000000 0.000000 -1.000000
vn 0.000000 0.000000 -1.000000
vn 0.000000 0.000000 -1.000000
vn 1.000000 0.000000 0.000000
vn 1.000000 0.000000 0.000000
vn 1.000000 0.000000 0.000000
vn 1.000000 0.000000 0.000000
vn -0.000000 0.000000 1.000000
vn -0.000000 0.000000 1.000000
vn -0.000000 0.000000 1.000000
vn -0.000000 0.000000 1.000000
vn -1.000000 0.000000 -0.000003
vn -1.000000 0.000000 -0.000003
vn -1.000000 0.000000 -0.000003
vn -1.000000 0.000000 -0.000003
vn -0.000000 1.000000 -0.000000
vn -0.000000 1.000000 -0.000000
vn -0.000000 1.000000 -0.000000
vn -0.000000 1.000000 -0.000000
vn 0.000000 1.000000 0.000001
vn 0.000000 1.000000 0.000001
vn 0.000000 1.000000 0.000001
vn 0.087916 0.964769 -0.247975
vn 0.087916 0.964769 -0.247975
vn 0.087916 0.964769 -0.247975
vn 0.000000 1.000000 0.000000
vn 0.000000 1.000000 0.000000
vn 0.000000 1.000000 0.000000
vn 0.000000 1.000000 0.000000
vn 0.000000 1.000000 -0.000002
vn 0.000000 1.000000 -0.000002
vn 0.000000 1.000000 -0.000002
vn 0.000000 1.000000 -0.000002
vn 0.000000 1.000000 0.000000
vn 0.000000 1.000000 0.000000
vn 0.000000 1.000000 0.000000
vn 0.000000 1.000000 0.000000
vn 0.000000 1.000000 0.000001
vn 0.000000 1.000000 0.000001
vn 0.000000 1.000000 0.000001
vn 0.000000 1.000000 0.000001
vn 0.000000 1.000000 0.000000
vn 0.000000 1.000000 0.000000
vn 0.000000 1.000000 0.000000
vn 0.000000 1.000000 0.000000
vn 0.000000 0.417982 0.908455
vn 0.000000 0.417982 0.908455
vn 0.000000 0.417982 0.908455
vn 0.862232 0.506513 0.000000
vn 0.862232 0.506513 0.000000
vn 0.862232 0.506513 0.000000
vn 0.862232 0.506513 0.000000
vn 0.862232 0.506513 0.000000
vn 0.000000 0.418019 -0.908438
vn 0.000000 0.418019 -0.908438
vn 0.000000 0.418019 -0.908438
vn -0.862205 0.506560 0.000000
vn -0.862205 0.506560 0.000000
vn -0.862205 0.506560 0.000000
vn 0.000000 1.000000 -0.000000
vn 0.000000 1.000000 -0.000000
vn 0.000000 1.000000 -0.000000
vn 0.000000 1.000000 -0.000000
vn 0.000000 1.000000 0.000000
vn 0.000000 1.000000 0.000000
vn 0.000000 1.000000 0.000000
vn 0.000000 1.000000 0.000000
vn 0.000000 1.000000 -0.000000
vn 0.000000 1.000000 -0.000000
vn 0.000000 1.000000 -0.000000
vn 0.000000 1.000000 -0.000000
vn 0.000000 1.000000 0.000000
vn 0.000000 1.000000 0.000000
vn 0.000000 1.000000 0.000000
vn 0.000000 0.597803 -0.801643
vn 0.000000 0.597803 -0.801643
vn 0.000000 0.597803 -0.801643
vn 0.000000 0.597803 -0.801643
vn -0.835640 0.549278 0.000000
vn -0.835640 0.549278 0.000000
vn -0.835640 0.549278 0.000000
vn -0.835640 0.549278 0.000000
vn 0.000000 0.597921 0.801555
vn 0.000000 0.597921 0.801555
vn 0.000000 0.597921 0.801555
vn 0.000000 0.597921 0.801555
vn 0.000000 0.597921 0.801555
vn 0.000000 0.597921 0.801555
vn 0.000000 0.597921 0.801555
vn 0.835639 0.549278 0.000000
vn 0.835639 0.549278 0.000000
vn 0.835639 0.549278 0.000000
vn 0.835639 0.549278 0.000000
vn 0.000000 0.000000 -1.000000
vn 0.000000 0.000000 -1.000000
vn 0.000000 0.000000 -1.000000
vn 0.000000 0.000000 -1.000000
vn -1.000000 0.000000 0.000000
vn -1.000000 0.000000 0.000000
vn -1.000000 0.000000 0.000000
vn -1.000000 0.000000 0.000000
vn 0.000000 0.000000 1.000000
vn 0.000000 0.000000 1.000000
vn 0.000000 0.000000 1.000000
vn 0.000000 0.000000 1.000000
vn 1.000000 0.000000 0.000000
vn 1.000000 0.000000 0.000000
vn 1.000000 0.000000 0.000000
vn 1.000000 0.000000 0.000000
vn 1.000000 -0.000001 0.000000
vn 1.000000 -0.000001 0.000000
vn 1.000000 -0.000001 0.000000
vn 1.000000 -0.000001 0.000000
vn 1.000000 -0.000001 0.000000
vn 1.000000 -0.000001 0.000000
vn 1.000000 0.000000 0.000000
vn 1.000000 0.000000 0.000000
vn 1.000000 0.000000 0.000000
vn 1.000000 0.000000 0.000000
vn 1.000000 0.000002 0.000000
vn 1.000000 0.000002 0.000000
vn 1.000000 0.000002 0.000000
vn 1.000000 0.000002 0.000000
vn 1.000000 0.000002 0.000000
vn 1.000000 0.000002 0.000000
vn 1.000000 0.000000 0.000000
vn 1.000000 0.000000 0.000000
vn 1.000000 0.000000 0.000000
vn 1.000000 0.000000 0.000000
vn -1.000000 0.000039 0.000000
vn -1.000000 0.000039 0.000000
vn -1.000000 0.000039 0.000000
vn -1.000000 0.000039 0.000000
vn -1.000000 0.000039 0.000000
vn -1.000000 0.000039 0.000000
vn -1.000000 0.000000 0.000000
vn -1.000000 0.000000 0.000000
vn -1.000000 0.000000 0.000000
vn -1.000000 0.000000 0.000000
vn -1.000000 -0.000040 0.000000
vn -1.000000 -0.000040 0.000000
vn -1.000000 -0.000040 0.000000
vn -1.000000 -0.000040 0.000000
vn -1.000000 -0.000040 0.000000
vn -1.000000 -0.000040 0.000000
vn -1.000000 0.000000 0.000000
vn -1.000000 0.000000 0.000000
vn -1.000000 0.000000 0.000000
vn -1.000000 0.000000 0.000000
vn -1.000000 0.000000 0.000059
vn -1.000000 0.000000 0.000059
vn -1.000000 0.000000 0.000059
vn -1.000000 0.000000 0.000059
vn 1.000000 0.000000 0.000000
vn 1.000000 0.000000 0.000000
vn 1.000000 0.000000 0.000000
vn 1.000000 0.000000 0.000000
vn 1.000000 0.000000 0.000000
vn 1.000000 0.000000 0.000000
vn 1.000000 0.000000 0.000000
vn 1.000000 0.000000 0.000000
vn -1.000000 0.000000 0.000000
vn -1.000000 0.000000 0.000000
vn -1.000000 0.000000 0.000000
vn -1.000000 0.000000 0.000000
vn 0.108528 -0.994093 0.000000
vn 0.108528 -0.994093 0.000000
vn 0.108528 -0.994093 0.000000
vn 0.108528 -0.994093 0.000000
vn 0.086187 0.000000 -0.996279
vn 0.086187 0.000000 -0.996279
vn 0.086187 0.000000 -0.996279
vn 0.086187 0.000000 -0.996279
vn 0.108529 0.994093 0.000000
vn 0.108529 0.994093 0.000000
vn 0.108529 0.994093 0.000000
vn 0.108529 0.994093 0.000000
vn 0.088930 0.000000 0.996038
vn 0.088930 0.000000 0.996038
vn 0.088930 0.000000 0.996038
vn 0.088930 0.000000 0.996038
vn -0.108541 -0.994092 0.000006
vn -0.108541 -0.994092 0.000006
vn -0.108541 -0.994092 0.000006
vn -0.108541 -0.994092 0.000006
vn -0.086198 0.000000 0.996278
vn -0.086198 0.000000 0.996278
vn -0.086198 0.000000 0.996278
vn -0.086198 0.000000 0.996278
vn -0.108542 0.994092 0.000006
vn -0.108542 0.994092 0.000006
vn -0.108542 0.994092 0.000006
vn -0.108542 0.994092 0.000006
vn -0.089064 0.000000 -0.996026
vn -0.089064 0.000000 -0.996026
vn -0.089064 0.000000 -0.996026
vn -0.089064 0.000000 -0.996026
vn 0.086248 0.000000 0.996274
vn 0.086248 0.000000 0.996274
vn 0.086248 0.000000 0.996274
vn 0.086248 0.000000 0.996274
vn 0.108528 -0.994093 0.000000
vn 0.108528 -0.994093 0.000000
vn 0.108528 -0.994093 0.000000
vn 0.108528 -0.994093 0.000000
vn 0.088992 0.000000 -0.996032
vn 0.088992 0.000000 -0.996032
vn 0.088992 0.000000 -0.996032
vn 0.088992 0.000000 -0.996032
vn 0.108529 0.994093 0.000000
vn 0.108529 0.994093 0.000000
vn 0.108529 0.994093 0.000000
vn 0.108529 0.994093 0.000000
vn -0.086197 0.000000 -0.996278
vn -0.086197 0.000000 -0.996278
vn -0.086197 0.000000 -0.996278
vn -0.086197 0.000000 -0.996278
vn -0.108541 -0.994092 0.000000
vn -0.108541 -0.994092 0.000000
vn -0.108541 -0.994092 0.000000
vn -0.108541 -0.994092 0.000000
vn -0.088942 0.000000 0.996037
vn -0.088942 0.000000 0.996037
vn -0.088942 0.000000 0.996037
vn -0.088942 0.000000 0.996037
vn -0.108542 0.994092 0.000000
vn -0.108542 0.994092 0.000000
vn -0.108542 0.994092 0.000000
vn -0.108542 0.994092 0.000000
vn 0.000000 1.000000 -0.000000
vn 0.000000 1.000000 -0.000000
vn 0.000000 1.000000 -0.000000
vn 0.000000 1.000000 0.000000
vn 0.000000 1.000000 0.000000
vn 0.000000 1.000000 0.000000
vn 0.534835 0.837603 -0.111233
vn 0.534835 0.837603 -0.111233
vn 0.534835 0.837603 -0.111233
vn 0.511330 0.853705 0.098634
vn 0.511330 0.853705 0.098634
vn 0.511330 0.853705 0.098634
vn 0.373451 0.835630 0.402811
vn 0.373451 0.835630 0.402811
vn 0.373451 0.835630 0.402811
vn 0.000000 1.000000 -0.000000
vn 0.000000 1.000000 -0.000000
vn 0.000000 1.000000 -0.000000
vn 0.000000 1.000000 -0.000000
vn 0.000000 1.000000 -0.000000
vn 0.000000 1.000000 0.000000
vn 0.000000 1.000000 0.000000
vn 0.000000 1.000000 0.000000
vn 0.000000 1.000000 0.000000
vn 1.000000 -0.000000 0.000000
vn 1.000000 -0.000000 0.000000
vn 1.000000 -0.000000 0.000000
vn 1.000000 -0.000000 0.000000
vn 1.000000 -0.000000 0.000000
vn 1.000000 0.000000 0.000000
vn 1.000000 0.000000 0.000000
vn 1.000000 0.000000 0.000000
vn 0.396335 0.916846 -0.048090
vn 0.396334 0.916846 -0.048090
vn 0.396335 0.916846 -0.048090
vn 0.399355 0.911308 0.100169
vn 0.399355 0.911308 0.100169
vn 0.399355 0.911308 0.100169
vn 0.000000 1.000000 0.000000
vn 0.000000 1.000000 0.000000
vn 0.000000 1.000000 0.000000
vn 0.862233 0.506512 -0.000002
vn 0.862233 0.506512 -0.000002
vn 0.862233 0.506512 -0.000002
vn 0.862233 0.506512 -0.000002
vn 0.862253 0.506478 0.000000
vn 0.862253 0.506478 0.000000
vn 0.862253 0.506478 0.000000
vn 0.405824 0.868261 0.285359
vn 0.405824 0.868261 0.285359
vn 0.405824 0.868261 0.285359
vn 0.000000 1.000000 0.000000
vn 0.000000 1.000000 0.000000
vn 0.000000 1.000000 0.000000
vn 0.000000 1.000000 0.000000
vn 0.000000 1.000000 0.000000
vn 0.000000 1.000000 0.000000
vn 0.000000 1.000000 0.000000
vn 0.062889 0.945270 0.320172
vn 0.062889 0.945270 0.320172
vn 0.062889 0.945270 0.320172
vn -0.103475 0.969830 0.220734
vn -0.103475 0.969830 0.220734
vn -0.103475 0.969830 0.220734
vn -0.046395 0.934684 -0.352438
vn -0.046395 0.934684 -0.352438
vn -0.046395 0.934684 -0.352438
vn 0.035872 0.938379 -0.343740
vn 0.035872 0.938379 -0.343740
vn 0.035872 0.938379 -0.343740
vn -0.421963 0.897004 0.131650
vn -0.421963 0.897004 0.131650
vn -0.421963 0.897004 0.131650
vn -0.420879 0.893254 -0.157978
vn -0.420879 0.893254 -0.157978
vn -0.420879 0.893255 -0.157978
vn 0.000000 1.000000 0.000000
vn 0.000000 1.000000 0.000000
vn 0.000000 1.000000 0.000000
vn 0.000000 1.000000 0.000000
vn 0.134967 0.619036 0.773678
vn 0.134967 0.619036 0.773678
vn 0.134967 0.619036 0.773678
vn -0.110286 0.639104 0.761172
vn -0.110286 0.639104 0.761172
vn -0.110286 0.639104 0.761172
vn -0.000000 0.000000 -1.000000
vn -0.000000 0.000000 -1.000000
vn -0.000000 0.000000 -1.000000
vn -0.000000 0.000000 -1.000000
vn -0.000000 0.000000 -1.000000
vn -0.000000 0.000000 -1.000000
vn -0.440474 0.758350 -0.480508
vn -0.440474 0.758350 -0.480508
vn -0.440474 0.758350 -0.480508
vn 0.000000 1.000000 0.000000
vn 0.000000 1.000000 0.000000
vn 0.000000 1.000000 0.000000
vn 0.000000 1.000000 0.000000
vn 0.000000 1.000000 0.000001
vn 0.000000 1.000000 0.000001
vn 0.000000 1.000000 0.000001
vn 0.000000 1.000000 0.000001
vn 0.000000 1.000000 -0.000001
vn 0.000000 1.000000 -0.000001
vn 0.000000 1.000000 -0.000001
vn 0.000000 1.000000 -0.000001
vn 0.000000 1.000000 0.000000
vn 0.000000 1.000000 0.000000
vn 0.000000 1.000000 0.000000
vn 0.000000 1.000000 0.000000
vn 0.000000 1.000000 -0.000000
vn 0.000000 1.000000 -0.000000
vn 0.000000 1.000000 -0.000000
vn 0.000000 1.000000 -0.000000
vn 0.000000 1.000000 0.000000
vn 0.000000 1.000000 0.000000
vn 0.000000 1.000000 0.000000
vn 0.000000 1.000000 0.000000
vn 0.000000 0.417982 0.908455
vn 0.000000 0.417982 0.908455
vn 0.000000 0.417982 0.908455
vn 0.000000 0.417982 0.908455
vn 0.000000 0.417982 0.908455
vn 0.000000 0.417982 0.908455
vn 0.000000 0.417982 0.908455
vn 0.000000 0.000000 1.000000
vn 0.000000 0.000000 1.000000
vn 0.000000 0.000000 1.000000
vn 0.000000 0.000000 1.000000
vn 0.000000 0.000000 1.000000
vn 0.000000 0.000000 1.000000
vn 0.000000 0.000000 1.000000
vn -0.862202 0.506565 0.000000
vn -0.862202 0.506565 0.000000
vn -0.862202 0.506565 0.000000
vn -0.862202 0.506565 0.000000
vn -0.862202 0.506564 -0.000000
vn -0.862202 0.506564 -0.000000
vn -0.862202 0.506564 -0.000000
vn -0.862202 0.506564 -0.000000
vn 0.000000 0.418015 -0.908440
vn 0.000000 0.418015 -0.908440
vn 0.000000 0.418015 -0.908440
vn 0.000000 0.418015 -0.908440
vn -0.000000 0.418015 -0.908440
vn -0.000000 0.418015 -0.908440
vn -0.000000 0.418015 -0.908440
vn -0.000000 0.418015 -0.908440
s off
f 1/1/1 2/2/2 4/4/3 3/3/4
f 13/5/5 14/6/6 80/136/7 79/138/8 16/8/9
f 37/9/10 38/10/11 39/11/12 40/12/13
f 20/17/14 19/18/15 14/19/16 13/20/17
f 14/21/18 78/132/19 76/129/20 15/24/21 80/137/22
f 20/25/23 13/26/24 16/27/25 103/165/26 17/28/27
f 7/29/28 8/30/29 10/31/30 9/32/31
f 58/33/32 57/34/33 59/35/34 60/36/35
f 12/37/36 102/160/37 99/157/38 5/40/39
f 53/41/40 55/42/41 56/43/42 54/44/43
f 11/45/44 12/46/45 16/47/46 79/135/47
f 9/48/48 104/164/49 103/162/50
f 73/123/51 74/126/52 18/54/53
f 12/55/54 9/56/55 103/161/56 16/57/57
f 5/40/58 99/157/59 101/159/60 21/59/61
f 6/39/62 8/30/63 23/60/64 22/58/65
f 8/30/66 7/29/67 24/61/68 23/60/69
f 7/29/70 5/40/71 21/59/72 24/61/73
f 25/63/74 101/159/75 86/144/76
f 22/58/77 84/142/78 81/139/79 26/62/80 85/143/81
f 23/60/82 24/61/83 94/152/84
f 24/61/85 21/59/86 98/156/87
f 25/63/88 86/144/89 30/66/90 29/67/91
f 31/68/92 83/141/93 82/140/94 27/64/95
f 27/64/96 89/147/97 88/146/98 31/68/99
f 32/69/100 97/155/101 29/67/102
f 29/67/103 30/66/104 34/70/105 33/71/106
f 30/66/107 31/68/108 35/72/109 34/70/110
f 31/68/111 88/146/112 90/148/113 87/145/114 32/69/115 36/73/116 35/72/117
f 32/69/118 29/67/119 33/71/120 36/73/121
f 33/71/122 34/70/123 38/74/124 37/75/125
f 34/70/126 35/72/127 39/76/128 38/74/129
f 35/72/130 36/73/131 40/77/132 39/76/133
f 36/73/134 33/71/135 37/75/136 40/77/137
f 11/38/138 10/78/139 41/79/140 51/80/141 49/81/142 42/82/143
f 10/78/144 8/83/145 43/84/146 41/79/147
f 8/83/148 6/39/149 44/85/150 50/86/151 52/87/152 43/84/153
f 6/39/154 11/38/155 42/82/156 44/85/157
f 9/88/158 12/37/159 45/89/160 55/42/161 53/41/162 46/90/163
f 12/37/164 5/40/165 47/91/166 45/89/167
f 5/40/168 7/92/169 48/93/170 54/44/171 56/43/172 47/91/173
f 7/92/174 9/88/175 46/90/176 48/93/177
f 62/94/178 61/95/179 63/96/180 64/97/181
f 52/87/182 50/86/183 49/81/184 51/80/185
f 66/98/186 65/99/187 67/100/188 68/101/189
f 70/102/190 69/103/191 71/104/192 72/105/193
f 42/106/194 49/107/195 57/34/196 58/33/197
f 49/107/198 50/108/199 59/35/200 57/34/201
f 50/108/202 44/109/203 60/36/204 59/35/205
f 44/109/206 42/106/207 58/33/208 60/36/209
f 46/110/210 53/111/211 61/95/212 62/94/213
f 53/111/214 54/112/215 63/96/216 61/95/217
f 54/112/218 48/113/219 64/97/220 63/96/221
f 48/113/222 46/110/223 62/94/224 64/97/225
f 52/114/226 51/115/227 65/99/228 66/98/229
f 51/115/230 41/116/231 67/100/232 65/99/233
f 41/116/234 43/117/235 68/101/236 67/100/237
f 43/117/238 52/114/239 66/98/240 68/101/241
f 56/118/242 55/119/243 69/103/244 70/102/245
f 55/119/246 45/120/247 71/104/248 69/103/249
f 45/120/250 47/121/251 72/105/252 71/104/253
f 47/121/254 56/118/255 70/102/256 72/105/257
f 10/51/258 74/126/259 73/123/260
f 10/51/261 11/52/262 77/131/263
f 78/133/264 77/131/265 76/130/266
f 75/128/267 77/131/268 78/133/269
f 79/138/270 80/136/271 15/7/272
f 77/131/273 11/52/274 79/134/275 15/53/276 76/130/277
f 10/51/278 77/131/279 75/128/280 74/126/281
f 78/132/282 19/22/283 18/23/284 74/125/285 75/127/286
f 14/21/287 19/22/288 78/132/289
f 84/142/290 83/141/291 81/139/292
f 82/140/293 83/141/294 84/142/295
f 30/66/296 83/141/297 31/68/298
f 84/142/299 23/60/300 27/64/301 82/140/302
f 22/58/303 23/60/304 84/142/305
f 86/144/306 85/143/307 26/62/308
f 30/66/309 26/62/310 81/139/311 83/141/312
f 30/66/313 86/144/314 26/62/315
f 90/148/316 89/147/317 87/145/318
f 88/146/319 89/147/320 90/148/321
f 94/152/322 93/151/323 92/150/324
f 91/149/325 93/151/326 94/152/327
f 98/156/328 97/155/329 96/154/330
f 95/153/331 97/155/332 98/156/333
f 101/159/334 100/158/335 6/39/336 22/58/337
f 99/157/338 102/160/339 101/159/340
f 101/159/341 102/160/342 100/158/343
f 17/13/344 104/163/345 73/124/346 18/14/347 19/15/348 20/16/349
f 103/162/350 104/164/351 17/50/352
f 9/48/353 10/49/354 73/122/355 104/164/356
f 93/151/357 32/69/358 87/145/359 89/147/360
f 93/151/361 89/147/362 27/64/363 92/150/364
f 28/65/365 32/69/366 93/151/367 91/149/368
f 28/65/369 96/154/370 97/155/371 32/69/372
f 29/67/373 97/155/374 95/153/375 25/63/376
f 21/59/377 101/159/378 25/63/379
f 86/144/380 101/159/381 22/58/382 85/143/383
f 102/160/384 11/38/385 6/39/386 100/158/387
f 12/37/388 11/38/389 102/160/390
f 98/156/391 21/59/392 25/63/393 95/153/394
f 24/61/395 98/156/396 96/154/397 28/65/398
f 94/152/399 24/61/400 28/65/401 91/149/402
f 23/60/403 94/152/404 92/150/405 27/64/406
