# This file uses meters as units for non-parametric coordinates.

v 250.000000 138.372986 -146.207825
v 117.500000 138.372986 -146.207825
v 250.000000 211.034576 -63.173927
v 117.500000 280.790344 0.000082
v 250.000000 174.400391 -104.690865
v 250.000000 268.726654 -3.104622
v 250.000000 229.899857 -42.415680
v 250.000000 192.534744 -83.932487
v 250.000000 156.631439 -125.449265
v 250.000000 267.677795 -20.758392
v 250.000000 229.200684 -62.275322
v 250.000000 192.185135 -103.792114
v 250.000000 156.631439 -146.207825
v 250.000000 289.971680 -3.104621
v 250.000000 210.510193 -83.033730
v 250.000000 174.225586 -124.550674
v 117.500000 34.807037 -21.657156
v 117.500000 121.824440 -125.449432
v 117.500000 17.403500 -0.000002
v 117.500000 121.824440 -145.309082
v 117.500000 17.403500 -20.758558
v 117.500000 52.210484 -42.415710
v 117.500000 69.614037 -63.174095
v 117.500000 87.017548 -83.932503
v 117.500000 104.421013 -104.691032
v 117.500000 104.420990 -124.550652
v 117.500000 87.017509 -103.792145
v 117.500000 69.613983 -83.033890
v 117.500000 52.210484 -62.275337
v 117.500000 34.807011 -41.516953
v 132.500000 156.631439 -146.207825
v 132.500000 156.631439 -125.449265
v 132.500000 174.225586 -124.550674
v 132.500000 174.400360 -104.690872
v 132.500000 192.185135 -103.792114
v 132.500000 192.534744 -83.932480
v 132.500000 210.510193 -83.033730
v 132.500000 211.034592 -63.173935
v 132.500000 229.200684 -62.275322
v 132.500000 229.899857 -42.415680
v 132.500000 248.256546 -41.516792
v 132.500000 249.130569 -21.657135
v 132.500000 267.677795 -20.758392
v 132.500000 268.726654 -3.104606
v 132.500000 289.971680 -3.104606
v 132.500000 -0.000009 0.000032
v 132.500000 280.790344 -0.000097
v 132.500000 561.580750 -0.000003
v 117.500000 407.304199 -146.058044
v 132.500000 407.304169 -145.983124
v 250.000000 280.790344 0.000082
v 0.000000 -0.000009 -0.000008
v 0.000000 138.372986 -250.000000
v 250.000000 138.372986 -250.000000
v 0.000000 69.613976 -83.033897
v 0.000000 34.807011 -41.516960
v 0.000000 104.421013 -124.550690
v 0.000000 121.824440 -145.309082
v 0.000000 87.017509 -103.792145
v 0.000000 52.210480 -62.275337
v 0.000000 17.403500 -20.758558
v 0.000000 121.824440 -125.449432
v 0.000000 87.017548 -83.932503
v 0.000000 52.210480 -42.415714
v 0.000000 17.403502 -0.000008
v 0.000000 138.372986 -146.207809
v 0.000000 69.614037 -63.174095
v 0.000000 34.807011 -21.657152
v 0.000000 104.421013 -104.691032
v 250.000000 -0.000009 -0.000097
v 0.000000 407.304199 -146.207809
v 0.000000 280.790344 -0.000015
v 249.999985 561.580750 -0.000013
v 250.000000 407.304199 -146.207809
v 250.000000 407.304169 -250.000000
v 0.000000 407.304199 -250.000000
v 250.000000 289.971680 -0.000015
v 132.500000 289.971680 -0.000015
v 250.000000 249.130569 -21.657133
v 250.000000 249.130569 -42.415680
v 0.000000 289.971680 -0.000015
v -0.000000 561.580750 -0.000003
v 117.500000 -0.000009 0.000025
v 132.500000 138.372986 -146.207825
vt 0.016605 0.519830
vt 0.016605 0.519830
vt 0.016605 0.519830
vt 0.016605 0.519830
vt 0.016605 0.519830
vt 0.016605 0.519830
vt 0.016605 0.519830
vt 0.016605 0.519830
vt 0.016605 0.519830
vt 0.016605 0.519830
vt 0.396098 0.764861
vt 0.407256 0.750354
vt 0.407256 0.993331
vt 0.396098 0.993331
vt 0.396098 0.751144
vt 0.348091 0.765057
vt 0.319858 0.765057
vt 0.333566 0.750552
vt 0.207709 0.992737
vt 0.376323 0.765057
vt 0.291625 0.765057
vt 0.405213 0.765057
vt 0.361798 0.750552
vt 0.263393 0.765057
vt 0.305333 0.750552
vt 0.390031 0.750552
vt 0.235160 0.765057
vt 0.277100 0.750552
vt 0.248868 0.750552
vt 0.206928 0.765057
vt 0.006016 0.992737
vt 0.220635 0.750552
vt 0.168894 0.792690
vt 0.168894 0.778591
vt 0.180051 0.778591
vt 0.180051 0.992916
vt 0.168894 0.992916
vt 0.402281 0.765057
vt 0.372851 0.765057
vt 0.387878 0.751146
vt 0.260096 0.993050
vt 0.282804 0.765651
vt 0.313112 0.765057
vt 0.343127 0.765057
vt 0.431420 0.765057
vt 0.460904 0.765057
vt 0.032789 0.993644
vt 0.298289 0.751146
vt 0.328444 0.751146
vt 0.358307 0.751146
vt 0.417156 0.751144
vt 0.446142 0.751144
vt 0.252404 0.765651
vt 0.250196 0.765651
vt 0.269409 0.751146
vt 0.402281 0.765651
vt 0.372851 0.765651
vt 0.460904 0.765651
vt 0.431420 0.765651
vt 0.431420 0.765651
vt 0.402281 0.765651
vt 0.282804 0.765651
vt 0.252404 0.765651
vt 0.372851 0.765651
vt 0.343127 0.765651
vt 0.343127 0.765651
vt 0.313112 0.765651
vt 0.313112 0.765651
vt 0.282804 0.765651
vt 0.252404 0.765651
vt 0.032789 0.993644
vt 0.282804 0.765057
vt 0.260096 0.993050
vt 0.032789 0.993050
vt 0.282804 0.765057
vt 0.401422 0.750468
vt 0.488824 0.750468
vt 0.488824 0.992656
vt 0.401422 0.992656
vt 0.411148 0.750776
vt 0.491849 0.750776
vt 0.468738 0.765057
vt 0.253558 0.993050
vt 0.411148 0.992963
vt 0.436566 0.765057
vt 0.452377 0.750550
vt 0.404789 0.765057
vt 0.420764 0.750550
vt 0.372698 0.765057
vt 0.388837 0.750552
vt 0.340294 0.765057
vt 0.356596 0.750552
vt 0.307534 0.765057
vt 0.324042 0.750552
vt 0.274544 0.765057
vt 0.291173 0.750552
vt 0.241493 0.765057
vt 0.259730 0.750552
vt 0.005895 0.993050
vt 0.491849 0.992963
vt 0.491849 0.765283
vt 0.385040 0.627730
vt 0.385038 0.741337
vt 0.370504 0.741337
vt 0.370504 0.627730
vt 0.442613 0.627730
vt 0.442613 0.741337
vt 0.428079 0.741337
vt 0.428078 0.627730
vt 0.310972 0.741337
vt 0.310972 0.627730
vt 0.326162 0.627730
vt 0.326162 0.741337
vt 0.296190 0.627730
vt 0.296190 0.741337
vt 0.283272 0.741337
vt 0.283272 0.627730
vt 0.341490 0.741337
vt 0.341490 0.627730
vt 0.356024 0.627730
vt 0.356024 0.741337
vt 0.413902 0.627730
vt 0.413902 0.741337
vt 0.399367 0.741337
vt 0.399368 0.627730
vt 0.471829 0.627730
vt 0.471830 0.741337
vt 0.456638 0.741337
vt 0.456637 0.627730
vt 0.486504 0.624372
vt 0.486504 0.510765
vt 0.359686 0.624372
vt 0.264067 0.741337
vt 0.486383 0.741337
vt 0.486383 0.627730
vt 0.264067 0.627730
vt 0.359686 0.510765
vt 0.266340 0.627730
vt 0.266340 0.741337
vt 0.273808 0.510766
vt 0.273808 0.624373
vt 0.287680 0.510766
vt 0.287681 0.624373
vt 0.302873 0.624373
vt 0.302872 0.510765
vt 0.492041 0.750468
vt 0.492041 0.992656
vt 0.404715 0.992656
vt 0.404715 0.750468
vt 0.358064 0.742944
vt 0.261174 0.633258
vt 0.358064 0.509569
vt 0.261174 0.742944
vt 0.261174 0.619255
vt 0.261174 0.509569
vt 0.373558 0.624372
vt 0.373559 0.510765
vt 0.388093 0.510765
vt 0.388092 0.624372
vt 0.316746 0.624372
vt 0.316745 0.510765
vt 0.331279 0.510765
vt 0.331280 0.624372
vt 0.430372 0.624372
vt 0.430372 0.510765
vt 0.444906 0.510765
vt 0.444907 0.624372
vt 0.458779 0.624372
vt 0.458778 0.510765
vt 0.473313 0.510765
vt 0.473313 0.624372
vt 0.401965 0.624372
vt 0.401965 0.510765
vt 0.416500 0.510765
vt 0.416500 0.624372
vt 0.345152 0.624372
vt 0.345152 0.510765
vt 0.491849 0.750468
vt 0.491849 0.992656
vt 0.390291 0.992656
vt 0.390291 0.750468
vn 0.000000 1.000000 0.000000
vn 0.000000 0.999652 -0.026395
vn 0.000000 0.999652 -0.026395
vn 0.000000 1.000000 0.000000
vn 0.000000 1.000000 0.000000
vn -0.000000 0.999961 -0.008801
vn -0.000000 0.999961 -0.008801
vn 0.000000 1.000000 0.000000
vn -0.003801 0.999761 -0.021513
vn -0.003801 0.999761 -0.021513
vn -0.003801 0.999761 -0.021513
vn -0.003801 0.999761 -0.021513
vn 0.000000 1.000000 0.000000
vn -0.000000 0.998240 -0.059309
vn -0.000000 0.998240 -0.059309
vn 0.000000 1.000000 0.000000
vn 0.000000 0.999381 -0.035184
vn 0.000000 1.000000 0.000003
vn 0.000000 1.000000 0.000003
vn 0.000000 0.999381 -0.035184
vn 0.000000 1.000000 0.000000
vn 0.000000 0.999845 -0.017601
vn 0.000000 0.999845 -0.017601
vn 0.000000 1.000000 0.000000
vn 0.000000 1.000000 0.000000
vn 0.000000 1.000000 0.000000
vn 0.000000 1.000000 0.000000
vn 0.000000 1.000000 0.000000
vn -0.000000 0.059453 -0.998231
vn 0.000000 0.049406 -0.998779
vn 0.000000 0.049406 -0.998779
vn -0.000000 0.059453 -0.998231
vn -0.000000 0.059454 -0.998231
vn 0.000000 0.050471 -0.998726
vn 0.000000 0.050471 -0.998726
vn -0.000000 0.059454 -0.998231
vn -0.000665 0.000546 -1.000000
vn 0.000000 0.000000 -1.000000
vn -0.000623 0.000512 -1.000000
vn -0.000000 0.059453 -0.998231
vn 0.000000 0.049937 -0.998752
vn 0.000000 0.049937 -0.998752
vn -0.000000 0.059453 -0.998231
vn -0.000000 0.059453 -0.998231
vn 0.000000 0.051007 -0.998698
vn 0.000000 0.051007 -0.998698
vn -0.000000 0.059453 -0.998231
vn -1.000000 -0.000000 0.000000
vn -1.000000 0.000000 0.000000
vn -1.000000 0.000000 0.000000
vn -1.000000 -0.000000 0.000000
vn -1.000000 -0.000000 0.000000
vn -1.000000 0.000000 0.000000
vn -1.000000 0.000000 0.000000
vn -1.000000 0.000000 0.000000
vn -1.000000 -0.000000 0.000000
vn -1.000000 0.000000 0.000000
vn -1.000000 -0.000000 0.000000
vn -1.000000 0.000000 0.000000
vn -1.000000 0.000000 0.000000
vn -1.000000 0.000000 0.000000
vn -1.000000 0.000000 0.000000
vn -1.000000 0.000000 0.000000
vn -1.000000 -0.000000 0.000000
vn -1.000000 -0.000001 0.000000
vn -1.000000 -0.000000 0.000000
vn -1.000000 -0.000000 0.000000
vn -1.000000 0.000000 0.000000
vn -1.000000 0.000000 0.000000
vn -1.000000 -0.000000 0.000000
vn -1.000000 -0.000000 0.000000
vn -1.000000 0.000000 0.000000
vn -1.000000 0.000000 0.000000
vn -1.000000 -0.000000 0.000000
vn -1.000000 -0.000000 0.000000
vn -1.000000 -0.000000 0.000000
vn -1.000000 0.000000 0.000000
vn -1.000000 0.000000 0.000000
vn -1.000000 0.000000 0.000000
vn -1.000000 0.000000 0.000000
vn -1.000000 0.000000 0.000000
vn -1.000000 0.000000 0.000000
vn -1.000000 0.000000 0.000000
vn -1.000000 -0.000000 0.000000
vn -1.000000 0.000000 0.000000
vn -1.000000 0.000000 0.000000
vn -1.000000 0.000000 0.000000
vn -1.000000 0.000000 0.000000
vn -1.000000 -0.000000 0.000000
vn -1.000000 0.000000 0.000000
vn -1.000000 0.000000 0.000000
vn -1.000000 0.000000 0.000000
vn 0.004995 0.000896 -0.999987
vn 0.004995 0.000896 -0.999987
vn 0.004995 0.000896 -0.999987
vn 1.000000 0.000000 0.000000
vn 1.000000 0.000000 0.000000
vn 1.000000 0.000000 0.000000
vn 1.000000 0.000000 0.000000
vn 1.000000 0.000000 0.000000
vn 1.000000 0.000000 0.000000
vn 1.000000 0.000000 0.000000
vn 1.000000 0.000000 0.000000
vn 1.000000 0.000000 0.000000
vn 1.000000 0.000000 0.000000
vn 1.000000 0.000000 0.000000
vn 1.000000 0.000000 0.000000
vn 1.000000 0.000000 0.000000
vn 1.000000 0.000000 0.000000
vn 1.000000 0.000000 0.000000
vn 1.000000 0.000000 0.000000
vn 1.000000 0.000000 0.000000
vn 1.000000 0.000000 0.000000
vn 1.000000 0.000000 0.000000
vn 1.000000 0.000000 0.000000
vn 1.000000 0.000000 0.000000
vn 1.000000 0.000000 0.000000
vn 1.000000 0.000000 0.000000
vn 1.000000 0.000000 0.000000
vn 0.000005 0.000000 1.000000
vn 0.000000 -0.000000 1.000000
vn 0.000000 -0.000000 1.000000
vn 0.000005 0.000000 1.000000
vn -0.000000 -0.000000 1.000000
vn -0.000000 -0.000000 1.000000
vn 0.000000 -0.000000 1.000000
vn 0.000000 -0.000000 1.000000
vn 0.000000 1.000000 0.000000
vn 0.000000 1.000000 -0.000000
vn 0.000000 1.000000 0.000000
vn 0.000000 1.000000 0.000000
vn 0.000000 1.000000 0.000000
vn 0.000000 1.000000 0.000000
vn 0.000000 1.000000 0.000000
vn 0.000000 1.000000 0.000000
vn 0.000000 1.000000 0.000000
vn 0.000000 1.000000 0.000000
vn 0.000000 1.000000 0.000000
vn 0.000000 1.000000 0.000000
vn 0.000000 1.000000 0.000000
vn 0.000000 1.000000 0.000000
vn 0.000000 1.000000 0.000000
vn 0.000000 1.000000 0.000000
vn 0.000000 1.000000 0.000000
vn 0.000000 1.000000 0.000000
vn 0.000000 1.000000 0.000000
vn 0.000000 1.000000 -0.000003
vn 0.000000 1.000000 -0.000003
vn 0.000000 1.000000 -0.000003
vn 0.000000 1.000000 -0.000003
vn 0.000000 1.000000 0.000000
vn 0.000000 1.000000 0.000000
vn 0.000000 1.000000 0.000000
vn 0.000000 1.000000 0.000000
vn 0.000000 1.000000 0.000000
vn 0.000000 1.000000 0.000000
vn 0.000000 1.000000 0.000000
vn 0.000000 1.000000 0.000000
vn 0.000000 0.059454 0.998231
vn 0.000000 0.059454 0.998231
vn 0.000000 0.059454 0.998231
vn 0.000000 0.059454 0.998231
vn 0.000000 0.059453 0.998231
vn 0.000000 0.059453 0.998231
vn 0.000000 0.059453 0.998231
vn 0.000000 0.059453 0.998231
vn 0.000000 0.059454 0.998231
vn 0.000000 0.059454 0.998231
vn 0.000000 0.059454 0.998231
vn 0.000000 0.059454 0.998231
vn 0.000005 0.000000 1.000000
vn -0.000000 0.000002 1.000000
vn 0.000000 -0.000000 1.000000
vn 0.000000 0.059453 0.998231
vn 0.000000 0.059453 0.998231
vn 0.000000 0.059453 0.998231
vn 0.000000 0.059453 0.998231
vn 0.000000 0.059453 0.998231
vn 0.000000 0.059453 0.998231
vn 0.000000 0.059453 0.998231
vn 0.000000 0.059453 0.998231
vn 0.000000 0.059453 0.998231
vn 0.000000 0.059453 0.998231
vn 0.000000 0.059453 0.998231
vn 0.000000 0.059453 0.998231
vn 0.000000 0.059453 0.998231
vn 0.000000 0.059453 0.998231
vn 0.000000 0.059453 0.998231
vn 0.000000 0.059453 0.998231
vn 0.000000 1.000000 0.000000
vn 0.000000 1.000000 -0.000000
vn 0.000000 1.000000 0.000000
vn 0.000417 -0.756034 -0.654532
vn 0.000417 -0.756034 -0.654532
vn 0.000417 -0.756034 -0.654532
vn 0.000417 -0.756034 -0.654532
vn 0.000694 -0.687593 0.726096
vn 0.000694 -0.687593 0.726096
vn 0.000694 -0.687593 0.726096
vn 0.000694 -0.687593 0.726096
vn -0.000001 -1.000000 0.000000
vn 0.000000 -1.000000 0.000000
vn -0.000000 -1.000000 0.000000
vn -0.000000 -1.000000 0.000000
vn -0.000000 -1.000000 0.000000
vn 0.000000 -1.000000 0.000000
vn 0.000000 -1.000000 0.000000
vn -0.000000 -1.000000 0.000000
vn -0.000001 -1.000000 0.000000
vn -0.000000 -1.000000 0.000000
vn 0.000000 1.000000 0.000000
vn 0.000000 1.000000 -0.000000
vn 0.000000 1.000000 -0.000001
vn -0.000000 0.000000 -1.000000
vn -0.000000 0.059453 -0.998231
vn -0.000000 0.000000 -1.000000
vn -0.000000 0.000000 -1.000000
vn 1.000000 0.000000 0.000000
vn 1.000000 0.000000 0.000000
vn 1.000000 0.000000 0.000000
vn 1.000000 0.000000 0.000000
vn 1.000000 0.000000 0.000000
vn 1.000000 0.000000 0.000000
vn 1.000000 0.000000 0.000000
vn 1.000000 0.000000 0.000000
vn 1.000000 0.000000 0.000000
vn 1.000000 0.000000 0.000000
vn 1.000000 0.000000 0.000000
vn 0.000000 1.000000 0.000000
vn 0.000000 1.000000 0.000000
vn 0.000000 1.000000 0.000000
vn 0.000000 1.000000 0.000000
vn -0.000000 0.059454 -0.998231
vn 0.000000 0.048400 -0.998828
vn 0.000000 0.048400 -0.998828
vn 0.000000 0.048400 -0.998828
vn -0.003913 0.023908 -0.999707
vn -0.003913 0.023908 -0.999707
vn -0.000000 0.059453 -0.998231
vn -0.003913 0.023908 -0.999707
vn 1.000000 0.000000 0.000000
vn 1.000000 0.000000 0.000000
vn 1.000000 0.000000 0.000000
vn 0.000000 0.000000 1.000000
vn 0.000000 0.000000 1.000000
vn 0.000000 0.000000 1.000000
vn 0.000000 0.000000 1.000000
vn -1.000000 0.000000 0.000000
vn -1.000000 0.000000 0.000000
vn -1.000000 0.000000 0.000000
vn -1.000000 -0.000000 0.000000
vn -1.000000 -0.000000 0.000000
vn -1.000000 -0.000000 0.000000
vn -1.000000 0.000000 0.000000
vn -1.000000 0.000000 0.000000
vn -1.000000 0.000000 0.000000
vn -1.000000 0.000000 0.000000
vn 0.000000 -0.000000 1.000000
vn 0.000000 -0.000000 1.000000
vn 0.000000 -0.000000 1.000000
vn 0.000000 -0.000000 1.000000
vn -0.000000 0.000001 1.000000
vn 0.000000 0.059453 0.998231
vn 0.000000 0.059453 0.998231
vn -0.000000 0.000001 1.000000
vn -0.000000 0.059453 -0.998231
vn 0.000000 0.000000 -1.000000
vn 0.000000 0.000000 -1.000000
vn -0.000000 0.059453 -0.998231
vn 0.000000 1.000000 0.000000
vn 0.000000 1.000000 0.000000
vn 0.000000 1.000000 0.000000
vn -0.000665 0.000546 -1.000000
vn -0.000623 0.000512 -1.000000
vn -0.000678 0.000557 -1.000000
vn -1.000000 0.000000 0.000000
vn -1.000000 0.000000 0.000000
vn -1.000000 0.000000 0.000000
vn -1.000000 -0.000000 0.000000
vn -1.000000 -0.000000 0.000000
vn -1.000000 -0.000000 0.000000
vn -1.000000 -0.000000 0.000000
vn -1.000000 -0.000000 0.000000
vn -1.000000 -0.000000 0.000000
vn -1.000000 0.000000 0.000000
vn -1.000000 0.000000 0.000000
vn -1.000000 0.000000 0.000000
vn -1.000000 0.000000 0.000000
vn -1.000000 0.000000 0.000000
vn -1.000000 0.000000 0.000000
vn -1.000000 -0.000001 0.000000
vn -1.000000 -0.000001 0.000000
vn -1.000000 -0.000001 0.000000
vn -1.000000 -0.000000 0.000000
vn -1.000000 -0.000000 0.000000
vn -1.000000 -0.000000 0.000000
vn -1.000000 0.000000 0.000000
vn -1.000000 0.000000 0.000000
vn -1.000000 0.000000 0.000000
vn -1.000000 0.000000 0.000000
vn -1.000000 0.000000 0.000000
vn -1.000000 0.000000 0.000000
vn -1.000000 0.000000 0.000000
vn -1.000000 0.000000 0.000000
vn -1.000000 0.000000 0.000000
vn -1.000000 0.000001 0.000000
vn -1.000000 0.000001 0.000000
vn -1.000000 0.000001 0.000000
vn -1.000000 -0.000001 0.000000
vn -1.000000 -0.000001 0.000000
vn -1.000000 -0.000001 0.000000
vn -1.000000 0.000000 0.000000
vn -1.000000 0.000000 0.000000
vn -1.000000 0.000000 0.000000
vn -1.000000 0.000000 -0.000000
vn -1.000000 0.000000 -0.000000
vn -1.000000 0.000000 -0.000000
s off
f 15/102/1 37/103/2 38/104/3 3/105/4
f 16/106/5 33/107/6 34/108/7 5/109/8
f 42/110/9 79/111/10 80/112/11 41/113/12
f 10/114/13 43/115/14 44/116/15 6/117/16
f 40/118/17 7/119/18 11/120/19 39/121/20
f 12/122/21 35/123/22 36/124/23 8/125/24
f 13/126/25 31/127/26 32/128/27 9/129/28
f 3/105/29 38/104/30 39/121/31 11/120/32
f 5/109/33 34/108/34 35/123/35 12/122/36
f 31/33/37 84/34/38 2/35/39
f 8/125/40 36/124/41 37/103/42 15/102/43
f 9/129/44 32/128/45 33/107/46 16/106/47
f 22/16/48 23/17/49 29/18/50
f 18/27/51 2/30/52 20/32/53
f 4/19/54 49/31/55 2/30/56
f 17/20/57 22/16/58 30/23/59
f 23/17/60 24/21/61 28/25/62
f 24/21/63 25/24/64 27/28/65
f 25/24/66 18/27/67 26/29/68
f 4/19/69 2/30/70 18/27/71
f 24/21/72 4/19/73 25/24/74
f 18/27/75 25/24/76 4/19/77
f 4/19/78 24/21/79 23/17/80
f 19/22/81 17/20/82 21/26/83
f 22/16/84 4/19/85 23/17/86
f 17/20/87 4/19/88 22/16/89
f 19/22/90 4/19/91 17/20/92
f 31/33/93 49/36/94 50/37/95
f 35/56/96 37/57/97 36/40/98
f 31/58/99 33/59/100 32/52/101
f 33/60/102 35/61/103 34/51/104
f 43/62/105 45/63/106 44/55/107
f 37/64/108 39/65/109 38/50/110
f 39/66/111 41/67/112 40/49/113
f 41/68/114 43/69/115 42/48/116
f 45/70/117 48/71/118 78/54/119
f 19/11/120 46/12/121 47/13/122 4/14/123
f 70/146/124 51/147/125 47/148/126 46/149/127
f 53/150/128 2/151/129 54/152/130
f 67/156/131 23/157/132 28/158/133 55/159/134
f 68/160/135 17/161/136 30/162/137 56/163/138
f 69/164/139 25/165/140 26/166/141 57/167/142
f 62/168/143 18/169/144 20/170/145 58/171/146
f 63/172/147 24/173/148 27/174/149 59/175/150
f 64/176/151 22/177/152 29/137/153 60/132/154
f 65/143/155 19/142/156 21/145/157 61/144/158
f 57/167/159 26/166/160 18/169/161 62/168/162
f 55/159/163 28/158/164 24/173/165 63/172/166
f 56/163/167 30/162/168 22/177/169 64/176/170
f 19/11/171 83/15/172 46/12/173
f 58/171/174 20/170/175 2/131/176 66/130/177
f 60/132/178 29/137/179 23/157/180 67/156/181
f 61/144/182 21/145/183 17/161/184 68/160/185
f 59/175/186 27/174/187 25/165/188 69/164/189
f 66/153/190 2/151/191 53/150/192
f 49/2/193 4/1/194 72/5/195 71/6/196
f 48/4/197 50/3/198 74/7/199 73/8/200
f 49/2/201 71/6/202 76/9/203
f 50/3/204 76/9/205 75/10/206 74/7/207
f 50/3/208 49/2/209 76/9/210
f 54/152/211 2/151/212 84/154/213
f 14/138/214 6/117/215 44/116/216 45/139/217
f 43/72/218 50/73/219 48/74/220
f 50/41/221 43/75/222 41/43/223 39/44/224 37/39/225 35/38/226 33/45/227 31/46/228
f 14/138/229 45/139/230 78/133/231 77/136/232
f 10/114/233 79/111/234 42/110/235 43/115/236
f 41/113/237 80/112/238 7/119/239 40/118/240
f 43/42/241 48/47/242 45/53/243
f 53/76/244 54/77/245 75/78/246 76/79/247
f 54/80/248 1/81/249 13/101/250
f 16/85/251 13/82/252 9/86/253
f 54/80/254 13/101/255 74/100/256 75/84/257
f 78/178/258 48/179/259 82/180/260 81/181/261
f 19/142/262 65/143/263 52/141/264 83/140/265
f 1/135/266 84/134/267 31/127/268 13/126/269
f 54/152/270 84/154/271 1/155/272
f 31/33/273 2/35/274 49/36/275
f 74/83/276 13/82/277 16/85/278
f 12/87/279 16/85/280 5/88/281
f 15/89/282 12/87/283 8/90/284
f 11/91/285 15/89/286 3/92/287
f 80/93/288 11/91/289 7/94/290
f 10/95/291 80/93/292 79/96/293
f 14/97/294 10/95/295 6/98/296
f 74/83/297 16/85/298 12/87/299
f 74/83/300 12/87/301 15/89/302
f 74/83/303 15/89/304 11/91/305
f 74/83/306 11/91/307 80/93/308
f 74/83/309 80/93/310 10/95/311
f 74/83/312 10/95/313 14/97/314
f 74/83/315 14/97/316 73/99/317
