# This file uses meters as units for non-parametric coordinates.

v -19.999557 353.902313 125.000000
v -19.999557 -10.000000 125.000000
v -19.999755 286.012909 250.000000
v -19.999755 -10.000000 250.000000
v -19.999709 286.012909 -0.000001
v -19.999938 -10.000000 -0.000001
v -19.999557 353.902313 124.999878
v -20.000518 286.012848 250.000122
v -28.914123 286.012848 250.000122
v -28.913162 353.902313 124.999878
v -28.913162 365.939545 124.999878
v -0.000228 365.939545 124.999878
v -28.914123 297.080780 250.000122
v -0.000823 297.080780 250.000122
v -28.914123 286.012848 250.000122
v -20.000457 286.012848 -0.000001
v -28.914123 286.012909 0.000121
v -28.914123 297.080780 0.000121
v -0.001014 297.080780 0.000121
v -28.914123 286.012909 0.000121
v -28.913162 360.146332 132.812378
v -0.000980 360.146240 132.812622
v -0.000991 360.146240 117.187622
v -28.913162 360.146332 117.187378
v -28.913162 361.735199 117.187378
v -0.000228 361.735199 117.187378
v -28.913162 361.735199 132.812378
v -0.000213 361.735199 132.812378
v -21.685790 297.080780 250.000122
v -21.684936 360.146332 132.812378
v -21.684936 361.735199 132.812378
v -21.684936 365.939545 124.999878
v -21.684936 361.735199 117.187378
v -21.684936 360.146332 117.187378
v -21.685790 297.080780 0.000121
v -19.999755 138.006454 250.000000
v -19.999557 138.006454 125.000000
v -19.999824 138.006454 -0.000001
v -19.999557 286.012939 125.000000
v -19.999755 256.838745 250.000000
v -19.999557 256.838776 125.000000
v -19.999732 256.838745 -0.000001
v -19.999755 267.953705 250.000000
v -19.999557 267.953735 125.000000
v -19.999725 267.953705 -0.000001
vt 0.587923 0.852714
vt 0.587922 0.799193
vt 0.668874 0.799193
vt 0.668874 0.811566
vt 0.506990 0.811567
vt 0.506990 0.799192
vt 0.904564 0.504163
vt 0.904564 0.504163
vt 0.904564 0.504163
vt 0.904564 0.504163
vt 0.904564 0.504163
vt 0.904564 0.504163
vt 0.904564 0.504163
vt 0.904564 0.504163
vt 0.904564 0.504163
vt 0.904564 0.504163
vt 0.904564 0.504163
vt 0.904564 0.504163
vt 0.904564 0.504163
vt 0.904564 0.504163
vt 0.904564 0.504163
vt 0.904564 0.504163
vt 0.904564 0.504163
vt 0.904564 0.504163
vt 0.904564 0.504163
vt 0.904564 0.504163
vt 0.904564 0.504163
vt 0.904564 0.504163
vt 0.526415 0.727038
vt 0.507099 0.727038
vt 0.507099 0.650749
vt 0.526415 0.650749
vt 0.904564 0.504163
vt 0.904564 0.504163
vt 0.904564 0.504163
vt 0.904564 0.504163
vt 0.904564 0.504163
vt 0.526415 0.650749
vt 0.507099 0.650749
vt 0.507099 0.727038
vt 0.526415 0.727038
vt 0.668874 0.902294
vt 0.587922 0.902293
vt 0.506990 0.902293
vt 0.587922 0.811567
vt 0.668874 0.985071
vt 0.587922 0.985072
vt 0.506990 0.985072
vt 0.668874 0.992814
vt 0.587922 0.798987
vt 0.506990 0.798987
vt 0.587922 0.798987
vt 0.587922 0.992814
vt 0.506990 0.992814
vt 0.668874 0.798986
vt 0.587922 0.811567
vt 0.587922 0.811567
vt 0.587922 0.811567
vt 0.668874 0.811566
vt 0.506990 0.811567
vt 0.587923 0.852714
vn -1.000000 0.000000 -0.000002
vn -1.000000 0.000000 -0.000002
vn -1.000000 0.000000 -0.000002
vn -1.000000 0.000000 -0.000002
vn -1.000000 0.000000 0.000003
vn -1.000000 0.000000 0.000003
vn -1.000000 0.000000 0.000002
vn -1.000000 0.000000 0.000002
vn 0.000000 -0.901628 -0.432513
vn 0.000000 -0.901628 -0.432513
vn 0.000000 -0.901628 -0.432513
vn 0.000000 -0.901628 -0.432513
vn 0.000000 0.880582 0.473894
vn 0.000000 0.880582 0.473894
vn 0.000000 0.880582 0.473894
vn 0.000000 0.880582 0.473894
vn -1.000000 0.000001 -0.000001
vn -1.000000 0.000001 -0.000001
vn -1.000000 0.000001 -0.000001
vn -1.000000 0.000001 -0.000001
vn -0.000004 -0.901628 0.432512
vn -0.000004 -0.901628 0.432512
vn -0.000004 -0.901628 0.432512
vn -0.000004 -0.901628 0.432512
vn 0.000000 0.000000 -1.000000
vn 0.000000 0.000000 -1.000000
vn 0.000000 0.000000 -1.000000
vn 0.000000 0.000000 -1.000000
vn -1.000000 0.000000 -0.000001
vn -1.000000 0.000000 -0.000001
vn -1.000000 0.000000 -0.000001
vn 0.000000 0.904843 0.425745
vn 0.000000 0.904843 0.425745
vn 0.000000 0.904843 0.425745
vn 0.000000 0.904843 0.425745
vn 0.000000 0.904843 -0.425745
vn 0.000000 0.904843 -0.425745
vn 0.000000 0.904843 -0.425745
vn 0.000000 0.904843 -0.425745
vn 0.000000 0.880582 -0.473895
vn 0.000000 0.880581 -0.473895
vn 0.000000 0.880582 -0.473895
vn 0.000000 0.880581 -0.473895
vn 0.000000 0.000000 1.000000
vn 0.000000 0.000000 1.000000
vn 0.000000 0.000000 1.000000
vn 0.000000 0.000000 1.000000
vn -1.000000 0.000000 0.000000
vn -1.000000 0.000000 0.000000
vn -1.000000 0.000000 0.000000
vn -1.000000 0.000001 0.000001
vn -1.000000 0.000001 0.000001
vn -1.000000 0.000001 0.000001
vn -1.000000 0.000001 0.000001
vn -1.000000 0.000000 0.000000
vn -1.000000 0.000000 0.000000
vn -1.000000 0.000000 0.000000
vn -1.000000 0.000000 0.000000
vn -1.000000 0.000000 0.000000
vn -1.000000 0.000000 0.000000
vn 0.000000 0.904843 0.425745
vn 0.000000 0.904843 0.425745
vn 0.000000 0.904843 0.425745
vn 0.000000 0.904843 0.425745
vn 0.000000 0.000000 1.000000
vn 0.000000 0.000000 1.000000
vn 0.000000 0.000000 1.000000
vn 0.000000 0.000000 1.000000
vn 0.000000 0.880583 0.473893
vn 0.000000 0.880583 0.473893
vn 0.000000 0.880583 0.473893
vn 0.000000 0.880583 0.473893
vn 0.000000 0.880583 -0.473892
vn 0.000000 0.880583 -0.473892
vn 0.000000 0.880583 -0.473892
vn 0.000000 0.880583 -0.473892
vn 0.000000 0.000000 -1.000000
vn 0.000000 0.000000 -1.000000
vn 0.000000 0.000000 -1.000000
vn 0.000000 0.000000 -1.000000
vn 0.000000 0.904843 -0.425745
vn 0.000000 0.904843 -0.425745
vn 0.000000 0.904843 -0.425745
vn 0.000000 0.904843 -0.425745
vn -1.000000 0.000000 -0.000002
vn -1.000000 0.000000 -0.000002
vn -1.000000 0.000000 -0.000002
vn -1.000000 0.000000 0.000002
vn -1.000000 0.000000 0.000002
vn -1.000000 0.000000 0.000001
vn -1.000000 0.000000 0.000002
vn -1.000000 0.000000 0.000002
vn -1.000000 0.000000 0.000002
vn -1.000000 0.000000 0.000002
vn -1.000000 0.000000 -0.000002
vn -1.000000 0.000000 -0.000002
vn -1.000000 0.000000 -0.000002
vn -1.000000 0.000000 -0.000002
vn -1.000000 0.000000 -0.000002
vn -1.000000 0.000000 -0.000002
vn -1.000000 0.000000 -0.000002
vn -1.000000 0.000000 -0.000002
vn -1.000000 0.000000 0.000001
vn -1.000000 0.000000 0.000001
vn -1.000000 0.000000 0.000002
vn -1.000000 0.000000 0.000002
vn -1.000000 0.000000 -0.000002
vn -1.000000 0.000000 -0.000002
vn -1.000000 0.000000 -0.000002
vn -1.000000 0.000000 -0.000002
vn -1.000000 0.000000 0.000002
vn -1.000000 0.000000 0.000002
vn -1.000000 0.000000 0.000001
vn -1.000000 0.000000 0.000001
s off
f 37/43/1 2/2/2 4/3/3 36/42/4
f 37/43/5 38/44/6 6/6/7 2/2/8
f 7/7/9 8/8/10 9/9/11 10/10/12
f 27/11/13 31/12/14 32/13/15 11/14/16
f 21/15/17 10/10/18 15/16/19 13/17/20
f 7/7/21 10/10/22 17/18/23 16/19/24
f 34/20/25 24/21/26 25/22/27 33/23/28
f 24/21/29 11/14/30 25/22/31
f 29/24/32 30/25/33 21/15/34 13/17/35
f 18/26/36 24/21/37 34/20/38 35/27/39
f 33/23/40 25/22/41 11/14/42 32/13/43
f 30/25/44 31/12/45 27/11/46 21/15/47
f 21/15/48 27/11/49 11/14/50
f 20/28/51 10/10/52 24/21/53 18/26/54
f 24/21/55 10/10/56 11/14/57
f 21/15/58 11/14/59 10/10/60
f 22/29/61 30/30/62 29/31/63 14/32/64
f 28/33/65 31/12/66 30/25/67 22/34/68
f 12/35/69 32/13/70 31/12/71 28/33/72
f 26/36/73 33/23/74 32/13/75 12/35/76
f 34/20/77 33/23/78 26/36/79 23/37/80
f 19/38/81 35/39/82 34/40/83 23/41/84
f 1/1/85 39/57/86 3/59/87
f 1/61/88 5/5/89 39/56/90
f 41/47/91 42/48/92 38/44/93 37/43/94
f 40/46/95 41/47/96 37/43/97 36/42/98
f 43/49/99 44/53/100 41/47/101 40/46/102
f 44/53/103 45/54/104 42/48/105 41/47/106
f 3/4/107 39/58/108 44/52/109 43/55/110
f 39/45/111 5/60/112 45/51/113 44/50/114
