# This file uses meters as units for non-parametric coordinates.

v -6.921143 223.129318 253.037384
v -6.921143 238.772018 253.037384
v 0.000000 223.262802 251.790955
v -4.086462 238.772018 242.595184
v 0.000000 238.264984 252.017151
v -1.781944 238.772018 243.389206
v -6.127121 244.825577 20.000076
v -6.428619 261.052002 20.000092
v 0.000000 244.671310 20.000099
v -16.233368 252.024490 275.200684
v -13.167786 252.024490 271.803894
v -13.167786 237.676559 271.803894
v -16.233368 235.160782 275.200684
v -13.167786 237.676559 261.513184
v -16.233368 235.160782 258.433075
v -13.167786 252.024490 258.433075
v -16.233368 252.024490 258.433075
v -13.167787 244.574081 260.605927
v -13.167786 246.530777 258.433075
v -13.171722 235.157913 258.437958
v -13.167786 243.118683 258.433075
v 0.000000 237.676559 271.803894
v 0.000000 235.160782 275.200684
v 0.000000 237.676559 261.475952
v 0.000000 235.159348 258.435516
v 0.000000 252.024490 275.200684
v 0.000000 252.024490 271.803894
v -13.167786 271.783142 20.000092
v 0.000000 271.783142 20.000092
v 0.000000 244.574081 260.605927
v 0.000000 246.530777 258.433075
v -13.167786 260.413177 20.000092
v 0.000004 260.413177 20.000092
v -13.167786 268.232269 20.000092
vt 0.927614 0.504663
vt 0.927614 0.504663
vt 0.927614 0.504663
vt 0.927614 0.504663
vt 0.927614 0.504663
vt 0.927614 0.504663
vt 0.927614 0.504663
vt 0.927614 0.504663
vt 0.927614 0.504663
vt 0.927614 0.504663
vt 0.927614 0.504663
vt 0.927614 0.504663
vt 0.927614 0.504663
vt 0.927614 0.504663
vt 0.907915 0.503510
vt 0.907915 0.503510
vt 0.907915 0.503510
vt 0.907915 0.503510
vt 0.907915 0.503510
vt 0.907915 0.503510
vt 0.906704 0.504757
vt 0.906638 0.504755
vt 0.906637 0.504757
vt 0.907915 0.503510
vt 0.907915 0.503510
vt 0.907915 0.503510
vt 0.907915 0.503510
vt 0.907915 0.503510
vt 0.907557 0.504793
vt 0.907915 0.503510
vt 0.907915 0.503510
vt 0.907915 0.503510
vt 0.907915 0.503510
vt 0.907915 0.503510
vt 0.907915 0.503510
vt 0.907915 0.503510
vt 0.488440 0.401409
vt 0.489100 0.399446
vt 0.489303 0.399451
vt 0.488802 0.400946
vt 0.907915 0.503510
vt 0.907915 0.503510
vt 0.907915 0.503510
vt 0.906671 0.504795
vt 0.906638 0.504756
vt 0.907915 0.503510
vt 0.501002 0.547365
vt 0.514836 0.547365
vt 0.514836 0.749213
vt 0.501002 0.749213
vt 0.514836 0.544022
vt 0.501002 0.544023
vt 0.906537 0.504840
vt 0.905811 0.504727
vt 0.905811 0.504758
vt 0.906537 0.504872
vt 0.905913 0.504644
vt 0.504053 0.555361
vt 0.504108 0.555356
vt 0.504108 0.555378
vt 0.504053 0.555382
vt 0.905927 0.504671
vt 0.905915 0.504670
vt 0.905897 0.504667
vt 0.905897 0.504667
vn 0.161403 -0.007284 0.986862
vn 0.161403 -0.007284 0.986862
vn 0.161403 -0.007284 0.986862
vn 0.161403 -0.007284 0.986862
vn 0.055576 0.998016 0.029604
vn 0.055576 0.998016 0.029604
vn 0.055576 0.998016 0.029604
vn 0.055576 0.998016 0.029604
vn -0.010408 -0.995672 -0.092349
vn -0.010408 -0.995672 -0.092349
vn -0.010408 -0.995672 -0.092349
vn -0.010408 -0.995672 -0.092349
vn -0.999949 -0.009460 -0.003653
vn -0.999949 -0.009460 -0.003653
vn -0.999949 -0.009460 -0.003653
vn -0.999949 -0.009460 -0.003653
vn -1.000000 0.000000 0.000000
vn -1.000000 0.000000 0.000000
vn -1.000000 0.000000 0.000000
vn -1.000000 0.000000 0.000000
vn 0.000000 1.000000 0.000000
vn 0.000000 1.000000 0.000000
vn 0.000000 1.000000 0.000000
vn 0.000000 1.000000 0.000000
vn -0.000937 -1.000000 0.000000
vn -0.000937 -1.000000 0.000000
vn -0.000937 -1.000000 0.000000
vn 1.000000 0.000000 0.000000
vn 1.000000 0.000000 0.000000
vn 1.000000 0.000000 0.000000
vn 1.000000 0.000000 0.000000
vn 1.000000 0.000000 0.000000
vn 1.000000 0.000000 0.000000
vn 0.000000 0.000000 -1.000000
vn 0.000000 0.000000 -1.000000
vn 0.000000 0.000000 -1.000000
vn 0.001610 -0.000614 -0.999999
vn 0.001610 -0.000614 -0.999999
vn 0.001610 -0.000614 -0.999999
vn 1.000000 0.000000 -0.000000
vn 1.000000 0.000000 -0.000000
vn 1.000000 0.000000 -0.000000
vn 1.000000 0.000000 -0.000000
vn 0.000000 0.000000 -1.000000
vn 0.000000 0.000000 -1.000000
vn 0.000000 0.000000 -1.000000
vn 0.000000 0.000000 -1.000000
vn 0.000000 1.000000 0.000000
vn 0.000000 1.000000 0.000000
vn 0.000000 1.000000 0.000000
vn 0.000000 1.000000 0.000000
vn 0.000000 -1.000000 0.000170
vn 0.000000 -1.000000 0.000170
vn 0.000000 -1.000000 0.000170
vn 0.000000 1.000000 0.000000
vn 0.000000 1.000000 0.000000
vn 0.000000 1.000000 0.000000
vn 0.000000 1.000000 0.000000
vn 0.000000 0.000000 1.000000
vn 0.000000 0.000000 1.000000
vn 0.000000 0.000000 1.000000
vn 0.000000 0.000000 1.000000
vn 0.000000 0.994438 0.105321
vn 0.000000 0.994438 0.105321
vn 0.000000 0.994438 0.105321
vn 0.000000 0.994438 0.105321
vn 0.000000 0.743102 0.669178
vn 0.000000 0.743102 0.669178
vn 0.000000 0.743102 0.669178
vn 0.000000 0.743102 0.669178
vn -1.000000 0.000249 0.000018
vn -1.000000 0.000249 0.000018
vn -1.000000 0.000249 0.000018
vn -1.000000 0.000249 0.000018
vn 0.000044 -0.994438 -0.105328
vn 0.000044 -0.994438 -0.105328
vn 0.000044 -0.994438 -0.105328
vn 0.000044 -0.994438 -0.105328
vn -1.000000 0.000000 0.000000
vn -1.000000 0.000000 0.000000
vn -1.000000 0.000000 0.000000
vn -1.000000 0.000000 0.000000
vn 0.000109 -1.000000 0.000086
vn 0.000109 -1.000000 0.000086
vn 0.000109 -1.000000 0.000086
vn 0.001401 0.127779 0.991802
vn 0.001401 0.127779 0.991802
vn 0.001401 0.127779 0.991802
vn 0.001401 0.127779 0.991802
vn -0.000004 0.000000 -1.000000
vn -0.000004 0.000000 -1.000000
vn -0.000004 0.000000 -1.000000
vn -0.000004 0.000000 -1.000000
s off
f 1/3/1 3/1/2 5/2/3 2/4/4
f 2/4/5 5/2/6 6/5/7 4/6/8
f 7/13/9 9/14/10 3/11/11 1/12/12
f 7/9/13 1/7/14 2/8/15 8/10/16
f 13/15/17 10/16/18 17/17/19 15/18/20
f 10/16/21 11/19/22 16/20/23 17/17/24
f 13/21/25 15/22/26 20/23/27
f 18/24/28 19/25/29 16/20/30
f 11/19/31 18/24/32 16/20/33
f 16/20/34 19/26/35 17/17/36
f 15/27/37 21/28/38 20/29/39
f 11/19/40 12/30/41 14/31/42 18/24/43
f 22/33/44 12/34/45 11/35/46 27/36/47
f 24/37/48 14/38/49 12/39/50 22/40/51
f 23/41/52 13/42/53 20/43/54
f 27/36/55 11/35/56 10/46/57 26/32/58
f 13/42/59 23/41/60 26/32/61 10/46/62
f 19/47/63 31/48/64 29/49/65 28/50/66
f 18/52/67 30/51/68 31/48/69 19/47/70
f 21/53/71 34/54/72 32/55/73 20/56/74
f 33/57/75 25/45/76 20/56/77 32/55/78
f 19/58/79 28/59/80 34/60/81 21/61/82
f 23/44/83 20/56/84 25/45/85
f 24/62/86 30/63/87 18/64/88 14/65/89
f 19/26/90 21/28/91 15/27/92 17/17/93
