# This file uses meters as units for non-parametric coordinates.

v -11.215942 -0.000009 -0.000015
v 0.000000 -0.000009 -0.000015
v -11.215942 70.859291 -0.000015
v 0.000000 70.859291 -0.000015
v -11.215942 144.831772 -113.506531
v -11.215942 172.396179 -155.802582
v 0.000000 153.833939 -127.980103
v 0.000000 164.262756 -146.451294
v -11.215942 138.765182 -127.802277
v -11.215942 152.659378 -154.784424
v 0.000000 160.292374 -150.268005
v 0.000000 148.103989 -142.048309
v -2.567261 160.995499 -144.481842
v -8.648560 161.208755 -144.913269
v -8.648560 153.466293 -129.248230
v -2.567261 154.180313 -130.692871
v -11.215942 115.408775 -68.358643
v -11.215942 122.364334 -79.031586
v -11.215942 113.270432 -76.837189
v -7.080078 119.032501 -73.918945
v -11.215942 0.000016 -250.000000
v -11.215942 233.338684 -250.000000
v 0.000244 233.338684 -250.000000
v 0.000000 0.000016 -250.000000
vt 0.037723 0.256058
vt 0.037723 0.256058
vt 0.037723 0.256058
vt 0.037723 0.256058
vt 0.037723 0.256058
vt 0.037723 0.256058
vt 0.037723 0.256058
vt 0.037723 0.256058
vt 0.037723 0.256058
vt 0.037723 0.256058
vt 0.037723 0.256058
vt 0.037723 0.256058
vt 0.037723 0.256058
vt 0.037723 0.256058
vt 0.037723 0.256058
vt 0.037723 0.256058
vt 0.037723 0.256058
vt 0.037723 0.256058
vt 0.037723 0.256058
vt 0.037723 0.256058
vt 0.037723 0.256058
vt 0.037723 0.256058
vt 0.037723 0.256058
vt 0.037723 0.256058
vt 0.037723 0.256058
vt 0.037723 0.256058
vt 0.037723 0.256058
vt 0.037723 0.256058
vt 0.037723 0.256058
vt 0.037723 0.256058
vt 0.037723 0.256058
vt 0.037723 0.256058
vt 0.037723 0.256058
vt 0.037723 0.256058
vt 0.037723 0.256058
vt 0.037723 0.256058
vt 0.037723 0.256058
vt 0.037723 0.256058
vt 0.037723 0.256058
vt 0.037723 0.256058
vt 0.037723 0.256058
vt 0.037723 0.256058
vt 0.037723 0.256058
vt 0.037723 0.256058
vt 0.037723 0.256058
vn 0.000000 0.000000 1.000000
vn 0.000000 0.000000 1.000000
vn 0.000000 0.000000 1.000000
vn 0.000000 0.000000 1.000000
vn 0.000006 0.880521 0.474006
vn 0.000006 0.880522 0.474006
vn 0.000006 0.880521 0.474006
vn 0.000006 0.880521 0.474006
vn 1.000000 0.000000 0.000000
vn 1.000000 0.000000 0.000000
vn 1.000000 0.000000 0.000000
vn 1.000000 0.000000 0.000000
vn -0.943071 0.291114 0.160844
vn -0.943071 0.291114 0.160844
vn -0.943071 0.291114 0.160844
vn -0.943071 0.291114 0.160844
vn 0.000009 0.815466 0.578806
vn 0.000009 0.815466 0.578806
vn 0.000009 0.815466 0.578806
vn 0.769329 0.465354 0.437697
vn 0.769329 0.465354 0.437697
vn 0.769329 0.465354 0.437697
vn 0.769329 0.465354 0.437697
vn 0.000003 0.815445 0.578834
vn 0.000003 0.815445 0.578834
vn 0.073735 0.833293 0.547892
vn 0.073735 0.833293 0.547892
vn 0.784678 0.048380 0.618013
vn 0.784678 0.048380 0.618013
vn 0.784678 0.048380 0.618013
vn -0.195483 0.370459 0.908045
vn -0.195483 0.370459 0.908045
vn -0.195483 0.370459 0.908045
vn -0.195483 0.370459 0.908045
vn -0.950880 0.014641 0.309212
vn -0.950880 0.014641 0.309212
vn -0.950880 0.014641 0.309212
vn -0.974142 0.205106 -0.094761
vn -0.974142 0.205106 -0.094761
vn -0.974142 0.205106 -0.094761
vn -0.357517 0.931528 0.066609
vn -0.357517 0.931528 0.066609
vn -0.357517 0.931528 0.066609
vn -0.357517 0.931528 0.066609
vn -0.126540 0.979517 -0.156634
vn -0.126540 0.979517 -0.156634
vn -0.126540 0.979517 -0.156634
vn -1.000000 -0.000037 0.000000
vn -1.000000 -0.000037 0.000000
vn -1.000000 -0.000037 0.000000
vn -1.000000 -0.000037 0.000000
vn 1.000000 0.000001 0.000000
vn 1.000000 -0.000001 0.000002
vn 1.000000 -0.000001 0.000002
vn 1.000000 0.000001 0.000000
vn 1.000000 -0.000001 0.000000
vn 1.000000 -0.000001 0.000000
vn 1.000000 0.000000 -0.000000
vn 1.000000 -0.000001 0.000000
vn -0.713082 0.151622 0.684489
vn -0.713082 0.151622 0.684489
vn -0.713082 0.151622 0.684489
vn -0.787089 0.594820 -0.163341
vn -0.787089 0.594820 -0.163341
vn -0.787089 0.594820 -0.163341
vn -1.000000 -0.000003 0.000000
vn -1.000000 -0.000003 0.000000
vn -1.000000 -0.000003 0.000000
vn -1.000000 -0.000003 0.000000
vn -1.000000 -0.000018 0.000000
vn -1.000000 -0.000018 0.000000
vn -1.000000 -0.000018 0.000000
vn -0.000004 0.815451 0.578826
vn -0.000004 0.815451 0.578827
vn -0.000004 0.815451 0.578826
vn -0.000004 0.815451 0.578826
vn -0.000007 0.815464 0.578808
vn -0.000007 0.815464 0.578808
vn -0.000007 0.815464 0.578808
vn -0.000007 0.815464 0.578808
vn -1.000000 -0.000000 0.000000
vn -1.000000 0.000004 0.000000
vn -1.000000 0.000004 0.000000
vn -1.000000 0.000004 0.000000
vn 0.000000 0.000000 -1.000000
vn 0.000000 0.000000 -1.000000
vn 0.000000 0.000000 -1.000000
vn 0.000000 0.000000 -1.000000
vn -1.000000 0.000000 0.000000
vn -1.000000 0.000000 0.000000
vn -1.000000 0.000000 0.000000
vn -1.000000 0.000000 0.000000
s off
f 1/1/1 2/2/2 4/3/3 3/4/4
f 15/5/5 16/6/6 13/7/7 14/8/8
f 4/9/9 2/10/10 12/11/11 7/12/12
f 14/15/13 10/13/14 9/16/15 15/17/16
f 20/18/17 4/19/18 7/20/19
f 16/21/20 12/11/21 11/22/22 13/23/23
f 6/24/24 8/25/25 23/41/26 22/40/27
f 13/23/28 11/22/29 8/26/30
f 14/8/31 13/7/32 8/25/33 6/24/34
f 6/14/35 10/13/36 14/15/37
f 15/17/38 9/16/39 5/27/40
f 5/28/41 7/20/42 16/6/43 15/5/44
f 7/12/45 12/11/46 16/21/47
f 9/16/48 19/29/49 18/30/50 5/27/51
f 11/22/52 24/43/53 23/42/54 8/26/55
f 12/11/56 2/10/57 24/43/58 11/22/59
f 18/30/60 19/29/61 20/32/62
f 20/32/63 19/29/64 17/33/65
f 19/29/66 1/31/67 3/34/68 17/33/69
f 9/16/70 1/31/71 19/29/72
f 20/18/73 7/20/74 5/28/75 18/35/76
f 3/36/77 4/19/78 20/18/79 17/37/80
f 21/38/81 1/31/82 9/16/83 10/13/84
f 22/39/85 23/45/86 24/44/87 21/38/88
f 22/39/89 21/38/90 10/13/91 6/14/92
