# This file uses meters as units for non-parametric coordinates.

v 250.000000 290.000000 20.000095
v 250.000000 -10.000001 20.000048
v 0.000000 290.000000 20.000095
v 0.000000 -10.000001 20.000002
v 0.000000 -10.000001 13.344214
v 250.000000 -10.000001 13.344212
v 0.000000 -50.000008 13.344214
v 250.000000 -50.000008 13.344212
v 0.000000 -104.278496 13.344214
v 250.000000 -104.278496 13.344212
v 250.000000 290.000000 0.000072
v 250.000000 -0.000000 0.000072
v 0.000000 290.000000 0.000066
v 0.000000 0.000000 0.000066
vt 0.993010 0.992842
vt 0.993010 0.798997
vt 0.831126 0.992842
vt 0.831126 0.798997
vt 0.418189 0.445161
vt 0.418189 0.445161
vt 0.418189 0.445161
vt 0.418189 0.445161
vt 0.418189 0.445161
vt 0.418189 0.445161
vt 0.418189 0.445161
vt 0.418189 0.445161
vt 0.492933 0.992822
vt 0.492933 0.750000
vt 0.331113 0.992822
vt 0.331113 0.750000
vn -0.000000 -0.000000 1.000000
vn -0.000000 -0.000000 1.000000
vn -0.000000 -0.000000 1.000000
vn -0.000000 -0.000000 1.000000
vn 0.000000 -1.000000 0.000000
vn 0.000000 -1.000000 0.000000
vn 0.000000 -1.000000 0.000000
vn 0.000000 -1.000000 0.000000
vn 0.000000 0.000000 1.000000
vn 0.000000 0.000000 1.000000
vn 0.000000 0.000000 1.000000
vn 0.000000 0.000000 1.000000
vn 0.000000 0.000000 1.000000
vn 0.000000 0.000000 1.000000
vn 0.000000 0.000000 1.000000
vn 0.000000 0.000000 1.000000
vn 0.000000 0.000000 -1.000000
vn 0.000000 0.000000 -1.000000
vn 0.000000 0.000000 -1.000000
vn 0.000000 0.000000 -1.000000
s off
f 3/3/1 4/4/2 2/2/3 1/1/4
f 2/5/5 4/6/6 5/7/7 6/8/8
f 6/8/9 5/7/10 7/9/11 8/10/12
f 8/10/13 7/9/14 9/11/15 10/12/16
f 11/15/17 12/16/18 14/14/19 13/13/20
