# This file uses meters as units for non-parametric coordinates.

v 250.000000 290.000000 19.999900
v 250.000000 290.000000 -229.999989
v 0.000000 299.999939 -230.000142
v 250.000000 299.999939 -229.999989
v 250.000000 299.999939 19.999900
v 0.000000 290.000000 19.999757
v 0.000000 299.999939 19.999757
vt 0.667205 0.521940
vt 0.667205 0.537234
vt 0.503768 0.537234
vt 0.503768 0.521941
vt 0.667205 0.542847
vt 0.667205 0.745702
vt 0.503767 0.745701
vt 0.503768 0.542846
vt 0.503768 0.521941
vt 0.667205 0.521940
vt 0.667205 0.537234
vt 0.503768 0.537234
vn 1.000000 0.000000 0.000000
vn 1.000000 0.000000 0.000000
vn 1.000000 0.000000 0.000000
vn 1.000000 0.000000 0.000000
vn 0.000000 1.000000 0.000000
vn 0.000000 1.000000 0.000000
vn 0.000000 1.000000 0.000000
vn 0.000000 1.000000 0.000000
vn -0.000001 0.000000 1.000000
vn -0.000001 0.000000 1.000000
vn -0.000001 0.000000 1.000000
vn -0.000001 0.000000 1.000000
s off
f 5/1/1 1/2/2 2/3/3 4/4/4
f 5/5/5 4/6/6 3/7/7 7/8/8
f 5/9/9 7/10/10 6/11/11 1/12/12
