# This file uses meters as units for non-parametric coordinates.

v 250.000092 290.000000 19.999936
v -0.000763 290.000000 19.999936
v -0.000763 300.000000 -229.999867
v 250.000092 300.000000 -230.000249
v -0.000763 300.000000 19.999936
v 250.000092 300.000000 19.999936
vt 0.667205 0.542846
vt 0.667205 0.745702
vt 0.503767 0.745701
vt 0.503767 0.542846
vt 0.503768 0.521941
vt 0.667205 0.521940
vt 0.667205 0.537234
vt 0.503768 0.537234
vn 0.000000 1.000000 0.000000
vn 0.000000 1.000000 0.000000
vn 0.000000 1.000000 0.000000
vn 0.000000 1.000000 0.000000
vn 0.000000 0.000000 1.000000
vn 0.000000 0.000000 1.000000
vn 0.000000 0.000000 1.000000
vn 0.000000 0.000000 1.000000
s off
f 6/1/1 4/2/2 3/3/3 5/4/4
f 6/5/5 5/6/6 2/7/7 1/8/8
