# This file uses meters as units for non-parametric coordinates.

v -31.131836 6.863708 566.840027
v -28.066284 6.863708 563.443176
v -28.066284 -7.484222 563.443176
v -31.131836 -10.000000 566.840027
v -28.066284 -7.484222 552.245178
v -31.131836 -10.000000 552.245178
v 0.000366 6.863708 566.840027
v 0.000366 6.863708 563.443176
v -0.000366 -7.484222 563.443115
v -0.000366 -7.484222 552.245178
v 0.000366 -10.000000 552.245178
v 0.000366 -10.000000 566.840027
v -28.066284 6.863708 552.245178
v -31.131836 6.863708 552.245178
v -19.998169 151.722626 250.000061
v -19.997803 -9.999969 250.000061
v -19.997803 20.814240 500.000061
v -19.997803 -9.999969 500.000061
v -19.999695 -10.000000 520.000061
v -19.999695 8.811737 520.000061
v -28.913147 -10.000000 552.245178
v -28.913513 151.722595 250.000061
v 0.000366 -10.000000 520.000061
v 0.000366 8.811737 520.000061
v 0.000366 -10.000000 552.245178
v -28.913513 162.790466 250.000061
v 0.000000 162.790466 250.000000
v -28.913147 -0.586700 552.245178
v -0.000366 -0.586700 552.245148
v 0.000366 -10.000000 552.245178
v -0.000381 0.988770 550.719879
v -28.913147 1.369995 550.072327
v -21.685120 162.790466 250.000061
v -21.684753 1.369995 550.072327
v -21.684753 -0.586700 552.245178
v -21.684753 -10.000000 552.245178
v -19.999695 9.154297 250.000061
v -19.997803 9.154297 500.000061
vt 0.927052 0.505177
vt 0.927052 0.505177
vt 0.927052 0.505177
vt 0.927052 0.505177
vt 0.927052 0.505177
vt 0.927052 0.505177
vt 0.927052 0.505177
vt 0.927052 0.505177
vt 0.927052 0.505177
vt 0.927052 0.505177
vt 0.927052 0.505177
vt 0.927052 0.505177
vt 0.488440 0.401409
vt 0.488651 0.400774
vt 0.488855 0.400800
vt 0.488643 0.401415
vt 0.927052 0.505177
vt 0.927052 0.505177
vt 0.506970 0.911738
vt 0.668931 0.824123
vt 0.668931 0.799022
vt 0.506970 0.799022
vt 0.683041 0.812301
vt 0.683252 0.799022
vt 0.906372 0.504364
vt 0.906372 0.504364
vt 0.906372 0.504364
vt 0.906372 0.504364
vt 0.927052 0.505177
vt 0.927052 0.505177
vt 0.927052 0.505177
vt 0.927052 0.505177
vt 0.906372 0.504364
vt 0.906372 0.504364
vt 0.906372 0.504364
vt 0.507011 0.513788
vt 0.906372 0.504364
vt 0.906372 0.504364
vt 0.507011 0.742221
vt 0.927052 0.505177
vt 0.927052 0.505177
vt 0.906372 0.504364
vt 0.927052 0.505177
vt 0.587439 0.540250
vt 0.587439 0.531099
vt 0.563756 0.531099
vt 0.563756 0.540250
vt 0.507011 0.517131
vt 0.906372 0.504364
vt 0.927052 0.505177
vt 0.526339 0.742221
vt 0.526339 0.517131
vt 0.526339 0.513788
vt 0.569677 0.540250
vt 0.569677 0.531099
vt 0.506970 0.812301
vt 0.668931 0.812301
vt 0.506970 0.812301
vt 0.668931 0.812301
vt 0.668931 0.799022
vt 0.668931 0.812301
vt 0.683252 0.812301
vt 0.906372 0.504364
vt 0.507011 0.517131
vt 0.526339 0.517131
vn 1.000000 0.000000 0.000000
vn 1.000000 0.000000 0.000000
vn 1.000000 0.000000 0.000000
vn 1.000000 0.000000 0.000000
vn 0.000000 1.000000 0.000000
vn 0.000000 1.000000 0.000000
vn 0.000000 1.000000 0.000000
vn 0.000000 1.000000 0.000000
vn 0.000000 0.000000 -1.000000
vn 0.000000 0.000000 -1.000000
vn 0.000000 0.000000 -1.000000
vn 0.000000 1.000000 0.000000
vn 0.000000 1.000000 0.000000
vn 0.000000 1.000000 0.000000
vn 0.000000 1.000000 0.000000
vn -0.000000 0.000000 -1.000000
vn -0.000000 0.000000 -1.000000
vn -0.000000 0.000000 -1.000000
vn -0.000000 0.000000 -1.000000
vn -0.000000 0.000000 -1.000000
vn -0.000000 0.000000 -1.000000
vn 0.000000 -1.000000 0.000000
vn 0.000000 -1.000000 0.000000
vn 0.000000 -1.000000 0.000000
vn 0.000000 -1.000000 0.000000
vn 0.000000 0.000000 1.000000
vn 0.000000 0.000000 1.000000
vn 0.000000 0.000000 1.000000
vn 0.000000 0.000000 1.000000
vn 0.000000 0.000000 -1.000000
vn 0.000000 0.000000 -1.000000
vn 0.000000 0.000000 -1.000000
vn -1.000000 0.000000 0.000000
vn -1.000000 0.000000 0.000000
vn -1.000000 0.000000 0.000000
vn -1.000000 0.000000 0.000000
vn 0.000000 1.000000 0.000000
vn 0.000000 1.000000 0.000000
vn 0.000000 1.000000 0.000000
vn 0.000000 1.000000 0.000000
vn -1.000000 0.000000 0.000008
vn -1.000000 0.000000 0.000008
vn -1.000000 0.000000 0.000008
vn -1.000000 0.000000 -0.000095
vn -1.000000 0.000000 -0.000095
vn -1.000000 0.000000 -0.000095
vn 0.000000 -0.863754 -0.503913
vn 0.000000 -0.863754 -0.503913
vn 0.000000 -0.863754 -0.503913
vn 0.000000 -0.863754 -0.503913
vn 0.000000 0.000000 1.000000
vn 0.000000 0.000000 1.000000
vn 0.000000 0.000000 1.000000
vn 0.000000 0.000000 1.000000
vn 0.153273 -0.873171 -0.462688
vn 0.153273 -0.873171 -0.462688
vn 0.153273 -0.873171 -0.462688
vn 0.153273 -0.873171 -0.462688
vn -0.051834 -0.856292 -0.513884
vn -0.051834 -0.856292 -0.513884
vn -0.051834 -0.856292 -0.513884
vn 0.000000 0.880663 0.473743
vn 0.000000 0.880663 0.473743
vn 0.000000 0.880663 0.473743
vn 0.000000 0.880663 0.473743
vn -1.000000 0.000000 0.000001
vn -1.000000 0.000000 0.000001
vn -1.000000 0.000000 0.000001
vn -1.000000 0.000000 0.000001
vn -1.000000 0.000000 0.000001
vn 0.000000 0.000000 1.000000
vn 0.000000 0.000000 1.000000
vn 0.000000 0.000000 1.000000
vn 0.000000 0.000000 1.000000
vn 0.000000 0.743102 0.669178
vn 0.000000 0.743102 0.669178
vn 0.000000 0.743102 0.669178
vn 0.000000 0.743102 0.669178
vn -1.000000 0.000011 0.000007
vn -1.000000 0.000011 0.000007
vn -1.000000 0.000011 0.000007
vn 0.000000 0.880663 0.473743
vn 0.000000 0.880663 0.473743
vn 0.000000 0.880663 0.473743
vn 0.000000 0.880663 0.473743
vn 0.000000 0.743100 0.669180
vn 0.000000 0.743100 0.669180
vn 0.000000 0.743100 0.669180
vn 0.000000 0.743100 0.669180
vn 0.000000 0.000000 1.000000
vn 0.000000 0.000000 1.000000
vn 0.000000 0.000000 1.000000
vn 0.000000 0.000000 1.000000
vn -1.000000 -0.000049 0.000004
vn -1.000000 -0.000049 0.000004
vn -1.000000 -0.000049 0.000004
vn -1.000000 -0.000049 0.000004
vn -1.000000 0.000000 -0.000095
vn -1.000000 0.000000 -0.000095
vn -1.000000 0.000000 -0.000095
vn -1.000000 0.000000 -0.000095
s off
f 2/4/1 3/3/2 5/6/3 13/17/4
f 2/4/5 1/1/6 7/8/7 8/7/8
f 3/3/9 2/4/10 9/9/11
f 5/13/12 3/16/13 9/15/14 10/14/15
f 6/5/16 14/18/17 13/17/18 5/6/19 10/10/20 11/11/21
f 4/2/22 6/5/23 11/11/24 12/12/25
f 1/1/26 4/2/27 12/12/28 7/8/29
f 2/4/30 8/7/31 9/9/32
f 4/2/33 1/1/34 14/18/35 6/5/36
f 1/1/37 2/4/38 13/17/39 14/18/40
f 37/56/41 38/61/42 17/20/43
f 17/20/44 38/61/45 20/23/46
f 24/25/47 25/26/48 21/27/49 20/28/50
f 20/29/51 19/32/52 23/31/53 24/30/54
f 15/33/55 17/34/56 21/27/57 22/35/58
f 17/34/59 20/28/60 21/27/61
f 31/64/62 27/39/63 33/51/64 34/65/65
f 28/37/66 32/38/67 26/42/68 22/35/69 21/27/70
f 36/55/71 30/45/72 29/44/73 35/54/74
f 29/36/75 31/48/76 34/52/77 35/53/78
f 15/19/79 37/56/80 17/20/81
f 34/49/82 33/63/83 26/42/84 32/38/85
f 35/50/86 34/43/87 32/41/88 28/40/89
f 36/55/90 35/54/91 28/47/92 21/46/93
f 16/22/94 18/21/95 38/59/96 37/58/97
f 19/24/98 20/62/99 38/57/100 18/60/101
