# This file uses meters as units for non-parametric coordinates.

v 253.038025 238.772583 233.036804
v 242.594910 222.833252 222.595215
v 242.594910 238.772583 222.595215
v 253.038025 222.833252 233.036804
v 271.804810 237.677002 251.803589
v 261.474609 237.677002 241.476440
v 261.474609 243.418884 241.476440
v 258.435059 235.159302 238.435364
v 275.201416 252.024841 255.200195
v 271.804810 252.024841 251.803589
v 275.201416 235.467529 255.200195
v 20.000076 271.783447 0.000000
v 258.584595 246.440125 238.586426
v 20.000076 260.412598 0.000000
v 26.163483 223.339844 223.388672
v 19.999886 223.263550 231.791687
v 19.999886 238.264465 232.017517
v 26.163483 238.264465 223.088074
v 25.369453 244.825745 20.000076
v 20.000076 244.671631 20.000076
v 25.671005 261.053467 20.000076
v 20.000076 229.331970 121.926880
v 25.369453 244.517517 120.979309
v 25.758362 227.015686 131.546021
v 27.322197 229.060364 131.546021
v 26.163483 231.869507 94.931030
v 26.163483 224.662781 204.708862
v 26.163483 231.398010 115.597534
v 26.163483 251.718140 75.375366
v 20.000076 238.238525 66.514587
v 20.000076 252.024841 255.200195
v 19.999886 252.024841 251.803589
v 19.999886 237.677002 251.803589
v 20.000076 235.160828 255.200195
v 20.000076 237.677002 241.476440
v 20.000076 235.159302 238.435364
v 20.000076 244.573975 240.606689
v 20.000076 246.530151 238.433838
v 243.389893 223.339844 6.163502
v 251.791382 223.263550 -0.000031
v 252.017212 238.264465 -0.000031
v 243.087769 238.264465 6.163454
v 40.000153 244.825745 5.369473
v 40.000153 244.671631 0.000015
v 40.000153 261.053467 5.670977
v 216.926575 229.331970 0.000000
v 215.979004 244.517517 5.369473
v 151.547241 227.015686 5.758429
v 216.926575 229.060364 7.322264
v 134.931946 231.869507 6.163502
v 224.708557 224.662781 6.163502
v 210.597229 231.398010 6.714296
v 105.374908 251.718140 6.163454
v 86.514282 238.238525 0.000000
v 275.201416 252.024841 0.000031
v 271.804810 252.024841 -0.000031
v 271.804810 237.677002 -0.000031
v 275.201416 235.160828 0.000031
v 261.474609 237.677002 0.000031
v 258.435059 235.159302 0.000000
v 260.604858 244.573975 0.000000
v 258.433533 246.530151 0.000000
vt 0.927614 0.504663
vt 0.927614 0.504663
vt 0.927614 0.504663
vt 0.927614 0.504663
vt 0.927614 0.504663
vt 0.927614 0.504663
vt 0.927614 0.504663
vt 0.927614 0.504663
vt 0.927614 0.504663
vt 0.927614 0.504663
vt 0.927614 0.504663
vt 0.927614 0.504663
vt 0.927614 0.504663
vt 0.927614 0.504663
vt 0.927614 0.504663
vt 0.927614 0.504663
vt 0.927614 0.504663
vt 0.927614 0.504663
vt 0.927614 0.504663
vt 0.927614 0.504663
vt 0.927614 0.504663
vt 0.927614 0.504663
vt 0.927614 0.504663
vt 0.927614 0.504663
vt 0.927614 0.504663
vt 0.927614 0.504663
vt 0.927614 0.504663
vt 0.927614 0.504663
vt 0.927614 0.504663
vt 0.927614 0.504663
vt 0.927614 0.504296
vt 0.927614 0.504296
vt 0.927614 0.504296
vt 0.927614 0.504296
vt 0.927614 0.504296
vt 0.927614 0.504296
vt 0.927614 0.504296
vt 0.927614 0.504296
vt 0.927614 0.504296
vt 0.927614 0.504663
vt 0.927614 0.504663
vt 0.488440 0.401409
vt 0.488749 0.401107
vt 0.489185 0.399802
vt 0.489100 0.399446
vt 0.907915 0.503510
vt 0.907915 0.503510
vt 0.907915 0.503510
vt 0.907915 0.503510
vt 0.907915 0.503510
vt 0.907915 0.503510
vt 0.907915 0.503510
vt 0.907915 0.503510
vt 0.679522 0.749256
vt 0.679522 0.547365
vt 0.514748 0.547365
vt 0.679522 0.544023
vt 0.514748 0.544022
vt 0.905811 0.504758
vt 0.906537 0.504872
vt 0.906638 0.504756
vt 0.906654 0.504814
vt 0.906704 0.504757
vt 0.905927 0.504671
vt 0.905897 0.504667
vt 0.905905 0.504669
vt 0.905927 0.504671
vt 0.927614 0.504663
vt 0.927614 0.504663
vt 0.927614 0.504663
vt 0.927614 0.504663
vt 0.927614 0.504663
vt 0.927614 0.504663
vt 0.927614 0.504663
vt 0.927614 0.504663
vt 0.927614 0.504663
vt 0.927614 0.504663
vt 0.927614 0.504663
vt 0.927614 0.504663
vt 0.927614 0.504663
vt 0.927614 0.504663
vt 0.927614 0.504663
vt 0.927614 0.504663
vt 0.927614 0.504663
vt 0.927614 0.504663
vt 0.927614 0.504663
vt 0.927614 0.504663
vt 0.927614 0.504663
vt 0.927614 0.504663
vt 0.927614 0.504663
vt 0.927614 0.504663
vt 0.927614 0.504663
vt 0.927614 0.504663
vt 0.927614 0.504663
vt 0.927614 0.504663
vt 0.927614 0.504663
vt 0.927614 0.504663
vt 0.927614 0.504296
vt 0.927614 0.504296
vt 0.927614 0.504296
vt 0.927614 0.504296
vt 0.927614 0.504296
vt 0.927614 0.504296
vt 0.927614 0.504296
vt 0.927614 0.504296
vt 0.927614 0.504296
vt 0.927614 0.504663
vt 0.927614 0.504663
vt 0.488440 0.401409
vt 0.488749 0.401107
vt 0.489185 0.399802
vt 0.489100 0.399446
vt 0.907915 0.503510
vt 0.907915 0.503510
vt 0.907915 0.503510
vt 0.907915 0.503510
vt 0.907915 0.503510
vt 0.907915 0.503510
vt 0.907915 0.503510
vt 0.907915 0.503510
vt 0.679522 0.749256
vt 0.679522 0.547365
vt 0.514748 0.547365
vt 0.679522 0.544023
vt 0.514748 0.544022
vt 0.905811 0.504758
vt 0.906537 0.504872
vt 0.906638 0.504756
vt 0.906654 0.504814
vt 0.906704 0.504757
vt 0.905927 0.504671
vt 0.905897 0.504667
vt 0.905905 0.504669
vt 0.905927 0.504671
vt 0.514748 0.547365
vt 0.514748 0.547365
vt 0.679522 0.547365
vt 0.679522 0.547365
vn 0.012637 0.999914 -0.003610
vn -0.011359 0.999776 0.017884
vn -0.013715 0.999706 0.019994
vn -0.013715 0.999706 0.019994
vn -0.007939 -0.009498 -0.999923
vn -0.007939 -0.009498 -0.999923
vn -0.007313 -0.007985 -0.999941
vn 0.010534 0.035136 -0.999327
vn -0.010529 0.041006 0.999103
vn 0.007966 -0.016373 0.999834
vn -0.012238 0.046309 0.998852
vn -0.012238 0.046309 0.998852
vn 0.009258 -0.998764 0.048835
vn -0.012797 -0.996348 -0.084426
vn -0.014127 -0.995616 -0.092458
vn -0.014127 -0.995616 -0.092458
vn -0.048835 -0.998764 0.009258
vn -0.052249 -0.998586 0.009822
vn -0.052249 -0.998586 0.009822
vn 0.084426 -0.996348 -0.012797
vn 0.999923 -0.009498 -0.007939
vn 0.999923 -0.009498 -0.007939
vn 0.999941 -0.007985 -0.007313
vn 0.999327 0.035136 0.010534
vn 0.999923 -0.009498 -0.007939
vn 0.999810 0.019002 -0.004360
vn 0.999810 0.019002 -0.004360
vn 0.999810 0.019002 -0.004360
vn 0.999810 0.019002 -0.004360
vn 0.999810 0.019002 -0.004360
vn -0.037264 -0.999290 -0.005562
vn -0.037264 -0.999290 -0.005562
vn -0.037264 -0.999290 -0.005562
vn -0.037264 -0.999290 -0.005562
vn -0.037264 -0.999290 -0.005562
vn 0.855552 -0.516064 0.041333
vn 0.855552 -0.516064 0.041333
vn 0.855552 -0.516064 0.041333
vn 0.854324 -0.515327 -0.067587
vn 0.854324 -0.515327 -0.067587
vn 0.854324 -0.515327 -0.067587
vn 0.866894 -0.496562 0.043839
vn 0.866894 -0.496562 0.043839
vn 0.866894 -0.496562 0.043839
vn 0.999327 0.035136 0.010534
vn 0.999941 -0.007985 -0.007313
vn 0.998945 0.043715 0.014086
vn 0.998945 0.043715 0.014086
vn -0.048835 -0.998764 0.009258
vn 0.084426 -0.996348 -0.012797
vn 0.092458 -0.995616 -0.014127
vn 0.092458 -0.995616 -0.014127
vn 0.000000 0.982345 -0.187078
vn 0.000000 0.982345 -0.187078
vn 0.000000 0.982345 -0.187078
vn 0.000000 0.982345 -0.187078
vn 0.000000 1.000000 0.000001
vn 0.000000 1.000000 0.000001
vn 0.000000 1.000000 0.000001
vn 0.000000 1.000000 0.000001
vn 0.000000 0.000000 1.000000
vn 0.000000 0.000000 1.000000
vn 0.000000 0.000000 1.000000
vn 0.000000 0.000000 1.000000
vn 0.000000 0.000000 -1.000000
vn 0.000000 0.000000 -1.000000
vn 0.000000 0.000000 -1.000000
vn 0.000000 0.000000 -1.000000
vn 0.000000 0.000000 -1.000000
vn 0.000000 0.000000 -1.000000
vn 0.000000 0.990578 0.136948
vn 0.000000 0.990578 0.136948
vn 0.000308 0.994438 0.105321
vn 0.004427 0.565197 0.824944
vn 0.004427 0.565197 0.824944
vn 0.004427 0.565197 0.824944
vn 0.004427 0.565197 0.824944
vn 0.000000 -0.990655 -0.136391
vn 0.000000 -0.990655 -0.136391
vn 0.000000 -0.990655 -0.136391
vn 0.000827 -0.999995 -0.003044
vn 0.000827 -0.999995 -0.003044
vn 0.000827 -0.999995 -0.003044
vn 0.000827 -0.999995 -0.003044
vn -0.000097 0.151772 0.988416
vn -0.000097 0.151772 0.988416
vn -0.000097 0.151772 0.988416
vn -0.000097 0.151772 0.988416
vn -0.003610 0.999914 0.012637
vn 0.019994 0.999706 -0.013715
vn 0.019994 0.999706 -0.013715
vn 0.017884 0.999776 -0.011359
vn -0.999923 -0.009498 -0.007939
vn -0.999327 0.035136 0.010534
vn -0.999941 -0.007985 -0.007313
vn -0.999923 -0.009498 -0.007939
vn 0.999103 0.041006 -0.010529
vn 0.998852 0.046309 -0.012238
vn 0.998852 0.046309 -0.012238
vn 0.999834 -0.016373 0.007966
vn 0.048835 -0.998764 0.009258
vn -0.092458 -0.995616 -0.014127
vn -0.092458 -0.995616 -0.014127
vn -0.084426 -0.996348 -0.012797
vn 0.009258 -0.998764 -0.048835
vn -0.012797 -0.996348 0.084426
vn 0.009822 -0.998586 -0.052249
vn 0.009822 -0.998586 -0.052249
vn -0.007939 -0.009498 0.999923
vn -0.007939 -0.009498 0.999923
vn 0.010534 0.035136 0.999327
vn -0.007313 -0.007985 0.999941
vn -0.007939 -0.009498 0.999923
vn -0.004360 0.019002 0.999810
vn -0.004360 0.019002 0.999810
vn -0.004360 0.019002 0.999810
vn -0.004360 0.019002 0.999810
vn -0.004360 0.019002 0.999810
vn -0.005562 -0.999290 -0.037264
vn -0.005562 -0.999290 -0.037264
vn -0.005562 -0.999290 -0.037264
vn -0.005562 -0.999290 -0.037264
vn -0.005562 -0.999290 -0.037264
vn 0.041333 -0.516064 0.855552
vn 0.041333 -0.516064 0.855552
vn 0.041333 -0.516064 0.855552
vn -0.067587 -0.515327 0.854324
vn -0.067587 -0.515327 0.854324
vn -0.067587 -0.515327 0.854324
vn 0.043839 -0.496562 0.866894
vn 0.043839 -0.496562 0.866894
vn 0.043839 -0.496562 0.866894
vn 0.010534 0.035136 0.999327
vn 0.014086 0.043715 0.998945
vn 0.014086 0.043715 0.998945
vn -0.007313 -0.007985 0.999941
vn 0.009258 -0.998764 -0.048835
vn -0.014127 -0.995616 0.092458
vn -0.014127 -0.995616 0.092458
vn -0.012797 -0.996348 0.084426
vn -0.187078 0.982345 -0.000000
vn -0.187078 0.982345 -0.000000
vn -0.187078 0.982345 -0.000000
vn -0.187078 0.982345 -0.000000
vn 0.000001 1.000000 0.000000
vn 0.000001 1.000000 0.000000
vn 0.000001 1.000000 0.000000
vn 0.000001 1.000000 0.000000
vn 1.000000 0.000000 0.000000
vn 1.000000 0.000000 0.000000
vn 1.000000 0.000000 0.000000
vn 1.000000 0.000000 0.000000
vn -1.000000 0.000000 -0.000000
vn -1.000000 0.000000 -0.000000
vn -1.000000 0.000000 -0.000000
vn -1.000000 0.000000 -0.000000
vn -1.000000 0.000000 -0.000000
vn -1.000000 0.000000 -0.000000
vn 0.136948 0.990578 0.000000
vn 0.105321 0.994438 0.000308
vn 0.136948 0.990578 0.000000
vn 0.824944 0.565197 0.004427
vn 0.824944 0.565197 0.004427
vn 0.824944 0.565197 0.004427
vn 0.824944 0.565197 0.004427
vn -0.136391 -0.990655 -0.000000
vn -0.136391 -0.990655 -0.000000
vn -0.136391 -0.990655 -0.000000
vn -0.003044 -0.999995 0.000827
vn -0.003044 -0.999995 0.000827
vn -0.003044 -0.999995 0.000827
vn -0.003044 -0.999995 0.000827
vn 0.988416 0.151772 -0.000097
vn 0.988416 0.151772 -0.000097
vn 0.988416 0.151772 -0.000097
vn 0.988416 0.151772 -0.000097
s off
f 1/1/1 3/2/2 18/3/3 17/4/4
f 15/5/5 18/6/6 3/7/7 2/8/8
f 4/9/9 1/1/10 17/4/11 16/10/12
f 2/11/13 4/9/14 16/12/15 15/13/16
f 26/14/17 24/15/18 22/16/19 30/17/20
f 19/18/21 21/19/22 29/20/23 28/21/24 26/22/25
f 27/23/26 25/24/27 23/25/28 18/26/29 15/27/30
f 15/28/31 16/29/32 22/16/33 24/15/34 27/30/35
f 24/31/36 28/32/37 25/33/38
f 24/34/39 25/35/40 27/36/41
f 26/37/42 28/38/43 24/39/44
f 28/21/45 29/20/46 23/25/47 25/24/48
f 26/14/49 30/17/50 20/40/51 19/41/52
f 35/42/53 33/43/54 5/44/55 6/45/56
f 32/46/57 31/47/58 9/48/59 10/49/60
f 31/47/61 34/50/62 11/51/63 9/48/64
f 33/52/65 10/49/66 5/53/67
f 32/46/68 10/49/69 33/52/70
f 12/54/71 38/55/72 13/135/73
f 13/56/74 38/138/75 37/57/76 7/58/77
f 36/61/78 14/59/79 8/60/80
f 11/62/81 34/63/82 36/61/83 8/60/84
f 35/64/85 6/65/86 7/66/87 37/67/88
f 1/68/89 41/71/90 42/70/91 3/69/92
f 39/72/93 2/75/94 3/74/95 42/73/96
f 4/76/97 40/77/98 41/71/99 1/68/100
f 2/78/101 39/80/102 40/79/103 4/76/104
f 50/81/105 54/84/106 46/83/107 48/82/108
f 43/85/109 50/89/110 52/88/111 53/87/112 45/86/113
f 51/90/114 39/94/115 42/93/116 47/92/117 49/91/118
f 39/95/119 51/97/120 48/82/121 46/83/122 40/96/123
f 48/98/124 49/100/125 52/99/126
f 48/101/127 51/103/128 49/102/129
f 50/104/130 48/106/131 52/105/132
f 52/88/133 49/91/134 47/92/135 53/87/136
f 50/81/137 43/108/138 44/107/139 54/84/140
f 59/109/141 6/112/142 5/111/143 57/110/144
f 56/113/145 10/116/146 9/115/147 55/114/148
f 55/114/149 9/115/150 11/118/151 58/117/152
f 57/119/153 5/120/154 10/116/155
f 56/113/156 57/119/157 10/116/158
f 12/121/159 13/136/160 62/137/161
f 13/123/162 7/125/163 61/124/164 62/122/165
f 14/126/166 60/128/167 8/127/168
f 11/129/169 8/127/170 60/128/171 58/130/172
f 59/131/173 61/134/174 7/133/175 6/132/176
