# This file uses meters as units for non-parametric coordinates.

v -83.839600 9.265228 120.544312
v 83.839478 9.265228 120.544312
v -83.839600 9.265228 -120.544586
v 83.839478 9.265228 -120.544586
v -89.351685 4.490753 126.489136
v 89.351685 4.490752 126.489136
v -89.351685 11.657946 126.489136
v 89.351685 11.657946 126.489136
v -89.351685 11.657946 -126.489624
v 89.351685 9.507788 -126.489624
v -89.351685 4.490753 -126.489624
v 89.351685 4.490752 -126.489624
v -89.351685 11.657946 -0.000122
v 89.351685 11.657946 -0.000122
v 89.351685 4.490752 -0.000122
v -89.351685 4.490753 -0.000122
v 89.351685 4.490752 -63.244507
v 89.351685 11.657946 -63.244507
v -89.351685 11.657946 -63.244507
v -89.351685 4.490753 -63.244507
v -89.351685 11.657946 63.244507
v 89.351685 11.657946 63.244507
v 89.351685 4.490752 63.244507
v -89.351685 4.490753 63.244507
v -83.839478 11.657946 -3.721069
v 83.839722 11.657946 -3.721069
v 83.839722 11.657946 -58.411987
v -83.839478 11.657946 -58.411987
v -83.839478 11.657946 120.544312
v 83.839722 11.657946 120.544312
v 83.839722 11.657946 65.853394
v -83.839478 11.657946 65.853394
v -83.839478 11.657946 58.411987
v 83.839722 11.657946 58.411987
v 83.839722 11.657946 3.721069
v -83.839478 11.657946 3.721069
v 83.839722 11.657946 -65.853638
v -83.839478 11.657946 -65.853638
v 83.839722 11.657946 -120.544312
v -83.839478 11.657946 -120.544556
v -81.067017 4.490752 -5.513062
v 81.067505 4.490752 -5.513062
v 81.067505 4.490752 -56.620239
v -81.067017 4.490752 -56.620239
v -81.067017 4.490752 56.620239
v 81.067505 4.490752 56.620239
v 81.067505 4.490752 5.512817
v -81.067017 4.490752 5.512817
v 81.067505 4.490752 -67.645386
v -81.067017 4.490752 -67.645386
v 81.067505 4.490752 -118.752563
v -81.067017 4.490752 -118.752563
v -81.067017 4.490752 118.752319
v 81.067505 4.490752 118.752319
v 81.067505 4.490752 67.645386
v -81.067017 4.490752 67.645386
v -93.132446 4.490753 -129.703979
v 93.132446 4.490752 -129.703979
v 93.132446 4.490752 -0.000122
v -93.132446 4.490753 -0.000122
v 93.132446 4.490752 129.703979
v -93.132446 4.490753 129.703735
v -93.132446 0.000000 -129.703979
v 93.132446 0.000000 -129.703979
v 93.132446 0.000000 -0.000122
v -93.132446 0.000000 -0.000122
v 93.132446 0.000000 129.703979
v -93.132446 0.000000 129.703735
v 81.183716 15.344395 1.972717
v 81.183716 15.344395 -1.972717
v -81.183472 15.344395 -1.972717
v -81.183472 15.344395 1.972717
v -81.183472 15.344395 -64.105408
v -81.183472 15.344395 -60.160233
v 81.183716 15.344395 -60.160233
v 81.183716 15.344395 -64.105408
v 81.183716 15.344395 64.105209
v 81.183716 15.344395 60.160172
v -81.183472 15.344395 60.160172
v -81.183472 15.344395 64.105209
v 78.051025 11.657946 -126.489624
v 89.351685 11.657946 -120.640717
v 85.687378 11.657946 -122.537262
v 19.257446 11.657946 -126.489624
v 49.222046 11.657946 -126.489624
v 31.132935 11.657946 -123.730469
v 29.330811 8.517987 -126.489624
v -67.071655 11.657946 -120.544525
v -44.752930 11.657946 -123.994324
v -34.162598 11.657945 -120.544464
v -47.186890 10.012490 -120.133087
v -83.812927 11.589362 -120.527405
v -53.610962 11.657946 126.489136
v -35.497437 11.657947 126.489136
v -40.657593 11.657946 123.778793
v -40.971924 8.641514 126.489136
v -89.351685 11.657946 48.561005
v -89.351685 11.657946 28.132233
v -87.369141 11.657946 41.445343
v -89.351685 8.101305 41.060745
v 39.128540 15.344395 1.972717
v 58.823608 15.344395 1.972717
v 52.403809 15.344395 0.237198
v 51.912598 13.695062 2.754944
vt 0.568213 0.018481
vt 0.568213 0.018481
vt 0.568213 0.018481
vt 0.568213 0.018481
vt 0.111267 0.379429
vt 0.111206 0.379429
vt 0.111206 0.379430
vt 0.111267 0.379430
vt 0.080566 0.230456
vt 0.080566 0.230456
vt 0.080566 0.230456
vt 0.080566 0.230456
vt 0.111267 0.379430
vt 0.111206 0.379430
vt 0.111206 0.379429
vt 0.111267 0.379429
vt 0.113352 0.326942
vt 0.113352 0.326942
vt 0.113352 0.326942
vt 0.113352 0.326942
vt 0.111206 0.379430
vt 0.111206 0.379429
vt 0.111206 0.379429
vt 0.111206 0.379430
vt 0.111267 0.379430
vt 0.111267 0.379429
vt 0.111267 0.379429
vt 0.111267 0.379430
vt 0.080566 0.230456
vt 0.080566 0.230456
vt 0.080566 0.230456
vt 0.080566 0.230456
vt 0.111206 0.379430
vt 0.111206 0.379429
vt 0.113352 0.326942
vt 0.113352 0.326942
vt 0.111267 0.379429
vt 0.111267 0.379430
vt 0.080566 0.230456
vt 0.080566 0.230456
vt 0.080566 0.230456
vt 0.080566 0.230456
vt 0.080566 0.230456
vt 0.080566 0.230456
vt 0.080566 0.230456
vt 0.080566 0.230456
vt 0.111206 0.379430
vt 0.111267 0.379430
vt 0.111267 0.379430
vt 0.111206 0.379430
vt 0.111206 0.379430
vt 0.111267 0.379430
vt 0.111206 0.379430
vt 0.111267 0.379430
vt 0.111206 0.379430
vt 0.111267 0.379430
vt 0.111206 0.379430
vt 0.111267 0.379430
vt 0.111206 0.379430
vt 0.111267 0.379430
vt 0.111206 0.379430
vt 0.111267 0.379430
vt 0.111206 0.379429
vt 0.111206 0.379429
vt 0.111206 0.379429
vt 0.111206 0.379429
vt 0.111206 0.379429
vt 0.111206 0.379429
vt 0.111206 0.379429
vt 0.111206 0.379429
vt 0.111206 0.379429
vt 0.111206 0.379429
vt 0.111206 0.379429
vt 0.111206 0.379429
vt 0.111206 0.379429
vt 0.111206 0.379429
vt 0.111206 0.379429
vt 0.111206 0.379429
vt 0.113352 0.326942
vt 0.113352 0.326942
vt 0.113352 0.326942
vt 0.113352 0.326942
vt 0.113352 0.326942
vt 0.113352 0.326942
vt 0.113352 0.326942
vt 0.113352 0.326942
vt 0.113352 0.326942
vt 0.113352 0.326942
vt 0.113352 0.326942
vt 0.113352 0.326942
vt 0.113352 0.326942
vt 0.113352 0.326942
vt 0.113352 0.326942
vt 0.113352 0.326942
vt 0.111206 0.379430
vt 0.111206 0.379430
vt 0.111267 0.379430
vt 0.111267 0.379430
vt 0.111267 0.379430
vt 0.111267 0.379430
vt 0.111206 0.379430
vt 0.111206 0.379430
vt 0.111206 0.379430
vt 0.111206 0.379430
vt 0.111267 0.379430
vt 0.111267 0.379430
vt 0.111210 0.379430
vt 0.111206 0.379430
vt 0.111206 0.379430
vt 0.111230 0.379430
vt 0.111220 0.379430
vt 0.111226 0.379430
vt 0.111227 0.379430
vt 0.111261 0.379430
vt 0.111253 0.379430
vt 0.111249 0.379430
vt 0.111240 0.379430
vt 0.111267 0.379430
vt 0.111255 0.379430
vt 0.111249 0.379430
vt 0.111251 0.379430
vt 0.111251 0.379430
vt 0.111267 0.379430
vt 0.111267 0.379430
vt 0.111267 0.379430
vt 0.111267 0.379430
vt 0.111222 0.379430
vt 0.111214 0.379430
vt 0.111217 0.379430
vt 0.111218 0.379430
vn 0.000000 1.000000 0.000000
vn 0.000000 1.000000 0.000000
vn 0.000000 1.000000 0.000000
vn 0.000000 1.000000 0.000000
vn 0.000000 0.000000 1.000000
vn 0.000000 0.000000 1.000000
vn 0.000000 0.000000 1.000000
vn 0.000000 0.000000 1.000000
vn 0.000000 1.000000 0.000000
vn 0.000000 1.000000 0.000000
vn 0.000000 1.000000 0.000000
vn 0.000000 1.000000 0.000000
vn -0.000000 -1.000000 0.000000
vn -0.000000 -1.000000 0.000000
vn -0.000000 -1.000000 0.000000
vn -0.000000 -1.000000 0.000000
vn 1.000000 0.000000 0.000000
vn 1.000000 0.000000 0.000000
vn 1.000000 0.000000 0.000000
vn 1.000000 0.000000 0.000000
vn -1.000000 0.000000 0.000000
vn -1.000000 0.000000 0.000000
vn -1.000000 0.000000 0.000000
vn -1.000000 0.000000 0.000000
vn 0.000000 1.000000 0.000000
vn 0.000000 1.000000 0.000000
vn 0.000000 1.000000 0.000000
vn 0.000000 1.000000 0.000000
vn 1.000000 0.000000 0.000000
vn 1.000000 0.000000 0.000000
vn 1.000000 0.000000 0.000000
vn 1.000000 0.000000 0.000000
vn -0.000000 -1.000000 0.000000
vn -0.000000 -1.000000 0.000000
vn -0.000000 -1.000000 0.000000
vn -0.000000 -1.000000 0.000000
vn -1.000000 0.000000 0.000000
vn -1.000000 0.000000 0.000000
vn -1.000000 0.000000 0.000000
vn -1.000000 0.000000 0.000000
vn 0.000000 1.000000 0.000000
vn 0.000000 1.000000 0.000000
vn 0.000000 1.000000 0.000000
vn 0.000000 1.000000 0.000000
vn -1.000000 0.000000 0.000000
vn -1.000000 0.000000 0.000000
vn -1.000000 0.000000 0.000000
vn -1.000000 0.000000 0.000000
vn 0.000000 1.000000 0.000000
vn 0.000000 1.000000 0.000000
vn 0.000000 1.000000 0.000000
vn 0.000000 1.000000 0.000000
vn 1.000000 0.000000 0.000000
vn 1.000000 0.000000 0.000000
vn 1.000000 0.000000 0.000000
vn 1.000000 0.000000 0.000000
vn -1.000000 0.000000 0.000000
vn -1.000000 0.000000 0.000000
vn -1.000000 0.000000 0.000000
vn -1.000000 0.000000 0.000000
vn 0.000000 1.000000 0.000000
vn 0.000000 1.000000 0.000000
vn 0.000000 1.000000 0.000000
vn 0.000000 1.000000 0.000000
vn 0.000000 1.000000 0.000000
vn 0.000000 1.000000 0.000000
vn 0.000000 1.000000 0.000000
vn 0.000000 1.000000 0.000000
vn 0.000000 1.000000 0.000000
vn 0.000000 1.000000 0.000000
vn 0.000000 1.000000 0.000000
vn 0.000000 1.000000 0.000000
vn 0.000000 1.000000 0.000000
vn 0.000000 1.000000 0.000000
vn 0.000000 1.000000 0.000000
vn 0.000000 1.000000 0.000000
vn 0.000000 1.000000 0.000000
vn 0.000000 1.000000 0.000000
vn 0.000000 1.000000 0.000000
vn 0.000000 1.000000 0.000000
vn 0.000000 1.000000 0.000000
vn 0.000000 1.000000 0.000000
vn 0.000000 1.000000 0.000000
vn 0.000000 1.000000 0.000000
vn 0.000000 1.000000 0.000000
vn 0.000000 1.000000 0.000000
vn 0.000000 1.000000 0.000000
vn 0.000000 1.000000 0.000000
vn 0.000000 1.000000 0.000000
vn 0.000000 1.000000 0.000000
vn 0.000000 1.000000 0.000000
vn 0.000000 1.000000 0.000000
vn 0.000000 1.000000 0.000000
vn 0.000000 1.000000 0.000000
vn 0.000000 1.000000 0.000000
vn 0.000000 1.000000 0.000000
vn 0.000000 1.000000 0.000000
vn 0.000000 1.000000 0.000000
vn 0.000000 1.000000 0.000000
vn 0.000000 1.000000 0.000000
vn 0.000000 1.000000 0.000000
vn 0.000000 1.000000 0.000000
vn 0.000000 1.000000 0.000000
vn 0.175801 0.923970 -0.339667
vn 0.175801 0.923970 -0.339667
vn 0.175801 0.923970 -0.339667
vn 0.000000 1.000000 0.000000
vn 0.000000 1.000000 0.000000
vn 0.000000 1.000000 0.000000
vn 0.000000 1.000000 0.000000
vn 0.000000 0.242560 -0.970136
vn 0.000000 0.242560 -0.970136
vn 0.000000 0.242560 -0.970136
vn 0.000000 0.242560 -0.970136
vn -0.932664 0.360747 0.000000
vn -0.932664 0.360747 0.000000
vn -0.932664 0.360747 0.000000
vn -0.932664 0.360747 0.000000
vn 0.000000 0.242529 0.970144
vn 0.000000 0.242529 0.970144
vn 0.000000 0.242529 0.970144
vn 0.000000 0.242529 0.970144
vn 0.932653 0.360775 0.000000
vn 0.932653 0.360775 0.000000
vn 0.932653 0.360775 0.000000
vn 0.932653 0.360775 0.000000
vn 0.000000 0.242529 -0.970144
vn 0.000000 0.242529 -0.970144
vn 0.000000 0.242529 -0.970144
vn 0.000000 0.242529 -0.970144
vn -0.932664 0.360747 0.000000
vn -0.932664 0.360747 0.000000
vn -0.932664 0.360747 0.000000
vn -0.932664 0.360747 0.000000
vn 0.000000 0.242529 0.970144
vn 0.000000 0.242529 0.970144
vn 0.000000 0.242529 0.970144
vn 0.000000 0.242529 0.970144
vn 0.932653 0.360775 0.000000
vn 0.932653 0.360775 0.000000
vn 0.932653 0.360775 0.000000
vn 0.932653 0.360775 0.000000
vn 0.000000 0.242529 -0.970144
vn 0.000000 0.242529 -0.970144
vn 0.000000 0.242529 -0.970144
vn 0.000000 0.242529 -0.970144
vn -0.932664 0.360747 0.000000
vn -0.932664 0.360747 0.000000
vn -0.932664 0.360747 0.000000
vn -0.932664 0.360747 0.000000
vn -0.000002 0.242559 0.970137
vn -0.000002 0.242559 0.970137
vn -0.000002 0.242559 0.970137
vn 0.932653 0.360775 0.000000
vn 0.932653 0.360775 0.000000
vn 0.932653 0.360775 0.000000
vn 0.932653 0.360775 0.000000
vn 0.932653 0.360775 0.000000
vn 0.000000 0.242560 -0.970136
vn 0.000000 0.242560 -0.970136
vn 0.000000 0.242560 -0.970136
vn 0.000000 0.242560 -0.970136
vn -0.932664 0.360747 0.000000
vn -0.932664 0.360747 0.000000
vn -0.932664 0.360747 0.000000
vn -0.932664 0.360747 0.000000
vn 0.000000 0.242560 0.970136
vn 0.000000 0.242560 0.970136
vn 0.000000 0.242560 0.970136
vn 0.000000 0.242560 0.970136
vn 0.932653 0.360776 0.000000
vn 0.932653 0.360776 0.000000
vn 0.932653 0.360775 0.000000
vn 0.932653 0.360775 0.000000
vn 0.000000 1.000000 0.000000
vn 0.000000 1.000000 0.000000
vn 0.000000 1.000000 0.000000
vn 0.000000 1.000000 0.000000
vn 0.000000 1.000000 0.000000
vn 0.000000 1.000000 0.000000
vn 0.000000 1.000000 0.000000
vn 0.000000 1.000000 0.000000
vn 0.000000 1.000000 0.000000
vn 0.000000 1.000000 0.000000
vn 0.000000 1.000000 0.000000
vn 0.000000 1.000000 0.000000
vn 0.000000 1.000000 0.000000
vn 0.000000 1.000000 0.000000
vn 0.000000 1.000000 0.000000
vn 0.000000 1.000000 0.000000
vn 0.000000 1.000000 -0.000000
vn 0.000000 1.000000 -0.000000
vn 0.000000 1.000000 -0.000000
vn 0.000000 1.000000 -0.000000
vn 0.000000 1.000000 0.000000
vn 0.000000 1.000000 0.000000
vn 0.000000 1.000000 0.000000
vn 0.000000 1.000000 0.000000
vn 0.000000 1.000000 0.000000
vn 0.000000 1.000000 0.000000
vn 0.000000 1.000000 0.000000
vn 0.000000 1.000000 0.000000
vn 0.000000 1.000000 0.000000
vn 0.000000 1.000000 0.000000
vn 0.000000 1.000000 0.000000
vn 0.000000 1.000000 0.000000
vn 0.000000 1.000000 0.000000
vn 0.000000 1.000000 0.000000
vn 0.000000 1.000000 0.000000
vn 0.000000 1.000000 0.000000
vn 1.000000 0.000000 0.000000
vn 1.000000 0.000000 0.000000
vn 1.000000 0.000000 0.000000
vn 1.000000 0.000000 0.000000
vn -1.000000 0.000000 0.000000
vn -1.000000 0.000000 0.000000
vn -1.000000 0.000000 0.000000
vn -1.000000 0.000000 0.000000
vn 1.000000 0.000000 0.000000
vn 1.000000 0.000000 0.000000
vn 1.000000 0.000000 0.000000
vn 1.000000 0.000000 0.000000
vn -1.000000 0.000000 0.000000
vn -1.000000 0.000000 0.000000
vn -1.000000 0.000000 0.000000
vn -1.000000 0.000000 0.000000
vn 0.000000 0.000000 -1.000000
vn 0.000000 0.000000 -1.000000
vn 0.000000 0.000000 -1.000000
vn 0.000000 0.000000 -1.000000
vn -0.000001 0.000000 1.000000
vn -0.000001 0.000000 1.000000
vn -0.000001 0.000000 1.000000
vn -0.000001 0.000000 1.000000
vn 0.000000 1.000000 0.000000
vn 0.000000 1.000000 0.000000
vn 0.000000 1.000000 0.000000
vn 0.000000 1.000000 0.000000
vn 0.000000 1.000000 0.000000
vn 0.000000 1.000000 0.000000
vn 0.000000 1.000000 0.000000
vn 0.000000 1.000000 0.000000
vn 0.000000 1.000000 0.000000
vn 0.000000 1.000000 0.000000
vn 0.000000 1.000000 0.000000
vn 0.000000 1.000000 0.000000
vn 0.000000 1.000000 0.000000
vn 0.000000 1.000000 0.000000
vn 0.000000 1.000000 0.000000
vn 0.000000 1.000000 0.000000
vn 0.000000 1.000000 0.000000
vn 0.000000 1.000000 0.000000
vn 0.811350 0.584560 0.000000
vn 0.811350 0.584560 0.000000
vn 0.811350 0.584560 0.000000
vn 0.811350 0.584560 0.000000
vn 0.000000 0.428515 -0.903535
vn 0.000000 0.428515 -0.903535
vn 0.000000 0.428515 -0.903535
vn 0.000000 0.428515 -0.903535
vn -0.811350 0.584560 0.000000
vn -0.811350 0.584560 0.000000
vn -0.811350 0.584560 0.000000
vn -0.811350 0.584560 0.000000
vn -0.000000 0.428515 0.903534
vn -0.000000 0.428515 0.903534
vn -0.000000 0.428515 0.903534
vn -0.000000 0.428515 0.903534
vn -0.811351 0.584559 0.000000
vn -0.811351 0.584559 0.000000
vn -0.811351 0.584559 0.000000
vn -0.811351 0.584559 0.000000
vn 0.000000 0.428493 0.903545
vn 0.000000 0.428493 0.903545
vn 0.000000 0.428493 0.903545
vn 0.000000 0.428493 0.903545
vn 0.811350 0.584560 0.000000
vn 0.811350 0.584560 0.000000
vn 0.811350 0.584560 0.000000
vn 0.811350 0.584560 0.000000
vn 0.000000 0.428490 -0.903547
vn 0.000000 0.428490 -0.903547
vn 0.000000 0.428490 -0.903547
vn 0.000000 0.428490 -0.903547
vn 0.811350 0.584561 0.000000
vn 0.811350 0.584561 0.000000
vn 0.811350 0.584561 0.000000
vn 0.811350 0.584561 0.000000
vn 0.000000 0.428481 -0.903551
vn 0.000000 0.428481 -0.903551
vn 0.000000 0.428481 -0.903551
vn 0.000000 0.428481 -0.903551
vn -0.811350 0.584560 0.000000
vn -0.811350 0.584560 0.000000
vn -0.811350 0.584560 0.000000
vn -0.811350 0.584560 0.000000
vn 0.000000 0.428481 0.903551
vn 0.000000 0.428481 0.903551
vn 0.000000 0.428481 0.903551
vn 0.000000 0.428481 0.903551
vn 0.175803 0.923970 -0.339667
vn 0.175803 0.923970 -0.339667
vn 0.175803 0.923970 -0.339667
vn 0.000000 1.000000 -0.000000
vn 0.000000 1.000000 -0.000000
vn 0.000000 1.000000 -0.000000
vn 0.000000 1.000000 -0.000000
vn 1.000000 -0.000001 0.000000
vn 1.000000 -0.000001 0.000000
vn 1.000000 -0.000001 0.000000
vn 1.000000 -0.000001 0.000000
vn 1.000000 -0.000001 0.000000
vn 0.000000 0.000000 -1.000000
vn 0.000000 0.000000 -1.000000
vn 0.000000 0.000000 -1.000000
vn 0.000000 0.000000 -1.000000
vn 0.000000 0.000000 -1.000000
vn -0.109036 0.690730 -0.714845
vn -0.109036 0.690730 -0.714845
vn -0.109036 0.690730 -0.714845
vn 0.183135 0.587517 -0.788216
vn 0.183135 0.587517 -0.788216
vn 0.183135 0.587517 -0.788216
vn 0.065851 0.902311 0.426027
vn 0.065851 0.902311 0.426027
vn 0.065851 0.902311 0.426027
vn -0.107949 0.937301 0.331382
vn -0.107949 0.937301 0.331382
vn -0.107949 0.937301 0.331382
vn 0.000000 1.000000 0.000000
vn 0.000000 1.000000 0.000000
vn 0.000000 1.000000 0.000000
vn 0.000000 1.000000 0.000000
vn 0.000000 1.000000 -0.000000
vn 0.000000 1.000000 -0.000000
vn 0.000000 1.000000 -0.000000
vn 0.000000 1.000000 -0.000000
vn 0.000000 1.000000 -0.000000
vn -0.000000 1.000000 0.000000
vn -0.000000 1.000000 0.000000
vn -0.000000 1.000000 0.000000
vn -0.000000 1.000000 0.000000
vn 0.000000 0.000000 -1.000000
vn 0.000000 0.000000 -1.000000
vn 0.000000 0.000000 -1.000000
vn 0.000000 0.000000 -1.000000
vn -0.000000 0.000000 -1.000000
vn -0.000000 0.000000 -1.000000
vn -0.000000 0.000000 -1.000000
vn -0.000001 0.242534 0.970143
vn -0.000001 0.242533 0.970143
vn -0.000001 0.242533 0.970143
vn -0.000001 0.242533 0.970143
vn -0.000002 0.242560 0.970136
vn -0.000002 0.242560 0.970136
vn -0.000002 0.242560 0.970136
vn -0.000002 0.242560 0.970136
vn 0.000000 0.242550 0.970139
vn 0.000000 0.242550 0.970139
vn 0.000000 0.242550 0.970139
vn 0.155421 0.651227 0.742797
vn 0.155421 0.651227 0.742797
vn 0.155421 0.651227 0.742797
vn -0.355366 0.644951 0.676574
vn -0.355366 0.644951 0.676574
vn -0.355366 0.644951 0.676574
vn 0.000000 1.000000 -0.000000
vn 0.000000 1.000000 -0.000000
vn 0.000000 1.000000 -0.000000
vn 0.000000 1.000000 -0.000000
vn 0.000000 1.000000 -0.000000
vn 0.000000 1.000000 -0.000000
vn 0.000000 1.000000 -0.000000
vn 0.000000 1.000000 -0.000000
vn 0.000000 0.000000 1.000000
vn 0.000000 0.000000 1.000000
vn 0.000000 0.000000 1.000000
vn 0.000000 0.000000 1.000000
vn 0.000000 0.000000 1.000000
vn 0.000000 0.000000 1.000000
vn 0.000000 0.000000 1.000000
vn -0.871975 0.472015 0.129852
vn -0.871975 0.472015 0.129852
vn -0.871975 0.472015 0.129852
vn -0.838343 0.492569 -0.233577
vn -0.838343 0.492569 -0.233577
vn -0.838343 0.492569 -0.233577
vn 0.000000 1.000000 0.000000
vn 0.000000 1.000000 0.000000
vn 0.000000 1.000000 0.000000
vn 0.000000 1.000000 0.000000
vn 0.000000 1.000000 0.000000
vn 0.000000 1.000000 0.000000
vn 0.000000 1.000000 0.000000
vn 0.000000 1.000000 0.000000
vn -1.000000 0.000001 0.000000
vn -1.000000 0.000001 0.000000
vn -1.000000 0.000001 0.000000
vn -1.000000 0.000001 0.000000
vn -1.000000 0.000000 0.000000
vn -1.000000 0.000000 0.000000
vn -1.000000 0.000000 0.000000
vn 0.072742 0.827715 0.556414
vn 0.072742 0.827715 0.556414
vn 0.072742 0.827715 0.556414
vn -0.141392 0.840511 0.523019
vn -0.141392 0.840511 0.523019
vn -0.141392 0.840511 0.523019
vn 0.000000 1.000000 -0.000000
vn 0.000000 1.000000 -0.000000
vn 0.000000 1.000000 -0.000000
vn 0.000000 1.000000 -0.000000
vn 0.000000 1.000000 0.000000
vn 0.000000 1.000000 0.000000
vn 0.000000 1.000000 0.000000
vn 0.000000 0.428515 0.903534
vn 0.000000 0.428515 0.903534
vn 0.000000 0.428515 0.903535
vn 0.000000 0.428515 0.903534
vn 0.000000 0.428512 0.903536
vn 0.000000 0.428512 0.903536
vn 0.000000 0.428512 0.903536
s off
f 1/1/1 2/2/2 4/4/3 3/3/4
f 5/5/5 96/122/6 93/119/7 7/8/8
f 41/9/9 42/10/10 43/11/11 44/12/12
f 63/17/13 64/18/14 65/19/15 66/20/16
f 14/21/17 15/22/18 17/23/19 18/24/20
f 19/25/21 20/26/22 16/27/23 13/28/24
f 45/29/25 46/30/26 47/31/27 48/32/28
f 22/33/29 23/34/30 15/22/31 14/21/32
f 66/20/33 65/19/34 67/35/35 68/36/36
f 13/28/37 16/27/38 100/126/39 98/124/40
f 50/39/41 49/40/42 51/41/43 52/42/44
f 11/16/45 20/26/46 19/25/47 9/13/48
f 53/43/49 54/44/50 55/45/51 56/46/52
f 6/6/53 23/34/54 22/33/55 8/7/56
f 21/38/57 24/37/58 5/5/59 7/8/60
f 69/95/61 70/96/62 103/129/63 102/128/64
f 14/21/65 18/24/66 27/51/67 26/47/68
f 73/99/69 74/100/70 75/101/71 76/102/72
f 19/25/73 13/28/74 25/48/75 28/52/76
f 29/56/77 95/121/78 30/55/79
f 8/7/80 22/33/81 31/57/82 30/55/83
f 21/38/84 7/8/85 29/56/86 32/58/87
f 77/103/88 78/104/89 79/105/90 80/106/91
f 22/33/92 14/21/93 35/50/94 34/59/95
f 36/49/96 99/125/97 33/60/98
f 18/24/99 82/108/100 83/109/101 39/61/102 37/53/103
f 10/14/104 81/107/105 83/109/106
f 9/13/107 19/25/108 38/54/109 40/62/110
f 25/48/111 26/47/112 42/63/113 41/64/114
f 26/47/115 27/51/116 43/65/117 42/63/118
f 27/51/119 28/52/120 44/66/121 43/65/122
f 28/52/123 25/48/124 41/64/125 44/66/126
f 33/60/127 34/59/128 46/67/129 45/68/130
f 34/59/131 35/50/132 47/69/133 46/67/134
f 35/50/135 36/49/136 48/70/137 47/69/138
f 36/49/139 33/60/140 45/68/141 48/70/142
f 38/54/143 37/53/144 49/71/145 50/72/146
f 37/53/147 39/61/148 51/73/149 49/71/150
f 52/74/151 91/117/152 92/118/153
f 40/62/154 38/54/155 50/72/156 52/74/157 92/118/158
f 29/56/159 30/55/160 54/75/161 53/76/162
f 30/55/163 31/57/164 55/77/165 54/75/166
f 31/57/167 32/58/168 56/78/169 55/77/170
f 32/58/171 29/56/172 53/76/173 56/78/174
f 17/79/175 15/80/176 59/81/177 58/82/178
f 16/83/179 20/84/180 57/85/181 60/86/182
f 15/80/183 23/87/184 61/88/185 59/81/186
f 24/89/187 16/83/188 60/86/189 62/90/190
f 11/91/191 12/92/192 58/82/193 57/85/194
f 12/92/195 17/79/196 58/82/197
f 20/84/198 11/91/199 57/85/200
f 23/87/201 6/93/202 61/88/203
f 6/93/204 5/94/205 62/90/206 61/88/207
f 5/94/208 24/89/209 62/90/210
f 58/82/211 59/81/212 65/19/213 64/18/214
f 60/86/215 57/85/216 63/17/217 66/20/218
f 59/81/219 61/88/220 67/35/221 65/19/222
f 62/90/223 60/86/224 66/20/225 68/36/226
f 57/85/227 58/82/228 64/18/229 63/17/230
f 61/88/231 62/90/232 68/36/233 67/35/234
f 22/33/235 34/59/236 31/57/237
f 14/21/238 26/47/239 35/50/240
f 37/53/241 27/51/242 18/24/243
f 19/25/244 28/52/245 38/54/246
f 36/49/247 25/48/248 13/28/249
f 32/58/250 33/60/251 21/38/252
f 35/50/253 26/47/254 70/96/255 69/95/256
f 26/47/257 25/48/258 71/97/259 70/96/260
f 25/48/261 36/49/262 72/98/263 71/97/264
f 36/49/265 104/130/266 101/127/267 72/98/268
f 38/54/269 28/52/270 74/100/271 73/99/272
f 28/52/273 27/51/274 75/101/275 74/100/276
f 27/51/277 37/53/278 76/102/279 75/101/280
f 37/53/281 38/54/282 73/99/283 76/102/284
f 31/57/285 34/59/286 78/104/287 77/103/288
f 34/59/289 33/60/290 79/105/291 78/104/292
f 33/60/293 32/58/294 80/106/295 79/105/296
f 32/58/297 31/57/298 77/103/299 80/106/300
f 83/109/301 82/108/302 10/14/303
f 89/115/304 86/112/305 84/110/306 9/13/307
f 18/24/308 17/23/309 12/15/310 10/14/311 82/108/312
f 12/15/313 87/113/314 85/111/315 81/107/316 10/14/317
f 85/111/318 87/113/319 86/112/320
f 86/112/321 87/113/322 84/110/323
f 88/114/324 91/117/325 89/115/326
f 89/115/327 91/117/328 90/116/329
f 89/115/330 9/13/331 40/62/332 88/114/333
f 83/109/334 81/107/335 85/111/336 86/112/337 39/61/338
f 39/61/339 86/112/340 89/115/341 90/116/342
f 9/13/343 84/110/344 87/113/345 11/16/346
f 11/16/347 87/113/348 12/15/349
f 39/61/350 90/116/351 91/117/352 51/73/353
f 92/118/354 91/117/355 88/114/356 40/62/357
f 51/73/358 91/117/359 52/74/360
f 96/122/361 95/121/362 93/119/363
f 94/120/364 95/121/365 96/122/366
f 7/8/367 93/119/368 95/121/369 29/56/370
f 30/55/371 95/121/372 94/120/373 8/7/374
f 96/122/375 6/6/376 8/7/377 94/120/378
f 5/5/379 6/6/380 96/122/381
f 98/124/382 100/126/383 99/125/384
f 99/125/385 100/126/386 97/123/387
f 13/28/388 98/124/389 99/125/390 36/49/391
f 33/60/392 99/125/393 97/123/394 21/38/395
f 100/126/396 24/37/397 21/38/398 97/123/399
f 100/126/400 16/27/401 24/37/402
f 101/127/403 104/130/404 103/129/405
f 103/129/406 104/130/407 102/128/408
f 103/129/409 71/97/410 72/98/411 101/127/412
f 103/129/413 70/96/414 71/97/415
f 104/130/416 35/50/417 69/95/418 102/128/419
f 36/49/420 35/50/421 104/130/422
