# This file uses meters as units for non-parametric coordinates.

v 21.620352 0.256348 33.287239
v 14.670625 0.256348 33.287239
v 11.195762 0.256348 39.305882
v 14.670624 0.256348 45.324520
v 21.620351 0.256348 45.324520
v 25.095213 0.256348 39.305882
v 12.505441 -10.034119 39.345604
v 15.359713 -10.062103 34.248680
v 21.283621 -10.080475 34.271435
v 24.353255 -10.070892 39.391136
v 21.498985 -10.042969 44.488064
v 15.575077 -10.024567 44.465298
v 12.489114 -49.907883 7.899731
v 15.343386 -49.907883 2.802811
v 21.267294 -49.907837 2.825586
v 24.336928 -49.907852 7.945276
v 21.482658 -49.907883 13.042187
v 15.558750 -49.907883 13.019413
v 15.212437 -6.473053 44.445644
v 12.181096 -5.527649 39.293747
v 15.104756 -5.266663 34.153233
v 21.059757 -5.527649 34.164619
v 24.091097 -5.402924 39.316521
v 21.167438 -5.527649 44.457020
v 14.710903 -4.477844 45.299213
v 11.213811 -4.477844 39.299282
v 14.648396 -3.692902 33.305935
v 21.580074 -4.477844 33.312557
v 25.077164 -3.751038 39.312496
v 21.642580 -4.477844 45.305813
v 12.493033 -14.626144 38.275185
v 15.113242 -11.501526 33.941059
v 20.958337 -11.316528 33.806568
v 24.183221 -14.256256 38.006016
v 21.563012 -17.380707 42.340378
v 15.717917 -17.565765 42.474861
v 12.470502 -44.660721 9.379320
v 14.973679 -41.095566 4.874714
v 20.779369 -40.846451 4.625069
v 24.081877 -44.162811 8.879784
v 21.578699 -47.727692 13.384701
v 15.773010 -47.976852 13.634342
v 21.131546 -377.522552 2.797781
v 15.145451 -377.522552 2.797781
v 12.152403 -377.522552 7.981892
v 15.145450 -377.522552 13.165997
v 21.131545 -377.522552 13.165997
v 24.124591 -377.522552 7.981892
v 18.147889 -371.034393 7.982639
v 12.508564 -92.715729 8.411331
v 14.894710 -103.179413 3.027273
v 20.660993 -112.224258 2.606884
v 24.041126 -110.805481 7.570557
v 21.654979 -100.341827 12.954605
v 15.888697 -91.296951 13.375000
v 14.912026 -314.259388 12.871147
v 12.279748 -315.098217 7.507433
v 15.574393 -320.371975 2.622707
v 21.501317 -324.806866 3.101679
v 24.133593 -323.968037 8.465397
v 20.838949 -318.694279 13.350132
v 14.439504 -203.345490 13.335304
v 11.788098 -204.484650 7.982971
v 15.589352 -211.786083 2.636339
v 22.042012 -217.948235 2.642042
v 24.693418 -216.809082 7.994389
v 20.892166 -209.507671 13.341007
vt 0.134612 0.301222
vt 0.134545 0.301209
vt 0.134566 0.301236
vt 0.134453 0.301238
vt 0.134385 0.301225
vt 0.134431 0.301211
vt 0.134566 0.302578
vt 0.134612 0.302563
vt 0.134545 0.302550
vt 0.134431 0.302552
vt 0.134385 0.302566
vt 0.134453 0.302579
vt 0.134566 0.303919
vt 0.134612 0.303905
vt 0.134545 0.303892
vt 0.134431 0.303894
vt 0.134385 0.303908
vt 0.134453 0.303921
vt 0.134453 0.301909
vt 0.134566 0.301907
vt 0.134612 0.301892
vt 0.134545 0.301880
vt 0.134431 0.301881
vt 0.134385 0.301896
vt 0.134453 0.301573
vt 0.134566 0.301572
vt 0.134612 0.301557
vt 0.134545 0.301544
vt 0.134431 0.301546
vt 0.134385 0.301560
vt 0.134566 0.303248
vt 0.134612 0.303234
vt 0.134545 0.303221
vt 0.134431 0.303223
vt 0.134385 0.303237
vt 0.134453 0.303250
vt 0.134566 0.303584
vt 0.134612 0.303569
vt 0.134545 0.303556
vt 0.134431 0.303558
vt 0.134385 0.303573
vt 0.134453 0.303585
vt 0.134181 0.280731
vt 0.134219 0.280738
vt 0.134612 0.304575
vt 0.134545 0.304562
vt 0.134217 0.280161
vt 0.134566 0.304590
vt 0.134178 0.280189
vt 0.134453 0.304591
vt 0.134214 0.280749
vt 0.134385 0.304579
vt 0.134215 0.280132
vt 0.134431 0.304564
vt 0.134171 0.280753
vt 0.134612 0.303905
vt 0.134566 0.303919
vt 0.134566 0.302578
vt 0.134612 0.302563
vt 0.134545 0.303892
vt 0.134545 0.302550
vt 0.134431 0.303894
vt 0.134431 0.302552
vt 0.134385 0.303908
vt 0.134385 0.302566
vt 0.134453 0.303921
vt 0.134453 0.302579
vt 0.134453 0.304256
vt 0.134566 0.304254
vt 0.134612 0.304240
vt 0.134545 0.304227
vt 0.134431 0.304229
vt 0.134385 0.304243
vt 0.134174 0.280131
vt 0.134134 0.280747
vt 0.134135 0.280159
vt 0.134139 0.280735
vt 0.134136 0.280188
vt 0.134176 0.280693
vn -0.868599 -0.061880 -0.491637
vn -0.868599 -0.061880 -0.491637
vn -0.868599 -0.061880 -0.491637
vn -0.868599 -0.061880 -0.491637
vn 0.002368 -0.021510 -0.999766
vn 0.002368 -0.021510 -0.999766
vn 0.002368 -0.021510 -0.999766
vn 0.002368 -0.021510 -0.999766
vn 0.859038 0.035231 -0.510697
vn 0.859038 0.035231 -0.510697
vn 0.859038 0.035231 -0.510697
vn 0.859038 0.035231 -0.510697
vn 0.868955 0.061828 0.491013
vn 0.868955 0.061828 0.491013
vn 0.868955 0.061828 0.491013
vn 0.868955 0.061828 0.491013
vn -0.003343 0.005997 0.999977
vn -0.003343 0.005997 0.999976
vn -0.003343 0.005997 0.999976
vn -0.003343 0.005997 0.999976
vn -0.860474 -0.068880 0.504817
vn -0.860474 -0.068880 0.504817
vn -0.860474 -0.068880 0.504817
vn -0.860474 -0.068880 0.504817
vn -0.883669 0.091557 -0.459072
vn -0.883669 0.091557 -0.459072
vn -0.883669 0.091557 -0.459072
vn -0.883669 0.091557 -0.459071
vn -0.023375 0.210558 -0.977302
vn -0.023375 0.210558 -0.977302
vn -0.023375 0.210558 -0.977302
vn -0.023375 0.210558 -0.977302
vn 0.841160 0.138723 -0.522691
vn 0.841160 0.138723 -0.522691
vn 0.841160 0.138723 -0.522691
vn 0.841160 0.138723 -0.522691
vn 0.880807 -0.058045 0.469904
vn 0.880807 -0.058045 0.469904
vn 0.880807 -0.058045 0.469904
vn 0.880807 -0.058045 0.469904
vn 0.023677 -0.228446 0.973269
vn 0.023677 -0.228446 0.973269
vn 0.023677 -0.228446 0.973269
vn 0.023677 -0.228446 0.973269
vn -0.840811 -0.130386 0.525391
vn -0.840811 -0.130386 0.525391
vn -0.840811 -0.130386 0.525391
vn -0.840811 -0.130386 0.525391
vn -0.770888 -0.487515 0.409952
vn -0.770888 -0.487515 0.409952
vn -0.770888 -0.487515 0.409952
vn -0.770888 -0.487515 0.409952
vn -0.712199 -0.533026 -0.456790
vn -0.712199 -0.533026 -0.456790
vn -0.712199 -0.533026 -0.456790
vn -0.712199 -0.533026 -0.456790
vn -0.042851 -0.542407 -0.839022
vn -0.042851 -0.542407 -0.839022
vn -0.042851 -0.542407 -0.839022
vn -0.042851 -0.542407 -0.839022
vn 0.743850 -0.539676 -0.394255
vn 0.743850 -0.539676 -0.394255
vn 0.743850 -0.539676 -0.394255
vn 0.743850 -0.539676 -0.394255
vn 0.753496 -0.529415 0.389825
vn 0.753496 -0.529415 0.389825
vn 0.753496 -0.529415 0.389825
vn 0.753496 -0.529415 0.389825
vn 0.034545 -0.487470 0.872456
vn 0.034545 -0.487470 0.872456
vn 0.034545 -0.487470 0.872456
vn 0.034545 -0.487470 0.872456
vn -0.864973 -0.007019 0.501770
vn -0.864973 -0.007019 0.501770
vn -0.864973 -0.007019 0.501770
vn -0.864973 -0.007019 0.501770
vn -0.866819 -0.000277 -0.498623
vn -0.866819 -0.000277 -0.498623
vn -0.866819 -0.000277 -0.498623
vn -0.866819 -0.000277 -0.498623
vn 0.000191 -0.005070 -0.999987
vn 0.000191 -0.005070 -0.999987
vn 0.000191 -0.005070 -0.999987
vn 0.000191 -0.005070 -0.999987
vn 0.865169 -0.007604 -0.501423
vn 0.865169 -0.007604 -0.501423
vn 0.865169 -0.007604 -0.501423
vn 0.865169 -0.007604 -0.501423
vn 0.866834 -0.000275 0.498597
vn 0.866834 -0.000275 0.498597
vn 0.866834 -0.000275 0.498597
vn 0.866834 -0.000275 0.498597
vn -0.000476 -0.004652 0.999989
vn -0.000476 -0.004652 0.999989
vn -0.000476 -0.004652 0.999989
vn -0.000476 -0.004652 0.999989
vn -0.875630 0.142987 -0.461332
vn -0.875630 0.142987 -0.461331
vn -0.875630 0.142987 -0.461332
vn -0.875630 0.142987 -0.461331
vn -0.013077 0.279951 -0.959925
vn -0.013077 0.279951 -0.959925
vn -0.013077 0.279951 -0.959925
vn -0.013077 0.279951 -0.959925
vn 0.839120 0.105428 -0.533632
vn 0.839120 0.105428 -0.533632
vn 0.839120 0.105428 -0.533632
vn 0.839120 0.105428 -0.533632
vn 0.875661 -0.148900 0.459399
vn 0.875661 -0.148900 0.459399
vn 0.875661 -0.148900 0.459399
vn 0.875661 -0.148900 0.459399
vn 0.012938 -0.267761 0.963399
vn 0.012938 -0.267761 0.963399
vn 0.012938 -0.267761 0.963399
vn 0.012938 -0.267761 0.963399
vn -0.840405 -0.141044 0.523284
vn -0.840405 -0.141044 0.523284
vn -0.840405 -0.141044 0.523284
vn -0.840405 -0.141044 0.523284
vn -0.906423 0.295664 -0.301630
vn -0.906423 0.295664 -0.301630
vn -0.906423 0.295664 -0.301630
vn -0.906423 0.295664 -0.301630
vn -0.049576 0.701082 -0.711356
vn -0.049576 0.701082 -0.711355
vn -0.049576 0.701082 -0.711356
vn -0.049576 0.701082 -0.711355
vn 0.847541 0.369626 -0.380856
vn 0.847541 0.369626 -0.380856
vn 0.847541 0.369626 -0.380856
vn 0.847541 0.369626 -0.380856
vn 0.906549 -0.293612 0.303252
vn 0.906549 -0.293612 0.303252
vn 0.906549 -0.293612 0.303252
vn 0.906549 -0.293612 0.303252
vn 0.049514 -0.688350 0.723687
vn 0.049514 -0.688350 0.723687
vn 0.049514 -0.688350 0.723687
vn 0.049514 -0.688350 0.723687
vn -0.847773 -0.366566 0.383289
vn -0.847773 -0.366566 0.383289
vn -0.847773 -0.366566 0.383289
vn -0.847773 -0.366566 0.383289
vn 0.040499 0.000877 -0.999179
vn 0.040499 0.000877 -0.999179
vn 0.040499 0.000877 -0.999179
vn 0.040499 0.000877 -0.999179
vn -0.847949 0.001065 -0.530077
vn -0.847949 0.001065 -0.530077
vn -0.847949 0.001065 -0.530077
vn -0.847949 0.001065 -0.530077
vn -0.882428 0.002135 0.470443
vn -0.882428 0.002135 0.470443
vn -0.882428 0.002135 0.470443
vn -0.882428 0.002135 0.470443
vn -0.039901 0.000734 0.999203
vn -0.039901 0.000734 0.999203
vn -0.039901 0.000734 0.999203
vn -0.039901 0.000734 0.999203
vn 0.847962 -0.001009 0.530056
vn 0.847962 -0.001009 0.530056
vn 0.847962 -0.001009 0.530056
vn 0.847962 -0.001009 0.530056
vn 0.882348 0.000342 -0.470597
vn 0.882348 0.000342 -0.470597
vn 0.882348 0.000342 -0.470597
vn 0.882348 0.000342 -0.470597
vn 0.367577 -0.678424 0.636104
vn -0.367334 -0.677850 0.636855
vn -0.000407 -1.000000 -0.000032
vn 0.734441 -0.678672 0.000027
vn 0.367577 -0.678424 0.636104
vn -0.000407 -1.000000 -0.000032
vn 0.367637 -0.678345 -0.636153
vn 0.734441 -0.678672 0.000027
vn -0.000407 -1.000000 -0.000032
vn -0.367394 -0.677771 -0.636905
vn 0.367637 -0.678345 -0.636153
vn -0.000407 -1.000000 -0.000032
vn -0.735502 -0.677523 0.000027
vn -0.367394 -0.677771 -0.636905
vn -0.000407 -1.000000 -0.000032
vn -0.367334 -0.677850 0.636855
vn -0.735502 -0.677523 0.000027
vn -0.000407 -1.000000 -0.000032
vn -0.894204 0.000565 -0.447660
vn -0.894204 0.000565 -0.447660
vn -0.894204 0.000565 -0.447660
vn -0.894204 0.000565 -0.447660
vn -0.033793 0.000259 -0.999429
vn -0.033793 0.000259 -0.999429
vn -0.033793 0.000259 -0.999429
vn -0.033793 0.000259 -0.999429
vn 0.842630 -0.003576 -0.538481
vn 0.842630 -0.003576 -0.538481
vn 0.842630 -0.003576 -0.538481
vn 0.842630 -0.003576 -0.538481
vn 0.893282 -0.002857 0.449488
vn 0.893282 -0.002857 0.449488
vn 0.893282 -0.002857 0.449488
vn 0.893282 -0.002857 0.449488
vn 0.036402 0.003116 0.999332
vn 0.036402 0.003116 0.999332
vn 0.036402 0.003116 0.999332
vn 0.036402 0.003116 0.999332
vn -0.842536 0.002051 0.538636
vn -0.842536 0.002051 0.538636
vn -0.842536 0.002051 0.538636
vn -0.842536 0.002051 0.538636
vn -0.896463 -0.005781 0.443080
vn -0.896463 -0.005781 0.443080
vn -0.896463 -0.005781 0.443080
vn -0.896463 -0.005781 0.443080
vn -0.822014 -0.000517 -0.569468
vn -0.822014 -0.000517 -0.569468
vn -0.822014 -0.000517 -0.569468
vn -0.822014 -0.000517 -0.569468
vn 0.037270 -0.002165 -0.999303
vn 0.037270 -0.002165 -0.999303
vn 0.037270 -0.002165 -0.999303
vn 0.037270 -0.002165 -0.999303
vn 0.897361 -0.006533 -0.441249
vn 0.897361 -0.006533 -0.441249
vn 0.897361 -0.006533 -0.441249
vn 0.897361 -0.006533 -0.441249
vn 0.821105 -0.001060 0.570776
vn 0.821105 -0.001060 0.570776
vn 0.821105 -0.001060 0.570776
vn 0.821105 -0.001060 0.570776
vn -0.040955 -0.002144 0.999159
vn -0.040955 -0.002144 0.999159
vn -0.040955 -0.002144 0.999159
vn -0.040955 -0.002144 0.999159
vn -0.864040 0.007323 0.503369
vn -0.864040 0.007323 0.503370
vn -0.864040 0.007323 0.503369
vn -0.864040 0.007323 0.503369
vn -0.864889 0.001967 -0.501959
vn -0.864889 0.001967 -0.501959
vn -0.864889 0.001967 -0.501959
vn -0.864889 0.001967 -0.501959
vn -0.032244 0.001347 -0.999479
vn -0.032244 0.001347 -0.999479
vn -0.032244 0.001347 -0.999479
vn -0.032244 0.001347 -0.999479
vn 0.862474 0.007186 -0.506051
vn 0.862474 0.007186 -0.506051
vn 0.862474 0.007186 -0.506051
vn 0.862474 0.007186 -0.506051
vn 0.867324 0.001429 0.497741
vn 0.867324 0.001429 0.497741
vn 0.867324 0.001429 0.497741
vn 0.867324 0.001429 0.497741
vn 0.035425 0.001212 0.999372
vn 0.035425 0.001212 0.999372
vn 0.035425 0.001212 0.999372
vn 0.035425 0.001212 0.999372
s off
f 8/8/1 7/7/2 20/20/3 21/21/4
f 9/9/5 8/8/6 21/21/7 22/22/8
f 10/10/9 9/9/10 22/22/11 23/23/12
f 11/11/13 10/10/14 23/23/15 24/24/16
f 12/12/17 11/11/18 24/24/19 19/19/20
f 7/7/21 12/12/22 19/19/23 20/20/24
f 14/14/25 13/13/26 37/37/27 38/38/28
f 15/15/29 14/14/30 38/38/31 39/39/32
f 16/16/33 15/15/34 39/39/35 40/40/36
f 17/17/37 16/16/38 40/40/39 41/41/40
f 18/18/41 17/17/42 41/41/43 42/42/44
f 13/13/45 18/18/46 42/42/47 37/37/48
f 20/20/49 19/19/50 25/25/51 26/26/52
f 21/21/53 20/20/54 26/26/55 27/27/56
f 22/22/57 21/21/58 27/27/59 28/28/60
f 23/23/61 22/22/62 28/28/63 29/29/64
f 24/24/65 23/23/66 29/29/67 30/30/68
f 19/19/69 24/24/70 30/30/71 25/25/72
f 26/26/73 25/25/74 4/4/75 3/3/76
f 27/27/77 26/26/78 3/3/79 2/1/80
f 28/28/81 27/27/82 2/1/83 1/2/84
f 29/29/85 28/28/86 1/2/87 6/6/88
f 30/30/89 29/29/90 6/6/91 5/5/92
f 25/25/93 30/30/94 5/5/95 4/4/96
f 32/32/97 31/31/98 7/7/99 8/8/100
f 33/33/101 32/32/102 8/8/103 9/9/104
f 34/34/105 33/33/106 9/9/107 10/10/108
f 35/35/109 34/34/110 10/10/111 11/11/112
f 36/36/113 35/35/114 11/11/115 12/12/116
f 31/31/117 36/36/118 12/12/119 7/7/120
f 38/38/121 37/37/122 31/31/123 32/32/124
f 39/39/125 38/38/126 32/32/127 33/33/128
f 40/40/129 39/39/130 33/33/131 34/34/132
f 41/41/133 40/40/134 34/34/135 35/35/136
f 42/42/137 41/41/138 35/35/139 36/36/140
f 37/37/141 42/42/142 36/36/143 31/31/144
f 43/43/145 44/44/146 58/47/147 59/49/148
f 44/44/149 45/51/150 57/53/151 58/47/152
f 45/51/153 46/55/154 56/74/155 57/53/156
f 46/55/157 47/75/158 61/76/159 56/74/160
f 47/75/161 48/77/162 60/78/163 61/76/164
f 48/77/165 43/43/166 59/49/167 60/78/168
f 44/44/169 43/43/170 49/79/171
f 45/51/172 44/44/173 49/79/174
f 46/55/175 45/51/176 49/79/177
f 47/75/178 46/55/179 49/79/180
f 48/77/181 47/75/182 49/79/183
f 43/43/184 48/77/185 49/79/186
f 51/56/187 50/57/188 13/58/189 14/59/190
f 52/60/191 51/56/192 14/59/193 15/61/194
f 53/62/195 52/60/196 15/61/197 16/63/198
f 54/64/199 53/62/200 16/63/201 17/65/202
f 55/66/203 54/64/204 17/65/205 18/67/206
f 50/57/207 55/66/208 18/67/209 13/58/210
f 57/48/211 56/50/212 62/68/213 63/69/214
f 58/45/215 57/48/216 63/69/217 64/70/218
f 59/46/219 58/45/220 64/70/221 65/71/222
f 60/54/223 59/46/224 65/71/225 66/72/226
f 61/52/227 60/54/228 66/72/229 67/73/230
f 56/50/231 61/52/232 67/73/233 62/68/234
f 63/69/235 62/68/236 55/66/237 50/57/238
f 64/70/239 63/69/240 50/57/241 51/56/242
f 65/71/243 64/70/244 51/56/245 52/60/246
f 66/72/247 65/71/248 52/60/249 53/62/250
f 67/73/251 66/72/252 53/62/253 54/64/254
f 62/68/255 67/73/256 54/64/257 55/66/258
