# This file uses meters as units for non-parametric coordinates.

v 188.301613 230.864563 28.514536
v 65.882778 230.864578 28.514538
v 189.629890 178.270157 28.514536
v 64.555271 178.270157 28.514536
v 188.301613 -3.010870 -1.563374
v 188.301613 -3.010870 28.514536
v 65.882786 -3.010870 28.514536
v 65.882786 -3.010870 -1.563374
v 191.229011 -13.967069 -1.563374
v 62.956150 -13.967069 -1.563374
v 64.343079 -13.967069 34.106255
v 191.229011 -13.967069 35.170994
v 191.229011 -7.492758 35.170994
v 191.229011 -5.008432 -1.563374
v 62.956150 -7.153631 35.170994
v 62.956150 -5.008432 -1.563374
v 186.272957 -13.967069 15.439089
v 67.912205 -13.967069 15.439089
v 67.912205 -13.967069 30.314310
v 186.272957 -13.967069 30.314310
v 179.501106 178.270157 28.514536
v 74.684055 178.270157 22.997147
v 75.172337 224.070572 28.514536
v 178.399422 222.736008 28.514536
v 178.399422 1.386190 28.514536
v 75.785740 0.136015 28.514536
v 179.501106 178.270157 -1.563374
v 74.684055 178.270157 -1.563374
v 75.785740 222.736008 -1.563374
v 178.399422 222.736008 -1.563374
v 178.399422 1.386190 -1.563374
v 75.785740 1.386190 -1.563374
v 71.902805 178.270157 28.514536
v 74.684055 197.310303 28.514536
v 74.684055 156.601242 28.514536
v 86.126118 -5.241373 32.691555
v 62.956150 -10.870905 35.170994
v 71.743687 -13.967069 35.170994
v 62.956150 -13.967069 29.606302
v 189.629890 178.270157 -1.563374
v 188.301613 230.864563 -1.563374
v 65.882782 230.864578 -1.563374
v 64.555271 178.270157 -1.563374
vt 0.059061 0.327183
vt 0.059061 0.327183
vt 0.059061 0.327183
vt 0.059061 0.327183
vt 0.059061 0.327183
vt 0.059061 0.327183
vt 0.059061 0.327183
vt 0.059061 0.327183
vt 0.059061 0.327183
vt 0.059061 0.327183
vt 0.059061 0.327183
vt 0.059061 0.327183
vt 0.059061 0.327183
vt 0.059061 0.327183
vt 0.059061 0.327183
vt 0.059061 0.327183
vt 0.059061 0.327183
vt 0.059061 0.327183
vt 0.059061 0.327183
vt 0.059061 0.327183
vt 0.059061 0.327183
vt 0.059061 0.327183
vt 0.059061 0.327183
vt 0.059061 0.327183
vt 0.059061 0.327183
vt 0.059061 0.327183
vt 0.059061 0.327183
vt 0.059061 0.327183
vt 0.059061 0.327183
vt 0.059061 0.327183
vt 0.059061 0.327183
vt 0.059061 0.327183
vt 0.059061 0.327183
vt 0.059061 0.327183
vt 0.059061 0.327183
vt 0.059061 0.327183
vt 0.059061 0.327183
vt 0.059061 0.327183
vt 0.059061 0.327183
vt 0.059061 0.327183
vt 0.059061 0.327183
vt 0.059061 0.327183
vt 0.059061 0.327183
vt 0.059061 0.327183
vt 0.059061 0.327183
vt 0.059061 0.327183
vt 0.059061 0.327183
vt 0.059061 0.327183
vt 0.059061 0.327183
vt 0.059067 0.327179
vt 0.059062 0.327179
vt 0.059062 0.327171
vt 0.059067 0.327171
vt 0.059067 0.327179
vt 0.059062 0.327179
vt 0.059062 0.327171
vt 0.059067 0.327171
vt 0.059067 0.327179
vt 0.059062 0.327179
vt 0.059062 0.327171
vt 0.059067 0.327171
vt 0.059067 0.327179
vt 0.059062 0.327179
vt 0.059062 0.327171
vt 0.059067 0.327171
vt 0.059067 0.327179
vt 0.059062 0.327179
vt 0.059062 0.327171
vt 0.059067 0.327171
vt 0.059441 0.327200
vt 0.058583 0.327200
vt 0.058508 0.327050
vt 0.059517 0.327050
vt 0.059441 0.327200
vt 0.058583 0.327200
vt 0.058508 0.327147
vt 0.059517 0.327147
vn 1.000000 0.000000 0.000000
vn 1.000000 0.000000 0.000000
vn 1.000000 0.000000 0.000000
vn 1.000000 0.000000 0.000000
vn -0.409031 -0.571073 0.711737
vn -0.409031 -0.571073 0.711737
vn -0.409031 -0.571073 0.711737
vn -0.481353 -0.580629 0.656635
vn -0.481353 -0.580629 0.656635
vn -0.481353 -0.580629 0.656635
vn 0.000000 0.000000 -1.000000
vn 0.000000 0.000000 -1.000000
vn 0.000000 0.000000 -1.000000
vn 0.000000 0.000000 -1.000000
vn 0.718256 0.694370 0.044247
vn 0.718256 0.694370 0.044247
vn 0.718256 0.694370 0.044247
vn 0.718256 0.694370 0.044247
vn 0.000000 0.871071 0.491157
vn 0.000000 0.871071 0.491157
vn 0.000000 0.871071 0.491157
vn -0.701726 0.711371 0.039143
vn -0.701726 0.711371 0.039143
vn -0.701726 0.711371 0.039143
vn -0.701726 0.711371 0.039143
vn 0.000000 0.000000 -1.000000
vn 0.000000 0.000000 -1.000000
vn 0.000000 0.000000 -1.000000
vn 0.000000 0.000000 -1.000000
vn 0.000000 -1.000000 -0.000053
vn 0.000000 -1.000000 -0.000053
vn 0.000000 -1.000000 -0.000053
vn 0.000000 -1.000000 -0.000053
vn 0.000000 -1.000000 0.000000
vn 0.000000 -1.000000 0.000000
vn 0.000000 -1.000000 0.000000
vn 0.000000 -1.000000 0.000000
vn 0.682425 -0.203455 0.702070
vn 0.682425 -0.203455 0.702070
vn 0.682425 -0.203455 0.702070
vn 0.000000 0.000000 1.000000
vn 0.000000 0.000000 1.000000
vn 0.000000 0.000000 1.000000
vn 0.000000 0.000000 1.000000
vn 0.000000 0.000000 1.000000
vn 0.000000 0.000000 1.000000
vn 0.000000 0.000000 1.000000
vn 0.000000 0.000000 1.000000
vn 0.000000 0.000000 1.000000
vn 0.000000 0.000000 1.000000
vn 0.000000 0.000000 1.000000
vn 0.000000 0.000000 1.000000
vn 0.685669 0.179623 0.705404
vn 0.685669 0.179622 0.705404
vn 0.685669 0.179623 0.705404
vn 0.000000 0.000000 1.000000
vn 0.000000 0.000000 1.000000
vn 0.000000 0.000000 1.000000
vn 0.000000 0.000000 1.000000
vn -0.006888 -0.998939 0.045541
vn -0.006888 -0.998939 0.045541
vn -0.006888 -0.998939 0.045541
vn -0.006888 -0.998939 0.045541
vn -0.999855 -0.017054 0.000000
vn -0.999855 -0.017054 0.000000
vn -0.999855 -0.017054 0.000000
vn -0.999855 -0.017054 0.000000
vn -0.006474 0.999062 0.042820
vn -0.006474 0.999062 0.042820
vn -0.006474 0.999062 0.042820
vn -0.006474 0.999062 0.042820
vn -0.999954 0.009632 0.000000
vn -0.999954 0.009632 0.000000
vn -0.999954 0.009632 0.000000
vn -0.999954 0.009632 0.000000
vn -0.000000 0.000000 1.000000
vn -0.000000 0.000000 1.000000
vn -0.000000 0.000000 1.000000
vn -0.000000 0.000000 1.000000
vn -0.000000 0.000000 1.000000
vn 0.999524 -0.012883 0.028019
vn 0.999524 -0.012883 0.028019
vn 0.999524 -0.012883 0.028019
vn 0.999524 -0.012883 0.028019
vn 0.999524 -0.012883 0.028019
vn 0.999920 0.009933 0.007804
vn 0.999920 0.009933 0.007804
vn 0.999920 0.009933 0.007804
vn 0.999920 0.009933 0.007804
vn 0.999920 0.009933 0.007804
vn -0.000000 -0.000000 1.000000
vn -0.000000 -0.000000 1.000000
vn -0.000000 -0.000000 1.000000
vn -0.000000 -0.000000 1.000000
vn -0.000000 -0.000000 1.000000
vn -0.276792 0.296317 0.914102
vn 0.000002 0.000002 1.000000
vn 0.000002 0.000002 1.000000
vn -0.276792 0.296317 0.914102
vn -0.000000 0.000002 1.000000
vn -0.000000 0.000002 1.000000
vn -0.000000 0.000002 1.000000
vn -0.276792 0.296317 0.914102
vn -0.000000 0.000002 1.000000
vn 0.000002 0.000002 1.000000
vn 0.000000 -1.000000 -0.000033
vn 0.000000 -1.000000 -0.000033
vn 0.000000 -1.000000 -0.000033
vn 0.000000 -1.000000 -0.000033
vn 0.000000 -1.000000 -0.000033
vn 0.000000 -1.000000 -0.000004
vn 0.000000 -1.000000 -0.000004
vn 0.000000 -1.000000 -0.000004
vn 0.000000 -1.000000 -0.000004
vn 0.000000 -1.000000 -0.000004
vn -1.000000 0.000008 0.000000
vn -1.000000 0.000008 0.000000
vn -1.000000 0.000008 0.000000
vn -1.000000 0.000008 0.000000
vn -1.000000 0.000008 0.000000
vn 0.050736 0.930610 0.362478
vn 0.050736 0.930610 0.362478
vn 0.050736 0.930610 0.362478
vn 0.000000 0.871071 0.491157
vn -0.011315 0.927048 0.374773
vn 0.000000 0.871071 0.491157
vn 0.999973 -0.007327 0.000000
vn 0.999973 -0.007327 0.000000
vn 0.999973 -0.007327 0.000000
vn 0.999973 -0.007327 0.000000
vn 0.999681 0.025247 0.000000
vn 0.999681 0.025247 0.000000
vn 0.999681 0.025247 0.000000
vn 0.999681 0.025247 0.000000
vn 0.000000 1.000000 -0.000000
vn 0.000000 1.000000 -0.000000
vn 0.000000 1.000000 -0.000000
vn 0.000000 1.000000 -0.000000
vn -0.999973 -0.007323 0.000000
vn -0.999973 -0.007323 0.000000
vn -0.999973 -0.007323 0.000000
vn -0.999973 -0.007323 0.000000
vn -0.999682 0.025232 -0.000000
vn -0.999682 0.025232 -0.000000
vn -0.999682 0.025232 -0.000000
vn -0.999682 0.025232 -0.000000
vn 0.000000 0.000000 -1.000000
vn 0.000000 0.000000 -1.000000
vn 0.000000 0.000000 -1.000000
vn 0.000000 0.000000 -1.000000
vn -0.000000 0.000000 -1.000000
vn -0.000000 0.000000 -1.000000
vn -0.000000 0.000000 -1.000000
vn -0.000000 0.000000 -1.000000
vn 0.000000 0.000000 -1.000000
vn 0.000000 0.000000 -1.000000
vn 0.000000 0.000000 -1.000000
vn 0.000000 0.000000 -1.000000
vn -0.000000 0.000000 -1.000000
vn -0.000000 0.000000 -1.000000
vn -0.000000 0.000000 -1.000000
vn -0.000000 0.000000 -1.000000
vn 0.000000 0.000000 -1.000000
vn 0.000000 0.000000 -1.000000
vn 0.000000 0.000000 -1.000000
vn 0.000000 0.000000 -1.000000
vn 0.000000 0.000000 -1.000000
vn 0.000000 0.000000 -1.000000
vn 0.000000 0.000000 -1.000000
vn 0.000000 0.000000 -1.000000
s off
f 9/9/1 14/10/2 13/11/3 12/12/4
f 37/13/5 11/14/6 38/15/7
f 11/14/8 37/13/9 39/16/10
f 14/17/11 9/18/12 10/19/13 16/20/14
f 6/6/15 13/11/16 14/10/17 5/5/18
f 7/7/19 36/21/20 6/6/21
f 8/8/22 16/22/23 15/23/24 7/7/25
f 5/24/26 14/17/27 16/20/28 8/25/29
f 9/18/30 17/26/31 18/27/32 10/19/33
f 12/28/34 20/29/35 17/26/36 9/18/37
f 33/31/38 22/32/39 34/33/40
f 2/2/41 23/34/42 24/35/43 1/1/44
f 1/1/45 24/35/46 21/36/47 3/4/48
f 6/6/49 25/37/50 26/38/51 7/7/52
f 35/39/53 22/32/54 33/31/55
f 3/4/56 21/36/57 25/37/58 6/6/59
f 23/34/60 29/40/61 30/41/62 24/35/63
f 30/41/64 27/42/65 21/36/66 24/35/67
f 31/43/68 32/44/69 26/38/70 25/37/71
f 27/42/72 31/43/73 25/37/74 21/36/75
f 4/3/76 33/31/77 34/33/78 23/34/79 2/2/80
f 22/32/81 28/45/82 29/40/83 23/34/84 34/33/85
f 26/38/86 32/44/87 28/45/88 22/32/89 35/39/90
f 7/7/91 26/38/92 35/39/93 33/31/94 4/3/95
f 36/21/96 12/12/97 13/11/98
f 36/21/99 15/23/100 37/13/101 38/15/102
f 36/21/103 38/15/104 12/12/105
f 11/46/106 19/30/107 20/29/108 12/28/109 38/47/110
f 10/19/111 18/27/112 19/30/113 11/46/114 39/48/115
f 37/13/116 15/23/117 16/22/118 10/49/119 39/16/120
f 36/21/121 13/11/122 6/6/123
f 7/7/124 15/23/125 36/21/126
f 3/50/127 6/51/128 5/52/129 40/53/130
f 1/54/131 3/55/132 40/56/133 41/57/134
f 2/58/135 1/59/136 41/60/137 42/61/138
f 7/62/139 4/63/140 43/64/141 8/65/142
f 4/66/143 2/67/144 42/68/145 43/69/146
f 30/70/147 29/71/148 42/72/149 41/73/150
f 32/74/151 31/75/152 5/76/153 8/77/154
f 5/76/155 31/43/156 27/42/157 40/53/158
f 43/69/159 28/45/160 32/74/161 8/65/162
f 43/69/163 42/72/164 29/40/165 28/45/166
f 40/53/167 27/42/168 30/70/169 41/57/170
