# This file uses meters as units for non-parametric coordinates.

v -17.340088 -28.624859 262.901398
v -17.340088 -28.624859 13.344311
v -16.816212 -16.301933 262.901398
v -16.816212 -16.301933 13.344311
v -8.670044 -28.624859 250.000000
v -8.670044 -104.278496 250.000000
v -8.670044 -28.624859 13.344311
v -8.670044 -104.278496 13.344311
v 0.000000 -104.278496 250.000000
v 0.000000 -28.624859 250.000000
v 0.000000 -28.624859 262.901398
v 0.000000 -16.301933 262.901398
v 0.000000 -16.301933 13.344215
v 0.000000 -104.278496 13.344311
vt 0.926952 0.505010
vt 0.926952 0.505010
vt 0.926952 0.505010
vt 0.926952 0.505010
vt 0.926952 0.505010
vt 0.926952 0.505010
vt 0.926952 0.505010
vt 0.926952 0.505010
vt 0.926952 0.505010
vt 0.926952 0.505010
vt 0.926952 0.505010
vt 0.926952 0.505010
vt 0.926952 0.505010
vt 0.926952 0.505010
vt 0.926952 0.505010
vt 0.926952 0.505010
vt 0.926952 0.505010
vt 0.926952 0.505010
vt 0.926952 0.505010
vt 0.926952 0.505010
vt 0.926952 0.505010
vt 0.926952 0.505010
vt 0.926952 0.505010
vt 0.926952 0.505010
vt 0.926952 0.505010
vt 0.926952 0.505010
vt 0.926952 0.505010
vt 0.926952 0.505010
vt 0.926952 0.505010
vt 0.926952 0.505010
vn -1.000000 0.000000 0.000000
vn -1.000000 0.000000 0.000000
vn -1.000000 0.000000 0.000000
vn -1.000000 0.000000 0.000000
vn -0.998890 0.000000 -0.047100
vn -0.998890 0.000000 -0.047100
vn -0.998890 0.000000 -0.047100
vn -0.998890 0.000000 -0.047100
vn 0.000000 -1.000000 0.000000
vn 0.000000 -1.000000 0.000000
vn 0.000000 -1.000000 0.000000
vn 0.000000 -1.000000 0.000000
vn 0.000000 1.000000 0.000000
vn 0.000000 1.000000 0.000000
vn 0.000000 1.000000 0.000000
vn 0.000000 1.000000 0.000000
vn 0.000000 0.000000 1.000000
vn 0.000000 0.000000 1.000000
vn 0.000000 0.000000 1.000000
vn 0.000000 0.000000 1.000000
vn 0.000000 -1.000000 0.000000
vn 0.000000 -1.000000 0.000000
vn 0.000000 -1.000000 0.000000
vn 0.000000 -1.000000 0.000000
vn 0.000000 0.000000 1.000000
vn 0.000000 0.000000 1.000000
vn 0.011759 0.000000 0.999931
vn 0.011759 0.000000 0.999931
vn -0.000005 -0.000001 -1.000000
vn -0.000005 -0.000001 -1.000000
vn -0.000005 -0.000001 -1.000000
vn -0.000005 -0.000001 -1.000000
vn -0.000004 -0.000002 -1.000000
vn -0.000004 -0.000002 -1.000000
vn -0.000004 -0.000002 -1.000000
vn -0.000004 -0.000002 -1.000000
s off
f 4/1/1 2/2/2 1/3/3 3/4/4
f 5/5/5 7/6/6 8/7/7 6/8/8
f 1/9/9 2/10/10 7/6/11 5/5/12
f 3/11/13 12/12/14 13/13/15 4/14/16
f 11/15/17 12/16/18 3/17/19 1/18/20
f 10/19/21 11/20/22 1/21/23 5/22/24
f 9/23/25 10/19/26 5/22/27 6/24/28
f 8/25/29 7/26/30 13/27/31 14/28/32
f 13/27/33 7/26/34 2/29/35 4/30/36
