# This file uses meters as units for non-parametric coordinates.

v 0.000000 290.000000 20.000044
v 0.000000 -10.000001 20.000002
v 249.999969 290.000000 20.000010
v 249.999969 -10.000001 19.999998
v 73.596512 228.416718 20.000008
v 73.596909 0.000000 20.000002
v 180.098373 0.000000 20.000000
v 179.931519 228.416718 20.000011
v 0.000000 -10.000001 13.344213
v 249.999969 -10.000001 13.344211
v 0.000000 -50.000008 13.344213
v 249.999969 -50.000008 13.344211
v 0.000000 -104.278496 13.344213
v 249.999969 -104.278496 13.344211
v 126.734673 -10.000001 20.000000
v 124.088371 -12.503466 13.344212
v 103.639801 -52.746952 13.344212
v -0.000024 290.000000 0.000003
v 0.000000 0.000000 -0.000006
v 249.999985 290.000000 0.000006
v 250.000015 0.000000 -0.000009
v 73.596909 0.000000 -0.000007
v 180.098373 -0.000000 -0.000008
v 179.931519 228.416718 -0.000001
v 73.596512 228.416718 -0.000001
vt 0.668874 0.798997
vt 0.506990 0.798997
vt 0.418290 0.445712
vt 0.418290 0.445712
vt 0.620346 0.953920
vt 0.668874 0.992842
vt 0.418290 0.445712
vt 0.418290 0.445712
vt 0.418290 0.445712
vt 0.418290 0.445712
vt 0.506990 0.992842
vt 0.620345 0.804910
vt 0.550604 0.804910
vt 0.550605 0.953920
vt 0.618020 0.798997
vt 0.418290 0.445712
vt 0.418290 0.445712
vt 0.168874 0.992842
vt 0.127116 0.941819
vt 0.127116 0.749990
vt 0.168874 0.750000
vt 0.006990 0.992842
vt 0.006990 0.750000
vt 0.044797 0.749990
vt 0.044797 0.941819
vt 0.418290 0.445712
vt 0.418290 0.445712
vt 0.418290 0.445712
vn 0.000000 -0.000000 1.000000
vn 0.000000 -0.000000 1.000000
vn 0.000000 -0.000000 1.000000
vn 0.000000 -0.000000 1.000000
vn 0.000000 -0.000000 1.000000
vn 0.000000 -0.000000 1.000000
vn 0.000000 -0.000000 1.000000
vn 0.000000 -0.000000 1.000000
vn 0.000000 -0.000000 1.000000
vn 0.000000 -0.000000 1.000000
vn 0.000000 -0.000000 1.000000
vn 0.000000 -0.000000 1.000000
vn 0.000000 -0.000000 1.000000
vn 0.000000 -0.000000 1.000000
vn 0.000000 -0.000000 1.000000
vn 0.000000 -0.000000 1.000000
vn 0.000000 -0.000000 1.000000
vn 0.000000 -0.000000 1.000000
vn 0.000000 -0.000000 1.000000
vn 0.009877 -0.983078 0.182921
vn 0.009877 -0.983078 0.182921
vn 0.009877 -0.983078 0.182921
vn 0.009877 -0.983078 0.182921
vn -0.000000 -0.000000 1.000000
vn -0.000000 -0.000000 1.000000
vn -0.000000 -0.000000 1.000000
vn -0.000000 -0.000000 1.000000
vn 0.000000 0.000000 1.000000
vn 0.000000 0.000000 1.000000
vn 0.000000 0.000000 1.000000
vn 0.000000 0.000000 1.000000
vn 0.000000 -0.000000 1.000000
vn 0.000000 -0.000000 1.000000
vn 0.000000 -0.000000 1.000000
vn -0.009805 -0.982368 0.186700
vn -0.009805 -0.982368 0.186700
vn -0.009805 -0.982368 0.186700
vn -0.009805 -0.982368 0.186700
vn 0.000000 -0.000000 1.000000
vn 0.000000 -0.000000 1.000000
vn 0.000000 -0.000000 1.000000
vn 0.000000 -0.000000 1.000000
vn 0.000000 0.000000 1.000000
vn 0.000000 0.000000 1.000000
vn 0.000000 0.000000 1.000000
vn 0.000000 -0.000000 1.000000
vn 0.000000 -0.000000 1.000000
vn 0.000000 -0.000000 1.000000
vn -0.000000 0.000000 -1.000000
vn -0.000000 0.000000 -1.000000
vn -0.000000 0.000000 -1.000000
vn -0.000000 0.000000 -1.000000
vn -0.000000 0.000000 -1.000000
vn -0.000000 0.000000 -1.000000
vn 0.000000 0.000000 -1.000000
vn 0.000000 0.000000 -1.000000
vn 0.000000 0.000000 -1.000000
vn 0.000000 0.000000 -1.000000
vn 0.000000 0.000000 -1.000000
vn -0.000000 0.000000 -1.000000
vn 0.000000 0.000000 -1.000000
vn 0.000000 0.000000 -1.000000
vn 0.000000 0.000000 -1.000000
vn 0.000000 0.000000 -1.000000
s off
f 1/11/1 2/2/2 5/14/3
f 5/14/4 2/2/5 6/13/6
f 7/12/7 15/15/8 4/1/9
f 3/6/10 8/5/11 4/1/12
f 4/1/13 8/5/14 7/12/15
f 3/6/16 1/11/17 5/14/18 8/5/19
f 4/3/20 15/4/21 16/7/22 10/8/23
f 10/8/24 16/7/25 17/9/26 12/10/27
f 12/10/28 17/9/29 13/16/30 14/17/31
f 2/2/32 15/15/33 6/13/34
f 16/7/35 15/4/36 2/26/37 9/27/38
f 17/9/39 16/7/40 9/27/41 11/28/42
f 13/16/43 17/9/44 11/28/45
f 6/13/46 15/15/47 7/12/48
f 18/18/49 25/19/50 19/21/51
f 19/21/52 25/19/53 22/20/54
f 20/22/55 21/23/56 24/25/57
f 24/25/58 21/23/59 23/24/60
f 20/22/61 24/25/62 25/19/63 18/18/64
