# This file uses meters as units for non-parametric coordinates.

v 26.390648 223.339844 263.836670
v 17.988968 223.263550 270.001221
v 16.955566 238.320923 270.001221
v 26.692200 238.264465 263.836670
v 17.682457 238.772583 254.299927
v 26.605225 223.312378 246.136475
v 26.605225 238.772583 246.136475
v 18.578529 223.312378 254.299927
v 250.000000 244.825745 264.630127
v 250.000000 244.671631 270.001221
v 250.000000 261.053467 264.328003
v 9.394169 244.573975 260.604858
v 0.000000 235.159302 270.001221
v 250.000000 271.783447 20.000076
v 250.000000 271.783447 270.001221
v 9.394169 244.573975 270.001221
v 11.567020 246.530151 270.001221
v 11.567020 246.440125 258.433533
v 250.000000 260.412598 20.000076
v 250.000000 260.412598 270.001221
v 250.000000 268.231201 270.001221
v 250.000000 268.231201 20.000076
v 6.163502 223.339844 245.623779
v 0.000000 223.263550 254.025269
v 0.000000 238.264465 254.251099
v 6.163454 238.264465 245.321655
v 5.369473 244.825745 20.000076
v 0.000015 244.671631 20.000076
v 5.670977 261.053467 20.000076
v 0.000000 271.783447 20.000076
v 0.000000 244.573975 260.604858
v 0.000000 246.530151 258.433533
v 0.000000 260.412598 20.000076
v 0.000000 268.231201 20.000076
v 0.000000 237.677002 270.001221
v 0.000000 237.677002 260.604858
v 0.218123 252.609253 275.418091
v 0.218123 252.609253 269.781494
v 0.000000 235.160828 275.201416
v 8.524132 237.677002 260.604858
v -5.418682 252.609253 275.418091
v -5.200577 235.160828 275.201416
v 8.524132 237.677002 270.001221
v -5.418682 252.609253 269.781494
v -5.200577 235.160828 270.001221
v 250.000000 260.412598 270.001221
vt 0.927614 0.504663
vt 0.927614 0.504663
vt 0.927614 0.504663
vt 0.927614 0.504663
vt 0.927614 0.504663
vt 0.927614 0.504663
vt 0.927614 0.504663
vt 0.927614 0.504663
vt 0.927614 0.504663
vt 0.927614 0.504663
vt 0.927614 0.504663
vt 0.927614 0.504663
vt 0.927614 0.504663
vt 0.927614 0.504663
vt 0.927614 0.504663
vt 0.927614 0.504663
vt 0.927614 0.504663
vt 0.927614 0.504663
vt 0.927614 0.504663
vt 0.927614 0.504663
vt 0.927614 0.504663
vt 0.906588 0.504814
vt 0.673463 0.547365
vt 0.679522 0.547365
vt 0.679522 0.749213
vt 0.514748 0.749213
vt 0.673463 0.544022
vt 0.679522 0.544023
vt 0.905811 0.504758
vt 0.905913 0.504644
vt 0.906615 0.505242
vt 0.906615 0.505242
vt 0.906615 0.505242
vt 0.906615 0.505242
vt 0.503675 0.554865
vt 0.503675 0.554865
vt 0.503675 0.554865
vt 0.503675 0.554865
vt 0.927614 0.504663
vt 0.927614 0.504663
vt 0.927614 0.504663
vt 0.927614 0.504663
vt 0.927614 0.504663
vt 0.927614 0.504663
vt 0.927614 0.504663
vt 0.927614 0.504663
vt 0.927614 0.504663
vt 0.927614 0.504663
vt 0.927614 0.504663
vt 0.927614 0.504663
vt 0.927614 0.504663
vt 0.927614 0.504663
vt 0.927614 0.504663
vt 0.927614 0.504663
vt 0.927614 0.504663
vt 0.927614 0.504663
vt 0.927614 0.504663
vt 0.927614 0.504663
vt 0.927614 0.504663
vt 0.514748 0.749213
vt 0.679522 0.749213
vt 0.679522 0.547365
vt 0.673463 0.547365
vt 0.679522 0.544023
vt 0.673463 0.544022
vt 0.905913 0.504644
vt 0.905811 0.504758
vt 0.906588 0.504814
vt 0.906615 0.505242
vt 0.906615 0.505242
vt 0.906615 0.505242
vt 0.906615 0.505242
vt 0.503675 0.554865
vt 0.503675 0.554865
vt 0.503675 0.554865
vt 0.503675 0.554865
vt 0.907915 0.503510
vt 0.907915 0.503510
vt 0.907915 0.503510
vt 0.907915 0.503510
vt 0.907915 0.503510
vt 0.907915 0.503510
vt 0.907915 0.503510
vt 0.905927 0.504671
vt 0.905927 0.504671
vt 0.905897 0.504667
vt 0.905897 0.504667
vt 0.488440 0.401409
vt 0.489100 0.399446
vt 0.488641 0.401213
vt 0.905927 0.504671
vt 0.905927 0.504671
vt 0.905897 0.504667
vt 0.905897 0.504667
vt 0.907915 0.503510
vt 0.907915 0.503510
vt 0.907915 0.503510
vt 0.488858 0.400376
vt 0.907915 0.503510
vt 0.907915 0.503510
vt 0.907915 0.503510
vt 0.907915 0.503510
vt 0.927614 0.504663
vt 0.927614 0.504663
vn 0.025356 0.999253 0.029171
vn 0.025356 0.999253 0.029171
vn 0.025356 0.999253 0.029171
vn 0.025356 0.999253 0.029171
vn 0.999945 -0.009922 0.003467
vn 0.999945 -0.009922 0.003467
vn 0.999945 -0.009922 0.003467
vn 0.999945 -0.009922 0.003467
vn -0.997092 -0.063048 -0.042809
vn -0.997092 -0.063048 -0.042809
vn -0.997092 -0.063048 -0.042809
vn -0.997092 -0.063048 -0.042809
vn 0.004223 -0.999991 -0.000530
vn 0.004223 -0.999991 -0.000530
vn 0.004223 -0.999991 -0.000530
vn 0.004223 -0.999991 -0.000530
vn 0.093538 -0.994448 0.048203
vn 0.093538 -0.994448 0.048203
vn 0.093538 -0.994448 0.048203
vn 0.093538 -0.994448 0.048203
vn 0.003841 -0.009716 -0.999945
vn 0.003841 -0.009716 -0.999946
vn 0.003841 -0.009716 -0.999945
vn 0.003841 -0.009716 -0.999946
vn -0.105676 0.994401 -0.000342
vn -0.105676 0.994401 -0.000342
vn -0.105676 0.994401 -0.000342
vn -0.105676 0.994401 -0.000342
vn -0.661444 0.749988 -0.003222
vn -0.661444 0.749988 -0.003222
vn -0.661444 0.749988 -0.003222
vn -0.661444 0.749988 -0.003222
vn 0.100502 -0.994937 -0.000000
vn 0.100502 -0.994937 -0.000000
vn 0.100502 -0.994937 -0.000000
vn 1.000000 0.000000 -0.000000
vn 1.000000 0.000000 -0.000000
vn 1.000000 0.000000 -0.000000
vn 1.000000 0.000000 -0.000000
vn 1.000000 0.000000 -0.000000
vn 1.000000 0.000000 -0.000000
vn 1.000000 0.000000 -0.000000
vn 1.000000 0.000000 -0.000000
vn -0.026062 0.999396 -0.023000
vn -0.026062 0.999396 -0.023000
vn -0.026062 0.999396 -0.023000
vn -0.026062 0.999396 -0.023000
vn 0.032571 -0.009915 -0.999420
vn 0.032571 -0.009915 -0.999420
vn 0.032571 -0.009915 -0.999420
vn 0.032571 -0.009915 -0.999420
vn -0.008790 -0.007684 0.999932
vn -0.008790 -0.007684 0.999932
vn -0.008790 -0.007684 0.999932
vn -0.008790 -0.007684 0.999932
vn 0.000622 -0.999991 -0.004111
vn 0.000622 -0.999991 -0.004111
vn 0.000622 -0.999991 -0.004111
vn 0.000622 -0.999991 -0.004111
vn 0.999946 -0.009714 -0.003806
vn 0.999946 -0.009714 -0.003806
vn 0.999946 -0.009714 -0.003806
vn 0.999946 -0.009714 -0.003806
vn -0.047615 -0.994552 -0.092729
vn -0.047615 -0.994552 -0.092729
vn -0.047615 -0.994552 -0.092729
vn -0.047615 -0.994552 -0.092729
vn 0.000342 0.994401 0.105676
vn 0.000342 0.994401 0.105676
vn 0.000342 0.994401 0.105676
vn 0.000342 0.994401 0.105676
vn 0.003221 0.749988 0.661444
vn 0.003221 0.749988 0.661444
vn 0.003221 0.749988 0.661444
vn 0.003221 0.749988 0.661444
vn 0.000000 -0.994937 -0.100502
vn 0.000000 -0.994937 -0.100502
vn 0.000000 -0.994937 -0.100502
vn 0.000000 0.000000 -1.000000
vn 0.000000 0.000000 -1.000000
vn 0.000000 0.000000 -1.000000
vn 0.000000 0.000000 -1.000000
vn 0.000000 0.000000 -1.000000
vn 0.000000 0.000000 -1.000000
vn 0.000000 0.000000 -1.000000
vn 0.000000 0.000000 -1.000000
vn 1.000000 0.000000 0.000000
vn 1.000000 0.000000 0.000000
vn 1.000000 0.000000 0.000000
vn 0.000000 -0.012499 0.999922
vn 0.000000 -0.012499 0.999922
vn 0.000000 -0.012499 0.999922
vn 0.000000 -0.012499 0.999922
vn 0.000000 -0.000004 1.000000
vn 0.000000 -0.000004 1.000000
vn 0.000000 -0.000004 1.000000
vn 0.000000 -0.000004 1.000000
vn 0.000000 1.000000 0.000000
vn 0.000000 1.000000 0.000000
vn 0.000000 1.000000 0.000000
vn 0.000000 1.000000 0.000000
vn -0.992139 0.125144 0.000000
vn -0.992139 0.125144 0.000000
vn -0.992139 0.125144 0.000000
vn -0.992139 0.125144 0.000000
vn 0.000000 1.000000 0.000000
vn 0.000000 1.000000 0.000000
vn 0.000000 1.000000 0.000000
vn -0.999922 -0.012500 0.000000
vn -0.999922 -0.012500 0.000000
vn -0.999922 -0.012500 0.000000
vn -0.999922 -0.012500 0.000000
vn 0.003128 -0.013470 -0.999904
vn 0.003128 -0.013470 -0.999904
vn 0.003128 -0.013470 -0.999904
vn 0.003128 -0.013470 -0.999904
vn 0.000000 1.000000 0.000000
vn 0.000000 1.000000 0.000000
vn 0.000000 1.000000 0.000000
vn -0.000000 0.000000 -1.000000
vn -0.000000 0.000000 -1.000000
vn -0.000000 0.000000 -1.000000
vn 0.999904 -0.013471 -0.003127
vn 0.999904 -0.013471 -0.003127
vn 0.999904 -0.013471 -0.003127
vn 0.999904 -0.013471 -0.003127
vn -0.000000 0.000000 1.000000
vn -0.000000 0.000000 1.000000
vn -0.000000 0.000000 1.000000
vn -0.000000 0.000000 1.000000
s off
f 5/3/1 3/4/2 4/5/3 7/6/4
f 1/7/5 6/8/6 7/9/7 4/10/8
f 8/2/9 2/11/10 3/4/11 5/3/12
f 6/1/13 1/12/14 2/13/15 8/2/16
f 10/21/17 2/18/18 1/19/19 9/20/20
f 9/16/21 1/14/22 4/15/23 11/17/24
f 14/26/25 18/23/26 17/24/27 15/25/28
f 18/23/29 12/27/30 16/28/31 17/24/32
f 20/30/33 13/22/34 19/29/35
f 20/31/36 19/32/37 22/33/38 21/34/39
f 21/35/40 22/36/41 14/37/42 15/38/43
f 5/39/44 7/40/45 26/41/46 25/42/47
f 23/43/48 26/44/49 7/45/50 6/46/51
f 8/47/52 5/39/53 25/42/54 24/48/55
f 6/49/56 8/47/57 24/50/58 23/51/59
f 27/52/60 29/53/61 26/54/62 23/55/63
f 24/57/64 28/58/65 27/59/66 23/56/67
f 14/60/68 30/61/69 32/62/70 18/63/71
f 18/63/72 32/62/73 31/64/74 12/65/75
f 33/66/76 19/67/77 13/68/78
f 33/69/79 34/70/80 22/71/81 19/72/82
f 34/73/83 30/74/84 14/75/85 22/76/86
f 35/80/87 39/79/88 13/101/89
f 37/78/90 41/81/91 42/82/92 39/83/93
f 40/84/94 12/85/95 31/86/96 36/87/97
f 40/88/98 36/89/99 35/98/100 43/90/101
f 43/91/102 16/92/103 12/93/104 40/94/105
f 38/77/106 41/81/107 37/78/108
f 41/81/109 44/95/110 45/99/111 42/100/112
f 38/77/113 35/96/114 45/97/115 44/95/116
f 38/77/117 44/95/118 41/81/119
f 45/97/120 35/96/121 13/102/122
f 38/77/123 37/78/124 39/79/125 35/80/126
f 3/4/127 2/11/128 10/103/129 46/104/130
