# This file uses meters as units for non-parametric coordinates.

v 0.000000 -10.000001 20.000002
v 250.000000 -10.000001 20.000048
v 250.000000 290.000000 20.000093
v 0.000000 290.000000 20.000093
v 71.898209 58.742210 20.000002
v 178.101990 58.742210 19.999998
v 71.897720 227.912476 20.000008
v 178.101990 227.912476 20.000011
v -0.000030 290.000000 0.000003
v 0.000000 0.000000 -0.000006
v 249.999969 290.000000 0.000006
v 250.000000 0.000000 -0.000009
v 178.101974 227.912476 -0.000001
v 71.897964 227.912476 -0.000001
v 178.101974 58.742210 -0.000004
v 71.897964 58.742210 -0.000004
vt 0.993010 0.798997
vt 0.831126 0.798997
vt 0.880519 0.844550
vt 0.950260 0.844550
vt 0.950260 0.953701
vt 0.993010 0.992842
vt 0.831126 0.992842
vt 0.880519 0.953701
vt 0.331126 0.992842
vt 0.331126 0.750000
vt 0.380543 0.798646
vt 0.380543 0.940402
vt 0.493010 0.992842
vt 0.450284 0.940402
vt 0.450284 0.798646
vt 0.493010 0.750000
vn -0.000000 -0.000001 1.000000
vn -0.000000 -0.000001 1.000000
vn -0.000000 -0.000001 1.000000
vn -0.000000 -0.000001 1.000000
vn -0.000001 -0.000000 1.000000
vn -0.000001 -0.000000 1.000000
vn -0.000001 -0.000000 1.000000
vn -0.000001 -0.000000 1.000000
vn 0.000001 -0.000000 1.000000
vn 0.000001 -0.000000 1.000000
vn 0.000001 -0.000000 1.000000
vn 0.000001 -0.000000 1.000000
vn -0.000000 0.000000 1.000000
vn -0.000000 0.000000 1.000000
vn -0.000000 0.000000 1.000000
vn -0.000000 0.000000 1.000000
vn 0.000000 0.000000 -1.000000
vn 0.000000 0.000000 -1.000000
vn 0.000000 0.000000 -1.000000
vn 0.000000 0.000000 -1.000000
vn 0.000000 0.000000 -1.000000
vn 0.000000 0.000000 -1.000000
vn -0.000000 0.000000 -1.000000
vn -0.000000 0.000000 -1.000000
vn -0.000000 0.000000 -1.000000
vn -0.000000 0.000000 -1.000000
vn -0.000000 0.000000 -1.000000
vn -0.000000 0.000000 -1.000000
vn -0.000000 0.000000 -1.000000
vn -0.000000 0.000000 -1.000000
vn -0.000000 0.000000 -1.000000
vn -0.000000 0.000000 -1.000000
vn 0.000000 0.000000 -1.000000
vn 0.000000 0.000000 -1.000000
vn 0.000000 0.000000 -1.000000
vn 0.000000 0.000000 -1.000000
s off
f 8/5/1 3/6/2 4/7/3 7/8/4
f 3/6/5 8/5/6 6/4/7 2/1/8
f 4/7/9 1/2/10 5/3/11 7/8/12
f 5/3/13 1/2/14 2/1/15 6/4/16
f 11/9/17 12/10/18 13/12/19
f 13/12/20 12/10/21 15/11/22
f 9/13/23 14/14/24 10/16/25
f 10/16/26 14/14/27 16/15/28
f 15/11/29 12/10/30 10/16/31 16/15/32
f 9/13/33 11/9/34 13/12/35 14/14/36
