# This file uses meters as units for non-parametric coordinates.

v 161.215942 351.740753 -427.517700
v 149.999268 351.740753 -427.779053
v 161.215942 -0.000009 -0.000000
v 150.000000 -0.000009 -0.000000
v 161.215942 70.859291 -0.000000
v 150.000000 70.859291 -0.000000
v 161.215942 0.000033 -427.648376
v 150.000000 0.000037 -427.648376
v 159.932251 149.149048 -121.377365
v 159.932251 166.802460 -150.357910
v 150.641815 156.258163 -141.779831
v 161.215942 138.765182 -127.802261
v 161.215942 152.659378 -154.784409
v 161.215942 117.519012 -74.536575
vt 0.037723 0.256058
vt 0.037723 0.256058
vt 0.037723 0.256058
vt 0.037723 0.256058
vt 0.037723 0.256058
vt 0.037723 0.256058
vt 0.037723 0.256058
vt 0.037723 0.256058
vt 0.037723 0.256058
vt 0.037723 0.256058
vt 0.037723 0.256058
vt 0.037723 0.256058
vt 0.037723 0.256058
vt 0.037723 0.256058
vt 0.037723 0.256058
vt 0.037723 0.256058
vt 0.037723 0.256058
vt 0.037723 0.256058
vt 0.037723 0.256058
vt 0.037723 0.256058
vt 0.037723 0.256058
vt 0.037723 0.256058
vt 0.037723 0.256058
vt 0.037723 0.256058
vt 0.037723 0.256058
vt 0.037723 0.256058
vt 0.037723 0.256058
vt 0.037723 0.256058
vn 0.000000 0.000000 1.000000
vn 0.000000 0.000000 1.000000
vn 0.000000 0.000000 1.000000
vn 0.000000 0.000000 1.000000
vn -0.000006 0.880521 0.474006
vn -0.000006 0.880521 0.474006
vn -0.000006 0.880522 0.474006
vn -1.000000 0.000000 0.000000
vn -1.000000 0.000000 0.000000
vn -1.000000 0.000000 0.000000
vn 1.000000 0.000000 0.000000
vn 0.011651 0.000000 -0.999932
vn 0.011651 0.000000 -0.999932
vn 1.000000 0.000000 0.000000
vn 0.943071 0.291114 0.160844
vn 0.943071 0.291114 0.160844
vn 0.943071 0.291114 0.160844
vn 0.943071 0.291114 0.160844
vn -0.000009 0.815466 0.578806
vn -0.000009 0.815466 0.578806
vn -0.000009 0.815466 0.578806
vn -0.000003 0.815445 0.578834
vn -0.000003 0.815445 0.578834
vn -0.000003 0.815445 0.578834
vn -0.000003 0.815445 0.578834
vn 1.000000 -0.000037 0.000000
vn 1.000000 -0.000037 0.000000
vn 1.000000 -0.000037 0.000000
vn 1.000000 0.000004 0.000000
vn 1.000000 0.000004 0.000000
vn 1.000000 0.000004 0.000000
vn 1.000000 0.000004 0.000000
vn -1.000000 0.000001 0.000000
vn -1.000000 0.000001 0.000000
vn -1.000000 0.000001 0.000000
vn -1.000000 -0.000001 0.000000
vn -1.000000 -0.000001 0.000000
vn -1.000000 -0.000001 0.000000
vn 1.000000 -0.000003 0.000000
vn 1.000000 -0.000003 0.000000
vn 1.000000 -0.000003 0.000000
vn 1.000000 -0.000018 0.000000
vn 1.000000 -0.000018 0.000000
vn 1.000000 -0.000018 0.000000
vn 0.000004 0.815451 0.578826
vn 0.000004 0.815451 0.578826
vn 0.000004 0.815451 0.578827
vn 0.000007 0.815464 0.578808
vn 0.000007 0.815464 0.578808
vn 0.000007 0.815464 0.578808
vn 1.000000 0.000000 0.000000
vn 1.000000 0.000000 0.000000
vn 1.000000 0.000000 0.000000
vn 1.000000 0.000000 0.000000
s off
f 3/1/1 5/4/2 6/3/3 4/2/4
f 9/5/5 10/7/6 11/6/7
f 6/8/8 11/10/9 4/9/10
f 7/11/11 8/27/12 2/28/13 1/14/14
f 10/13/15 9/16/16 12/15/17 13/12/18
f 14/17/19 11/6/20 6/18/21
f 10/7/22 1/20/23 2/19/24 11/6/25
f 12/15/26 9/16/27 14/21/28
f 7/11/29 13/12/30 12/15/31 3/22/32
f 11/10/33 2/24/34 8/23/35
f 11/10/36 8/23/37 4/9/38
f 14/21/39 5/25/40 3/22/41
f 12/15/42 14/21/43 3/22/44
f 14/17/45 9/5/46 11/6/47
f 5/26/48 14/17/49 6/18/50
f 7/11/51 1/14/52 10/13/53 13/12/54
