# This file uses meters as units for non-parametric coordinates.

v 6.485809 10.370727 256.466400
v -8.789093 10.370727 256.466400
v 6.485809 10.370727 243.956848
v -8.788620 10.370727 243.956848
v 5.836670 36.083355 256.260101
v -8.851578 46.879677 255.236847
v -8.753281 36.221024 244.479584
v 5.310791 48.189095 243.956848
v -8.088684 46.879677 256.156616
v -8.789093 117.094101 256.466400
v -9.017990 37.342049 256.466400
v 5.978851 117.476944 244.583069
v -8.859116 117.094101 243.942413
v 6.550018 117.130287 256.268982
v 8.161957 7.402439 241.718201
v -10.464829 7.402439 241.718201
v -10.465195 7.402439 258.704681
v 8.161957 7.402439 258.704681
v 8.161957 -17.052479 241.718201
v -10.464829 -17.052479 241.718201
v -10.465195 -17.052479 258.704681
v 8.161957 -17.052479 258.704681
v -8.724991 195.599472 256.432800
v 7.058105 195.599472 256.432800
v -8.726334 195.599472 243.567169
v 7.058105 195.599472 243.567169
v 7.058105 165.968842 243.567169
v -8.724991 177.771515 256.432800
v -11.549027 198.511261 258.734619
v 9.881775 198.511261 258.734406
v 9.881775 198.511261 241.265381
v -11.549027 198.511261 241.265381
v -12.664444 238.479446 258.734619
v 9.881775 238.479446 258.734406
v 9.881775 239.064590 241.265381
v -12.664444 239.064590 241.265381
vt 0.928063 0.504671
vt 0.928063 0.504671
vt 0.928063 0.504671
vt 0.928063 0.504671
vt 0.928063 0.504671
vt 0.928063 0.504671
vt 0.928063 0.504671
vt 0.928063 0.504671
vt 0.928063 0.504671
vt 0.928063 0.504671
vt 0.928063 0.504671
vt 0.928063 0.504671
vt 0.928063 0.504671
vt 0.928063 0.504671
vt 0.928063 0.504671
vt 0.928063 0.504671
vt 0.928063 0.504671
vt 0.928063 0.504671
vt 0.928063 0.504671
vt 0.928063 0.504671
vt 0.928063 0.504671
vt 0.928048 0.504670
vt 0.928048 0.504670
vt 0.928048 0.504670
vt 0.928048 0.504670
vt 0.928048 0.504670
vt 0.928048 0.504670
vt 0.928063 0.504671
vt 0.928063 0.504671
vt 0.928063 0.504671
vt 0.928063 0.504671
vt 0.928063 0.504671
vt 0.928063 0.504671
vt 0.928063 0.504671
vt 0.928063 0.504671
vt 0.928063 0.504671
vt 0.928063 0.504671
vt 0.927614 0.504663
vt 0.927614 0.504663
vt 0.927614 0.504663
vt 0.927614 0.504663
vt 0.927614 0.504663
vt 0.927614 0.504663
vt 0.927614 0.504663
vt 0.927614 0.504663
vt 0.927614 0.504663
vt 0.927614 0.504663
vt 0.927614 0.504663
vt 0.927614 0.504663
vt 0.927614 0.504663
vt 0.927614 0.504663
vt 0.927614 0.504663
vt 0.927614 0.504663
vt 0.927614 0.504663
vt 0.927614 0.504296
vt 0.927614 0.504296
vt 0.927614 0.504663
vt 0.927614 0.504663
vt 0.927614 0.504663
vt 0.927614 0.504663
vt 0.927614 0.504663
vt 0.927614 0.504663
vn 0.000000 -1.000000 0.000000
vn 0.000000 -1.000000 0.000000
vn 0.000000 -1.000000 0.000000
vn 0.000000 -1.000000 0.000000
vn 0.999032 -0.030549 -0.031648
vn 0.999032 -0.030549 -0.031648
vn 0.999032 -0.030549 -0.031648
vn 0.999032 -0.030549 -0.031648
vn -0.011323 -0.023168 0.999668
vn -0.011323 -0.023168 0.999668
vn -0.011323 -0.023168 0.999668
vn -0.011323 -0.023168 0.999668
vn 0.038031 0.028522 0.998869
vn 0.038031 0.028522 0.998869
vn 0.038031 0.028522 0.998869
vn 0.038031 0.028522 0.998869
vn 0.038031 0.028522 0.998869
vn -0.998435 0.032141 -0.045760
vn -0.998435 0.032141 -0.045760
vn -0.998435 0.032141 -0.045760
vn -0.998435 0.032141 -0.045760
vn -0.998435 0.032141 -0.045760
vn -0.038729 0.015349 -0.999132
vn -0.038729 0.015349 -0.999132
vn -0.038729 0.015349 -0.999132
vn -0.038729 0.015349 -0.999132
vn 0.999114 0.041730 0.005436
vn 0.999114 0.041730 0.005436
vn 0.999114 0.041730 0.005436
vn 0.999114 0.041730 0.005436
vn -0.533946 -0.076213 0.842077
vn -0.533946 -0.076213 0.842077
vn -0.533946 -0.076213 0.842077
vn -0.520840 0.232474 0.821390
vn -0.520840 0.232474 0.821390
vn -0.520840 0.232474 0.821390
vn -0.025812 -0.011397 -0.999602
vn -0.025812 -0.011397 -0.999602
vn -0.025812 -0.011397 -0.999602
vn -0.025812 -0.011397 -0.999602
vn -0.999606 -0.025091 0.012562
vn -0.999606 -0.025091 0.012562
vn -0.999606 -0.025091 0.012562
vn -0.999606 -0.025091 0.012562
vn 0.000000 0.602139 -0.798391
vn 0.000000 0.602139 -0.798391
vn 0.000000 0.602139 -0.798391
vn 0.000000 0.602139 -0.798391
vn -0.770616 0.637299 -0.000020
vn -0.770616 0.637299 -0.000020
vn -0.770616 0.637299 -0.000020
vn -0.770616 0.637299 -0.000020
vn 0.000000 0.602074 0.798440
vn 0.000000 0.602074 0.798440
vn 0.000000 0.602074 0.798440
vn 0.000000 0.602074 0.798440
vn 0.770622 0.637293 0.000000
vn 0.770622 0.637293 0.000000
vn 0.770622 0.637293 0.000000
vn 0.770622 0.637293 0.000000
vn 0.000000 0.000000 -1.000000
vn 0.000000 0.000000 -1.000000
vn 0.000000 0.000000 -1.000000
vn 0.000000 0.000000 -1.000000
vn -1.000000 0.000000 -0.000022
vn -1.000000 0.000000 -0.000022
vn -1.000000 0.000000 -0.000022
vn -1.000000 0.000000 -0.000022
vn 0.000000 0.000000 1.000000
vn 0.000000 0.000000 1.000000
vn 0.000000 0.000000 1.000000
vn 0.000000 0.000000 1.000000
vn 1.000000 0.000000 0.000000
vn 1.000000 0.000000 0.000000
vn 1.000000 0.000000 0.000000
vn 1.000000 0.000000 0.000000
vn 0.004517 -0.007137 0.999964
vn 0.004517 -0.007137 0.999964
vn 0.004517 -0.007137 0.999964
vn 0.000001 0.983579 0.180480
vn 0.000001 0.983579 0.180480
vn 0.000001 0.983579 0.180480
vn 0.000001 0.983579 0.180480
vn -0.007286 -0.007107 -0.999948
vn -0.007286 -0.007107 -0.999948
vn -0.007286 -0.007107 -0.999948
vn -0.007286 -0.007107 -0.999948
vn -0.007286 -0.007107 -0.999948
vn 0.999980 -0.003815 0.005069
vn 0.999980 -0.003815 0.005069
vn 0.999980 -0.003815 0.005069
vn 0.999980 -0.003815 0.005069
vn 0.999980 -0.003815 0.005069
vn -1.000000 0.000004 0.000036
vn -1.000000 0.000004 0.000036
vn -1.000000 0.000004 0.000036
vn -0.879357 -0.031077 0.475147
vn -0.999827 -0.005411 -0.017797
vn -0.999827 -0.005411 -0.017797
vn -0.879357 -0.031077 0.475147
vn 0.000004 -0.620128 0.784501
vn 0.000004 -0.620128 0.784501
vn 0.000004 -0.620128 0.784501
vn 0.000004 -0.620128 0.784501
vn 0.717890 -0.696157 0.000000
vn 0.717890 -0.696157 0.000000
vn 0.717890 -0.696157 0.000000
vn 0.717890 -0.696157 0.000000
vn 0.000000 -0.620144 -0.784488
vn 0.000000 -0.620144 -0.784488
vn 0.000000 -0.620144 -0.784488
vn 0.000000 -0.620144 -0.784488
vn -0.717866 -0.696181 0.000009
vn -0.717866 -0.696181 0.000009
vn -0.717866 -0.696181 0.000009
vn -0.717866 -0.696181 0.000009
vn 0.000009 0.000000 1.000000
vn 0.000009 0.000000 1.000000
vn 0.000009 0.000000 1.000000
vn 0.000009 0.000000 1.000000
vn 1.000000 0.000000 0.000000
vn 1.000000 0.000000 0.000000
vn 1.000000 0.000000 0.000000
vn 1.000000 0.000000 0.000000
vn 0.000000 0.000000 -1.000000
vn 0.000000 0.000000 -1.000000
vn 0.000000 0.000000 -1.000000
vn 0.000000 0.000000 -1.000000
vn -0.999632 -0.027012 -0.002478
vn -0.999632 -0.027012 -0.002478
vn -0.999632 -0.027012 -0.002478
vn -0.999632 -0.027012 -0.002478
vn 0.004517 -0.007137 0.999964
vn 0.004517 -0.007137 0.999964
vn 0.004517 -0.007137 0.999964
vn 0.004517 -0.007137 0.999964
s off
f 19/1/1 22/2/2 21/3/3 20/4/4
f 12/5/5 14/6/6 5/7/7 8/8/8
f 5/7/9 14/6/10 10/9/11 9/10/12
f 1/11/13 5/7/14 9/10/15 11/12/16 2/13/17
f 2/13/18 11/12/19 6/14/20 7/15/21 4/16/22
f 8/17/23 3/18/24 4/19/25 7/20/26
f 3/21/27 8/8/28 5/7/29 1/11/30
f 10/22/31 6/23/32 9/24/33
f 9/25/34 6/26/35 11/27/36
f 8/28/37 7/20/38 13/29/39 12/30/40
f 10/9/41 13/31/42 7/15/43 6/14/44
f 3/18/45 15/32/46 16/33/47 4/19/48
f 4/19/49 16/33/50 17/34/51 2/35/52
f 2/35/53 17/34/54 18/36/55 1/37/56
f 1/37/57 18/36/58 15/32/59 3/18/60
f 15/32/61 19/1/62 20/4/63 16/33/64
f 16/33/65 20/4/66 21/3/67 17/34/68
f 17/34/69 21/3/70 22/2/71 18/36/72
f 18/36/73 22/2/74 19/1/75 15/32/76
f 28/38/77 24/39/78 23/40/79
f 33/41/80 34/42/81 35/43/82 36/44/83
f 25/45/84 26/46/85 27/47/86 12/48/87 13/49/88
f 14/50/89 12/51/90 27/52/91 26/53/92 24/39/93
f 25/54/94 28/38/95 23/40/96
f 28/55/97 25/54/98 13/57/99 10/56/100
f 23/40/101 24/39/102 30/58/103 29/59/104
f 24/39/105 26/46/106 31/60/107 30/58/108
f 26/46/109 25/45/110 32/61/111 31/60/112
f 25/45/113 23/40/114 29/59/115 32/61/116
f 29/59/117 30/58/118 34/42/119 33/41/120
f 30/58/121 31/60/122 35/43/123 34/42/124
f 31/60/125 32/61/126 36/44/127 35/43/128
f 32/61/129 29/59/130 33/41/131 36/44/132
f 28/38/133 10/62/134 14/50/135 24/39/136
