# This file uses meters as units for non-parametric coordinates.

v 367.951904 104.726273 10.595620
v 380.517410 104.726273 10.595620
v 367.951904 214.407028 10.595620
v 380.517410 214.407028 10.595620
v 367.951355 214.407028 3.430969
v 380.517410 214.407028 3.431533
v 367.951355 104.726273 3.430969
v 380.517410 104.726273 3.431533
v 369.149780 156.767853 10.112353
v 375.658234 170.849533 10.111789
v 380.017502 156.767853 3.914236
v 369.150909 156.767853 3.914518
v 380.159698 196.810654 10.248898
v 380.018066 170.844803 8.481433
v 380.143890 138.869553 10.240435
v 433.137482 230.864578 28.514536
v 316.861687 230.864594 28.514538
v 434.465759 153.848267 28.514536
v 315.534180 111.551331 28.514536
v 433.137482 57.394112 12.350328
v 433.137482 57.394112 28.514536
v 316.861694 57.394112 28.514536
v 316.861694 57.394112 12.350328
v 436.064880 40.469063 12.350328
v 313.935059 40.469063 12.350328
v 436.064880 40.469063 35.170994
v 436.064880 52.912224 35.170994
v 436.064880 55.396549 12.350328
v 313.935059 53.251350 35.170994
v 313.935059 55.396549 12.350328
v 424.336975 153.848267 28.514536
v 325.662964 111.551331 22.997147
v 326.151245 225.655792 28.514536
v 423.235291 224.321228 28.514536
v 423.235291 71.820847 28.514536
v 326.764648 70.570671 28.514536
v 424.336975 153.848267 13.928278
v 325.662964 111.551331 13.928278
v 326.764648 224.321228 13.928278
v 423.235291 224.321228 13.928278
v 423.235291 71.820847 13.928278
v 326.764648 71.820847 13.928278
v 413.298767 183.791565 10.398157
v 336.701172 129.672653 13.928278
v 337.555664 212.266785 13.928278
v 412.444275 212.266785 13.928278
v 412.444275 106.649887 13.928278
v 337.555664 106.649887 13.928278
v 336.701172 129.672653 1.129778
v 337.555664 212.266785 1.129778
v 337.555664 106.649887 1.129778
v 413.298767 183.562103 1.129778
v 412.444275 212.266785 1.129778
v 412.444275 106.649887 1.129778
v 325.662964 92.645508 1.129778
v 326.764648 224.321228 1.129778
v 326.764648 71.820847 1.129778
v 424.336975 153.848267 1.129778
v 423.235291 224.321228 1.129778
v 422.726013 72.329712 1.127464
v 325.662964 94.453857 -1.788611
v 326.764648 224.321228 -3.295960
v 326.764648 71.820847 -3.295960
v 424.336975 208.328857 -3.295960
v 423.403259 224.658432 -3.281802
v 423.235291 71.820847 -3.295960
v 315.534180 84.851501 -3.295960
v 316.861694 230.864578 -3.295960
v 316.861694 57.394112 -3.295960
v 434.465759 153.848267 -3.295960
v 433.137482 230.864578 -3.295960
v 425.910156 62.170113 -3.295960
v 322.881714 111.551331 28.514536
v 325.662964 130.591476 28.514536
v 325.662964 89.882416 28.514536
v 413.298767 195.389969 13.928278
v 416.458130 183.791565 13.928278
v 413.298767 167.422226 13.928278
v 429.494186 53.904083 35.170994
v 406.844803 55.174129 35.170994
v 419.716995 54.941189 32.691555
v 415.433578 50.829308 35.170994
v 425.976913 50.630749 35.170994
v 313.935059 46.762745 35.170994
v 322.722595 40.469063 35.170994
v 313.935059 40.469063 29.606302
v 325.927704 109.933533 -3.295960
v 322.819031 94.453857 -3.295960
v 325.829285 77.312515 -3.295960
v 424.658936 57.394112 -3.295960
v 433.137482 57.394112 -2.159230
v 433.194702 69.656265 -3.295960
v 331.748459 172.518311 9.635293
v 331.748459 162.718414 9.635293
v 416.719360 172.518311 9.634728
v 416.719360 162.718414 9.634728
v 416.719925 172.518311 4.391860
v 416.719925 162.718414 4.391860
v 331.749023 172.518311 4.391296
v 331.749023 162.718414 4.391296
v 381.550629 172.171906 9.247099
v 381.550629 164.864075 9.247099
v 381.551193 164.864075 4.779490
v 381.551193 172.171906 4.779490
vt 0.059000 0.375905
vt 0.059000 0.375905
vt 0.059000 0.375905
vt 0.059000 0.375905
vt 0.059000 0.375905
vt 0.059000 0.375905
vt 0.059000 0.375905
vt 0.059000 0.375905
vt 0.059000 0.375905
vt 0.059000 0.375905
vt 0.059000 0.375905
vt 0.059000 0.375905
vt 0.059000 0.375905
vt 0.059000 0.375905
vt 0.059000 0.375905
vt 0.059000 0.375905
vt 0.059000 0.375905
vt 0.059000 0.375905
vt 0.059000 0.375905
vt 0.059000 0.375905
vt 0.059000 0.375905
vt 0.059000 0.375905
vt 0.059000 0.375905
vt 0.059000 0.375905
vt 0.059000 0.375905
vt 0.059000 0.375905
vt 0.059000 0.375905
vt 0.059000 0.375905
vt 0.059000 0.375905
vt 0.059000 0.375905
vt 0.059000 0.375905
vt 0.059000 0.375905
vt 0.059000 0.375905
vt 0.059000 0.375905
vt 0.059000 0.375905
vt 0.059000 0.375905
vt 0.059000 0.375905
vt 0.059000 0.375905
vt 0.059000 0.375905
vt 0.059000 0.375905
vt 0.059000 0.375905
vt 0.059000 0.375905
vt 0.059199 0.378538
vt 0.058258 0.377899
vt 0.058258 0.377899
vt 0.058985 0.380079
vt 0.059199 0.378538
vt 0.059199 0.378538
vt 0.058258 0.377899
vt 0.058258 0.377899
vt 0.058258 0.377899
vt 0.058258 0.377899
vt 0.058258 0.377899
vt 0.058258 0.377899
vt 0.058258 0.377899
vt 0.058258 0.377899
vt 0.058258 0.377899
vt 0.058258 0.377899
vt 0.058258 0.377899
vt 0.058258 0.377899
vt 0.058258 0.377899
vt 0.058258 0.377899
vt 0.058258 0.377899
vt 0.058258 0.377899
vt 0.058258 0.377899
vt 0.058258 0.377899
vt 0.058258 0.377899
vt 0.058258 0.377899
vt 0.058258 0.377899
vt 0.058258 0.377899
vt 0.058258 0.377899
vt 0.058258 0.377899
vt 0.058258 0.377899
vt 0.058258 0.377899
vt 0.058258 0.377899
vt 0.058258 0.377899
vt 0.058258 0.377899
vt 0.058258 0.377899
vt 0.058258 0.377899
vt 0.058258 0.377899
vt 0.058258 0.377899
vt 0.058258 0.377899
vt 0.058258 0.377899
vt 0.058258 0.377899
vt 0.058258 0.377899
vt 0.059199 0.378538
vt 0.059199 0.378538
vt 0.059199 0.378538
vt 0.059199 0.378538
vt 0.059199 0.378538
vt 0.059199 0.378538
vt 0.059199 0.378538
vt 0.059199 0.378538
vt 0.059199 0.378538
vt 0.059199 0.378538
vt 0.059199 0.378538
vt 0.059199 0.378538
vt 0.059199 0.378538
vt 0.059199 0.378538
vt 0.059199 0.378538
vt 0.059199 0.378538
vt 0.059199 0.378538
vt 0.059199 0.378538
vt 0.059199 0.378538
vt 0.059199 0.378538
vt 0.059199 0.378538
vt 0.059199 0.378538
vt 0.059199 0.378538
vt 0.059199 0.378538
vt 0.059199 0.378538
vt 0.059199 0.378538
vt 0.059199 0.378538
vt 0.059199 0.378538
vt 0.059199 0.378538
vt 0.059199 0.378538
vt 0.059199 0.378538
vt 0.059199 0.378538
vt 0.059199 0.378538
vt 0.059199 0.378538
vt 0.059199 0.378538
vt 0.059199 0.378538
vt 0.059199 0.378538
vt 0.059199 0.378538
vt 0.058258 0.377899
vt 0.059199 0.378538
vt 0.058258 0.377899
vt 0.059199 0.378538
vt 0.059199 0.378538
vt 0.058985 0.380079
vt 0.058258 0.377899
vt 0.059199 0.378538
vt 0.058258 0.377899
vt 0.058258 0.377899
vt 0.058258 0.377899
vt 0.058258 0.377899
vt 0.058258 0.377899
vt 0.058258 0.377899
vt 0.059000 0.375905
vt 0.059000 0.375905
vt 0.059000 0.375905
vt 0.059000 0.375905
vt 0.059000 0.375905
vt 0.059000 0.375905
vt 0.059000 0.375905
vt 0.059000 0.375905
vt 0.059000 0.375905
vt 0.059000 0.375905
vt 0.059000 0.375905
vt 0.059000 0.375905
vt 0.059000 0.375905
vt 0.059000 0.375905
vt 0.059000 0.375905
vt 0.059000 0.375905
vt 0.059000 0.375905
vt 0.059000 0.375905
vt 0.059000 0.375905
vt 0.059000 0.375905
vt 0.059000 0.375905
vt 0.059000 0.375905
vt 0.059000 0.375905
vt 0.059000 0.375905
vt 0.059000 0.375905
vt 0.059000 0.375905
vt 0.059000 0.375905
vt 0.059000 0.375905
vt 0.059000 0.375905
vt 0.059000 0.375905
vt 0.059000 0.375905
vt 0.059000 0.375905
vn 0.013301 -0.010636 0.999855
vn 0.013301 -0.010636 0.999855
vn 0.013301 -0.010636 0.999855
vn 0.013301 -0.010636 0.999855
vn 0.013301 -0.010636 0.999855
vn 0.000012 -0.008382 -0.999965
vn 0.000012 -0.008382 -0.999965
vn 0.000012 -0.008382 -0.999965
vn 0.000012 -0.008382 -0.999965
vn 0.999682 -0.010661 0.022834
vn 0.999682 -0.010661 0.022834
vn 0.999682 -0.010661 0.022834
vn 0.999682 -0.010661 0.022834
vn 0.999682 -0.010661 0.022834
vn -0.999784 -0.020792 -0.000042
vn -0.999784 -0.020792 -0.000042
vn -0.999784 -0.020792 -0.000042
vn -0.999784 -0.020792 -0.000042
vn -0.001854 0.005340 0.999984
vn -0.001854 0.005340 0.999984
vn -0.001854 0.005340 0.999984
vn -0.001854 0.005340 0.999984
vn -0.001854 0.005340 0.999984
vn 0.999981 0.005546 -0.002825
vn 0.999981 0.005546 -0.002825
vn 0.999981 0.005546 -0.002825
vn 0.999981 0.005546 -0.002825
vn 0.999981 0.005546 -0.002825
vn 0.000012 0.005840 -0.999983
vn 0.000012 0.005840 -0.999983
vn 0.000012 0.005840 -0.999983
vn 0.000012 0.005840 -0.999983
vn -0.999895 0.014489 -0.000042
vn -0.999895 0.014489 -0.000042
vn -0.999895 0.014489 -0.000042
vn -0.999895 0.014489 -0.000042
vn 0.349445 -0.065527 0.934663
vn 0.349445 -0.065527 0.934663
vn 0.349445 -0.065527 0.934663
vn 0.349821 0.052830 0.935326
vn 0.349821 0.052830 0.935326
vn 0.349821 0.052830 0.935326
vn 0.999936 -0.011037 -0.002353
vn 0.999940 -0.010983 0.000000
vn 0.999940 -0.010983 0.000000
vn 0.999940 -0.010981 0.000000
vn 0.999936 -0.011037 -0.002353
vn 0.999936 -0.011037 -0.002353
vn 1.000000 0.000000 0.000000
vn 1.000000 0.000000 0.000000
vn 1.000000 0.000000 0.000000
vn 1.000000 0.000000 0.000000
vn -0.409031 -0.571073 0.711737
vn -0.481353 -0.580629 0.656635
vn -0.481353 -0.580629 0.656635
vn 0.000000 0.000000 -1.000000
vn 0.000000 0.000000 -1.000000
vn 0.000000 0.000000 -1.000000
vn 0.000000 0.000000 -1.000000
vn 0.718256 0.694370 0.044247
vn 0.718256 0.694370 0.044247
vn 0.718256 0.694370 0.044247
vn 0.718256 0.694370 0.044247
vn 0.000000 0.871071 0.491157
vn 0.000000 0.871071 0.491157
vn 0.000000 0.871071 0.491157
vn -0.701726 0.711371 0.039143
vn -0.701726 0.711371 0.039143
vn -0.701726 0.711371 0.039143
vn -0.701726 0.711371 0.039143
vn 0.000000 0.000000 -1.000000
vn 0.000000 0.000000 -1.000000
vn 0.000000 0.000000 -1.000000
vn 0.000000 0.000000 -1.000000
vn 0.000000 -1.000000 -0.000033
vn 0.000000 -1.000000 -0.000033
vn 0.000000 -1.000000 -0.000053
vn 0.000000 -1.000000 0.000000
vn 0.682425 -0.203455 0.702070
vn 0.682425 -0.203455 0.702070
vn 0.682425 -0.203455 0.702070
vn 0.000000 0.000000 1.000000
vn 0.000000 0.000000 1.000000
vn 0.000000 0.000000 1.000000
vn 0.000000 0.000000 1.000000
vn 0.000000 0.000000 1.000000
vn 0.000000 0.000000 1.000000
vn 0.000000 0.000000 1.000000
vn 0.000000 0.000000 1.000000
vn 0.000000 0.000000 1.000000
vn 0.000000 0.000000 1.000000
vn 0.000000 0.000000 1.000000
vn 0.000000 0.000000 1.000000
vn 0.685669 0.179623 0.705404
vn 0.685669 0.179622 0.705404
vn 0.685669 0.179623 0.705404
vn 0.000000 0.000000 1.000000
vn 0.000000 0.000000 1.000000
vn 0.000000 0.000000 1.000000
vn 0.000000 0.000000 1.000000
vn -0.006888 -0.998939 0.045541
vn -0.006888 -0.998939 0.045541
vn -0.006888 -0.998939 0.045541
vn -0.006888 -0.998939 0.045541
vn -0.999855 -0.017054 0.000000
vn -0.999855 -0.017054 0.000000
vn -0.999855 -0.017054 0.000000
vn -0.999855 -0.017054 0.000000
vn -0.006474 0.999062 0.042820
vn -0.006474 0.999062 0.042820
vn -0.006474 0.999062 0.042820
vn -0.006474 0.999062 0.042820
vn -0.999954 0.009632 0.000000
vn -0.999954 0.009632 0.000000
vn -0.999954 0.009632 0.000000
vn -0.999954 0.009632 0.000000
vn 0.000000 0.000000 1.000000
vn 0.000000 0.000000 1.000000
vn 0.000000 0.000000 1.000000
vn 0.000000 0.000000 1.000000
vn 0.000000 0.000000 1.000000
vn 0.000000 0.000000 1.000000
vn 0.000000 0.000000 1.000000
vn 0.000000 0.000000 1.000000
vn -0.455934 -0.259168 0.851443
vn -0.455934 -0.259168 0.851443
vn -0.455934 -0.259168 0.851443
vn 0.000000 0.000000 1.000000
vn 0.000000 0.000000 1.000000
vn 0.000000 0.000000 1.000000
vn 0.000000 0.000000 1.000000
vn 0.000000 0.000000 1.000000
vn 0.000000 0.000000 1.000000
vn 0.000000 0.000000 1.000000
vn 0.000000 0.000000 1.000000
vn -0.463758 0.186783 0.866049
vn -0.463758 0.186783 0.866049
vn -0.463758 0.186783 0.866049
vn 0.999868 -0.016273 0.000000
vn 0.999868 -0.016273 0.000000
vn 0.999868 -0.016273 0.000000
vn 0.999868 -0.016273 0.000000
vn 0.000000 -1.000000 0.000000
vn 0.000000 -1.000000 0.000000
vn 0.000000 -1.000000 0.000000
vn 0.000000 -1.000000 0.000000
vn 0.999965 0.008356 0.000000
vn 0.999965 0.008356 0.000000
vn 0.999965 0.008356 0.000000
vn 0.999965 0.008356 0.000000
vn 0.000000 1.000000 -0.000012
vn 0.000000 1.000000 -0.000012
vn 0.000000 1.000000 0.000000
vn 0.000000 1.000000 0.000000
vn 0.000000 0.000000 -1.000000
vn 0.000000 0.000000 -1.000000
vn 0.000000 0.000000 -1.000000
vn 0.000000 0.000000 -1.000000
vn 0.000000 0.000000 -1.000000
vn 0.000000 0.000000 -1.000000
vn 0.000000 0.000000 -1.000000
vn 0.000000 0.000000 -1.000000
vn 0.000000 0.000000 -1.000000
vn 0.000000 0.000000 -1.000000
vn 0.000000 0.000000 -1.000000
vn 0.000000 0.000000 -1.000000
vn 0.000000 0.000000 -1.000000
vn 0.000000 0.000000 -1.000000
vn 0.000000 0.000000 -1.000000
vn 0.000000 0.000000 -1.000000
vn -0.000000 0.000000 -1.000000
vn -0.000000 0.000000 -1.000000
vn -0.000000 0.000000 -1.000000
vn -0.000000 0.000000 -1.000000
vn 0.000000 0.000000 -1.000000
vn 0.000000 0.000000 -1.000000
vn 0.000000 0.000000 -1.000000
vn 0.000000 0.000000 -1.000000
vn 0.000000 -1.000000 0.000000
vn 0.000000 -1.000000 0.000000
vn 0.000000 -1.000000 0.000000
vn 0.000000 -1.000000 0.000000
vn -0.999855 -0.017053 0.000000
vn -0.999855 -0.017053 0.000000
vn -0.999855 -0.017053 0.000000
vn -0.999855 -0.017053 0.000000
vn -0.999954 0.009632 0.000000
vn -0.999954 0.009632 0.000000
vn -0.999954 0.009632 0.000000
vn -0.999954 0.009632 0.000000
vn 0.000000 1.000000 0.000000
vn 0.000000 1.000000 0.000000
vn 0.000000 1.000000 0.000000
vn 0.000000 1.000000 0.000000
vn 0.507703 -0.213095 -0.834763
vn 0.507702 -0.213095 -0.834763
vn 0.507703 -0.213095 -0.834763
vn 0.000000 0.000000 -1.000000
vn 0.000000 0.000000 -1.000000
vn 0.000000 0.000000 -1.000000
vn 0.000000 0.000000 -1.000000
vn 0.510169 0.189991 -0.838827
vn 0.510169 0.189991 -0.838827
vn 0.510169 0.189991 -0.838827
vn 0.000000 0.000000 -1.000000
vn 0.000000 0.000000 -1.000000
vn 0.000000 0.000000 -1.000000
vn 0.000000 0.000000 -1.000000
vn -0.999796 0.015714 -0.012700
vn -0.999796 0.015714 -0.012700
vn -0.999818 0.019067 0.000000
vn -0.999818 0.019067 0.000000
vn 0.000000 1.000000 0.000000
vn 0.000000 1.000000 0.000000
vn 0.000000 1.000000 0.000014
vn 0.000000 1.000000 0.000014
vn -0.999874 -0.012343 0.009976
vn -0.999874 -0.012343 0.009976
vn -0.999940 -0.010983 0.000000
vn -0.999940 -0.010983 0.000000
vn -0.999940 -0.010983 0.000000
vn 0.999826 0.018664 0.000000
vn 0.999826 0.018664 0.000000
vn 0.999792 0.019570 0.005754
vn 0.999792 0.019570 0.005754
vn 0.228207 -0.222062 -0.947951
vn 0.228207 -0.222062 -0.947951
vn 0.228207 -0.222062 -0.947950
vn 0.318424 -0.083402 -0.944272
vn 0.318424 -0.083402 -0.944272
vn 0.318424 -0.083402 -0.944272
vn 0.000000 -1.000000 0.000000
vn 0.000000 -1.000000 0.000000
vn 0.000000 -1.000000 0.000000
vn 0.000000 -1.000000 0.000000
vn 0.000000 -1.000000 0.000000
vn -0.000000 0.000000 1.000000
vn -0.000000 0.000000 1.000000
vn -0.000000 0.000000 1.000000
vn -0.000000 0.000000 1.000000
vn -0.000000 0.000000 1.000000
vn 0.999524 -0.012883 0.028019
vn 0.999524 -0.012883 0.028019
vn 0.999524 -0.012883 0.028019
vn 0.999524 -0.012883 0.028019
vn 0.999524 -0.012883 0.028019
vn 0.999920 0.009933 0.007804
vn 0.999920 0.009933 0.007804
vn 0.999920 0.009933 0.007804
vn 0.999920 0.009933 0.007804
vn 0.999920 0.009933 0.007804
vn -0.000000 -0.000000 1.000000
vn -0.000000 -0.000000 1.000000
vn -0.000000 -0.000000 1.000000
vn -0.000000 -0.000000 1.000000
vn -0.000000 -0.000000 1.000000
vn -0.999922 -0.011319 0.005230
vn -0.999922 -0.011319 0.005230
vn -0.999922 -0.011319 0.005230
vn -0.999922 -0.011319 0.005230
vn -0.999922 -0.011319 0.005230
vn -0.000000 0.000000 1.000000
vn -0.000000 0.000000 1.000000
vn -0.000000 0.000000 1.000000
vn -0.000000 0.000000 1.000000
vn -0.000000 0.000000 1.000000
vn -0.000000 0.000000 1.000000
vn -0.000000 0.000000 1.000000
vn -0.000000 0.000000 1.000000
vn -0.000000 0.000000 1.000000
vn -0.000000 0.000000 1.000000
vn -0.999910 0.011337 0.007147
vn -0.999910 0.011337 0.007147
vn -0.999910 0.011337 0.007147
vn -0.999910 0.011337 0.007147
vn -0.999910 0.011337 0.007147
vn -0.276792 0.296317 0.914102
vn -0.276792 0.296317 0.914102
vn -0.276792 0.296317 0.914102
vn 0.120066 0.348951 0.929418
vn 0.120066 0.348951 0.929418
vn 0.120066 0.348951 0.929418
vn 0.005271 0.479087 0.877752
vn 0.005271 0.479087 0.877752
vn 0.005271 0.479087 0.877752
vn 0.000002 0.000002 1.000000
vn 0.000002 0.000002 1.000000
vn 0.000002 0.000002 1.000000
vn 0.000002 0.000002 1.000000
vn -1.000000 0.000008 0.000000
vn -1.000000 0.000008 0.000000
vn -1.000000 0.000008 0.000000
vn -1.000000 0.000008 0.000000
vn -1.000000 0.000008 0.000000
vn -0.000000 0.000002 1.000000
vn -0.000000 0.000002 1.000000
vn -0.000000 0.000002 1.000000
vn -0.000000 0.000002 1.000000
vn -0.000000 0.000002 1.000000
vn 0.000002 0.000002 1.000000
vn 0.000002 0.000002 1.000000
vn -0.000000 0.000002 1.000000
vn -0.000000 0.000002 1.000000
vn 0.050736 0.930610 0.362478
vn 0.050736 0.930610 0.362478
vn 0.050736 0.930610 0.362478
vn 0.050736 0.930610 0.362478
vn -0.011315 0.927048 0.374773
vn -0.011315 0.927048 0.374773
vn -0.011315 0.927047 0.374773
vn -0.011315 0.927048 0.374773
vn 0.999925 -0.012097 0.001778
vn 0.999925 -0.012097 0.001778
vn 0.999925 -0.012097 0.001778
vn 0.999925 -0.012097 0.001778
vn 0.999925 -0.012097 0.001778
vn -0.000000 0.000000 -1.000000
vn -0.000000 0.000000 -1.000000
vn -0.000000 0.000000 -1.000000
vn -0.000000 0.000000 -1.000000
vn -0.000000 0.000000 -1.000000
vn 0.000000 0.000000 -1.000000
vn 0.000000 0.000000 -1.000000
vn 0.000000 0.000000 -1.000000
vn 0.000000 0.000000 -1.000000
vn 0.000000 0.000000 -1.000000
vn 0.999922 0.012486 -0.000836
vn 0.999922 0.012486 -0.000836
vn 0.999922 0.012486 -0.000836
vn 0.999922 0.012486 -0.000836
vn 0.999922 0.012486 -0.000836
vn 0.000000 0.000000 -1.000000
vn 0.000000 0.000000 -1.000000
vn 0.000000 0.000000 -1.000000
vn 0.000000 0.000000 -1.000000
vn 0.000000 0.000000 -1.000000
vn 0.000000 0.000000 -1.000000
vn 0.000000 0.000000 -1.000000
vn 0.000000 0.000000 -1.000000
vn 0.000000 0.000000 -1.000000
vn 0.000000 0.000000 -1.000000
vn 0.000000 -1.000000 -0.000053
vn 0.000000 -1.000000 -0.000033
vn 0.000000 -1.000000 -0.000004
vn -0.011021 0.000000 0.999939
vn -0.011021 0.000000 0.999939
vn -0.011021 0.000000 0.999939
vn -0.011021 0.000000 0.999939
vn -0.011021 0.000000 -0.999939
vn -0.011021 0.000000 -0.999939
vn -0.011021 0.000000 -0.999939
vn -0.011021 0.000000 -0.999939
vn -0.060897 -0.998144 -0.000006
vn -0.060897 -0.998144 -0.000006
vn -0.060897 -0.998144 -0.000006
vn -0.060897 -0.998144 -0.000006
vn -0.009850 0.999952 0.000000
vn -0.009850 0.999952 0.000000
vn -0.009850 0.999952 0.000000
vn -0.009850 0.999952 0.000000
vn 0.007794 0.000000 0.999970
vn 0.007794 0.000000 0.999970
vn 0.007794 0.000000 0.999970
vn 0.007794 0.000000 0.999970
vn 0.043044 -0.999073 0.000004
vn 0.043044 -0.999073 0.000004
vn 0.043044 -0.999073 0.000004
vn 0.043044 -0.999073 0.000004
vn 0.007795 0.000000 -0.999970
vn 0.007795 0.000000 -0.999970
vn 0.007795 0.000000 -0.999970
vn 0.007795 0.000000 -0.999970
vn 0.006956 0.999976 0.000000
vn 0.006956 0.999976 0.000000
vn 0.006956 0.999976 0.000000
vn 0.006956 0.999976 0.000000
s off
f 9/1/1 10/2/2 13/3/3 4/4/4 3/5/5
f 5/6/6 6/7/7 11/8/8 12/9/9
f 13/10/10 14/11/11 11/12/12 6/13/13 4/14/14
f 12/15/15 9/16/16 3/17/17 5/18/18
f 1/19/19 2/20/20 15/21/21 10/22/22 9/23/23
f 2/24/24 8/25/25 11/26/26 14/27/27 15/28/28
f 12/29/29 11/30/30 8/31/31 7/32/32
f 7/33/33 1/34/34 9/35/35 12/36/36
f 10/37/37 14/38/38 13/39/39
f 15/40/40 14/41/41 10/42/42
f 70/43/43 18/44/44 21/45/45 20/46/46 91/47/47 92/48/48
f 24/49/49 28/50/50 27/51/51 26/52/52
f 85/53/53 84/54/54 86/55/55
f 28/56/56 24/57/57 25/58/58 30/59/59
f 21/45/60 27/51/61 28/50/62 20/60/63
f 22/61/64 81/62/65 21/45/66
f 23/63/67 30/64/68 29/65/69 22/61/70
f 20/66/71 28/56/72 30/59/73 23/67/74
f 26/68/75 85/69/76 25/58/77 24/57/78
f 73/70/79 32/71/80 74/72/81
f 17/73/82 33/74/83 34/75/84 16/76/85
f 16/76/86 34/75/87 31/77/88 18/44/89
f 21/45/90 35/78/91 36/79/92 22/61/93
f 75/80/94 32/71/95 73/70/96
f 18/44/97 31/77/98 35/78/99 21/45/100
f 33/74/101 39/81/102 40/82/103 34/75/104
f 34/75/105 40/82/106 37/83/107 31/77/108
f 35/78/109 41/84/110 42/85/111 36/79/112
f 31/77/113 37/83/114 41/84/115 35/78/116
f 38/86/117 44/87/118 45/88/119 39/89/120
f 46/90/121 40/91/122 39/89/123 45/88/124
f 76/92/125 43/93/126 77/94/127
f 41/95/128 47/96/129 48/97/130 42/98/131
f 42/98/132 48/97/133 44/87/134 38/86/135
f 77/94/136 43/93/137 78/99/138
f 44/87/139 49/100/140 50/101/141 45/88/142
f 46/90/143 45/88/144 50/101/145 53/102/146
f 48/97/147 51/103/148 49/100/149 44/87/150
f 47/96/151 54/104/152 51/103/153 48/97/154
f 49/100/155 55/105/156 56/106/157 50/101/158
f 50/101/159 56/106/160 59/107/161 53/102/162
f 51/103/163 57/108/164 55/105/165 49/100/166
f 53/102/167 59/107/168 58/109/169 52/110/170
f 52/110/171 58/109/172 60/111/173 54/104/174
f 54/104/175 60/111/176 57/108/177 51/103/178
f 62/112/179 65/113/180 59/107/181 56/106/182
f 59/107/183 65/113/184 64/114/185 58/109/186
f 58/109/187 64/114/188 66/115/189 60/111/190
f 63/116/191 57/108/192 60/111/193 66/115/194
f 61/117/195 88/118/196 87/119/197
f 68/120/198 71/121/199 65/113/200 62/112/201
f 88/118/202 61/117/203 89/122/204
f 65/113/205 71/121/206 70/43/207 64/114/208
f 68/120/209 67/123/210 19/124/211 17/73/212
f 71/121/213 68/120/214 17/73/215 16/76/216
f 67/123/217 69/125/218 23/63/219 22/61/220 19/124/221
f 70/43/222 71/121/223 16/126/224 18/44/225
f 91/47/226 72/127/227 92/48/228
f 90/128/229 72/127/230 91/47/231
f 20/46/232 23/129/233 69/125/234 90/128/235 91/47/236
f 19/124/237 73/70/238 74/72/239 33/74/240 17/73/241
f 32/71/242 38/130/243 39/81/244 33/74/245 74/72/246
f 36/79/247 42/85/248 38/130/249 32/71/250 75/80/251
f 22/61/252 36/79/253 75/80/254 73/70/255 19/124/256
f 46/90/257 53/102/258 52/110/259 43/93/260 76/92/261
f 40/91/262 46/90/263 76/92/264 77/94/265 37/131/266
f 37/131/267 77/94/268 78/99/269 47/96/270 41/95/271
f 43/93/272 52/110/273 54/104/274 47/96/275 78/99/276
f 79/132/277 81/62/278 83/133/279
f 81/62/280 80/134/281 82/135/282
f 81/62/283 82/135/284 83/133/285
f 26/52/286 27/51/287 79/132/288 83/133/289
f 84/54/290 29/65/291 30/64/292 25/136/293 86/55/294
f 82/135/295 80/134/296 29/65/297 84/54/298 85/53/299
f 26/52/300 83/133/301 82/135/302 85/53/303
f 81/62/304 79/132/305 27/51/306 21/45/307
f 22/61/308 29/65/309 80/134/310 81/62/311
f 55/105/312 61/117/313 87/119/314 62/112/315 56/106/316
f 88/118/317 67/123/318 68/120/319 62/112/320 87/119/321
f 63/116/322 69/125/323 67/123/324 88/118/325 89/122/326
f 57/108/327 63/116/328 89/122/329 61/117/330 55/105/331
f 64/114/332 70/43/333 92/48/334 72/127/335 66/115/336
f 90/128/337 69/125/338 63/116/339 66/115/340 72/127/341
f 25/58/342 85/69/343 86/137/344
f 101/138/345 102/139/346 96/140/347 95/141/348
f 97/142/349 98/143/350 103/144/351 104/145/352
f 102/146/353 103/147/354 98/148/355 96/149/356
f 104/150/357 101/151/358 95/152/359 97/153/360
f 93/154/361 94/155/362 102/156/363 101/157/364
f 94/158/365 100/159/366 103/160/367 102/161/368
f 104/162/369 103/163/370 100/164/371 99/165/372
f 99/166/373 93/167/374 101/168/375 104/169/376
v 418.487808 167.329132 6.989169
v 373.956299 167.329102 6.989264
v 418.487808 216.510315 6.989169
v 373.956299 216.510315 6.989264
v 329.424789 167.329071 6.989360
v 329.424789 216.510315 6.989360
v 418.487808 103.679665 6.989169
v 373.956299 103.679642 6.989264
v 418.487808 167.329102 6.989169
v 373.956299 167.329102 6.989264
v 329.424789 103.679619 6.989360
v 329.424789 167.329102 6.989360
vt 0.499257 0.269393
vt 0.499257 0.389312
vt 0.409995 0.389312
vt 0.409995 0.269393
vt 0.499257 0.269393
vt 0.499257 0.389312
vt 0.409995 0.389312
vt 0.409995 0.269393
vt 0.499257 0.269393
vt 0.499257 0.389312
vt 0.409995 0.389312
vt 0.409995 0.269393
vt 0.499257 0.269393
vt 0.499257 0.389312
vt 0.409995 0.389312
vt 0.409995 0.269393
vn 0.000003 0.000000 1.000000
vn 0.000003 0.000000 1.000000
vn 0.000003 0.000000 1.000000
vn 0.000003 0.000000 1.000000
vn 0.000003 0.000000 1.000000
vn 0.000003 0.000000 1.000000
vn 0.000003 0.000000 1.000000
vn 0.000003 0.000000 1.000000
vn 0.000003 0.000000 1.000000
vn 0.000003 0.000000 1.000000
vn 0.000003 0.000000 1.000000
vn 0.000003 0.000000 1.000000
vn 0.000003 0.000000 1.000000
vn 0.000003 0.000000 1.000000
vn 0.000003 0.000000 1.000000
vn 0.000003 0.000000 1.000000
s off
f 105/170/377 107/171/378 108/172/379 106/173/380
f 106/174/381 108/175/382 110/176/383 109/177/384
f 111/178/385 113/179/386 114/180/387 112/181/388
f 112/182/389 114/183/390 116/184/391 115/185/392
