# This file uses meters as units for non-parametric coordinates.

v 7.301331 -0.000002 -13.957575
v 4.512817 -0.000107 -24.064997
v -4.512817 -0.000107 -24.064997
v -7.302124 -0.000002 -13.957575
v 0.000000 -0.000062 -7.711420
v 6.769486 117.829636 -14.098198
v 4.184083 117.829620 -23.469414
v -4.184141 117.829620 -23.469414
v -6.770280 117.829636 -14.098198
v -0.000029 117.829605 -8.307003
v 4.512817 22.293232 -24.064997
v -4.512817 22.293232 -24.064997
v -7.302124 22.293478 -13.957575
v 0.000000 22.293282 -7.711420
v 7.301331 22.293478 -13.957575
v 4.794311 27.190294 -13.531183
v 0.000000 27.048014 -10.519403
v -4.794312 27.190294 -13.531183
v -2.963257 27.419756 -20.392212
v 2.963257 27.419756 -20.392212
v 7.006677 89.860229 -14.035484
v -0.000016 89.860123 -8.041386
v -7.007470 89.860229 -14.035484
v -4.330723 89.860031 -23.735031
v 4.330691 89.860031 -23.735031
v 2.963257 85.121597 -21.257380
v -2.963257 85.121597 -21.257380
v -4.794312 85.121735 -14.620600
v 0.000000 85.121452 -10.519403
v 4.794311 85.121735 -14.620600
vt 0.005702 0.276920
vt 0.005702 0.276920
vt 0.005702 0.276920
vt 0.005702 0.276920
vt 0.005702 0.276920
vt 0.005702 0.276920
vt 0.005702 0.276920
vt 0.005702 0.276920
vt 0.005702 0.276920
vt 0.005702 0.276920
vt 0.005702 0.276920
vt 0.005702 0.276920
vt 0.005702 0.276920
vt 0.005702 0.276920
vt 0.005702 0.276920
vt 0.005702 0.276920
vt 0.005702 0.276920
vt 0.005702 0.276920
vt 0.005702 0.276920
vt 0.005702 0.276920
vt 0.005702 0.276920
vt 0.005702 0.276920
vt 0.005702 0.276920
vt 0.005702 0.276920
vt 0.005702 0.276920
vt 0.005702 0.276920
vt 0.005702 0.276920
vt 0.005702 0.276920
vt 0.005702 0.276920
vt 0.005702 0.276920
vt 0.005702 0.276920
vt 0.005702 0.276920
vt 0.005702 0.276920
vt 0.005702 0.276920
vt 0.005702 0.276920
vt 0.005702 0.276920
vn 0.865880 0.444383 -0.229728
vn 0.865880 0.444383 -0.229728
vn 0.865880 0.444383 -0.229728
vn 0.865880 0.444383 -0.229728
vn 0.000000 0.582391 -0.812909
vn 0.000000 0.582391 -0.812909
vn 0.000000 0.582391 -0.812909
vn 0.000000 0.582391 -0.812909
vn -0.865840 0.444447 -0.229757
vn -0.865840 0.444447 -0.229757
vn -0.865840 0.444447 -0.229757
vn -0.865840 0.444447 -0.229757
vn -0.570507 0.333444 0.750558
vn -0.570507 0.333444 0.750558
vn -0.570507 0.333444 0.750558
vn -0.570507 0.333444 0.750558
vn 0.570540 0.333404 0.750551
vn 0.570540 0.333404 0.750551
vn 0.570540 0.333404 0.750551
vn 0.570540 0.333404 0.750551
vn 0.000000 0.000000 -1.000000
vn 0.000000 0.000000 -1.000000
vn 0.000000 0.000000 -1.000000
vn 0.000000 0.000000 -1.000000
vn -0.963967 0.000000 -0.266022
vn -0.963967 0.000000 -0.266022
vn -0.963967 0.000000 -0.266022
vn -0.963967 0.000000 -0.266022
vn -0.650023 0.000000 0.759915
vn -0.650023 0.000000 0.759915
vn -0.650023 0.000000 0.759915
vn -0.650023 0.000000 0.759915
vn 0.650063 0.000000 0.759880
vn 0.650063 0.000000 0.759880
vn 0.650063 0.000000 0.759880
vn 0.650063 0.000000 0.759880
vn 0.963986 0.000000 -0.265952
vn 0.963986 0.000000 -0.265952
vn 0.963986 0.000000 -0.265952
vn 0.963986 0.000000 -0.265952
vn 0.592747 -0.410568 0.692881
vn 0.592747 -0.410569 0.692881
vn 0.592747 -0.410568 0.692881
vn 0.592747 -0.410569 0.692881
vn -0.592712 -0.410610 0.692887
vn -0.592712 -0.410610 0.692887
vn -0.592712 -0.410610 0.692887
vn -0.592712 -0.410610 0.692887
vn -0.871446 -0.427508 -0.240456
vn -0.871446 -0.427508 -0.240456
vn -0.871446 -0.427508 -0.240456
vn -0.871446 -0.427508 -0.240456
vn 0.000000 -0.509757 -0.860318
vn 0.000000 -0.509757 -0.860318
vn 0.000000 -0.509757 -0.860319
vn 0.000000 -0.509757 -0.860319
vn 0.871485 -0.427445 -0.240426
vn 0.871485 -0.427445 -0.240426
vn 0.871485 -0.427445 -0.240426
vn 0.871485 -0.427445 -0.240426
vn 0.650063 0.000000 0.759880
vn 0.650063 0.000000 0.759880
vn 0.650063 0.000000 0.759880
vn 0.650063 0.000000 0.759880
vn -0.650023 0.000000 0.759915
vn -0.650023 0.000000 0.759915
vn -0.650023 0.000000 0.759915
vn -0.650023 0.000000 0.759915
vn -0.963967 0.000000 -0.266022
vn -0.963967 0.000000 -0.266022
vn -0.963967 0.000000 -0.266022
vn -0.963967 0.000000 -0.266022
vn 0.000000 0.000000 -1.000000
vn 0.000000 0.000000 -1.000000
vn 0.000000 0.000000 -1.000000
vn 0.000000 0.000000 -1.000000
vn 0.963986 0.000000 -0.265952
vn 0.963986 0.000000 -0.265952
vn 0.963986 0.000000 -0.265952
vn 0.963986 0.000000 -0.265952
vn 0.000000 -0.014992 -0.999888
vn 0.000000 -0.014992 -0.999888
vn 0.000000 -0.014992 -0.999888
vn 0.000000 -0.014992 -0.999888
vn -0.965081 -0.004427 -0.261913
vn -0.965081 -0.004427 -0.261913
vn -0.965081 -0.004427 -0.261913
vn -0.965081 -0.004427 -0.261913
vn -0.595695 0.007543 0.803175
vn -0.595695 0.007543 0.803176
vn -0.595695 0.007543 0.803176
vn -0.595695 0.007543 0.803176
vn 0.595695 0.007543 0.803176
vn 0.595695 0.007543 0.803175
vn 0.595695 0.007543 0.803176
vn 0.595695 0.007543 0.803176
vn 0.965081 -0.004427 -0.261913
vn 0.965081 -0.004427 -0.261913
vn 0.965081 -0.004427 -0.261913
vn 0.965081 -0.004427 -0.261913
s off
f 15/1/1 11/2/2 20/3/3 16/4/4
f 11/2/5 12/5/6 19/6/7 20/3/8
f 12/5/9 13/7/10 18/8/11 19/6/12
f 13/7/13 14/9/14 17/10/15 18/8/16
f 14/9/17 15/11/18 16/12/19 17/10/20
f 2/13/21 3/14/22 12/5/23 11/2/24
f 3/14/25 4/15/26 13/7/27 12/5/28
f 4/15/29 5/16/30 14/9/31 13/7/32
f 5/16/33 1/17/34 15/11/35 14/9/36
f 1/18/37 2/13/38 11/2/39 15/1/40
f 29/19/41 30/20/42 21/21/43 22/22/44
f 28/23/45 29/19/46 22/22/47 23/24/48
f 27/25/49 28/23/50 23/24/51 24/26/52
f 26/27/53 27/25/54 24/26/55 25/28/56
f 30/29/57 26/27/58 25/28/59 21/30/60
f 22/22/61 21/21/62 6/31/63 10/32/64
f 23/24/65 22/22/66 10/32/67 9/33/68
f 24/26/69 23/24/70 9/33/71 8/34/72
f 25/28/73 24/26/74 8/34/75 7/35/76
f 21/30/77 25/28/78 7/35/79 6/36/80
f 20/3/81 19/6/82 27/25/83 26/27/84
f 19/6/85 18/8/86 28/23/87 27/25/88
f 18/8/89 17/10/90 29/19/91 28/23/92
f 17/10/93 16/12/94 30/20/95 29/19/96
f 16/4/97 20/3/98 26/27/99 30/29/100
