# This file uses meters as units for non-parametric coordinates.

v 250.000000 290.000000 19.999996
v 250.000000 -0.000000 19.999996
v 0.000000 290.000000 20.000002
v 0.000000 0.000000 20.000002
v 250.000000 290.000000 0.000056
v 250.000000 -0.000000 0.000056
v 0.000000 290.000000 0.000050
v 0.000000 0.000000 0.000050
vt 0.168874 0.992842
vt 0.168874 0.750000
vt 0.331126 0.750000
vt 0.331126 0.992842
vt 0.168874 0.992842
vt 0.168874 0.750000
vt 0.331126 0.750000
vt 0.331126 0.992842
vn 0.000000 0.000000 1.000000
vn 0.000000 0.000000 1.000000
vn 0.000000 0.000000 1.000000
vn 0.000000 0.000000 1.000000
vn 0.000000 0.000000 -1.000000
vn 0.000000 0.000000 -1.000000
vn 0.000000 0.000000 -1.000000
vn 0.000000 0.000000 -1.000000
s off
f 1/1/1 3/4/2 4/3/3 2/2/4
f 5/5/5 6/6/6 8/7/7 7/8/8
