# This file uses meters as units for non-parametric coordinates.

v -0.000000 223.262802 251.790955
v -0.000000 238.264984 252.017151
v 3.521057 222.832687 242.595184
v 3.521057 238.264984 243.087708
v 243.836502 223.339752 243.389206
v 250.000000 223.262802 251.790955
v 250.000000 238.264984 252.017151
v 243.836502 238.264984 243.087708
v 65.451111 223.846832 252.243362
v 83.132355 237.757935 250.896393
v 65.451111 237.757935 243.389206
v 60.700195 223.004440 244.953094
v 83.132355 236.123932 252.243362
v 108.147095 238.772018 253.037384
v 67.511108 238.772018 253.037384
v 60.700195 225.047638 243.389206
v 104.282593 222.832687 242.595184
v 32.551453 222.832687 242.595184
v 79.684174 225.078400 242.595184
v 131.635193 238.772018 242.595184
v 154.084473 222.832687 253.037384
v 244.630524 244.825577 20.000076
v 250.000000 244.671310 20.000099
v 244.329025 261.052002 20.000092
v 250.000000 229.332138 141.926788
v 244.630524 244.517273 140.979446
v 244.241577 227.016113 151.546707
v 242.677689 229.060196 151.546707
v 243.836502 231.868973 114.931427
v 243.836502 224.662354 224.708832
v 243.836502 231.397278 135.597595
v 243.836502 251.718063 85.375122
v 250.000000 238.238785 66.514618
v -0.000000 244.671310 20.000099
v 2.727036 247.394485 20.000107
v 2.727036 261.191528 20.000107
v 2.727036 229.332138 141.926788
v 1.380066 252.010513 83.091827
v 0.000000 229.332138 141.926788
v 2.727036 249.367249 83.091843
v 3.521057 254.788391 62.075867
v 3.521057 250.289490 96.215851
v 0.000000 238.238785 66.514618
v 1.822205 244.671310 20.000092
v 3.521057 238.238785 66.514618
v -0.000000 252.024490 275.200684
v -0.000000 252.024490 271.803894
v -0.000000 237.676559 271.803894
v -0.000000 235.160782 275.200684
v -0.000000 237.676559 261.475952
v -0.000000 244.574081 260.605927
v -0.000000 246.530777 258.433075
v -0.000000 235.159348 258.435516
v 250.000000 252.024490 275.200684
v 250.000000 252.024490 271.803894
v 250.000000 237.676559 271.803894
v 250.000000 235.160782 275.200684
v 250.000000 237.676559 261.475952
v 250.000000 235.159348 258.435516
v 94.425537 252.951218 276.550629
v 100.844658 253.329620 276.485687
v 94.425537 252.951218 271.010742
v 100.844658 253.329620 270.945801
v 94.425537 236.276581 272.457397
v 100.844376 236.276581 272.457397
v 95.180069 233.321091 276.597168
v 100.842789 233.245010 276.922211
v 94.425537 236.276581 259.800659
v 100.844376 236.276581 259.800659
v 94.425537 233.245010 259.800659
v 100.844376 233.245010 259.800659
v 100.844376 251.199707 271.010742
v 94.425537 251.199707 271.010742
v 100.844376 251.199707 272.457397
v 94.425537 251.199707 272.457397
v 133.332932 252.024490 275.200684
v 133.332932 252.024490 271.803894
v 230.444870 239.325348 271.803894
v 135.992889 234.705750 275.200684
v 74.165268 250.166199 275.200684
v 74.165268 252.024490 271.803894
v 71.485542 241.066696 271.803894
v 71.485542 235.466888 275.200684
v 82.206535 252.024490 275.200684
v 74.165268 252.024490 273.061096
v 69.268806 252.024490 275.200684
v 53.564377 252.024490 275.200684
v 11.892435 249.410004 275.200684
v 9.245308 252.024490 273.147919
v 97.891739 253.573746 276.809875
v 98.043488 253.582596 270.896881
v 99.470901 232.850433 276.727417
v -0.000000 271.783142 20.000092
v 250.000000 271.783142 20.000092
v 250.000000 244.574081 260.605927
v 250.000000 246.530777 258.433075
v 95.226364 246.331070 258.772308
v 106.247238 242.526382 260.605927
v 50.339725 246.245499 258.917664
v 50.462505 243.156464 260.605927
v -0.000000 260.413177 20.000092
v 250.000000 260.413177 20.000092
v 250.000000 268.232269 20.000092
v -0.000000 268.232269 20.000092
vt 0.927614 0.504663
vt 0.927614 0.504663
vt 0.927614 0.504663
vt 0.927614 0.504663
vt 0.927614 0.504663
vt 0.927614 0.504663
vt 0.927614 0.504663
vt 0.927614 0.504663
vt 0.927614 0.504663
vt 0.927614 0.504663
vt 0.927614 0.504663
vt 0.927614 0.504663
vt 0.927614 0.504663
vt 0.927614 0.504663
vt 0.927614 0.504663
vt 0.927614 0.504663
vt 0.927614 0.504663
vt 0.927614 0.504663
vt 0.927614 0.504663
vt 0.927614 0.504663
vt 0.927614 0.504663
vt 0.927614 0.504663
vt 0.927614 0.504663
vt 0.927614 0.504663
vt 0.927614 0.504663
vt 0.927614 0.504663
vt 0.927614 0.504663
vt 0.927614 0.504296
vt 0.927614 0.504296
vt 0.927614 0.504296
vt 0.927614 0.504296
vt 0.927614 0.504296
vt 0.927614 0.504296
vt 0.927614 0.504296
vt 0.927614 0.504296
vt 0.927614 0.504296
vt 0.927614 0.504296
vt 0.927614 0.504296
vt 0.927614 0.504296
vt 0.927614 0.504296
vt 0.927614 0.504296
vt 0.927614 0.504296
vt 0.927614 0.504663
vt 0.927614 0.504663
vt 0.927614 0.504663
vt 0.927614 0.504663
vt 0.927614 0.504663
vt 0.927614 0.504663
vt 0.927614 0.504663
vt 0.927614 0.504663
vt 0.927614 0.504663
vt 0.927614 0.504663
vt 0.927614 0.504663
vt 0.927614 0.504663
vt 0.927614 0.504663
vt 0.927614 0.504663
vt 0.927614 0.504663
vt 0.927614 0.504663
vt 0.927614 0.504663
vt 0.927614 0.504663
vt 0.927614 0.504663
vt 0.927614 0.504663
vt 0.927614 0.504296
vt 0.927614 0.504296
vt 0.927614 0.504296
vt 0.927614 0.504296
vt 0.927614 0.504296
vt 0.927614 0.504296
vt 0.927614 0.504296
vt 0.927614 0.504296
vt 0.927614 0.504296
vt 0.927614 0.504663
vt 0.927614 0.504663
vt 0.927614 0.504663
vt 0.927614 0.504663
vt 0.927614 0.504663
vt 0.927614 0.504663
vt 0.927614 0.504663
vt 0.927614 0.504663
vt 0.927614 0.504663
vt 0.927614 0.504663
vt 0.927614 0.504663
vt 0.927614 0.504663
vt 0.927614 0.504296
vt 0.927614 0.504296
vt 0.927614 0.504296
vt 0.927614 0.504296
vt 0.927614 0.504296
vt 0.927614 0.504296
vt 0.927614 0.504296
vt 0.927614 0.504296
vt 0.927614 0.504296
vt 0.927614 0.504663
vt 0.927614 0.504663
vt 0.927614 0.504663
vt 0.927614 0.504663
vt 0.907915 0.503510
vt 0.907915 0.503510
vt 0.907915 0.503510
vt 0.907915 0.503510
vt 0.907915 0.503510
vt 0.907915 0.503510
vt 0.907915 0.503510
vt 0.907915 0.503510
vt 0.907915 0.503510
vt 0.907915 0.503510
vt 0.907915 0.503510
vt 0.907915 0.503510
vt 0.907915 0.503510
vt 0.907915 0.503510
vt 0.907915 0.503510
vt 0.907915 0.503510
vt 0.907915 0.503510
vt 0.907915 0.503510
vt 0.907915 0.503510
vt 0.907915 0.503510
vt 0.907915 0.503510
vt 0.907915 0.503510
vt 0.907915 0.503510
vt 0.907915 0.503510
vt 0.907915 0.503510
vt 0.907915 0.503510
vt 0.488440 0.401409
vt 0.489100 0.399446
vt 0.489303 0.399451
vt 0.489067 0.400153
vt 0.488855 0.400800
vt 0.488643 0.401415
vt 0.907915 0.503510
vt 0.907915 0.503510
vt 0.907915 0.503510
vt 0.907915 0.503510
vt 0.907915 0.503510
vt 0.907915 0.503510
vt 0.907915 0.503510
vt 0.907915 0.503510
vt 0.907915 0.503510
vt 0.907915 0.503510
vt 0.907915 0.503510
vt 0.907915 0.503510
vt 0.906704 0.504757
vt 0.906638 0.504756
vt 0.907915 0.503510
vt 0.907915 0.503510
vt 0.907915 0.503510
vt 0.907915 0.503510
vt 0.514748 0.547365
vt 0.556222 0.547365
vt 0.593202 0.547365
vt 0.679522 0.547365
vt 0.679522 0.749213
vt 0.514748 0.749213
vt 0.593396 0.544022
vt 0.679522 0.544023
vt 0.556323 0.544022
vt 0.514748 0.544023
vt 0.905811 0.504758
vt 0.906537 0.504872
vt 0.905913 0.504644
vt 0.906670 0.504797
vt 0.906637 0.504830
vt 0.905927 0.504671
vt 0.905927 0.504671
vt 0.905913 0.504670
vt 0.905905 0.504668
vt 0.905897 0.504667
vt 0.905897 0.504667
vt 0.906615 0.505242
vt 0.906615 0.505242
vt 0.906615 0.505242
vt 0.906615 0.505242
vt 0.503675 0.554865
vt 0.503675 0.554865
vt 0.503675 0.554865
vt 0.503675 0.554865
vn -0.009258 -0.998764 0.048835
vn 0.012797 -0.996348 -0.084426
vn -0.009822 -0.998586 0.052249
vn -0.009822 -0.998586 0.052249
vn -0.008896 -0.019256 0.999775
vn 0.010529 0.041006 0.999103
vn -0.007966 -0.016373 0.999834
vn -0.008896 -0.019256 0.999775
vn -0.012637 0.999914 -0.003610
vn 0.013715 0.999706 0.019994
vn 0.013715 0.999706 0.019994
vn 0.011359 0.999776 0.017884
vn 0.007939 -0.009498 -0.999923
vn 0.007939 -0.009498 -0.999923
vn -0.010534 0.035136 -0.999327
vn 0.007313 -0.007985 -0.999941
vn 0.007939 -0.009498 -0.999923
vn 0.003896 -0.027796 0.999606
vn 0.003896 -0.027796 0.999606
vn 0.003896 -0.027796 0.999606
vn 0.003896 -0.027796 0.999606
vn 0.003896 -0.027796 0.999606
vn 0.005009 0.998501 -0.054504
vn 0.005009 0.998501 -0.054504
vn 0.005009 0.998501 -0.054504
vn 0.005009 0.998501 -0.054504
vn 0.005009 0.998501 -0.054504
vn 0.004360 0.019002 -0.999810
vn 0.004360 0.019002 -0.999810
vn 0.004360 0.019002 -0.999810
vn 0.004360 0.019002 -0.999810
vn 0.004360 0.019002 -0.999810
vn 0.005562 -0.999290 0.037264
vn 0.005562 -0.999290 0.037264
vn 0.005562 -0.999290 0.037264
vn 0.005562 -0.999290 0.037264
vn 0.005562 -0.999290 0.037264
vn -0.070731 0.477145 0.875974
vn -0.070731 0.477145 0.875974
vn -0.070731 0.477145 0.875974
vn 0.112838 0.475281 0.872568
vn 0.112838 0.475281 0.872568
vn 0.112838 0.475281 0.872568
vn -0.041333 -0.516064 -0.855552
vn -0.041333 -0.516064 -0.855552
vn -0.041333 -0.516064 -0.855552
vn 0.067587 -0.515327 -0.854324
vn 0.067587 -0.515327 -0.854324
vn 0.067587 -0.515327 -0.854324
vn -0.043839 -0.496562 -0.866894
vn -0.043839 -0.496562 -0.866894
vn -0.043839 -0.496562 -0.866894
vn -0.010534 0.035136 -0.999327
vn -0.014086 0.043715 -0.998945
vn -0.014086 0.043715 -0.998945
vn 0.007313 -0.007985 -0.999941
vn -0.012637 0.999914 -0.003610
vn 0.011359 0.999776 0.017884
vn -0.016596 0.999837 -0.007157
vn -0.016596 0.999837 -0.007157
vn 0.010529 0.041006 0.999103
vn 0.012238 0.046309 0.998852
vn 0.012238 0.046309 0.998852
vn -0.007966 -0.016373 0.999834
vn -0.009258 -0.998764 0.048835
vn 0.014127 -0.995616 -0.092458
vn 0.014127 -0.995616 -0.092458
vn 0.012797 -0.996348 -0.084426
vn 0.048835 -0.998764 0.009258
vn -0.084426 -0.996348 -0.012797
vn 0.052249 -0.998586 0.009822
vn 0.052249 -0.998586 0.009822
vn -0.999923 -0.009498 -0.007939
vn -0.999923 -0.009498 -0.007939
vn -0.999327 0.035136 0.010534
vn -0.999941 -0.007985 -0.007313
vn -0.999923 -0.009498 -0.007939
vn -0.999810 0.019002 -0.004360
vn -0.999810 0.019002 -0.004360
vn -0.999810 0.019002 -0.004360
vn -0.999810 0.019002 -0.004360
vn -0.999810 0.019002 -0.004360
vn 0.037264 -0.999290 -0.005562
vn 0.037264 -0.999290 -0.005562
vn 0.037264 -0.999290 -0.005562
vn 0.037264 -0.999290 -0.005562
vn 0.037264 -0.999290 -0.005562
vn -0.855552 -0.516064 0.041333
vn -0.855552 -0.516064 0.041333
vn -0.855552 -0.516064 0.041333
vn -0.854324 -0.515327 -0.067587
vn -0.854324 -0.515327 -0.067587
vn -0.854324 -0.515327 -0.067587
vn -0.866894 -0.496562 0.043839
vn -0.866894 -0.496562 0.043839
vn -0.866894 -0.496562 0.043839
vn -0.999327 0.035136 0.010534
vn -0.998945 0.043715 0.014086
vn -0.998945 0.043715 0.014086
vn -0.999941 -0.007985 -0.007313
vn 0.048835 -0.998764 0.009258
vn -0.092458 -0.995616 -0.014127
vn -0.092458 -0.995616 -0.014127
vn -0.084426 -0.996348 -0.012797
vn 0.048835 -0.998764 0.009258
vn -0.084426 -0.996348 -0.012797
vn 0.052249 -0.998586 0.009822
vn 0.052249 -0.998586 0.009822
vn 0.999775 -0.019256 0.008896
vn 0.999103 0.041006 -0.010529
vn 0.999834 -0.016373 0.007966
vn 0.999775 -0.019256 0.008896
vn 0.999606 -0.027796 -0.003896
vn 0.999606 -0.027796 -0.003896
vn 0.999606 -0.027796 -0.003896
vn 0.999606 -0.027796 -0.003896
vn 0.999606 -0.027796 -0.003896
vn 0.037264 -0.999290 -0.005562
vn 0.037264 -0.999290 -0.005562
vn 0.037264 -0.999290 -0.005562
vn 0.037264 -0.999290 -0.005562
vn 0.875974 0.477145 0.070731
vn 0.875974 0.477145 0.070731
vn 0.875974 0.477145 0.070731
vn 0.872568 0.475281 -0.112838
vn 0.872568 0.475281 -0.112838
vn 0.872568 0.475281 -0.112838
vn 0.662705 -0.742070 -0.100770
vn 0.662705 -0.742070 -0.100770
vn 0.662705 -0.742070 -0.100770
vn 0.999103 0.041006 -0.010529
vn 0.998852 0.046309 -0.012238
vn 0.998852 0.046309 -0.012238
vn 0.999834 -0.016373 0.007966
vn 0.048835 -0.998764 0.009258
vn -0.092458 -0.995616 -0.014127
vn -0.092458 -0.995616 -0.014127
vn -0.084426 -0.996348 -0.012797
vn -0.174262 0.984698 -0.001549
vn -0.174262 0.984698 -0.001549
vn -0.174262 0.984698 -0.001549
vn -0.174262 0.984698 -0.001549
vn -0.004043 -0.033055 -0.999445
vn -0.004043 -0.033055 -0.999445
vn -0.004043 -0.033055 -0.999445
vn -0.004043 -0.033055 -0.999445
vn -0.004043 -0.033055 -0.999445
vn 0.110875 0.021585 0.993600
vn 0.110875 0.021585 0.993600
vn 0.110875 0.021585 0.993600
vn 1.000000 -0.000051 0.000148
vn 1.000000 -0.000051 0.000148
vn 1.000000 -0.000051 0.000148
vn 1.000000 -0.000051 0.000148
vn -1.000000 0.000000 0.000000
vn -1.000000 0.000000 0.000000
vn -1.000000 0.000000 0.000000
vn -1.000000 0.000000 0.000000
vn 0.000000 1.000000 0.000000
vn 0.000000 1.000000 0.000000
vn 0.000000 1.000000 0.000000
vn 0.000000 1.000000 0.000000
vn 0.276407 -0.961041 0.000027
vn 0.276407 -0.961041 0.000027
vn 0.276407 -0.961041 0.000027
vn 1.000000 -0.000224 0.000053
vn 1.000000 -0.000224 0.000053
vn 1.000000 -0.000224 0.000053
vn 1.000000 -0.000224 0.000053
vn -0.993877 -0.107457 0.025738
vn -0.993877 -0.107457 0.025738
vn -0.993877 -0.107457 0.025738
vn -0.993877 -0.107457 0.025738
vn 0.000000 -1.000000 0.000000
vn 0.000000 -1.000000 0.000000
vn 0.000000 -1.000000 0.000000
vn 0.000000 -1.000000 0.000000
vn 0.000000 0.000000 -1.000000
vn 0.000000 0.000000 -1.000000
vn 0.000000 0.000000 -1.000000
vn 0.000000 0.000000 -1.000000
vn -0.995876 -0.021628 0.088107
vn -0.995876 -0.021628 0.088107
vn -0.995876 -0.021628 0.088107
vn -0.995876 -0.021628 0.088107
vn 1.000000 -0.000131 0.000000
vn 1.000000 -0.000131 0.000000
vn 1.000000 -0.000131 0.000000
vn 1.000000 -0.000131 0.000000
vn 0.392684 0.195470 0.898660
vn 0.392684 0.195470 0.898660
vn 0.392684 0.195470 0.898660
vn 0.000000 0.000000 -1.000000
vn 0.000000 0.000000 -1.000000
vn 0.000000 0.000000 -1.000000
vn 0.000000 0.000000 -1.000000
vn 0.000000 0.982345 -0.187078
vn 0.000000 0.982345 -0.187078
vn 0.000000 0.982345 -0.187078
vn 0.000000 0.982345 -0.187078
vn 0.000000 0.982345 -0.187078
vn 0.000000 0.982345 -0.187078
vn 0.003490 -0.999994 0.000810
vn 0.003490 -0.999994 0.000810
vn 0.003490 -0.999994 0.000810
vn 0.000000 1.000000 0.000001
vn 0.000000 1.000000 0.000001
vn 0.000000 1.000000 0.000001
vn 0.000000 1.000000 0.000001
vn 0.000000 0.000000 -1.000000
vn 0.000000 0.000000 -1.000000
vn 0.000000 0.000000 -1.000000
vn 0.000000 0.000000 1.000000
vn 0.000000 0.000000 1.000000
vn 0.000000 0.000000 1.000000
vn 0.000000 0.000000 1.000000
vn -0.251631 0.205705 0.945710
vn -0.251631 0.205705 0.945710
vn -0.251631 0.205705 0.945710
vn 0.000000 0.000000 -1.000000
vn 0.000000 0.000000 -1.000000
vn 0.000000 0.000000 -1.000000
vn 0.000000 0.000000 -1.000000
vn 0.000000 0.000000 1.000000
vn 0.000000 0.000000 1.000000
vn 0.000000 0.000000 1.000000
vn 0.000000 0.000000 1.000000
vn 0.000000 0.000000 1.000000
vn 0.000000 1.000000 0.000000
vn 0.000000 1.000000 0.000000
vn 0.000000 1.000000 0.000000
vn 0.000000 1.000000 0.000000
vn 0.000000 1.000000 0.000000
vn 0.000000 1.000000 -0.000002
vn 0.000000 1.000000 -0.000002
vn 0.000000 1.000000 -0.000002
vn 0.000000 1.000000 -0.000002
vn 0.000000 1.000000 -0.000002
vn 0.000000 1.000000 -0.000002
vn 0.000000 1.000000 -0.000002
vn -0.037237 0.593525 0.803954
vn -0.037237 0.593525 0.803954
vn -0.037237 0.593525 0.803954
vn 0.000000 0.000000 -1.000000
vn 0.000000 0.000000 -1.000000
vn 0.000000 0.000000 -1.000000
vn 0.000000 0.000000 1.000000
vn 0.000000 0.000000 1.000000
vn 0.000000 0.000000 1.000000
vn 0.000000 0.000000 1.000000
vn 0.000000 0.000000 1.000000
vn 0.000000 0.000000 1.000000
vn 0.000000 0.000000 1.000000
vn 0.000000 0.000000 1.000000
vn 0.000000 0.000000 1.000000
vn 0.060769 0.653742 0.754274
vn 0.060769 0.653742 0.754274
vn 0.060769 0.653742 0.754274
vn 0.000000 0.000000 -1.000000
vn 0.000000 0.000000 -1.000000
vn 0.000000 0.000000 -1.000000
vn 0.000000 0.000000 -1.000000
vn -0.050065 -0.003785 0.998739
vn -0.050065 -0.003785 0.998739
vn -0.050065 -0.003785 0.998739
vn -0.050065 -0.003785 0.998739
vn 0.086161 0.996279 0.001913
vn 0.086161 0.996279 0.001913
vn 0.086161 0.996279 0.001913
vn 0.086161 0.996279 0.001913
vn -0.136542 -0.014345 0.990530
vn -0.136542 -0.014345 0.990530
vn -0.136542 -0.014345 0.990530
vn -0.043778 -0.998989 -0.010240
vn -0.043778 -0.998989 -0.010240
vn -0.043778 -0.998989 -0.010240
vn -0.043778 -0.998989 -0.010240
vn 0.000000 0.990578 0.136948
vn 0.000000 0.990578 0.136948
vn 0.000000 0.990578 0.136948
vn 0.000000 0.990578 0.136948
vn 0.000000 0.990578 0.136948
vn 0.000000 0.990578 0.136948
vn -0.004427 0.565197 0.824944
vn -0.004427 0.565197 0.824944
vn -0.004427 0.565197 0.824944
vn -0.004427 0.565197 0.824944
vn 0.003769 0.459774 0.888028
vn 0.003769 0.459774 0.888028
vn 0.003769 0.459774 0.888028
vn 0.003769 0.459774 0.888028
vn 0.005114 0.607782 0.794088
vn 0.005114 0.607782 0.794088
vn 0.005114 0.607782 0.794088
vn 0.005114 0.607782 0.794088
vn 0.000000 -0.990655 -0.136391
vn 0.000000 -0.990655 -0.136391
vn 0.000000 -0.990655 -0.136391
vn 0.000000 -0.990655 -0.136391
vn -0.000827 -0.999995 -0.003044
vn -0.000827 -0.999995 -0.003044
vn -0.000827 -0.999995 -0.003044
vn -0.000827 -0.999995 -0.003044
vn -0.000827 -0.999995 -0.003044
vn 0.000097 0.151772 0.988416
vn 0.000097 0.151772 0.988416
vn 0.000097 0.151772 0.988416
vn 0.000097 0.151772 0.988416
vn 0.000097 0.151772 0.988416
vn 0.000097 0.151772 0.988416
vn 0.000000 0.000000 -1.000000
vn 0.000000 0.000000 -1.000000
vn 0.000000 0.000000 -1.000000
vn 0.000000 0.000000 -1.000000
vn 0.000000 0.000000 -1.000000
vn 0.000000 0.000000 -1.000000
vn 0.000000 0.000000 -1.000000
vn 0.000000 0.000000 -1.000000
s off
f 17/3/1 21/4/2 9/5/3 12/6/4
f 9/5/5 21/4/6 14/7/7 13/8/8
f 14/7/9 7/9/10 8/10/11 20/11/12
f 5/12/13 17/13/14 19/14/15 20/15/16 8/16/17
f 1/17/18 9/5/19 13/8/20 15/18/21 2/19/22
f 2/19/23 15/18/24 10/20/25 11/21/26 4/22/27
f 18/23/28 3/1/29 4/2/30 11/24/31 16/25/32
f 3/26/33 18/27/34 12/6/35 9/5/36 1/17/37
f 14/28/38 10/29/39 13/30/40
f 13/31/41 10/32/42 15/33/43
f 12/34/44 16/35/45 19/36/46
f 12/37/47 18/38/48 16/39/49
f 17/40/50 12/41/51 19/42/52
f 19/14/53 16/25/54 11/24/55 20/15/56
f 14/7/57 20/11/58 11/21/59 10/20/60
f 21/4/61 6/43/62 7/9/63 14/7/64
f 17/3/65 5/44/66 6/45/67 21/4/68
f 29/48/69 33/49/70 25/50/71 27/51/72
f 22/52/73 29/53/74 31/54/75 32/55/76 24/56/77
f 30/58/78 5/46/79 8/47/80 26/59/81 28/60/82
f 5/61/83 30/62/84 27/51/85 25/50/86 6/57/87
f 27/63/88 28/64/89 31/65/90
f 27/66/91 30/67/92 28/68/93
f 29/69/94 27/70/95 31/71/96
f 31/54/97 28/60/98 26/59/99 32/55/100
f 29/48/101 22/72/102 23/73/103 33/49/104
f 43/74/105 45/75/106 37/76/107 39/77/108
f 37/76/109 45/75/110 41/78/111 40/79/112
f 3/80/113 37/76/114 40/79/115 42/81/116 4/82/117
f 1/83/118 39/77/119 37/76/120 3/80/121
f 41/84/122 38/85/123 40/86/124
f 40/87/125 38/88/126 42/89/127
f 44/90/128 35/91/129 45/92/130
f 45/75/131 35/93/132 36/94/133 41/78/134
f 43/74/135 34/95/136 44/96/137 45/75/138
f 60/97/139 90/98/140 91/99/141 62/100/142
f 62/100/143 91/99/144 63/101/145 72/102/146 73/103/147
f 90/98/148 67/104/149 61/105/150
f 61/105/151 67/104/152 65/106/153 74/107/154
f 75/108/155 60/97/156 62/100/157 73/103/158
f 64/109/159 65/106/160 69/110/161 68/111/162
f 92/112/163 71/113/164 67/104/165
f 67/104/166 71/113/167 69/110/168 65/106/169
f 70/114/170 66/115/171 64/109/172 68/111/173
f 73/103/174 72/102/175 74/107/176 75/108/177
f 75/108/178 74/107/179 65/106/180 64/109/181
f 66/115/182 60/97/183 75/108/184 64/109/185
f 61/105/186 74/107/187 72/102/188 63/101/189
f 85/116/190 86/117/191 80/118/192
f 82/119/193 48/120/194 47/121/195 81/122/196
f 58/123/197 50/124/198 48/125/199 82/126/200 78/127/201 56/128/202
f 83/129/203 49/130/204 53/131/205
f 55/132/206 77/133/207 76/134/208 54/135/209
f 56/136/210 78/137/211 55/132/212
f 54/135/213 76/134/214 79/138/215 57/139/216
f 84/140/217 85/116/218 80/118/219
f 78/137/220 82/119/221 81/122/222 77/133/223
f 79/138/224 76/134/225 84/140/226 80/118/227 83/129/228
f 77/133/229 81/122/230 85/116/231 84/140/232 76/134/233
f 81/122/234 47/121/235 46/143/236 89/144/237 87/145/238 86/117/239 85/116/240
f 89/144/241 88/146/242 87/145/243
f 55/132/244 78/137/245 77/133/246
f 83/129/247 80/118/248 86/117/249 87/145/250 88/146/251 49/130/252
f 49/130/253 88/146/254 46/143/255
f 46/143/256 88/146/257 89/144/258
f 71/113/259 70/114/260 68/111/261 69/110/262
f 66/115/263 92/112/264 90/98/265 60/97/266
f 91/99/267 90/98/268 61/105/269 63/101/270
f 90/98/271 92/112/272 67/104/273
f 70/114/274 71/113/275 92/112/276 66/115/277
f 52/147/278 99/148/279 97/149/280 96/150/281 94/151/282 93/152/283
f 97/149/284 98/153/285 95/154/286 96/150/287
f 99/148/288 100/155/289 98/153/290 97/149/291
f 51/156/292 100/155/293 99/148/294 52/147/295
f 102/159/296 59/142/297 53/158/298 101/157/299
f 79/160/300 83/161/301 53/158/302 59/142/303 57/141/304
f 58/162/305 95/163/306 98/164/307 100/165/308 51/166/309 50/167/310
f 102/168/311 101/169/312 104/170/313 103/171/314
f 103/172/315 104/173/316 93/174/317 94/175/318
