# This file uses meters as units for non-parametric coordinates.

v -11.215942 243.648895 -349.999939
v -11.215942 208.841949 -300.000061
v -11.215942 261.052277 -375.000061
v -11.215942 226.245453 -325.000000
v -11.215942 191.438431 -274.999908
v -11.215942 261.052277 -351.082336
v -11.215942 226.245453 -301.082245
v -11.215942 191.438431 -250.000000
v -11.215942 243.648972 -326.082397
v -11.215942 208.841949 -276.082336
v -11.215942 280.849365 -376.082275
v -11.215942 280.790314 -250.000000
v -11.215942 280.790344 -400.000000
v -11.215942 494.651764 -249.999985
v -11.215942 494.651825 -401.082397
v 0.000000 69.613976 -100.000145
v 0.000000 34.807018 -50.000069
v 0.000000 121.824440 -174.999969
v 0.000000 87.017509 -124.999908
v 0.000000 52.210484 -75.000000
v 0.000000 17.403498 -25.000122
v 0.000000 121.824440 -151.082397
v 0.000000 87.017540 -101.082359
v 0.000000 52.210484 -51.082466
v 0.000000 17.403498 -1.082382
v 0.000000 139.227951 -176.082336
v 0.000000 69.614037 -76.082397
v 0.000000 34.807018 -26.082329
v 0.000000 494.651825 -251.082367
v 0.000000 280.790314 -0.000000
v 0.000000 104.421021 -150.000031
v 0.000000 104.421021 -126.082466
v -11.215942 -0.000009 -0.000000
v 0.000000 -0.000009 -0.000000
v -11.215942 280.790314 -0.000000
v -11.215942 -0.000009 -250.000000
v -11.215942 280.790314 -0.000000
v 0.000000 174.035019 -250.000000
v 0.000000 156.631516 -201.082489
v 0.000000 139.227951 -199.999908
v 0.000000 174.035019 -226.082245
v 0.000000 156.631516 -225.000061
v 0.000000 191.438431 -251.082367
v 0.000000 280.805084 -251.039764
v -0.000000 243.648895 -349.999939
v 0.000000 208.841949 -300.000061
v 0.000000 261.052277 -375.000061
v 0.000000 226.245453 -325.000000
v -0.000000 191.438431 -274.999908
v -0.000000 261.052277 -351.082336
v 0.000000 226.245453 -301.082245
v 0.000000 243.648972 -326.082397
v -0.000000 208.841949 -276.082336
v 0.000000 280.849365 -376.082275
v 0.000000 280.790344 -400.000000
v -0.000000 494.651825 -401.082397
vt 0.355359 0.920842
vt 0.370339 0.935058
vt 0.370339 0.920842
vt 0.384430 0.949192
vt 0.384430 0.935058
vt 0.398619 0.963410
vt 0.398619 0.949192
vt 0.412878 0.977608
vt 0.412878 0.963410
vt 0.426466 0.993600
vt 0.426466 0.977608
vt 0.355359 0.993600
vt 0.458233 0.780842
vt 0.493977 0.780842
vt 0.472882 0.765846
vt 0.182900 0.780842
vt 0.174589 0.766342
vt 0.182900 0.766342
vt 0.422599 0.780842
vt 0.437885 0.765630
vt 0.386791 0.780842
vt 0.402661 0.765396
vt 0.350538 0.780842
vt 0.367286 0.765136
vt 0.314582 0.780842
vt 0.333984 0.764484
vt 0.278187 0.780842
vt 0.293652 0.765022
vt 0.239732 0.780842
vt 0.260899 0.764614
vt 0.279536 0.993535
vt 0.200980 0.780842
vt 0.169496 0.765903
vt 0.169496 0.993535
vt 0.355264 0.993535
vt 0.355264 0.765903
vt 0.182900 0.993535
vt 0.174589 0.993535
vt 0.174589 0.993535
vt 0.162229 0.780842
vt 0.177577 0.764727
vt 0.216329 0.765140
vt 0.123361 0.780842
vt 0.138825 0.764313
vt 0.493259 0.993535
vt 0.258740 0.841934
vt 0.070947 0.993535
vt 0.045311 0.854299
vt 0.355264 0.921099
vt 0.458213 0.780297
vt 0.493958 0.780792
vt 0.472882 0.765846
vt 0.422630 0.780035
vt 0.437884 0.765630
vt 0.386901 0.779837
vt 0.402661 0.765396
vt 0.351200 0.779615
vt 0.367286 0.765136
vt 0.313062 0.781440
vt 0.333984 0.764484
vt 0.419229 0.853878
vt 0.244609 0.984790
vt 0.309306 0.790079
vt 0.289489 0.778907
vt 0.114855 0.912093
vt 0.406625 0.848167
vt 0.182341 0.991299
vt 0.011822 0.751673
vt 0.039011 0.751739
vt 0.010591 0.991298
vt 0.182341 0.751673
vt 0.466539 0.751673
vn -1.000000 -0.000000 0.000000
vn -1.000000 -0.000000 0.000000
vn -1.000000 -0.000000 0.000000
vn -1.000000 0.000000 0.000000
vn -1.000000 0.000000 0.000000
vn -1.000000 0.000000 0.000000
vn -1.000000 0.000000 0.000000
vn -1.000000 0.000000 0.000000
vn -1.000000 0.000000 0.000000
vn -1.000000 0.000000 0.000000
vn -1.000000 0.000000 0.000000
vn -1.000000 0.000000 0.000000
vn -1.000000 0.000000 0.000000
vn -1.000000 0.000000 0.000000
vn -1.000000 0.000000 0.000000
vn -1.000000 0.000000 0.000000
vn -1.000000 0.000000 0.000000
vn -1.000000 0.000000 0.000000
vn -1.000000 -0.000000 0.000000
vn -1.000000 -0.000000 0.000000
vn -1.000000 -0.000000 0.000000
vn -1.000000 0.000000 0.000000
vn -1.000000 0.000000 0.000000
vn -1.000000 0.000000 0.000000
vn -1.000000 0.000000 0.000000
vn -1.000000 0.000000 0.000000
vn -1.000000 0.000000 0.000000
vn -1.000000 0.000000 0.000000
vn -1.000000 0.000000 0.000000
vn -1.000000 0.000000 0.000000
vn -1.000000 0.000000 0.000000
vn -1.000000 0.000000 0.000000
vn -1.000000 0.000000 0.000000
vn -1.000000 0.000000 0.000000
vn -1.000000 0.000000 0.000000
vn -1.000000 0.000000 0.000000
vn -1.000000 0.000000 0.000000
vn -1.000000 0.000000 0.000000
vn -1.000000 0.000000 0.000000
vn 1.000000 0.000000 0.000000
vn 1.000000 0.000000 0.000000
vn 1.000000 0.000000 0.000000
vn 0.000000 0.062073 0.998072
vn 0.000000 0.062073 0.998072
vn 0.000000 0.062073 0.998072
vn 1.000000 -0.000000 0.000000
vn 1.000000 -0.000000 0.000000
vn 1.000000 -0.000000 0.000000
vn 1.000000 0.000000 0.000000
vn 1.000000 0.000000 0.000000
vn 1.000000 0.000000 0.000000
vn 1.000000 0.000000 0.000000
vn 1.000000 0.000000 0.000000
vn 1.000000 0.000000 0.000000
vn 1.000000 0.000000 0.000000
vn 1.000000 0.000000 0.000000
vn 1.000000 0.000000 0.000000
vn 1.000000 0.000000 0.000000
vn 1.000000 0.000000 0.000000
vn 1.000000 0.000000 0.000000
vn 1.000000 0.000000 0.000000
vn 1.000000 0.000000 0.000000
vn 1.000000 0.000000 0.000000
vn 1.000000 -0.000000 0.000000
vn 1.000000 -0.000000 0.000000
vn 1.000000 -0.000000 0.000000
vn 1.000000 0.000000 -0.000000
vn 1.000000 0.000000 -0.000000
vn 1.000000 0.000000 -0.000000
vn 1.000000 0.000000 0.000000
vn 1.000000 0.000000 0.000000
vn 1.000000 0.000000 0.000000
vn 1.000000 0.000000 0.000000
vn 1.000000 0.000000 0.000000
vn 1.000000 0.000000 0.000000
vn 1.000000 0.000000 0.000000
vn 1.000000 0.000000 0.000000
vn 1.000000 0.000000 0.000000
vn 1.000000 0.000000 0.000000
vn 1.000000 0.000000 0.000000
vn 1.000000 0.000000 0.000000
vn 1.000000 0.000000 0.000000
vn 1.000000 0.000000 0.000000
vn 1.000000 0.000000 0.000000
vn 1.000000 0.000000 0.000000
vn 1.000000 0.000000 0.000000
vn 1.000000 0.000000 0.000000
vn -1.000000 0.000000 0.000000
vn -1.000000 0.000000 0.000000
vn -1.000000 0.000000 0.000000
vn 0.000000 0.000000 1.000000
vn 0.000000 0.000000 0.000000
vn 0.000000 0.000000 0.000000
vn 0.000000 0.000000 1.000000
vn 0.102339 -0.004088 0.994741
vn 0.102339 -0.004088 0.994741
vn 0.102339 -0.004088 0.994741
vn 1.000000 0.000000 0.000000
vn 1.000000 0.000000 0.000000
vn 1.000000 0.000000 0.000000
vn 1.000000 0.000000 0.000000
vn 1.000000 0.000000 0.000000
vn 1.000000 0.000000 0.000000
vn 1.000000 0.000000 0.000000
vn 1.000000 0.000000 0.000000
vn 1.000000 0.000000 0.000000
vn 1.000000 0.000000 0.000000
vn 1.000000 0.000000 0.000000
vn 1.000000 0.000000 0.000000
vn 1.000000 0.000000 0.000000
vn 1.000000 0.000000 0.000000
vn 1.000000 0.000000 0.000000
vn 1.000000 0.000000 0.000000
vn 1.000000 0.000000 0.000000
vn 1.000000 0.000000 0.000000
vn -1.000000 0.000000 0.000000
vn -1.000000 0.000000 0.000000
vn -1.000000 0.000000 0.000000
vn 1.000000 0.000000 0.000000
vn 1.000000 0.000000 0.000000
vn 1.000000 0.000000 0.000000
vn -1.000000 0.000000 0.000000
vn -1.000000 0.000000 0.000000
vn -1.000000 0.000000 0.000000
vn -1.000000 0.000000 0.000000
vn -1.000000 0.000000 0.000000
vn -1.000000 0.000000 0.000000
vn 1.000000 -0.000000 -0.000000
vn 1.000000 -0.000000 -0.000000
vn 1.000000 -0.000000 -0.000000
vn 1.000000 0.000000 0.000000
vn 1.000000 0.000000 0.000000
vn 1.000000 0.000000 0.000000
vn 1.000000 0.000000 0.000000
vn 1.000000 0.000000 0.000000
vn 1.000000 0.000000 0.000000
vn 1.000000 -0.000000 -0.000000
vn 1.000000 -0.000000 -0.000000
vn 1.000000 -0.000000 -0.000000
vn 1.000000 0.000000 0.000000
vn 1.000000 0.000000 0.000000
vn 1.000000 0.000000 0.000000
vn 1.000000 -0.000000 0.000000
vn 1.000000 -0.000000 0.000000
vn 1.000000 -0.000000 0.000000
vn 1.000000 0.000000 0.000000
vn 1.000000 0.000000 0.000000
vn 1.000000 0.000000 0.000000
vn 1.000000 0.000000 -0.000000
vn 1.000000 0.000000 -0.000000
vn 1.000000 0.000000 -0.000000
vn 1.000000 -0.000000 -0.000000
vn 1.000000 -0.000000 -0.000000
vn 1.000000 -0.000000 -0.000000
vn 1.000000 0.000000 -0.000000
vn 1.000000 0.000000 -0.000000
vn 1.000000 0.000000 -0.000000
vn 1.000000 -0.000000 0.000000
vn 1.000000 -0.000000 0.000000
vn 1.000000 -0.000000 0.000000
vn 1.000000 0.000000 -0.000000
vn 1.000000 0.000000 -0.000000
vn 1.000000 0.000000 -0.000000
vn 1.000000 0.000000 0.000000
vn 1.000000 0.000000 0.000000
vn 1.000000 0.000000 0.000000
s off
f 10/2/1 5/3/2 8/1/3
f 7/4/4 2/5/5 10/2/6
f 9/6/7 4/7/8 7/4/9
f 6/8/10 1/9/11 9/6/12
f 11/10/13 3/11/14 6/8/15
f 12/12/16 7/4/17 10/2/18
f 12/12/19 9/6/20 7/4/21
f 12/12/22 6/8/23 9/6/24
f 11/10/25 6/8/26 12/12/27
f 12/12/28 10/2/29 8/1/30
f 14/67/31 13/68/32 11/69/33
f 14/67/34 15/70/35 13/68/36
f 14/67/37 11/69/38 12/71/39
f 28/13/40 25/14/41 21/15/42
f 25/16/43 33/17/44 34/18/45
f 24/19/46 28/13/47 17/20/48
f 27/21/49 24/19/50 20/22/51
f 23/23/52 27/21/53 16/24/54
f 32/25/55 23/23/56 19/26/57
f 22/27/58 32/25/59 31/28/60
f 26/29/61 22/27/62 18/30/63
f 30/31/64 28/13/65 24/19/66
f 30/31/67 24/19/68 27/21/69
f 30/31/70 27/21/71 23/23/72
f 30/31/73 23/23/74 32/25/75
f 30/31/76 32/25/77 22/27/78
f 30/31/79 22/27/80 26/29/81
f 30/31/82 26/29/83 39/32/84
f 30/31/85 25/14/86 28/13/87
f 8/49/88 37/34/89 12/35/90
f 30/37/91 35/38/92 37/39/93 33/17/94
f 30/37/95 33/17/96 25/16/97
f 41/40/98 39/32/99 42/41/100
f 39/32/101 26/29/102 40/42/103
f 43/43/104 41/40/105 38/44/106
f 30/31/107 39/32/108 41/40/109
f 30/31/110 41/40/111 43/43/112
f 30/45/113 44/46/114 29/47/115
f 12/71/116 37/72/117 14/67/118
f 30/31/119 43/43/120 44/48/121
f 33/33/122 37/34/123 8/49/124
f 33/33/125 8/49/126 36/36/127
f 53/50/128 43/51/129 49/52/130
f 51/53/131 53/50/132 46/54/133
f 52/55/134 51/53/135 48/56/136
f 50/57/137 52/55/138 45/58/139
f 54/59/140 50/57/141 47/60/142
f 44/61/143 53/50/144 51/53/145
f 44/61/146 51/53/147 52/55/148
f 44/61/149 52/55/150 50/57/151
f 54/59/152 44/61/153 50/57/154
f 44/61/155 43/51/156 53/50/157
f 29/62/158 54/63/159 55/64/160
f 29/62/161 55/64/162 56/65/163
f 29/62/164 44/66/165 54/63/166
