# This file uses meters as units for non-parametric coordinates.

v -510.399780 0.000008 405.025146
v -510.399780 16.177444 405.025146
v 510.399902 16.177444 -391.485840
v 510.399902 16.177444 405.025391
v 510.399902 0.000000 -405.025391
v 510.399902 0.000008 405.025146
v -510.399658 0.000000 -405.025391
v -510.399658 16.177444 -405.025391
v -241.310791 16.177444 405.025146
v -76.112793 16.177444 405.025146
v -149.489990 16.177444 386.882813
v -151.300049 11.365479 405.025146
v -36.442383 16.177444 405.025146
v 12.203125 16.177444 405.025146
v -13.210205 16.177444 394.846191
v -14.114990 12.860367 405.025146
v 378.997559 16.177444 405.025391
v 441.214111 16.177444 405.025146
v 414.449951 16.177444 399.562988
v 414.879395 10.542206 405.025146
v -510.399658 16.177444 288.602539
v -510.399658 16.177444 341.750977
v -503.784912 16.177444 326.936523
v -510.399780 10.624176 329.099609
v 510.399902 8.690414 -405.025391
v 498.499512 16.177444 -405.025391
v 198.617676 16.177444 -405.025391
v 256.181885 16.177444 -405.025391
v 224.681885 16.177444 -399.543213
v 224.660645 11.486992 -405.025391
v 510.399902 16.177444 -144.730957
v 510.399902 16.177444 -84.339355
v 503.021729 16.177444 -119.023926
v 510.399902 10.134262 -112.304688
v 0.000000 0.000008 405.025146
vt 0.102327 0.304287
vt 0.102327 0.304287
vt 0.102327 0.304287
vt 0.102327 0.304287
vt 0.102327 0.304287
vt 0.102327 0.304287
vt 0.102327 0.304287
vt 0.102327 0.304287
vt 0.102326 0.304287
vt 0.102326 0.304287
vt 0.102327 0.304287
vt 0.102327 0.304287
vt 0.102327 0.304287
vt 0.102327 0.304287
vt 0.102327 0.304287
vt 0.102327 0.304287
vt 0.102327 0.304287
vt 0.102327 0.304287
vt 0.102327 0.304287
vt 0.102326 0.304287
vt 0.102327 0.304287
vt 0.102327 0.304287
vt 0.102327 0.304287
vt 0.102327 0.304287
vt 0.102327 0.304287
vt 0.102327 0.304287
vt 0.102326 0.304287
vt 0.102326 0.304287
vt 0.102327 0.304287
vt 0.102327 0.304287
vt 0.102327 0.304287
vt 0.102327 0.304287
vt 0.102327 0.304287
vt 0.102327 0.304287
vt 0.102327 0.304287
vt 0.102327 0.304287
vt 0.102327 0.304287
vt 0.102327 0.304287
vt 0.102327 0.304287
vt 0.102327 0.304287
vt 0.102327 0.304287
vt 0.102327 0.304287
vt 0.102327 0.304287
vt 0.102326 0.304287
vt 0.102327 0.304287
vt 0.102327 0.304287
vt 0.102327 0.304287
vt 0.102327 0.304287
vt 0.102327 0.304287
vt 0.102327 0.304287
vt 0.102327 0.304287
vt 0.102327 0.304287
vt 0.102327 0.304287
vt 0.102327 0.304287
vt 0.102327 0.304287
vt 0.102327 0.304287
vt 0.102327 0.304287
vn -1.000000 0.000004 -0.000000
vn -1.000000 0.000004 -0.000000
vn -1.000000 0.000001 -0.000000
vn 0.000000 0.000000 -1.000000
vn 0.000000 0.000000 -1.000000
vn 0.000000 0.000000 -1.000000
vn 0.000000 0.000000 -1.000000
vn 0.000000 0.000000 -1.000000
vn 0.000000 -1.000000 0.000000
vn 0.000000 -1.000000 0.000000
vn 0.000000 -1.000000 0.000000
vn 0.000000 1.000000 0.000000
vn 0.000000 1.000000 0.000000
vn 0.000000 1.000000 0.000000
vn 0.000000 1.000000 0.000000
vn 0.000000 1.000000 0.000000
vn 0.000000 1.000000 0.000000
vn 0.000000 -1.000000 0.000000
vn 0.000000 -1.000000 0.000000
vn 0.000000 -1.000000 0.000000
vn 0.051536 0.964008 0.260830
vn 0.051536 0.964008 0.260830
vn 0.051536 0.964008 0.260830
vn -0.061839 0.966241 0.250110
vn -0.061839 0.966241 0.250110
vn -0.061839 0.966241 0.250110
vn 0.139325 0.937801 0.317991
vn 0.139325 0.937801 0.317991
vn 0.139325 0.937801 0.317991
vn -0.119366 0.947068 0.298017
vn -0.119366 0.947068 0.298017
vn -0.119366 0.947068 0.298017
vn 0.109327 0.696105 0.709567
vn 0.109327 0.696105 0.709567
vn 0.109327 0.696105 0.709567
vn -0.146100 0.682762 0.715885
vn -0.146100 0.682762 0.715885
vn -0.146100 0.682762 0.715885
vn -0.618594 0.778427 0.106742
vn -0.618594 0.778427 0.106742
vn -0.618594 0.778427 0.106742
vn -0.669026 0.680565 -0.298724
vn -0.669026 0.680565 -0.298725
vn -0.669026 0.680565 -0.298724
vn 0.482303 0.766604 -0.423913
vn 0.482303 0.766604 -0.423913
vn 0.482303 0.766604 -0.423913
vn 1.000000 -0.000000 0.000000
vn 1.000000 0.000000 0.000000
vn 1.000000 -0.000000 0.000000
vn 1.000000 -0.000000 0.000000
vn -0.112383 0.755244 -0.645737
vn -0.112383 0.755244 -0.645737
vn -0.112383 0.755244 -0.645737
vn 0.135543 0.752570 -0.644412
vn 0.135543 0.752570 -0.644412
vn 0.135543 0.752570 -0.644412
vn 0.704596 0.693600 -0.149883
vn 0.704595 0.693600 -0.149883
vn 0.704595 0.693600 -0.149883
vn 0.538067 0.828635 0.154430
vn 0.538067 0.828635 0.154430
vn 0.538067 0.828635 0.154430
vn 0.000000 0.000000 1.000000
vn -0.000000 0.000000 1.000000
vn 0.000000 0.000000 1.000000
vn 0.000000 0.000000 1.000000
vn 0.000000 -1.000000 0.000000
vn 0.000000 -1.000000 0.000000
vn 0.000000 -1.000000 0.000000
vn -0.000000 -0.000010 1.000000
vn -0.000000 -0.000006 1.000000
vn -0.000000 0.000000 1.000000
vn -0.000000 0.000000 1.000000
vn -0.000000 0.000000 1.000000
vn -0.000000 -0.000010 1.000000
vn -0.000000 0.000000 1.000000
vn 0.000000 0.000000 1.000000
vn -0.000000 -0.000010 1.000000
vn -0.000000 -0.000001 1.000000
vn -0.000000 -0.000011 1.000000
vn -0.000000 -0.000011 1.000000
vn -0.000000 -0.000006 1.000000
vn -0.000002 -0.000007 1.000000
vn -0.000002 -0.000009 1.000000
vn -0.000002 -0.000009 1.000000
vn -0.000000 -0.000001 1.000000
vn -0.000002 -0.000007 1.000000
vn -0.000000 -0.000001 1.000000
vn -0.000000 -0.000010 1.000000
vn 1.000000 0.000000 0.000000
vn 1.000000 0.000003 0.000000
vn 1.000000 0.000003 0.000000
vn 1.000000 0.000003 0.000000
vn 1.000000 0.000003 0.000000
vn 1.000000 -0.000000 0.000000
vn 1.000000 0.000003 0.000000
vn 1.000000 0.000000 0.000000
vn 0.000000 0.000000 -1.000000
vn 0.000000 0.000000 -1.000000
vn 0.000000 0.000000 -1.000000
vn 0.000000 0.000000 -1.000000
vn 0.000000 0.000000 -1.000000
vn 0.000000 0.000000 -1.000000
vn 0.000000 0.000000 -1.000000
vn 0.000000 1.000000 0.000000
vn 0.000000 1.000000 0.000000
vn 0.000000 1.000000 0.000000
vn 0.000000 1.000000 0.000000
vn 0.000000 1.000000 0.000000
vn 0.000000 1.000000 0.000000
vn 0.000000 1.000000 0.000000
vn 0.000000 1.000000 0.000000
vn 0.000000 1.000000 0.000000
vn 0.000000 1.000000 0.000000
vn 0.000000 1.000000 0.000000
vn 0.000000 1.000000 0.000000
vn 0.000000 1.000000 0.000000
vn 0.000000 1.000000 0.000000
vn 0.000000 1.000000 -0.000000
vn 0.000000 1.000000 0.000000
vn 0.000000 1.000000 0.000000
vn 0.000000 1.000000 0.000000
vn 0.000000 1.000000 0.000000
vn 0.000000 1.000000 0.000000
vn 0.000000 1.000000 0.000000
vn 0.000000 1.000000 -0.000000
vn 0.000000 1.000000 -0.000000
vn 0.000000 1.000000 -0.000000
vn 0.000000 1.000000 -0.000000
vn 0.000000 1.000000 0.000000
vn 0.000000 1.000000 0.000000
vn 0.000000 1.000000 0.000000
vn 0.000000 1.000000 0.000000
vn -1.000000 0.000001 -0.000000
vn -1.000000 0.000004 -0.000000
vn -1.000000 0.000007 -0.000000
vn -1.000000 0.000007 -0.000000
vn -1.000000 0.000004 -0.000000
vn -1.000000 0.000001 -0.000000
vn -1.000000 0.000004 -0.000000
vn -1.000000 0.000004 -0.000000
s off
f 7/2/1 1/3/2 24/1/3
f 5/4/4 30/5/5 28/57/6 26/33/7 25/32/8
f 35/14/9 7/15/10 6/16/11
f 29/17/12 33/38/13 31/39/14 3/40/15 26/41/16 28/37/17
f 5/19/18 6/20/19 7/15/20
f 12/21/21 11/22/22 9/23/23
f 10/24/24 11/22/25 12/21/26
f 16/25/27 15/7/28 13/26/29
f 14/8/30 15/7/31 16/25/32
f 20/27/33 19/10/34 17/9/35
f 18/28/36 19/10/37 20/27/38
f 24/1/39 23/29/40 21/30/41
f 22/31/42 23/29/43 24/1/44
f 25/32/45 26/33/46 3/34/47
f 6/20/48 34/35/49 32/42/50 4/44/51
f 30/36/52 29/17/53 28/37/54
f 27/18/55 29/17/56 30/36/57
f 34/35/58 33/38/59 32/42/60
f 31/39/61 33/38/62 34/35/63
f 1/3/64 12/11/65 9/12/66 2/13/67
f 7/15/68 35/14/69 1/55/70
f 35/45/71 16/46/72 13/47/73 10/48/74 12/11/75
f 35/45/76 12/11/77 1/3/78
f 35/45/79 20/49/80 17/50/81 14/51/82 16/46/83
f 6/52/84 4/53/85 18/54/86 20/49/87
f 6/52/88 20/49/89 35/45/90
f 34/35/91 5/19/92 25/43/93 3/40/94 31/39/95
f 6/20/96 5/19/97 34/35/98
f 30/5/99 7/2/100 8/6/101 27/56/102
f 5/4/103 7/2/104 30/5/105
f 33/38/106 19/10/107 18/28/108 4/44/109 32/42/110
f 29/17/111 15/7/112 14/8/113 17/9/114 19/10/115 33/38/116
f 11/22/117 8/6/118 21/30/119 23/29/120
f 29/17/121 11/22/122 10/24/123 13/26/124 15/7/125
f 11/22/126 23/29/127 22/31/128 2/13/129 9/23/130
f 29/17/131 27/18/132 8/6/133 11/22/134
f 24/1/135 1/3/136 2/13/137 22/31/138
f 7/2/139 24/1/140 21/30/141 8/6/142
