# This file uses meters as units for non-parametric coordinates.

v 249.980072 117.774391 -249.979965
v 250.020126 0.000000 0.001502
v 0.000095 0.000000 -0.000012
v -0.001526 0.000000 -250.020035
vt 0.504579 0.543707
vt 0.667399 0.706528
vt 0.667399 0.543707
vt 0.665149 0.543707
vt 0.502329 0.706528
vt 0.502329 0.543707
vn -0.000003 0.904629 0.426200
vn -0.000003 0.904629 0.426200
vn -0.000003 0.904629 0.426200
vn -0.426200 0.904629 0.000003
vn -0.426200 0.904629 0.000003
vn -0.426200 0.904629 0.000003
s off
f 3/1/1 2/3/2 1/2/3
f 3/4/4 1/5/5 4/6/6
