# This file uses meters as units for non-parametric coordinates.

v 249.999176 -2.919220 249.999939
v 249.999176 -2.919220 0.000121
v -0.001014 -2.919220 0.000121
v -0.000831 -2.919220 250.000122
v -0.000831 60.146240 132.812561
v 113.998314 59.858002 133.348267
v 131.042267 59.675018 133.688232
v 131.237091 59.572510 116.121460
v 113.682213 59.683960 116.328613
v -0.000831 60.146240 117.187561
v 122.156517 65.593964 125.000122
v 113.682213 60.927307 116.328613
v -0.000831 61.735107 117.187576
v -0.000831 65.939484 125.000076
v 113.998314 61.101349 133.348267
v 131.042267 60.918365 133.688232
v 131.237091 60.815857 116.121460
v -0.000831 61.735107 132.812576
v 117.186668 61.735107 249.999969
v 132.811676 61.735107 249.999954
v 124.999168 65.939484 249.999954
v 132.811676 60.146240 249.999954
v 117.186668 60.146240 249.999969
vt 0.905473 0.503303
vt 0.905473 0.503303
vt 0.506941 0.650766
vt 0.669052 0.650766
vt 0.669052 0.650766
vt 0.905473 0.503303
vt 0.905473 0.503303
vt 0.506941 0.650766
vt 0.669052 0.726988
vt 0.593341 0.726667
vt 0.593823 0.726322
vt 0.582443 0.726457
vt 0.582443 0.726457
vt 0.506941 0.726708
vt 0.905473 0.503303
vt 0.905473 0.503303
vt 0.905473 0.503303
vt 0.905473 0.503303
vt 0.905473 0.503303
vt 0.905473 0.503303
vt 0.905473 0.503303
vt 0.905473 0.503303
vt 0.905473 0.503303
vt 0.905473 0.503303
vt 0.905473 0.503303
vt 0.905473 0.503303
vt 0.905473 0.503303
vt 0.668918 0.726667
vt 0.905473 0.503303
vt 0.905473 0.503303
vt 0.667840 0.650787
vt 0.593194 0.727131
vt 0.581902 0.727255
vt 0.507134 0.650787
vt 0.507134 0.726119
vn 0.002574 0.880026 -0.474918
vn 0.002574 0.880026 -0.474918
vn 0.002574 0.880026 -0.474918
vn 0.002574 0.880026 -0.474918
vn 0.465660 0.884964 0.000001
vn 0.465660 0.884964 0.000001
vn 0.465660 0.884964 0.000001
vn 0.002572 0.880037 0.474898
vn 0.002572 0.880037 0.474898
vn 0.002572 0.880037 0.474898
vn 0.002572 0.880037 0.474898
vn -0.000002 0.880583 -0.473892
vn -0.000002 0.880583 -0.473892
vn -0.000002 0.880583 -0.473892
vn -0.000001 0.880583 0.473893
vn -0.000001 0.880583 0.473893
vn -0.000001 0.880583 0.473893
vn 0.465661 0.884963 0.000000
vn 0.465661 0.884963 0.000000
vn 0.465661 0.884963 0.000000
vn 0.465661 0.884963 0.000000
vn -0.000000 0.880582 -0.473893
vn -0.000000 0.880582 -0.473893
vn -0.000000 0.880582 -0.473893
vn -0.000000 0.880582 -0.473893
vn 0.000000 0.880582 -0.473893
vn 0.000000 0.880582 -0.473893
vn 0.000000 0.880582 -0.473893
vn -0.007555 0.000005 -0.999971
vn -0.007555 0.000005 -0.999972
vn -0.007555 0.000005 -0.999971
vn -0.007555 0.000005 -0.999971
vn 0.999939 0.000000 0.011090
vn 0.999939 0.000000 0.011090
vn 0.999939 0.000000 0.011090
vn 0.999939 0.000000 0.011090
vn -0.004699 -0.000005 0.999989
vn -0.004699 -0.000005 0.999989
vn -0.004699 -0.000005 0.999989
vn -0.004699 -0.000005 0.999989
vn -0.011800 0.000000 -0.999930
vn -0.011800 0.000000 -0.999930
vn -0.011800 0.000000 -0.999930
vn -0.011800 0.000000 -0.999930
vn 0.474877 0.879951 -0.013314
vn 0.474877 0.879951 -0.013314
vn 0.474877 0.879951 -0.013314
vn 0.474877 0.879951 -0.013314
vn -0.474885 0.880009 0.008286
vn -0.474885 0.880009 0.008286
vn -0.474885 0.880009 0.008286
vn -0.474885 0.880009 0.008286
vn 0.473865 0.880531 -0.010776
vn 0.473865 0.880531 -0.010776
vn 0.473865 0.880531 -0.010776
vn -0.473866 0.880531 0.010776
vn -0.473866 0.880531 0.010776
vn -0.473866 0.880531 0.010776
vn 0.999884 0.000000 -0.015211
vn 0.999884 0.000000 -0.015211
vn 0.999884 0.000000 -0.015211
vn 0.999884 0.000000 -0.015211
vn -0.999627 0.000000 0.027322
vn -0.999627 0.000000 0.027322
vn -0.999627 0.000000 0.027322
vn -0.999627 0.000000 0.027322
s off
f 11/1/1 12/2/2 13/6/3 14/7/4
f 16/16/5 17/17/6 11/1/7
f 18/18/8 15/15/9 11/1/10 14/7/11
f 17/17/12 12/2/13 11/1/14
f 4/5/15 6/10/16 5/9/17
f 2/31/18 8/32/19 7/33/20 1/34/21
f 2/4/22 3/3/23 9/13/24 8/11/25
f 10/14/26 9/12/27 3/8/28
f 9/19/29 10/20/30 13/6/31 12/2/32
f 7/22/33 8/23/34 17/17/35 16/16/36
f 5/24/37 6/21/38 15/15/39 18/18/40
f 8/23/41 9/19/42 12/2/43 17/17/44
f 16/16/45 11/1/46 21/26/47 20/25/48
f 11/1/49 15/15/50 19/27/51 21/26/52
f 1/34/53 7/33/54 22/35/55
f 6/10/56 4/5/57 23/28/58
f 7/22/59 16/16/60 20/25/61 22/29/62
f 15/15/63 6/21/64 23/30/65 19/27/66
