# This file uses meters as units for non-parametric coordinates.

v 0.000000 -10.000001 20.000002
v 250.000000 -10.000001 20.000048
v -0.000477 -10.000001 13.344215
v 249.999527 -10.000001 13.344212
v -0.000477 -50.000008 13.344215
v 249.999527 -50.000008 13.344212
v -0.000477 -104.278496 13.344215
v 249.999527 -104.278496 13.344212
v 250.000000 290.000000 20.000093
v 0.000000 290.000000 20.000093
v 71.898209 58.742210 20.000002
v 178.101990 58.742210 19.999998
v 71.897720 227.912476 20.000008
v 178.101990 227.912476 20.000011
v 139.436066 -10.000001 20.000027
v 130.288635 -11.940266 13.344213
v 110.960709 -45.154724 13.344213
v -0.000030 290.000000 0.000003
v 0.000000 0.000000 -0.000006
v 249.999969 290.000000 0.000006
v 250.000000 0.000000 -0.000009
v 178.101974 227.912476 -0.000001
v 71.897964 227.912476 -0.000001
v 178.101974 58.742210 -0.000004
v 71.897964 58.742210 -0.000004
vt 0.993010 0.798997
vt 0.831126 0.798997
vt 0.418860 0.445084
vt 0.418860 0.445084
vt 0.880519 0.843592
vt 0.950260 0.843592
vt 0.418860 0.445084
vt 0.418860 0.445084
vt 0.418860 0.445084
vt 0.418860 0.445084
vt 0.950260 0.952744
vt 0.993010 0.992842
vt 0.831126 0.992842
vt 0.880519 0.952744
vt 0.918543 0.798997
vt 0.418860 0.445084
vt 0.418860 0.445084
vt 0.331126 0.992842
vt 0.331126 0.750000
vt 0.380543 0.799531
vt 0.380543 0.941071
vt 0.493010 0.992842
vt 0.450284 0.941071
vt 0.450284 0.799531
vt 0.493010 0.750000
vt 0.418860 0.445084
vt 0.418860 0.445084
vt 0.418860 0.445084
vn 0.008344 -0.990312 0.138611
vn 0.008344 -0.990312 0.138611
vn 0.008344 -0.990312 0.138611
vn 0.008344 -0.990312 0.138611
vn 0.000000 -0.000000 1.000000
vn 0.000000 -0.000000 1.000000
vn 0.000000 -0.000000 1.000000
vn 0.000000 -0.000000 1.000000
vn 0.000000 0.000000 1.000000
vn 0.000000 0.000000 1.000000
vn 0.000000 0.000000 1.000000
vn 0.000000 0.000000 1.000000
vn -0.000000 -0.000001 1.000000
vn -0.000000 -0.000001 1.000000
vn -0.000000 -0.000001 1.000000
vn -0.000000 -0.000001 1.000000
vn -0.000001 -0.000000 1.000000
vn -0.000001 -0.000000 1.000000
vn -0.000001 -0.000000 1.000000
vn -0.000001 -0.000000 1.000000
vn 0.000001 -0.000000 1.000000
vn 0.000001 -0.000000 1.000000
vn 0.000001 -0.000000 1.000000
vn 0.000001 -0.000000 1.000000
vn -0.000000 0.000000 1.000000
vn -0.000000 0.000000 1.000000
vn -0.000000 0.000000 1.000000
vn -0.007113 -0.988809 0.149014
vn -0.007113 -0.988809 0.149014
vn -0.007113 -0.988810 0.149014
vn -0.007113 -0.988810 0.149014
vn 0.000000 -0.000000 1.000000
vn 0.000000 -0.000000 1.000000
vn 0.000000 -0.000000 1.000000
vn 0.000000 -0.000000 1.000000
vn 0.000000 0.000000 1.000000
vn 0.000000 0.000000 1.000000
vn 0.000000 0.000000 1.000000
vn -0.000000 0.000001 1.000000
vn -0.000000 0.000001 1.000000
vn -0.000000 0.000001 1.000000
vn 0.000000 0.000000 1.000000
vn 0.000000 0.000000 1.000000
vn 0.000000 0.000000 1.000000
vn 0.000000 0.000000 -1.000000
vn 0.000000 0.000000 -1.000000
vn 0.000000 0.000000 -1.000000
vn 0.000000 0.000000 -1.000000
vn 0.000000 0.000000 -1.000000
vn -0.000000 0.000000 -1.000000
vn -0.000000 0.000000 -1.000000
vn -0.000000 0.000000 -1.000000
vn -0.000000 0.000000 -1.000000
vn -0.000000 0.000000 -1.000000
vn -0.000000 0.000000 -1.000000
vn 0.000000 0.000000 -1.000000
vn -0.000000 0.000000 -1.000000
vn -0.000000 0.000000 -1.000000
vn -0.000000 0.000000 -1.000000
vn -0.000000 0.000000 -1.000000
vn 0.000000 0.000000 -1.000000
vn 0.000000 0.000000 -1.000000
vn 0.000000 0.000000 -1.000000
vn 0.000000 0.000000 -1.000000
s off
f 2/3/1 15/4/2 16/7/3 4/8/4
f 4/8/5 16/7/6 17/9/7 6/10/8
f 6/10/9 17/9/10 7/16/11 8/17/12
f 14/11/13 9/12/14 10/13/15 13/14/16
f 9/12/17 14/11/18 12/6/19 2/1/20
f 10/13/21 1/2/22 11/5/23 13/14/24
f 1/2/25 15/15/26 11/5/27
f 16/7/28 15/4/29 1/26/30 3/27/31
f 17/9/32 16/7/33 3/27/34 5/28/35
f 7/16/36 17/9/37 5/28/38
f 12/6/39 15/15/40 2/1/41
f 11/5/42 15/15/43 12/6/44
f 20/18/45 21/19/46 22/21/47
f 22/21/48 21/19/49 24/20/50
f 18/22/51 23/23/52 19/25/53
f 19/25/54 23/23/55 25/24/56
f 24/20/57 21/19/58 19/25/59 25/24/60
f 18/22/61 20/18/62 22/21/63 23/23/64
