# This file uses meters as units for non-parametric coordinates.

v 161.215942 243.648895 -349.999939
v 161.215942 208.841949 -300.000061
v 161.215942 261.052277 -375.000061
v 161.215942 226.245453 -325.000000
v 161.215942 191.438431 -274.999908
v 161.215942 261.052277 -351.082336
v 161.215942 226.245453 -301.082245
v 161.215942 191.438431 -250.000000
v 161.215942 243.648972 -326.082397
v 161.215942 208.841949 -276.082336
v 161.215942 280.849365 -376.082275
v 161.215942 280.790314 -250.000000
v 161.215942 280.790344 -400.000000
v 161.215942 494.651764 -249.999985
v 161.215942 494.651825 -401.082397
v 150.000000 69.613983 -100.000145
v 150.000000 34.807011 -50.000072
v 150.000000 121.824440 -174.999969
v 150.000000 87.017509 -124.999908
v 150.000000 52.210480 -75.000000
v 150.000000 17.403502 -25.000120
v 150.000000 121.824440 -151.082413
v 150.000000 87.017548 -101.082359
v 150.000000 52.210480 -51.082470
v 150.000000 17.403502 -1.082385
v 150.000000 139.227936 -176.082336
v 150.000000 69.614037 -76.082397
v 150.000000 34.807011 -26.082325
v 150.000000 494.651825 -251.082367
v 150.000000 280.790314 -0.000000
v 150.000000 104.421013 -150.000031
v 150.000000 104.421013 -126.082466
v 161.215942 -0.000009 -0.000000
v 150.000000 -0.000009 -0.000000
v 161.215942 280.790314 -0.000000
v 161.215942 -0.000009 -250.000000
v 161.215942 280.790314 -0.000000
v 150.000000 174.035019 -250.000000
v 150.000000 156.631500 -201.082489
v 150.000000 139.227936 -199.999908
v 150.000000 174.035019 -226.082230
v 150.000000 156.631500 -225.000046
v 150.000000 191.438431 -251.082367
v 150.000000 280.805084 -251.039764
v 150.000000 243.648895 -349.999939
v 150.000000 208.841949 -300.000061
v 150.000000 261.052277 -375.000061
v 150.000000 226.245453 -325.000000
v 150.000000 191.438431 -274.999908
v 150.000000 261.052277 -351.082336
v 150.000000 226.245453 -301.082245
v 150.000000 243.648972 -326.082397
v 150.000000 208.841949 -276.082336
v 150.000000 280.849365 -376.082275
v 150.000000 280.790344 -400.000000
v 150.000000 494.651825 -401.082397
vt 0.355359 0.915398
vt 0.370339 0.930431
vt 0.370339 0.915398
vt 0.384430 0.945377
vt 0.384430 0.930431
vt 0.398619 0.960411
vt 0.398619 0.945377
vt 0.412878 0.975424
vt 0.412878 0.960411
vt 0.426466 0.992334
vt 0.426466 0.975424
vt 0.355359 0.992334
vt 0.458213 0.766994
vt 0.493958 0.767296
vt 0.472882 0.751502
vt 0.182900 0.767358
vt 0.174589 0.752026
vt 0.182900 0.752026
vt 0.422630 0.766873
vt 0.437885 0.751273
vt 0.386901 0.766791
vt 0.402661 0.751026
vt 0.351200 0.766674
vt 0.367286 0.750751
vt 0.315067 0.766632
vt 0.333984 0.750062
vt 0.278289 0.766642
vt 0.293652 0.750630
vt 0.240085 0.766659
vt 0.260899 0.750199
vt 0.279536 0.992266
vt 0.200836 0.766678
vt 0.169496 0.751561
vt 0.169496 0.992266
vt 0.355264 0.992266
vt 0.355264 0.751561
vt 0.182900 0.992266
vt 0.174589 0.992266
vt 0.174589 0.992266
vt 0.161967 0.766597
vt 0.177577 0.750319
vt 0.216329 0.750755
vt 0.123266 0.766797
vt 0.139244 0.752390
vt 0.493259 0.992266
vt 0.258740 0.831959
vt 0.070947 0.992266
vt 0.355264 0.782166
vt 0.169496 0.782167
vt 0.355264 0.965191
vt 0.045311 0.845034
vt 0.355264 0.915670
vt 0.144544 0.964200
vt 0.032277 0.779852
vt 0.050178 0.779903
vt 0.031467 0.964200
vt 0.144544 0.779852
vt 0.458213 0.766783
vt 0.472882 0.751501
vt 0.493958 0.767305
vt 0.422630 0.766505
vt 0.437884 0.751273
vt 0.386901 0.766296
vt 0.402661 0.751025
vt 0.351200 0.766061
vt 0.367286 0.750751
vt 0.313062 0.767991
vt 0.333984 0.750061
vt 0.419229 0.844589
vt 0.243362 0.991436
vt 0.291712 0.756894
vt 0.313062 0.769622
vt 0.103574 0.908620
vt 0.417906 0.835796
vn 1.000000 -0.000001 0.000000
vn 1.000000 -0.000001 0.000000
vn 1.000000 -0.000001 0.000000
vn 1.000000 -0.000000 0.000000
vn 1.000000 -0.000000 0.000000
vn 1.000000 -0.000000 0.000000
vn 1.000000 -0.000000 0.000000
vn 1.000000 -0.000000 0.000000
vn 1.000000 -0.000000 0.000000
vn 1.000000 -0.000000 0.000000
vn 1.000000 -0.000000 0.000000
vn 1.000000 -0.000000 0.000000
vn 1.000000 -0.000000 0.000000
vn 1.000000 -0.000000 0.000000
vn 1.000000 -0.000000 0.000000
vn 1.000000 0.000000 0.000000
vn 1.000000 0.000000 0.000000
vn 1.000000 0.000000 0.000000
vn 1.000000 0.000000 0.000000
vn 1.000000 0.000000 0.000000
vn 1.000000 0.000000 0.000000
vn 1.000000 0.000000 0.000000
vn 1.000000 0.000000 0.000000
vn 1.000000 0.000000 0.000000
vn 1.000000 0.000000 0.000000
vn 1.000000 0.000000 0.000000
vn 1.000000 0.000000 0.000000
vn 1.000000 0.000000 0.000000
vn 1.000000 0.000000 0.000000
vn 1.000000 0.000000 0.000000
vn 1.000000 -0.000001 0.000000
vn 1.000000 -0.000001 0.000000
vn 1.000000 -0.000001 0.000000
vn 1.000000 0.000000 0.000000
vn 1.000000 0.000000 0.000000
vn 1.000000 0.000000 0.000000
vn 1.000000 0.000000 0.000000
vn 1.000000 0.000000 0.000000
vn 1.000000 0.000000 0.000000
vn -1.000000 0.000000 0.000000
vn -1.000000 0.000000 0.000000
vn -1.000000 0.000000 0.000000
vn 0.000000 0.062074 0.998072
vn 0.000000 0.062074 0.998072
vn 0.000000 0.062074 0.998072
vn -1.000000 0.000000 0.000000
vn -1.000000 0.000000 0.000000
vn -1.000000 0.000000 0.000000
vn -1.000000 0.000000 0.000000
vn -1.000000 0.000000 0.000000
vn -1.000000 0.000000 0.000000
vn -1.000000 0.000001 0.000000
vn -1.000000 0.000001 0.000000
vn -1.000000 0.000001 0.000000
vn -1.000000 0.000001 0.000000
vn -1.000000 0.000001 0.000000
vn -1.000000 0.000001 0.000000
vn -1.000000 -0.000001 0.000000
vn -1.000000 -0.000001 0.000000
vn -1.000000 -0.000001 0.000000
vn -1.000000 0.000000 0.000000
vn -1.000000 0.000000 0.000000
vn -1.000000 0.000000 0.000000
vn -1.000000 0.000000 0.000000
vn -1.000000 0.000000 0.000000
vn -1.000000 0.000000 0.000000
vn -1.000000 -0.000000 0.000000
vn -1.000000 -0.000000 0.000000
vn -1.000000 -0.000000 0.000000
vn -1.000000 0.000000 0.000000
vn -1.000000 0.000000 0.000000
vn -1.000000 0.000000 0.000000
vn -1.000000 0.000000 0.000000
vn -1.000000 0.000000 0.000000
vn -1.000000 0.000000 0.000000
vn -1.000000 0.000000 0.000000
vn -1.000000 0.000000 0.000000
vn -1.000000 0.000000 0.000000
vn -1.000000 0.000000 0.000000
vn -1.000000 0.000000 0.000000
vn -1.000000 0.000000 0.000000
vn -1.000000 0.000000 0.000000
vn -1.000000 0.000000 0.000000
vn -1.000000 0.000000 0.000000
vn -1.000000 -0.000000 0.000000
vn -1.000000 -0.000000 0.000000
vn -1.000000 -0.000000 0.000000
vn 1.000000 0.000000 0.000000
vn 1.000000 0.000000 0.000000
vn 1.000000 0.000000 0.000000
vn 0.000000 0.000000 1.000000
vn 0.000000 0.000000 1.000000
vn 0.000000 0.000000 0.000000
vn 0.000000 0.000000 0.000000
vn -0.102340 -0.004088 0.994741
vn -0.102340 -0.004088 0.994741
vn -0.102340 -0.004088 0.994741
vn -1.000000 0.000000 0.000000
vn -1.000000 0.000000 0.000000
vn -1.000000 0.000000 0.000000
vn -1.000000 0.000000 0.000000
vn -1.000000 0.000000 0.000000
vn -1.000000 0.000000 0.000000
vn -1.000000 0.000000 0.000000
vn -1.000000 0.000000 0.000000
vn -1.000000 0.000000 0.000000
vn -1.000000 0.000001 0.000000
vn -1.000000 0.000001 0.000000
vn -1.000000 0.000001 0.000000
vn -1.000000 0.000000 0.000000
vn -1.000000 0.000000 0.000000
vn -1.000000 0.000000 0.000000
vn -1.000000 0.000000 0.000000
vn -1.000000 0.000000 0.000000
vn -1.000000 0.000000 0.000000
vn 1.000000 -0.000000 0.000000
vn 1.000000 -0.000000 0.000000
vn 1.000000 -0.000000 0.000000
vn -1.000000 0.000000 0.000000
vn -1.000000 0.000000 0.000000
vn -1.000000 0.000000 0.000000
vn 1.000000 0.000000 0.000000
vn 1.000000 0.000000 0.000000
vn 1.000000 0.000000 0.000000
vn 1.000000 0.000000 0.000000
vn 1.000000 0.000000 0.000000
vn 1.000000 0.000000 0.000000
vn -1.000000 -0.000001 0.000000
vn -1.000000 -0.000001 0.000000
vn -1.000000 -0.000001 0.000000
vn -1.000000 0.000000 0.000000
vn -1.000000 0.000000 0.000000
vn -1.000000 0.000000 0.000000
vn -1.000000 0.000000 0.000000
vn -1.000000 0.000000 0.000000
vn -1.000000 0.000000 0.000000
vn -1.000000 -0.000001 0.000000
vn -1.000000 -0.000001 0.000000
vn -1.000000 -0.000001 0.000000
vn -1.000000 0.000000 0.000000
vn -1.000000 0.000000 0.000000
vn -1.000000 0.000000 0.000000
vn -1.000000 0.000000 0.000000
vn -1.000000 0.000000 0.000000
vn -1.000000 0.000000 0.000000
vn -1.000000 -0.000000 0.000000
vn -1.000000 -0.000000 0.000000
vn -1.000000 -0.000000 0.000000
vn -1.000000 0.000000 0.000000
vn -1.000000 0.000000 0.000000
vn -1.000000 0.000000 0.000000
vn -1.000000 0.000000 0.000000
vn -1.000000 0.000000 0.000000
vn -1.000000 0.000000 0.000000
vn -1.000000 0.000000 0.000000
vn -1.000000 0.000000 0.000000
vn -1.000000 0.000000 0.000000
vn -1.000000 0.000000 0.000000
vn -1.000000 0.000000 0.000000
vn -1.000000 0.000000 0.000000
vn -1.000000 0.000000 0.000000
vn -1.000000 0.000000 0.000000
vn -1.000000 0.000000 0.000000
vn -1.000000 -0.000000 0.000000
vn -1.000000 -0.000000 0.000000
vn -1.000000 -0.000000 0.000000
s off
f 10/2/1 8/1/2 5/3/3
f 7/4/4 10/2/5 2/5/6
f 9/6/7 7/4/8 4/7/9
f 6/8/10 9/6/11 1/9/12
f 11/10/13 6/8/14 3/11/15
f 12/12/16 10/2/17 7/4/18
f 12/12/19 7/4/20 9/6/21
f 12/12/22 9/6/23 6/8/24
f 11/10/25 12/12/26 6/8/27
f 12/12/28 8/1/29 10/2/30
f 14/53/31 11/55/32 13/54/33
f 14/53/34 13/54/35 15/56/36
f 14/53/37 12/57/38 11/55/39
f 28/13/40 21/15/41 25/14/42
f 25/16/43 34/18/44 33/17/45
f 24/19/46 17/20/47 28/13/48
f 27/21/49 20/22/50 24/19/51
f 23/23/52 16/24/53 27/21/54
f 32/25/55 19/26/56 23/23/57
f 22/27/58 31/28/59 32/25/60
f 26/29/61 18/30/62 22/27/63
f 30/31/64 24/19/65 28/13/66
f 30/31/67 27/21/68 24/19/69
f 30/31/70 23/23/71 27/21/72
f 30/31/73 32/25/74 23/23/75
f 30/31/76 22/27/77 32/25/78
f 30/31/79 26/29/80 22/27/81
f 30/31/82 39/32/83 26/29/84
f 30/31/85 28/13/86 25/14/87
f 8/52/88 12/35/89 37/34/90
f 30/37/91 33/17/92 37/39/93 35/38/94
f 30/37/95 25/16/96 33/17/97
f 41/40/98 42/41/99 39/32/100
f 39/32/101 40/42/102 26/29/103
f 43/43/104 38/44/105 41/40/106
f 30/31/107 41/40/108 39/32/109
f 30/31/110 43/43/111 41/40/112
f 30/45/113 29/47/114 44/46/115
f 12/48/116 14/50/117 37/49/118
f 30/31/119 44/51/120 43/43/121
f 33/33/122 8/52/123 37/34/124
f 33/33/125 36/36/126 8/52/127
f 53/58/128 49/59/129 43/60/130
f 51/61/131 46/62/132 53/58/133
f 52/63/134 48/64/135 51/61/136
f 50/65/137 45/66/138 52/63/139
f 54/67/140 47/68/141 50/65/142
f 44/69/143 51/61/144 53/58/145
f 44/69/146 52/63/147 51/61/148
f 44/69/149 50/65/150 52/63/151
f 54/67/152 50/65/153 44/69/154
f 44/69/155 53/58/156 43/60/157
f 29/70/158 55/71/159 54/72/160
f 29/70/161 56/73/162 55/71/163
f 29/70/164 54/72/165 44/74/166
