# This file uses meters as units for non-parametric coordinates.

v 250.000092 290.000000 20.000002
v 250.000092 290.000000 34.656067
v 0.000000 290.000000 20.000002
v 0.000000 290.000000 34.656067
v 0.000000 299.999939 -229.999802
v 250.000092 299.999939 -230.000183
v 0.000000 309.813232 34.656067
v 250.000092 309.813232 34.656067
v 0.000000 299.999939 7.915804
v 250.000092 299.999939 7.915804
v 250.000092 309.813141 7.915804
v 0.000000 309.813141 7.915804
vt 0.905899 0.505581
vt 0.905899 0.505581
vt 0.905899 0.505581
vt 0.905899 0.505581
vt 0.503768 0.542811
vt 0.905899 0.505581
vt 0.667205 0.745702
vt 0.503767 0.745701
vt 0.905899 0.505581
vt 0.905899 0.505581
vt 0.905899 0.505581
vt 0.905899 0.505581
vt 0.905899 0.505581
vt 0.905899 0.505581
vt 0.905899 0.505581
vt 0.905899 0.505581
vt 0.905899 0.505581
vt 0.905899 0.505581
vt 0.905899 0.505581
vt 0.667205 0.542811
vn 0.000000 -1.000000 0.000000
vn 0.000000 -1.000000 0.000000
vn 0.000000 -1.000000 0.000000
vn 0.000000 -1.000000 0.000000
vn 0.000000 1.000000 0.000000
vn 0.000000 1.000000 0.000000
vn 0.000000 1.000000 0.000000
vn 0.000000 1.000000 0.000000
vn 0.000000 0.000000 1.000000
vn 0.000000 0.000000 1.000000
vn 0.000000 0.000000 1.000000
vn 0.000000 0.000000 1.000000
vn 0.000000 1.000000 -0.000004
vn 0.000000 1.000000 -0.000004
vn 0.000000 1.000000 -0.000004
vn 0.000000 1.000000 -0.000004
vn 0.000000 0.000000 -1.000000
vn 0.000000 0.000000 -1.000000
vn 0.000000 0.000000 -1.000000
vn 0.000000 0.000000 -1.000000
vn -1.000000 0.000000 0.000000
vn -1.000000 0.000000 0.000000
vn -1.000000 0.000000 0.000000
vn -1.000000 0.000000 0.000000
vn -1.000000 0.000000 0.000000
vn -1.000000 0.000000 0.000000
vn 1.000000 0.000000 0.000000
vn 1.000000 0.000000 0.000000
vn 1.000000 0.000000 0.000000
vn 1.000000 0.000000 0.000000
vn 1.000000 0.000000 0.000000
vn 1.000000 0.000000 0.000000
vn -1.000000 0.000000 0.000000
vn -1.000000 0.000000 0.000000
vn -1.000000 0.000000 0.000000
vn 1.000000 0.000000 0.000000
vn 1.000000 0.000000 0.000000
vn 1.000000 0.000000 0.000000
s off
f 2/1/1 4/2/2 3/3/3 1/4/4
f 9/5/5 10/20/6 6/7/7 5/8/8
f 8/9/9 7/10/10 4/2/11 2/1/12
f 8/9/13 11/11/14 12/15/15 7/10/16
f 12/15/17 11/11/18 10/6/19 9/19/20
f 3/14/21 7/10/22 12/15/23
f 3/14/24 4/18/25 7/10/26
f 2/17/27 1/16/28 8/9/29
f 8/9/30 1/16/31 11/11/32
f 3/14/33 12/15/34 9/13/35
f 11/11/36 1/16/37 10/12/38
