# This file uses meters as units for non-parametric coordinates.

v 183.137482 230.864578 28.514536
v 66.861687 230.864594 28.514538
v 184.465759 153.848267 28.514536
v 65.534180 142.466888 28.514536
v 183.137482 57.354160 12.350328
v 183.137482 57.354160 28.514536
v 66.861694 57.354160 28.514536
v 66.861694 57.354160 12.350328
v 186.064880 40.429111 12.350328
v 63.935059 40.429111 12.350328
v 186.064880 40.429111 35.170994
v 186.064880 52.872272 35.170994
v 186.064880 55.356598 12.350328
v 63.935059 53.211399 35.170994
v 63.935059 55.356598 12.350328
v 174.336975 149.408951 28.514536
v 75.662964 142.466888 22.997147
v 76.151245 225.655792 28.514536
v 173.235291 224.321228 28.514536
v 173.235291 63.897610 28.514536
v 76.764648 62.647434 28.514536
v 174.336975 144.994171 13.928278
v 75.662964 142.466888 13.928278
v 76.764648 224.321228 13.928278
v 173.235291 224.321228 13.928278
v 173.235291 63.897610 13.928278
v 76.764648 63.897610 13.928278
v 163.298767 146.615585 10.398157
v 86.701172 142.466888 13.928278
v 87.555664 212.266785 13.928278
v 162.444275 212.266785 13.928278
v 162.444275 75.951866 13.928278
v 87.555664 75.951866 13.928278
v 86.701172 142.466888 1.129778
v 87.555664 212.266785 1.129778
v 87.555664 75.951866 1.129778
v 163.298767 146.386124 1.129778
v 162.444275 212.266785 1.129778
v 162.444275 75.951866 1.129778
v 75.662964 115.677780 1.129778
v 76.764648 224.321228 1.129778
v 76.764648 63.897610 1.129778
v 174.336975 153.848267 1.129778
v 173.235291 224.321228 1.129778
v 172.726013 64.406479 1.127464
v 75.662964 117.486130 -9.839193
v 76.764648 224.321228 -13.630239
v 76.764648 63.897610 -13.630239
v 174.336975 208.328857 -13.630239
v 173.403259 224.658432 -13.594630
v 173.235291 63.897610 -13.630239
v 65.534180 115.767059 -13.630239
v 66.861694 230.864578 -13.630239
v 66.861694 57.354160 -13.630239
v 184.465759 153.848267 -13.630239
v 183.137482 230.864578 -13.630239
v 175.910156 62.130161 -13.630239
v 72.881714 142.466888 28.514536
v 75.662964 161.507034 28.514536
v 75.662964 120.797974 28.514536
v 163.298767 158.213989 13.928278
v 166.458130 146.615585 13.928278
v 163.298767 130.246246 13.928278
v 113.259796 54.086552 35.764511
v 81.493256 55.356598 35.764511
v 98.634247 55.123657 33.285072
v 92.538139 51.011776 35.764511
v 104.894165 50.813217 35.764511
v 63.935059 46.722794 35.170994
v 72.722595 40.429111 35.170994
v 63.935059 40.429111 29.606302
v 75.927704 132.965805 -13.630239
v 72.819031 117.486130 -13.630239
v 75.829285 69.389282 -13.630239
v 174.658936 57.354160 -13.630239
v 183.137482 57.354160 -10.771315
v 183.194702 69.616318 -13.630239
v 81.748459 172.518311 10.832308
v 81.748459 162.718414 10.832308
v 166.719360 172.518311 10.831485
v 166.719360 162.718414 10.831485
v 166.719925 172.518311 3.195103
v 166.719925 162.718414 3.195103
v 81.749023 172.518311 3.194282
v 81.749023 162.718414 3.194282
v 107.163406 172.171906 10.266891
v 107.163406 162.944641 10.266891
v 107.163971 162.944641 3.759696
v 107.163971 172.171906 3.759696
vt 0.059199 0.378538
vt 0.058258 0.377899
vt 0.058258 0.377899
vt 0.058985 0.380079
vt 0.059199 0.378538
vt 0.059199 0.378538
vt 0.058258 0.377899
vt 0.058258 0.377899
vt 0.058258 0.377899
vt 0.058258 0.377899
vt 0.058258 0.377899
vt 0.058258 0.377899
vt 0.058258 0.377899
vt 0.058258 0.377899
vt 0.058258 0.377899
vt 0.058258 0.377899
vt 0.058258 0.377899
vt 0.058258 0.377899
vt 0.058258 0.377899
vt 0.058258 0.377899
vt 0.058258 0.377899
vt 0.058258 0.377899
vt 0.058258 0.377899
vt 0.058258 0.377899
vt 0.058258 0.377899
vt 0.058258 0.377899
vt 0.058258 0.377899
vt 0.058258 0.377899
vt 0.058258 0.377899
vt 0.058258 0.377899
vt 0.058258 0.377899
vt 0.058258 0.377899
vt 0.058258 0.377899
vt 0.058258 0.377899
vt 0.058258 0.377899
vt 0.058258 0.377899
vt 0.058258 0.377899
vt 0.058258 0.377899
vt 0.058258 0.377899
vt 0.058258 0.377899
vt 0.058258 0.377899
vt 0.058258 0.377899
vt 0.058258 0.377899
vt 0.059199 0.378538
vt 0.059199 0.378538
vt 0.059199 0.378538
vt 0.059199 0.378538
vt 0.059199 0.378538
vt 0.059199 0.378538
vt 0.059199 0.378538
vt 0.059199 0.378538
vt 0.059199 0.378538
vt 0.059199 0.378538
vt 0.059199 0.378538
vt 0.059199 0.378538
vt 0.059199 0.378538
vt 0.059199 0.378538
vt 0.059199 0.378538
vt 0.059199 0.378538
vt 0.059199 0.378538
vt 0.059199 0.378538
vt 0.059199 0.378538
vt 0.059199 0.378538
vt 0.059199 0.378538
vt 0.059199 0.378538
vt 0.059199 0.378538
vt 0.059199 0.378538
vt 0.059199 0.378538
vt 0.059199 0.378538
vt 0.059199 0.378538
vt 0.059199 0.378538
vt 0.059199 0.378538
vt 0.059199 0.378538
vt 0.059199 0.378538
vt 0.059199 0.378538
vt 0.059199 0.378538
vt 0.059199 0.378538
vt 0.059199 0.378538
vt 0.059199 0.378538
vt 0.059199 0.378538
vt 0.059199 0.378538
vt 0.058258 0.377899
vt 0.059199 0.378538
vt 0.058258 0.377899
vt 0.059199 0.378538
vt 0.059199 0.378538
vt 0.058985 0.380079
vt 0.058258 0.377899
vt 0.059199 0.378538
vt 0.058258 0.377899
vt 0.058258 0.377899
vt 0.058258 0.377899
vt 0.058258 0.377899
vt 0.058258 0.377899
vt 0.058258 0.377899
vt 0.059000 0.375905
vt 0.059000 0.375905
vt 0.059000 0.375905
vt 0.059000 0.375905
vt 0.059000 0.375905
vt 0.059000 0.375905
vt 0.059000 0.375905
vt 0.059000 0.375905
vt 0.059000 0.375905
vt 0.059000 0.375905
vt 0.059000 0.375905
vt 0.059000 0.375905
vt 0.059000 0.375905
vt 0.059000 0.375905
vt 0.059000 0.375905
vt 0.059000 0.375905
vt 0.059000 0.375905
vt 0.059000 0.375905
vt 0.059000 0.375905
vt 0.059000 0.375905
vt 0.059000 0.375905
vt 0.059000 0.375905
vt 0.059000 0.375905
vt 0.059000 0.375905
vt 0.059000 0.375905
vt 0.059000 0.375905
vt 0.059000 0.375905
vt 0.059000 0.375905
vt 0.059000 0.375905
vt 0.059000 0.375905
vt 0.059000 0.375905
vt 0.059000 0.375905
vn 0.999936 -0.011037 -0.002353
vn 0.999940 -0.010983 0.000000
vn 0.999940 -0.010983 0.000000
vn 0.999940 -0.010981 0.000000
vn 0.999936 -0.011037 -0.002353
vn 0.999936 -0.011037 -0.002353
vn 1.000000 0.000000 0.000000
vn 1.000000 0.000000 0.000000
vn 1.000000 0.000000 0.000000
vn 1.000000 0.000000 0.000000
vn -0.409031 -0.571073 0.711737
vn -0.481353 -0.580629 0.656635
vn -0.481353 -0.580629 0.656635
vn 0.000000 0.000000 -1.000000
vn 0.000000 0.000000 -1.000000
vn 0.000000 0.000000 -1.000000
vn 0.000000 0.000000 -1.000000
vn 0.718256 0.694370 0.044247
vn 0.718256 0.694370 0.044247
vn 0.718256 0.694370 0.044247
vn 0.718256 0.694370 0.044247
vn 0.000000 0.871071 0.491157
vn 0.000000 0.871071 0.491157
vn 0.000000 0.871071 0.491157
vn -0.701726 0.711371 0.039143
vn -0.701726 0.711371 0.039143
vn -0.701726 0.711371 0.039143
vn -0.701726 0.711371 0.039143
vn 0.000000 0.000000 -1.000000
vn 0.000000 0.000000 -1.000000
vn 0.000000 0.000000 -1.000000
vn 0.000000 0.000000 -1.000000
vn 0.000000 -1.000000 -0.000033
vn 0.000000 -1.000000 -0.000033
vn 0.000000 -1.000000 -0.000053
vn 0.000000 -1.000000 0.000000
vn 0.682425 -0.203455 0.702070
vn 0.682425 -0.203455 0.702070
vn 0.682425 -0.203455 0.702070
vn 0.000000 0.000000 1.000000
vn 0.000000 0.000000 1.000000
vn 0.000000 0.000000 1.000000
vn 0.000000 0.000000 1.000000
vn 0.000000 0.000000 1.000000
vn 0.000000 0.000000 1.000000
vn 0.000000 0.000000 1.000000
vn 0.000000 0.000000 1.000000
vn 0.000000 0.000000 1.000000
vn 0.000000 0.000000 1.000000
vn 0.000000 0.000000 1.000000
vn 0.000000 0.000000 1.000000
vn 0.685669 0.179623 0.705404
vn 0.685669 0.179622 0.705404
vn 0.685669 0.179623 0.705404
vn 0.000000 0.000000 1.000000
vn 0.000000 0.000000 1.000000
vn 0.000000 0.000000 1.000000
vn 0.000000 0.000000 1.000000
vn -0.006888 -0.998939 0.045541
vn -0.006888 -0.998939 0.045541
vn -0.006888 -0.998939 0.045541
vn -0.006888 -0.998939 0.045541
vn -0.999855 -0.017054 0.000000
vn -0.999855 -0.017054 0.000000
vn -0.999855 -0.017054 0.000000
vn -0.999855 -0.017054 0.000000
vn -0.006474 0.999062 0.042820
vn -0.006474 0.999062 0.042820
vn -0.006474 0.999062 0.042820
vn -0.006474 0.999062 0.042820
vn -0.999954 0.009632 0.000000
vn -0.999954 0.009632 0.000000
vn -0.999954 0.009632 0.000000
vn -0.999954 0.009632 0.000000
vn 0.000000 0.000000 1.000000
vn 0.000000 0.000000 1.000000
vn 0.000000 0.000000 1.000000
vn 0.000000 0.000000 1.000000
vn 0.000000 0.000000 1.000000
vn 0.000000 0.000000 1.000000
vn 0.000000 0.000000 1.000000
vn 0.000000 0.000000 1.000000
vn -0.455934 -0.259168 0.851443
vn -0.455934 -0.259168 0.851443
vn -0.455934 -0.259168 0.851443
vn 0.000000 0.000000 1.000000
vn 0.000000 0.000000 1.000000
vn 0.000000 0.000000 1.000000
vn 0.000000 0.000000 1.000000
vn 0.000000 0.000000 1.000000
vn 0.000000 0.000000 1.000000
vn 0.000000 0.000000 1.000000
vn 0.000000 0.000000 1.000000
vn -0.463758 0.186783 0.866049
vn -0.463758 0.186783 0.866049
vn -0.463758 0.186783 0.866049
vn 0.999868 -0.016273 0.000000
vn 0.999868 -0.016273 0.000000
vn 0.999868 -0.016273 0.000000
vn 0.999868 -0.016273 0.000000
vn 0.000000 -1.000000 0.000000
vn 0.000000 -1.000000 0.000000
vn 0.000000 -1.000000 0.000000
vn 0.000000 -1.000000 0.000000
vn 0.999965 0.008356 0.000000
vn 0.999965 0.008356 0.000000
vn 0.999965 0.008356 0.000000
vn 0.999965 0.008356 0.000000
vn 0.000000 1.000000 -0.000012
vn 0.000000 1.000000 -0.000012
vn 0.000000 1.000000 0.000000
vn 0.000000 1.000000 0.000000
vn 0.000000 0.000000 -1.000000
vn 0.000000 0.000000 -1.000000
vn 0.000000 0.000000 -1.000000
vn 0.000000 0.000000 -1.000000
vn 0.000000 0.000000 -1.000000
vn 0.000000 0.000000 -1.000000
vn 0.000000 0.000000 -1.000000
vn 0.000000 0.000000 -1.000000
vn 0.000000 0.000000 -1.000000
vn 0.000000 0.000000 -1.000000
vn 0.000000 0.000000 -1.000000
vn 0.000000 0.000000 -1.000000
vn 0.000000 0.000000 -1.000000
vn 0.000000 0.000000 -1.000000
vn 0.000000 0.000000 -1.000000
vn 0.000000 0.000000 -1.000000
vn -0.000000 0.000000 -1.000000
vn -0.000000 0.000000 -1.000000
vn -0.000000 0.000000 -1.000000
vn -0.000000 0.000000 -1.000000
vn 0.000000 0.000000 -1.000000
vn 0.000000 0.000000 -1.000000
vn 0.000000 0.000000 -1.000000
vn 0.000000 0.000000 -1.000000
vn 0.000000 -1.000000 0.000000
vn 0.000000 -1.000000 0.000000
vn 0.000000 -1.000000 0.000000
vn 0.000000 -1.000000 0.000000
vn -0.999855 -0.017053 0.000000
vn -0.999855 -0.017053 0.000000
vn -0.999855 -0.017053 0.000000
vn -0.999855 -0.017053 0.000000
vn -0.999954 0.009632 0.000000
vn -0.999954 0.009632 0.000000
vn -0.999954 0.009632 0.000000
vn -0.999954 0.009632 0.000000
vn 0.000000 1.000000 0.000000
vn 0.000000 1.000000 0.000000
vn 0.000000 1.000000 0.000000
vn 0.000000 1.000000 0.000000
vn 0.507702 -0.213095 -0.834763
vn 0.507702 -0.213095 -0.834763
vn 0.507702 -0.213095 -0.834763
vn 0.000000 0.000000 -1.000000
vn 0.000000 0.000000 -1.000000
vn 0.000000 0.000000 -1.000000
vn 0.000000 0.000000 -1.000000
vn 0.510169 0.189991 -0.838827
vn 0.510169 0.189991 -0.838827
vn 0.510169 0.189991 -0.838827
vn 0.000000 0.000000 -1.000000
vn 0.000000 0.000000 -1.000000
vn 0.000000 0.000000 -1.000000
vn 0.000000 0.000000 -1.000000
vn -0.999796 0.015714 -0.012700
vn -0.999796 0.015714 -0.012700
vn -0.999818 0.019067 0.000000
vn -0.999818 0.019067 0.000000
vn 0.000000 1.000000 0.000000
vn 0.000000 1.000000 0.000000
vn 0.000000 1.000000 0.000014
vn 0.000000 1.000000 0.000014
vn -0.999874 -0.012343 0.009976
vn -0.999874 -0.012343 0.009976
vn -0.999940 -0.010983 0.000000
vn -0.999940 -0.010983 0.000000
vn -0.999940 -0.010983 0.000000
vn 0.999826 0.018664 0.000000
vn 0.999826 0.018664 0.000000
vn 0.999792 0.019570 0.005754
vn 0.999792 0.019570 0.005754
vn 0.228207 -0.222062 -0.947950
vn 0.228207 -0.222062 -0.947950
vn 0.228207 -0.222062 -0.947950
vn 0.318424 -0.083402 -0.944272
vn 0.318424 -0.083402 -0.944272
vn 0.318424 -0.083402 -0.944272
vn 0.000000 -1.000000 0.000000
vn 0.000000 -1.000000 0.000000
vn 0.000000 -1.000000 0.000000
vn 0.000000 -1.000000 0.000000
vn 0.000000 -1.000000 0.000000
vn -0.000000 0.000000 1.000000
vn -0.000000 0.000000 1.000000
vn -0.000000 0.000000 1.000000
vn -0.000000 0.000000 1.000000
vn -0.000000 0.000000 1.000000
vn 0.999524 -0.012883 0.028019
vn 0.999524 -0.012883 0.028019
vn 0.999524 -0.012883 0.028019
vn 0.999524 -0.012883 0.028019
vn 0.999524 -0.012883 0.028019
vn 0.999920 0.009933 0.007804
vn 0.999920 0.009933 0.007804
vn 0.999920 0.009933 0.007804
vn 0.999920 0.009933 0.007804
vn 0.999920 0.009933 0.007804
vn -0.000000 -0.000000 1.000000
vn -0.000000 -0.000000 1.000000
vn -0.000000 -0.000000 1.000000
vn -0.000000 -0.000000 1.000000
vn -0.000000 -0.000000 1.000000
vn -0.999922 -0.011319 0.005230
vn -0.999922 -0.011319 0.005230
vn -0.999922 -0.011319 0.005230
vn -0.999922 -0.011319 0.005230
vn -0.999922 -0.011319 0.005230
vn -0.000000 0.000000 1.000000
vn -0.000000 0.000000 1.000000
vn -0.000000 0.000000 1.000000
vn -0.000000 0.000000 1.000000
vn -0.000000 0.000000 1.000000
vn -0.000000 0.000000 1.000000
vn -0.000000 0.000000 1.000000
vn -0.000000 0.000000 1.000000
vn -0.000000 0.000000 1.000000
vn -0.000000 0.000000 1.000000
vn -0.999910 0.011337 0.007147
vn -0.999910 0.011337 0.007147
vn -0.999910 0.011337 0.007147
vn -0.999910 0.011337 0.007147
vn -0.999910 0.011337 0.007147
vn -0.276792 0.296317 0.914102
vn -0.276792 0.296317 0.914102
vn -0.276792 0.296317 0.914102
vn 0.120066 0.348951 0.929418
vn 0.120066 0.348951 0.929418
vn 0.120066 0.348951 0.929418
vn 0.005271 0.479087 0.877752
vn 0.005271 0.479087 0.877752
vn 0.005271 0.479087 0.877752
vn 0.000002 0.000002 1.000000
vn 0.000002 0.000002 1.000000
vn 0.000002 0.000002 1.000000
vn 0.000002 0.000002 1.000000
vn -1.000000 0.000008 0.000000
vn -1.000000 0.000008 0.000000
vn -1.000000 0.000008 0.000000
vn -1.000000 0.000008 0.000000
vn -1.000000 0.000008 0.000000
vn -0.000000 0.000002 1.000000
vn -0.000000 0.000002 1.000000
vn -0.000000 0.000002 1.000000
vn -0.000000 0.000002 1.000000
vn -0.000000 0.000002 1.000000
vn 0.000002 0.000002 1.000000
vn 0.000002 0.000002 1.000000
vn -0.000000 0.000002 1.000000
vn -0.000000 0.000002 1.000000
vn 0.050736 0.930610 0.362478
vn 0.050736 0.930610 0.362478
vn 0.050736 0.930610 0.362478
vn 0.050736 0.930610 0.362478
vn -0.011315 0.927048 0.374773
vn -0.011315 0.927048 0.374773
vn -0.011315 0.927047 0.374773
vn 0.999925 -0.012097 0.001778
vn 0.999925 -0.012097 0.001778
vn 0.999925 -0.012097 0.001778
vn 0.999925 -0.012097 0.001778
vn 0.999925 -0.012097 0.001778
vn -0.000000 0.000000 -1.000000
vn -0.000000 0.000000 -1.000000
vn -0.000000 0.000000 -1.000000
vn -0.000000 0.000000 -1.000000
vn -0.000000 0.000000 -1.000000
vn 0.000000 0.000000 -1.000000
vn 0.000000 0.000000 -1.000000
vn 0.000000 0.000000 -1.000000
vn 0.000000 0.000000 -1.000000
vn 0.000000 0.000000 -1.000000
vn 0.999922 0.012486 -0.000836
vn 0.999922 0.012486 -0.000836
vn 0.999922 0.012486 -0.000836
vn 0.999922 0.012486 -0.000836
vn 0.999922 0.012486 -0.000836
vn 0.000000 0.000000 -1.000000
vn 0.000000 0.000000 -1.000000
vn 0.000000 0.000000 -1.000000
vn 0.000000 0.000000 -1.000000
vn 0.000000 0.000000 -1.000000
vn 0.000000 0.000000 -1.000000
vn 0.000000 0.000000 -1.000000
vn 0.000000 0.000000 -1.000000
vn 0.000000 0.000000 -1.000000
vn 0.000000 0.000000 -1.000000
vn 0.000000 -1.000000 -0.000053
vn 0.000000 -1.000000 -0.000033
vn 0.000000 -1.000000 -0.000004
vn -0.011021 0.000000 0.999939
vn -0.011021 0.000000 0.999939
vn -0.011021 0.000000 0.999939
vn -0.011021 0.000000 0.999939
vn -0.011021 0.000000 -0.999939
vn -0.011021 0.000000 -0.999939
vn -0.011021 0.000000 -0.999939
vn -0.011021 0.000000 -0.999939
vn -0.060897 -0.998144 -0.000006
vn -0.060897 -0.998144 -0.000006
vn -0.060897 -0.998144 -0.000006
vn -0.060897 -0.998144 -0.000006
vn -0.009850 0.999952 0.000000
vn -0.009850 0.999952 0.000000
vn -0.009850 0.999952 0.000000
vn -0.009850 0.999952 0.000000
vn 0.007794 0.000000 0.999970
vn 0.007794 0.000000 0.999970
vn 0.007794 0.000000 0.999970
vn 0.007794 0.000000 0.999970
vn 0.043044 -0.999073 0.000004
vn 0.043044 -0.999073 0.000004
vn 0.043044 -0.999073 0.000004
vn 0.043044 -0.999073 0.000004
vn 0.007795 0.000000 -0.999970
vn 0.007795 0.000000 -0.999970
vn 0.007795 0.000000 -0.999970
vn 0.007795 0.000000 -0.999970
vn 0.006956 0.999976 0.000000
vn 0.006956 0.999976 0.000000
vn 0.006956 0.999976 0.000000
vn 0.006956 0.999976 0.000000
vn -0.011315 0.927048 0.374773
vn -0.011315 0.927047 0.374773
vn -0.011315 0.927048 0.374773
s off
f 55/1/1 3/2/2 6/3/3 5/4/4 76/5/5 77/6/6
f 9/7/7 13/8/8 12/9/9 11/10/10
f 70/11/11 69/12/12 71/13/13
f 13/14/14 9/15/15 10/16/16 15/17/17
f 6/3/18 12/9/19 13/8/20 5/18/21
f 7/19/22 66/20/23 6/3/24
f 8/21/25 15/22/26 14/23/27 7/19/28
f 5/24/29 13/14/30 15/17/31 8/25/32
f 11/26/33 70/27/34 10/16/35 9/15/36
f 58/28/37 17/29/38 59/30/39
f 2/31/40 18/32/41 19/33/42 1/34/43
f 1/34/44 19/33/45 16/35/46 3/2/47
f 6/3/48 20/36/49 21/37/50 7/19/51
f 60/38/52 17/29/53 58/28/54
f 3/2/55 16/35/56 20/36/57 6/3/58
f 18/32/59 24/39/60 25/40/61 19/33/62
f 19/33/63 25/40/64 22/41/65 16/35/66
f 20/36/67 26/42/68 27/43/69 21/37/70
f 16/35/71 22/41/72 26/42/73 20/36/74
f 23/44/75 29/45/76 30/46/77 24/47/78
f 31/48/79 25/49/80 24/47/81 30/46/82
f 61/50/83 28/51/84 62/52/85
f 26/53/86 32/54/87 33/55/88 27/56/89
f 27/56/90 33/55/91 29/45/92 23/44/93
f 62/52/94 28/51/95 63/57/96
f 29/45/97 34/58/98 35/59/99 30/46/100
f 31/48/101 30/46/102 35/59/103 38/60/104
f 33/55/105 36/61/106 34/58/107 29/45/108
f 32/54/109 39/62/110 36/61/111 33/55/112
f 34/58/113 40/63/114 41/64/115 35/59/116
f 35/59/117 41/64/118 44/65/119 38/60/120
f 36/61/121 42/66/122 40/63/123 34/58/124
f 38/60/125 44/65/126 43/67/127 37/68/128
f 37/68/129 43/67/130 45/69/131 39/62/132
f 39/62/133 45/69/134 42/66/135 36/61/136
f 47/70/137 50/71/138 44/65/139 41/64/140
f 44/65/141 50/71/142 49/72/143 43/67/144
f 43/67/145 49/72/146 51/73/147 45/69/148
f 48/74/149 42/66/150 45/69/151 51/73/152
f 46/75/153 73/76/154 72/77/155
f 53/78/156 56/79/157 50/71/158 47/70/159
f 73/76/160 46/75/161 74/80/162
f 50/71/163 56/79/164 55/1/165 49/72/166
f 53/78/167 52/81/168 4/82/169 2/31/170
f 56/79/171 53/78/172 2/31/173 1/34/174
f 52/81/175 54/83/176 8/21/177 7/19/178 4/82/179
f 55/1/180 56/79/181 1/84/182 3/2/183
f 76/5/184 57/85/185 77/6/186
f 75/86/187 57/85/188 76/5/189
f 5/4/190 8/87/191 54/83/192 75/86/193 76/5/194
f 4/82/195 58/28/196 59/30/197 18/32/198 2/31/199
f 17/29/200 23/88/201 24/39/202 18/32/203 59/30/204
f 21/37/205 27/43/206 23/88/207 17/29/208 60/38/209
f 7/19/210 21/37/211 60/38/212 58/28/213 4/82/214
f 31/48/215 38/60/216 37/68/217 28/51/218 61/50/219
f 25/49/220 31/48/221 61/50/222 62/52/223 22/89/224
f 22/89/225 62/52/226 63/57/227 32/54/228 26/53/229
f 28/51/230 37/68/231 39/62/232 32/54/233 63/57/234
f 64/90/235 66/20/236 68/91/237
f 66/20/238 65/92/239 67/93/240
f 66/20/241 67/93/242 68/91/243
f 11/10/244 12/9/245 64/90/246 68/91/247
f 69/12/248 14/23/249 15/22/250 10/94/251 71/13/252
f 67/93/253 65/92/254 14/23/255 69/12/256 70/11/257
f 11/10/258 68/91/259 67/93/260 70/11/261
f 66/20/262 64/90/263 12/9/264 6/3/265
f 7/19/266 14/23/267 65/92/268
f 40/63/269 46/75/270 72/77/271 47/70/272 41/64/273
f 73/76/274 52/81/275 53/78/276 47/70/277 72/77/278
f 48/74/279 54/83/280 52/81/281 73/76/282 74/80/283
f 42/66/284 48/74/285 74/80/286 46/75/287 40/63/288
f 49/72/289 55/1/290 77/6/291 57/85/292 51/73/293
f 75/86/294 54/83/295 48/74/296 51/73/297 57/85/298
f 10/16/299 70/27/300 71/95/301
f 86/96/302 87/97/303 81/98/304 80/99/305
f 82/100/306 83/101/307 88/102/308 89/103/309
f 87/104/310 88/105/311 83/106/312 81/107/313
f 89/108/314 86/109/315 80/110/316 82/111/317
f 78/112/318 79/113/319 87/114/320 86/115/321
f 79/116/322 85/117/323 88/118/324 87/119/325
f 89/120/326 88/121/327 85/122/328 84/123/329
f 84/124/330 78/125/331 86/126/332 89/127/333
f 7/19/334 65/92/335 66/20/336
v 168.487808 167.329132 6.989169
v 168.487808 216.510315 6.989169
v 79.424789 167.329071 6.989360
v 79.424789 216.510315 6.989360
v 168.487808 70.941238 6.989168
v 79.424789 70.941193 6.989360
v 79.424789 167.329102 6.989360
vt 0.499257 0.269393
vt 0.499257 0.389312
vt 0.409995 0.389312
vt 0.409995 0.269393
vt 0.499257 0.269393
vt 0.499257 0.389312
vt 0.409995 0.389312
vt 0.409995 0.269393
vn 0.000003 0.000000 1.000000
vn 0.000003 0.000000 1.000000
vn 0.000003 0.000000 1.000000
vn 0.000003 0.000000 1.000000
vn 0.000003 0.000000 1.000000
vn 0.000003 0.000000 1.000000
vn 0.000003 0.000000 1.000000
vn 0.000003 0.000000 1.000000
s off
f 90/128/337 91/129/338 93/130/339 92/131/340
f 94/132/341 90/133/342 96/134/343 95/135/344
