# This file uses meters as units for non-parametric coordinates.

v 180.604721 216.908264 -11.477753
v 69.673889 216.908264 -11.477753
v 180.604721 224.758316 -11.477753
v 69.673889 224.758316 -11.477753
v 180.604721 224.758316 4.795437
v 69.673889 224.758316 4.795437
v 180.604721 216.908264 4.795437
v 69.673889 216.908264 4.795437
v 83.129288 223.643066 -6.290398
v 81.576218 223.643066 -6.290398
v 83.129288 223.643066 -4.964457
v 81.576218 223.643066 -4.964457
v 167.979034 210.614868 -6.290398
v 166.425919 210.614868 -6.290398
v 167.979034 223.643066 -6.290398
v 166.425919 223.643066 -6.290398
v 167.979034 223.643066 -4.964457
v 166.425919 223.643066 -4.964457
v 167.979034 210.614868 -4.964457
v 166.425919 210.614868 -4.964457
v 83.129288 75.546745 -5.035719
v 81.576218 75.546745 -5.035719
v 81.576218 75.546745 -6.361658
v 83.129288 75.546745 -6.361658
v 83.531845 75.387337 -4.563078
v 81.164352 75.387337 -4.563078
v 81.164352 75.387337 -6.834299
v 83.531845 75.387337 -6.834299
v 83.531845 73.534264 -4.563078
v 81.164352 73.534264 -4.563078
v 81.164352 73.534264 -6.834299
v 83.531845 73.534264 -6.834299
v 171.905121 208.801849 -6.717617
v 79.051804 208.801849 -6.717617
v 171.705688 210.080017 -6.989918
v 78.852402 210.080017 -6.989918
v 171.705688 216.668091 -4.487476
v 78.852402 216.668091 -4.487476
v 171.905121 215.222900 -3.813065
v 79.051804 215.222900 -3.813065
v 78.852402 204.203125 -4.539345
v 171.705688 204.203125 -4.539345
v 78.852402 198.762390 -7.041882
v 171.705688 198.762390 -7.041882
v 78.852402 200.861298 -7.206688
v 171.705688 200.861298 -7.206688
v 171.705688 206.213226 -4.246523
v 78.852402 206.213226 -4.246523
v 78.339981 202.577423 -6.824381
v 171.193283 202.577423 -6.824381
v 171.193283 208.493256 -4.321844
v 78.339981 208.493256 -4.321844
v 78.339981 204.129883 -6.863144
v 171.193283 204.129883 -6.863144
v 171.193283 210.123535 -4.113712
v 78.339981 210.123535 -4.113712
v 78.852402 205.553406 -6.853628
v 171.705688 205.553406 -6.853628
v 171.705688 211.645294 -3.985920
v 78.852402 211.645294 -3.985920
v 79.051804 207.059509 -6.577909
v 171.905121 207.059509 -6.577909
v 171.905121 213.513733 -4.075373
v 79.051804 213.513733 -4.075373
vt 0.390384 0.009659
vt 0.390384 0.009659
vt 0.390384 0.009659
vt 0.390384 0.009659
vt 0.390384 0.009659
vt 0.390384 0.009659
vt 0.390384 0.009659
vt 0.390384 0.009659
vt 0.390384 0.009659
vt 0.390384 0.009659
vt 0.390384 0.009659
vt 0.390384 0.009659
vt 0.390384 0.009659
vt 0.390384 0.009659
vt 0.329701 0.009646
vt 0.329701 0.009646
vt 0.329701 0.009646
vt 0.329701 0.009646
vt 0.329701 0.009646
vt 0.329701 0.009646
vt 0.329701 0.009646
vt 0.329701 0.009646
vt 0.451038 0.009710
vt 0.451038 0.009710
vt 0.451038 0.009710
vt 0.451038 0.009710
vt 0.329701 0.009646
vt 0.329701 0.009646
vt 0.329701 0.009646
vt 0.329701 0.009646
vt 0.329701 0.009646
vt 0.329701 0.009646
vt 0.329701 0.009646
vt 0.329701 0.009646
vt 0.329701 0.009646
vt 0.329701 0.009646
vt 0.329701 0.009646
vt 0.329701 0.009646
vt 0.329701 0.009646
vt 0.329701 0.009646
vt 0.329701 0.009646
vt 0.329701 0.009646
vt 0.451038 0.009710
vt 0.451038 0.009710
vt 0.451038 0.009710
vt 0.451038 0.009710
vt 0.451038 0.009710
vt 0.451038 0.009710
vt 0.451038 0.009710
vt 0.451038 0.009710
vt 0.389417 0.009651
vt 0.389417 0.009651
vt 0.389417 0.009651
vt 0.389417 0.009651
vt 0.389417 0.009651
vt 0.389417 0.009651
vt 0.389417 0.009651
vt 0.389417 0.009651
vt 0.389417 0.009651
vt 0.389417 0.009651
vt 0.389417 0.009651
vt 0.389417 0.009651
vt 0.389417 0.009651
vt 0.389417 0.009651
vt 0.389417 0.009651
vt 0.389417 0.009651
vt 0.389417 0.009651
vt 0.389417 0.009651
vt 0.389417 0.009651
vt 0.389417 0.009651
vt 0.389417 0.009651
vt 0.389417 0.009651
vt 0.389417 0.009651
vt 0.389417 0.009651
vt 0.389417 0.009651
vt 0.389417 0.009651
vt 0.389417 0.009651
vt 0.389417 0.009651
vt 0.389417 0.009651
vt 0.389417 0.009651
vt 0.389417 0.009651
vt 0.389417 0.009651
vt 0.389417 0.009651
vt 0.389417 0.009651
vt 0.389417 0.009651
vt 0.389417 0.009651
vt 0.389417 0.009651
vt 0.389417 0.009651
vt 0.389417 0.009651
vt 0.389417 0.009651
vt 0.417298 0.009651
vt 0.417298 0.009651
vt 0.417298 0.009651
vt 0.417298 0.009651
vt 0.417298 0.009651
vt 0.417298 0.009651
vt 0.417298 0.009651
vt 0.417298 0.009651
vt 0.417298 0.009651
vt 0.417298 0.009651
vt 0.417298 0.009651
vt 0.417298 0.009651
vt 0.417298 0.009651
vt 0.417298 0.009651
vt 0.417298 0.009651
vt 0.417298 0.009651
vt 0.357952 0.009651
vt 0.357952 0.009651
vt 0.357952 0.009651
vt 0.357952 0.009651
vt 0.357952 0.009651
vt 0.357952 0.009651
vt 0.357952 0.009651
vt 0.357952 0.009651
vt 0.357952 0.009651
vt 0.357952 0.009651
vt 0.357952 0.009651
vt 0.357952 0.009651
vt 0.357952 0.009651
vt 0.357952 0.009651
vt 0.357952 0.009651
vt 0.357952 0.009651
vt 0.417298 0.009651
vt 0.417298 0.009651
vt 0.417298 0.009651
vt 0.417298 0.009651
vt 0.417298 0.009651
vt 0.417298 0.009651
vt 0.417298 0.009651
vt 0.417298 0.009651
vt 0.417298 0.009651
vt 0.417298 0.009651
vt 0.417298 0.009651
vt 0.417298 0.009651
vt 0.417298 0.009651
vt 0.417298 0.009651
vt 0.417298 0.009651
vt 0.417298 0.009651
vt 0.389417 0.009651
vt 0.389417 0.009651
vt 0.389417 0.009651
vt 0.389417 0.009651
vt 0.389417 0.009651
vt 0.389417 0.009651
vt 0.389417 0.009651
vt 0.389417 0.009651
vt 0.389417 0.009651
vt 0.389417 0.009651
vt 0.389417 0.009651
vt 0.389417 0.009651
vt 0.389417 0.009651
vt 0.389417 0.009651
vt 0.389417 0.009651
vt 0.389417 0.009651
vt 0.360966 0.009651
vt 0.360966 0.009651
vt 0.360966 0.009651
vt 0.360966 0.009651
vt 0.360966 0.009651
vt 0.360966 0.009651
vt 0.360966 0.009651
vt 0.360966 0.009651
vt 0.360966 0.009651
vt 0.360966 0.009651
vt 0.360966 0.009651
vt 0.360966 0.009651
vt 0.360966 0.009651
vt 0.360966 0.009651
vt 0.360966 0.009651
vt 0.360966 0.009651
vn 0.000000 0.000000 -1.000000
vn 0.000000 0.000000 -1.000000
vn 0.000000 0.000000 -1.000000
vn 0.000000 0.000000 -1.000000
vn 0.000000 1.000000 0.000000
vn 0.000000 1.000000 0.000000
vn 0.000000 1.000000 0.000000
vn 0.000000 1.000000 0.000000
vn 0.000000 0.000000 1.000000
vn 0.000000 0.000000 1.000000
vn 0.000000 0.000000 1.000000
vn 0.000000 0.000000 1.000000
vn 0.000000 -1.000000 0.000000
vn 0.000000 -1.000000 0.000000
vn 0.000000 -1.000000 0.000000
vn 0.000000 -1.000000 0.000000
vn -1.000000 0.000000 0.000000
vn -1.000000 0.000000 0.000000
vn -1.000000 0.000000 0.000000
vn -1.000000 0.000000 0.000000
vn 1.000000 0.000000 0.000000
vn 1.000000 0.000000 0.000000
vn 1.000000 0.000000 0.000000
vn 1.000000 0.000000 0.000000
vn 0.000000 0.000481 -1.000000
vn 0.000000 0.000481 -1.000000
vn 0.000000 0.000481 -1.000000
vn 0.000000 0.000481 -1.000000
vn 0.000000 1.000000 0.000000
vn 0.000000 1.000000 0.000000
vn 0.000000 1.000000 0.000000
vn 0.000000 1.000000 0.000000
vn 0.000000 -0.000481 1.000000
vn 0.000000 -0.000481 1.000000
vn 0.000000 -0.000481 1.000000
vn 0.000000 -0.000481 1.000000
vn 0.000000 -1.000000 0.000000
vn 0.000000 -1.000000 0.000000
vn 0.000000 -1.000000 0.000000
vn 0.000000 -1.000000 0.000000
vn -1.000000 0.000000 0.000000
vn -1.000000 0.000000 0.000000
vn -1.000000 0.000000 0.000000
vn -1.000000 0.000000 0.000000
vn 1.000000 -0.000000 0.000000
vn 1.000000 -0.000000 0.000000
vn 1.000000 -0.000000 0.000000
vn 1.000000 -0.000000 0.000000
vn 0.000000 0.000000 -1.000000
vn 0.000000 0.000000 -1.000000
vn 0.000000 0.000000 -1.000000
vn 0.000000 0.000000 -1.000000
vn 0.000000 1.000000 0.000000
vn 0.000000 1.000000 0.000000
vn 0.000000 1.000000 0.000000
vn 0.000000 1.000000 0.000000
vn 0.000000 0.000000 1.000000
vn 0.000000 0.000000 1.000000
vn 0.000000 0.000000 1.000000
vn 0.000000 0.000000 1.000000
vn 0.000000 -1.000000 0.000000
vn 0.000000 -1.000000 0.000000
vn 0.000000 -1.000000 0.000000
vn 0.000000 -1.000000 0.000000
vn -1.000000 0.000000 0.000000
vn -1.000000 0.000000 0.000000
vn -1.000000 0.000000 0.000000
vn -1.000000 0.000000 0.000000
vn 1.000000 0.000000 0.000000
vn 1.000000 0.000000 0.000000
vn 1.000000 0.000000 0.000000
vn 1.000000 0.000000 0.000000
vn 0.000000 0.947560 0.319577
vn 0.000000 0.947560 0.319577
vn 0.000000 0.947560 0.319577
vn 0.000000 0.947560 0.319577
vn -0.360954 0.932584 0.000000
vn -0.360954 0.932584 0.000000
vn -0.360954 0.932584 0.000000
vn -0.360954 0.932584 0.000000
vn 0.000000 0.947561 -0.319575
vn 0.000000 0.947561 -0.319575
vn 0.000000 0.947561 -0.319575
vn 0.000000 0.947561 -0.319575
vn 0.368170 0.929759 0.000000
vn 0.368170 0.929759 0.000000
vn 0.368170 0.929758 0.000000
vn 0.368170 0.929758 0.000000
vn 0.000000 0.000000 1.000000
vn 0.000000 0.000000 1.000000
vn 0.000000 0.000000 1.000000
vn 0.000000 0.000000 1.000000
vn -1.000000 0.000000 0.000000
vn -1.000000 0.000000 0.000000
vn -1.000000 0.000000 0.000000
vn -1.000000 0.000000 0.000000
vn 0.000000 0.000000 -1.000000
vn 0.000000 0.000000 -1.000000
vn 0.000000 0.000000 -1.000000
vn 0.000000 0.000000 -1.000000
vn 1.000000 0.000000 0.000000
vn 1.000000 0.000000 0.000000
vn 1.000000 0.000000 0.000000
vn 1.000000 0.000000 0.000000
vn 0.000000 -0.208368 -0.978050
vn 0.000000 -0.208368 -0.978050
vn 0.000000 -0.208368 -0.978050
vn 0.000000 -0.208368 -0.978050
vn 0.000000 0.355090 -0.934832
vn 0.000000 0.355090 -0.934832
vn 0.000000 0.355090 -0.934832
vn 0.000000 0.355090 -0.934832
vn 0.000000 0.422883 0.906184
vn 0.000000 0.422883 0.906184
vn 0.000000 0.422883 0.906184
vn 0.000000 0.422883 0.906184
vn 0.000000 -0.417877 0.908504
vn 0.000000 -0.417877 0.908504
vn 0.000000 -0.417877 0.908504
vn 0.000000 -0.417877 0.908504
vn -0.979090 -0.078074 0.187848
vn -0.979090 -0.078074 0.187848
vn -0.979090 -0.078074 0.187848
vn -0.979090 -0.078074 0.187848
vn 0.979084 0.078085 -0.187875
vn 0.979084 0.078085 -0.187875
vn 0.979084 0.078085 -0.187875
vn 0.979084 0.078085 -0.187875
vn 0.000000 -0.144154 0.989555
vn 0.000000 -0.144154 0.989555
vn 0.000000 -0.144154 0.989555
vn 0.000000 -0.144154 0.989555
vn -1.000000 -0.000000 0.000000
vn -1.000000 -0.000000 0.000000
vn -1.000000 -0.000000 0.000000
vn -1.000000 -0.000000 0.000000
vn 0.000000 -0.078279 -0.996932
vn 0.000000 -0.078279 -0.996932
vn 0.000000 -0.078279 -0.996932
vn 0.000000 -0.078279 -0.996932
vn 1.000000 0.000001 0.000000
vn 1.000000 0.000001 0.000000
vn 1.000000 0.000001 0.000000
vn 1.000000 0.000001 0.000000
vn 0.000000 0.217442 -0.976073
vn 0.000000 0.217442 -0.976073
vn 0.000000 0.217442 -0.976073
vn 0.000000 0.217442 -0.976073
vn 0.819793 0.249818 -0.515297
vn 0.819793 0.249818 -0.515297
vn 0.819793 0.249818 -0.515297
vn 0.819793 0.249818 -0.515297
vn 0.000000 0.033017 0.999455
vn 0.000000 0.033017 0.999455
vn 0.000000 0.033017 0.999455
vn 0.000000 0.033017 0.999455
vn -0.819784 -0.249825 0.515307
vn -0.819784 -0.249825 0.515307
vn -0.819784 -0.249825 0.515307
vn -0.819784 -0.249825 0.515307
vn 0.000000 -0.024961 -0.999688
vn 0.000000 -0.024961 -0.999688
vn 0.000000 -0.024961 -0.999688
vn 0.000000 -0.024961 -0.999688
vn 1.000000 -0.000004 0.000000
vn 1.000000 -0.000004 0.000000
vn 1.000000 -0.000004 0.000000
vn 1.000000 -0.000004 0.000000
vn 0.000000 -0.126638 0.991949
vn 0.000000 -0.126638 0.991949
vn 0.000000 -0.126638 0.991949
vn 0.000000 -0.126638 0.991949
vn -1.000000 -0.000001 0.000000
vn -1.000000 -0.000001 0.000000
vn -1.000000 -0.000001 0.000000
vn -1.000000 -0.000001 0.000000
vn 0.000000 0.006685 -0.999978
vn 0.000000 0.006685 -0.999978
vn 0.000000 0.006685 -0.999978
vn 0.000000 0.006685 -0.999978
vn 0.736821 -0.284958 0.613102
vn 0.736820 -0.284958 0.613102
vn 0.736820 -0.284958 0.613102
vn 0.736820 -0.284958 0.613102
vn 0.000000 -0.083682 0.996493
vn 0.000000 -0.083682 0.996493
vn 0.000000 -0.083682 0.996493
vn 0.000000 -0.083682 0.996493
vn -0.736809 0.284965 -0.613113
vn -0.736809 0.284965 -0.613113
vn -0.736809 0.284965 -0.613113
vn -0.736809 0.284965 -0.613113
vn 0.000000 0.180075 -0.983653
vn 0.000000 0.180075 -0.983653
vn 0.000000 0.180075 -0.983653
vn 0.000000 0.180075 -0.983653
vn 0.945370 -0.128281 0.299699
vn 0.945370 -0.128281 0.299699
vn 0.945370 -0.128281 0.299699
vn 0.945370 -0.128281 0.299699
vn 0.000000 0.047821 0.998856
vn 0.000000 0.047821 0.998856
vn 0.000000 0.047821 0.998856
vn 0.000000 0.047821 0.998856
vn -0.945385 0.128265 -0.299658
vn -0.945385 0.128265 -0.299658
vn -0.945385 0.128265 -0.299658
vn -0.945385 0.128265 -0.299658
vn 0.000000 -0.079927 -0.996801
vn 0.000000 -0.079927 -0.996801
vn 0.000000 -0.079927 -0.996801
vn 0.000000 -0.079927 -0.996801
vn 1.000000 -0.000001 0.000000
vn 1.000000 -0.000001 0.000000
vn 1.000000 -0.000001 0.000000
vn 1.000000 -0.000001 0.000000
vn 0.000000 -0.151696 0.988427
vn 0.000000 -0.151696 0.988427
vn 0.000000 -0.151696 0.988427
vn 0.000000 -0.151696 0.988427
vn -1.000000 0.000000 0.000000
vn -1.000000 0.000000 0.000000
vn -1.000000 0.000000 0.000000
vn -1.000000 0.000000 0.000000
s off
f 1/1/1 2/2/2 4/4/3 3/3/4
f 3/3/5 4/4/6 6/6/7 5/5/8
f 5/5/9 6/6/10 8/8/11 7/7/12
f 7/7/13 8/8/14 2/10/15 1/9/16
f 2/2/17 8/11/18 6/12/19 4/4/20
f 7/13/21 1/1/22 3/3/23 5/14/24
f 10/15/25 9/16/26 24/17/27 23/18/28
f 9/16/29 10/15/30 12/19/31 11/20/32
f 11/20/33 12/19/34 22/21/35 21/22/36
f 29/23/37 30/24/38 31/25/39 32/26/40
f 12/27/41 10/15/42 23/18/43 22/21/44
f 9/16/45 11/28/46 21/22/47 24/17/48
f 13/29/49 14/30/50 16/31/51 15/32/52
f 15/32/53 16/31/54 18/33/55 17/34/56
f 17/34/57 18/33/58 20/35/59 19/36/60
f 19/36/61 20/35/62 14/37/63 13/38/64
f 14/30/65 20/39/66 18/40/67 16/31/68
f 19/41/69 13/29/70 15/32/71 17/42/72
f 21/43/73 22/44/74 26/45/75 25/46/76
f 22/44/77 23/47/78 27/48/79 26/45/80
f 23/47/81 24/49/82 28/50/83 27/48/84
f 24/49/85 21/43/86 25/46/87 28/50/88
f 25/46/89 26/45/90 30/24/91 29/23/92
f 26/45/93 27/48/94 31/25/95 30/24/96
f 27/48/97 28/50/98 32/26/99 31/25/100
f 28/50/101 25/46/102 29/23/103 32/26/104
f 33/51/105 34/52/106 36/53/107 35/54/108
f 35/55/109 36/56/110 38/57/111 37/58/112
f 37/59/113 38/60/114 40/61/115 39/62/116
f 42/63/117 41/64/118 43/65/119 44/66/120
f 34/67/121 40/68/122 38/69/123 36/70/124
f 39/71/125 33/72/126 35/73/127 37/74/128
f 47/75/129 48/76/130 41/77/131 42/78/132
f 48/79/133 45/80/134 43/81/135 41/82/136
f 45/83/137 46/84/138 44/85/139 43/86/140
f 46/87/141 47/88/142 42/89/143 44/90/144
f 46/91/145 45/92/146 49/93/147 50/94/148
f 47/95/149 46/96/150 50/97/151 51/98/152
f 48/99/153 47/100/154 51/101/155 52/102/156
f 45/103/157 48/104/158 52/105/159 49/106/160
f 53/107/161 54/108/162 50/109/163 49/110/164
f 54/111/165 55/112/166 51/113/167 50/114/168
f 55/115/169 56/116/170 52/117/171 51/118/172
f 56/119/173 53/120/174 49/121/175 52/122/176
f 57/123/177 58/124/178 54/125/179 53/126/180
f 58/127/181 59/128/182 55/129/183 54/130/184
f 59/131/185 60/132/186 56/133/187 55/134/188
f 60/135/189 57/136/190 53/137/191 56/138/192
f 61/139/193 62/140/194 58/141/195 57/142/196
f 62/143/197 63/144/198 59/145/199 58/146/200
f 63/147/201 64/148/202 60/149/203 59/150/204
f 64/151/205 61/152/206 57/153/207 60/154/208
f 34/155/209 33/156/210 62/157/211 61/158/212
f 33/159/213 39/160/214 63/161/215 62/162/216
f 39/163/217 40/164/218 64/165/219 63/166/220
f 40/167/221 34/168/222 61/169/223 64/170/224
