# This file uses meters as units for non-parametric coordinates.

v -20.000884 219.611969 124.999817
v -20.001647 -10.000000 124.999939
v -20.001846 151.722504 249.999939
v -20.001846 -10.000000 249.999939
v -28.915450 151.722504 249.999939
v -28.914489 219.611969 124.999817
v -28.914489 231.649200 124.999817
v -0.001556 231.649200 124.999817
v -28.915450 162.790436 249.999939
v -0.002151 162.790436 249.999939
v -28.915450 151.722504 249.999939
v -20.001785 151.722504 -0.000123
v -19.999938 -10.000000 -0.000062
v -28.915450 151.722565 -0.000062
v -28.915450 162.790436 -0.000062
v -0.002136 162.790436 -0.000062
v -28.915450 151.722565 -0.000062
v -28.914489 225.855988 132.812317
v -0.001540 225.855988 132.812317
v -0.001556 225.855988 117.187317
v -28.914489 225.855988 117.187317
v -28.914489 227.444855 117.187317
v -0.001556 227.444855 117.187317
v -28.914489 227.444855 132.812317
v -0.001540 227.444855 132.812317
v -21.687118 162.790436 249.999939
v -21.686263 225.855988 132.812317
v -21.686263 227.444855 132.812317
v -21.686263 231.649200 124.999817
v -21.686263 227.444855 117.187317
v -21.686263 225.855988 117.187317
v -21.687118 162.790436 -0.000062
v -20.000167 9.154280 -0.000062
v -20.001586 9.154280 124.999939
v -20.001846 9.154280 249.999939
vt 0.588038 0.955920
vt 0.588038 0.799022
vt 0.668874 0.799022
vt 0.668874 0.911719
vt 0.904264 0.503648
vt 0.904264 0.503648
vt 0.904264 0.503648
vt 0.904264 0.503648
vt 0.904264 0.503648
vt 0.904572 0.502945
vt 0.904572 0.502945
vt 0.904264 0.503648
vt 0.904264 0.503648
vt 0.904264 0.503648
vt 0.904264 0.503648
vt 0.506990 0.911719
vt 0.506990 0.799022
vt 0.904264 0.503648
vt 0.904264 0.503648
vt 0.904264 0.503648
vt 0.904264 0.503648
vt 0.904264 0.503648
vt 0.904572 0.502945
vt 0.904264 0.503648
vt 0.904264 0.503648
vt 0.904264 0.503648
vt 0.904264 0.503648
vt 0.904264 0.503648
vt 0.506944 0.727015
vt 0.526272 0.727015
vt 0.526272 0.650766
vt 0.506944 0.650766
vt 0.904572 0.502945
vt 0.904572 0.502945
vt 0.904572 0.502945
vt 0.904572 0.502945
vt 0.904572 0.502945
vt 0.904572 0.502945
vt 0.904572 0.502945
vt 0.904572 0.502945
vt 0.526272 0.727015
vt 0.506944 0.727015
vt 0.506944 0.650766
vt 0.526272 0.650766
vt 0.506990 0.812301
vt 0.588038 0.812301
vt 0.668874 0.812301
vt 0.904572 0.502945
vt 0.904572 0.502945
vt 0.904572 0.502945
vt 0.904572 0.502945
vn -1.000000 0.000000 -0.000002
vn -1.000000 0.000002 -0.000004
vn -1.000000 0.000002 -0.000004
vn -1.000000 0.000000 -0.000002
vn 0.000000 -0.901628 -0.432513
vn 0.000000 -0.901628 -0.432513
vn 0.000000 -0.901628 -0.432513
vn 0.000000 -0.901628 -0.432513
vn 0.000000 0.880582 0.473894
vn 0.000000 0.880582 0.473894
vn 0.000000 0.880582 0.473894
vn 0.000000 0.880582 0.473894
vn -1.000000 0.000001 -0.000001
vn -1.000000 0.000001 -0.000001
vn -1.000000 0.000001 -0.000001
vn -1.000000 0.000001 -0.000001
vn -1.000000 0.000001 0.000002
vn -1.000000 0.000001 0.000002
vn -1.000000 -0.000003 -0.000001
vn -1.000000 -0.000003 -0.000001
vn -0.000004 -0.901628 0.432512
vn -0.000004 -0.901628 0.432512
vn -0.000004 -0.901628 0.432512
vn -0.000004 -0.901628 0.432512
vn 0.000000 0.000000 -1.000000
vn 0.000000 0.000000 -1.000000
vn 0.000000 0.000000 -1.000000
vn 0.000000 0.000000 -1.000000
vn -1.000000 0.000000 -0.000001
vn -1.000000 0.000000 -0.000001
vn -1.000000 0.000000 -0.000001
vn 0.000000 0.904843 0.425745
vn 0.000000 0.904843 0.425745
vn 0.000000 0.904843 0.425745
vn 0.000000 0.904843 0.425745
vn 0.000000 0.904843 -0.425745
vn 0.000000 0.904843 -0.425745
vn 0.000000 0.904843 -0.425745
vn 0.000000 0.904843 -0.425745
vn 0.000000 0.880582 -0.473895
vn 0.000000 0.880581 -0.473895
vn 0.000000 0.880582 -0.473895
vn 0.000000 0.880581 -0.473895
vn 0.000000 0.000000 1.000000
vn 0.000000 0.000000 1.000000
vn 0.000000 0.000000 1.000000
vn 0.000000 0.000000 1.000000
vn -1.000000 0.000000 0.000000
vn -1.000000 0.000000 0.000000
vn -1.000000 0.000000 0.000000
vn -1.000000 0.000001 0.000001
vn -1.000000 0.000001 0.000001
vn -1.000000 0.000001 0.000001
vn -1.000000 0.000001 0.000001
vn -1.000000 0.000000 0.000000
vn -1.000000 0.000000 0.000000
vn -1.000000 0.000000 0.000000
vn -1.000000 0.000000 0.000000
vn -1.000000 0.000000 0.000000
vn -1.000000 0.000000 0.000000
vn 0.000000 0.904843 0.425745
vn 0.000000 0.904843 0.425745
vn 0.000000 0.904843 0.425745
vn 0.000000 0.904843 0.425745
vn 0.000000 0.000000 1.000000
vn 0.000000 0.000000 1.000000
vn 0.000000 0.000000 1.000000
vn 0.000000 0.000000 1.000000
vn 0.000000 0.880583 0.473893
vn 0.000000 0.880583 0.473893
vn 0.000000 0.880583 0.473893
vn 0.000000 0.880583 0.473893
vn 0.000000 0.880583 -0.473892
vn 0.000000 0.880583 -0.473892
vn 0.000000 0.880583 -0.473892
vn 0.000000 0.880583 -0.473892
vn 0.000000 0.000000 -1.000000
vn 0.000000 0.000000 -1.000000
vn 0.000000 0.000000 -1.000000
vn 0.000000 0.000000 -1.000000
vn 0.000000 0.904843 -0.425745
vn 0.000000 0.904843 -0.425745
vn 0.000000 0.904843 -0.425745
vn 0.000000 0.904843 -0.425745
vn -1.000000 -0.000004 -0.000013
vn -1.000000 -0.000004 -0.000013
vn -1.000000 0.000001 0.000002
vn -1.000000 0.000001 0.000002
vn -1.000000 0.000002 -0.000002
vn -1.000000 0.000002 -0.000002
vn -1.000000 0.000000 -0.000002
vn -1.000000 0.000000 -0.000002
s off
f 1/1/1 34/46/2 35/47/3 3/4/4
f 1/5/5 3/6/6 5/7/7 6/8/8
f 24/10/9 28/11/10 29/23/11 7/33/12
f 18/13/13 6/8/14 11/14/15 9/15/16
f 1/1/17 12/16/18 33/45/19 34/46/20
f 1/5/21 6/8/22 14/18/23 12/19/24
f 31/34/25 21/35/26 22/36/27 30/37/28
f 21/21/29 7/12/30 22/22/31
f 26/24/32 27/25/33 18/13/34 9/15/35
f 15/26/36 21/21/37 31/20/38 32/27/39
f 30/37/40 22/36/41 7/33/42 29/23/43
f 27/38/44 28/11/45 24/10/46 18/39/47
f 18/13/48 24/9/49 7/12/50
f 17/28/51 6/8/52 21/21/53 15/26/54
f 21/21/55 6/8/56 7/12/57
f 18/13/58 7/12/59 6/8/60
f 19/29/61 27/30/62 26/31/63 10/32/64
f 25/40/65 28/11/66 27/38/67 19/48/68
f 8/49/69 29/23/70 28/11/71 25/40/72
f 23/50/73 30/37/74 29/23/75 8/49/76
f 31/34/77 30/37/78 23/50/79 20/51/80
f 16/43/81 32/44/82 31/41/83 20/42/84
f 34/46/85 33/45/86 13/17/87 2/2/88
f 35/47/89 34/46/90 2/2/91 4/3/92
