# This file uses meters as units for non-parametric coordinates.

v -20.000107 290.000000 19.999900
v -34.656113 290.000000 34.655753
v -20.000107 290.000000 -249.999989
v -34.656113 290.000000 -249.999989
v 249.999985 299.999939 -250.000142
v -34.656113 309.813232 -249.999989
v -34.656113 309.813232 34.655753
v -2.572617 299.999939 -249.999989
v -2.572617 299.999939 7.915513
v -2.572617 309.813141 7.915513
v -2.572617 309.813141 -249.999989
v 249.999985 290.000000 19.999757
v 249.999985 290.000000 34.655826
v 249.999985 309.813232 34.655826
v 249.999985 299.999939 7.915559
v 249.999985 309.813141 7.915559
vt 0.907793 0.506233
vt 0.907793 0.506233
vt 0.907793 0.506233
vt 0.907793 0.506233
vt 0.907793 0.506233
vt 0.907793 0.506233
vt 0.907793 0.506233
vt 0.907793 0.506233
vt 0.907793 0.506233
vt 0.907793 0.506233
vt 0.907793 0.506233
vt 0.907793 0.506233
vt 0.907793 0.506233
vt 0.907793 0.506233
vt 0.503767 0.745701
vt 0.503768 0.542846
vt 0.667205 0.542847
vt 0.667205 0.745702
vt 0.907793 0.506233
vt 0.907793 0.506233
vt 0.907793 0.506233
vt 0.907793 0.506233
vt 0.907793 0.506233
vt 0.907793 0.506233
vn 0.000000 -1.000000 0.000000
vn 0.000000 -1.000000 0.000000
vn 0.000000 -1.000000 0.000000
vn 0.000000 -1.000000 0.000000
vn -1.000000 0.000000 0.000000
vn -1.000000 0.000000 0.000000
vn -1.000000 0.000000 0.000000
vn -1.000000 0.000000 0.000000
vn 0.000003 1.000000 0.000000
vn 0.000003 1.000000 0.000000
vn 0.000003 1.000000 0.000000
vn 0.000003 1.000000 0.000000
vn 1.000000 0.000000 0.000000
vn 1.000000 0.000000 0.000000
vn 1.000000 0.000000 0.000000
vn 1.000000 0.000000 0.000000
vn 0.000000 -1.000000 0.000000
vn 0.000000 -1.000000 0.000000
vn 0.000000 -1.000000 0.000000
vn 0.000000 -1.000000 0.000000
vn 0.000000 1.000000 0.000000
vn 0.000000 1.000000 0.000000
vn 0.000000 1.000000 0.000000
vn 0.000000 1.000000 0.000000
vn -0.000000 0.000000 1.000000
vn -0.000000 0.000000 1.000000
vn -0.000000 0.000000 1.000000
vn -0.000000 0.000000 1.000000
vn 0.000000 1.000000 -0.000003
vn 0.000000 1.000000 -0.000003
vn 0.000000 1.000000 -0.000003
vn 0.000000 1.000000 -0.000003
vn 0.000000 0.000000 -1.000000
vn 0.000000 0.000000 -1.000000
vn 0.000000 0.000000 -1.000000
vn 0.000000 0.000000 -1.000000
s off
f 2/1/1 4/4/2 3/3/3 1/2/4
f 7/5/5 6/6/6 4/4/7 2/1/8
f 7/5/9 10/8/10 11/7/11 6/6/12
f 11/7/13 10/8/14 9/10/15 8/9/16
f 2/11/17 1/14/18 12/13/19 13/12/20
f 5/15/21 8/18/22 9/17/23 15/16/24
f 7/19/25 2/11/26 13/12/27 14/20/28
f 7/19/29 14/20/30 16/22/31 10/21/32
f 16/22/33 15/24/34 9/23/35 10/21/36
