# This file uses meters as units for non-parametric coordinates.

v 0.000000 69.613976 -83.033897
v 0.000000 34.807018 -41.516960
v 0.000000 121.824440 -145.309082
v 0.000000 87.017509 -103.792145
v 0.000000 52.210484 -62.275337
v 0.000000 17.403498 -20.758560
v 0.000000 121.824440 -125.449432
v 0.000000 87.017540 -83.932503
v 0.000000 52.210484 -42.415718
v 0.000000 17.403498 -0.000000
v 0.000000 138.372971 -146.207809
v 0.000000 69.614037 -63.174095
v 0.000000 34.807018 -21.657150
v 0.000000 407.304169 -146.207809
v 0.000000 280.790314 -0.000000
v 0.000000 104.421021 -124.550697
v 0.000000 104.421021 -104.691032
v 0.000000 138.372971 -250.000000
v 0.000000 407.304169 -250.000000
v -11.215958 -0.000009 -0.000000
v 0.000000 -0.000009 -0.000000
v -11.215958 280.790314 -0.000000
v -11.215958 -0.000009 -250.000000
v -11.215942 280.790314 -249.999985
v -11.215958 280.790314 -0.000000
vt 0.469400 0.779396
vt 0.254221 0.993554
vt 0.437229 0.779396
vt 0.453040 0.765769
vt 0.405452 0.779396
vt 0.421426 0.765769
vt 0.373361 0.779396
vt 0.389499 0.765771
vt 0.340957 0.779396
vt 0.357259 0.765771
vt 0.308196 0.779396
vt 0.324704 0.765771
vt 0.275207 0.779396
vt 0.291836 0.765771
vt 0.242156 0.779396
vt 0.260392 0.765771
vt 0.192028 0.993535
vt 0.104813 0.766324
vt 0.105295 0.993535
vt 0.192028 0.766324
vt 0.006557 0.993554
vt 0.191992 0.766283
vt 0.191992 0.993535
vt 0.006224 0.993535
vt 0.006224 0.766283
vt 0.182900 0.780387
vt 0.174589 0.766342
vt 0.182900 0.766342
vt 0.182900 0.993535
vt 0.174589 0.993535
vt 0.174589 0.993535
vn 1.000000 0.000000 0.000000
vn 1.000000 0.000000 0.000000
vn 1.000000 0.000000 0.000000
vn 0.000000 0.000000 1.000000
vn 0.000000 0.000000 1.000000
vn 0.000000 0.000000 1.000000
vn 1.000000 -0.000000 0.000000
vn 1.000000 -0.000000 0.000000
vn 1.000000 -0.000000 0.000000
vn 1.000000 -0.000000 -0.000000
vn 1.000000 -0.000000 -0.000000
vn 1.000000 -0.000000 -0.000000
vn 1.000000 0.000000 0.000000
vn 1.000000 0.000000 0.000000
vn 1.000000 0.000000 0.000000
vn 1.000000 0.000000 0.000000
vn 1.000000 0.000000 0.000000
vn 1.000000 0.000000 0.000000
vn 1.000000 0.000000 0.000000
vn 1.000000 0.000000 0.000000
vn 1.000000 0.000000 0.000000
vn 1.000000 0.000000 0.000000
vn 1.000000 0.000000 0.000000
vn 1.000000 0.000000 0.000000
vn 1.000000 -0.000000 0.000000
vn 1.000000 -0.000000 0.000000
vn 1.000000 -0.000000 0.000000
vn 1.000000 0.000000 -0.000000
vn 1.000000 0.000000 -0.000000
vn 1.000000 0.000000 -0.000000
vn 1.000000 0.000000 0.000000
vn 1.000000 0.000000 0.000000
vn 1.000000 0.000000 0.000000
vn 1.000000 0.000000 0.000000
vn 1.000000 0.000000 0.000000
vn 1.000000 0.000000 0.000000
vn 1.000000 0.000000 0.000000
vn 1.000000 0.000000 0.000000
vn 1.000000 0.000000 0.000000
vn 1.000000 0.000000 0.000000
vn 1.000000 0.000000 0.000000
vn 1.000000 0.000000 0.000000
vn 1.000000 0.000000 0.000000
vn 1.000000 0.000000 0.000000
vn 1.000000 0.000000 0.000000
vn 1.000000 0.000000 0.000000
vn 1.000000 0.000000 0.000000
vn 1.000000 0.000000 0.000000
vn 1.000000 0.000000 0.000000
vn 1.000000 0.000000 0.000000
vn 1.000000 0.000000 0.000000
vn 1.000000 0.000000 0.000000
vn -1.000000 0.000000 -0.000000
vn -1.000000 0.000000 -0.000000
vn -1.000000 0.000000 -0.000000
vn -1.000000 0.000000 -0.000000
vn 0.000000 0.000000 1.000000
vn 0.000000 0.000000 0.000000
vn 0.000000 0.000000 0.000000
vn 0.000000 0.000000 1.000000
vn 0.000000 0.000000 1.000000
s off
f 13/3/1 10/1/2 6/4/3
f 10/26/4 20/27/5 21/28/6
f 9/5/7 13/3/8 2/6/9
f 12/7/10 9/5/11 5/8/12
f 8/9/13 12/7/14 1/10/15
f 17/11/16 8/9/17 4/12/18
f 7/13/19 17/11/20 16/14/21
f 11/15/22 7/13/23 3/16/24
f 15/2/25 13/3/26 9/5/27
f 15/2/28 9/5/29 12/7/30
f 15/2/31 12/7/32 8/9/33
f 15/2/34 8/9/35 17/11/36
f 15/2/37 17/11/38 7/13/39
f 15/2/40 7/13/41 11/15/42
f 15/2/43 11/15/44 14/21/45
f 14/17/46 11/20/47 18/18/48 19/19/49
f 15/2/50 10/1/51 13/3/52
f 20/22/53 25/23/54 24/24/55 23/25/56
f 15/29/57 22/30/58 25/31/59 20/27/60 10/26/61
