# This file uses meters as units for non-parametric coordinates.

v 499.999512 0.000000 -500.000122
v -0.000977 -2.982914 -500.000916
v 499.999512 0.000000 0.000725
v 0.000000 0.000000 -0.000008
v 247.923340 -2.982914 0.000725
v 248.665527 -2.982914 -500.000122
v 29.643829 -0.000000 0.000000
v 32.386383 -2.982914 0.000000
v 467.613281 -2.982910 -0.000061
v 466.103516 -2.982914 -500.000122
v 469.003418 0.000000 -500.000122
v 470.356445 0.000000 -0.000061
v 499.999512 0.000000 -374.999878
v 479.362305 -0.746094 -379.051453
v 465.152832 -2.982914 -374.764343
v 248.479980 -2.982914 -374.764343
v 37.205566 -2.982914 -374.764343
v 23.690918 -1.063782 -374.932983
v -0.000977 -0.066345 -374.932983
v 499.999512 0.000000 -249.999634
v 468.742676 1.085693 -250.672485
v 462.419434 -2.982914 -249.999634
v 248.294434 -2.982914 -249.999634
v 33.290039 -2.982914 -249.999634
v 19.431641 0.000000 -249.980042
v -0.000488 0.000000 -250.000000
v 499.999512 0.000000 -124.999512
v 480.352051 -1.329712 -121.748962
v 467.077637 -2.982914 -123.554810
v 248.108887 -2.982914 -123.554810
v 37.205566 -2.982914 -123.554810
v 28.192871 -1.656799 -128.105591
v -0.000488 0.000000 -125.000000
v 466.888184 -2.982914 -128.635742
v 248.119141 -2.982914 -130.468140
v 36.967285 -2.982914 -131.169556
v 465.152832 -2.982914 -380.369202
v 248.488281 -2.982914 -380.393860
v 37.205566 -2.982914 -381.687317
v -0.000977 -2.982914 -380.637390
v 37.205566 -2.982914 -500.000549
v 29.743063 -2.982914 -381.162354
v 29.743063 -2.982914 -500.000732
vt 0.103823 0.327910
vt 0.166646 0.302939
vt 0.102518 0.328669
vt 0.166646 0.302939
vt 0.166646 0.302939
vt 0.103697 0.329862
vt 0.103103 0.329845
vt 0.103225 0.327894
vt 0.166646 0.302939
vt 0.166646 0.302939
vt 0.166646 0.302939
vt 0.166646 0.302939
vt 0.166646 0.302939
vt 0.166646 0.302939
vt 0.102646 0.327861
vt 0.166646 0.302939
vt 0.166646 0.302939
vt 0.103729 0.329374
vt 0.166646 0.302939
vt 0.103133 0.329357
vt 0.166646 0.302939
vt 0.102552 0.329325
vt 0.166646 0.302939
vt 0.166646 0.302939
vt 0.166646 0.302939
vt 0.166646 0.302939
vt 0.103760 0.328886
vt 0.166646 0.302939
vt 0.103164 0.328870
vt 0.166646 0.302939
vt 0.102583 0.328837
vt 0.166646 0.302939
vt 0.166646 0.302939
vt 0.166646 0.302939
vt 0.166646 0.302939
vt 0.103792 0.328398
vt 0.166646 0.302939
vt 0.103195 0.328382
vt 0.166646 0.302939
vt 0.102615 0.328349
vt 0.166646 0.302939
vt 0.166646 0.302939
vt 0.103790 0.328418
vt 0.166646 0.302939
vt 0.103193 0.328409
vt 0.166646 0.302939
vt 0.102613 0.328379
vt 0.103727 0.329396
vt 0.166646 0.302939
vt 0.103132 0.329379
vt 0.166646 0.302939
vt 0.102550 0.329352
vt 0.101923 0.303283
vt 0.101922 0.303296
vt 0.101922 0.303296
vt 0.101922 0.303283
vt 0.101922 0.303270
vt 0.101923 0.303270
vt 0.101949 0.303283
vt 0.101949 0.303296
vt 0.101948 0.303296
vt 0.101948 0.303283
vt 0.101948 0.303270
vt 0.101949 0.303270
vt 0.166646 0.302939
vt 0.102518 0.328669
vt 0.102811 0.329829
vt 0.166646 0.302939
vt 0.102534 0.329010
vt 0.102665 0.329249
vt 0.102195 0.303523
vt 0.102195 0.303523
vt 0.102195 0.303523
vt 0.102195 0.303523
vn 0.028274 0.999578 -0.006705
vn 0.028274 0.999578 -0.006705
vn 0.028274 0.999578 -0.006705
vn 0.028274 0.999578 -0.006705
vn -0.000000 1.000000 -0.000000
vn -0.000000 1.000000 -0.000000
vn -0.000000 1.000000 -0.000000
vn -0.000000 1.000000 -0.000000
vn -0.000000 1.000000 0.000000
vn -0.000000 1.000000 0.000000
vn -0.000000 1.000000 -0.000000
vn -0.000000 1.000000 -0.000000
vn 0.344702 0.938711 -0.001566
vn 0.344702 0.938711 -0.001566
vn 0.344702 0.938711 -0.001566
vn 0.344702 0.938711 -0.001566
vn -0.027395 0.999604 -0.006497
vn -0.027395 0.999604 -0.006497
vn -0.027395 0.999604 -0.006497
vn -0.027395 0.999604 -0.006497
vn -0.276341 0.960929 -0.015866
vn -0.276341 0.960929 -0.015866
vn -0.276341 0.960929 -0.015866
vn -0.276341 0.960929 -0.015866
vn -0.014735 0.999885 0.003654
vn -0.014735 0.999885 0.003654
vn -0.014735 0.999885 0.003654
vn -0.014735 0.999885 0.003654
vn -0.292788 0.956069 0.014415
vn -0.292788 0.956069 0.014415
vn -0.292788 0.956069 0.014415
vn -0.292788 0.956069 0.014415
vn 0.000000 1.000000 -0.000000
vn 0.000000 1.000000 0.000000
vn 0.000000 1.000000 0.000000
vn 0.000000 1.000000 -0.000000
vn 0.000000 1.000000 -0.000000
vn 0.000000 1.000000 -0.000000
vn 0.000000 1.000000 -0.000000
vn 0.000000 1.000000 -0.000000
vn 0.140594 0.990067 0.000000
vn 0.140594 0.990067 0.000000
vn 0.140594 0.990067 0.000000
vn 0.037458 0.889748 -0.454913
vn 0.037458 0.889748 -0.454913
vn 0.037458 0.889748 -0.454913
vn 0.007175 0.999950 -0.006928
vn 0.007175 0.999950 -0.006928
vn 0.007175 0.999950 -0.006928
vn 0.007175 0.999950 -0.006928
vn -0.298482 0.954146 -0.022649
vn -0.298482 0.954146 -0.022649
vn -0.298482 0.954146 -0.022649
vn -0.298482 0.954146 -0.022649
vn 0.000000 1.000000 -0.000000
vn 0.000000 1.000000 -0.000000
vn 0.000000 1.000000 -0.000000
vn 0.000000 1.000000 -0.000000
vn 0.000000 1.000000 0.000000
vn 0.000000 1.000000 0.000000
vn 0.000000 1.000000 -0.000000
vn 0.000000 1.000000 -0.000000
vn 0.176270 0.984341 0.001577
vn 0.176270 0.984341 0.001577
vn 0.176270 0.984341 0.001577
vn 0.176270 0.984341 0.001577
vn 0.023125 0.999724 -0.004127
vn 0.023125 0.999724 -0.004127
vn 0.023125 0.999724 -0.004127
vn 0.023125 0.999724 -0.004127
vn -0.004302 0.999944 0.009708
vn -0.004302 0.999944 0.009708
vn -0.004302 0.999944 0.009708
vn -0.004302 0.999944 0.009708
vn -0.285670 0.957931 0.027596
vn -0.285670 0.957931 0.027596
vn -0.285670 0.957931 0.027596
vn -0.285670 0.957931 0.027596
vn 0.000000 1.000000 -0.000000
vn 0.000000 1.000000 -0.000000
vn 0.000000 1.000000 -0.000000
vn 0.000000 1.000000 -0.000000
vn 0.000000 1.000000 -0.000000
vn 0.000000 1.000000 -0.000000
vn 0.000000 1.000000 -0.000000
vn 0.000000 1.000000 -0.000000
vn 0.147856 0.988998 -0.004627
vn 0.147856 0.988998 -0.004627
vn 0.147856 0.988998 -0.004627
vn 0.035120 0.999368 0.005461
vn 0.035120 0.999368 0.005461
vn 0.035120 0.999368 0.005461
vn 0.035120 0.999368 0.005461
vn 0.000000 1.000000 0.000000
vn 0.000000 1.000000 0.000000
vn 0.000000 1.000000 0.000000
vn 0.000000 1.000000 0.000000
vn 0.000000 1.000000 0.000000
vn 0.000000 1.000000 0.000000
vn 0.000000 1.000000 0.000000
vn 0.000000 1.000000 0.000000
vn 0.000000 1.000000 -0.000000
vn 0.000000 1.000000 -0.000000
vn 0.000000 1.000000 -0.000000
vn 0.000000 1.000000 -0.000000
vn 0.186649 0.982422 -0.002883
vn 0.186649 0.982422 -0.002883
vn 0.186649 0.982422 -0.002883
vn 0.186649 0.982422 -0.002883
vn -0.124204 0.992246 0.004631
vn -0.124204 0.992246 0.004631
vn -0.124204 0.992246 0.004631
vn -0.155503 0.987835 0.000000
vn -0.155503 0.987835 0.000000
vn -0.155503 0.987835 0.000000
vn -0.005279 0.954208 -0.299099
vn -0.005279 0.954207 -0.299099
vn -0.005279 0.954208 -0.299099
vn 0.000000 1.000000 0.000000
vn 0.000000 1.000000 0.000000
vn 0.000000 1.000000 0.000000
vn 0.000000 1.000000 0.000000
vn 0.000000 1.000000 0.000000
vn 0.000000 1.000000 0.000000
vn 0.000000 1.000000 -0.000000
vn 0.000000 1.000000 -0.000000
vn -0.022083 0.949205 -0.313882
vn -0.022083 0.949205 -0.313882
vn -0.022083 0.949205 -0.313882
vn 0.000000 1.000000 0.000000
vn 0.000000 1.000000 0.000000
vn 0.000000 1.000000 0.000000
vn 0.000000 1.000000 0.000000
s off
f 33/42/1 4/4/2 7/9/3 32/41/4
f 9/1/5 29/36/6 30/38/7 5/8/8
f 31/40/9 8/15/10 5/8/11 30/38/12
f 32/41/13 7/9/14 8/10/15 31/39/16
f 3/2/17 27/34/18 28/35/19 12/14/20
f 12/14/21 28/35/22 29/37/23 9/11/24
f 13/16/25 1/5/26 11/13/27 14/17/28
f 37/49/29 14/17/30 11/13/31 10/12/32
f 16/53/33 15/54/34 37/55/35 38/56/36
f 38/56/37 39/57/38 17/58/39 16/53/40
f 39/51/41 18/23/42 17/21/43
f 40/65/44 19/24/45 18/23/46
f 20/25/47 13/16/48 14/17/49 21/26/50
f 22/28/51 21/26/52 14/17/53 15/19/54
f 23/29/55 22/27/56 15/18/57 16/20/58
f 17/22/59 24/31/60 23/29/61 16/20/62
f 18/23/63 25/32/64 24/30/65 17/21/66
f 19/24/67 26/33/68 25/32/69 18/23/70
f 27/34/71 20/25/72 21/26/73 28/35/74
f 34/44/75 28/35/76 21/26/77 22/28/78
f 30/59/79 29/60/80 34/61/81 35/62/82
f 35/62/83 36/63/84 31/64/85 30/59/86
f 36/46/87 32/41/88 31/39/89
f 26/33/90 33/42/91 32/41/92 25/32/93
f 35/45/94 34/43/95 22/27/96 23/29/97
f 24/31/98 36/47/99 35/45/100 23/29/101
f 38/50/102 37/48/103 10/6/104 6/7/105
f 25/32/106 32/41/107 36/46/108 24/30/109
f 29/37/110 28/35/111 34/44/112
f 15/19/113 14/17/114 37/49/115
f 18/23/116 42/68/117 40/65/118
f 2/3/119 40/66/120 42/69/121 43/70/122
f 41/67/123 39/52/124 38/50/125 6/7/126
f 39/51/127 42/68/128 18/23/129
f 43/71/130 42/72/131 39/73/132 41/74/133
