# This file uses meters as units for non-parametric coordinates.

v 125.200012 0.000000 -0.200000
v 125.199951 0.000000 -250.200058
v 0.200012 0.000000 -0.199997
v 0.199951 0.000000 -250.199951
v 112.825623 15.993290 -0.200000
v 112.825562 15.993290 -250.200058
v 12.574402 15.993290 -0.199997
v 12.574463 15.993290 -250.199951
v 125.200012 0.000000 -130.421921
v 110.885132 15.621605 -131.199509
v 62.700012 16.785351 -0.200001
v 0.200012 0.281049 -134.349655
v 9.388855 18.954622 -136.148849
v 87.273071 18.884941 -0.200001
v 38.126953 18.884941 -0.199997
v 114.179443 16.507177 -77.295944
v 114.152649 16.408026 -197.357422
v 12.537598 19.693348 -82.068710
v 13.234619 18.911928 -206.028793
v 62.340698 24.690681 -132.413193
v 62.699951 16.785351 -250.199951
v 33.439026 18.722771 -114.159592
v 38.126953 18.884941 -250.200058
v 103.014038 13.088015 -148.718246
v 87.272949 18.884941 -250.200058
v 88.445923 22.132654 -200.528809
v 55.043701 19.060642 -188.698227
v 31.511475 19.210590 -161.504135
v 40.042297 19.997015 -50.276478
v 62.687378 15.795935 -80.320541
v 95.005554 16.806847 -106.979172
v 95.360107 13.918627 -148.889145
v 98.549561 19.431597 -168.319519
v 69.472595 18.331896 -154.602524
vt 0.038589 0.254350
vt 0.038568 0.254350
vt 0.038589 0.254328
vt 0.038568 0.254328
vt 0.038586 0.254347
vt 0.038568 0.254346
vt 0.038586 0.254331
vt 0.038568 0.254331
vt 0.038578 0.254350
vt 0.038577 0.254346
vt 0.038587 0.254339
vt 0.038578 0.254328
vt 0.038577 0.254331
vt 0.038587 0.254343
vt 0.038587 0.254335
vt 0.038582 0.254347
vt 0.038572 0.254346
vt 0.038582 0.254331
vt 0.038571 0.254331
vt 0.038577 0.254339
vt 0.038568 0.254338
vt 0.038577 0.254335
vt 0.038568 0.254335
vt 0.038577 0.254343
vt 0.038568 0.254342
vt 0.038572 0.254343
vt 0.038572 0.254338
vt 0.038572 0.254335
vt 0.038582 0.254335
vt 0.038582 0.254339
vt 0.038582 0.254343
vt 0.038577 0.254342
vt 0.038575 0.254343
vt 0.038575 0.254340
vn -0.821865 0.569681 -0.001382
vn -0.821865 0.569681 -0.001382
vn -0.821865 0.569681 -0.001382
vn 0.831683 0.555250 0.000000
vn 0.831683 0.555250 0.000000
vn 0.831683 0.555250 0.000000
vn 0.017951 0.999667 -0.018543
vn 0.017951 0.999667 -0.018543
vn 0.017951 0.999667 -0.018543
vn 0.017951 0.999667 -0.018543
vn 0.735443 0.676132 0.044361
vn 0.735444 0.676132 0.044361
vn 0.735444 0.676132 0.044361
vn -0.790593 0.611701 0.028001
vn -0.790593 0.611701 0.028001
vn -0.790593 0.611701 0.028001
vn 0.737498 0.673013 -0.056129
vn 0.737498 0.673013 -0.056129
vn 0.737498 0.673013 -0.056129
vn 0.790776 0.611842 0.017964
vn 0.790776 0.611842 0.017964
vn 0.790776 0.611842 0.017964
vn 0.790663 0.611755 -0.024658
vn 0.790663 0.611755 -0.024658
vn 0.790663 0.611755 -0.024658
vn 0.829507 0.558497 -0.000000
vn 0.829507 0.558497 -0.000000
vn 0.829507 0.558497 -0.000000
vn -0.894539 0.444616 0.046010
vn -0.894539 0.444616 0.046010
vn -0.894539 0.444616 0.046010
vn -0.845332 0.534241 0.001119
vn -0.845332 0.534241 0.001119
vn -0.845332 0.534240 0.001119
vn -0.898032 0.437114 -0.049689
vn -0.898032 0.437114 -0.049689
vn -0.898032 0.437114 -0.049689
vn -0.790576 0.611695 -0.028603
vn -0.790576 0.611695 -0.028603
vn -0.790576 0.611695 -0.028603
vn 0.000228 0.999947 0.010294
vn 0.000228 0.999947 0.010294
vn 0.000228 0.999947 0.010294
vn 0.187798 0.980208 0.062648
vn 0.187798 0.980208 0.062648
vn 0.187798 0.980208 0.062648
vn 0.187798 0.980208 0.062648
vn -0.299440 0.954109 -0.003448
vn -0.299440 0.954109 -0.003448
vn -0.299440 0.954109 -0.003448
vn 0.025777 0.997617 0.064006
vn 0.025777 0.997617 0.064006
vn 0.025777 0.997617 0.064006
vn 0.025777 0.997617 0.064006
vn -0.141407 0.989278 -0.036502
vn -0.141407 0.989278 -0.036502
vn -0.141407 0.989278 -0.036502
vn -0.141407 0.989278 -0.036502
vn 0.001308 0.998846 -0.048022
vn 0.001308 0.998846 -0.048022
vn 0.001308 0.998845 -0.048022
vn 0.001308 0.998846 -0.048022
vn 0.208612 0.955869 -0.206872
vn 0.208612 0.955869 -0.206872
vn 0.208612 0.955869 -0.206872
vn 0.168002 0.985003 -0.039288
vn 0.168002 0.985003 -0.039288
vn 0.168002 0.985003 -0.039288
vn 0.168002 0.985003 -0.039288
vn -0.099881 0.993468 -0.055180
vn -0.099881 0.993468 -0.055180
vn -0.099881 0.993468 -0.055180
vn -0.099881 0.993468 -0.055180
vn 0.002330 0.999991 -0.003498
vn 0.002330 0.999991 -0.003498
vn 0.002330 0.999991 -0.003498
vn -0.006259 0.999972 -0.004138
vn -0.006259 0.999972 -0.004138
vn -0.006259 0.999972 -0.004138
vn -0.081065 0.996088 0.035174
vn -0.081065 0.996088 0.035174
vn -0.081065 0.996088 0.035174
vn -0.081065 0.996088 0.035174
vn 0.220781 0.974859 0.030094
vn 0.220781 0.974859 0.030094
vn 0.220781 0.974859 0.030094
vn -0.063457 0.997804 -0.018998
vn -0.063457 0.997804 -0.018998
vn -0.063457 0.997804 -0.018998
vn -0.063457 0.997804 -0.018998
vn 0.074346 0.997221 -0.004809
vn 0.074346 0.997221 -0.004809
vn 0.074346 0.997221 -0.004809
vn 0.074346 0.997221 -0.004809
vn 0.109130 0.991738 -0.067422
vn 0.109130 0.991738 -0.067422
vn 0.109130 0.991738 -0.067422
vn 0.097046 0.953189 0.286378
vn 0.097046 0.953189 0.286378
vn 0.097046 0.953189 0.286378
vn 0.085126 0.996294 -0.012317
vn 0.085126 0.996294 -0.012317
vn 0.085126 0.996294 -0.012317
vn -0.013096 0.999913 -0.001332
vn -0.013096 0.999913 -0.001332
vn -0.013096 0.999913 -0.001332
vn -0.112218 0.991630 -0.063845
vn -0.112218 0.991630 -0.063845
vn -0.112218 0.991630 -0.063845
vn 0.085104 0.996026 -0.026254
vn 0.085104 0.996026 -0.026254
vn 0.085104 0.996026 -0.026254
vn 0.215671 0.976363 0.014224
vn 0.215671 0.976362 0.014224
vn 0.215671 0.976363 0.014224
vn 0.480987 0.860310 0.168871
vn 0.480987 0.860311 0.168871
vn 0.480987 0.860311 0.168871
vn -0.378507 0.904907 0.194618
vn -0.378507 0.904907 0.194618
vn -0.378506 0.904907 0.194618
vn -0.073102 0.995956 0.052223
vn -0.073102 0.995956 0.052223
vn -0.073102 0.995956 0.052223
vn 0.136841 0.980973 0.137716
vn 0.136841 0.980973 0.137716
vn 0.136841 0.980973 0.137716
vn 0.378380 0.914914 -0.140571
vn 0.378380 0.914914 -0.140571
vn 0.378380 0.914914 -0.140571
s off
f 12/12/1 19/19/2 4/4/3
f 1/1/4 9/9/5 16/16/6
f 18/18/7 29/29/8 22/22/9 13/13/10
f 10/10/11 9/9/12 17/17/13
f 3/3/14 7/7/15 18/18/16
f 16/16/17 9/9/18 10/10/19
f 1/1/20 16/16/21 5/5/22
f 17/17/23 2/2/24 6/6/25
f 17/17/26 9/9/27 2/2/28
f 12/12/29 18/18/30 13/13/31
f 3/3/32 18/18/33 12/12/34
f 12/12/35 13/13/36 19/19/37
f 4/4/38 19/19/39 8/8/40
f 28/28/41 13/13/42 22/22/43
f 30/30/44 31/31/45 32/32/46 20/20/47
f 17/17/48 24/24/49 10/10/50
f 29/29/51 30/30/52 20/20/53 22/22/54
f 27/27/55 28/28/56 22/22/57 20/20/58
f 10/10/59 24/24/60 31/31/61 16/16/62
f 32/32/63 34/34/64 20/20/65
f 25/25/66 26/26/67 17/17/68 6/6/69
f 21/21/70 27/27/71 26/26/72 25/25/73
f 23/23/74 28/28/75 27/27/76
f 23/23/77 19/19/78 28/28/79
f 15/15/80 29/29/81 18/18/82 7/7/83
f 15/15/84 30/30/85 29/29/86
f 14/14/87 31/31/88 30/30/89 11/11/90
f 16/16/91 31/31/92 14/14/93 5/5/94
f 32/32/95 31/31/96 24/24/97
f 33/33/98 32/32/99 24/24/100
f 11/11/101 30/30/102 15/15/103
f 28/28/104 19/19/105 13/13/106
f 8/8/107 19/19/108 23/23/109
f 23/23/110 27/27/111 21/21/112
f 17/17/113 26/26/114 33/33/115
f 17/17/116 33/33/117 24/24/118
f 26/26/119 32/32/120 33/33/121
f 26/26/122 27/27/123 34/34/124
f 26/26/125 34/34/126 32/32/127
f 20/20/128 34/34/129 27/27/130
