# This file uses meters as units for non-parametric coordinates.

v -12.296326 0.000000 3.636322
v -12.834961 0.000000 8.403839
v -12.155640 16.571926 7.060455
v -12.159607 14.622614 10.711670
v -8.278748 15.683578 6.824982
v -8.282593 13.734275 10.476013
v -7.528748 0.000000 4.175140
v -8.067444 0.000000 8.942474
v -7.684753 27.494698 14.578766
v 1.487549 0.000000 4.740509
v 3.384705 0.000000 8.189941
v 1.403687 8.421992 6.214050
v 3.437439 5.890574 9.519836
v 5.348328 8.874754 4.142212
v 7.382080 6.343329 7.447998
v 4.937073 0.000000 2.843353
v 6.834229 0.000000 6.292969
v 4.718262 14.612160 12.266235
v 1.090942 0.000000 2.957977
v -1.839478 0.000000 -0.840637
v 0.457581 27.132002 7.304260
v -1.626892 27.162006 3.453552
v -2.771484 24.070206 8.953949
v -5.371155 26.233149 6.094116
v -2.707947 0.000000 5.888397
v -5.638184 0.000000 2.089600
v -1.354553 40.419304 10.738586
v -1.421631 12.006287 6.390747
v -4.365540 14.852692 3.561035
v -0.300842 15.612840 0.281616
v 2.564880 14.295151 4.257202
v -27.555969 0.000000 2.158844
v -25.855286 0.000000 5.976410
v -27.775452 10.109510 3.710114
v -25.917664 7.070870 7.387756
v -23.418823 10.652992 1.868744
v -21.560974 7.614345 5.546356
v -23.738525 0.000000 0.458130
v -22.037842 0.000000 4.275848
v -24.806458 17.540003 10.406769
v 20.583130 0.000000 5.335602
v 23.607300 0.000000 1.131042
v 22.747314 14.332927 5.107697
v 24.598267 15.867361 -0.200134
v 18.359009 15.996199 3.371521
v 20.209961 17.530600 -1.936310
v 16.378296 0.000000 2.311432
v 19.402710 0.000000 -1.893311
v 24.575562 24.552080 5.027313
v 23.505981 0.000000 6.116913
v 27.425354 0.000000 6.485504
v 24.677856 8.421992 7.014069
v 28.555115 5.890574 7.188934
v 25.179932 8.874754 2.586914
v 29.057373 6.343329 2.761749
v 23.874390 0.000000 2.197418
v 27.794128 0.000000 2.565948
v 31.546692 14.612160 7.672272
vt 0.166810 0.303526
vt 0.166810 0.303526
vt 0.166810 0.303526
vt 0.166810 0.303526
vt 0.166810 0.303526
vt 0.166810 0.303526
vt 0.166810 0.303526
vt 0.166810 0.303526
vt 0.166810 0.303526
vt 0.166810 0.303526
vt 0.166810 0.303526
vt 0.166810 0.303526
vt 0.166810 0.303526
vt 0.166810 0.303526
vt 0.166810 0.303526
vt 0.166810 0.303526
vt 0.166810 0.303526
vt 0.166810 0.303526
vt 0.166810 0.303526
vt 0.166810 0.303526
vt 0.166810 0.303526
vt 0.166810 0.303526
vt 0.166810 0.303526
vt 0.166810 0.303526
vt 0.166810 0.303526
vt 0.166810 0.303526
vt 0.166810 0.303526
vt 0.166810 0.303526
vt 0.166810 0.303526
vt 0.166810 0.303526
vt 0.166810 0.303526
vt 0.166810 0.303526
vt 0.166810 0.303526
vt 0.166810 0.303526
vt 0.166810 0.303526
vt 0.166810 0.303526
vt 0.166810 0.303526
vt 0.166810 0.303526
vt 0.166810 0.303526
vt 0.166810 0.303526
vt 0.166810 0.303526
vt 0.166810 0.303526
vt 0.166810 0.303526
vt 0.166810 0.303526
vt 0.166810 0.303526
vt 0.166810 0.303526
vt 0.166810 0.303526
vt 0.166810 0.303526
vt 0.166810 0.303526
vt 0.166810 0.303526
vt 0.166810 0.303526
vt 0.166810 0.303526
vt 0.166810 0.303526
vt 0.166810 0.303526
vt 0.166810 0.303526
vt 0.166810 0.303526
vt 0.166810 0.303526
vt 0.166810 0.303526
vt 0.166810 0.303526
vt 0.166810 0.303526
vt 0.166810 0.303526
vt 0.166810 0.303526
vt 0.166810 0.303526
vt 0.166810 0.303526
vt 0.166810 0.303526
vt 0.166810 0.303526
vt 0.166810 0.303526
vt 0.166810 0.303526
vt 0.166810 0.303526
vt 0.166810 0.303526
vt 0.166810 0.303526
vt 0.166810 0.303526
vt 0.166810 0.303526
vt 0.166810 0.303526
vt 0.166810 0.303526
vt 0.166810 0.303526
vt 0.166810 0.303526
vt 0.166810 0.303526
vt 0.166810 0.303526
vt 0.166810 0.303526
vt 0.166810 0.303526
vt 0.166810 0.303526
vt 0.166810 0.303526
vt 0.166810 0.303526
vn -0.997774 0.036371 -0.055887
vn -0.997774 0.036371 -0.055887
vn -0.997774 0.036371 -0.055887
vn -0.997774 0.036371 -0.055887
vn 0.997316 0.022828 0.069560
vn 0.997316 0.022828 0.069560
vn 0.997317 0.022828 0.069560
vn 0.997317 0.022828 0.069560
vn -0.048394 -0.133311 0.989892
vn -0.048394 -0.133310 0.989892
vn -0.048394 -0.133310 0.989892
vn -0.048394 -0.133310 0.989892
vn 0.053519 0.185767 -0.981135
vn 0.053519 0.185767 -0.981135
vn 0.053519 0.185767 -0.981135
vn 0.053519 0.185767 -0.981135
vn -0.946940 0.283959 0.150571
vn -0.946940 0.283959 0.150571
vn -0.946940 0.283959 0.150571
vn -0.007148 -0.285434 0.958372
vn -0.007148 -0.285434 0.958372
vn -0.007148 -0.285434 0.958372
vn 0.999106 -0.037717 -0.019085
vn 0.999106 -0.037717 -0.019085
vn 0.999106 -0.037717 -0.019085
vn 0.074069 0.544678 -0.835368
vn 0.074069 0.544678 -0.835368
vn 0.074069 0.544678 -0.835368
vn -0.875451 -0.094734 0.473931
vn -0.875451 -0.094734 0.473931
vn -0.875451 -0.094734 0.473931
vn -0.875451 -0.094734 0.473931
vn 0.868125 0.025219 -0.495704
vn 0.868125 0.025219 -0.495704
vn 0.868125 0.025219 -0.495704
vn 0.868125 0.025219 -0.495704
vn 0.472969 -0.197622 0.858630
vn 0.472969 -0.197622 0.858630
vn 0.472969 -0.197622 0.858630
vn 0.472969 -0.197622 0.858630
vn -0.474757 0.148045 -0.867576
vn -0.474757 0.148045 -0.867576
vn -0.474757 0.148045 -0.867576
vn -0.474757 0.148045 -0.867576
vn -0.862209 -0.032561 0.505506
vn -0.862209 -0.032561 0.505506
vn -0.862209 -0.032561 0.505506
vn 0.468559 -0.327215 0.820599
vn 0.468559 -0.327215 0.820599
vn 0.468559 -0.327215 0.820599
vn 0.881672 0.414945 -0.224667
vn 0.881672 0.414945 -0.224667
vn 0.881672 0.414945 -0.224667
vn -0.376134 0.742855 -0.553796
vn -0.376134 0.742855 -0.553796
vn -0.376134 0.742855 -0.553796
vn 0.798709 -0.031803 -0.600877
vn 0.798709 -0.031803 -0.600877
vn 0.827238 0.102883 -0.552352
vn 0.823428 0.078939 -0.561903
vn -0.760545 -0.045009 0.647724
vn -0.774595 -0.117718 0.621406
vn -0.743582 0.021733 0.668291
vn -0.743582 0.021733 0.668291
vn -0.622335 0.123236 -0.772989
vn -0.622335 0.123236 -0.772989
vn -0.619977 0.126271 -0.774393
vn -0.619844 0.126443 -0.774471
vn 0.565207 -0.115269 0.816856
vn 0.565207 -0.115269 0.816856
vn 0.541950 -0.115976 0.832370
vn 0.551247 -0.115706 0.826280
vn 0.855376 0.235861 -0.461196
vn 0.855376 0.235861 -0.461196
vn 0.855376 0.235861 -0.461196
vn -0.592680 0.397208 -0.700683
vn -0.592680 0.397208 -0.700683
vn -0.592680 0.397208 -0.700683
vn -0.743173 -0.008623 0.669044
vn -0.743173 -0.008623 0.669044
vn -0.743173 -0.008623 0.669044
vn 0.550981 -0.137600 0.823096
vn 0.550981 -0.137600 0.823096
vn 0.550981 -0.137600 0.823096
vn -0.785286 -0.205829 0.583918
vn -0.785286 -0.205829 0.583918
vn -0.774595 -0.117718 0.621406
vn -0.760545 -0.045009 0.647724
vn -0.619844 0.126443 -0.774471
vn -0.619977 0.126271 -0.774393
vn -0.616724 0.130434 -0.776298
vn -0.616724 0.130434 -0.776298
vn 0.823428 0.078939 -0.561903
vn 0.827238 0.102883 -0.552352
vn 0.838221 0.242571 -0.488411
vn 0.838221 0.242571 -0.488411
vn 0.551247 -0.115706 0.826280
vn 0.541950 -0.115976 0.832370
vn 0.527518 -0.116363 0.841537
vn 0.527518 -0.116363 0.841537
vn -0.912921 -0.083855 0.399428
vn -0.912921 -0.083855 0.399428
vn -0.912921 -0.083855 0.399428
vn -0.912921 -0.083855 0.399428
vn 0.906609 0.022313 -0.421382
vn 0.906609 0.022313 -0.421382
vn 0.906609 0.022313 -0.421382
vn 0.906609 0.022313 -0.421382
vn 0.401222 -0.175504 0.899010
vn 0.401222 -0.175504 0.899010
vn 0.401222 -0.175504 0.899010
vn 0.401222 -0.175504 0.899010
vn -0.401501 0.131242 -0.906407
vn -0.401501 0.131242 -0.906407
vn -0.401501 0.131242 -0.906407
vn -0.401501 0.131242 -0.906407
vn -0.901579 -0.028784 0.431657
vn -0.901579 -0.028784 0.431657
vn -0.901579 -0.028784 0.431657
vn 0.403011 -0.292820 0.867086
vn 0.403011 -0.292820 0.867086
vn 0.403011 -0.292820 0.867086
vn 0.914702 0.374031 -0.153042
vn 0.914702 0.374031 -0.153042
vn 0.914702 0.374031 -0.153042
vn -0.350227 0.700418 -0.621897
vn -0.350227 0.700418 -0.621897
vn -0.350227 0.700418 -0.621897
vn 0.892288 -0.070198 0.445976
vn 0.892288 -0.070198 0.445976
vn 0.892288 -0.070198 0.445976
vn 0.892288 -0.070198 0.445976
vn -0.892170 0.087632 -0.443118
vn -0.892170 0.087632 -0.443118
vn -0.892170 0.087632 -0.443118
vn -0.892170 0.087632 -0.443118
vn 0.474524 -0.061678 -0.878079
vn 0.474524 -0.061678 -0.878079
vn 0.474524 -0.061678 -0.878079
vn 0.474524 -0.061678 -0.878079
vn -0.478048 0.041258 0.877364
vn -0.478048 0.041258 0.877364
vn -0.478048 0.041258 0.877364
vn -0.478048 0.041258 0.877364
vn 0.945001 -0.166852 0.281307
vn 0.945001 -0.166852 0.281307
vn 0.945001 -0.166852 0.281307
vn 0.471439 0.455700 -0.755038
vn 0.471439 0.455700 -0.755038
vn 0.471439 0.455700 -0.755038
vn -0.794866 0.597738 -0.104391
vn -0.794866 0.597738 -0.104391
vn -0.794866 0.597738 -0.104391
vn -0.344305 0.068963 0.936322
vn -0.344305 0.068963 0.936322
vn -0.344305 0.068963 0.936322
vn -0.099795 -0.094719 0.990489
vn -0.099795 -0.094719 0.990489
vn -0.099795 -0.094719 0.990489
vn -0.099795 -0.094719 0.990490
vn 0.077645 0.025226 -0.996662
vn 0.077645 0.025226 -0.996662
vn 0.077645 0.025226 -0.996662
vn 0.077645 0.025226 -0.996662
vn 0.976034 -0.197615 0.091136
vn 0.976034 -0.197615 0.091136
vn 0.976034 -0.197615 0.091136
vn 0.976034 -0.197615 0.091136
vn -0.984443 0.148042 -0.094638
vn -0.984443 0.148042 -0.094638
vn -0.984443 0.148042 -0.094638
vn -0.984443 0.148042 -0.094638
vn -0.066229 -0.032550 0.997273
vn -0.066229 -0.032550 0.997273
vn -0.066229 -0.032550 0.997273
vn 0.942094 -0.327215 0.073416
vn 0.942094 -0.327215 0.073416
vn 0.942094 -0.327215 0.073416
vn 0.309476 0.414939 -0.855599
vn 0.309476 0.414939 -0.855599
vn 0.309476 0.414939 -0.855599
vn -0.669458 0.742850 0.000049
vn -0.669458 0.742850 0.000049
vn -0.669458 0.742850 0.000049
s off
f 1/1/1 2/2/2 4/3/3 3/4/4
f 5/5/5 6/6/6 8/7/7 7/8/8
f 2/2/9 8/9/10 6/10/11 4/3/12
f 7/11/13 1/1/14 3/4/15 5/12/16
f 3/4/17 4/3/18 9/13/19
f 4/3/20 6/6/21 9/13/22
f 6/6/23 5/5/24 9/13/25
f 5/5/26 3/4/27 9/13/28
f 10/14/29 11/15/30 13/16/31 12/17/32
f 14/18/33 15/19/34 17/20/35 16/21/36
f 11/15/37 17/22/38 15/23/39 13/16/40
f 16/24/41 10/14/42 12/17/43 14/25/44
f 12/17/45 13/16/46 18/26/47
f 13/16/48 15/19/49 18/26/50
f 15/19/51 14/18/52 18/26/53
f 14/18/54 12/17/55 18/26/56
f 19/27/57 20/28/58 30/29/59 31/30/60
f 28/31/61 29/32/62 26/33/63 25/34/64
f 20/28/65 26/35/66 29/36/67 30/29/68
f 25/37/69 19/27/70 31/30/71 28/38/72
f 21/39/73 22/40/74 27/41/75
f 22/40/76 24/42/77 27/41/78
f 24/42/79 23/43/80 27/41/81
f 23/43/82 21/39/83 27/41/84
f 23/43/85 24/42/86 29/32/87 28/31/88
f 30/29/89 29/36/90 24/44/91 22/40/92
f 31/30/93 30/29/94 22/40/95 21/39/96
f 28/38/97 31/30/98 21/39/99 23/45/100
f 32/46/101 33/47/102 35/48/103 34/49/104
f 36/50/105 37/51/106 39/52/107 38/53/108
f 33/47/109 39/54/110 37/55/111 35/48/112
f 38/56/113 32/46/114 34/49/115 36/57/116
f 34/49/117 35/48/118 40/58/119
f 35/48/120 37/51/121 40/58/122
f 37/51/123 36/50/124 40/58/125
f 36/50/126 34/49/127 40/58/128
f 41/59/129 42/60/130 44/61/131 43/62/132
f 45/63/133 46/64/134 48/65/135 47/66/136
f 42/60/137 48/67/138 46/68/139 44/61/140
f 47/69/141 41/59/142 43/62/143 45/70/144
f 43/62/145 44/61/146 49/71/147
f 44/61/148 46/64/149 49/71/150
f 46/64/151 45/63/152 49/71/153
f 45/63/154 43/62/155 49/71/156
f 50/72/157 51/73/158 53/74/159 52/75/160
f 54/76/161 55/77/162 57/78/163 56/79/164
f 51/73/165 57/80/166 55/81/167 53/74/168
f 56/82/169 50/72/170 52/75/171 54/83/172
f 52/75/173 53/74/174 58/84/175
f 53/74/176 55/77/177 58/84/178
f 55/77/179 54/76/180 58/84/181
f 54/76/182 52/75/183 58/84/184
