# This file uses meters as units for non-parametric coordinates.

v 500.000488 0.000000 0.000000
v 500.000244 0.000000 -499.999390
v 0.000000 0.000000 0.000000
v 0.000000 -0.000000 -500.000061
v 500.000488 6.969652 -67.378235
v 0.000000 6.969652 -67.378235
v 500.000488 6.969652 -102.306396
v 0.000000 6.969652 -102.306580
v 500.000488 -23.029484 -58.744812
v 0.000000 -23.029484 -58.744812
v 500.000488 -0.000000 -107.378418
v 0.000000 -0.000000 -107.378601
v 500.000488 -5.417279 -8.034851
v 0.000000 -5.417279 -8.034851
v 0.000000 -8.353827 -26.542664
v 500.000488 -8.353827 -26.542664
v 500.000488 0.030915 -316.580750
v 0.000244 0.030915 -316.580750
v 289.252441 -0.000000 0.000000
v 291.196289 -7.730597 -14.574829
v 287.894531 -8.353827 -21.887939
v 243.826172 -23.029484 -62.801331
v 243.826172 6.969654 -71.434814
v 243.826172 6.969654 -106.362976
v 245.167480 -0.000000 -112.563538
v 493.314209 6.969654 -102.306396
v 493.153809 6.969654 -67.378235
v 494.801514 -23.029484 -58.744812
v 495.529053 -8.353827 -26.542664
v 495.528809 -5.417279 -8.034851
v 3.359375 6.969654 -102.306580
v 3.359375 6.969654 -67.378235
v 3.359375 -23.029484 -58.744812
v 3.358887 -8.353827 -26.542847
v 3.359375 -5.417279 -8.034851
v 500.000488 -2.982914 -319.323303
v 246.299072 -2.982914 -319.323303
v 0.000244 -2.982914 -319.323303
v -0.000244 -2.982910 -439.563599
v 500.000732 -2.982914 -439.563538
v 500.001221 0.000000 -441.389526
v 0.000732 0.000000 -441.389526
v 241.202637 0.009638 -442.463318
v 241.202637 -2.982914 -439.563538
v 240.447021 -2.982914 -319.323303
v 240.447754 0.955316 -309.133545
v 373.232422 0.955316 -307.216187
v 248.691895 -2.982914 -439.563538
v 316.957520 -2.982914 -439.563538
v 313.568359 0.009638 -444.173767
v 437.197754 -2.982914 -439.563538
v 441.904541 -0.080264 -447.247620
v 313.568359 0.009638 -500.000061
v 441.904541 -0.000000 -500.000061
v 316.468262 -2.982914 -499.999756
v 436.708496 -2.982914 -499.999756
v 436.708496 -2.982914 -446.418579
v 316.468262 -2.982914 -446.418579
vt 0.066177 0.209415
vt 0.102497 0.279316
vt 0.102497 0.279316
vt 0.102497 0.279316
vt 0.102497 0.279316
vt 0.102497 0.279316
vt 0.102497 0.279316
vt 0.102497 0.279316
vt 0.102497 0.279316
vt 0.102497 0.279316
vt 0.102497 0.279316
vt 0.066177 0.209415
vt 0.102497 0.279316
vt 0.102497 0.279316
vt 0.102497 0.279316
vt 0.102497 0.279316
vt 0.066177 0.209415
vt 0.102497 0.279316
vt 0.102497 0.279316
vt 0.102497 0.279316
vt 0.102183 0.307564
vt 0.102183 0.307564
vt 0.102183 0.307564
vt 0.102183 0.307564
vt 0.102183 0.307564
vt 0.066177 0.209415
vt 0.102183 0.307564
vt 0.166646 0.302939
vt 0.102183 0.307564
vt 0.166646 0.302939
vt 0.102183 0.307564
vt 0.102183 0.307564
vt 0.102183 0.307564
vt 0.102183 0.307564
vt 0.102183 0.307564
vt 0.102183 0.307564
vt 0.102183 0.307564
vt 0.102183 0.307564
vt 0.066177 0.209415
vt 0.166646 0.302939
vt 0.102497 0.279316
vt 0.102497 0.279316
vt 0.102497 0.279316
vt 0.102497 0.279316
vt 0.102497 0.279316
vt 0.102497 0.279316
vt 0.102497 0.279316
vt 0.066177 0.209415
vt 0.102497 0.279316
vt 0.102183 0.307564
vt 0.066177 0.209415
vt 0.102497 0.279316
vt 0.102183 0.307564
vt 0.102183 0.307564
vt 0.102183 0.307564
vt 0.102183 0.307564
vt 0.102183 0.307564
vt 0.102183 0.307564
vt 0.102183 0.307564
vt 0.166646 0.302939
vt 0.102183 0.307564
vt 0.166646 0.302939
vt 0.166646 0.302939
vt 0.066177 0.209415
vt 0.102497 0.279316
vt 0.102497 0.279316
vt 0.102497 0.279316
vt 0.102497 0.279316
vt 0.102497 0.279316
vt 0.102497 0.279316
vt 0.102497 0.279316
vt 0.102497 0.279316
vt 0.102497 0.279316
vt 0.102497 0.279316
vt 0.166646 0.302939
vt 0.166646 0.302939
vt 0.102497 0.279316
vt 0.102183 0.307564
vt 0.166646 0.302939
vt 0.102183 0.307564
vt 0.102183 0.307564
vt 0.102183 0.307564
vt 0.102183 0.307564
vt 0.102183 0.307564
vt 0.102183 0.307564
vt 0.102183 0.307564
vt 0.102183 0.307564
vt 0.166646 0.302939
vt 0.102183 0.307564
vt 0.102183 0.307564
vt 0.102183 0.307564
vt 0.102497 0.279316
vt 0.166646 0.302939
vt 0.166646 0.302939
vt 0.166646 0.302939
vt 0.166646 0.302939
vt 0.166646 0.302939
vt 0.166646 0.302939
vt 0.166646 0.302939
vt 0.102290 0.328309
vt 0.102510 0.328305
vt 0.102516 0.328637
vt 0.102306 0.329199
vt 0.102526 0.329195
vt 0.166646 0.302939
vt 0.166646 0.302939
vt 0.102294 0.328530
vt 0.166646 0.302939
vt 0.102514 0.328524
vt 0.166646 0.302939
vt 0.166646 0.302939
vt 0.166646 0.302939
vt 0.166646 0.302939
vt 0.166646 0.302939
vt 0.102294 0.328538
vt 0.102349 0.303336
vt 0.102350 0.303271
vt 0.102354 0.303272
vt 0.102352 0.303336
vt 0.166646 0.302939
vt 0.102296 0.328644
vt 0.166646 0.302939
vt 0.166646 0.302939
vt 0.102300 0.328862
vt 0.166646 0.302939
vt 0.166646 0.302939
vt 0.166646 0.302939
vt 0.166646 0.302939
vt 0.166646 0.302939
vt 0.166646 0.302939
vt 0.102516 0.302030
vt 0.102516 0.302030
vt 0.102516 0.302030
vt 0.102516 0.302030
vt 0.166646 0.302939
vt 0.166646 0.302939
vt 0.166646 0.302939
vt 0.166646 0.302939
vt 0.166646 0.302939
vt 0.102514 0.328524
vt 0.102294 0.328530
vt 0.102292 0.328419
vt 0.102512 0.328415
vt 0.166646 0.302939
vt 0.166646 0.302939
vn -0.002237 0.864232 -0.503088
vn -0.002237 0.864232 -0.503088
vn -0.002237 0.864232 -0.503088
vn -0.002237 0.864232 -0.503088
vn 0.000000 1.000000 0.000000
vn 0.000000 1.000000 0.000000
vn 0.000000 1.000000 0.000000
vn 0.000000 1.000000 0.000000
vn -0.006977 0.698957 -0.715130
vn -0.006977 0.698957 -0.715130
vn -0.006977 0.698957 -0.715130
vn -0.006977 0.698957 -0.715130
vn 0.016209 0.276528 0.960869
vn 0.016209 0.276528 0.960869
vn 0.016209 0.276528 0.960869
vn 0.016209 0.276528 0.960869
vn 0.000425 0.927927 -0.372762
vn 0.000425 0.927927 -0.372762
vn 0.000425 0.927927 -0.372762
vn 0.000425 0.927927 -0.372762
vn 0.003552 0.990562 -0.137016
vn 0.003552 0.990562 -0.137016
vn 0.003552 0.990562 -0.137016
vn 0.003552 0.990562 -0.137016
vn 0.000000 0.932759 -0.360502
vn 0.000000 0.932759 -0.360502
vn 0.000000 0.932759 -0.360502
vn -0.000070 0.999988 0.004862
vn 0.010745 0.999855 0.013252
vn -0.000070 0.999988 0.004862
vn 0.000000 0.829146 -0.559032
vn 0.000000 0.829146 -0.559032
vn 0.000000 0.829146 -0.559031
vn 0.000000 0.987645 -0.156705
vn 0.000000 0.987646 -0.156705
vn 0.000000 0.987645 -0.156705
vn 0.000000 0.987645 -0.156705
vn 0.000000 0.909958 -0.414700
vn 0.000000 0.909958 -0.414700
vn 0.000000 0.909958 -0.414700
vn 0.000000 0.909958 -0.414700
vn 0.000001 0.276564 0.960995
vn 0.000001 0.276564 0.960995
vn 0.000001 0.276564 0.960995
vn 0.000001 0.276564 0.960995
vn 0.000000 1.000000 0.000000
vn 0.000000 1.000000 0.000000
vn 0.000000 1.000000 0.000000
vn 0.000000 1.000000 0.000000
vn 0.065746 0.627607 -0.775749
vn 0.065746 0.627607 -0.775750
vn 0.065746 0.627607 -0.775750
vn 0.007303 0.999973 0.000148
vn 0.010745 0.999854 0.013252
vn 0.010745 0.999854 0.013252
vn 0.013582 0.696640 -0.717293
vn 0.013582 0.696640 -0.717293
vn 0.013582 0.696640 -0.717293
vn 0.013582 0.696640 -0.717292
vn 0.000000 1.000000 -0.000000
vn 0.000000 1.000000 -0.000000
vn 0.000000 1.000000 -0.000000
vn 0.000000 1.000000 -0.000000
vn -0.015584 0.276135 0.960993
vn -0.015584 0.276135 0.960992
vn -0.015584 0.276135 0.960993
vn -0.015584 0.276135 0.960993
vn -0.000486 0.928119 -0.372284
vn -0.000486 0.928119 -0.372284
vn -0.000486 0.928119 -0.372284
vn -0.000486 0.928119 -0.372284
vn -0.004941 0.990703 -0.135951
vn -0.004941 0.990703 -0.135951
vn -0.004941 0.990703 -0.135951
vn -0.004941 0.990703 -0.135951
vn 0.003108 0.864307 -0.502955
vn 0.003108 0.864307 -0.502955
vn 0.003108 0.864307 -0.502955
vn 0.003108 0.864307 -0.502955
vn -0.208089 0.639121 -0.740421
vn -0.208089 0.639121 -0.740421
vn -0.208089 0.639121 -0.740421
vn -0.000001 1.000000 0.000000
vn -0.000001 1.000000 0.000000
vn -0.000001 1.000000 0.000000
vn -0.000001 1.000000 0.000000
vn -0.000001 0.276564 0.960995
vn -0.000001 0.276564 0.960995
vn -0.000001 0.276564 0.960996
vn -0.000001 0.276564 0.960996
vn -0.000012 0.909958 -0.414701
vn -0.000012 0.909958 -0.414701
vn -0.000012 0.909958 -0.414701
vn -0.000012 0.909958 -0.414701
vn -0.000005 0.987646 -0.156705
vn -0.000005 0.987646 -0.156705
vn -0.000005 0.987646 -0.156705
vn -0.000005 0.987646 -0.156705
vn 0.000000 0.829149 -0.559028
vn 0.000000 0.829149 -0.559028
vn 0.000000 0.829149 -0.559028
vn -0.025613 0.855675 0.516880
vn -0.025613 0.855675 0.516880
vn -0.025613 0.855675 0.516880
vn -0.025613 0.855675 0.516880
vn 0.007499 0.787275 0.616557
vn 0.007499 0.787275 0.616557
vn 0.007499 0.787275 0.616557
vn 0.007499 0.787275 0.616557
vn 0.000000 1.000000 0.000000
vn 0.000000 1.000000 0.000000
vn 0.000000 1.000000 0.000000
vn 0.000000 1.000000 0.000000
vn 0.000000 1.000000 -0.000000
vn 0.000000 1.000000 -0.000000
vn 0.000000 1.000000 -0.000000
vn 0.000000 1.000000 -0.000000
vn -0.000727 1.000000 0.000721
vn 0.001192 0.999998 -0.001612
vn -0.000727 1.000000 0.000721
vn -0.000727 1.000000 0.000721
vn -0.000035 1.000000 -0.000022
vn -0.000035 1.000000 -0.000022
vn 0.000000 1.000000 0.000000
vn -0.000035 1.000000 -0.000022
vn 0.001734 0.620309 0.784356
vn 0.001734 0.620309 0.784356
vn 0.001734 0.620309 0.784356
vn 0.001734 0.620309 0.784356
vn 0.000000 1.000000 0.000000
vn 0.000000 1.000000 0.000000
vn 0.000000 1.000000 0.000000
vn 0.000000 1.000000 0.000000
vn 0.005639 0.880783 -0.473486
vn 0.005639 0.880783 -0.473486
vn 0.005639 0.880783 -0.473486
vn 0.000000 1.000000 0.000000
vn -0.003782 0.999983 0.004419
vn -0.003782 0.999983 0.004419
vn -0.003849 0.999993 0.000148
vn -0.003782 0.999983 0.004419
vn 0.000103 0.999988 0.004857
vn -0.003782 0.999983 0.004419
vn 0.010745 0.999854 0.013252
vn -0.000099 0.999988 0.004843
vn 0.010745 0.999855 0.013252
vn 0.000000 1.000000 0.000000
vn 0.000000 1.000000 0.000000
vn 0.000000 1.000000 0.000000
vn -0.006966 0.927188 -0.374532
vn -0.006966 0.927188 -0.374532
vn 0.001192 0.999998 -0.001612
vn -0.006966 0.927188 -0.374532
vn 0.000000 0.695889 0.718150
vn 0.000000 0.695889 0.718150
vn 0.000000 0.695889 0.718149
vn 0.000000 1.000000 -0.000000
vn 0.000000 1.000000 -0.000000
vn 0.000000 1.000000 -0.000000
vn 0.698293 0.714075 -0.049839
vn 0.698293 0.714075 -0.049839
vn 0.698293 0.714075 -0.049839
vn 0.000000 1.000000 -0.000000
vn 0.000000 1.000000 -0.000000
vn 0.000000 1.000000 -0.000000
vn 0.000000 1.000000 -0.000000
vn 0.000000 1.000000 0.000000
vn -0.483198 0.874832 0.034487
vn -0.483198 0.874832 0.034487
vn -0.492766 0.870162 0.000657
vn -0.492766 0.870162 0.000657
vn -0.492766 0.870162 0.000657
vn 0.000000 1.000000 0.000000
vn 0.000000 1.000000 0.000000
vn 0.000000 1.000000 0.000000
vn 0.000000 1.000000 0.000000
vn 0.000000 1.000000 0.000000
vn 0.718138 0.695901 -0.000000
vn 0.718138 0.695901 -0.000000
vn 0.718138 0.695901 -0.000000
vn 0.718138 0.695901 -0.000000
vn -0.000000 1.000000 -0.000000
vn -0.000000 1.000000 -0.000000
vn -0.000000 1.000000 -0.000000
vn 0.005168 0.933741 -0.357913
vn 0.005168 0.933741 -0.357913
vn 0.005168 0.933741 -0.357913
s off
f 3/26/1 19/1/2 20/12/3 35/17/4
f 23/83/5 24/80/6 31/59/7 32/56/8
f 24/81/9 25/78/10 12/61/11 31/58/12
f 22/85/13 23/82/14 32/57/15 33/54/16
f 21/27/17 22/84/18 33/55/19 34/53/20
f 20/86/21 21/27/22 34/53/23 35/50/24
f 46/111/25 37/94/26 45/108/27
f 46/110/28 25/88/29 47/113/30
f 1/39/31 13/48/32 30/51/33
f 29/68/34 30/65/35 13/66/36 16/20/37
f 28/70/38 29/67/39 16/77/40 9/2/41
f 27/72/42 28/69/43 9/11/44 5/6/45
f 26/74/46 27/71/47 5/14/48 7/7/49
f 11/9/50 26/73/51 7/15/52
f 47/113/53 11/30/54 17/28/55
f 26/32/56 11/29/57 25/25/58 24/89/59
f 27/34/60 26/31/61 24/24/62 23/90/63
f 28/36/64 27/33/65 23/23/66 22/91/67
f 29/37/68 28/35/69 22/22/70 21/87/71
f 30/38/72 29/37/73 21/87/74 20/21/75
f 19/1/76 1/39/77 30/51/78 20/12/79
f 8/8/80 31/42/81 12/10/82
f 6/5/83 32/44/84 31/41/85 8/16/86
f 10/3/87 33/46/88 32/43/89 6/13/90
f 15/19/91 34/52/92 33/45/93 10/4/94
f 14/18/95 35/49/96 34/47/97 15/92/98
f 3/26/99 35/17/100 14/64/101
f 41/98/102 52/125/103 51/123/104 40/97/105
f 49/120/106 50/122/107 43/105/108 48/114/109
f 37/116/110 48/117/111 44/118/112 45/119/113
f 40/103/114 51/124/115 37/102/116 36/104/117
f 41/98/118 2/76/119 54/127/120 52/125/121
f 43/105/122 53/126/123 4/40/124 42/99/125
f 44/106/126 43/105/127 42/99/128 39/96/129
f 45/109/130 44/107/131 39/100/132 38/101/133
f 46/111/134 45/108/135 38/95/136 18/63/137
f 18/62/138 12/60/139 46/110/140
f 25/79/141 46/110/142 12/60/143
f 11/30/144 47/113/145 25/88/146
f 51/124/147 49/121/148 37/102/149
f 37/94/150 47/112/151 17/75/152 36/93/153
f 48/114/154 43/105/155 44/106/156
f 37/102/157 49/121/158 48/115/159
f 58/128/160 50/129/161 49/130/162
f 57/131/163 58/132/164 49/133/165 51/134/166
f 52/135/167 57/136/168 51/137/169
f 54/138/170 56/139/171 57/136/172 52/135/173
f 56/140/174 55/141/175 58/142/176 57/143/177
f 55/144/178 53/145/179 50/129/180 58/128/181
f 53/126/182 43/105/183 50/122/184
f 37/94/185 46/111/186 47/112/187
