# This file uses meters as units for non-parametric coordinates.

v 499.999512 -2.982914 -500.000916
v -0.000977 -2.982914 -500.000885
v 499.999512 0.000000 0.000732
v 0.000000 0.000000 0.000000
v 247.923340 -2.982914 0.000732
v 248.665527 -2.982914 -500.000122
v 124.999512 0.000000 0.000732
v 127.741699 -2.982914 0.000732
v 127.741699 -2.982914 -500.000122
v 372.099609 -2.982914 0.000732
v 372.099609 -2.982914 -500.000122
v 378.011719 -2.982914 -500.000122
v 374.999512 0.000000 0.000732
v 499.999512 -0.066345 -374.932983
v 381.621582 -0.726563 -375.548859
v 372.099609 -2.982914 -372.977539
v 248.479980 -2.982914 -372.977539
v 127.741699 -2.982914 -372.977539
v 114.958008 -0.528259 -374.217377
v -0.000488 0.000000 -375.000122
v 499.999512 0.000000 -249.999634
v 375.689941 1.085693 -250.672485
v 369.366211 -2.982914 -249.999634
v 248.294434 -2.982914 -249.999634
v 123.826172 -2.982914 -249.999634
v 109.968262 0.000000 -249.980042
v -0.000488 0.000000 -250.000000
v 499.999512 0.000000 -124.999512
v 387.299316 -1.329712 -121.748962
v 374.024414 -2.982914 -123.554810
v 248.108887 -2.982914 -123.554810
v 127.741699 -2.982914 -123.554810
v 118.729004 -1.656799 -128.105591
v -0.000488 0.000000 -125.000000
v 373.835449 -2.982914 -128.635742
v 248.119141 -2.982914 -130.468140
v 127.503418 -2.982914 -131.169556
v 372.099609 -2.982914 -378.582397
v 248.488281 -2.982914 -378.607056
v 127.741699 -2.982914 -379.900513
v 378.011719 -2.982914 -382.161316
v 499.999512 -2.982914 -380.637360
v 120.397461 -2.982914 -500.000488
v 120.397461 -2.982914 -381.617584
v -0.000977 -2.982914 -380.637360
vt 0.103823 0.327910
vt 0.166646 0.302939
vt 0.102018 0.328057
vt 0.166646 0.302939
vt 0.103018 0.328857
vt 0.103697 0.329862
vt 0.103103 0.329845
vt 0.103225 0.327894
vt 0.166646 0.302939
vt 0.166646 0.302939
vt 0.102417 0.303604
vt 0.166646 0.302939
vt 0.101618 0.302852
vt 0.101618 0.302852
vt 0.166646 0.302939
vt 0.102520 0.329812
vt 0.102646 0.327861
vt 0.166646 0.302939
vt 0.166646 0.302939
vt 0.103729 0.329374
vt 0.166646 0.302939
vt 0.103133 0.329357
vt 0.166646 0.302939
vt 0.102552 0.329325
vt 0.166646 0.302939
vt 0.166646 0.302939
vt 0.166646 0.302939
vt 0.166646 0.302939
vt 0.103760 0.328886
vt 0.166646 0.302939
vt 0.103164 0.328870
vt 0.166646 0.302939
vt 0.102583 0.328837
vt 0.166646 0.302939
vt 0.166646 0.302939
vt 0.166646 0.302939
vt 0.166646 0.302939
vt 0.103792 0.328398
vt 0.166646 0.302939
vt 0.103195 0.328382
vt 0.166646 0.302939
vt 0.102615 0.328349
vt 0.166646 0.302939
vt 0.166646 0.302939
vt 0.103790 0.328418
vt 0.166646 0.302939
vt 0.103193 0.328409
vt 0.166646 0.302939
vt 0.102613 0.328379
vt 0.103727 0.329396
vt 0.166646 0.302939
vt 0.103132 0.329379
vt 0.166646 0.302939
vt 0.102550 0.329352
vt 0.101923 0.303283
vt 0.101922 0.303296
vt 0.101922 0.303296
vt 0.101922 0.303283
vt 0.101922 0.303270
vt 0.101923 0.303270
vt 0.101949 0.303283
vt 0.101949 0.303296
vt 0.101948 0.303296
vt 0.101948 0.303283
vt 0.101948 0.303270
vt 0.101949 0.303270
vt 0.166646 0.302939
vt 0.166646 0.302939
vt 0.103018 0.328857
vt 0.103018 0.328857
vt 0.103018 0.328857
vt 0.101618 0.302852
vt 0.101618 0.302852
vt 0.102417 0.303604
vt 0.166646 0.302939
vt 0.166646 0.302939
vt 0.102018 0.328057
vt 0.102018 0.328057
vt 0.102018 0.328057
vt 0.102417 0.303604
vt 0.102417 0.303604
vn 0.006712 0.999955 -0.006712
vn 0.006712 0.999955 -0.006712
vn 0.006712 0.999955 -0.006712
vn 0.006712 0.999955 -0.006712
vn 0.000000 1.000000 0.000000
vn 0.000000 1.000000 0.000000
vn 0.000000 1.000000 0.000000
vn 0.000000 1.000000 0.000000
vn 0.000000 1.000000 0.000000
vn 0.000000 1.000000 0.000000
vn 0.000000 1.000000 0.000000
vn 0.000000 1.000000 0.000000
vn 0.349209 0.936927 -0.014869
vn 0.349209 0.936927 -0.014869
vn 0.349209 0.936927 -0.014869
vn 0.349209 0.936927 -0.014869
vn -0.005671 0.999968 -0.005671
vn -0.005671 0.999968 -0.005671
vn -0.005671 0.999968 -0.005671
vn -0.005671 0.999968 -0.005671
vn -0.273296 0.961699 -0.021061
vn -0.273296 0.961699 -0.021061
vn -0.273296 0.961699 -0.021061
vn -0.273296 0.961699 -0.021061
vn 0.000917 0.921890 -0.387451
vn 0.000917 0.921890 -0.387451
vn 0.000917 0.921890 -0.387451
vn 0.000917 0.921890 -0.387451
vn -0.148717 0.957879 -0.245666
vn -0.148717 0.957879 -0.245666
vn -0.148717 0.957879 -0.245666
vn 0.000000 1.000000 0.000000
vn 0.000000 1.000000 -0.000000
vn 0.000000 1.000000 -0.000000
vn 0.000000 1.000000 0.000000
vn 0.000000 1.000000 0.000000
vn 0.000000 1.000000 0.000000
vn 0.000000 1.000000 0.000000
vn 0.000000 1.000000 0.000000
vn 0.188570 0.982060 0.000000
vn 0.188570 0.982060 0.000000
vn 0.188570 0.982060 0.000000
vn 0.007246 0.883862 -0.467692
vn 0.007246 0.883862 -0.467692
vn 0.007246 0.883862 -0.467692
vn 0.001793 0.999970 -0.007477
vn 0.001793 0.999970 -0.007477
vn 0.001793 0.999970 -0.007477
vn 0.001793 0.999970 -0.007477
vn -0.374148 0.927156 -0.019859
vn -0.374148 0.927157 -0.019859
vn -0.374148 0.927156 -0.019859
vn -0.374148 0.927157 -0.019859
vn 0.000000 1.000000 -0.000000
vn 0.000000 1.000000 0.000000
vn 0.000000 1.000000 0.000000
vn 0.000000 1.000000 -0.000000
vn 0.000000 1.000000 -0.000000
vn 0.000000 1.000000 -0.000000
vn 0.000000 1.000000 -0.000000
vn 0.000000 1.000000 -0.000000
vn 0.199751 0.979833 0.005102
vn 0.199751 0.979833 0.005102
vn 0.199751 0.979833 0.005102
vn 0.199751 0.979833 0.005102
vn 0.002356 0.999995 -0.002072
vn 0.002356 0.999995 -0.002072
vn 0.002356 0.999995 -0.002072
vn 0.002356 0.999995 -0.002072
vn -0.000926 0.999954 0.009554
vn -0.000926 0.999954 0.009554
vn -0.000926 0.999954 0.009554
vn -0.000926 0.999954 0.009554
vn -0.285662 0.957933 0.027596
vn -0.285662 0.957933 0.027596
vn -0.285662 0.957933 0.027596
vn -0.285662 0.957933 0.027596
vn 0.000000 1.000000 0.000000
vn 0.000000 1.000000 -0.000000
vn 0.000000 1.000000 -0.000000
vn 0.000000 1.000000 0.000000
vn 0.000000 1.000000 0.000000
vn 0.000000 1.000000 0.000000
vn 0.000000 1.000000 0.000000
vn 0.000000 1.000000 0.000000
vn 0.147856 0.988998 -0.004627
vn 0.147856 0.988998 -0.004627
vn 0.147856 0.988998 -0.004627
vn 0.007331 0.999952 0.006451
vn 0.007331 0.999952 0.006451
vn 0.007331 0.999952 0.006451
vn 0.007331 0.999952 0.006451
vn 0.000000 1.000000 0.000000
vn 0.000000 1.000000 0.000000
vn 0.000000 1.000000 0.000000
vn 0.000000 1.000000 0.000000
vn 0.000000 1.000000 0.000000
vn 0.000000 1.000000 0.000000
vn 0.000000 1.000000 0.000000
vn 0.000000 1.000000 0.000000
vn 0.000000 1.000000 0.000000
vn 0.000000 1.000000 0.000000
vn 0.000000 1.000000 0.000000
vn 0.000000 1.000000 0.000000
vn 0.000000 1.000000 0.000000
vn 0.000000 1.000000 0.000000
vn 0.000000 1.000000 0.000000
vn 0.000000 1.000000 0.000000
vn 0.186653 0.982422 -0.002883
vn 0.186653 0.982422 -0.002883
vn 0.186653 0.982422 -0.002883
vn 0.186653 0.982422 -0.002883
vn -0.124199 0.992247 0.004619
vn -0.124199 0.992247 0.004619
vn -0.124199 0.992247 0.004619
vn -0.230577 0.973054 0.000000
vn -0.230577 0.973054 0.000000
vn -0.230577 0.973054 0.000000
vn -0.002577 0.948576 -0.316538
vn -0.002577 0.948576 -0.316538
vn -0.002577 0.948576 -0.316538
vn 0.000000 1.000000 0.000000
vn 0.000000 1.000000 0.000000
vn 0.000000 1.000000 0.000000
vn 0.000000 1.000000 0.000000
vn 0.000000 1.000000 0.000000
vn 0.000000 1.000000 0.000000
vn 0.000000 1.000000 0.000000
vn 0.000000 1.000000 0.000000
vn 0.063546 0.960252 -0.271806
vn 0.063546 0.960252 -0.271806
vn 0.063546 0.960252 -0.271806
vn 0.000000 1.000000 0.000000
vn 0.000000 1.000000 0.000000
vn 0.000000 1.000000 0.000000
vn 0.000000 1.000000 0.000000
vn 0.000000 1.000000 0.000000
vn 0.000000 1.000000 0.000000
vn 0.000000 1.000000 0.000000
vn 0.000000 1.000000 0.000000
s off
f 34/44/1 4/4/2 7/9/3 33/43/4
f 10/1/5 30/38/6 31/40/7 5/8/8
f 32/42/9 8/17/10 5/8/11 31/40/12
f 33/43/13 7/9/14 8/10/15 32/41/16
f 3/2/17 28/36/18 29/37/19 13/15/20
f 13/15/21 29/37/22 30/39/23 10/12/24
f 14/18/25 42/68/26 41/67/27 15/19/28
f 38/51/29 15/19/30 41/67/31
f 17/55/32 16/56/33 38/57/34 39/58/35
f 39/58/36 40/59/37 18/60/38 17/55/39
f 40/53/40 19/25/41 18/23/42
f 45/76/43 20/26/44 19/25/45
f 21/27/46 14/18/47 15/19/48 22/28/49
f 23/30/50 22/28/51 15/19/52 16/21/53
f 24/31/54 23/29/55 16/20/56 17/22/57
f 18/24/58 25/33/59 24/31/60 17/22/61
f 19/25/62 26/34/63 25/32/64 18/23/65
f 20/26/66 27/35/67 26/34/68 19/25/69
f 28/36/70 21/27/71 22/28/72 29/37/73
f 35/46/74 29/37/75 22/28/76 23/30/77
f 31/61/78 30/62/79 35/63/80 36/64/81
f 36/64/82 37/65/83 32/66/84 31/61/85
f 37/48/86 33/43/87 32/41/88
f 27/35/89 34/44/90 33/43/91 26/34/92
f 36/47/93 35/45/94 23/29/95 24/31/96
f 25/33/97 37/49/98 36/47/99 24/31/100
f 39/52/101 38/50/102 11/6/103 6/7/104
f 9/16/105 40/54/106 39/52/107 6/7/108
f 26/34/109 33/43/110 37/48/111 25/32/112
f 30/39/113 29/37/114 35/46/115
f 16/21/116 15/19/117 38/51/118
f 44/75/119 45/76/120 19/25/121
f 38/13/122 41/14/123 12/72/124 11/73/125
f 41/5/126 42/69/127 1/70/128 12/71/129
f 40/53/130 44/75/131 19/25/132
f 43/11/133 44/74/134 40/80/135 9/81/136
f 2/3/137 45/77/138 44/78/139 43/79/140
