# This file uses meters as units for non-parametric coordinates.

v -15.784668 0.000000 -16.905212
v -11.881592 0.000000 -18.097961
v -14.471436 21.877300 -17.417542
v -10.014038 18.777517 -19.443237
v -17.273193 19.804358 -21.799438
v -12.816284 16.704556 -23.824951
v -16.977478 0.000000 -20.808655
v -13.074219 0.000000 -22.001221
v -10.582336 29.683949 -25.366882
v -3.370361 0.000000 -9.416016
v 0.435059 0.000000 -6.494568
v -3.871094 27.132002 -13.779602
v -0.870117 27.162006 -10.591187
v -1.172363 24.070206 -16.201355
v 2.072998 26.233149 -14.102783
v -0.448730 0.000000 -13.221680
v 3.356934 0.000000 -10.300049
v -2.999268 40.419304 -17.563477
v -1.820801 12.006287 -13.377869
v 1.749756 14.852692 -11.396484
v -1.339355 15.612840 -7.185425
v -5.127930 14.295151 -10.294556
v 4.137695 0.000000 15.171021
v 7.161987 0.000000 10.966370
v 6.302002 14.332927 14.943054
v 8.152954 15.867361 9.635193
v 1.913574 15.996199 13.206848
v 3.764648 17.530600 7.899170
v -0.067017 0.000000 12.146851
v 2.957275 0.000000 7.942017
v 8.130249 24.552080 14.862671
v -1.777222 0.000000 -7.737671
v -6.567383 0.000000 -8.007935
v -5.187988 16.571926 -7.405151
v -8.833740 14.622614 -7.204285
v -4.735474 15.683578 -3.547485
v -8.380859 13.734275 -3.346619
v -2.047607 0.000000 -2.947266
v -6.837646 0.000000 -3.217896
v -12.443604 27.494698 -2.519531
v -22.276367 0.000000 -16.237976
v -19.175049 0.000000 -19.898438
v -23.672119 10.668221 -15.225769
v -19.969849 11.712096 -19.190918
v -27.014282 7.863576 -18.932739
v -24.652527 11.608264 -22.636597
v -25.936890 0.000000 -19.339417
v -22.835449 0.000000 -22.999878
v -27.989807 19.709753 -15.064087
v 15.896240 0.000000 1.490479
v 13.958496 0.000000 -3.312744
v 16.236572 12.528757 -0.421143
v 14.097900 8.762958 -5.058105
v 10.759521 13.202296 1.666992
v 8.620850 9.436487 -2.969788
v 11.093018 0.000000 3.428284
v 9.155273 0.000000 -1.375122
v 12.855103 21.737396 -8.846191
v -33.765137 0.000000 -3.960052
v -32.440674 0.000000 -0.252716
v -34.082275 8.421992 -2.518585
v -32.600037 5.890574 1.068451
v -29.858582 8.874754 -3.936920
v -28.376221 6.343329 -0.349884
v -30.058105 0.000000 -5.284760
v -28.733276 0.000000 -1.577240
v -31.772095 14.612160 3.983490
v 26.041443 0.000000 5.240387
v 29.960999 0.000000 5.608978
v 27.213501 8.421992 6.137512
v 31.090759 5.890574 6.312378
v 27.715759 8.874754 1.710388
v 31.592834 6.343329 1.885162
v 26.410034 0.000000 1.320831
v 30.329773 0.000000 1.689423
v 34.082336 14.612160 6.795776
v 10.281250 0.000000 4.551544
v 5.688477 0.000000 3.164520
v 17.147278 22.961994 7.908508
v 13.808838 25.521931 6.694427
v 14.035156 19.887194 9.747803
v 11.701660 23.595188 10.396271
v 8.894043 0.000000 9.144470
v 4.301147 0.000000 7.757355
v 23.246155 31.612249 16.830780
v 10.232422 12.006287 8.805267
v 6.192139 14.852692 8.214569
v 7.592529 15.612840 3.183197
v 12.235596 14.295151 4.751770
v 1.578735 0.000000 -11.556335
v 3.002563 0.000000 -16.138000
v 2.083252 16.571926 -14.945984
v 2.772461 14.622614 -18.531555
v -1.768799 15.683578 -15.442291
v -1.079956 13.734275 -19.027740
v -3.002930 0.000000 -12.980347
v -1.579102 0.000000 -17.561829
v -0.896973 27.494698 -23.169800
v -12.427490 0.000000 14.424408
v -12.966064 0.000000 19.191925
v -12.286743 16.571926 17.848541
v -12.290771 14.622614 21.499725
v -8.410034 15.683578 17.613007
v -8.413818 13.734275 21.264069
v -7.659912 0.000000 14.963196
v -8.198486 0.000000 19.730530
v -7.815918 27.494698 25.366852
v -14.084900 0.000000 10.832245
v -16.987732 0.000000 13.491760
v -15.536438 8.421992 11.099487
v -18.267090 5.890574 13.857605
v -12.590088 8.874754 14.441895
v -15.320801 6.343329 17.200012
v -11.425415 0.000000 13.735016
v -14.328308 0.000000 16.394501
v -20.632568 14.612160 15.751984
vt 0.166810 0.303526
vt 0.166810 0.303526
vt 0.166810 0.303526
vt 0.166810 0.303526
vt 0.166810 0.303526
vt 0.166810 0.303526
vt 0.166810 0.303526
vt 0.166810 0.303526
vt 0.166810 0.303526
vt 0.166810 0.303526
vt 0.166810 0.303526
vt 0.166810 0.303526
vt 0.166810 0.303526
vt 0.166810 0.303526
vt 0.166810 0.303526
vt 0.166810 0.303526
vt 0.166810 0.303526
vt 0.166810 0.303526
vt 0.166810 0.303526
vt 0.166810 0.303526
vt 0.166810 0.303526
vt 0.166810 0.303526
vt 0.166810 0.303526
vt 0.166810 0.303526
vt 0.166810 0.303526
vt 0.166810 0.303526
vt 0.166810 0.303526
vt 0.166810 0.303526
vt 0.166810 0.303526
vt 0.166810 0.303526
vt 0.166810 0.303526
vt 0.166810 0.303526
vt 0.166810 0.303526
vt 0.166810 0.303526
vt 0.166810 0.303526
vt 0.166810 0.303526
vt 0.166810 0.303526
vt 0.166810 0.303526
vt 0.166810 0.303526
vt 0.166810 0.303526
vt 0.166810 0.303526
vt 0.166810 0.303526
vt 0.166810 0.303526
vt 0.166810 0.303526
vt 0.166810 0.303526
vt 0.166810 0.303526
vt 0.166810 0.303526
vt 0.166810 0.303526
vt 0.166810 0.303526
vt 0.166810 0.303526
vt 0.166810 0.303526
vt 0.166810 0.303526
vt 0.166810 0.303526
vt 0.166810 0.303526
vt 0.166810 0.303526
vt 0.166810 0.303526
vt 0.166810 0.303526
vt 0.166810 0.303526
vt 0.166810 0.303526
vt 0.166810 0.303526
vt 0.166810 0.303526
vt 0.166810 0.303526
vt 0.166810 0.303526
vt 0.166810 0.303526
vt 0.166810 0.303526
vt 0.166810 0.303526
vt 0.166810 0.303526
vt 0.166810 0.303526
vt 0.166810 0.303526
vt 0.166810 0.303526
vt 0.166810 0.303526
vt 0.166810 0.303526
vt 0.166810 0.303526
vt 0.166810 0.303526
vt 0.166810 0.303526
vt 0.166810 0.303526
vt 0.166810 0.303526
vt 0.166810 0.303526
vt 0.166810 0.303526
vt 0.166810 0.303526
vt 0.166810 0.303526
vt 0.166810 0.303526
vt 0.166810 0.303526
vt 0.166810 0.303526
vt 0.166810 0.303526
vt 0.166810 0.303526
vt 0.166810 0.303526
vt 0.166810 0.303526
vt 0.166810 0.303526
vt 0.166810 0.303526
vt 0.166810 0.303526
vt 0.166810 0.303526
vt 0.166810 0.303526
vt 0.166810 0.303526
vt 0.166810 0.303526
vt 0.166810 0.303526
vt 0.166810 0.303526
vt 0.166810 0.303526
vt 0.166810 0.303526
vt 0.166810 0.303526
vt 0.166810 0.303526
vt 0.166810 0.303526
vt 0.166810 0.303526
vt 0.166810 0.303526
vt 0.166810 0.303526
vt 0.166810 0.303526
vt 0.166810 0.303526
vt 0.166810 0.303526
vt 0.166810 0.303526
vt 0.166810 0.303526
vt 0.166810 0.303526
vt 0.166810 0.303526
vt 0.166810 0.303526
vt 0.166810 0.303526
vt 0.166810 0.303526
vt 0.166810 0.303526
vt 0.166810 0.303526
vt 0.166810 0.303526
vt 0.166810 0.303526
vt 0.166810 0.303526
vt 0.166810 0.303526
vt 0.166810 0.303526
vt 0.166810 0.303526
vt 0.166810 0.303526
vt 0.166810 0.303526
vt 0.166810 0.303526
vt 0.166810 0.303526
vt 0.166810 0.303526
vt 0.166810 0.303526
vt 0.166810 0.303526
vt 0.166810 0.303526
vt 0.166810 0.303526
vt 0.166810 0.303526
vt 0.166810 0.303526
vt 0.166810 0.303526
vt 0.166810 0.303526
vt 0.166810 0.303526
vt 0.166810 0.303526
vt 0.166810 0.303526
vt 0.166810 0.303526
vt 0.166810 0.303526
vt 0.166810 0.303526
vt 0.166810 0.303526
vt 0.166810 0.303526
vt 0.166810 0.303526
vt 0.166810 0.303526
vt 0.166810 0.303526
vt 0.166810 0.303526
vt 0.166810 0.303526
vt 0.166810 0.303526
vt 0.166810 0.303526
vt 0.166810 0.303526
vt 0.166810 0.303526
vt 0.166810 0.303526
vt 0.166810 0.303526
vt 0.166810 0.303526
vt 0.166810 0.303526
vt 0.166810 0.303526
vt 0.166810 0.303526
vt 0.166810 0.303526
vt 0.166810 0.303526
vt 0.166810 0.303526
vt 0.166810 0.303526
vt 0.166810 0.303526
vt 0.166810 0.303526
vt 0.166810 0.303526
vt 0.166810 0.303526
vt 0.166810 0.303526
vn 0.363771 0.014096 0.931382
vn 0.363771 0.014096 0.931382
vn 0.363771 0.014096 0.931382
vn 0.363771 0.014096 0.931382
vn -0.381280 -0.071449 -0.921695
vn -0.381280 -0.071449 -0.921694
vn -0.381280 -0.071449 -0.921695
vn -0.381280 -0.071449 -0.921695
vn 0.905737 -0.091224 -0.413906
vn 0.905737 -0.091224 -0.413906
vn 0.905737 -0.091224 -0.413906
vn 0.905737 -0.091224 -0.413906
vn -0.903776 0.037438 0.426366
vn -0.903776 0.037438 0.426366
vn -0.903776 0.037438 0.426366
vn -0.903776 0.037438 0.426366
vn 0.597057 0.406674 0.691476
vn 0.597057 0.406674 0.691476
vn 0.597057 0.406674 0.691476
vn 0.865683 -0.203339 -0.457433
vn 0.865683 -0.203339 -0.457433
vn 0.865683 -0.203339 -0.457433
vn -0.432260 -0.032658 -0.901158
vn -0.432260 -0.032658 -0.901158
vn -0.432259 -0.032658 -0.901158
vn -0.772475 0.599152 0.210475
vn -0.772475 0.599152 0.210475
vn -0.772475 0.599152 0.210475
vn -0.618182 -0.031791 0.785391
vn -0.618183 -0.031791 0.785391
vn -0.658185 0.102886 0.745793
vn -0.652057 0.078944 0.754048
vn 0.569276 -0.045011 -0.820913
vn 0.589601 -0.117720 -0.799070
vn 0.547609 0.021732 -0.836452
vn 0.547609 0.021732 -0.836452
vn 0.799543 0.123233 0.587830
vn 0.799543 0.123233 0.587830
vn 0.797631 0.126273 0.589780
vn 0.797522 0.126445 0.589890
vn -0.755564 -0.115275 -0.644853
vn -0.755564 -0.115275 -0.644853
vn -0.737058 -0.115971 -0.665805
vn -0.744484 -0.115705 -0.657538
vn -0.708753 0.235840 0.664867
vn -0.708753 0.235840 0.664867
vn -0.708753 0.235840 0.664867
vn 0.752374 0.397209 0.525508
vn 0.752374 0.397209 0.525508
vn 0.752374 0.397209 0.525508
vn 0.547024 -0.008614 -0.837073
vn 0.547024 -0.008614 -0.837073
vn 0.547024 -0.008614 -0.837073
vn -0.743438 -0.137604 -0.654496
vn -0.743438 -0.137604 -0.654496
vn -0.743438 -0.137604 -0.654496
vn 0.609541 -0.205836 -0.765566
vn 0.609541 -0.205836 -0.765566
vn 0.589601 -0.117720 -0.799070
vn 0.569276 -0.045011 -0.820913
vn 0.797522 0.126445 0.589890
vn 0.797631 0.126273 0.589780
vn 0.794984 0.130443 0.592439
vn 0.794984 0.130443 0.592439
vn -0.652057 0.078944 0.754048
vn -0.658185 0.102886 0.745793
vn -0.685178 0.242568 0.686798
vn -0.685178 0.242568 0.686798
vn -0.744484 -0.115705 -0.657538
vn -0.737058 -0.115971 -0.665805
vn -0.725457 -0.116353 -0.678362
vn -0.725457 -0.116353 -0.678362
vn 0.892286 -0.070200 0.445980
vn 0.892286 -0.070200 0.445980
vn 0.892286 -0.070200 0.445980
vn 0.892286 -0.070200 0.445980
vn -0.892169 0.087633 -0.443120
vn -0.892169 0.087633 -0.443120
vn -0.892169 0.087633 -0.443120
vn -0.892169 0.087633 -0.443120
vn 0.474507 -0.061676 -0.878088
vn 0.474507 -0.061676 -0.878088
vn 0.474507 -0.061676 -0.878088
vn 0.474507 -0.061676 -0.878088
vn -0.478050 0.041263 0.877363
vn -0.478050 0.041263 0.877363
vn -0.478050 0.041263 0.877363
vn -0.478050 0.041263 0.877363
vn 0.945001 -0.166852 0.281305
vn 0.945001 -0.166852 0.281305
vn 0.945001 -0.166852 0.281305
vn 0.471418 0.455708 -0.755047
vn 0.471418 0.455708 -0.755047
vn 0.471418 0.455708 -0.755047
vn -0.794857 0.597747 -0.104407
vn -0.794857 0.597747 -0.104407
vn -0.794857 0.597747 -0.104407
vn -0.344302 0.068962 0.936323
vn -0.344302 0.068962 0.936323
vn -0.344302 0.068962 0.936323
vn -0.000182 0.036365 -0.999339
vn -0.000182 0.036365 -0.999339
vn -0.000182 0.036365 -0.999339
vn -0.000182 0.036365 -0.999339
vn -0.013541 0.022823 0.999648
vn -0.013541 0.022823 0.999648
vn -0.013541 0.022823 0.999648
vn -0.013541 0.022823 0.999648
vn -0.991048 -0.133313 0.007234
vn -0.991048 -0.133313 0.007234
vn -0.991048 -0.133313 0.007234
vn -0.991048 -0.133313 0.007234
vn 0.982592 0.185768 -0.001611
vn 0.982592 0.185768 -0.001611
vn 0.982592 0.185768 -0.001611
vn 0.982592 0.185768 -0.001611
vn -0.203454 0.283962 -0.937002
vn -0.203454 0.283962 -0.937002
vn -0.203454 0.283962 -0.937002
vn -0.957262 -0.285434 0.046651
vn -0.957262 -0.285434 0.046651
vn -0.957262 -0.285434 0.046651
vn 0.075080 -0.037726 0.996464
vn 0.075080 -0.037726 0.996464
vn 0.075080 -0.037726 0.996464
vn 0.838211 0.544672 0.027103
vn 0.838211 0.544672 0.027103
vn 0.838211 0.544672 0.027103
vn 0.744535 0.021603 0.667234
vn 0.744535 0.021603 0.667234
vn 0.744535 0.021603 0.667234
vn 0.744535 0.021603 0.667234
vn -0.777135 -0.090896 -0.622735
vn -0.777135 -0.090896 -0.622735
vn -0.777135 -0.090896 -0.622735
vn -0.777135 -0.090896 -0.622735
vn 0.613151 0.104626 -0.783006
vn 0.613151 0.104626 -0.783006
vn 0.613151 0.104626 -0.783006
vn 0.613151 0.104626 -0.783006
vn -0.659421 -0.144489 0.737758
vn -0.659421 -0.144489 0.737758
vn -0.659421 -0.144489 0.737758
vn -0.659421 -0.144489 0.737758
vn 0.656211 0.300993 0.691946
vn 0.656211 0.300993 0.691946
vn 0.656211 0.300993 0.691946
vn 0.408671 0.707392 -0.576701
vn 0.408671 0.707392 -0.576701
vn 0.408671 0.707392 -0.576701
vn -0.876155 0.082921 -0.474843
vn -0.876155 0.082921 -0.474843
vn -0.876155 0.082921 -0.474843
vn -0.588300 -0.294404 0.753147
vn -0.588300 -0.294404 0.753147
vn -0.588300 -0.294404 0.753147
vn 0.926570 -0.083853 -0.366657
vn 0.926570 -0.083853 -0.366657
vn 0.926570 -0.083853 -0.366657
vn 0.926570 -0.083853 -0.366657
vn -0.921045 0.022327 0.388815
vn -0.921045 0.022327 0.388815
vn -0.921045 0.022327 0.388815
vn -0.921045 0.022327 0.388815
vn -0.368941 -0.175515 -0.912731
vn -0.368941 -0.175515 -0.912731
vn -0.368941 -0.175515 -0.912730
vn -0.368941 -0.175515 -0.912731
vn 0.368942 0.131245 0.920139
vn 0.368942 0.131245 0.920139
vn 0.368942 0.131245 0.920139
vn 0.368942 0.131245 0.920139
vn 0.916381 -0.028795 -0.399271
vn 0.916381 -0.028795 -0.399271
vn 0.916381 -0.028795 -0.399270
vn -0.371878 -0.292811 -0.880891
vn -0.371878 -0.292811 -0.880891
vn -0.371878 -0.292811 -0.880891
vn -0.919570 0.374038 0.120365
vn -0.919570 0.374038 0.120365
vn -0.919570 0.374038 0.120365
vn 0.327840 0.700420 0.633982
vn 0.327840 0.700420 0.633982
vn 0.327840 0.700420 0.633982
vn -0.939675 -0.094728 0.328690
vn -0.939675 -0.094728 0.328690
vn -0.939675 -0.094728 0.328690
vn -0.939675 -0.094728 0.328690
vn 0.935884 0.025236 -0.351402
vn 0.935884 0.025236 -0.351402
vn 0.935884 0.025236 -0.351402
vn 0.935884 0.025236 -0.351402
vn 0.330450 -0.197597 0.922908
vn 0.330450 -0.197597 0.922908
vn 0.330450 -0.197597 0.922908
vn 0.330450 -0.197597 0.922908
vn -0.330812 0.148048 -0.932011
vn -0.330812 0.148048 -0.932011
vn -0.330812 0.148048 -0.932011
vn -0.330812 0.148048 -0.932011
vn -0.931613 -0.032551 0.361991
vn -0.931613 -0.032551 0.361991
vn -0.931613 -0.032551 0.361991
vn 0.332137 -0.327211 0.884657
vn 0.332137 -0.327211 0.884657
vn 0.332137 -0.327211 0.884657
vn 0.906177 0.414942 -0.081651
vn 0.906177 0.414942 -0.081651
vn 0.906177 0.414942 -0.081651
vn -0.283314 0.742850 -0.606554
vn -0.283314 0.742850 -0.606554
vn -0.283314 0.742850 -0.606554
vn -0.099791 -0.094714 0.990490
vn -0.099791 -0.094714 0.990490
vn -0.099791 -0.094714 0.990490
vn -0.099791 -0.094714 0.990490
vn 0.077648 0.025225 -0.996662
vn 0.077648 0.025225 -0.996662
vn 0.077648 0.025225 -0.996662
vn 0.077648 0.025225 -0.996662
vn 0.976039 -0.197600 0.091115
vn 0.976039 -0.197600 0.091115
vn 0.976039 -0.197600 0.091115
vn 0.976039 -0.197600 0.091115
vn -0.984435 0.148065 -0.094679
vn -0.984435 0.148065 -0.094679
vn -0.984435 0.148065 -0.094679
vn -0.984435 0.148065 -0.094679
vn -0.066233 -0.032556 0.997273
vn -0.066233 -0.032556 0.997273
vn -0.066233 -0.032556 0.997273
vn 0.942097 -0.327214 0.073377
vn 0.942097 -0.327214 0.073377
vn 0.942097 -0.327214 0.073377
vn 0.309489 0.414935 -0.855597
vn 0.309489 0.414935 -0.855597
vn 0.309489 0.414935 -0.855597
vn -0.669457 0.742851 0.000021
vn -0.669457 0.742851 0.000021
vn -0.669457 0.742851 0.000021
vn 0.300516 -0.031792 -0.953247
vn 0.300516 -0.031792 -0.953247
vn 0.328895 0.020536 -0.944143
vn 0.333471 0.029178 -0.942309
vn -0.184691 -0.023915 0.982506
vn -0.166413 -0.049791 0.984798
vn -0.216442 0.021735 0.976053
vn -0.216442 0.021735 0.976053
vn -0.955755 0.123229 -0.267108
vn -0.955755 0.123229 -0.267108
vn -0.926068 0.299086 -0.230101
vn -0.918925 0.324754 -0.223856
vn 0.934774 -0.115250 0.336029
vn 0.934774 -0.115250 0.336029
vn 0.897168 -0.320317 0.304115
vn 0.923279 -0.206746 0.323746
vn 0.556317 0.373440 -0.742330
vn 0.556317 0.373440 -0.742330
vn 0.556317 0.373440 -0.742330
vn -0.596948 0.798681 0.075902
vn -0.596948 0.798681 0.075902
vn -0.596948 0.798681 0.075902
vn -0.273985 -0.330379 0.903206
vn -0.273985 -0.330379 0.903206
vn -0.273985 -0.330379 0.903206
vn 0.736318 -0.662257 0.138751
vn 0.736318 -0.662257 0.138751
vn 0.736318 -0.662257 0.138751
vn -0.115237 -0.120751 0.985971
vn -0.115237 -0.120751 0.985971
vn -0.166413 -0.049791 0.984798
vn -0.184691 -0.023915 0.982506
vn -0.918925 0.324754 -0.223856
vn -0.926068 0.299086 -0.230101
vn -0.814358 0.559280 -0.155005
vn -0.814358 0.559280 -0.155005
vn 0.333471 0.029178 -0.942309
vn 0.328895 0.020536 -0.944143
vn 0.373319 0.107139 -0.921496
vn 0.373319 0.107139 -0.921496
vn 0.923279 -0.206746 0.323746
vn 0.897168 -0.320317 0.304115
vn 0.825661 -0.499691 0.261901
vn 0.825662 -0.499691 0.261901
vn 0.969553 0.036366 0.242164
vn 0.969554 0.036366 0.242164
vn 0.969553 0.036366 0.242164
vn 0.969553 0.036366 0.242164
vn -0.966544 0.022836 -0.255482
vn -0.966544 0.022836 -0.255482
vn -0.966544 0.022836 -0.255482
vn -0.966544 0.022836 -0.255482
vn 0.233318 -0.133311 -0.963219
vn 0.233318 -0.133311 -0.963219
vn 0.233318 -0.133311 -0.963219
vn 0.233318 -0.133311 -0.963219
vn -0.236710 0.185766 0.953656
vn -0.236710 0.185766 0.953656
vn -0.236710 0.185766 0.953656
vn -0.236710 0.185766 0.953656
vn 0.958373 0.283956 0.029842
vn 0.958373 0.283956 0.029842
vn 0.958373 0.283956 0.029842
vn 0.186891 -0.285437 -0.939999
vn 0.186891 -0.285437 -0.939999
vn 0.186891 -0.285437 -0.939999
vn -0.984940 -0.037694 -0.168735
vn -0.984940 -0.037694 -0.168735
vn -0.984940 -0.037694 -0.168735
vn -0.229539 0.544680 0.806620
vn -0.229539 0.544680 0.806620
vn -0.229539 0.544680 0.806620
vn -0.997774 0.036371 -0.055887
vn -0.997774 0.036371 -0.055887
vn -0.997774 0.036371 -0.055887
vn -0.997774 0.036371 -0.055887
vn 0.997318 0.022842 0.069542
vn 0.997317 0.022842 0.069542
vn 0.997318 0.022842 0.069542
vn 0.997318 0.022842 0.069542
vn -0.048390 -0.133310 0.989892
vn -0.048390 -0.133310 0.989892
vn -0.048390 -0.133310 0.989892
vn -0.048390 -0.133310 0.989892
vn 0.053510 0.185766 -0.981136
vn 0.053510 0.185766 -0.981136
vn 0.053510 0.185766 -0.981136
vn 0.053510 0.185766 -0.981136
vn -0.946941 0.283963 0.150559
vn -0.946941 0.283963 0.150559
vn -0.946941 0.283963 0.150559
vn -0.007149 -0.285436 0.958371
vn -0.007149 -0.285436 0.958371
vn -0.007149 -0.285436 0.958371
vn 0.999106 -0.037717 -0.019101
vn 0.999106 -0.037717 -0.019101
vn 0.999106 -0.037717 -0.019101
vn 0.074060 0.544682 -0.835366
vn 0.074060 0.544682 -0.835366
vn 0.074060 0.544682 -0.835366
vn -0.667607 -0.094718 -0.738464
vn -0.667607 -0.094718 -0.738464
vn -0.667607 -0.094718 -0.738464
vn -0.667607 -0.094718 -0.738464
vn 0.687023 0.025215 0.726198
vn 0.687023 0.025215 0.726198
vn 0.687024 0.025215 0.726198
vn 0.687024 0.025215 0.726198
vn -0.722342 -0.197592 0.662707
vn -0.722342 -0.197592 0.662707
vn -0.722342 -0.197592 0.662707
vn -0.722342 -0.197592 0.662707
vn 0.730612 0.148047 -0.666550
vn 0.730612 0.148047 -0.666550
vn 0.730612 0.148047 -0.666550
vn 0.730612 0.148047 -0.666550
vn -0.695157 -0.032562 -0.718120
vn -0.695157 -0.032562 -0.718120
vn -0.695157 -0.032562 -0.718120
vn -0.686433 -0.327230 0.649408
vn -0.686433 -0.327230 0.649408
vn -0.686433 -0.327230 0.649408
vn 0.426895 0.414936 0.803485
vn 0.426895 0.414936 0.803485
vn 0.426895 0.414936 0.803485
vn 0.449070 0.742858 -0.496485
vn 0.449070 0.742858 -0.496485
vn 0.449070 0.742858 -0.496485
s off
f 1/1/1 2/2/2 4/3/3 3/4/4
f 5/5/5 6/6/6 8/7/7 7/8/8
f 2/2/9 8/9/10 6/10/11 4/3/12
f 7/11/13 1/1/14 3/4/15 5/12/16
f 3/4/17 4/3/18 9/13/19
f 4/3/20 6/6/21 9/13/22
f 6/6/23 5/5/24 9/13/25
f 5/5/26 3/4/27 9/13/28
f 10/14/29 11/15/30 21/16/31 22/17/32
f 19/18/33 20/19/34 17/20/35 16/21/36
f 11/15/37 17/22/38 20/23/39 21/16/40
f 16/24/41 10/14/42 22/17/43 19/25/44
f 12/26/45 13/27/46 18/28/47
f 13/27/48 15/29/49 18/28/50
f 15/29/51 14/30/52 18/28/53
f 14/30/54 12/26/55 18/28/56
f 14/30/57 15/29/58 20/19/59 19/18/60
f 21/16/61 20/23/62 15/31/63 13/27/64
f 22/17/65 21/16/66 13/27/67 12/26/68
f 19/25/69 22/17/70 12/26/71 14/32/72
f 23/33/73 24/34/74 26/35/75 25/36/76
f 27/37/77 28/38/78 30/39/79 29/40/80
f 24/34/81 30/41/82 28/42/83 26/35/84
f 29/43/85 23/33/86 25/36/87 27/44/88
f 25/36/89 26/35/90 31/45/91
f 26/35/92 28/38/93 31/45/94
f 28/38/95 27/37/96 31/45/97
f 27/37/98 25/36/99 31/45/100
f 32/46/101 33/47/102 35/48/103 34/49/104
f 36/50/105 37/51/106 39/52/107 38/53/108
f 33/47/109 39/54/110 37/55/111 35/48/112
f 38/56/113 32/46/114 34/49/115 36/57/116
f 34/49/117 35/48/118 40/58/119
f 35/48/120 37/51/121 40/58/122
f 37/51/123 36/50/124 40/58/125
f 36/50/126 34/49/127 40/58/128
f 41/59/129 42/60/130 44/61/131 43/62/132
f 45/63/133 46/64/134 48/65/135 47/66/136
f 42/60/137 48/67/138 46/68/139 44/61/140
f 47/69/141 41/59/142 43/62/143 45/70/144
f 43/62/145 44/61/146 49/71/147
f 44/61/148 46/64/149 49/71/150
f 46/64/151 45/63/152 49/71/153
f 45/63/154 43/62/155 49/71/156
f 50/72/157 51/73/158 53/74/159 52/75/160
f 54/76/161 55/77/162 57/78/163 56/79/164
f 51/73/165 57/80/166 55/81/167 53/74/168
f 56/82/169 50/72/170 52/75/171 54/83/172
f 52/75/173 53/74/174 58/84/175
f 53/74/176 55/77/177 58/84/178
f 55/77/179 54/76/180 58/84/181
f 54/76/182 52/75/183 58/84/184
f 59/85/185 60/86/186 62/87/187 61/88/188
f 63/89/189 64/90/190 66/91/191 65/92/192
f 60/86/193 66/93/194 64/94/195 62/87/196
f 65/95/197 59/85/198 61/88/199 63/96/200
f 61/88/201 62/87/202 67/97/203
f 62/87/204 64/90/205 67/97/206
f 64/90/207 63/89/208 67/97/209
f 63/89/210 61/88/211 67/97/212
f 68/98/213 69/99/214 71/100/215 70/101/216
f 72/102/217 73/103/218 75/104/219 74/105/220
f 69/99/221 75/106/222 73/107/223 71/100/224
f 74/108/225 68/98/226 70/101/227 72/109/228
f 70/101/229 71/100/230 76/110/231
f 71/100/232 73/103/233 76/110/234
f 73/103/235 72/102/236 76/110/237
f 72/102/238 70/101/239 76/110/240
f 77/111/241 78/112/242 88/113/243 89/114/244
f 86/115/245 87/116/246 84/117/247 83/118/248
f 78/112/249 84/119/250 87/120/251 88/113/252
f 83/121/253 77/111/254 89/114/255 86/122/256
f 79/123/257 80/124/258 85/125/259
f 80/124/260 82/126/261 85/125/262
f 82/126/263 81/127/264 85/125/265
f 81/127/266 79/123/267 85/125/268
f 81/127/269 82/126/270 87/116/271 86/115/272
f 88/113/273 87/120/274 82/128/275 80/124/276
f 89/114/277 88/113/278 80/124/279 79/123/280
f 86/122/281 89/114/282 79/123/283 81/129/284
f 90/130/285 91/131/286 93/132/287 92/133/288
f 94/134/289 95/135/290 97/136/291 96/137/292
f 91/131/293 97/138/294 95/139/295 93/132/296
f 96/140/297 90/130/298 92/133/299 94/141/300
f 92/133/301 93/132/302 98/142/303
f 93/132/304 95/135/305 98/142/306
f 95/135/307 94/134/308 98/142/309
f 94/134/310 92/133/311 98/142/312
f 99/143/313 100/144/314 102/145/315 101/146/316
f 103/147/317 104/148/318 106/149/319 105/150/320
f 100/144/321 106/151/322 104/152/323 102/145/324
f 105/153/325 99/143/326 101/146/327 103/154/328
f 101/146/329 102/145/330 107/155/331
f 102/145/332 104/148/333 107/155/334
f 104/148/335 103/147/336 107/155/337
f 103/147/338 101/146/339 107/155/340
f 108/156/341 109/157/342 111/158/343 110/159/344
f 112/160/345 113/161/346 115/162/347 114/163/348
f 109/157/349 115/164/350 113/165/351 111/158/352
f 114/166/353 108/156/354 110/159/355 112/167/356
f 110/159/357 111/158/358 116/168/359
f 111/158/360 113/161/361 116/168/362
f 113/161/363 112/160/364 116/168/365
f 112/160/366 110/159/367 116/168/368
