# This file uses meters as units for non-parametric coordinates.

v 47.531925 0.000000 -19.547636
v 5.400803 0.000000 -48.663353
v -30.237541 0.000000 -33.901485
v -55.801022 0.000000 3.596264
v -30.237541 0.000000 37.375202
v 8.830963 0.000000 48.663353
v 41.039146 0.000000 37.375206
v 55.801022 0.000000 1.736861
v 27.981144 10.541286 -13.852312
v 12.201900 12.105822 -33.118793
v 5.400803 16.692270 1.736860
v -27.432035 9.243896 -18.619383
v -42.457432 11.437321 3.596263
v -24.737783 10.528915 25.937052
v 8.936468 13.156640 32.826488
v 24.118958 11.437321 20.102001
v 31.077984 9.104481 4.349093
vt 0.435721 0.467083
vt 0.435721 0.467083
vt 0.435721 0.467083
vt 0.435721 0.467083
vt 0.435721 0.467083
vt 0.435721 0.467083
vt 0.435721 0.467083
vt 0.435721 0.467083
vt 0.435721 0.467083
vt 0.435721 0.467083
vt 0.435721 0.467083
vt 0.435721 0.467083
vt 0.435721 0.467083
vt 0.435721 0.467083
vt 0.435721 0.467083
vt 0.435721 0.467083
vt 0.435721 0.467083
vn 0.204551 0.974859 -0.088364
vn 0.204551 0.974859 -0.088364
vn 0.204551 0.974859 -0.088364
vn -0.126995 0.979919 -0.153721
vn -0.126995 0.979919 -0.153721
vn -0.126995 0.979919 -0.153721
vn -0.114155 0.978145 -0.173783
vn -0.114155 0.978145 -0.173783
vn -0.114155 0.978145 -0.173783
vn -0.103629 0.987065 0.122329
vn -0.103629 0.987065 0.122329
vn -0.103629 0.987065 0.122329
vn -0.102366 0.987002 0.123887
vn -0.102366 0.987002 0.123887
vn -0.102366 0.987002 0.123887
vn 0.186287 0.978358 0.090077
vn 0.186287 0.978358 0.090077
vn 0.186287 0.978358 0.090077
vn 0.284861 0.958434 -0.016093
vn 0.284861 0.958434 -0.016093
vn 0.284861 0.958434 -0.016093
vn 0.280662 0.959399 0.027981
vn 0.280662 0.959399 0.027981
vn 0.280662 0.959399 0.027981
vn 0.447884 0.732702 -0.512395
vn 0.447884 0.732702 -0.512395
vn 0.447884 0.732702 -0.512395
vn 0.447884 0.732702 -0.512395
vn -0.228079 0.832248 -0.505316
vn -0.228079 0.832248 -0.505316
vn -0.228079 0.832248 -0.505316
vn -0.228079 0.832248 -0.505316
vn -0.553016 0.729391 -0.402693
vn -0.553016 0.729391 -0.402693
vn -0.553016 0.729391 -0.402693
vn -0.553016 0.729391 -0.402693
vn -0.555533 0.705609 0.439885
vn -0.555533 0.705609 0.439885
vn -0.555533 0.705609 0.439885
vn -0.555533 0.705609 0.439885
vn -0.183122 0.760595 0.622866
vn -0.183122 0.760595 0.622866
vn -0.183122 0.760595 0.622866
vn -0.183122 0.760595 0.622866
vn 0.273533 0.833441 0.480163
vn 0.273533 0.833441 0.480163
vn 0.273533 0.833441 0.480163
vn 0.273533 0.833441 0.480163
vn 0.401893 0.906596 0.128709
vn 0.401893 0.906596 0.128709
vn 0.401893 0.906596 0.128709
vn 0.401893 0.906596 0.128709
vn 0.391824 0.916605 -0.079432
vn 0.391824 0.916605 -0.079432
vn 0.391824 0.916605 -0.079432
vn 0.391824 0.916605 -0.079432
s off
f 9/1/1 10/2/2 11/3/3
f 10/2/4 12/4/5 11/3/6
f 12/4/7 13/5/8 11/3/9
f 13/5/10 14/6/11 11/3/12
f 14/6/13 15/7/14 11/3/15
f 15/7/16 16/8/17 11/3/18
f 16/8/19 17/9/20 11/3/21
f 17/9/22 9/1/23 11/3/24
f 1/10/25 2/11/26 10/2/27 9/1/28
f 2/11/29 3/12/30 12/4/31 10/2/32
f 3/12/33 4/13/34 13/5/35 12/4/36
f 4/13/37 5/14/38 14/6/39 13/5/40
f 5/14/41 6/15/42 15/7/43 14/6/44
f 6/15/45 7/16/46 16/8/47 15/7/48
f 7/16/49 8/17/50 17/9/51 16/8/52
f 8/17/53 1/10/54 9/1/55 17/9/56
