# This file uses meters as units for non-parametric coordinates.

v 500.000000 0.000000 0.000000
v 500.000000 0.000000 -499.999390
v 0.000000 0.000000 0.000000
v 0.000000 0.000000 -499.999329
v 500.000000 6.969652 -67.378296
v 0.000000 6.969652 -67.378296
v 500.000000 6.969652 -102.307129
v 0.000000 6.969652 -102.307129
v 500.000000 -23.029484 -58.744751
v 0.000000 -23.029484 -58.744751
v 500.000000 -0.000001 -107.379150
v 0.000000 -0.000001 -107.379150
v 500.000000 -5.417279 -8.034546
v 0.000000 -5.417279 -8.035278
v 0.000000 -8.353827 -26.542603
v 500.000000 -8.353827 -26.542603
v 246.992432 0.000000 0.000000
v 248.442139 -5.417279 -11.714233
v 245.045410 -15.808158 -23.337524
v 251.454102 -15.467115 -66.524536
v 251.454102 -9.204556 -75.858276
v 250.893555 -8.751798 -107.321167
v 246.992432 -2.982914 -165.416748
v 497.360229 6.969655 -101.687622
v 497.360229 6.969655 -66.760254
v 497.360229 -23.029482 -58.126831
v 497.360229 -8.353826 -26.033813
v 497.360229 -5.417279 -8.034546
v 500.000000 0.000001 0.000000
v 8.165039 6.969655 -102.787720
v 3.359985 6.969655 -66.760254
v 3.359985 -23.029482 -58.126831
v 3.359985 -8.353826 -26.033813
v 3.359985 -5.417279 -8.034546
v 0.000000 0.000001 0.000000
v 19.276461 -0.000001 -105.522171
v 18.167208 4.857685 -97.845413
v 21.258638 4.857685 -66.838089
v 21.258638 -17.592226 -58.204666
v 484.863861 0.000001 -108.577957
v 480.870697 6.969655 -99.526443
v 488.228363 6.969655 -68.087234
v 488.228363 -15.480256 -59.453812
v 31.309185 0.000000 -144.315201
v 41.027924 -10.863767 -97.222855
v 45.945892 -10.844864 -63.700882
v 45.945892 -17.579084 -58.797440
v 467.267578 0.000001 -147.069473
v 460.693939 -8.751798 -99.125198
v 469.107635 -8.732895 -64.832474
v 469.107635 -15.467115 -59.928421
v 246.118164 3.453716 -158.964478
v 22.589205 0.863667 -104.257889
v 35.807110 1.204926 -142.781815
v 462.330200 3.582191 -145.967484
v 478.336151 2.883642 -106.025101
v 470.356445 0.000000 -499.999390
v 29.643829 -0.000000 -499.999329
v 0.000000 0.030915 -316.580750
v 26.411934 0.030915 -307.358093
v 248.379150 -2.982914 -311.556458
v 473.657227 0.030915 -304.501526
v 500.000000 0.030915 -316.580750
v 247.923950 -2.982914 -499.999329
v 500.000977 0.000000 -441.389526
v 472.782227 0.009638 -451.818787
v 248.387573 -2.982914 -442.735657
v 30.654938 -0.921348 -454.489685
v 0.000732 0.000000 -441.389465
v 0.000000 -2.982914 -439.563538
v 33.939850 -2.982914 -446.246399
v 32.386383 -2.982914 -499.999329
v 0.000000 -2.982914 -319.323303
v 33.861763 -2.982914 -313.527405
v 467.613281 -2.982910 -499.999390
v 466.446655 -2.982914 -445.889709
v 500.000000 -2.982910 -439.563599
v 500.000000 -2.982914 -319.323303
v 466.125977 -2.982914 -313.402161
v 462.330200 -2.982914 -151.529922
v 35.807110 -2.982914 -148.638870
v 17.114571 0.030915 -314.522278
v 23.947090 -2.982914 -320.241150
v 25.319977 -2.982914 -439.421936
v 21.787262 -0.921348 -444.101379
v 490.119263 0.030915 -315.404602
v 481.233765 -2.982914 -321.728455
v 481.171143 -2.982914 -438.690491
v 483.656372 0.009638 -446.135956
v 248.237915 -2.982914 -318.359680
v 247.923950 -2.982914 -436.939758
v 30.747627 -2.982914 -320.143982
v 31.126984 -2.982914 -439.308655
v 471.961548 -2.982914 -321.503723
v 473.416016 -2.982914 -438.592957
vt 0.065277 0.211215
vt 0.102497 0.279316
vt 0.102497 0.279316
vt 0.102497 0.279316
vt 0.102497 0.279316
vt 0.102497 0.279316
vt 0.102497 0.279316
vt 0.102497 0.279316
vt 0.102497 0.279316
vt 0.102497 0.279316
vt 0.102497 0.279316
vt 0.065277 0.211215
vt 0.102497 0.279316
vt 0.102497 0.279316
vt 0.102497 0.279316
vt 0.102497 0.279316
vt 0.065277 0.211215
vt 0.102497 0.279316
vt 0.102497 0.279316
vt 0.102497 0.279316
vt 0.102183 0.307564
vt 0.102183 0.307564
vt 0.102183 0.307564
vt 0.102183 0.307564
vt 0.102183 0.307564
vt 0.065277 0.211215
vt 0.102183 0.307564
vt 0.166694 0.304261
vt 0.102183 0.307564
vt 0.166674 0.304260
vt 0.102183 0.307564
vt 0.102183 0.307564
vt 0.102183 0.307564
vt 0.102183 0.307564
vt 0.102183 0.307564
vt 0.102183 0.307564
vt 0.102183 0.307564
vt 0.102183 0.307564
vt 0.065277 0.211215
vt 0.166678 0.304208
vt 0.102497 0.279316
vt 0.102497 0.279316
vt 0.102497 0.279316
vt 0.102497 0.279316
vt 0.102497 0.279316
vt 0.102497 0.279316
vt 0.102497 0.279316
vt 0.065277 0.211215
vt 0.065277 0.211215
vt 0.102497 0.279316
vt 0.102183 0.307564
vt 0.065277 0.211215
vt 0.102497 0.279316
vt 0.102183 0.307564
vt 0.102183 0.307564
vt 0.102183 0.307564
vt 0.102183 0.307564
vt 0.102183 0.307564
vt 0.102183 0.307564
vt 0.102183 0.307564
vt 0.166683 0.304201
vt 0.102183 0.307564
vt 0.065277 0.211215
vt 0.102497 0.279316
vt 0.065277 0.211215
vt 0.102497 0.279316
vt 0.102497 0.279316
vt 0.102497 0.279316
vt 0.102497 0.279316
vt 0.102497 0.279316
vt 0.102497 0.279316
vt 0.102497 0.279316
vt 0.102497 0.279316
vt 0.102497 0.279316
vt 0.166698 0.304200
vt 0.102497 0.279316
vt 0.102183 0.307564
vt 0.102183 0.307564
vt 0.102183 0.307564
vt 0.102183 0.307564
vt 0.102183 0.307564
vt 0.102183 0.307564
vt 0.102183 0.307564
vt 0.102183 0.307564
vt 0.102183 0.307564
vt 0.102318 0.327655
vt 0.102183 0.307564
vt 0.102183 0.307564
vt 0.102183 0.307564
vt 0.102497 0.279316
vt 0.102183 0.307564
vt 0.166614 0.304256
vt 0.102183 0.307564
vt 0.102183 0.307564
vt 0.102183 0.307564
vt 0.102183 0.307564
vt 0.102183 0.307564
vt 0.102183 0.307564
vt 0.102183 0.307564
vt 0.166618 0.304195
vt 0.102183 0.307564
vt 0.102183 0.307564
vt 0.102183 0.307564
vt 0.102183 0.307564
vt 0.102183 0.307564
vt 0.102183 0.307564
vt 0.102183 0.307564
vt 0.166822 0.304025
vt 0.102183 0.307564
vt 0.102183 0.307564
vt 0.102183 0.307564
vt 0.102183 0.307564
vt 0.102183 0.307564
vt 0.102183 0.307564
vt 0.102183 0.307564
vt 0.167037 0.304036
vt 0.102183 0.307564
vt 0.102183 0.307564
vt 0.102183 0.307564
vt 0.102183 0.307564
vt 0.102183 0.307564
vt 0.102183 0.307564
vt 0.102183 0.307564
vt 0.102183 0.307564
vt 0.102183 0.307564
vt 0.102183 0.307564
vt 0.102183 0.307564
vt 0.102183 0.307564
vt 0.167037 0.304042
vt 0.166809 0.304043
vt 0.166635 0.304198
vt 0.166637 0.304205
vt 0.166634 0.304257
vt 0.166616 0.304226
vt 0.166631 0.304227
vt 0.166367 0.304267
vt 0.102318 0.327655
vt 0.166681 0.304230
vt 0.166145 0.304262
vt 0.166696 0.304230
vt 0.102318 0.327655
vt 0.166694 0.304252
vt 0.166676 0.304251
vt 0.166145 0.304257
vt 0.102318 0.327655
vt 0.166375 0.304257
vt 0.166633 0.304248
vt 0.166614 0.304247
vt 0.166373 0.303766
vt 0.166374 0.304044
vt 0.166356 0.304033
vt 0.166366 0.303765
vt 0.166813 0.303765
vt 0.166803 0.303767
vt 0.166815 0.304361
vt 0.166810 0.304362
vt 0.101973 0.328103
vt 0.102318 0.327655
vt 0.102318 0.327655
vt 0.101956 0.328103
vt 0.102318 0.327655
vt 0.102318 0.327655
vt 0.102318 0.327655
vt 0.101968 0.328031
vt 0.101957 0.328032
vt 0.102318 0.327655
vt 0.102318 0.327655
vt 0.102183 0.307564
vt 0.102183 0.307564
vt 0.102318 0.327655
vt 0.166809 0.304255
vt 0.166822 0.304265
vt 0.166373 0.304363
vt 0.166368 0.304362
vt 0.166144 0.304045
vt 0.166144 0.304039
vt 0.167038 0.304254
vt 0.167038 0.304258
vt 0.166334 0.304033
vt 0.166629 0.304227
vt 0.101957 0.328086
vt 0.166346 0.304044
vt 0.166354 0.304257
vt 0.101972 0.328086
vt 0.166348 0.304266
vt 0.166631 0.304248
vt 0.166853 0.304027
vt 0.166683 0.304230
vt 0.166838 0.304043
vt 0.101957 0.328048
vt 0.101969 0.328048
vt 0.166843 0.304255
vt 0.166845 0.304265
vt 0.166678 0.304251
vt 0.102566 0.303692
vt 0.102318 0.327655
vt 0.102566 0.303692
vt 0.102566 0.303692
vt 0.102318 0.327655
vt 0.102566 0.303692
vt 0.103188 0.305671
vt 0.102808 0.305650
vt 0.102807 0.305632
vt 0.103234 0.305650
vt 0.102417 0.305627
vt 0.102443 0.305649
vt 0.102821 0.305248
vt 0.102820 0.305269
vt 0.102416 0.305262
vt 0.102447 0.305242
vt 0.103245 0.305292
vt 0.103200 0.305265
vt 0.102318 0.327655
vt 0.102437 0.305262
vt 0.102435 0.305627
vt 0.102318 0.327655
vt 0.102318 0.327655
vt 0.103217 0.305291
vt 0.103210 0.305649
vt 0.102318 0.327655
vt 0.102566 0.303692
vt 0.102566 0.303692
vt 0.102566 0.303692
vt 0.102566 0.303692
vn -0.003919 0.851656 -0.524086
vn -0.003344 0.894414 -0.447228
vn -0.003344 0.894414 -0.447228
vn -0.003919 0.851656 -0.524086
vn 0.001753 0.999984 0.005299
vn 0.001753 0.999985 0.005299
vn 0.001753 0.999985 0.005299
vn 0.001753 0.999985 0.005299
vn -0.013711 0.878944 -0.476727
vn -0.013711 0.878944 -0.476727
vn -0.019630 0.813299 -0.581515
vn -0.075956 0.845057 0.529253
vn -0.075956 0.845058 0.529253
vn -0.075956 0.845058 0.529253
vn -0.075956 0.845057 0.529253
vn 0.040404 0.995567 -0.084932
vn 0.040404 0.995567 -0.084932
vn -0.004937 0.985757 -0.168103
vn -0.059707 0.954767 -0.291300
vn 0.035711 0.911476 -0.409801
vn 0.035711 0.911476 -0.409801
vn -0.003533 0.988055 -0.154061
vn -0.003533 0.988055 -0.154061
vn 0.000000 0.829135 -0.559049
vn 0.000000 0.829135 -0.559049
vn 0.000000 0.829135 -0.559049
vn 0.000000 0.829135 -0.559049
vn -0.015308 0.987190 -0.158814
vn -0.015308 0.987190 -0.158814
vn -0.015308 0.987190 -0.158814
vn -0.015308 0.987190 -0.158814
vn -0.088290 0.906141 -0.413658
vn -0.088290 0.906141 -0.413658
vn -0.088290 0.906141 -0.413658
vn -0.088290 0.906141 -0.413658
vn 0.219487 0.269819 0.937562
vn 0.219487 0.269819 0.937562
vn 0.219487 0.269819 0.937562
vn 0.219487 0.269819 0.937562
vn 0.000001 1.000000 0.000000
vn 0.000001 1.000000 0.000000
vn 0.000001 1.000000 0.000000
vn 0.000001 1.000000 0.000000
vn 0.365704 0.667869 -0.648237
vn 0.365704 0.667869 -0.648237
vn 0.365704 0.667869 -0.648237
vn -0.140171 0.963013 -0.230126
vn -0.140171 0.963013 -0.230126
vn -0.140171 0.963013 -0.230126
vn -0.140171 0.963013 -0.230126
vn 0.060825 0.841360 -0.537042
vn 0.060825 0.841360 -0.537042
vn 0.060825 0.841360 -0.537042
vn 0.060825 0.841360 -0.537042
vn 0.000000 1.000000 0.000000
vn 0.000000 1.000000 0.000000
vn 0.000000 1.000000 0.000000
vn 0.000000 1.000000 0.000000
vn -0.131633 0.309981 0.941586
vn -0.131633 0.309981 0.941586
vn -0.131633 0.309981 0.941586
vn -0.131633 0.309981 0.941586
vn 0.065198 0.960218 -0.271533
vn 0.065198 0.960218 -0.271533
vn 0.065198 0.960218 -0.271533
vn 0.003148 0.987535 -0.157369
vn 0.003148 0.987535 -0.157369
vn -0.028491 0.923105 -0.383492
vn -0.028491 0.923105 -0.383492
vn 0.003330 0.890905 -0.454177
vn 0.003900 0.846870 -0.531786
vn 0.003900 0.846870 -0.531786
vn 0.003330 0.890905 -0.454177
vn 0.008523 0.543122 -0.839610
vn 0.008523 0.543122 -0.839610
vn 0.008523 0.543122 -0.839610
vn -0.000001 1.000000 -0.000000
vn -0.000001 1.000000 -0.000000
vn -0.000001 1.000000 -0.000000
vn -0.000001 1.000000 -0.000000
vn -0.174051 0.272343 0.946327
vn -0.174051 0.272343 0.946327
vn -0.174051 0.272343 0.946327
vn -0.174051 0.272343 0.946327
vn 0.069470 0.907495 -0.414279
vn 0.069470 0.907495 -0.414279
vn 0.069470 0.907495 -0.414279
vn 0.069470 0.907495 -0.414279
vn 0.012045 0.987234 -0.158824
vn 0.012045 0.987234 -0.158824
vn 0.012045 0.987234 -0.158824
vn 0.012045 0.987234 -0.158824
vn 0.000127 0.829161 -0.559010
vn 0.000127 0.829161 -0.559010
vn 0.000127 0.829161 -0.559010
vn 0.000127 0.829161 -0.559010
vn 0.048182 0.801830 0.595606
vn 0.048182 0.801830 0.595606
vn 0.048182 0.801830 0.595606
vn 0.048182 0.801830 0.595606
vn -0.075288 0.644307 -0.761052
vn -0.075288 0.644307 -0.761052
vn -0.075288 0.644307 -0.761052
vn -0.075288 0.644307 -0.761052
vn 0.000000 1.000000 0.000000
vn 0.000000 1.000000 0.000000
vn 0.000000 1.000000 0.000000
vn 0.000000 1.000000 0.000000
vn 0.105224 0.310966 0.944578
vn 0.105224 0.310966 0.944578
vn 0.105224 0.310966 0.944578
vn 0.105224 0.310966 0.944578
vn -0.059707 0.954767 -0.291300
vn -0.059707 0.954767 -0.291300
vn -0.059707 0.954767 -0.291300
vn -0.000880 0.846726 -0.532028
vn -0.000880 0.846726 -0.532028
vn -0.000880 0.846726 -0.532028
vn -0.616458 0.781806 0.093593
vn -0.616458 0.781806 0.093593
vn -0.616458 0.781806 0.093593
vn -0.616458 0.781806 0.093593
vn -0.106090 0.418425 0.902034
vn -0.106090 0.418425 0.902034
vn -0.106090 0.418426 0.902034
vn -0.106090 0.418425 0.902034
vn -0.491034 0.862473 -0.122583
vn -0.491034 0.862473 -0.122583
vn -0.491034 0.862473 -0.122583
vn -0.491034 0.862473 -0.122583
vn 0.553838 0.829762 -0.068985
vn 0.553838 0.829762 -0.068985
vn 0.553838 0.829762 -0.068985
vn 0.553838 0.829762 -0.068985
vn 0.086633 0.419198 0.903752
vn 0.086633 0.419198 0.903752
vn 0.086633 0.419198 0.903752
vn 0.086633 0.419198 0.903752
vn 0.286225 0.619395 -0.731044
vn 0.005256 0.936044 -0.351843
vn 0.005256 0.936044 -0.351843
vn -0.001294 0.999981 0.005992
vn -0.001294 0.999981 0.005992
vn -0.001294 0.999981 0.005992
vn -0.001294 0.999981 0.005992
vn 0.058546 0.846061 0.529862
vn 0.058546 0.846061 0.529862
vn 0.058546 0.846061 0.529862
vn 0.058546 0.846061 0.529862
vn -0.349355 0.668053 -0.657005
vn -0.349355 0.668053 -0.657005
vn -0.349355 0.668053 -0.657005
vn 0.281745 0.959156 -0.025278
vn 0.281745 0.959156 -0.025278
vn 0.281745 0.959156 -0.025278
vn 0.281745 0.959156 -0.025278
vn 0.564811 0.816578 -0.119118
vn 0.564811 0.816578 -0.119118
vn 0.564811 0.816578 -0.119118
vn 0.486714 0.859359 0.156883
vn 0.486714 0.859359 0.156883
vn 0.486714 0.859359 0.156883
vn -0.000372 0.970206 0.242282
vn -0.000372 0.970206 0.242282
vn -0.000372 0.970206 0.242282
vn -0.000372 0.970206 0.242282
vn -0.002267 0.968238 0.250018
vn -0.002267 0.968238 0.250018
vn -0.002267 0.968238 0.250018
vn -0.002267 0.968238 0.250018
vn -0.527142 0.846101 0.078958
vn -0.527141 0.846101 0.078958
vn -0.527142 0.846101 0.078958
vn -0.598825 0.762254 -0.245719
vn -0.598825 0.762254 -0.245719
vn -0.598825 0.762254 -0.245719
vn -0.000036 1.000000 0.000148
vn -0.000036 1.000000 0.000148
vn -0.000036 1.000000 0.000148
vn 0.000000 1.000000 0.000000
vn 0.000000 1.000000 0.000000
vn 0.000557 1.000000 0.000173
vn 0.000000 1.000000 0.000000
vn 0.000000 1.000000 0.000000
vn 0.442139 0.896900 -0.009141
vn 0.442139 0.896900 -0.009141
vn 0.442139 0.896900 -0.009141
vn -0.003010 0.999984 0.004853
vn -0.002753 0.999986 -0.004539
vn -0.421719 0.906628 -0.013365
vn -0.421719 0.906628 -0.013365
vn -0.421719 0.906628 -0.013365
vn -0.000395 1.000000 0.000180
vn -0.000395 1.000000 0.000180
vn 0.006314 0.999971 -0.004170
vn 0.000039 1.000000 0.000150
vn 0.000039 1.000000 0.000150
vn 0.000039 1.000000 0.000150
vn -0.006527 0.999936 -0.009275
vn -0.006527 0.999936 -0.009275
vn 0.000202 1.000000 -0.000127
vn 0.000202 1.000000 -0.000127
vn 0.000202 1.000000 -0.000127
vn 0.006852 0.999933 -0.009354
vn 0.000202 1.000000 -0.000127
vn -0.546737 0.837278 0.006651
vn -0.546737 0.837278 0.006651
vn -0.546737 0.837278 0.006651
vn -0.546737 0.837278 0.006651
vn 0.649563 0.760246 -0.009726
vn 0.649563 0.760246 -0.009726
vn 0.649563 0.760246 -0.009726
vn 0.649563 0.760246 -0.009726
vn 0.000000 1.000000 0.000000
vn 0.018983 0.999764 0.010595
vn 0.018983 0.999764 0.010595
vn 0.018983 0.999764 0.010595
vn 0.018983 0.999764 0.010595
vn 0.000000 1.000000 0.000000
vn 0.000000 1.000000 0.000000
vn 0.000000 1.000000 0.000000
vn 0.000000 1.000000 0.000000
vn 0.000000 1.000000 0.000000
vn -0.000000 1.000000 0.000000
vn -0.000000 1.000000 0.000000
vn 0.000000 1.000000 0.000000
vn 0.015878 0.820383 -0.571594
vn 0.015878 0.820383 -0.571594
vn 0.015878 0.820383 -0.571594
vn 0.015878 0.820383 -0.571594
vn -0.000000 1.000000 0.000000
vn -0.000000 1.000000 0.000000
vn -0.000000 1.000000 0.000000
vn -0.000000 1.000000 0.000000
vn -0.158256 0.935980 0.314479
vn -0.158256 0.935980 0.314479
vn -0.158256 0.935980 0.314479
vn -0.158256 0.935980 0.314479
vn -0.000000 1.000000 0.000000
vn -0.000000 1.000000 0.000000
vn 0.000000 1.000000 -0.000000
vn 0.000000 1.000000 -0.000000
vn 0.000000 1.000000 0.000000
vn 0.000000 1.000000 -0.000000
vn 0.000000 1.000000 -0.000000
vn -0.002753 0.999986 -0.004539
vn 0.005256 0.936044 -0.351843
vn 0.005256 0.936044 -0.351843
vn 0.005256 0.936044 -0.351843
vn 0.045408 0.679625 -0.732153
vn -0.055215 0.753917 -0.654645
vn -0.013711 0.878944 -0.476727
vn -0.013711 0.878944 -0.476727
vn -0.013711 0.878944 -0.476727
vn -0.002753 0.999986 -0.004539
vn 0.000000 1.000000 -0.000000
vn 0.000000 1.000000 0.000000
vn 0.000000 1.000000 0.000000
vn 0.000000 1.000000 0.000000
vn 0.000000 1.000000 0.000000
vn 0.000000 1.000000 0.000000
vn 0.185938 0.948246 -0.257405
vn 0.185938 0.948246 -0.257405
vn 0.185938 0.948246 -0.257405
vn 0.185938 0.948246 -0.257405
vn 0.198279 0.959221 0.201444
vn 0.198279 0.959221 0.201444
vn 0.198279 0.959221 0.201444
vn 0.198279 0.959221 0.201444
vn 0.024453 0.821290 -0.569987
vn 0.024453 0.821290 -0.569987
vn 0.024453 0.821290 -0.569987
vn 0.024453 0.821290 -0.569987
vn -0.000000 1.000000 0.000000
vn -0.000000 1.000000 0.000000
vn -0.000000 1.000000 0.000000
vn -0.000000 1.000000 0.000000
vn -0.058107 0.846152 0.529765
vn -0.058107 0.846152 0.529765
vn -0.058107 0.846152 0.529765
vn -0.058107 0.846152 0.529765
vn 0.000000 1.000000 0.000000
vn 0.000000 1.000000 0.000000
vn 0.000000 1.000000 0.000000
vn 0.000000 1.000000 -0.000000
vn 0.000000 1.000000 -0.000000
vn 0.000000 1.000000 -0.000000
vn 0.000000 1.000000 -0.000000
vn 0.000000 1.000000 0.000000
vn 0.000000 1.000000 0.000000
vn 0.000000 1.000000 0.000000
vn 0.000000 1.000000 0.000000
vn 0.000000 1.000000 0.000000
vn 0.000000 1.000000 0.000000
vn 0.000000 1.000000 0.000000
vn 0.000000 1.000000 0.000000
vn 0.000000 1.000000 -0.000000
vn 0.000000 1.000000 -0.000000
vn 0.000000 1.000000 0.000000
vn 0.000000 1.000000 0.000000
vn 0.000000 1.000000 0.000000
vn 0.000000 1.000000 0.000000
vn 0.000000 1.000000 0.000000
vn 0.000000 1.000000 0.000000
vn 0.000000 1.000000 0.000000
vn 0.000000 1.000000 0.000000
vn 0.000000 1.000000 -0.000000
vn -0.000000 1.000000 0.000000
vn 0.000000 1.000000 0.000000
vn 0.000000 1.000000 0.000000
vn 0.000000 1.000000 0.000000
vn 0.000000 1.000000 -0.000000
vn 0.000000 1.000000 -0.000000
vn 0.000000 1.000000 -0.000000
vn 0.000000 1.000000 -0.000000
vn 0.000000 1.000000 0.000000
vn 0.000000 1.000000 0.000000
vn 0.000000 1.000000 0.000000
vn -0.059707 0.954767 -0.291300
vn -0.059707 0.954767 -0.291300
vn -0.004937 0.985757 -0.168103
vn 0.065198 0.960218 -0.271533
vn 0.004387 0.986371 -0.164478
vn 0.004387 0.986371 -0.164478
vn 0.065198 0.960218 -0.271533
vn -0.036572 0.993348 -0.109188
vn -0.036572 0.993348 -0.109188
vn -0.036572 0.993348 -0.109188
s off
f 35/26/1 17/1/2 18/12/3 34/17/4
f 45/109/5 46/112/6 21/81/7 22/78/8
f 44/107/9 54/126/10 81/169/11
f 46/111/12 47/114/13 20/83/14 21/80/15
f 19/27/16 20/82/17 47/113/18 33/54/19
f 18/84/20 19/27/21 33/54/22 34/51/23
f 1/39/24 13/48/25 28/49/26 29/52/27
f 27/68/28 28/64/29 13/66/30 16/20/31
f 26/70/32 27/67/33 16/76/34 9/2/35
f 25/72/36 26/69/37 9/11/38 5/6/39
f 24/74/40 25/71/41 5/14/42 7/7/43
f 11/9/44 24/73/45 7/15/46
f 62/108/47 86/187/48 87/189/49 79/130/50
f 40/99/51 41/102/52 24/32/53 11/29/54
f 41/101/55 42/104/56 25/34/57 24/31/58
f 42/103/59 43/106/60 26/36/61 25/33/62
f 43/105/63 27/37/64 26/35/65
f 28/38/66 27/37/67 19/85/68 18/21/69
f 17/1/70 29/52/71 28/49/72 18/12/73
f 8/8/74 30/42/75 12/10/76
f 6/5/77 31/44/78 30/41/79 8/16/80
f 10/3/81 32/46/82 31/43/83 6/13/84
f 15/19/85 33/53/86 32/45/87 10/4/88
f 14/18/89 34/50/90 33/47/91 15/90/92
f 35/26/93 34/17/94 14/63/95 3/65/96
f 84/183/97 85/185/98 69/139/99 70/144/100
f 12/62/101 30/59/102 37/94/103 36/91/104
f 30/60/105 31/57/106 38/96/107 37/93/108
f 31/58/109 32/55/110 39/98/111 38/95/112
f 32/56/113 33/54/114 39/97/115
f 40/99/116 56/128/117 41/102/118
f 49/117/119 50/120/120 42/104/121 41/101/122
f 50/119/123 51/122/124 43/106/125 42/103/126
f 36/91/127 53/125/128 54/126/129 44/107/130
f 37/93/131 38/96/132 46/112/133 45/109/134
f 38/95/135 39/98/136 47/114/137 46/111/138
f 80/168/139 55/127/140 48/115/141
f 22/24/142 21/88/143 50/120/144 49/117/145
f 21/23/146 20/89/147 51/122/148 50/119/149
f 36/91/150 37/94/151 53/125/152
f 48/115/153 55/127/154 56/128/155 40/99/156
f 53/125/157 37/94/158 45/110/159
f 54/126/160 53/125/161 45/110/162
f 52/123/163 54/126/164 45/110/165 22/79/166
f 55/127/167 52/124/168 22/87/169 49/118/170
f 56/128/171 55/127/172 49/118/173
f 41/102/174 56/128/175 49/118/176
f 60/135/177 82/180/178 59/134/179 12/100/180 36/131/181
f 60/135/182 36/131/183 44/132/184
f 81/149/185 74/150/186 60/151/187 44/152/188
f 48/153/189 62/108/190 79/130/191 80/154/192
f 62/138/193 48/40/194 40/61/195
f 63/140/196 86/188/197 62/138/198 40/61/199 11/75/200
f 66/143/201 89/194/202 65/142/203 2/28/204 57/30/205
f 57/155/206 75/156/207 76/171/208 66/172/209
f 68/136/210 71/146/211 72/173/212 58/174/213
f 4/92/214 69/148/215 85/186/216 68/147/217 58/133/218
f 83/181/219 84/184/220 70/157/221 73/160/222
f 71/158/223 67/145/224 64/141/225 72/159/226
f 82/179/227 83/182/228 73/175/229 59/176/230
f 76/163/231 75/162/232 64/141/233 67/145/234
f 76/171/235 88/192/236 89/193/237 66/172/238
f 76/201/239 67/202/240 91/203/241 95/219/242
f 80/167/243 79/166/244 61/137/245 23/86/246
f 23/25/247 52/124/248 55/127/249 80/168/250
f 81/169/251 54/126/252 52/123/253 23/77/254
f 23/86/255 61/137/256 74/161/257 81/170/258
f 84/205/259 93/215/260 71/206/261
f 74/150/262 83/182/263 82/179/264 60/151/265
f 68/136/266 85/185/267 84/183/268 71/146/269
f 87/189/270 86/187/271 63/116/272 78/129/273
f 88/191/274 87/190/275 78/165/276 77/164/277
f 89/193/278 88/192/279 77/177/280 65/178/281
f 74/210/282 92/214/283 83/209/284
f 79/212/285 94/218/286 90/208/287 61/207/288
f 83/195/289 92/197/290 93/198/291 84/200/292
f 94/217/293 95/220/294 91/199/295 90/196/296
f 61/207/297 90/208/298 92/214/299 74/210/300
f 93/216/301 92/213/302 90/196/303 91/199/304
f 71/206/305 93/215/306 91/203/307 67/202/308
f 87/211/309 94/218/310 79/212/311
f 88/221/312 95/222/313 94/223/314 87/224/315
f 76/201/316 95/219/317 88/204/318
f 39/97/319 33/54/320 47/113/321
f 27/37/322 43/105/323 51/121/324
f 27/37/325 51/121/326 20/22/327 19/85/328
