# This file uses meters as units for non-parametric coordinates.

v 14.364319 0.000000 3.668152
v 18.529968 0.000000 4.005249
v 15.620728 10.109510 4.604279
v 19.738831 7.070870 4.736298
v 16.092590 10.652992 -0.101990
v 20.210815 7.614345 0.030029
v 14.701477 0.000000 -0.497406
v 18.867188 0.000000 -0.160400
v 22.921082 17.540003 5.208069
v 13.207520 0.000000 1.808533
v 9.545776 0.000000 -1.291107
v 18.171631 22.961994 7.620117
v 15.591431 25.521931 5.178040
v 14.584717 19.887194 8.069550
v 12.185669 23.595188 7.736023
v 10.107605 0.000000 5.470398
v 6.445862 0.000000 2.370667
v 20.217224 31.612249 18.232269
v 11.470642 12.006287 5.691895
v 7.998657 14.852692 3.542358
v 11.285339 15.612840 -0.516479
v 14.921143 14.295151 2.769867
v 1.388794 0.000000 9.083038
v 2.713379 0.000000 12.790314
v 1.071716 8.421992 10.524506
v 2.554077 5.890574 14.111572
v 5.295532 8.874754 9.106171
v 6.777832 6.343329 12.693237
v 5.096008 0.000000 7.758362
v 6.420654 0.000000 11.465790
v 3.381958 14.612160 17.026642
v 1.109070 0.000000 2.957855
v -3.681152 0.000000 2.687469
v -2.301819 16.571926 3.290405
v -5.947449 14.622614 3.491241
v -1.849182 15.683578 7.147888
v -5.494629 13.734275 7.348907
v 0.838623 0.000000 7.748138
v -3.951416 0.000000 7.477692
v -9.557495 27.494698 8.175995
v -12.158813 0.000000 3.117462
v -12.645447 0.000000 -1.655548
v -12.302002 10.236644 5.763794
v -12.846191 12.557611 0.780365
v -17.068481 7.164664 4.974426
v -18.516846 11.750985 1.782501
v -16.931885 0.000000 3.604156
v -17.418579 0.000000 -1.168793
v -15.744263 17.940256 11.169800
vt 0.166810 0.303526
vt 0.166810 0.303526
vt 0.166810 0.303526
vt 0.166810 0.303526
vt 0.166810 0.303526
vt 0.166810 0.303526
vt 0.166810 0.303526
vt 0.166810 0.303526
vt 0.166810 0.303526
vt 0.166810 0.303526
vt 0.166810 0.303526
vt 0.166810 0.303526
vt 0.166810 0.303526
vt 0.166810 0.303526
vt 0.166810 0.303526
vt 0.166810 0.303526
vt 0.166810 0.303526
vt 0.166810 0.303526
vt 0.166810 0.303526
vt 0.166810 0.303526
vt 0.166810 0.303526
vt 0.166810 0.303526
vt 0.166810 0.303526
vt 0.166810 0.303526
vt 0.166810 0.303526
vt 0.166810 0.303526
vt 0.166810 0.303526
vt 0.166810 0.303526
vt 0.166810 0.303526
vt 0.166810 0.303526
vt 0.166810 0.303526
vt 0.166810 0.303526
vt 0.166810 0.303526
vt 0.166810 0.303526
vt 0.166810 0.303526
vt 0.166810 0.303526
vt 0.166810 0.303526
vt 0.166810 0.303526
vt 0.166810 0.303526
vt 0.166810 0.303526
vt 0.166810 0.303526
vt 0.166810 0.303526
vt 0.166810 0.303526
vt 0.166810 0.303526
vt 0.166810 0.303526
vt 0.166810 0.303526
vt 0.166810 0.303526
vt 0.166810 0.303526
vt 0.166810 0.303526
vt 0.166810 0.303526
vt 0.166810 0.303526
vt 0.166810 0.303526
vt 0.166810 0.303526
vt 0.166810 0.303526
vt 0.166810 0.303526
vt 0.166810 0.303526
vt 0.166810 0.303526
vt 0.166810 0.303526
vt 0.166810 0.303526
vt 0.166810 0.303526
vt 0.166810 0.303526
vt 0.166810 0.303526
vt 0.166810 0.303526
vt 0.166810 0.303526
vt 0.166810 0.303526
vt 0.166810 0.303526
vt 0.166810 0.303526
vt 0.166810 0.303526
vt 0.166810 0.303526
vt 0.166810 0.303526
vt 0.166810 0.303526
vn -0.086973 -0.083849 0.992676
vn -0.086973 -0.083849 0.992676
vn -0.086973 -0.083849 0.992676
vn -0.086973 -0.083849 0.992676
vn 0.064671 0.022314 -0.997657
vn 0.064671 0.022314 -0.997657
vn 0.064671 0.022314 -0.997657
vn 0.064671 0.022314 -0.997657
vn 0.981323 -0.175509 0.078755
vn 0.981323 -0.175509 0.078755
vn 0.981323 -0.175509 0.078755
vn 0.981323 -0.175509 0.078755
vn -0.987949 0.131240 -0.082051
vn -0.987949 0.131240 -0.082051
vn -0.987949 0.131240 -0.082051
vn -0.987949 0.131240 -0.082051
vn -0.053247 -0.028795 0.998166
vn -0.053247 -0.028795 0.998166
vn -0.053247 -0.028795 0.998166
vn 0.954163 -0.292821 0.061877
vn 0.954163 -0.292821 0.061877
vn 0.954163 -0.292821 0.061877
vn 0.304074 0.374041 -0.876146
vn 0.304074 0.374041 -0.876146
vn 0.304074 0.374041 -0.876146
vn -0.713674 0.700416 0.009330
vn -0.713674 0.700416 0.009330
vn -0.713674 0.700416 0.009330
vn 0.654951 -0.031798 -0.755002
vn 0.654951 -0.031798 -0.755002
vn 0.677360 0.020539 -0.735364
vn 0.680828 0.029184 -0.731861
vn -0.560329 -0.023919 0.827925
vn -0.544473 -0.049790 0.837299
vn -0.586895 0.021731 0.809371
vn -0.586895 0.021731 0.809371
vn -0.770588 0.123225 -0.625308
vn -0.770588 0.123224 -0.625308
vn -0.758077 0.299083 -0.579542
vn -0.754008 0.324755 -0.570969
vn 0.723930 -0.115272 0.680175
vn 0.723930 -0.115272 0.680175
vn 0.702129 -0.320334 0.635925
vn 0.718272 -0.206766 0.664329
vn 0.805692 0.373490 -0.459746
vn 0.805692 0.373490 -0.459746
vn 0.805692 0.373490 -0.459746
vn -0.577889 0.798671 -0.167836
vn -0.577889 0.798671 -0.167836
vn -0.577889 0.798671 -0.167836
vn -0.610698 -0.330388 0.719647
vn -0.610698 -0.330388 0.719647
vn -0.610698 -0.330388 0.719647
vn 0.620349 -0.662245 0.420236
vn 0.620349 -0.662245 0.420236
vn 0.620349 -0.662245 0.420236
vn -0.497988 -0.120744 0.858737
vn -0.497988 -0.120744 0.858737
vn -0.544473 -0.049790 0.837299
vn -0.560329 -0.023919 0.827925
vn -0.754008 0.324755 -0.570969
vn -0.758077 0.299083 -0.579542
vn -0.685467 0.559284 -0.466193
vn -0.685467 0.559284 -0.466193
vn 0.680828 0.029184 -0.731861
vn 0.677360 0.020539 -0.735364
vn 0.709098 0.107155 -0.696920
vn 0.709099 0.107155 -0.696920
vn 0.718272 -0.206766 0.664329
vn 0.702129 -0.320334 0.635925
vn 0.653324 -0.499701 0.568741
vn 0.653324 -0.499701 0.568741
vn -0.939665 -0.094728 0.328720
vn -0.939665 -0.094728 0.328720
vn -0.939665 -0.094728 0.328720
vn -0.939665 -0.094728 0.328720
vn 0.935893 0.025225 -0.351381
vn 0.935893 0.025225 -0.351381
vn 0.935893 0.025225 -0.351381
vn 0.935893 0.025225 -0.351381
vn 0.330456 -0.197614 0.922902
vn 0.330456 -0.197614 0.922902
vn 0.330456 -0.197614 0.922902
vn 0.330456 -0.197614 0.922902
vn -0.330797 0.148049 -0.932017
vn -0.330797 0.148049 -0.932016
vn -0.330797 0.148049 -0.932016
vn -0.330797 0.148049 -0.932016
vn -0.931606 -0.032565 0.362007
vn -0.931606 -0.032565 0.362007
vn -0.931607 -0.032565 0.362007
vn 0.332141 -0.327212 0.884655
vn 0.332141 -0.327212 0.884655
vn 0.332141 -0.327212 0.884655
vn 0.906180 0.414938 -0.081640
vn 0.906180 0.414938 -0.081640
vn 0.906180 0.414938 -0.081640
vn -0.283305 0.742854 -0.606553
vn -0.283305 0.742854 -0.606553
vn -0.283305 0.742854 -0.606553
vn -0.000166 0.036373 -0.999338
vn -0.000166 0.036373 -0.999338
vn -0.000166 0.036373 -0.999338
vn -0.000166 0.036373 -0.999338
vn -0.013503 0.022831 0.999648
vn -0.013503 0.022831 0.999648
vn -0.013503 0.022831 0.999648
vn -0.013503 0.022831 0.999648
vn -0.991048 -0.133311 0.007227
vn -0.991048 -0.133311 0.007227
vn -0.991048 -0.133311 0.007227
vn -0.991048 -0.133311 0.007227
vn 0.982592 0.185770 -0.001618
vn 0.982592 0.185770 -0.001618
vn 0.982592 0.185770 -0.001618
vn 0.982592 0.185770 -0.001618
vn -0.203452 0.283960 -0.937003
vn -0.203452 0.283960 -0.937003
vn -0.203452 0.283960 -0.937003
vn -0.957261 -0.285441 0.046634
vn -0.957261 -0.285441 0.046634
vn -0.957261 -0.285441 0.046634
vn 0.075115 -0.037715 0.996461
vn 0.075115 -0.037715 0.996461
vn 0.075115 -0.037715 0.996461
vn 0.838205 0.544682 0.027081
vn 0.838205 0.544682 0.027081
vn 0.838205 0.544682 0.027081
vn 0.994672 0.036504 -0.096409
vn 0.994672 0.036504 -0.096409
vn 0.994672 0.036504 -0.096409
vn 0.994672 0.036504 -0.096409
vn -0.978545 -0.104455 0.177590
vn -0.978545 -0.104455 0.177590
vn -0.978545 -0.104455 0.177590
vn -0.978545 -0.104455 0.177590
vn -0.153682 0.205962 -0.966417
vn -0.153682 0.205962 -0.966417
vn -0.153682 0.205962 -0.966417
vn -0.153682 0.205962 -0.966417
vn 0.041268 -0.224087 0.973695
vn 0.041268 -0.224087 0.973695
vn 0.041268 -0.224087 0.973695
vn 0.041268 -0.224087 0.973695
vn 0.927994 0.366117 0.069178
vn 0.927994 0.366117 0.069178
vn 0.927994 0.366117 0.069178
vn -0.207499 0.843744 -0.495015
vn -0.207499 0.843744 -0.495015
vn -0.207499 0.843744 -0.495015
vn -0.942868 -0.071251 0.325458
vn -0.942868 -0.071251 0.325458
vn -0.942868 -0.071251 0.325458
vn 0.187285 -0.506812 0.841466
vn 0.187285 -0.506812 0.841466
vn 0.187285 -0.506812 0.841466
s off
f 1/1/1 2/2/2 4/3/3 3/4/4
f 5/5/5 6/6/6 8/7/7 7/8/8
f 2/2/9 8/9/10 6/10/11 4/3/12
f 7/11/13 1/1/14 3/4/15 5/12/16
f 3/4/17 4/3/18 9/13/19
f 4/3/20 6/6/21 9/13/22
f 6/6/23 5/5/24 9/13/25
f 5/5/26 3/4/27 9/13/28
f 10/14/29 11/15/30 21/16/31 22/17/32
f 19/18/33 20/19/34 17/20/35 16/21/36
f 11/15/37 17/22/38 20/23/39 21/16/40
f 16/24/41 10/14/42 22/17/43 19/25/44
f 12/26/45 13/27/46 18/28/47
f 13/27/48 15/29/49 18/28/50
f 15/29/51 14/30/52 18/28/53
f 14/30/54 12/26/55 18/28/56
f 14/30/57 15/29/58 20/19/59 19/18/60
f 21/16/61 20/23/62 15/31/63 13/27/64
f 22/17/65 21/16/66 13/27/67 12/26/68
f 19/25/69 22/17/70 12/26/71 14/32/72
f 23/33/73 24/34/74 26/35/75 25/36/76
f 27/37/77 28/38/78 30/39/79 29/40/80
f 24/34/81 30/41/82 28/42/83 26/35/84
f 29/43/85 23/33/86 25/36/87 27/44/88
f 25/36/89 26/35/90 31/45/91
f 26/35/92 28/38/93 31/45/94
f 28/38/95 27/37/96 31/45/97
f 27/37/98 25/36/99 31/45/100
f 32/46/101 33/47/102 35/48/103 34/49/104
f 36/50/105 37/51/106 39/52/107 38/53/108
f 33/47/109 39/54/110 37/55/111 35/48/112
f 38/56/113 32/46/114 34/49/115 36/57/116
f 34/49/117 35/48/118 40/58/119
f 35/48/120 37/51/121 40/58/122
f 37/51/123 36/50/124 40/58/125
f 36/50/126 34/49/127 40/58/128
f 41/59/129 42/60/130 44/61/131 43/62/132
f 45/63/133 46/64/134 48/65/135 47/66/136
f 42/60/137 48/67/138 46/68/139 44/61/140
f 47/69/141 41/59/142 43/62/143 45/70/144
f 43/62/145 44/61/146 49/71/147
f 44/61/148 46/64/149 49/71/150
f 46/64/151 45/63/152 49/71/153
f 45/63/154 43/62/155 49/71/156
