# This file uses meters as units for non-parametric coordinates.

v -0.000122 0.000000 -125.000000
v -0.000122 15.993290 -112.625549
v 0.000000 0.000000 0.000122
v 0.000000 15.993290 -12.374390
v -0.000122 16.785351 -62.500000
v 125.000000 0.000001 -99.869995
v 95.510315 16.438311 -96.185364
v 54.843689 19.060642 -65.568176
v 31.311462 19.210590 -38.374084
v 12.374390 15.993290 0.000122
v 86.692566 22.132652 -73.068115
v 114.190491 15.096729 -74.314880
v 125.000000 0.000000 0.000000
v 112.625610 15.993290 0.000000
v 62.500000 16.785351 0.000122
v 37.926941 18.884941 0.000000
v 87.073059 18.884941 0.000000
v 98.349609 19.431597 -45.189453
v 69.272583 18.331896 -31.472473
v 74.595703 12.671288 -111.303040
v 99.841003 0.000001 -127.070129
v 44.780212 9.826338 -112.382568
v 117.160034 0.000001 -119.360352
v 0.000000 18.884941 -37.926941
v 0.000000 18.884941 -87.073059
v 6.555176 15.400260 -7.162483
vt 0.038578 0.254350
vt 0.038577 0.254346
vt 0.038578 0.254348
vt 0.038577 0.254347
vt 0.038577 0.254347
vt 0.038577 0.254347
vt 0.038577 0.254347
vt 0.038577 0.254347
vt 0.038577 0.254347
vt 0.038577 0.254347
vt 0.038577 0.254348
vt 0.038577 0.254347
vt 0.038578 0.254350
vt 0.038577 0.254335
vt 0.038577 0.254331
vt 0.038577 0.254345
vt 0.038572 0.254346
vt 0.038568 0.254350
vt 0.038577 0.254330
vt 0.038578 0.254329
vt 0.038572 0.254335
vt 0.038577 0.254342
vt 0.038577 0.254339
vt 0.038572 0.254338
vt 0.038575 0.254340
vt 0.038575 0.254343
vt 0.038572 0.254343
vt 0.038577 0.254347
vt 0.038578 0.254348
vt 0.038577 0.254347
vt 0.038578 0.254348
vt 0.038577 0.254347
vt 0.038577 0.254347
vt 0.038577 0.254331
vt 0.038577 0.254347
vn -0.159960 0.942576 -0.293194
vn -0.159960 0.942576 -0.293194
vn -0.159960 0.942576 -0.293194
vn 0.088220 0.609557 -0.787818
vn 0.088220 0.609557 -0.787818
vn 0.088220 0.609557 -0.787818
vn -0.043838 0.998094 -0.043438
vn -0.043838 0.998094 -0.043438
vn -0.043838 0.998094 -0.043438
vn -0.011578 0.996303 -0.085127
vn -0.011578 0.996303 -0.085127
vn -0.011578 0.996303 -0.085127
vn -0.087256 0.980748 -0.174699
vn -0.087256 0.980748 -0.174699
vn -0.087256 0.980748 -0.174699
vn 0.351150 0.903837 -0.244484
vn 0.351150 0.903837 -0.244484
vn 0.351150 0.903837 -0.244484
vn 0.351150 0.903837 -0.244484
vn 0.790869 0.611915 0.009271
vn 0.790869 0.611915 0.009271
vn 0.790869 0.611915 0.009271
vn 0.813067 0.582170 0.000000
vn 0.813067 0.582170 0.000000
vn 0.813067 0.582170 0.000000
vn -0.112404 0.993273 0.027807
vn -0.112404 0.993274 0.027807
vn -0.112404 0.993274 0.027807
vn 0.056423 0.998258 0.017232
vn 0.056423 0.998258 0.017232
vn 0.056423 0.998258 0.017232
vn 0.056423 0.998258 0.017232
vn -0.085092 0.995902 0.030627
vn -0.085092 0.995902 0.030627
vn -0.085092 0.995902 0.030627
vn 0.112357 0.992861 0.040048
vn 0.112357 0.992861 0.040048
vn 0.112357 0.992861 0.040048
vn 0.247465 0.968849 -0.009606
vn 0.247465 0.968849 -0.009606
vn 0.247465 0.968849 -0.009606
vn 0.253076 0.967426 -0.006342
vn 0.253076 0.967426 -0.006342
vn 0.253076 0.967426 -0.006342
vn 0.125861 0.991098 0.043397
vn 0.125861 0.991098 0.043397
vn 0.125861 0.991098 0.043397
vn -0.082721 0.994983 0.056273
vn -0.082721 0.994983 0.056273
vn -0.082720 0.994983 0.056273
vn -0.109893 0.992938 0.044706
vn -0.109893 0.992938 0.044706
vn -0.109893 0.992938 0.044706
vn -0.043419 0.998267 0.039711
vn -0.043419 0.998267 0.039711
vn -0.043419 0.998267 0.039711
vn -0.059389 0.984799 -0.163230
vn -0.059389 0.984799 -0.163230
vn -0.059389 0.984799 -0.163230
vn 0.177796 0.878809 -0.442812
vn 0.177796 0.878809 -0.442812
vn 0.177796 0.878809 -0.442812
vn 0.177796 0.878809 -0.442812
vn 0.040875 0.992827 -0.112354
vn 0.040875 0.992827 -0.112353
vn 0.040875 0.992827 -0.112354
vn -0.012174 0.809393 -0.587141
vn -0.012174 0.809393 -0.587141
vn -0.012174 0.809393 -0.587141
vn 0.134270 0.966334 -0.219476
vn 0.134270 0.966334 -0.219476
vn 0.134270 0.966334 -0.219476
vn -0.046451 0.741007 -0.669888
vn -0.046451 0.741007 -0.669888
vn -0.046451 0.741007 -0.669888
vn 0.460691 0.867999 -0.185312
vn 0.460691 0.867999 -0.185312
vn 0.460691 0.867999 -0.185312
vn -0.680615 0.526608 0.509360
vn -0.680615 0.526608 0.509361
vn -0.680614 0.526608 0.509361
vn 0.000489 0.993658 0.112447
vn 0.000489 0.993658 0.112447
vn 0.000489 0.993658 0.112447
vn -0.036549 0.995704 0.085075
vn -0.036549 0.995704 0.085075
vn -0.036549 0.995704 0.085075
vn -0.009239 0.996831 0.079015
vn -0.009239 0.996831 0.079015
vn -0.009239 0.996831 0.079015
vn -0.497473 0.530849 0.686090
vn -0.497473 0.530849 0.686090
vn -0.497473 0.530849 0.686090
vn -0.306311 0.936386 0.171332
vn -0.306311 0.936386 0.171332
vn -0.306311 0.936386 0.171332
s off
f 7/4/1 8/5/2 11/10/3
f 2/2/4 22/30/5 1/1/6
f 8/5/7 5/6/8 9/7/9
f 5/6/10 24/32/11 9/7/12
f 22/30/13 8/5/14 20/28/15
f 6/3/16 7/4/17 11/12/18 12/11/19
f 14/16/20 13/13/21 12/17/22
f 12/17/23 13/13/24 6/18/25
f 9/21/26 10/15/27 16/14/28
f 8/24/29 9/21/30 16/14/31 15/23/32
f 17/22/33 19/25/34 15/23/35
f 18/26/36 17/22/37 14/16/38
f 12/17/39 11/27/40 18/26/41
f 12/17/42 18/26/43 14/16/44
f 11/27/45 17/22/46 18/26/47
f 11/27/48 8/24/49 19/25/50
f 11/27/51 19/25/52 17/22/53
f 15/23/54 19/25/55 8/24/56
f 20/28/57 8/5/58 7/4/59
f 21/29/60 20/28/61 7/4/62 23/31/63
f 2/2/64 25/33/65 8/5/66
f 1/1/67 22/30/68 21/29/69
f 2/2/70 8/5/71 22/30/72
f 21/29/73 22/30/74 20/28/75
f 23/31/76 7/4/77 6/3/78
f 3/20/79 10/15/80 26/34/81
f 26/35/82 24/32/83 4/9/84
f 8/5/85 25/33/86 5/6/87
f 9/7/88 24/32/89 10/8/90
f 3/20/91 26/34/92 4/19/93
f 10/8/94 24/32/95 26/35/96
