# This file uses meters as units for non-parametric coordinates.

v -0.000488 -2.982914 -500.000885
v 500.000000 0.000000 0.000732
v 0.000488 0.000000 0.000000
v 247.923828 -2.982914 0.000732
v 248.666016 -2.982914 -500.000122
v 125.000000 0.000000 0.000732
v 127.742188 -2.982914 0.000732
v 127.742188 -2.982914 -500.000122
v 372.100098 -2.982914 0.000732
v 372.100098 -2.982914 -500.000122
v 378.012207 0.000000 -500.000122
v 375.000000 0.000000 0.000732
v 500.000000 -0.066345 -500.000122
v 379.817383 -1.783386 -378.855103
v 372.100098 -2.982914 -372.977539
v 248.480469 -2.982914 -372.977539
v 127.742188 -2.982914 -372.977539
v 114.958496 -0.528259 -374.217377
v 0.000000 0.000000 -375.000122
v 500.000000 0.000000 -249.999634
v 375.690430 1.085693 -250.672485
v 369.366699 -2.982914 -249.999634
v 248.294922 -2.982914 -249.999634
v 123.826660 -2.982914 -249.999634
v 109.968750 0.000000 -249.980042
v 0.000000 0.000000 -250.000000
v 500.000000 0.000000 -124.999512
v 387.299805 -1.329712 -121.748962
v 374.024902 -2.982914 -123.554810
v 248.109375 -2.982914 -123.554810
v 127.742188 -2.982914 -123.554810
v 118.729492 -1.656799 -128.105591
v 0.000000 0.000000 -125.000000
v 373.835938 -2.982914 -128.635742
v 248.119629 -2.982914 -130.468140
v 127.503906 -2.982914 -131.169556
v 372.100098 -2.982914 -378.582397
v 248.488770 -2.982914 -378.607056
v 127.742188 -2.982914 -379.900513
v 120.397949 -2.982914 -500.000488
v 120.397949 -2.982914 -381.617584
v -0.000488 -2.982914 -380.637360
vt 0.103823 0.327910
vt 0.166646 0.302939
vt 0.102018 0.328057
vt 0.166646 0.302939
vt 0.103697 0.329862
vt 0.103103 0.329845
vt 0.103225 0.327894
vt 0.166646 0.302939
vt 0.166646 0.302939
vt 0.102417 0.303604
vt 0.166646 0.302939
vt 0.166494 0.303249
vt 0.166494 0.303249
vt 0.166646 0.302939
vt 0.102520 0.329812
vt 0.102646 0.327861
vt 0.166646 0.302939
vt 0.166646 0.302939
vt 0.103729 0.329374
vt 0.166646 0.302939
vt 0.103133 0.329357
vt 0.166646 0.302939
vt 0.102552 0.329325
vt 0.166646 0.302939
vt 0.166646 0.302939
vt 0.166646 0.302939
vt 0.166646 0.302939
vt 0.103760 0.328886
vt 0.166646 0.302939
vt 0.103164 0.328870
vt 0.166646 0.302939
vt 0.102583 0.328837
vt 0.166646 0.302939
vt 0.166646 0.302939
vt 0.166646 0.302939
vt 0.166646 0.302939
vt 0.103792 0.328398
vt 0.166646 0.302939
vt 0.103195 0.328382
vt 0.166646 0.302939
vt 0.102615 0.328349
vt 0.166646 0.302939
vt 0.166646 0.302939
vt 0.103790 0.328418
vt 0.166646 0.302939
vt 0.103193 0.328409
vt 0.166646 0.302939
vt 0.102613 0.328379
vt 0.103727 0.329396
vt 0.166646 0.302939
vt 0.103132 0.329379
vt 0.166646 0.302939
vt 0.102550 0.329352
vt 0.101923 0.303283
vt 0.101922 0.303296
vt 0.101922 0.303296
vt 0.101922 0.303283
vt 0.101922 0.303270
vt 0.101923 0.303270
vt 0.101949 0.303283
vt 0.101949 0.303296
vt 0.101948 0.303296
vt 0.101948 0.303283
vt 0.101948 0.303270
vt 0.101949 0.303270
vt 0.166646 0.302939
vt 0.166494 0.303249
vt 0.166494 0.303249
vt 0.102417 0.303604
vt 0.166646 0.302939
vt 0.166646 0.302939
vt 0.102018 0.328057
vt 0.102018 0.328057
vt 0.102018 0.328057
vt 0.102417 0.303604
vt 0.102417 0.303604
vn 0.006712 0.999955 -0.006712
vn 0.006712 0.999955 -0.006712
vn 0.006712 0.999955 -0.006712
vn 0.006712 0.999955 -0.006712
vn 0.000000 1.000000 0.000000
vn 0.000000 1.000000 0.000000
vn 0.000000 1.000000 0.000000
vn 0.000000 1.000000 0.000000
vn 0.000000 1.000000 0.000000
vn 0.000000 1.000000 0.000000
vn 0.000000 1.000000 0.000000
vn 0.000000 1.000000 0.000000
vn 0.349209 0.936927 -0.014869
vn 0.349209 0.936927 -0.014869
vn 0.349209 0.936927 -0.014869
vn 0.349209 0.936927 -0.014869
vn -0.005671 0.999968 -0.005671
vn -0.005671 0.999968 -0.005671
vn -0.005671 0.999968 -0.005671
vn -0.005671 0.999968 -0.005671
vn -0.273296 0.961699 -0.021061
vn -0.273296 0.961699 -0.021061
vn -0.273296 0.961699 -0.021061
vn -0.273296 0.961699 -0.021061
vn 0.000544 0.999892 0.014711
vn 0.000544 0.999892 0.014711
vn 0.000544 0.999892 0.014711
vn 0.000000 1.000000 0.000000
vn 0.000000 1.000000 -0.000000
vn 0.000000 1.000000 -0.000000
vn 0.000000 1.000000 0.000000
vn 0.000000 1.000000 0.000000
vn 0.000000 1.000000 0.000000
vn 0.000000 1.000000 0.000000
vn 0.000000 1.000000 0.000000
vn 0.188570 0.982060 0.000000
vn 0.188570 0.982060 0.000000
vn 0.188570 0.982060 0.000000
vn 0.007246 0.883862 -0.467692
vn 0.007246 0.883862 -0.467692
vn 0.007246 0.883862 -0.467692
vn -0.006441 0.999949 -0.007832
vn -0.006441 0.999949 -0.007832
vn -0.006441 0.999949 -0.007832
vn -0.006441 0.999949 -0.007832
vn -0.359572 0.932893 -0.020478
vn -0.359572 0.932893 -0.020478
vn -0.359572 0.932893 -0.020478
vn -0.359572 0.932893 -0.020478
vn 0.000000 1.000000 -0.000000
vn 0.000000 1.000000 0.000000
vn 0.000000 1.000000 0.000000
vn 0.000000 1.000000 -0.000000
vn 0.000000 1.000000 -0.000000
vn 0.000000 1.000000 -0.000000
vn 0.000000 1.000000 -0.000000
vn 0.000000 1.000000 -0.000000
vn 0.199751 0.979833 0.005102
vn 0.199751 0.979833 0.005102
vn 0.199751 0.979833 0.005102
vn 0.199751 0.979833 0.005102
vn 0.002356 0.999995 -0.002072
vn 0.002356 0.999995 -0.002072
vn 0.002356 0.999995 -0.002072
vn 0.002356 0.999995 -0.002072
vn -0.000926 0.999954 0.009554
vn -0.000926 0.999954 0.009554
vn -0.000926 0.999954 0.009554
vn -0.000926 0.999954 0.009554
vn -0.285662 0.957933 0.027596
vn -0.285662 0.957933 0.027596
vn -0.285662 0.957933 0.027596
vn -0.285662 0.957933 0.027596
vn 0.000000 1.000000 0.000000
vn 0.000000 1.000000 -0.000000
vn 0.000000 1.000000 -0.000000
vn 0.000000 1.000000 0.000000
vn 0.000000 1.000000 0.000000
vn 0.000000 1.000000 0.000000
vn 0.000000 1.000000 0.000000
vn 0.000000 1.000000 0.000000
vn 0.147856 0.988998 -0.004627
vn 0.147856 0.988998 -0.004627
vn 0.147856 0.988998 -0.004627
vn 0.007331 0.999952 0.006451
vn 0.007331 0.999952 0.006451
vn 0.007331 0.999952 0.006451
vn 0.007331 0.999952 0.006451
vn 0.000000 1.000000 0.000000
vn 0.000000 1.000000 0.000000
vn 0.000000 1.000000 0.000000
vn 0.000000 1.000000 0.000000
vn 0.000000 1.000000 0.000000
vn 0.000000 1.000000 0.000000
vn 0.000000 1.000000 0.000000
vn 0.000000 1.000000 0.000000
vn 0.000000 1.000000 0.000000
vn 0.000000 1.000000 0.000000
vn 0.000000 1.000000 0.000000
vn 0.000000 1.000000 0.000000
vn 0.000000 1.000000 0.000000
vn 0.000000 1.000000 0.000000
vn 0.000000 1.000000 0.000000
vn 0.000000 1.000000 0.000000
vn 0.186653 0.982422 -0.002883
vn 0.186653 0.982422 -0.002883
vn 0.186653 0.982422 -0.002883
vn 0.186653 0.982422 -0.002883
vn -0.124198 0.992247 0.004619
vn -0.124198 0.992247 0.004619
vn -0.124198 0.992247 0.004619
vn -0.153588 0.988135 0.000000
vn -0.153588 0.988135 0.000000
vn -0.153588 0.988135 0.000000
vn -0.002577 0.948576 -0.316538
vn -0.002577 0.948576 -0.316538
vn -0.002577 0.948576 -0.316538
vn -0.293186 0.956011 0.009211
vn -0.293186 0.956011 0.009211
vn -0.293186 0.956011 0.009211
vn -0.293186 0.956011 0.009211
vn 0.063546 0.960252 -0.271806
vn 0.063546 0.960252 -0.271806
vn 0.063546 0.960252 -0.271806
vn 0.000000 1.000000 0.000000
vn 0.000000 1.000000 0.000000
vn 0.000000 1.000000 0.000000
vn 0.000000 1.000000 0.000000
vn 0.000000 1.000000 0.000000
vn 0.000000 1.000000 0.000000
vn 0.000000 1.000000 0.000000
vn 0.000000 1.000000 0.000000
s off
f 33/43/1 3/4/2 6/8/3 32/42/4
f 9/1/5 29/37/6 30/39/7 4/7/8
f 31/41/9 7/16/10 4/7/11 30/39/12
f 32/42/13 6/8/14 7/9/15 31/40/16
f 2/2/17 27/35/18 28/36/19 12/14/20
f 12/14/21 28/36/22 29/38/23 9/11/24
f 13/17/25 11/66/26 14/18/27
f 16/54/28 15/55/29 37/56/30 38/57/31
f 38/57/32 39/58/33 17/59/34 16/54/35
f 39/52/36 18/24/37 17/22/38
f 42/71/39 19/25/40 18/24/41
f 20/26/42 13/17/43 14/18/44 21/27/45
f 22/29/46 21/27/47 14/18/48 15/20/49
f 23/30/50 22/28/51 15/19/52 16/21/53
f 17/23/54 24/32/55 23/30/56 16/21/57
f 18/24/58 25/33/59 24/31/60 17/22/61
f 19/25/62 26/34/63 25/33/64 18/24/65
f 27/35/66 20/26/67 21/27/68 28/36/69
f 34/45/70 28/36/71 21/27/72 22/29/73
f 30/60/74 29/61/75 34/62/76 35/63/77
f 35/63/78 36/64/79 31/65/80 30/60/81
f 36/47/82 32/42/83 31/40/84
f 26/34/85 33/43/86 32/42/87 25/33/88
f 35/46/89 34/44/90 22/28/91 23/30/92
f 24/32/93 36/48/94 35/46/95 23/30/96
f 38/51/97 37/49/98 10/5/99 5/6/100
f 8/15/101 39/53/102 38/51/103 5/6/104
f 25/33/105 32/42/106 36/47/107 24/31/108
f 29/38/109 28/36/110 34/45/111
f 15/20/112 14/18/113 37/50/114
f 41/70/115 42/71/116 18/24/117
f 37/12/118 14/13/119 11/67/120 10/68/121
f 39/52/122 41/70/123 18/24/124
f 40/10/125 41/69/126 39/75/127 8/76/128
f 1/3/129 42/72/130 41/73/131 40/74/132
