# This file uses meters as units for non-parametric coordinates.

v 500.000061 -0.000001 0.000000
v 500.000061 6.969651 -67.378296
v 500.000061 6.969651 -102.306396
v 500.000061 -23.029486 -58.744873
v 500.000061 -0.000001 -107.378418
v 500.000061 -5.417280 -8.035278
v 500.000061 -8.353826 -26.543457
v 500.000061 0.030915 -316.580627
v 268.311340 -0.000001 0.000000
v 269.434387 -5.417280 -7.554688
v 280.499268 -10.309549 -30.352051
v 296.623474 -23.029486 -67.363708
v 296.769958 6.969653 -75.997131
v 298.176025 6.969653 -110.925232
v 301.061096 -0.000001 -119.955383
v 358.329285 -0.455614 -355.468079
v 491.787659 6.969653 -102.306396
v 497.359436 6.969653 -67.378296
v 497.359436 -23.029486 -58.744873
v 497.359436 -8.353826 -26.543457
v 497.359436 -5.417280 -8.035278
v 0.000793 -0.000001 -499.999817
v 500.000061 -0.000001 -499.999817
v 67.378967 6.969651 -499.999817
v 102.307129 6.969651 -499.999817
v 58.745544 -23.029486 -499.999817
v 107.379150 -0.000001 -499.999817
v 8.036072 -5.417280 -499.999817
v 26.543396 -8.353827 -499.999817
v 316.581360 0.030915 -499.999817
v 0.000793 -0.000001 -306.262146
v 7.555359 -5.417280 -305.249817
v 33.493835 -10.309549 -317.377502
v 70.304077 -23.029486 -317.118591
v 78.937500 6.969653 -317.118591
v 113.865662 6.969653 -317.118591
v 121.189514 -0.000001 -316.622253
v 102.307129 6.969653 -496.639954
v 67.378967 6.969653 -496.639954
v 58.745544 -23.029486 -496.639954
v 26.543396 -8.353827 -496.639954
v 8.036072 -5.417280 -496.639954
v 0.000000 0.000000 0.000000
v 178.103027 -0.000001 -178.341553
v 168.940918 6.969653 -172.064087
v 143.755493 6.969653 -147.070923
v 132.598267 -23.029486 -139.986267
v 104.878967 -10.309549 -116.525269
v 87.850159 -5.417280 -97.135986
v 76.912659 0.000000 -85.041870
v 321.468079 0.218718 -420.501892
v 421.150085 0.551358 -312.698425
v 442.463867 0.009637 -499.999817
v 500.000061 0.009718 -442.463196
v 459.212708 -0.372158 -459.764587
v 446.238586 0.009655 -477.970886
v 478.993835 -0.414508 -447.871277
v 328.532654 -2.982914 -422.148132
v 361.942810 -2.982914 -358.569397
v 422.615967 -2.982914 -319.863708
v 500.000061 -2.982914 -319.323181
v 319.760315 -2.982914 -499.999817
v 439.366394 -2.982914 -499.999817
v 443.508972 -2.982914 -476.676331
v 456.595093 -2.982914 -456.022156
v 477.088562 -2.982914 -443.272766
v 500.000061 -2.982914 -439.563416
vt 0.066177 0.209415
vt 0.102497 0.279316
vt 0.102497 0.279316
vt 0.102497 0.279316
vt 0.102497 0.279316
vt 0.102497 0.279316
vt 0.066177 0.209415
vt 0.102497 0.279316
vt 0.102497 0.279316
vt 0.102497 0.279316
vt 0.102183 0.307564
vt 0.102183 0.307564
vt 0.102183 0.307564
vt 0.102183 0.307564
vt 0.102183 0.307564
vt 0.167293 0.302543
vt 0.102183 0.307564
vt 0.167302 0.302543
vt 0.102183 0.307564
vt 0.102183 0.307564
vt 0.102183 0.307564
vt 0.102183 0.307564
vt 0.102183 0.307564
vt 0.102183 0.307564
vt 0.102183 0.307564
vt 0.102183 0.307564
vt 0.066177 0.209415
vt 0.066177 0.209415
vt 0.066177 0.209415
vt 0.102497 0.279316
vt 0.102497 0.279316
vt 0.102497 0.279316
vt 0.102497 0.279316
vt 0.102497 0.279316
vt 0.102497 0.279316
vt 0.102497 0.279316
vt 0.102497 0.279316
vt 0.102497 0.279316
vt 0.102497 0.279316
vt 0.102497 0.279316
vt 0.167302 0.302551
vt 0.102183 0.307564
vt 0.167293 0.302551
vt 0.102183 0.307564
vt 0.102183 0.307564
vt 0.102183 0.307564
vt 0.066177 0.209415
vt 0.066177 0.209415
vt 0.066177 0.209415
vt 0.066177 0.209415
vt 0.102183 0.307564
vt 0.102183 0.307564
vt 0.102183 0.307564
vt 0.102183 0.307564
vt 0.102183 0.307564
vt 0.102183 0.307564
vt 0.102183 0.307564
vt 0.102183 0.307564
vt 0.102183 0.307564
vt 0.102183 0.307564
vt 0.102183 0.307564
vt 0.102183 0.307564
vt 0.102183 0.307564
vt 0.102183 0.307564
vt 0.102183 0.307564
vt 0.102183 0.307564
vt 0.102183 0.307564
vt 0.102183 0.307564
vt 0.167285 0.302550
vt 0.167285 0.302543
vt 0.167286 0.302533
vt 0.167294 0.302535
vt 0.167299 0.302538
vt 0.065979 0.208380
vt 0.101578 0.304601
vt 0.065979 0.208380
vt 0.102497 0.279316
vt 0.102497 0.279316
vt 0.102497 0.279316
vt 0.102497 0.279316
vt 0.102497 0.279316
vt 0.102497 0.279316
vt 0.102497 0.279316
vt 0.102497 0.279316
vt 0.102497 0.279316
vt 0.102497 0.279316
vt 0.102497 0.279316
vt 0.102497 0.279316
vt 0.102497 0.279316
vt 0.102497 0.279316
vt 0.102497 0.279316
vt 0.102497 0.279316
vt 0.102497 0.279316
vt 0.102497 0.279316
vt 0.102497 0.279316
vt 0.066177 0.209415
vt 0.065979 0.208380
vt 0.065979 0.208380
vt 0.065979 0.208380
vt 0.101578 0.304601
vt 0.101578 0.304601
vt 0.101578 0.304601
vt 0.101578 0.304601
vt 0.101578 0.306290
vt 0.101578 0.304601
vt 0.101578 0.306290
vt 0.101578 0.306290
vt 0.101578 0.306290
vt 0.101578 0.306290
vt 0.101578 0.304601
vt 0.101578 0.306290
vt 0.101578 0.304601
vt 0.101578 0.306290
vt 0.101578 0.306290
vt 0.101578 0.306290
vt 0.101578 0.306290
vt 0.101578 0.306290
vt 0.101578 0.306290
vt 0.101578 0.304601
vt 0.101578 0.306290
vt 0.101578 0.304601
vt 0.101578 0.304601
vt 0.065979 0.208380
vt 0.733572 0.010608
vt 0.101578 0.306290
vt 0.101578 0.304601
vt 0.101578 0.306290
vt 0.101578 0.306290
vt 0.101578 0.306290
vt 0.101578 0.306290
vt 0.733572 0.010608
vt 0.733572 0.010608
vt 0.733572 0.010608
vt 0.167290 0.302543
vt 0.167293 0.302546
vt 0.167285 0.302548
vt 0.167287 0.302551
vt 0.167286 0.302549
vt 0.167286 0.302549
vt 0.167287 0.302550
vt 0.167356 0.302963
vt 0.167355 0.302960
vt 0.167716 0.302828
vt 0.167725 0.302829
vt 0.167146 0.302465
vt 0.167046 0.302427
vt 0.167055 0.302407
vt 0.167162 0.302448
vt 0.167282 0.302470
vt 0.167280 0.302448
vt 0.101380 0.327456
vt 0.102083 0.327220
vt 0.102815 0.327386
vt 0.103388 0.327940
vt 0.100751 0.327962
vt 0.101631 0.328823
vt 0.101831 0.328683
vt 0.102073 0.328623
vt 0.102320 0.328680
vt 0.102516 0.328818
vt 0.166969 0.302359
vt 0.166981 0.302343
vt 0.166985 0.302989
vt 0.166977 0.302980
vt 0.166649 0.302859
vt 0.166657 0.302859
vt 0.166435 0.302600
vt 0.166447 0.302604
vt 0.167394 0.302436
vt 0.167386 0.302415
vt 0.102138 0.327232
vt 0.102127 0.328636
vn 0.000000 0.829162 -0.559008
vn 0.000000 0.829162 -0.559008
vn 0.000000 0.829162 -0.559008
vn 0.000000 0.987646 -0.156702
vn 0.000000 0.987646 -0.156702
vn 0.000000 0.987646 -0.156702
vn 0.000000 0.987646 -0.156702
vn 0.000000 0.909955 -0.414707
vn 0.000000 0.909955 -0.414707
vn 0.000000 0.909955 -0.414707
vn 0.000000 0.909955 -0.414707
vn 0.000000 0.276561 0.960996
vn 0.000000 0.276561 0.960996
vn 0.000000 0.276561 0.960996
vn 0.000000 0.276561 0.960996
vn 0.000000 1.000000 -0.000000
vn 0.000000 1.000000 -0.000000
vn 0.000000 1.000000 -0.000000
vn 0.000000 1.000000 -0.000000
vn 0.000000 0.588412 -0.808562
vn 0.000000 0.588412 -0.808562
vn 0.000000 0.588412 -0.808561
vn 0.001811 0.999996 0.001990
vn 0.001811 0.999996 0.001990
vn 0.001811 0.999996 0.001990
vn 0.001811 0.999996 0.001990
vn 0.037126 0.725164 -0.687574
vn 0.037126 0.725164 -0.687574
vn 0.037126 0.725164 -0.687574
vn 0.037126 0.725164 -0.687574
vn 0.000000 1.000000 0.000000
vn 0.000000 1.000000 0.000000
vn 0.000000 1.000000 0.000000
vn 0.000000 1.000000 0.000000
vn -0.041240 0.276422 0.960151
vn -0.041240 0.276422 0.960151
vn -0.041240 0.276422 0.960151
vn -0.041240 0.276422 0.960151
vn 0.006556 0.930314 -0.366705
vn 0.006556 0.930314 -0.366705
vn 0.006556 0.930314 -0.366705
vn 0.006556 0.930314 -0.366705
vn -0.002920 0.982361 -0.186973
vn -0.002920 0.982361 -0.186973
vn -0.002920 0.982361 -0.186973
vn -0.002920 0.982361 -0.186973
vn -0.000597 0.821195 -0.570648
vn -0.000597 0.821195 -0.570648
vn -0.000597 0.821195 -0.570648
vn -0.000597 0.821195 -0.570648
vn 0.570555 0.821259 0.000712
vn 0.570555 0.821259 0.000712
vn 0.570555 0.821259 0.000712
vn 0.570555 0.821259 0.000712
vn 0.000000 1.000000 0.000000
vn 0.000000 1.000000 0.000000
vn 0.000000 1.000000 0.000000
vn 0.000000 1.000000 0.000000
vn 0.740956 0.669554 -0.051797
vn 0.740956 0.669554 -0.051797
vn 0.740956 0.669554 -0.051797
vn 0.740956 0.669554 -0.051797
vn -0.959161 0.276036 0.061756
vn -0.959161 0.276036 0.061756
vn -0.959161 0.276036 0.061756
vn -0.959161 0.276036 0.061756
vn 0.368968 0.929337 -0.013969
vn 0.368968 0.929337 -0.013969
vn 0.368968 0.929337 -0.013969
vn 0.368968 0.929337 -0.013969
vn 0.174043 0.984736 0.002158
vn 0.174043 0.984736 0.002158
vn 0.174043 0.984736 0.002158
vn 0.174043 0.984736 0.002158
vn 0.000168 1.000000 -0.000030
vn 0.000168 1.000000 -0.000030
vn 0.000168 1.000000 -0.000030
vn -0.000777 1.000000 -0.000659
vn -0.000777 1.000000 -0.000659
vn -0.000777 0.999999 -0.000659
vn -0.000777 0.999999 -0.000659
vn 0.808560 0.588414 -0.000000
vn 0.808560 0.588414 -0.000000
vn 0.808560 0.588414 -0.000000
vn 0.000000 1.000000 -0.000001
vn 0.000000 1.000000 -0.000001
vn 0.000000 1.000000 -0.000001
vn 0.000000 1.000000 -0.000001
vn -0.960995 0.276564 -0.000000
vn -0.960995 0.276564 -0.000000
vn -0.960995 0.276564 -0.000000
vn -0.960995 0.276564 -0.000000
vn 0.414699 0.909958 0.000000
vn 0.414699 0.909958 0.000000
vn 0.414699 0.909958 0.000000
vn 0.414699 0.909958 0.000000
vn 0.156708 0.987645 0.000000
vn 0.156708 0.987645 0.000000
vn 0.156708 0.987645 0.000000
vn 0.156708 0.987645 0.000000
vn 0.559007 0.829163 0.000000
vn 0.559007 0.829163 0.000000
vn 0.559007 0.829163 0.000000
vn 0.000000 1.000000 0.000000
vn 0.000000 1.000000 0.000000
vn 0.000000 1.000000 0.000000
vn 0.084370 0.981569 -0.171474
vn 0.084370 0.981569 -0.171474
vn 0.084370 0.981569 -0.171474
vn 0.084370 0.981569 -0.171474
vn 0.138782 0.944789 -0.296839
vn 0.138782 0.944789 -0.296839
vn 0.138782 0.944789 -0.296839
vn 0.138782 0.944789 -0.296839
vn -0.393591 0.301649 0.868386
vn -0.393591 0.301649 0.868386
vn -0.393591 0.301649 0.868386
vn -0.393591 0.301649 0.868386
vn 0.000000 1.000000 0.000000
vn 0.000000 1.000000 0.000000
vn 0.000000 1.000000 0.000000
vn 0.000000 1.000000 0.000000
vn 0.253405 0.806169 -0.534675
vn 0.253405 0.806169 -0.534675
vn 0.253405 0.806169 -0.534675
vn 0.253405 0.806169 -0.534675
vn 0.000824 0.999998 -0.001734
vn 0.000824 0.999998 -0.001734
vn 0.000824 0.999998 -0.001734
vn 0.580297 0.781440 -0.229363
vn 0.580297 0.781440 -0.229363
vn 0.580297 0.781440 -0.229363
vn 0.580297 0.781440 -0.229363
vn 0.000000 1.000000 -0.000000
vn 0.000000 1.000000 -0.000000
vn 0.000000 1.000000 -0.000000
vn 0.000000 1.000000 -0.000000
vn -0.886226 0.330639 0.324472
vn -0.886226 0.330639 0.324472
vn -0.886226 0.330639 0.324472
vn -0.886226 0.330639 0.324472
vn 0.327921 0.937560 -0.115974
vn 0.327921 0.937560 -0.115974
vn 0.327921 0.937560 -0.115974
vn 0.327921 0.937560 -0.115974
vn 0.175842 0.982256 -0.065217
vn 0.175842 0.982256 -0.065217
vn 0.175842 0.982256 -0.065217
vn 0.175842 0.982256 -0.065217
vn 0.001800 0.999998 -0.000741
vn 0.001800 0.999998 -0.000741
vn 0.001800 0.999998 -0.000741
vn -0.000000 1.000000 -0.000000
vn -0.000000 1.000000 -0.000000
vn -0.000000 1.000000 -0.000000
vn 0.181281 0.903998 -0.387203
vn 0.181281 0.903997 -0.387203
vn 0.181281 0.903997 -0.387203
vn 0.181281 0.903997 -0.387203
vn 0.427732 0.890233 -0.156620
vn 0.427732 0.890233 -0.156620
vn 0.427732 0.890233 -0.156620
vn 0.427732 0.890233 -0.156620
vn 0.003312 0.999958 0.008491
vn 0.003312 0.999958 0.008491
vn 0.003312 0.999959 0.008491
vn -0.012621 0.999908 -0.005003
vn -0.012621 0.999908 -0.005003
vn -0.012621 0.999908 -0.005003
vn 0.512846 0.857272 -0.045542
vn 0.512846 0.857272 -0.045542
vn 0.512846 0.857272 -0.045542
vn 0.512846 0.857272 -0.045542
vn -0.002125 0.999973 0.007095
vn -0.002125 0.999973 0.007095
vn -0.002125 0.999973 0.007095
vn -0.503877 0.791588 0.345683
vn -0.503877 0.791588 0.345683
vn -0.503877 0.791588 0.345683
vn -0.503877 0.791588 0.345683
vn 0.006789 0.999847 0.016130
vn 0.006789 0.999847 0.016130
vn 0.006789 0.999847 0.016130
vn -0.126187 0.811863 0.570048
vn -0.126187 0.811863 0.570048
vn -0.126187 0.811863 0.570048
vn -0.126187 0.811863 0.570048
vn -0.020148 0.999797 -0.000169
vn -0.020148 0.999797 -0.000169
vn -0.020148 0.999797 -0.000169
vn 0.389070 0.897448 -0.207875
vn 0.389070 0.897448 -0.207875
vn 0.389070 0.897448 -0.207875
vn 0.389070 0.897448 -0.207875
vn -0.009035 0.833614 -0.552273
vn -0.009035 0.833614 -0.552273
vn -0.009035 0.833614 -0.552274
vn -0.009035 0.833614 -0.552273
vn -0.697869 0.705788 0.121829
vn -0.697869 0.705788 0.121829
vn -0.697869 0.705788 0.121829
vn -0.697869 0.705788 0.121829
vn 0.000000 1.000000 0.000000
vn 0.000000 1.000000 0.000000
vn 0.000000 1.000000 0.000000
vn 0.000000 1.000000 0.000000
vn 0.000000 1.000000 0.000000
vn 0.000000 1.000000 0.000000
vn 0.000000 1.000000 0.000000
vn 0.000000 1.000000 0.000000
vn 0.000000 1.000000 0.000000
vn 0.000000 1.000000 0.000000
vn 0.000000 1.000000 0.000000
vn 0.000000 1.000000 0.000000
vn 0.000000 1.000000 0.000000
vn 0.000000 1.000000 0.000000
vn 0.000000 1.000000 0.000000
vn 0.000000 1.000000 0.000000
vn 0.253788 0.882671 -0.395581
vn 0.253788 0.882671 -0.395581
vn 0.253788 0.882671 -0.395581
vn 0.253788 0.882671 -0.395581
vn -0.249635 0.877493 0.409498
vn -0.249635 0.877493 0.409498
vn -0.249635 0.877493 0.409498
vn -0.249635 0.877493 0.409498
s off
f 1/27/1 6/28/2 21/29/3
f 20/33/4 21/30/5 6/31/6 7/10/7
f 19/35/8 20/32/9 7/40/10 4/2/11
f 18/37/12 19/34/13 4/6/14 2/3/15
f 17/39/16 18/36/17 2/8/18 3/4/19
f 5/5/20 17/38/21 3/9/22
f 52/135/23 15/18/24 5/41/25 8/43/26
f 15/15/27 14/44/28 17/20/29 5/17/30
f 14/14/31 13/45/32 18/22/33 17/19/34
f 13/13/35 12/46/36 19/24/37 18/21/38
f 12/12/39 11/42/40 20/25/41 19/23/42
f 11/42/43 10/11/44 21/26/45 20/25/46
f 1/27/47 21/29/48 10/7/49 9/1/50
f 31/47/51 32/48/52 42/49/53 22/50/54
f 38/51/55 39/52/56 35/53/57 36/54/58
f 27/55/59 38/56/60 36/57/61 37/58/62
f 39/59/63 40/60/64 34/61/65 35/62/66
f 40/63/67 41/64/68 33/65/69 34/66/70
f 41/64/71 42/67/72 32/68/73 33/65/74
f 53/136/75 56/139/76 23/69/77
f 30/70/78 27/71/79 37/72/80 51/134/81
f 25/77/82 38/78/83 27/79/84
f 24/80/85 39/81/86 38/82/87 25/83/88
f 26/84/89 40/85/90 39/86/91 24/87/92
f 29/88/93 41/89/94 40/90/95 26/91/96
f 28/92/97 42/93/98 41/94/99 29/95/100
f 22/50/101 42/49/102 28/96/103
f 43/124/104 9/131/105 50/132/106
f 10/100/107 11/121/108 48/112/109 49/75/110
f 11/101/111 12/119/112 47/126/113 48/110/114
f 12/104/115 13/117/116 46/129/117 47/114/118
f 13/106/119 14/115/120 45/127/121 46/130/122
f 14/108/123 15/113/124 44/125/125 45/128/126
f 15/18/127 16/16/128 44/73/129
f 45/128/130 44/125/131 37/111/132 36/116/133
f 46/130/134 45/127/135 36/109/136 35/118/137
f 47/114/138 46/129/139 35/107/140 34/120/141
f 48/110/142 47/126/143 34/105/144 33/122/145
f 49/75/146 48/112/147 33/102/148 32/103/149
f 44/73/150 16/16/151 37/72/152
f 31/133/153 43/124/154 50/132/155
f 50/74/156 9/97/157 10/98/158 49/76/159
f 31/123/160 50/74/161 49/76/162 32/99/163
f 51/134/164 37/72/165 16/16/166
f 16/16/167 15/18/168 52/135/169
f 51/141/170 58/142/171 62/143/172 30/144/173
f 23/69/174 55/138/175 57/140/176
f 64/149/177 65/145/178 55/148/179 56/150/180
f 23/69/181 56/139/182 55/138/183
f 66/146/184 67/161/185 54/162/186 57/147/187
f 23/69/188 57/140/189 54/137/190
f 16/163/191 59/164/192 58/142/193 51/141/194
f 8/167/195 61/168/196 60/166/197 52/165/198
f 63/169/199 64/149/200 56/150/201 53/170/202
f 62/155/203 58/151/204 64/157/205 63/156/206
f 58/151/207 59/152/208 65/158/209 64/157/210
f 60/153/211 61/154/212 67/160/213 66/159/214
f 65/172/215 59/171/216 60/153/217 66/159/218
f 52/165/219 60/166/220 59/164/221 16/163/222
f 55/148/223 65/145/224 66/146/225 57/147/226
