# This file uses meters as units for non-parametric coordinates.

v 500.000610 0.000000 0.000000
v 500.000610 -0.000000 -500.000061
v 0.000000 0.000000 0.000000
v 0.000000 -0.000000 -500.000061
v 500.000610 6.969652 -67.378235
v 0.000000 6.969652 -67.378235
v 500.000610 6.969652 -102.306396
v 0.000000 6.969652 -102.306580
v 500.000610 -23.029484 -58.744812
v 0.000000 -23.029484 -58.744812
v 500.000610 -0.000000 -107.378418
v 0.000000 -0.000000 -107.378601
v 500.000610 -5.417279 -8.034851
v 0.000000 -5.417279 -8.034851
v 0.000000 -8.353827 -26.542664
v 500.000610 -8.353827 -26.542664
v 500.000610 0.030915 -316.580750
v 0.000244 0.030915 -316.580750
v 289.252441 -0.000000 0.000000
v 291.196289 -7.730597 -14.574829
v 287.894653 -8.353827 -21.887939
v 243.826172 -23.029484 -62.801331
v 243.826172 6.969654 -71.434814
v 243.826172 6.969654 -106.362976
v 245.167480 -0.000000 -112.563538
v 247.144775 3.856385 -302.642883
v 248.666260 -0.000000 -500.000061
v 493.314209 6.969654 -102.306396
v 493.153687 6.969654 -67.378235
v 494.801514 -23.029484 -58.744812
v 495.529053 -8.353827 -26.542664
v 495.528687 -5.417279 -8.034851
v 3.359253 6.969654 -102.306580
v 3.359253 6.969654 -67.378235
v 3.359253 -23.029484 -58.744812
v 3.359009 -8.353827 -26.542847
v 3.359253 -5.417279 -8.034851
v 500.000610 -2.982914 -319.323303
v 246.464111 -2.982914 -319.323303
v 0.000244 -2.982914 -319.323303
v 0.000244 -2.982914 -439.563538
v 247.975342 -2.982914 -439.563538
v 500.000732 -2.982914 -439.563538
v 500.001404 0.000000 -441.389526
v 249.071777 0.104863 -445.884216
v 0.000807 0.000000 -441.389526
v 124.333130 -0.000000 -500.000061
v 123.987793 0.009638 -442.463318
v 123.987793 -2.982914 -439.563538
v 123.232178 -2.982914 -319.323303
v 123.232910 0.955316 -309.133545
v 374.333496 -0.000000 -500.000061
v 374.729980 -0.265392 -448.611023
v 373.988037 -2.982914 -439.563538
v 373.232422 -2.982914 -319.323303
v 373.232422 0.955316 -307.216187
v 129.084229 -2.982914 -319.323303
v 131.477173 -2.982914 -439.563538
v 380.637207 -2.982914 -319.323303
v 381.478271 -2.982914 -439.563538
vt 0.066177 0.209415
vt 0.102497 0.279316
vt 0.102497 0.279316
vt 0.102497 0.279316
vt 0.102497 0.279316
vt 0.102497 0.279316
vt 0.102497 0.279316
vt 0.102497 0.279316
vt 0.102497 0.279316
vt 0.102497 0.279316
vt 0.102497 0.279316
vt 0.066177 0.209415
vt 0.102497 0.279316
vt 0.102497 0.279316
vt 0.102497 0.279316
vt 0.102497 0.279316
vt 0.066177 0.209415
vt 0.102497 0.279316
vt 0.102497 0.279316
vt 0.102497 0.279316
vt 0.102183 0.307564
vt 0.102183 0.307564
vt 0.102183 0.307564
vt 0.102183 0.307564
vt 0.102183 0.307564
vt 0.166646 0.302939
vt 0.066177 0.209415
vt 0.102183 0.307564
vt 0.166646 0.302939
vt 0.102183 0.307564
vt 0.166646 0.302939
vt 0.102183 0.307564
vt 0.102183 0.307564
vt 0.102183 0.307564
vt 0.102183 0.307564
vt 0.102183 0.307564
vt 0.102183 0.307564
vt 0.102183 0.307564
vt 0.102183 0.307564
vt 0.066177 0.209415
vt 0.166646 0.302939
vt 0.102497 0.279316
vt 0.102497 0.279316
vt 0.102497 0.279316
vt 0.102497 0.279316
vt 0.102497 0.279316
vt 0.102497 0.279316
vt 0.102497 0.279316
vt 0.066177 0.209415
vt 0.102497 0.279316
vt 0.102183 0.307564
vt 0.066177 0.209415
vt 0.102497 0.279316
vt 0.102183 0.307564
vt 0.102183 0.307564
vt 0.102183 0.307564
vt 0.102183 0.307564
vt 0.102183 0.307564
vt 0.102183 0.307564
vt 0.102183 0.307564
vt 0.166646 0.302939
vt 0.102183 0.307564
vt 0.166646 0.302939
vt 0.166646 0.302939
vt 0.066177 0.209415
vt 0.166646 0.302939
vt 0.102497 0.279316
vt 0.102497 0.279316
vt 0.102497 0.279316
vt 0.102497 0.279316
vt 0.102497 0.279316
vt 0.102497 0.279316
vt 0.102497 0.279316
vt 0.102497 0.279316
vt 0.102497 0.279316
vt 0.102497 0.279316
vt 0.166646 0.302939
vt 0.166646 0.302939
vt 0.102497 0.279316
vt 0.166646 0.302939
vt 0.166646 0.302939
vt 0.166646 0.302939
vt 0.102183 0.307564
vt 0.166646 0.302939
vt 0.102183 0.307564
vt 0.102183 0.307564
vt 0.102183 0.307564
vt 0.102183 0.307564
vt 0.102183 0.307564
vt 0.102183 0.307564
vt 0.102183 0.307564
vt 0.166646 0.302939
vt 0.102183 0.307564
vt 0.166646 0.302939
vt 0.102183 0.307564
vt 0.102183 0.307564
vt 0.102183 0.307564
vt 0.102497 0.279316
vt 0.166646 0.302939
vt 0.166646 0.302939
vt 0.166646 0.302939
vt 0.166646 0.302939
vt 0.166646 0.302939
vt 0.166646 0.302939
vt 0.166646 0.302939
vt 0.166646 0.302939
vt 0.166646 0.302939
vt 0.166646 0.302939
vt 0.166646 0.302939
vt 0.166646 0.302939
vt 0.102298 0.328750
vt 0.102290 0.328309
vt 0.102510 0.328305
vt 0.102518 0.328744
vt 0.102306 0.329199
vt 0.102526 0.329195
vt 0.166646 0.302939
vt 0.166646 0.302939
vt 0.166646 0.302939
vt 0.102294 0.328530
vt 0.166646 0.302939
vt 0.102514 0.328524
vt 0.166646 0.302939
vt 0.166646 0.302939
vt 0.166646 0.302939
vt 0.166646 0.302939
vt 0.166646 0.302939
vt 0.102302 0.328975
vt 0.166646 0.302939
vt 0.102522 0.328969
vt 0.166646 0.302939
vt 0.166646 0.302939
vt 0.166646 0.302939
vt 0.102514 0.328530
vt 0.166646 0.302939
vt 0.102294 0.328538
vt 0.166646 0.302939
vt 0.102523 0.328979
vt 0.166646 0.302939
vt 0.102302 0.328984
vt 0.102349 0.303336
vt 0.102350 0.303271
vt 0.102354 0.303272
vt 0.102352 0.303336
vt 0.102214 0.303332
vt 0.102215 0.303267
vt 0.102220 0.303267
vt 0.102218 0.303332
vn -0.002237 0.864232 -0.503088
vn -0.002237 0.864232 -0.503088
vn -0.002237 0.864232 -0.503088
vn -0.002237 0.864232 -0.503088
vn 0.000000 1.000000 0.000000
vn 0.000000 1.000000 0.000000
vn 0.000000 1.000000 0.000000
vn 0.000000 1.000000 0.000000
vn -0.006977 0.698957 -0.715130
vn -0.006977 0.698957 -0.715130
vn -0.006977 0.698957 -0.715130
vn -0.006977 0.698957 -0.715130
vn 0.016209 0.276528 0.960869
vn 0.016209 0.276528 0.960869
vn 0.016209 0.276528 0.960869
vn 0.016209 0.276528 0.960869
vn 0.000425 0.927927 -0.372762
vn 0.000425 0.927927 -0.372762
vn 0.000425 0.927927 -0.372762
vn 0.000425 0.927927 -0.372762
vn 0.003552 0.990562 -0.137016
vn 0.003552 0.990562 -0.137016
vn 0.003552 0.990562 -0.137016
vn 0.003552 0.990562 -0.137016
vn 0.000000 0.932759 -0.360502
vn 0.000000 0.932759 -0.360502
vn 0.000000 0.932759 -0.360502
vn -0.024450 0.999501 0.020024
vn -0.003782 0.999983 0.004419
vn -0.003782 0.999983 0.004419
vn 0.000000 0.829146 -0.559032
vn 0.000000 0.829146 -0.559032
vn 0.000000 0.829146 -0.559031
vn 0.000000 0.987645 -0.156705
vn 0.000000 0.987646 -0.156705
vn 0.000000 0.987645 -0.156705
vn 0.000000 0.987645 -0.156705
vn 0.000000 0.909958 -0.414700
vn 0.000000 0.909958 -0.414700
vn 0.000000 0.909958 -0.414700
vn 0.000000 0.909958 -0.414700
vn 0.000001 0.276564 0.960995
vn 0.000001 0.276564 0.960995
vn 0.000001 0.276564 0.960995
vn 0.000001 0.276564 0.960995
vn 0.000000 1.000000 0.000000
vn 0.000000 1.000000 0.000000
vn 0.000000 1.000000 0.000000
vn 0.000000 1.000000 0.000000
vn 0.065746 0.627607 -0.775749
vn 0.065746 0.627607 -0.775750
vn 0.065746 0.627607 -0.775750
vn 0.000000 0.950955 -0.309330
vn 0.000000 0.950955 -0.309330
vn 0.000000 0.950955 -0.309330
vn 0.007303 0.999973 0.000148
vn 0.010745 0.999854 0.013252
vn 0.010745 0.999854 0.013252
vn 0.013582 0.696640 -0.717293
vn 0.013582 0.696640 -0.717293
vn 0.013582 0.696640 -0.717293
vn 0.013582 0.696640 -0.717292
vn 0.000000 1.000000 -0.000000
vn 0.000000 1.000000 -0.000000
vn 0.000000 1.000000 -0.000000
vn 0.000000 1.000000 -0.000000
vn -0.015584 0.276135 0.960993
vn -0.015584 0.276135 0.960992
vn -0.015584 0.276135 0.960993
vn -0.015584 0.276135 0.960993
vn -0.000486 0.928119 -0.372284
vn -0.000486 0.928119 -0.372284
vn -0.000486 0.928119 -0.372284
vn -0.000486 0.928119 -0.372284
vn -0.004941 0.990703 -0.135951
vn -0.004941 0.990703 -0.135951
vn -0.004941 0.990703 -0.135951
vn -0.004941 0.990703 -0.135951
vn 0.003108 0.864307 -0.502955
vn 0.003108 0.864307 -0.502955
vn 0.003108 0.864307 -0.502955
vn 0.003108 0.864307 -0.502955
vn -0.208089 0.639121 -0.740421
vn -0.208089 0.639121 -0.740421
vn -0.208089 0.639121 -0.740421
vn -0.000001 1.000000 0.000000
vn -0.000001 1.000000 0.000000
vn -0.000001 1.000000 0.000000
vn -0.000001 1.000000 0.000000
vn -0.000001 0.276564 0.960995
vn -0.000001 0.276564 0.960995
vn -0.000001 0.276564 0.960996
vn -0.000001 0.276564 0.960996
vn -0.000012 0.909958 -0.414701
vn -0.000012 0.909958 -0.414701
vn -0.000012 0.909958 -0.414701
vn -0.000012 0.909958 -0.414701
vn -0.000005 0.987646 -0.156705
vn -0.000005 0.987646 -0.156705
vn -0.000005 0.987646 -0.156705
vn -0.000005 0.987646 -0.156705
vn 0.000000 0.829149 -0.559028
vn 0.000000 0.829149 -0.559028
vn 0.000000 0.829149 -0.559028
vn 0.000000 0.957731 0.287665
vn 0.000000 0.957731 0.287665
vn 0.000000 0.957731 0.287665
vn 0.007414 0.837157 0.546913
vn 0.007414 0.837157 0.546913
vn 0.007414 0.837157 0.546913
vn 0.007414 0.837157 0.546913
vn 0.000000 1.000000 0.000000
vn 0.000000 1.000000 0.000000
vn 0.000000 1.000000 0.000000
vn 0.000000 1.000000 0.000000
vn 0.000000 1.000000 0.000000
vn 0.000000 1.000000 0.000000
vn 0.000000 1.000000 0.000000
vn 0.000000 1.000000 0.000000
vn -0.001127 0.999997 0.002417
vn -0.001127 0.999997 0.002417
vn -0.001127 0.999997 0.002417
vn 0.001192 0.999998 -0.001612
vn -0.000396 0.999999 -0.001025
vn -0.000396 0.999999 -0.001025
vn -0.000396 0.999999 -0.001025
vn 0.000000 1.000000 0.000000
vn 0.000000 1.000000 0.000000
vn -0.000039 1.000000 -0.000083
vn -0.000039 1.000000 -0.000083
vn -0.000039 1.000000 -0.000083
vn 0.003372 0.620311 0.784349
vn 0.003372 0.620311 0.784349
vn 0.003372 0.620311 0.784349
vn 0.003372 0.620311 0.784349
vn 0.000000 1.000000 0.000000
vn 0.000000 1.000000 0.000000
vn 0.000000 1.000000 0.000000
vn 0.000000 1.000000 0.000000
vn 0.011003 0.880744 -0.473465
vn 0.011003 0.880744 -0.473465
vn 0.011003 0.880744 -0.473465
vn 0.000000 1.000000 0.000000
vn 0.001192 0.999998 -0.001612
vn 0.001490 0.999998 0.001510
vn 0.001490 0.999998 0.001510
vn 0.001490 0.999998 0.001510
vn 0.005211 0.935262 0.353917
vn 0.005211 0.935262 0.353917
vn 0.005211 0.935262 0.353917
vn 0.005211 0.935262 0.353917
vn 0.000000 1.000000 0.000000
vn 0.000000 1.000000 0.000000
vn 0.000000 1.000000 0.000000
vn 0.000000 1.000000 0.000000
vn 0.004401 0.936476 -0.350704
vn 0.004401 0.936476 -0.350704
vn 0.004401 0.936476 -0.350704
vn 0.001192 0.999998 -0.001612
vn 0.010745 0.999854 0.013252
vn 0.010745 0.999855 0.013252
vn 0.023741 0.999507 0.020525
vn -0.003782 0.999983 0.004419
vn -0.003782 0.999983 0.004419
vn -0.007510 0.999972 0.000148
vn -0.003782 0.999983 0.004419
vn 0.000101 0.999988 0.004797
vn -0.003782 0.999983 0.004419
vn 0.010745 0.999854 0.013252
vn -0.000099 0.999988 0.004843
vn 0.010745 0.999855 0.013252
vn 0.000000 1.000000 0.000000
vn 0.000000 1.000000 0.000000
vn 0.000000 1.000000 0.000000
vn 0.000000 1.000000 0.000000
vn 0.000000 1.000000 -0.000000
vn 0.000000 1.000000 -0.000000
vn 0.000000 1.000000 -0.000000
vn 0.000000 1.000000 -0.000000
vn -0.014927 0.881733 0.471513
vn -0.014927 0.881733 0.471513
vn -0.014927 0.881733 0.471513
vn -0.014927 0.881733 0.471513
vn -0.012940 0.903094 -0.429247
vn -0.012940 0.903094 -0.429247
vn -0.012940 0.903094 -0.429247
vn 0.001192 0.999998 -0.001612
vn -0.001139 0.928049 -0.372456
vn -0.001139 0.928049 -0.372456
vn -0.001139 0.928049 -0.372456
vn 0.000000 1.000000 0.000000
vn 0.000000 0.695888 0.718150
vn 0.000000 0.695888 0.718150
vn 0.000000 0.695888 0.718150
s off
f 3/27/1 19/1/2 20/12/3 37/17/4
f 23/88/5 24/85/6 33/60/7 34/57/8
f 24/86/9 25/83/10 12/62/11 33/59/12
f 22/90/13 23/87/14 34/58/15 35/55/16
f 21/28/17 22/89/18 35/56/19 36/54/20
f 20/91/21 21/28/22 36/54/23 37/51/24
f 51/124/25 57/133/26 50/121/27
f 51/123/28 25/84/29 26/66/30
f 1/40/31 13/49/32 32/52/33
f 31/70/34 32/67/35 13/68/36 16/20/37
f 30/72/38 31/69/39 16/79/40 9/2/41
f 29/74/42 30/71/43 9/11/44 5/6/45
f 28/76/46 29/73/47 5/14/48 7/7/49
f 11/9/50 28/75/51 7/15/52
f 56/131/53 59/137/54 55/129/55
f 56/132/56 11/31/57 17/29/58
f 28/33/59 11/30/60 25/25/61 24/95/62
f 29/35/63 28/32/64 24/24/65 23/96/66
f 30/37/67 29/34/68 23/23/69 22/97/70
f 31/38/71 30/36/72 22/22/73 21/93/74
f 32/39/75 31/38/76 21/93/77 20/21/78
f 19/1/79 1/40/80 32/52/81 20/12/82
f 8/8/83 33/43/84 12/10/85
f 6/5/86 34/45/87 33/42/88 8/16/89
f 10/3/90 35/47/91 34/44/92 6/13/93
f 15/19/94 36/53/95 35/46/96 10/4/97
f 14/18/98 37/50/99 36/48/100 15/98/101
f 3/27/102 37/17/103 14/65/104
f 60/139/105 53/126/106 54/127/107
f 45/108/108 48/118/109 58/135/110 42/104/111
f 57/141/112 58/142/113 49/143/114 50/144/115
f 59/145/116 60/146/117 54/147/118 55/148/119
f 52/125/120 53/126/121 44/107/122 2/78/123
f 47/117/124 48/118/125 45/108/126 27/82/127
f 4/41/128 46/110/129 48/118/130 47/117/131
f 49/119/132 48/118/133 46/110/134 41/103/135
f 50/122/136 49/120/137 41/112/138 40/113/139
f 51/124/140 50/121/141 40/102/142 18/64/143
f 27/26/144 45/109/145 53/126/146 52/125/147
f 54/127/148 53/126/149 45/109/150 42/105/151
f 55/130/152 54/128/153 42/111/154 39/114/155
f 56/131/156 55/129/157 39/101/158 26/80/159
f 26/92/160 25/94/161 56/132/162
f 18/63/163 12/61/164 51/123/165
f 25/84/166 51/123/167 12/61/168
f 11/31/169 56/132/170 25/94/171
f 42/111/172 58/136/173 57/134/174 39/114/175
f 43/115/176 60/140/177 59/138/178 38/116/179
f 44/107/180 53/126/181 60/139/182 43/106/183
f 38/99/184 59/137/185 56/131/186 17/77/187
f 39/100/188 57/133/189 51/124/190 26/81/191
f 58/135/192 48/118/193 49/119/194
