# This file uses meters as units for non-parametric coordinates.

v 41.909405 -7.126212 -41.909412
v -0.000004 -7.126212 -59.268852
v -41.909416 -7.126212 -41.909412
v -59.268856 -7.126212 -0.000002
v -41.909416 -7.126212 41.909409
v -0.000004 -7.126212 59.268852
v 41.909409 -7.126212 41.909412
v 59.268856 -7.126212 -0.000002
v 41.909405 14.098846 -41.909412
v -0.000004 14.098846 -59.268852
v -41.909416 14.098846 -41.909412
v -59.268856 14.098846 -0.000002
v -42.393982 11.337697 42.862778
v -0.000004 14.098846 59.268852
v 41.909409 14.098846 41.909412
v 59.268856 14.098846 -0.000002
v 32.459454 14.098846 -32.459461
v -0.000003 14.098846 -45.904594
v -32.459461 14.098846 -32.459461
v -49.576225 14.098846 2.393655
v -32.459461 14.098846 32.459454
v -0.000003 14.098846 45.904591
v 32.459454 14.098846 32.459461
v 47.468128 13.631511 1.778221
v 32.459454 9.617305 -32.459461
v -0.000003 9.617305 -45.904594
v -32.459461 9.617305 -32.459461
v -45.904598 9.617305 -0.000001
v -32.459461 9.617305 32.459454
v -0.000003 9.617305 45.904591
v 32.459454 9.617305 32.459461
v 45.904598 9.617305 -0.000001
v 25.969025 12.254831 -17.882664
v 6.194448 13.238936 -31.746586
v -0.000002 16.123833 -0.000002
v -29.904203 11.438767 -18.540499
v -33.751232 12.818443 -0.000002
v -32.577358 12.247049 20.896507
v 3.220287 13.899904 28.316481
v 23.865726 12.818443 23.865726
v 23.386814 11.351076 2.379224
v 18.816164 11.813781 49.088123
v 8.534303 14.098846 -55.733829
v -0.861967 14.098846 -45.547558
v -0.000003 14.098846 -47.317123
v 3.437878 10.692078 -57.522659
vt 0.387588 0.445682
vt 0.387588 0.445682
vt 0.387588 0.445682
vt 0.387588 0.445682
vt 0.387588 0.445682
vt 0.387588 0.445682
vt 0.387588 0.445682
vt 0.387588 0.445682
vt 0.387588 0.445682
vt 0.387588 0.445682
vt 0.387588 0.445682
vt 0.387588 0.445682
vt 0.387588 0.445682
vt 0.387588 0.445682
vt 0.387588 0.445682
vt 0.387588 0.445682
vt 0.387588 0.445682
vt 0.387588 0.445682
vt 0.387588 0.445682
vt 0.387588 0.445682
vt 0.387588 0.445682
vt 0.387588 0.445682
vt 0.387588 0.445682
vt 0.387588 0.445682
vt 0.387588 0.445682
vt 0.387588 0.445682
vt 0.435721 0.467083
vt 0.387588 0.445682
vt 0.387588 0.445682
vt 0.387588 0.445682
vt 0.387588 0.445682
vt 0.387588 0.445682
vt 0.387588 0.445682
vt 0.387588 0.445682
vt 0.387588 0.445682
vt 0.387588 0.445682
vt 0.387588 0.445682
vt 0.387588 0.445682
vt 0.387588 0.445682
vt 0.387588 0.445682
vt 0.387588 0.445682
vt 0.387588 0.445682
vt 0.387588 0.445682
vt 0.435721 0.467083
vt 0.435721 0.467083
vt 0.435721 0.467083
vt 0.435721 0.467083
vt 0.435721 0.467083
vt 0.435721 0.467083
vt 0.435721 0.467083
vt 0.435721 0.467083
vt 0.435721 0.467083
vt 0.435721 0.467083
vt 0.435721 0.467083
vt 0.435721 0.467083
vt 0.435721 0.467083
vt 0.435721 0.467083
vt 0.435721 0.467083
vt 0.435721 0.467083
vt 0.387588 0.445682
vt 0.387588 0.445682
vt 0.387588 0.445682
vt 0.387588 0.445682
vt 0.387588 0.445682
vt 0.387588 0.445682
vt 0.387588 0.445682
vt 0.387588 0.445682
vn 0.452857 0.000000 -0.891583
vn 0.452857 0.000000 -0.891583
vn 0.452857 0.000000 -0.891583
vn -0.382683 0.000000 -0.923880
vn -0.382683 0.000000 -0.923880
vn -0.382683 0.000000 -0.923880
vn -0.382683 0.000000 -0.923880
vn -0.923880 0.000000 -0.382683
vn -0.923880 0.000000 -0.382683
vn -0.923880 0.000000 -0.382683
vn -0.923880 0.000000 -0.382683
vn -0.927283 -0.020301 0.373812
vn -0.927283 -0.020301 0.373812
vn -0.927283 -0.020301 0.373812
vn -0.927283 -0.020301 0.373812
vn -0.370919 -0.026827 0.928278
vn -0.370919 -0.026827 0.928278
vn -0.370919 -0.026827 0.928278
vn -0.370919 -0.026827 0.928278
vn 0.296846 0.000000 0.954926
vn 0.296846 0.000000 0.954925
vn 0.296846 0.000000 0.954925
vn 0.923880 0.000000 0.382683
vn 0.923880 0.000000 0.382683
vn 0.923880 0.000000 0.382683
vn 0.923880 0.000000 0.382683
vn 0.923880 0.000000 -0.382684
vn 0.923880 0.000000 -0.382684
vn 0.923880 0.000000 -0.382684
vn 0.923880 0.000000 -0.382684
vn 0.099078 0.992553 -0.070864
vn 0.099078 0.992553 -0.070864
vn 0.099078 0.992553 -0.070864
vn -0.088630 0.990270 -0.107282
vn -0.088630 0.990270 -0.107282
vn -0.088630 0.990270 -0.107282
vn -0.097037 0.990844 -0.093867
vn -0.097037 0.990844 -0.093867
vn -0.097037 0.990844 -0.093867
vn -0.097416 0.994707 0.032672
vn -0.097416 0.994707 0.032672
vn -0.097416 0.994707 0.032672
vn -0.063596 0.994322 0.085325
vn -0.063596 0.994322 0.085325
vn -0.063596 0.994322 0.085325
vn 0.067333 0.995236 0.070507
vn 0.067333 0.995236 0.070507
vn 0.067333 0.995236 0.070507
vn 0.206403 0.975870 -0.071245
vn 0.206403 0.975870 -0.071245
vn 0.206403 0.975870 -0.071245
vn 0.192823 0.978858 0.068234
vn 0.192823 0.978858 0.068234
vn 0.192823 0.978858 0.068234
vn 0.703886 0.710313 -0.000000
vn 0.703885 0.710313 -0.000000
vn 0.703885 0.710313 -0.000000
vn 0.000000 1.000000 0.000000
vn 0.000000 1.000000 0.000000
vn 0.000000 1.000000 0.000000
vn 0.000000 1.000000 0.000000
vn 0.000000 1.000000 0.000000
vn 0.000000 1.000000 0.000000
vn 0.000000 1.000000 0.000000
vn 0.000000 1.000000 0.000000
vn 0.000000 1.000000 0.000000
vn -0.104250 0.990817 0.086104
vn -0.104250 0.990817 0.086104
vn -0.104250 0.990817 0.086104
vn -0.104250 0.990817 0.086104
vn -0.070884 0.993786 0.085823
vn -0.070884 0.993786 0.085823
vn -0.070884 0.993786 0.085823
vn -0.070884 0.993786 0.085823
vn 0.014055 0.988972 0.147433
vn 0.014055 0.988972 0.147433
vn 0.014055 0.988972 0.147433
vn 0.014055 0.988972 0.147433
vn -0.016936 0.999759 -0.013988
vn -0.016936 0.999759 -0.013988
vn -0.016936 0.999759 -0.013988
vn -0.016936 0.999759 -0.013988
vn -0.015307 0.999803 0.012643
vn -0.015307 0.999803 0.012643
vn -0.015307 0.999803 0.012643
vn -0.015307 0.999803 0.012643
vn -0.382683 0.000000 0.923880
vn -0.382683 0.000000 0.923880
vn -0.382683 0.000000 0.923880
vn -0.382683 0.000000 0.923880
vn 0.382683 -0.000000 0.923880
vn 0.382683 -0.000000 0.923880
vn 0.382683 -0.000000 0.923880
vn 0.382683 -0.000000 0.923880
vn 0.382683 -0.000000 0.923880
vn 0.880687 0.253979 0.399858
vn 0.880686 0.253979 0.399858
vn 0.880686 0.253979 0.399858
vn 0.880687 0.253979 0.399858
vn 0.808265 0.436605 -0.395074
vn 0.808265 0.436605 -0.395074
vn 0.808265 0.436605 -0.395074
vn 0.808265 0.436605 -0.395074
vn 0.382683 0.000000 -0.923880
vn 0.382683 0.000000 -0.923880
vn 0.382683 0.000000 -0.923880
vn 0.382683 0.000000 -0.923880
vn -0.382683 0.000000 -0.923880
vn -0.382683 0.000000 -0.923880
vn -0.382683 0.000000 -0.923880
vn -0.382683 0.000000 -0.923880
vn -0.882964 0.246164 -0.399722
vn -0.882964 0.246164 -0.399722
vn -0.882964 0.246164 -0.399722
vn -0.882964 0.246164 -0.399722
vn -0.916116 0.086669 0.391434
vn -0.916116 0.086669 0.391434
vn -0.916116 0.086669 0.391434
vn -0.916116 0.086669 0.391434
vn 0.127964 0.969329 -0.209826
vn 0.127964 0.969329 -0.209826
vn 0.127964 0.969329 -0.209826
vn 0.127964 0.969329 -0.209826
vn -0.089066 0.982641 -0.162742
vn -0.089066 0.982641 -0.162742
vn -0.089066 0.982641 -0.162742
vn -0.089066 0.982641 -0.162742
vn -0.231308 0.967242 -0.104594
vn -0.231308 0.967242 -0.104594
vn -0.231308 0.967242 -0.104594
vn -0.231308 0.967242 -0.104594
vn -0.349462 0.930967 0.105719
vn -0.349462 0.930967 0.105719
vn -0.349462 0.930967 0.105719
vn -0.349462 0.930967 0.105719
vn -0.090948 0.971116 0.220594
vn -0.090948 0.971116 0.220594
vn -0.090948 0.971116 0.220594
vn -0.090948 0.971116 0.220594
vn 0.104957 0.961667 0.253339
vn 0.104957 0.961667 0.253339
vn 0.104957 0.961667 0.253339
vn 0.104957 0.961667 0.253339
vn 0.154646 0.987916 0.010298
vn 0.154646 0.987916 0.010298
vn 0.154646 0.987916 0.010298
vn 0.154646 0.987916 0.010298
vn 0.141973 0.989794 -0.012285
vn 0.141973 0.989794 -0.012285
vn 0.141973 0.989794 -0.012285
vn 0.141973 0.989794 -0.012285
vn 0.120556 0.992707 -0.000000
vn 0.120556 0.992707 -0.000000
vn 0.120556 0.992707 -0.000000
vn 0.414204 0.076041 0.907002
vn 0.414204 0.076041 0.907002
vn 0.414204 0.076041 0.907002
vn 0.414204 0.076041 0.907002
vn 0.000000 1.000000 0.000000
vn 0.000000 1.000000 0.000000
vn 0.000000 1.000000 0.000000
vn 0.000000 1.000000 0.000000
vn 0.382683 -0.000000 -0.923880
vn 0.382683 -0.000000 -0.923880
vn 0.382683 -0.000000 -0.923880
vn 0.382683 -0.000000 -0.923880
vn 0.000000 1.000000 0.000000
vn 0.000000 1.000000 0.000000
vn 0.000000 1.000000 0.000000
vn -0.353007 0.864445 -0.357939
vn -0.353007 0.864445 -0.357939
vn -0.353007 0.864445 -0.357939
vn -0.353007 0.864445 -0.357939
vn 0.311286 0.033015 -0.949743
vn 0.311286 0.033015 -0.949743
vn 0.311286 0.033015 -0.949743
s off
f 46/67/1 2/2/2 10/11/3
f 2/2/4 3/3/5 11/12/6 10/11/7
f 3/3/8 4/4/9 12/13/10 11/12/11
f 4/4/12 5/5/13 13/14/14 12/13/15
f 5/5/16 6/6/17 14/15/18 13/14/19
f 42/61/20 7/7/21 15/16/22
f 7/7/23 8/8/24 16/17/25 15/16/26
f 8/8/27 1/9/28 9/18/29 16/17/30
f 33/27/31 34/44/32 35/45/33
f 34/44/34 36/46/35 35/45/36
f 36/46/37 37/47/38 35/45/39
f 37/47/40 38/48/41 35/45/42
f 38/48/43 39/49/44 35/45/45
f 39/49/46 40/50/47 35/45/48
f 40/50/49 41/51/50 35/45/51
f 41/51/52 33/27/53 35/45/54
f 45/65/55 46/66/56 10/24/57
f 10/24/58 11/23/59 19/30/60 44/64/61 45/65/62
f 11/23/63 12/22/64 20/31/65 19/30/66
f 12/22/67 13/21/68 21/32/69 20/31/70
f 13/21/71 14/20/72 22/33/73 21/32/74
f 22/33/75 42/60/76 15/19/77 23/34/78
f 15/19/79 16/26/80 24/35/81 23/34/82
f 16/26/83 9/25/84 17/28/85 24/35/86
f 17/28/87 18/29/88 26/37/89 25/36/90
f 18/29/91 44/64/92 19/30/93 27/38/94 26/37/95
f 19/30/96 20/31/97 28/39/98 27/38/99
f 20/31/100 21/32/101 29/40/102 28/39/103
f 21/32/104 22/33/105 30/41/106 29/40/107
f 22/33/108 23/34/109 31/42/110 30/41/111
f 23/34/112 24/35/113 32/43/114 31/42/115
f 24/35/116 17/28/117 25/36/118 32/43/119
f 25/52/120 26/53/121 34/44/122 33/27/123
f 26/53/124 27/54/125 36/46/126 34/44/127
f 27/54/128 28/55/129 37/47/130 36/46/131
f 28/55/132 29/56/133 38/48/134 37/47/135
f 29/56/136 30/57/137 39/49/138 38/48/139
f 30/57/140 31/58/141 40/50/142 39/49/143
f 31/58/144 32/59/145 41/51/146 40/50/147
f 32/59/148 25/52/149 33/27/150 41/51/151
f 14/20/152 42/60/153 22/33/154
f 6/6/155 7/7/156 42/61/157 14/15/158
f 9/25/159 43/62/160 18/29/161 17/28/162
f 1/1/163 2/2/164 43/63/165 9/10/166
f 45/65/167 44/64/168 18/29/169
f 18/29/170 43/62/171 46/66/172 45/65/173
f 43/63/174 2/2/175 46/67/176
