# This file uses meters as units for non-parametric coordinates.

v 500.000000 0.000000 -500.000122
v 499.999512 0.000000 -374.999878
v 183.530762 -2.982971 -500.000153
v 192.578125 -0.265381 -374.729401
v 439.451172 0.030945 -500.000031
v 448.815430 -0.132690 -374.864624
v 436.708496 -2.982971 -500.000031
v 191.127441 -2.982971 -500.000153
v 436.708496 -0.199036 -374.796997
v 436.708496 -2.982971 -380.636627
v 191.127441 -2.982971 -381.477722
v 183.530762 -2.982971 -381.477722
v -0.000977 0.000000 -500.000122
v 499.999512 0.000000 0.000732
v 0.000000 0.000000 0.000000
v -0.000488 0.000000 -375.000122
v 499.999512 0.000000 -249.999695
v -0.000488 0.000000 -250.000061
v 499.999512 0.000000 -124.999512
v 0.000000 0.000000 -125.000000
v 60.547852 0.030945 -500.000031
v 51.183594 0.955322 -373.231842
v 53.405273 3.856384 -247.144211
v 50.109375 0.955322 -123.232346
v 58.094238 0.000000 -0.000004
v 196.695313 0.104858 -249.071213
v 186.430664 0.009644 -123.987244
v 186.430664 0.009644 -0.000004
v 183.530762 -2.982971 -247.974777
v 183.530762 -2.982971 0.000301
v 63.290527 -2.982971 0.000301
v 63.290527 -2.982971 -246.463547
v 63.290527 -2.982971 -500.000031
v 63.290527 -2.982971 -123.231613
v 183.530762 -2.982971 -123.987244
v 63.290527 -2.982971 -373.231873
v 183.530762 -2.982971 -373.987488
v 183.530762 -2.982971 -131.476624
v 63.290527 -2.982971 -129.083664
v 63.290527 -2.982971 -380.636627
vt 0.166646 0.302939
vt 0.166646 0.302939
vt 0.166646 0.302939
vt 0.166646 0.302939
vt 0.167189 0.303665
vt 0.167189 0.303665
vt 0.167189 0.303665
vt 0.166646 0.302939
vt 0.166646 0.302939
vt 0.167189 0.303665
vt 0.167189 0.303665
vt 0.167189 0.303665
vt 0.167189 0.303665
vt 0.102306 0.329199
vt 0.102302 0.328984
vt 0.102523 0.328979
vt 0.102526 0.329195
vt 0.102285 0.303037
vt 0.102285 0.303037
vt 0.166646 0.302939
vt 0.102285 0.303037
vt 0.102285 0.303037
vt 0.166646 0.302939
vt 0.166646 0.302939
vt 0.166646 0.302939
vt 0.166646 0.302939
vt 0.166646 0.302939
vt 0.166646 0.302939
vt 0.166646 0.302939
vt 0.166646 0.302939
vt 0.166646 0.302939
vt 0.166646 0.302939
vt 0.166646 0.302939
vt 0.166646 0.302939
vt 0.166646 0.302939
vt 0.166646 0.302939
vt 0.166646 0.302939
vt 0.166646 0.302939
vt 0.166646 0.302939
vt 0.166646 0.302939
vt 0.166646 0.302939
vt 0.166646 0.302939
vt 0.166646 0.302939
vt 0.166646 0.302939
vt 0.166646 0.302939
vt 0.166646 0.302939
vt 0.166646 0.302939
vt 0.166646 0.302939
vt 0.166646 0.302939
vt 0.166646 0.302939
vt 0.166646 0.302939
vt 0.166646 0.302939
vt 0.166646 0.302939
vt 0.102349 0.303336
vt 0.102350 0.303271
vt 0.102354 0.303272
vt 0.102352 0.303336
vt 0.102214 0.303332
vt 0.102215 0.303267
vt 0.102220 0.303267
vt 0.102218 0.303332
vt 0.166646 0.302939
vt 0.166646 0.302939
vt 0.166646 0.302939
vt 0.102514 0.328524
vt 0.102294 0.328530
vt 0.102290 0.328309
vt 0.102510 0.328305
vt 0.166646 0.302939
vt 0.166646 0.302939
vt 0.166646 0.302939
vt 0.166646 0.302939
vt 0.102522 0.328969
vt 0.102302 0.328975
vt 0.102298 0.328750
vt 0.102518 0.328744
vt 0.166646 0.302939
vt 0.166646 0.302939
vt 0.102294 0.328538
vt 0.102514 0.328530
vt 0.102306 0.329199
vt 0.102302 0.328984
vt 0.102523 0.328979
vt 0.102526 0.329195
vt 0.166646 0.302939
vt 0.166646 0.302939
vt 0.166646 0.302939
vt 0.166646 0.302939
vt 0.166646 0.302939
vt 0.166646 0.302939
vn -0.000910 0.999999 0.000688
vn -0.000910 0.999999 0.000688
vn -0.000910 0.999999 0.000688
vn -0.000910 0.999999 0.000688
vn -0.007351 0.902647 -0.430319
vn -0.007351 0.902647 -0.430319
vn -0.007351 0.902647 -0.430319
vn 0.000509 0.916288 -0.400520
vn 0.000509 0.916288 -0.400520
vn 0.000509 0.916288 -0.400520
vn 0.000509 0.916288 -0.400520
vn 0.000000 1.000000 0.000000
vn 0.000000 1.000000 0.000000
vn 0.000000 1.000000 0.000000
vn 0.000000 1.000000 0.000000
vn 0.000000 0.927609 -0.373553
vn 0.000000 0.927609 -0.373553
vn 0.000000 0.927609 -0.373553
vn -0.001612 0.999998 -0.001192
vn -0.240732 0.970406 0.018971
vn -0.237720 0.971147 0.019059
vn 0.000000 1.000000 0.000000
vn 0.000000 1.000000 0.000000
vn 0.000000 1.000000 0.000000
vn 0.000000 1.000000 0.000000
vn -0.739604 0.673042 0.000000
vn -0.240732 0.970406 0.018971
vn -0.001612 0.999998 -0.001192
vn 0.000031 1.000000 0.000000
vn 0.000031 1.000000 0.000000
vn 0.000031 1.000000 0.000000
vn 0.000031 1.000000 0.000000
vn -0.002592 0.999997 0.000000
vn -0.002592 0.999997 0.000000
vn -0.002592 0.999997 0.000000
vn 0.000187 1.000000 0.000388
vn 0.000187 1.000000 0.000388
vn 0.000187 1.000000 0.000388
vn 0.000187 1.000000 0.000388
vn -0.008763 0.999954 -0.003997
vn -0.008763 0.999954 -0.003997
vn -0.008763 0.999954 -0.003997
vn -0.008763 0.999954 -0.003997
vn -0.045463 0.998904 -0.011139
vn -0.045463 0.998904 -0.011139
vn -0.045463 0.998904 -0.011139
vn -0.045463 0.998904 -0.011139
vn -0.046921 0.998838 0.011020
vn -0.046921 0.998838 0.011020
vn -0.046921 0.998838 0.011020
vn -0.046921 0.998838 0.011020
vn -0.008896 0.999952 0.004134
vn -0.008896 0.999952 0.004134
vn -0.008896 0.999952 0.004134
vn -0.008896 0.999952 0.004134
vn -0.718143 0.695895 0.000000
vn -0.718143 0.695895 0.000000
vn -0.718143 0.695895 0.000000
vn -0.287678 0.957727 0.000000
vn -0.287677 0.957727 0.000000
vn -0.287677 0.957727 0.000000
vn 0.309338 0.950952 0.000000
vn 0.309338 0.950952 0.000000
vn 0.309338 0.950952 0.000000
vn 0.426326 0.904415 0.016697
vn 0.426326 0.904415 0.016697
vn 0.426326 0.904415 0.016697
vn 0.426326 0.904416 0.016697
vn 0.000000 1.000000 0.000000
vn 0.000000 1.000000 0.000000
vn 0.000000 1.000000 0.000000
vn 0.000000 1.000000 0.000000
vn 0.000000 1.000000 0.000000
vn 0.000000 1.000000 0.000000
vn 0.000000 1.000000 0.000000
vn 0.000000 1.000000 0.000000
vn 0.352440 0.935802 -0.007791
vn 0.352440 0.935802 -0.007791
vn 0.352440 0.935802 -0.007791
vn 0.352440 0.935802 -0.007791
vn 0.000000 1.000000 0.000000
vn 0.000000 1.000000 0.000000
vn 0.000000 1.000000 0.000000
vn 0.000000 1.000000 0.000000
vn -0.718144 0.695895 0.000000
vn -0.718144 0.695895 0.000000
vn -0.718144 0.695895 0.000000
vn 0.000000 1.000000 0.000000
vn 0.440373 0.897703 -0.014169
vn 0.440373 0.897703 -0.014169
vn 0.440373 0.897703 -0.014169
vn 0.440373 0.897703 -0.014169
vn 0.000000 1.000000 0.000000
vn 0.000000 1.000000 0.000000
vn 0.000000 1.000000 0.000000
vn 0.000000 1.000000 0.000000
vn -0.252660 0.967551 0.002710
vn -0.252660 0.967551 0.002710
vn -0.252660 0.967551 0.002710
vn -0.001612 0.999998 -0.001192
vn 0.000000 1.000000 0.000000
vn 0.000000 1.000000 0.000000
vn 0.000000 1.000000 0.000000
vn 0.000000 1.000000 0.000000
vn 0.000000 1.000000 0.000000
vn 0.000000 1.000000 0.000000
vn 0.000000 1.000000 0.000000
vn 0.000000 1.000000 0.000000
vn 0.429256 0.903090 0.012940
vn 0.429256 0.903090 0.012940
vn 0.429256 0.903090 0.012940
vn 0.429256 0.903090 0.012940
vn -0.348920 0.937041 -0.014456
vn -0.348920 0.937041 -0.014456
vn -0.348920 0.937041 -0.014456
vn 0.000000 1.000000 0.000000
vn 0.286277 0.958147 0.000000
vn 0.286278 0.958147 0.000000
vn 0.286277 0.958147 0.000000
vn 0.000066 0.999997 -0.002291
vn 0.000066 0.999997 -0.002291
vn 0.000066 0.999997 -0.002291
vn 0.000066 0.999997 -0.002291
vn -0.005473 0.999984 0.001181
vn -0.005473 0.999984 0.001181
vn -0.005473 0.999984 0.001181
s off
f 1/1/1 5/3/2 6/4/3 2/2/4
f 6/5/5 10/6/6 9/7/7
f 10/6/8 11/10/9 4/11/10 9/7/11
f 8/14/12 11/15/13 10/16/14 7/17/15
f 11/8/16 12/20/17 4/9/18
f 5/13/19 10/6/20 6/5/21
f 3/18/22 12/19/23 11/21/24 8/22/25
f 7/12/26 10/6/27 5/13/28
f 19/23/29 27/24/30 28/25/31 14/26/32
f 17/27/33 2/28/34 6/29/35
f 19/23/36 17/27/37 26/30/38 27/24/39
f 21/31/40 13/32/41 16/33/42 22/34/43
f 23/35/44 22/34/45 16/33/46 18/36/47
f 24/37/48 23/35/49 18/36/50 20/38/51
f 25/39/52 24/37/53 20/38/54 15/40/55
f 27/41/56 38/42/57 35/43/58
f 4/44/59 12/45/60 37/46/61
f 40/47/62 22/48/63 36/49/64
f 23/50/65 24/51/66 39/52/67 32/53/68
f 38/54/69 39/55/70 34/56/71 35/57/72
f 12/58/73 40/59/74 36/60/75 37/61/76
f 34/62/77 24/51/78 25/63/79 31/64/80
f 35/65/81 34/66/82 31/67/83 30/68/84
f 27/41/85 35/43/86 30/69/87 28/70/88
f 36/49/89 22/48/90 23/71/91 32/72/92
f 37/73/93 36/74/94 32/75/95 29/76/96
f 4/44/97 37/46/98 29/77/99 26/78/100
f 32/75/101 39/79/102 38/80/103 29/76/104
f 33/81/105 40/82/106 12/83/107 3/84/108
f 21/85/109 22/48/110 40/47/111 33/86/112
f 29/87/113 38/42/114 27/41/115 26/88/116
f 39/52/117 24/51/118 34/62/119
f 17/27/120 9/89/121 4/90/122 26/30/123
f 17/27/124 6/29/125 9/89/126
