# This file uses meters as units for non-parametric coordinates.

v 3.265137 0.000000 -235.495911
v 0.000000 0.000000 0.000000
v 115.535339 0.000000 -232.092957
v 125.000000 0.000000 0.000000
v 12.526184 17.405235 -229.176331
v 12.374390 15.993290 0.000000
v 101.797180 17.794170 -221.894348
v 112.625610 15.993290 0.000000
v 0.000732 0.000000 -119.777527
v 14.315552 15.621605 -119.000000
v 64.454224 0.000000 -249.999451
v 61.719910 17.523499 -230.130432
v 125.000732 0.281049 -115.849792
v 115.811890 18.954622 -114.050598
v 110.971497 20.310146 -207.013855
v 8.090088 16.084103 -218.358582
v 32.570129 19.614775 -231.335876
v 83.570618 21.394394 -227.649719
v 11.021301 16.507177 -172.903503
v 11.048096 16.408026 -52.842041
v 112.663086 19.693348 -168.130737
v 111.966064 18.911928 -44.170654
v 62.860046 24.690681 -117.786255
v 62.500000 16.785351 0.000000
v 91.761658 18.722771 -136.039856
v 87.073059 18.884941 0.000000
v 22.186707 13.088015 -101.481201
v 37.926880 18.884941 0.000000
v 36.754822 22.132654 -49.670654
v 70.156982 19.060642 -61.501221
v 93.689270 19.210590 -88.695313
v 85.158447 19.997015 -199.922974
v 62.513306 15.795935 -169.878906
v 30.195190 16.806847 -143.220276
v 29.840637 13.918627 -101.310303
v 26.651123 19.431597 -81.879944
v 55.728149 18.331896 -95.596924
v 27.879089 0.000000 -249.999512
v 0.000732 0.000000 -214.522888
v 14.112122 0.000000 -245.776855
v 95.874329 0.000000 -243.728699
v 123.050293 0.079587 -205.740356
vt 0.038589 0.254350
vt 0.038568 0.254350
vt 0.038589 0.254328
vt 0.038568 0.254328
vt 0.038587 0.254347
vt 0.038568 0.254346
vt 0.038587 0.254331
vt 0.038568 0.254331
vt 0.038578 0.254350
vt 0.038577 0.254346
vt 0.038589 0.254339
vt 0.038587 0.254339
vt 0.038578 0.254328
vt 0.038577 0.254331
vt 0.038586 0.254331
vt 0.038586 0.254347
vt 0.038587 0.254343
vt 0.038587 0.254335
vt 0.038582 0.254347
vt 0.038572 0.254346
vt 0.038582 0.254331
vt 0.038571 0.254331
vt 0.038577 0.254339
vt 0.038568 0.254338
vt 0.038577 0.254335
vt 0.038568 0.254335
vt 0.038577 0.254343
vt 0.038568 0.254342
vt 0.038572 0.254343
vt 0.038572 0.254338
vt 0.038572 0.254335
vt 0.038582 0.254335
vt 0.038582 0.254339
vt 0.038582 0.254343
vt 0.038577 0.254342
vt 0.038575 0.254343
vt 0.038575 0.254340
vt 0.038589 0.254345
vt 0.038586 0.254350
vt 0.038589 0.254347
vt 0.038589 0.254333
vt 0.038586 0.254328
vn 0.821874 0.569668 0.001387
vn 0.821874 0.569668 0.001387
vn 0.821874 0.569668 0.001387
vn -0.849935 0.526640 0.016181
vn -0.849935 0.526640 0.016181
vn -0.849935 0.526640 0.016181
vn -0.849935 0.526640 0.016181
vn 0.149157 0.647459 -0.747362
vn 0.149157 0.647459 -0.747362
vn 0.149157 0.647459 -0.747362
vn -0.017951 0.999667 0.018543
vn -0.017951 0.999667 0.018543
vn -0.017951 0.999667 0.018543
vn -0.017951 0.999667 0.018543
vn -0.735445 0.676131 -0.044360
vn -0.735445 0.676131 -0.044360
vn -0.735445 0.676131 -0.044360
vn 0.081027 0.753027 -0.652982
vn 0.081027 0.753027 -0.652982
vn 0.081027 0.753027 -0.652982
vn 0.555788 0.692613 -0.459767
vn 0.555788 0.692614 -0.459767
vn 0.555788 0.692613 -0.459767
vn 0.839904 0.486301 -0.240984
vn 0.839904 0.486301 -0.240984
vn 0.839904 0.486301 -0.240984
vn -0.807298 0.526409 -0.266765
vn -0.807298 0.526409 -0.266765
vn -0.807298 0.526409 -0.266765
vn -0.582157 0.532767 -0.614209
vn -0.582157 0.532767 -0.614209
vn -0.582157 0.532767 -0.614209
vn -0.056495 0.744920 -0.664758
vn -0.056495 0.744920 -0.664758
vn -0.056495 0.744920 -0.664758
vn -0.737499 0.673012 0.056128
vn -0.737499 0.673012 0.056128
vn -0.737499 0.673012 0.056128
vn -0.790663 0.611755 0.024646
vn -0.790663 0.611755 0.024646
vn -0.790663 0.611755 0.024646
vn -0.829496 0.558512 -0.000005
vn -0.829496 0.558512 -0.000005
vn -0.829496 0.558512 -0.000005
vn 0.894539 0.444616 -0.046011
vn 0.894539 0.444616 -0.046011
vn 0.894539 0.444616 -0.046011
vn 0.898032 0.437114 0.049690
vn 0.898032 0.437114 0.049690
vn 0.898032 0.437114 0.049690
vn 0.790580 0.611690 0.028614
vn 0.790580 0.611690 0.028614
vn 0.790580 0.611690 0.028614
vn -0.000228 0.999947 -0.010294
vn -0.000228 0.999947 -0.010294
vn -0.000228 0.999947 -0.010294
vn -0.187798 0.980208 -0.062648
vn -0.187798 0.980208 -0.062648
vn -0.187798 0.980208 -0.062648
vn -0.187798 0.980208 -0.062648
vn 0.299439 0.954109 0.003447
vn 0.299439 0.954109 0.003447
vn 0.299439 0.954109 0.003447
vn -0.025777 0.997617 -0.064006
vn -0.025777 0.997617 -0.064006
vn -0.025777 0.997617 -0.064006
vn -0.025777 0.997617 -0.064006
vn 0.141407 0.989278 0.036502
vn 0.141407 0.989278 0.036502
vn 0.141407 0.989278 0.036502
vn 0.141407 0.989278 0.036502
vn -0.001308 0.998846 0.048022
vn -0.001308 0.998846 0.048022
vn -0.001308 0.998846 0.048022
vn -0.001308 0.998845 0.048022
vn -0.208612 0.955869 0.206872
vn -0.208612 0.955869 0.206872
vn -0.208612 0.955869 0.206872
vn -0.168002 0.985004 0.039285
vn -0.168002 0.985004 0.039285
vn -0.168002 0.985004 0.039285
vn -0.168002 0.985004 0.039285
vn 0.099881 0.993468 0.055182
vn 0.099881 0.993468 0.055182
vn 0.099881 0.993468 0.055182
vn 0.099881 0.993468 0.055182
vn -0.002330 0.999991 0.003498
vn -0.002330 0.999991 0.003498
vn -0.002330 0.999991 0.003498
vn 0.006259 0.999972 0.004138
vn 0.006259 0.999972 0.004138
vn 0.006259 0.999972 0.004138
vn -0.003771 0.999530 0.030410
vn -0.003771 0.999530 0.030410
vn -0.003771 0.999530 0.030410
vn -0.003771 0.999530 0.030410
vn -0.109436 0.992399 0.056282
vn -0.109436 0.992399 0.056282
vn -0.109436 0.992399 0.056282
vn 0.063249 0.997511 0.031167
vn 0.063249 0.997511 0.031167
vn 0.063249 0.997511 0.031167
vn 0.063249 0.997511 0.031167
vn -0.094730 0.995254 0.022279
vn -0.094730 0.995254 0.022279
vn -0.094730 0.995254 0.022279
vn -0.094730 0.995254 0.022279
vn -0.094730 0.995254 0.022279
vn -0.109130 0.991738 0.067422
vn -0.109130 0.991738 0.067422
vn -0.109130 0.991738 0.067422
vn -0.097047 0.953189 -0.286378
vn -0.097047 0.953189 -0.286379
vn -0.097047 0.953189 -0.286379
vn 0.281220 0.902578 -0.325988
vn 0.281220 0.902578 -0.325988
vn 0.281220 0.902578 -0.325988
vn -0.177716 0.983608 0.030543
vn -0.177716 0.983608 0.030543
vn -0.177716 0.983608 0.030543
vn 0.013096 0.999913 0.001332
vn 0.013096 0.999913 0.001332
vn 0.013096 0.999913 0.001332
vn 0.112218 0.991630 0.063848
vn 0.112218 0.991630 0.063848
vn 0.112218 0.991630 0.063848
vn -0.085103 0.996026 0.026253
vn -0.085103 0.996026 0.026253
vn -0.085103 0.996026 0.026253
vn -0.215671 0.976362 -0.014224
vn -0.215671 0.976362 -0.014224
vn -0.215671 0.976362 -0.014224
vn -0.480989 0.860309 -0.168872
vn -0.480989 0.860309 -0.168872
vn -0.480989 0.860309 -0.168872
vn 0.378503 0.904909 -0.194617
vn 0.378503 0.904908 -0.194617
vn 0.378503 0.904909 -0.194617
vn 0.073102 0.995956 -0.052223
vn 0.073102 0.995956 -0.052223
vn 0.073102 0.995956 -0.052223
vn -0.136841 0.980973 -0.137716
vn -0.136841 0.980973 -0.137716
vn -0.136841 0.980973 -0.137716
vn -0.378381 0.914914 0.140571
vn -0.378381 0.914914 0.140571
vn -0.378381 0.914914 0.140571
vn 0.000001 0.689324 -0.724454
vn 0.000001 0.689324 -0.724454
vn 0.000001 0.689324 -0.724454
vn -0.897586 0.418116 -0.139707
vn -0.897586 0.418116 -0.139707
vn -0.897586 0.418116 -0.139707
vn -0.177943 0.686503 -0.705017
vn -0.177944 0.686503 -0.705017
vn -0.177944 0.686503 -0.705017
vn -0.177944 0.686503 -0.705017
vn 0.360491 0.672778 -0.646077
vn 0.360491 0.672778 -0.646077
vn 0.360491 0.672778 -0.646077
vn 0.360491 0.672778 -0.646077
vn 0.864719 0.501737 -0.022838
vn 0.864719 0.501737 -0.022838
vn 0.864719 0.501737 -0.022838
vn 0.864719 0.501737 -0.022838
s off
f 13/13/1 22/22/2 4/4/3
f 16/16/4 39/39/5 9/9/6 19/19/7
f 18/18/8 41/41/9 11/11/10
f 21/21/11 32/32/12 25/25/13 14/14/14
f 10/10/15 9/9/16 20/20/17
f 11/11/18 17/17/19 12/12/20
f 7/7/21 15/15/22 3/3/23
f 3/3/24 15/15/25 42/42/26
f 1/1/27 16/16/28 5/5/29
f 1/1/30 5/5/31 40/40/32
f 11/11/33 12/12/34 18/18/35
f 19/19/36 9/9/37 10/10/38
f 20/20/39 2/2/40 6/6/41
f 20/20/42 9/9/43 2/2/44
f 13/13/45 21/21/46 14/14/47
f 13/13/48 14/14/49 22/22/50
f 4/4/51 22/22/52 8/8/53
f 31/31/54 14/14/55 25/25/56
f 33/33/57 34/34/58 35/35/59 23/23/60
f 20/20/61 27/27/62 10/10/63
f 32/32/64 33/33/65 23/23/66 25/25/67
f 30/30/68 31/31/69 25/25/70 23/23/71
f 10/10/72 27/27/73 34/34/74 19/19/75
f 35/35/76 37/37/77 23/23/78
f 28/28/79 29/29/80 20/20/81 6/6/82
f 24/24/83 30/30/84 29/29/85 28/28/86
f 26/26/87 31/31/88 30/30/89
f 26/26/90 22/22/91 31/31/92
f 18/18/93 32/32/94 21/21/95 15/15/96
f 18/18/97 33/33/98 32/32/99
f 17/17/100 34/34/101 33/33/102 12/12/103
f 19/19/104 34/34/105 17/17/106 5/5/107 16/16/108
f 35/35/109 34/34/110 27/27/111
f 36/36/112 35/35/113 27/27/114
f 18/18/115 15/15/116 7/7/117
f 12/12/118 33/33/119 18/18/120
f 31/31/121 22/22/122 14/14/123
f 8/8/124 22/22/125 26/26/126
f 26/26/127 30/30/128 24/24/129
f 20/20/130 29/29/131 36/36/132
f 20/20/133 36/36/134 27/27/135
f 29/29/136 35/35/137 36/36/138
f 29/29/139 30/30/140 37/37/141
f 29/29/142 37/37/143 35/35/144
f 23/23/145 37/37/146 30/30/147
f 38/38/148 17/17/149 11/11/150
f 1/1/151 39/39/152 16/16/153
f 40/40/154 5/5/155 17/17/156 38/38/157
f 3/3/158 41/41/159 18/18/160 7/7/161
f 42/42/162 15/15/163 21/21/164 13/13/165
