# This file uses meters as units for non-parametric coordinates.

v -29.396667 0.000000 8.533051
v -29.855408 0.000000 12.593475
v -29.322571 11.401712 11.243195
v -29.671570 8.638693 14.453247
v -26.136108 10.394812 10.945129
v -26.485046 7.631822 14.155121
v -25.336121 0.000000 8.991913
v -25.794983 0.000000 13.052216
v -25.836853 12.768476 18.812408
v -40.979370 0.000000 0.086884
v -42.698730 0.000000 3.628235
v -42.230530 8.421992 0.869659
v -43.753784 5.890574 4.439667
v -38.260437 8.874754 2.892334
v -39.783630 6.343329 6.462250
v -37.437927 0.000000 1.806152
v -39.157471 0.000000 5.347778
v -45.255310 14.612160 7.071808
v -27.528442 0.000000 2.318756
v -31.584534 0.000000 -0.243530
v -26.631897 27.132002 6.618439
v -29.911072 27.162006 3.716949
v -29.098694 24.070206 9.276123
v -32.521912 26.233149 7.482056
v -30.091003 0.000000 6.374908
v -34.146973 0.000000 3.812408
v -27.155334 40.419304 10.466095
v -28.710388 12.006287 6.405304
v -32.446594 14.852692 4.757721
v -29.754211 15.612840 0.282562
v -25.698181 14.295151 3.033325
v 38.546265 0.000000 2.963928
v 41.258423 0.000000 6.143646
v 38.775085 10.109510 4.513824
v 41.598328 7.070870 7.514862
v 42.431946 10.652992 1.514130
v 45.255249 7.614345 4.515106
v 41.725891 0.000000 0.251770
v 44.438049 0.000000 3.431610
v 43.518982 17.540003 10.095612
v -20.778381 0.000000 5.335602
v -17.754211 0.000000 1.131042
v -18.614197 14.332927 5.107697
v -16.763245 15.867361 -0.200134
v -23.002502 15.996199 3.371521
v -21.151550 17.530600 -1.936310
v -24.983215 0.000000 2.311432
v -21.958801 0.000000 -1.893311
v -16.785950 24.552080 5.027313
v 14.734314 0.000000 9.717407
v 18.653687 0.000000 10.085999
v 15.906189 8.421992 10.614594
v 19.783447 5.890574 10.789459
v 16.408264 8.874754 6.187408
v 20.285706 6.343329 6.362213
v 15.102722 0.000000 5.797882
v 19.022461 0.000000 6.166443
v 22.775024 14.612160 11.272736
v 21.826599 0.000000 3.668121
v 25.992249 0.000000 4.005219
v 23.083008 10.109510 4.604218
v 27.201111 7.070870 4.736237
v 23.554871 10.652992 -0.102020
v 27.673096 7.614345 0.029999
v 22.163757 0.000000 -0.497467
v 26.329468 0.000000 -0.160431
v 30.383362 17.540003 5.208038
v 13.793884 0.000000 1.767609
v 9.201233 0.000000 0.380585
v 20.660339 22.961994 5.124542
v 17.321594 25.521931 3.910553
v 17.548279 19.887194 6.963867
v 15.214600 23.595188 7.612335
v 12.406677 0.000000 6.360504
v 7.814026 0.000000 4.973358
v 26.759033 31.612249 14.046844
v 13.745361 12.006287 6.021393
v 9.704773 14.852692 5.430573
v 11.105347 15.612840 0.399200
v 15.748535 14.295151 1.967834
v 5.394470 0.000000 6.850708
v 5.455017 0.000000 10.787018
v 4.630188 8.421992 8.113403
v 4.878723 5.890574 11.986633
v 9.085754 8.874754 8.130341
v 9.334351 6.343329 12.003662
v 9.330750 0.000000 6.790100
v 9.391296 0.000000 10.726593
v 4.724182 14.612160 15.013092
v -4.411743 0.000000 3.402985
v -6.091187 0.000000 -1.091278
v -3.880188 10.236644 5.999268
v -5.668579 12.557611 1.316071
v -8.691101 7.164664 6.442657
v -10.900574 11.750985 3.721527
v -8.905945 0.000000 5.082458
v -10.585388 0.000000 0.588318
v -5.841248 17.940256 12.100739
vt 0.166810 0.303526
vt 0.166810 0.303526
vt 0.166810 0.303526
vt 0.166810 0.303526
vt 0.166810 0.303526
vt 0.166810 0.303526
vt 0.166810 0.303526
vt 0.166810 0.303526
vt 0.166810 0.303526
vt 0.166810 0.303526
vt 0.166810 0.303526
vt 0.166810 0.303526
vt 0.166810 0.303526
vt 0.166810 0.303526
vt 0.166810 0.303526
vt 0.166810 0.303526
vt 0.166810 0.303526
vt 0.166810 0.303526
vt 0.166810 0.303526
vt 0.166810 0.303526
vt 0.166810 0.303526
vt 0.166810 0.303526
vt 0.166810 0.303526
vt 0.166810 0.303526
vt 0.166810 0.303526
vt 0.166810 0.303526
vt 0.166810 0.303526
vt 0.166810 0.303526
vt 0.166810 0.303526
vt 0.166810 0.303526
vt 0.166810 0.303526
vt 0.166810 0.303526
vt 0.166810 0.303526
vt 0.166810 0.303526
vt 0.166810 0.303526
vt 0.166810 0.303526
vt 0.166810 0.303526
vt 0.166810 0.303526
vt 0.166810 0.303526
vt 0.166810 0.303526
vt 0.166810 0.303526
vt 0.166810 0.303526
vt 0.166810 0.303526
vt 0.166810 0.303526
vt 0.166810 0.303526
vt 0.166810 0.303526
vt 0.166810 0.303526
vt 0.166810 0.303526
vt 0.166810 0.303526
vt 0.166810 0.303526
vt 0.166810 0.303526
vt 0.166810 0.303526
vt 0.166810 0.303526
vt 0.166810 0.303526
vt 0.166810 0.303526
vt 0.166810 0.303526
vt 0.166810 0.303526
vt 0.166810 0.303526
vt 0.166810 0.303526
vt 0.166810 0.303526
vt 0.166810 0.303526
vt 0.166810 0.303526
vt 0.166810 0.303526
vt 0.166810 0.303526
vt 0.166810 0.303526
vt 0.166810 0.303526
vt 0.166810 0.303526
vt 0.166810 0.303526
vt 0.166810 0.303526
vt 0.166810 0.303526
vt 0.166810 0.303526
vt 0.166810 0.303526
vt 0.166810 0.303526
vt 0.166810 0.303526
vt 0.166810 0.303526
vt 0.166810 0.303526
vt 0.166810 0.303526
vt 0.166810 0.303526
vt 0.166810 0.303526
vt 0.166810 0.303526
vt 0.166810 0.303526
vt 0.166810 0.303526
vt 0.166810 0.303526
vt 0.166810 0.303526
vt 0.166810 0.303526
vt 0.166810 0.303526
vt 0.166810 0.303526
vt 0.166810 0.303526
vt 0.166810 0.303526
vt 0.166810 0.303526
vt 0.166810 0.303526
vt 0.166810 0.303526
vt 0.166810 0.303526
vt 0.166810 0.303526
vt 0.166810 0.303526
vt 0.166810 0.303526
vt 0.166810 0.303526
vt 0.166810 0.303526
vt 0.166810 0.303526
vt 0.166810 0.303526
vt 0.166810 0.303526
vt 0.166810 0.303526
vt 0.166810 0.303526
vt 0.166810 0.303526
vt 0.166810 0.303526
vt 0.166810 0.303526
vt 0.166810 0.303526
vt 0.166810 0.303526
vt 0.166810 0.303526
vt 0.166810 0.303526
vt 0.166810 0.303526
vt 0.166810 0.303526
vt 0.166810 0.303526
vt 0.166810 0.303526
vt 0.166810 0.303526
vt 0.166810 0.303526
vt 0.166810 0.303526
vt 0.166810 0.303526
vt 0.166810 0.303526
vt 0.166810 0.303526
vt 0.166810 0.303526
vt 0.166810 0.303526
vt 0.166810 0.303526
vt 0.166810 0.303526
vt 0.166810 0.303526
vt 0.166810 0.303526
vt 0.166810 0.303526
vt 0.166810 0.303526
vt 0.166810 0.303526
vt 0.166810 0.303526
vt 0.166810 0.303526
vt 0.166810 0.303526
vt 0.166810 0.303526
vt 0.166810 0.303526
vt 0.166810 0.303526
vt 0.166810 0.303526
vt 0.166810 0.303526
vt 0.166810 0.303526
vt 0.166810 0.303526
vt 0.166810 0.303526
vt 0.166810 0.303526
vt 0.166810 0.303526
vn -0.994649 0.034970 -0.097214
vn -0.994649 0.034970 -0.097214
vn -0.994649 0.034970 -0.097214
vn -0.994649 0.034970 -0.097214
vn 0.989409 0.059323 0.132478
vn 0.989409 0.059323 0.132478
vn 0.989409 0.059323 0.132478
vn 0.989409 0.059323 0.132478
vn -0.046833 -0.180357 0.982486
vn -0.046833 -0.180357 0.982486
vn -0.046833 -0.180357 0.982486
vn -0.046833 -0.180357 0.982486
vn 0.050917 0.210565 -0.976253
vn 0.050917 0.210565 -0.976253
vn 0.050917 0.210565 -0.976253
vn 0.050917 0.210565 -0.976253
vn -0.836321 0.457176 0.302585
vn -0.836321 0.457176 0.302584
vn -0.836321 0.457176 0.302585
vn -0.137732 -0.655697 0.742356
vn -0.137732 -0.655697 0.742356
vn -0.137732 -0.655697 0.742356
vn 0.992127 -0.125239 0.000048
vn 0.992127 -0.125239 0.000048
vn 0.992127 -0.125239 0.000048
vn 0.263980 0.920591 -0.287796
vn 0.263980 0.920591 -0.287796
vn 0.263980 0.920591 -0.287796
vn -0.892622 -0.094738 -0.440739
vn -0.892622 -0.094738 -0.440739
vn -0.892622 -0.094738 -0.440739
vn -0.892622 -0.094738 -0.440739
vn 0.906166 0.025213 0.422170
vn 0.906166 0.025213 0.422170
vn 0.906166 0.025213 0.422170
vn 0.906166 0.025213 0.422170
vn -0.427555 -0.197623 0.882123
vn -0.427555 -0.197623 0.882123
vn -0.427555 -0.197623 0.882123
vn -0.427555 -0.197623 0.882124
vn 0.433818 0.148042 -0.888755
vn 0.433818 0.148042 -0.888755
vn 0.433818 0.148042 -0.888755
vn 0.433818 0.148042 -0.888755
vn -0.910747 -0.032552 -0.411680
vn -0.910747 -0.032552 -0.411680
vn -0.910747 -0.032552 -0.411680
vn -0.399056 -0.327208 0.856557
vn -0.399056 -0.327208 0.856557
vn -0.399056 -0.327208 0.856557
vn 0.692771 0.414942 0.589823
vn 0.692771 0.414942 0.589823
vn 0.692771 0.414942 0.589823
vn 0.234703 0.742858 -0.626958
vn 0.234703 0.742858 -0.626958
vn 0.234703 0.742858 -0.626958
vn 0.544000 -0.031800 -0.838482
vn 0.544000 -0.031800 -0.838482
vn 0.587452 0.102880 -0.802693
vn 0.580596 0.078937 -0.810356
vn -0.492074 -0.045008 0.869389
vn -0.514306 -0.117719 0.849489
vn -0.469081 0.021736 0.882888
vn -0.469081 0.021736 0.882888
vn -0.849815 0.123237 -0.512472
vn -0.849815 0.123237 -0.512472
vn -0.848079 0.126274 -0.514604
vn -0.847980 0.126446 -0.514725
vn 0.811206 -0.115270 0.573287
vn 0.811206 -0.115270 0.573287
vn 0.794687 -0.115973 0.595838
vn 0.801329 -0.115704 0.586928
vn 0.645176 0.235855 -0.726719
vn 0.645176 0.235855 -0.726719
vn 0.645176 0.235855 -0.726719
vn -0.797130 0.397210 -0.454762
vn -0.797130 0.397210 -0.454762
vn -0.797130 0.397210 -0.454762
vn -0.468450 -0.008619 0.883448
vn -0.468450 -0.008619 0.883448
vn -0.468450 -0.008619 0.883448
vn 0.799996 -0.137600 0.584014
vn 0.799996 -0.137600 0.584014
vn 0.799996 -0.137600 0.584014
vn -0.537216 -0.205832 0.817944
vn -0.537216 -0.205832 0.817944
vn -0.514306 -0.117719 0.849489
vn -0.492074 -0.045008 0.869389
vn -0.847980 0.126446 -0.514725
vn -0.848079 0.126274 -0.514604
vn -0.845672 0.130438 -0.517517
vn -0.845672 0.130438 -0.517517
vn 0.580596 0.078937 -0.810356
vn 0.587452 0.102880 -0.802693
vn 0.619716 0.242565 -0.746400
vn 0.619716 0.242565 -0.746400
vn 0.801329 -0.115704 0.586928
vn 0.794687 -0.115973 0.595838
vn 0.784279 -0.116358 0.609400
vn 0.784279 -0.116358 0.609400
vn -0.762438 -0.083851 0.641606
vn -0.762438 -0.083851 0.641606
vn -0.762438 -0.083851 0.641606
vn -0.762438 -0.083851 0.641606
vn 0.750168 0.022314 -0.660871
vn 0.750168 0.022314 -0.660871
vn 0.750168 0.022314 -0.660871
vn 0.750168 0.022314 -0.660871
vn 0.639383 -0.175510 0.748589
vn 0.639383 -0.175510 0.748589
vn 0.639383 -0.175510 0.748589
vn 0.639383 -0.175510 0.748589
vn -0.641741 0.131242 -0.755608
vn -0.641741 0.131242 -0.755609
vn -0.641741 0.131242 -0.755608
vn -0.641741 0.131242 -0.755608
vn -0.742432 -0.028784 0.669302
vn -0.742432 -0.028784 0.669302
vn -0.742432 -0.028784 0.669302
vn 0.632055 -0.292820 0.717470
vn 0.632055 -0.292820 0.717470
vn 0.632055 -0.292820 0.717470
vn 0.833915 0.374035 -0.405813
vn 0.833915 0.374035 -0.405813
vn 0.833915 0.374035 -0.405813
vn -0.511997 0.700421 -0.497262
vn -0.511997 0.700421 -0.497262
vn -0.511997 0.700421 -0.497262
vn 0.892288 -0.070198 0.445976
vn 0.892288 -0.070198 0.445976
vn 0.892288 -0.070198 0.445976
vn 0.892288 -0.070198 0.445976
vn -0.892170 0.087632 -0.443118
vn -0.892170 0.087632 -0.443118
vn -0.892170 0.087632 -0.443118
vn -0.892170 0.087632 -0.443118
vn 0.474524 -0.061678 -0.878079
vn 0.474524 -0.061678 -0.878079
vn 0.474524 -0.061678 -0.878079
vn 0.474524 -0.061678 -0.878079
vn -0.478048 0.041258 0.877364
vn -0.478048 0.041258 0.877364
vn -0.478048 0.041258 0.877364
vn -0.478048 0.041258 0.877364
vn 0.945001 -0.166852 0.281307
vn 0.945001 -0.166852 0.281307
vn 0.945001 -0.166852 0.281307
vn 0.471439 0.455700 -0.755039
vn 0.471439 0.455700 -0.755038
vn 0.471439 0.455700 -0.755038
vn -0.794866 0.597738 -0.104391
vn -0.794866 0.597738 -0.104391
vn -0.794866 0.597738 -0.104391
vn -0.344305 0.068963 0.936322
vn -0.344305 0.068963 0.936322
vn -0.344305 0.068963 0.936322
vn -0.099796 -0.094723 0.990489
vn -0.099796 -0.094723 0.990489
vn -0.099796 -0.094723 0.990489
vn -0.099796 -0.094723 0.990489
vn 0.077645 0.025226 -0.996662
vn 0.077645 0.025226 -0.996662
vn 0.077645 0.025226 -0.996662
vn 0.077645 0.025226 -0.996662
vn 0.976034 -0.197615 0.091135
vn 0.976034 -0.197615 0.091135
vn 0.976034 -0.197615 0.091135
vn 0.976034 -0.197615 0.091135
vn -0.984443 0.148042 -0.094638
vn -0.984443 0.148042 -0.094638
vn -0.984443 0.148042 -0.094638
vn -0.984443 0.148042 -0.094638
vn -0.066225 -0.032545 0.997274
vn -0.066225 -0.032545 0.997274
vn -0.066225 -0.032545 0.997274
vn 0.942094 -0.327214 0.073415
vn 0.942094 -0.327214 0.073415
vn 0.942094 -0.327214 0.073415
vn 0.309471 0.414941 -0.855601
vn 0.309471 0.414941 -0.855600
vn 0.309471 0.414941 -0.855600
vn -0.669458 0.742850 0.000049
vn -0.669458 0.742850 0.000049
vn -0.669458 0.742850 0.000049
vn -0.086972 -0.083845 0.992676
vn -0.086972 -0.083845 0.992676
vn -0.086972 -0.083845 0.992676
vn -0.086972 -0.083845 0.992676
vn 0.064675 0.022315 -0.997657
vn 0.064675 0.022315 -0.997657
vn 0.064675 0.022315 -0.997657
vn 0.064675 0.022315 -0.997657
vn 0.981323 -0.175509 0.078755
vn 0.981323 -0.175509 0.078755
vn 0.981323 -0.175509 0.078755
vn 0.981323 -0.175509 0.078755
vn -0.987949 0.131240 -0.082051
vn -0.987949 0.131240 -0.082051
vn -0.987949 0.131240 -0.082051
vn -0.987949 0.131240 -0.082051
vn -0.053249 -0.028798 0.998166
vn -0.053249 -0.028798 0.998166
vn -0.053249 -0.028798 0.998166
vn 0.954163 -0.292821 0.061878
vn 0.954163 -0.292821 0.061878
vn 0.954163 -0.292821 0.061878
vn 0.304074 0.374041 -0.876146
vn 0.304074 0.374041 -0.876146
vn 0.304074 0.374041 -0.876146
vn -0.713674 0.700416 0.009330
vn -0.713674 0.700416 0.009330
vn -0.713674 0.700416 0.009330
vn 0.300521 -0.031799 -0.953245
vn 0.300521 -0.031799 -0.953245
vn 0.328892 0.020538 -0.944144
vn 0.333468 0.029183 -0.942310
vn -0.184700 -0.023918 0.982504
vn -0.166423 -0.049789 0.984797
vn -0.216458 0.021734 0.976050
vn -0.216458 0.021734 0.976050
vn -0.955754 0.123223 -0.267116
vn -0.955754 0.123223 -0.267116
vn -0.926067 0.299085 -0.230105
vn -0.918923 0.324757 -0.223859
vn 0.934774 -0.115273 0.336021
vn 0.934774 -0.115273 0.336021
vn 0.897168 -0.320333 0.304100
vn 0.923279 -0.206766 0.323735
vn 0.556282 0.373485 -0.742334
vn 0.556282 0.373485 -0.742334
vn 0.556282 0.373485 -0.742334
vn -0.596957 0.798672 0.075923
vn -0.596957 0.798672 0.075923
vn -0.596957 0.798672 0.075923
vn -0.273979 -0.330389 0.903205
vn -0.273979 -0.330389 0.903205
vn -0.273979 -0.330389 0.903205
vn 0.736326 -0.662248 0.138752
vn 0.736326 -0.662248 0.138752
vn 0.736326 -0.662248 0.138752
vn -0.115241 -0.120746 0.985972
vn -0.115241 -0.120746 0.985972
vn -0.166423 -0.049789 0.984797
vn -0.184700 -0.023918 0.982504
vn -0.918923 0.324757 -0.223859
vn -0.926067 0.299085 -0.230105
vn -0.814353 0.559288 -0.155002
vn -0.814353 0.559288 -0.155002
vn 0.333468 0.029183 -0.942310
vn 0.328892 0.020538 -0.944144
vn 0.373304 0.107153 -0.921500
vn 0.373304 0.107153 -0.921500
vn 0.923279 -0.206766 0.323735
vn 0.897168 -0.320333 0.304100
vn 0.825662 -0.499700 0.261881
vn 0.825662 -0.499700 0.261881
vn -0.995465 -0.094735 0.008690
vn -0.995465 -0.094735 0.008690
vn -0.995465 -0.094735 0.008690
vn -0.995465 -0.094735 0.008690
vn 0.999189 0.025221 -0.031377
vn 0.999189 0.025221 -0.031377
vn 0.999189 0.025221 -0.031377
vn 0.999189 0.025221 -0.031377
vn 0.015730 -0.197612 0.980154
vn 0.015730 -0.197612 0.980154
vn 0.015730 -0.197612 0.980154
vn 0.015730 -0.197612 0.980154
vn -0.013134 0.148049 -0.988893
vn -0.013134 0.148049 -0.988893
vn -0.013134 0.148049 -0.988893
vn -0.013134 0.148049 -0.988893
vn -0.998553 -0.032547 0.042803
vn -0.998553 -0.032547 0.042803
vn -0.998553 -0.032547 0.042803
vn 0.029640 -0.327218 0.944484
vn 0.029640 -0.327218 0.944484
vn 0.029640 -0.327218 0.944484
vn 0.884219 0.414940 0.214435
vn 0.884218 0.414940 0.214435
vn 0.884218 0.414940 0.214435
vn -0.072957 0.742852 -0.665468
vn -0.072957 0.742852 -0.665468
vn -0.072957 0.742852 -0.665468
vn 0.937840 0.036506 -0.345144
vn 0.937840 0.036506 -0.345144
vn 0.937840 0.036506 -0.345144
vn 0.937840 0.036506 -0.345144
vn -0.901681 -0.104458 0.419594
vn -0.901681 -0.104458 0.419594
vn -0.901681 -0.104458 0.419594
vn -0.901681 -0.104458 0.419594
vn -0.393405 0.205960 -0.895998
vn -0.393405 0.205960 -0.895998
vn -0.393405 0.205960 -0.895998
vn -0.393405 0.205960 -0.895998
vn 0.286492 -0.224083 0.931509
vn 0.286492 -0.224083 0.931509
vn 0.286492 -0.224083 0.931509
vn 0.286492 -0.224083 0.931509
vn 0.915267 0.366112 -0.168073
vn 0.915267 0.366112 -0.168073
vn 0.915267 0.366112 -0.168073
vn -0.326092 0.843743 -0.426335
vn -0.326092 0.843743 -0.426335
vn -0.326092 0.843743 -0.426335
vn -0.829720 -0.071254 0.553613
vn -0.829720 -0.071254 0.553613
vn -0.829720 -0.071254 0.553613
vn 0.394274 -0.506809 0.766611
vn 0.394274 -0.506809 0.766611
vn 0.394274 -0.506809 0.766611
s off
f 1/1/1 2/2/2 4/3/3 3/4/4
f 5/5/5 6/6/6 8/7/7 7/8/8
f 2/2/9 8/9/10 6/10/11 4/3/12
f 7/11/13 1/1/14 3/4/15 5/12/16
f 3/4/17 4/3/18 9/13/19
f 4/3/20 6/6/21 9/13/22
f 6/6/23 5/5/24 9/13/25
f 5/5/26 3/4/27 9/13/28
f 10/14/29 11/15/30 13/16/31 12/17/32
f 14/18/33 15/19/34 17/20/35 16/21/36
f 11/15/37 17/22/38 15/23/39 13/16/40
f 16/24/41 10/14/42 12/17/43 14/25/44
f 12/17/45 13/16/46 18/26/47
f 13/16/48 15/19/49 18/26/50
f 15/19/51 14/18/52 18/26/53
f 14/18/54 12/17/55 18/26/56
f 19/27/57 20/28/58 30/29/59 31/30/60
f 28/31/61 29/32/62 26/33/63 25/34/64
f 20/28/65 26/35/66 29/36/67 30/29/68
f 25/37/69 19/27/70 31/30/71 28/38/72
f 21/39/73 22/40/74 27/41/75
f 22/40/76 24/42/77 27/41/78
f 24/42/79 23/43/80 27/41/81
f 23/43/82 21/39/83 27/41/84
f 23/43/85 24/42/86 29/32/87 28/31/88
f 30/29/89 29/36/90 24/44/91 22/40/92
f 31/30/93 30/29/94 22/40/95 21/39/96
f 28/38/97 31/30/98 21/39/99 23/45/100
f 32/46/101 33/47/102 35/48/103 34/49/104
f 36/50/105 37/51/106 39/52/107 38/53/108
f 33/47/109 39/54/110 37/55/111 35/48/112
f 38/56/113 32/46/114 34/49/115 36/57/116
f 34/49/117 35/48/118 40/58/119
f 35/48/120 37/51/121 40/58/122
f 37/51/123 36/50/124 40/58/125
f 36/50/126 34/49/127 40/58/128
f 41/59/129 42/60/130 44/61/131 43/62/132
f 45/63/133 46/64/134 48/65/135 47/66/136
f 42/60/137 48/67/138 46/68/139 44/61/140
f 47/69/141 41/59/142 43/62/143 45/70/144
f 43/62/145 44/61/146 49/71/147
f 44/61/148 46/64/149 49/71/150
f 46/64/151 45/63/152 49/71/153
f 45/63/154 43/62/155 49/71/156
f 50/72/157 51/73/158 53/74/159 52/75/160
f 54/76/161 55/77/162 57/78/163 56/79/164
f 51/73/165 57/80/166 55/81/167 53/74/168
f 56/82/169 50/72/170 52/75/171 54/83/172
f 52/75/173 53/74/174 58/84/175
f 53/74/176 55/77/177 58/84/178
f 55/77/179 54/76/180 58/84/181
f 54/76/182 52/75/183 58/84/184
f 59/85/185 60/86/186 62/87/187 61/88/188
f 63/89/189 64/90/190 66/91/191 65/92/192
f 60/86/193 66/93/194 64/94/195 62/87/196
f 65/95/197 59/85/198 61/88/199 63/96/200
f 61/88/201 62/87/202 67/97/203
f 62/87/204 64/90/205 67/97/206
f 64/90/207 63/89/208 67/97/209
f 63/89/210 61/88/211 67/97/212
f 68/98/213 69/99/214 79/100/215 80/101/216
f 77/102/217 78/103/218 75/104/219 74/105/220
f 69/99/221 75/106/222 78/107/223 79/100/224
f 74/108/225 68/98/226 80/101/227 77/109/228
f 70/110/229 71/111/230 76/112/231
f 71/111/232 73/113/233 76/112/234
f 73/113/235 72/114/236 76/112/237
f 72/114/238 70/110/239 76/112/240
f 72/114/241 73/113/242 78/103/243 77/102/244
f 79/100/245 78/107/246 73/115/247 71/111/248
f 80/101/249 79/100/250 71/111/251 70/110/252
f 77/109/253 80/101/254 70/110/255 72/116/256
f 81/117/257 82/118/258 84/119/259 83/120/260
f 85/121/261 86/122/262 88/123/263 87/124/264
f 82/118/265 88/125/266 86/126/267 84/119/268
f 87/127/269 81/117/270 83/120/271 85/128/272
f 83/120/273 84/119/274 89/129/275
f 84/119/276 86/122/277 89/129/278
f 86/122/279 85/121/280 89/129/281
f 85/121/282 83/120/283 89/129/284
f 90/130/285 91/131/286 93/132/287 92/133/288
f 94/134/289 95/135/290 97/136/291 96/137/292
f 91/131/293 97/138/294 95/139/295 93/132/296
f 96/140/297 90/130/298 92/133/299 94/141/300
f 92/133/301 93/132/302 98/142/303
f 93/132/304 95/135/305 98/142/306
f 95/135/307 94/134/308 98/142/309
f 94/134/310 92/133/311 98/142/312
