# This file uses meters as units for non-parametric coordinates.

v 0.000061 0.000000 -124.999969
v 0.000000 0.000000 0.000061
v 125.000061 0.000000 -124.999969
v 125.000000 0.000000 0.000000
v 12.374451 15.993290 -124.999969
v 12.374512 15.993290 0.000061
v 112.625671 15.993290 -124.999969
v 112.625610 15.993290 0.000008
v 0.000061 0.000000 -59.889008
v 11.689148 15.905128 -40.729187
v 62.500061 16.785351 -124.999969
v 125.000061 0.281049 -57.925140
v 113.888306 18.933275 -39.555542
v 37.927002 18.884941 -124.999969
v 87.073120 18.884941 -124.999969
v 11.152771 16.507154 -99.084442
v 112.662415 19.693348 -84.065613
v 59.293396 21.511288 -53.346039
v 62.500000 16.785351 0.000000
v 85.893372 18.188942 -59.612362
v 87.073181 18.884941 0.000061
v 31.414001 15.023696 -86.843811
v 37.927002 18.884941 0.000061
v 36.579834 21.348351 -21.225708
v 70.156372 19.060642 -30.750854
v 93.729004 20.970387 -97.709656
v 58.199341 15.307392 -84.984833
vt 0.038589 0.254350
vt 0.038568 0.254350
vt 0.038589 0.254328
vt 0.038568 0.254328
vt 0.038586 0.254347
vt 0.038568 0.254346
vt 0.038586 0.254331
vt 0.038568 0.254331
vt 0.038578 0.254350
vt 0.038575 0.254346
vt 0.038587 0.254339
vt 0.038578 0.254328
vt 0.038574 0.254331
vt 0.038587 0.254343
vt 0.038587 0.254335
vt 0.038582 0.254347
vt 0.038582 0.254331
vt 0.038576 0.254339
vt 0.038568 0.254338
vt 0.038574 0.254335
vt 0.038568 0.254335
vt 0.038579 0.254343
vt 0.038568 0.254342
vt 0.038573 0.254343
vt 0.038572 0.254338
vt 0.038582 0.254335
vt 0.038582 0.254339
vn 0.860173 0.509996 0.002475
vn 0.860173 0.509997 0.002475
vn 0.860173 0.509997 0.002475
vn -0.828607 0.559831 0.000000
vn -0.828607 0.559831 0.000000
vn -0.828607 0.559831 0.000000
vn -0.018361 0.998976 0.041359
vn -0.018361 0.998976 0.041359
vn -0.018361 0.998976 0.041359
vn -0.018361 0.998976 0.041359
vn 0.789665 0.610983 -0.055936
vn 0.789665 0.610983 -0.055936
vn 0.789665 0.610983 -0.055936
vn -0.813397 0.581553 0.013476
vn -0.813397 0.581553 0.013476
vn -0.813397 0.581553 0.013476
vn -0.789940 0.611195 -0.049357
vn -0.789939 0.611195 -0.049357
vn -0.789939 0.611195 -0.049357
vn -0.790844 0.611901 0.011983
vn -0.790844 0.611901 0.011983
vn -0.790844 0.611901 0.011983
vn -0.805792 0.592198 -0.000001
vn -0.805792 0.592198 -0.000001
vn -0.805792 0.592198 -0.000001
vn 0.852643 0.522291 -0.014565
vn 0.852643 0.522291 -0.014565
vn 0.852643 0.522291 -0.014565
vn 0.845329 0.534241 -0.002239
vn 0.845329 0.534241 -0.002239
vn 0.845329 0.534241 -0.002239
vn 0.788933 0.610416 0.070554
vn 0.788933 0.610416 0.070554
vn 0.788933 0.610416 0.070554
vn 0.002968 0.981289 -0.192519
vn 0.002968 0.981289 -0.192519
vn 0.002968 0.981289 -0.192519
vn -0.054120 0.997064 -0.054165
vn -0.054120 0.997064 -0.054165
vn -0.054120 0.997064 -0.054165
vn -0.054120 0.997064 -0.054165
vn 0.133803 0.990072 0.043054
vn 0.133803 0.990072 0.043054
vn 0.133803 0.990072 0.043054
vn 0.067203 0.997692 0.009675
vn 0.067203 0.997692 0.009675
vn 0.067203 0.997692 0.009675
vn -0.179240 0.982841 0.043561
vn -0.179240 0.982841 0.043561
vn -0.179240 0.982841 0.043561
vn -0.179240 0.982841 0.043561
vn 0.091353 0.990642 0.101406
vn 0.091353 0.990642 0.101406
vn 0.091353 0.990642 0.101406
vn 0.091353 0.990642 0.101406
vn 0.032769 0.999387 -0.012317
vn 0.032769 0.999387 -0.012317
vn 0.032769 0.999387 -0.012317
vn -0.018481 0.999765 -0.011307
vn -0.018481 0.999765 -0.011307
vn -0.018481 0.999765 -0.011307
vn 0.121938 0.987910 -0.095737
vn 0.121938 0.987910 -0.095737
vn 0.121938 0.987910 -0.095737
vn 0.121938 0.987910 -0.095737
vn -0.169177 0.984999 -0.034010
vn -0.169177 0.984999 -0.034010
vn -0.169177 0.984999 -0.034010
vn 0.032617 0.996828 0.072597
vn 0.032617 0.996828 0.072597
vn 0.032617 0.996828 0.072597
vn 0.032617 0.996828 0.072597
vn -0.043211 0.997964 0.046921
vn -0.043211 0.997963 0.046921
vn -0.043211 0.997964 0.046921
vn -0.043211 0.997963 0.046921
vn -0.085100 0.995989 0.027641
vn -0.085100 0.995989 0.027641
vn -0.085100 0.995989 0.027641
vn 0.112112 0.990691 0.077212
vn 0.112112 0.990691 0.077212
vn 0.112112 0.990691 0.077212
vn -0.085015 0.994998 0.052454
vn -0.085015 0.994998 0.052454
vn -0.085015 0.994998 0.052454
vn -0.150305 0.985139 -0.083121
vn -0.150305 0.985139 -0.083121
vn -0.150305 0.985139 -0.083121
vn 0.086514 0.994047 0.066220
vn 0.086514 0.994047 0.066220
vn 0.086514 0.994047 0.066220
vn -0.127576 0.988162 -0.085201
vn -0.127576 0.988163 -0.085201
vn -0.127576 0.988163 -0.085201
s off
f 12/12/1 13/13/2 4/4/3
f 1/1/4 9/9/5 16/16/6
f 17/17/7 26/26/8 20/20/9 13/13/10
f 3/3/11 7/7/12 17/17/13
f 16/16/14 9/9/15 10/10/16
f 1/1/17 16/16/18 5/5/19
f 10/10/20 2/2/21 6/6/22
f 10/10/23 9/9/24 2/2/25
f 12/12/26 17/17/27 13/13/28
f 3/3/29 17/17/30 12/12/31
f 4/4/32 13/13/33 8/8/34
f 27/27/35 22/22/36 18/18/37
f 26/26/38 27/27/39 18/18/40 20/20/41
f 25/25/42 20/20/43 18/18/44
f 10/10/45 22/22/46 16/16/47
f 23/23/48 24/24/49 10/10/50 6/6/51
f 19/19/52 25/25/53 24/24/54 23/23/55
f 21/21/56 20/20/57 25/25/58
f 21/21/59 13/13/60 20/20/61
f 15/15/62 26/26/63 17/17/64 7/7/65
f 15/15/66 27/27/67 26/26/68
f 14/14/69 22/22/70 27/27/71 11/11/72
f 16/16/73 22/22/74 14/14/75 5/5/76
f 11/11/77 27/27/78 15/15/79
f 8/8/80 13/13/81 21/21/82
f 21/21/83 25/25/84 19/19/85
f 10/10/86 24/24/87 22/22/88
f 24/24/89 25/25/90 18/18/91
f 24/24/92 18/18/93 22/22/94
