# This file uses meters as units for non-parametric coordinates.

v 350.382080 0.000000 -499.999237
v 350.895111 0.000000 -144.982529
v 350.382080 0.000000 0.000000
v 984.446716 0.000000 0.000000
v 987.145996 0.000000 -74.678802
v 984.446716 0.000000 -499.999237
v 1000.000000 0.000000 0.000000
v 1000.000000 0.000000 -499.999237
v 334.638062 0.000000 0.000000
v 15.744019 0.000000 -499.999237
v 19.546509 0.000000 -219.464874
v 15.744019 0.000000 0.000000
v 319.084808 0.000000 0.000000
v 325.073517 0.000000 -108.636520
v 319.084808 0.000000 -499.999237
v 0.000000 0.000000 0.000000
v 0.000000 0.000000 -499.999237
v 667.414307 0.000000 -499.999237
v 667.414307 0.000000 0.000000
v 699.117554 0.000000 -499.999237
v 699.117493 0.000000 0.000000
v 671.815430 0.000000 -253.587112
v 694.716492 0.000000 -253.587112
v 508.898224 0.000000 -499.999237
v 508.898224 0.000000 0.000000
vt 0.982090 0.988424
vt 0.508075 0.616212
vt 0.982090 0.035854
vt 0.982090 0.607396
vt 0.982090 0.988424
vt 0.508075 0.662085
vt 0.009445 0.005709
vt 0.009445 0.005709
vt 0.009445 0.005709
vt 0.009445 0.005709
vt 0.009445 0.005709
vt 0.009445 0.005709
vt 0.009445 0.005709
vt 0.009445 0.005709
vt 0.009445 0.005709
vt 0.442435 0.981037
vt 0.982090 0.399170
vt 0.229237 0.387536
vt 0.020256 0.988424
vt 0.020256 0.399170
vt 0.299155 0.337377
vt 0.009445 0.005709
vt 0.009445 0.005709
vt 0.009445 0.005709
vt 0.009445 0.005709
vt 0.009445 0.005709
vt 0.009445 0.005709
vt 0.009445 0.005709
vt 0.009445 0.005709
vt 0.982090 0.670901
vt 0.020256 0.030447
vt 0.020256 0.670901
vt 0.020256 0.988424
vt 0.982090 0.030447
vt 0.163914 0.030447
vt 0.009445 0.005709
vt 0.009445 0.005709
vt 0.009445 0.005709
vt 0.009445 0.005709
vt 0.009445 0.005709
vt 0.009445 0.005709
vt 0.020256 0.607396
vt 0.020256 0.035854
vt 0.982090 0.338373
vt 0.020256 0.338373
vn 0.000000 1.000000 0.000000
vn 0.000000 1.000000 0.000000
vn 0.000000 1.000000 0.000000
vn 0.000000 1.000000 0.000000
vn 0.000000 1.000000 0.000000
vn 0.000000 1.000000 0.000000
vn 0.000000 1.000000 0.000000
vn 0.000000 1.000000 0.000000
vn 0.000000 1.000000 0.000000
vn 0.000000 1.000000 0.000000
vn 0.000000 1.000000 0.000000
vn 0.000000 1.000000 0.000000
vn 0.000000 1.000000 0.000000
vn 0.000000 1.000000 0.000000
vn 0.000000 1.000000 0.000000
vn 0.000000 1.000000 0.000000
vn 0.000000 1.000000 0.000000
vn 0.000000 1.000000 0.000000
vn 0.000000 1.000000 0.000000
vn 0.000000 1.000000 0.000000
vn 0.000000 1.000000 0.000000
vn 0.000000 1.000000 0.000000
vn 0.000000 1.000000 0.000000
vn 0.000000 1.000000 0.000000
vn 0.000000 1.000000 0.000000
vn 0.000000 1.000000 0.000000
vn 0.000000 1.000000 0.000000
vn 0.000000 1.000000 0.000000
vn 0.000000 1.000000 0.000000
vn 0.000000 1.000000 0.000000
vn 0.000000 1.000000 0.000000
vn 0.000000 1.000000 0.000000
vn 0.000000 1.000000 0.000000
vn 0.000000 1.000000 0.000000
vn 0.000000 1.000000 0.000000
vn 0.000000 1.000000 0.000000
vn 0.000000 1.000000 0.000000
vn 0.000000 1.000000 0.000000
vn 0.000000 1.000000 0.000000
vn 0.000000 1.000000 0.000000
vn 0.000000 1.000000 0.000000
vn 0.000000 1.000000 0.000000
vn 0.000000 1.000000 0.000000
vn 0.000000 1.000000 0.000000
vn 0.000000 1.000000 0.000000
vn 0.000000 1.000000 0.000000
vn 0.000000 1.000000 0.000000
vn 0.000000 1.000000 0.000000
vn 0.000000 1.000000 0.000000
vn 0.000000 1.000000 0.000000
vn 0.000000 1.000000 0.000000
vn 0.000000 1.000000 0.000000
vn 0.000000 1.000000 0.000000
vn 0.000000 1.000000 0.000000
vn 0.000000 1.000000 0.000000
vn 0.000000 1.000000 0.000000
vn 0.000000 1.000000 0.000000
vn 0.000000 1.000000 0.000000
vn 0.000000 1.000000 0.000000
vn 0.000000 1.000000 0.000000
vn 0.000000 1.000000 0.000000
vn 0.000000 1.000000 0.000000
vn 0.000000 1.000000 0.000000
vn 0.000000 1.000000 0.000000
vn 0.000000 1.000000 0.000000
vn 0.000000 1.000000 0.000000
vn 0.000000 1.000000 0.000000
vn 0.000000 1.000000 0.000000
vn 0.000000 1.000000 0.000000
s off
f 23/2/1 6/3/2 20/4/3
f 7/7/4 5/8/5 4/9/6
f 6/10/7 5/8/8 7/7/9 8/11/10
f 10/1/11 11/16/12 15/17/13
f 15/17/14 11/16/15 14/18/16
f 11/16/17 12/19/18 14/18/19
f 12/19/20 13/20/21 14/18/22
f 14/22/23 2/13/24 1/14/25 15/24/26
f 16/25/27 11/26/28 10/27/29 17/28/30
f 16/25/31 12/29/32 11/26/33
f 14/22/34 13/23/35 9/12/36 3/15/37 2/13/38
f 24/5/39 22/6/40 18/30/41
f 22/36/42 23/37/43 20/38/44 18/39/45
f 21/40/46 23/37/47 22/36/48 19/41/49
f 19/32/50 22/6/51 25/33/52
f 5/35/53 23/2/54 21/42/55 4/43/56
f 24/5/57 25/33/58 22/6/59
f 5/35/60 6/3/61 23/2/62
f 2/21/63 25/31/64 24/34/65 1/44/66
f 25/31/67 2/21/68 3/45/69
