# This file uses meters as units for non-parametric coordinates.

v 0.000000 0.000000 150.000000
v 150.000000 0.000000 150.000000
v 0.000000 15.388341 150.000000
v 150.000000 15.388341 150.000000
v 0.000000 15.388341 0.000000
v 150.000000 15.388341 0.000000
v 0.000000 0.000000 0.000000
v 150.000000 0.000000 0.000000
v 0.000000 15.388341 75.000000
v 150.000000 15.388341 75.000000
v 150.000000 0.000000 75.000000
v 0.000000 0.000000 75.000000
v 75.000000 0.000000 75.000000
v 75.000000 0.000000 0.000000
v 75.000000 15.388341 0.000000
v 75.000000 15.388341 75.000000
v 75.000000 15.388341 150.000000
v 75.000000 0.000000 150.000000
v 3.176514 15.388341 146.823486
v 71.823486 15.388341 146.823486
v 71.823486 15.388341 78.176514
v 3.176514 15.388341 78.176514
v 3.176514 15.388341 71.823486
v 71.823486 15.388341 71.823486
v 71.823486 15.388341 3.176697
v 3.176514 15.388341 3.176697
v 78.176514 15.388341 78.176514
v 78.176514 15.388341 146.823486
v 146.823486 15.388341 146.823486
v 146.823486 15.388341 78.176514
v 78.176514 15.388341 3.176697
v 78.176514 15.388341 71.823486
v 146.823486 15.388341 71.823486
v 146.823486 15.388341 3.176697
v 79.475098 18.239147 4.475098
v 79.361023 17.989052 70.638794
v 143.252258 19.906351 68.889290
v 144.174316 19.906351 5.908638
v 79.242004 17.727760 79.242188
v 81.171753 19.906351 144.746002
v 145.720825 17.809048 145.720825
v 144.515442 19.906351 80.878601
v 4.426758 18.132971 70.573425
v 69.039612 19.906351 69.040398
v 68.207947 19.906351 5.281059
v 6.601624 19.906351 5.281059
v 4.333191 17.927860 145.666809
v 68.894104 19.906351 144.119385
v 70.715698 17.820057 79.284119
v 5.809937 19.906351 81.003021
v 68.571533 19.906351 93.903740
v 52.455750 19.906351 81.325676
v 63.619690 19.906351 85.530670
v 6.226318 19.906351 134.040298
v 11.217773 19.906351 143.687042
v 5.084778 19.906351 53.810646
v 16.414612 19.906351 68.725296
v 8.354065 19.906351 66.169281
v 5.084534 19.906351 33.417595
v 6.601624 19.906351 15.892708
v 8.062866 19.906351 24.771103
v 4.397827 18.069618 24.424805
v 68.207947 19.906349 13.156654
v 69.039612 19.906351 19.755157
v 66.787415 19.906351 16.137749
v 70.645935 17.973698 15.982910
v 130.198242 19.906351 5.908638
v 80.265564 19.906351 38.304222
v 97.617371 19.906351 10.685371
v 85.852295 19.906351 20.396782
v 79.365051 17.997799 12.029663
v 94.003235 17.848839 4.297485
v 80.265564 19.906351 60.200615
v 85.385437 19.906349 68.633629
v 143.252258 19.906351 62.503899
v 144.174316 19.906349 41.243271
v 142.365784 19.906351 53.111023
v 145.559509 18.163425 52.587891
v 114.318298 19.906351 144.746002
v 144.341248 19.906351 122.994278
v 132.718506 19.906351 139.652374
v 141.039917 19.906351 132.674149
v 145.887268 17.443810 141.001465
v 133.646301 17.576035 145.827026
v 80.596985 19.906351 117.226250
v 81.171753 19.906351 133.001892
v 82.524597 19.906351 125.192688
v 79.434814 18.150682 124.753235
v 80.216248 19.906351 104.286667
v 80.596985 19.906351 110.459084
v 81.659546 19.906351 106.665527
v 79.158508 17.544098 108.064087
v 129.887634 19.906351 80.878601
v 80.216248 19.906351 89.842644
v 111.974548 19.906351 88.419983
v 96.030945 19.906351 83.924080
v 95.294128 17.625835 79.195679
v 110.987915 17.416656 79.100464
vt 0.058914 0.300789
vt 0.058914 0.300789
vt 0.058914 0.300789
vt 0.058914 0.300789
vt 0.058914 0.300789
vt 0.058914 0.300789
vt 0.058914 0.300789
vt 0.058914 0.300789
vt 0.058914 0.300789
vt 0.058914 0.300789
vt 0.058914 0.300789
vt 0.058914 0.300789
vt 0.058914 0.300789
vt 0.058914 0.300789
vt 0.058914 0.300789
vt 0.058914 0.300789
vt 0.058914 0.300789
vt 0.058914 0.300789
vt 0.058914 0.300789
vt 0.058914 0.300789
vt 0.058914 0.300789
vt 0.058914 0.300789
vt 0.058914 0.300789
vt 0.058914 0.300789
vt 0.058914 0.300789
vt 0.058914 0.300789
vt 0.058914 0.300789
vt 0.058914 0.300789
vt 0.058914 0.300789
vt 0.061119 0.372382
vt 0.061119 0.372382
vt 0.061119 0.372382
vt 0.061119 0.372382
vt 0.061119 0.372382
vt 0.061119 0.372382
vt 0.061119 0.372382
vt 0.061119 0.372382
vt 0.061119 0.372382
vt 0.061119 0.372382
vt 0.061119 0.372382
vt 0.061119 0.372382
vt 0.061119 0.372382
vt 0.061119 0.372382
vt 0.061119 0.372382
vt 0.061119 0.372382
vt 0.061119 0.372382
vt 0.061119 0.372382
vt 0.061119 0.372382
vt 0.061119 0.372382
vt 0.061119 0.372382
vt 0.061119 0.372382
vt 0.061119 0.372382
vt 0.061119 0.372382
vt 0.061119 0.372382
vt 0.061119 0.372382
vt 0.061119 0.372382
vt 0.061119 0.372382
vt 0.061119 0.372382
vt 0.061119 0.372382
vt 0.061119 0.372382
vt 0.061119 0.372382
vt 0.061119 0.372382
vt 0.061119 0.372382
vt 0.061119 0.372382
vt 0.061119 0.372382
vt 0.061119 0.372382
vt 0.061119 0.372382
vt 0.058914 0.300789
vt 0.061119 0.372382
vt 0.061119 0.372382
vt 0.061119 0.372382
vt 0.058914 0.300789
vt 0.061119 0.372382
vt 0.058914 0.300789
vt 0.061119 0.372382
vt 0.058914 0.300789
vt 0.061119 0.372382
vt 0.061119 0.372382
vt 0.061119 0.372382
vt 0.061119 0.372382
vt 0.061119 0.372382
vt 0.061119 0.372382
vt 0.061119 0.372382
vt 0.058914 0.300789
vt 0.061119 0.372382
vt 0.061119 0.372382
vt 0.061119 0.372382
vt 0.058914 0.300789
vt 0.061119 0.372382
vt 0.058914 0.300789
vt 0.061119 0.372382
vt 0.058914 0.300789
vt 0.061119 0.372382
vt 0.061119 0.372382
vt 0.061119 0.372382
vt 0.061119 0.372382
vt 0.061119 0.372382
vt 0.061119 0.372382
vt 0.061119 0.372382
vt 0.058914 0.300789
vt 0.061119 0.372382
vt 0.061119 0.372382
vt 0.061119 0.372382
vt 0.058914 0.300789
vt 0.061119 0.372382
vt 0.058914 0.300789
vt 0.061119 0.372382
vt 0.058914 0.300789
vt 0.061119 0.372382
vt 0.061119 0.372382
vt 0.061119 0.372382
vt 0.061119 0.372382
vt 0.061119 0.372382
vt 0.061119 0.372382
vt 0.061119 0.372382
vt 0.058914 0.300789
vt 0.061119 0.372382
vt 0.061119 0.372382
vt 0.061119 0.372382
vt 0.058914 0.300789
vt 0.061119 0.372382
vt 0.058914 0.300789
vt 0.061119 0.372382
vt 0.058914 0.300789
vt 0.061119 0.372382
vt 0.061119 0.372382
vt 0.061119 0.372382
vt 0.061119 0.372382
vt 0.061119 0.372382
vt 0.061119 0.372382
vt 0.061119 0.372382
vt 0.061119 0.372382
vt 0.061119 0.372382
vt 0.061119 0.372382
vt 0.061119 0.372382
vt 0.061119 0.372382
vt 0.061119 0.372382
vt 0.061119 0.372382
vt 0.061119 0.372382
vt 0.061119 0.372382
vt 0.061119 0.372382
vt 0.061119 0.372382
vt 0.061119 0.372382
vt 0.061119 0.372382
vt 0.061119 0.372382
vt 0.061119 0.372382
vt 0.061119 0.372382
vt 0.061119 0.372382
vt 0.061119 0.372382
vt 0.061119 0.372382
vt 0.061119 0.372382
vt 0.061119 0.372382
vt 0.061119 0.372382
vt 0.061119 0.372382
vt 0.061119 0.372382
vt 0.061119 0.372382
vt 0.061119 0.372382
vt 0.061119 0.372382
vt 0.061119 0.372382
vt 0.061119 0.372382
vt 0.061119 0.372382
vt 0.061119 0.372382
vt 0.061119 0.372382
vt 0.061119 0.372382
vt 0.061119 0.372382
vt 0.061119 0.372382
vt 0.061119 0.372382
vt 0.061119 0.372382
vt 0.061119 0.372382
vt 0.061119 0.372382
vt 0.061119 0.372382
vt 0.061119 0.372382
vt 0.061119 0.372382
vt 0.061119 0.372382
vt 0.061119 0.372382
vt 0.061119 0.372382
vt 0.061119 0.372382
vt 0.061119 0.372382
vt 0.061119 0.372382
vt 0.061119 0.372382
vt 0.061119 0.372382
vt 0.061119 0.372382
vt 0.061119 0.372382
vt 0.061119 0.372382
vt 0.061119 0.372382
vt 0.061119 0.372382
vt 0.061119 0.372382
vt 0.061119 0.372382
vt 0.061119 0.372382
vt 0.061119 0.372382
vt 0.061119 0.372382
vt 0.061119 0.372382
vt 0.061119 0.372382
vt 0.061119 0.372382
vt 0.061119 0.372382
vt 0.061119 0.372382
vt 0.061119 0.372382
vt 0.061119 0.372382
vt 0.061119 0.372382
vt 0.061119 0.372382
vt 0.061119 0.372382
vt 0.061119 0.372382
vt 0.061119 0.372382
vt 0.061119 0.372382
vt 0.061119 0.372382
vt 0.061119 0.372382
vt 0.061119 0.372382
vt 0.061119 0.372382
vn 0.000000 0.000000 1.000000
vn 0.000000 0.000000 1.000000
vn 0.000000 0.000000 1.000000
vn 0.000000 0.000000 1.000000
vn -0.000000 1.000000 0.000000
vn -0.000000 1.000000 0.000000
vn -0.000000 1.000000 0.000000
vn -0.000000 1.000000 0.000000
vn -0.000000 1.000000 0.000000
vn 0.000000 0.000000 -1.000000
vn 0.000000 0.000000 -1.000000
vn 0.000000 0.000000 -1.000000
vn 0.000000 0.000000 -1.000000
vn 0.000000 -1.000000 0.000000
vn 0.000000 -1.000000 0.000000
vn 0.000000 -1.000000 0.000000
vn 0.000000 -1.000000 0.000000
vn 1.000000 0.000000 0.000000
vn 1.000000 0.000000 0.000000
vn 1.000000 0.000000 0.000000
vn 1.000000 0.000000 0.000000
vn -1.000000 0.000000 0.000000
vn -1.000000 0.000000 0.000000
vn -1.000000 0.000000 0.000000
vn -1.000000 0.000000 0.000000
vn 0.000000 1.000000 -0.000000
vn 0.000000 1.000000 -0.000000
vn 0.000000 1.000000 -0.000000
vn 0.000000 1.000000 -0.000000
vn 1.000000 0.000000 0.000000
vn 1.000000 0.000000 0.000000
vn 1.000000 0.000000 0.000000
vn 1.000000 0.000000 0.000000
vn 0.000000 -1.000000 0.000000
vn 0.000000 -1.000000 0.000000
vn 0.000000 -1.000000 0.000000
vn 0.000000 -1.000000 0.000000
vn -1.000000 0.000000 0.000000
vn -1.000000 0.000000 0.000000
vn -1.000000 0.000000 0.000000
vn -1.000000 0.000000 0.000000
vn 0.000000 -1.000000 0.000000
vn 0.000000 -1.000000 0.000000
vn 0.000000 -1.000000 0.000000
vn 0.000000 -1.000000 0.000000
vn 0.000000 0.000000 -1.000000
vn 0.000000 0.000000 -1.000000
vn 0.000000 0.000000 -1.000000
vn 0.000000 0.000000 -1.000000
vn 0.000000 1.000000 0.000000
vn 0.000000 1.000000 0.000000
vn 0.000000 1.000000 0.000000
vn 0.000000 1.000000 0.000000
vn 0.000000 1.000000 -0.000000
vn 0.000000 1.000000 -0.000000
vn 0.000000 1.000000 -0.000000
vn 0.000000 1.000000 -0.000000
vn 0.000000 1.000000 -0.000000
vn 0.000000 0.000000 1.000000
vn 0.000000 0.000000 1.000000
vn 0.000000 0.000000 1.000000
vn 0.000000 0.000000 1.000000
vn 0.000000 -1.000000 0.000000
vn 0.000000 -1.000000 0.000000
vn 0.000000 -1.000000 0.000000
vn 0.000000 -1.000000 0.000000
vn 0.000000 1.000000 -0.000000
vn 0.000000 1.000000 -0.000000
vn 0.000000 1.000000 -0.000000
vn 0.000000 1.000000 -0.000000
vn 0.000000 1.000000 0.000000
vn 0.000000 1.000000 0.000000
vn 0.000000 1.000000 0.000000
vn 0.000000 1.000000 0.000000
vn 0.000000 1.000000 -0.000000
vn 0.000000 1.000000 -0.000000
vn 0.000000 1.000000 -0.000000
vn 0.000000 1.000000 -0.000000
vn 0.000000 1.000000 -0.000000
vn 0.000000 1.000000 -0.000000
vn 0.000000 1.000000 0.000000
vn 0.000000 1.000000 0.000000
vn 0.000000 1.000000 0.000000
vn 0.000000 1.000000 0.000000
vn 0.000000 1.000000 0.000000
vn 0.000000 1.000000 0.000000
vn 0.000000 1.000000 0.000000
vn 0.000000 1.000000 0.000000
vn 0.000000 1.000000 0.000000
vn 0.000000 1.000000 0.000000
vn 0.000000 1.000000 0.000000
vn 0.000000 1.000000 0.000000
vn 0.000000 1.000000 0.000000
vn 0.000000 1.000000 0.000000
vn 0.000000 1.000000 -0.000000
vn 0.000000 1.000000 -0.000000
vn 0.000000 1.000000 -0.000000
vn 0.000000 1.000000 -0.000000
vn 0.000000 1.000000 0.000000
vn 0.000000 1.000000 0.000000
vn 0.000000 1.000000 0.000000
vn 0.000000 1.000000 0.000000
vn 0.000000 1.000000 0.000000
vn 0.000000 1.000000 0.000000
vn 0.000000 1.000000 0.000000
vn 0.000000 1.000000 0.000000
vn 0.000000 1.000000 0.000000
vn 0.000000 1.000000 0.000000
vn 0.000000 1.000000 -0.000000
vn 0.000000 1.000000 -0.000000
vn 0.000000 1.000000 -0.000000
vn 0.000000 1.000000 -0.000000
vn 0.000000 1.000000 -0.000000
vn 0.000000 1.000000 -0.000000
vn 0.000000 1.000000 0.000000
vn 0.000000 1.000000 0.000000
vn 0.000000 1.000000 0.000000
vn 0.000000 1.000000 0.000000
vn 0.000000 1.000000 0.000000
vn 0.000000 1.000000 0.000000
vn 0.000000 1.000000 0.000000
vn 0.000000 1.000000 0.000000
vn -0.907221 0.420654 0.000000
vn -0.907221 0.420654 0.000000
vn -0.907221 0.420654 0.000000
vn -0.907221 0.420654 0.000000
vn -0.907221 0.420654 0.000000
vn -0.003711 0.542592 0.839988
vn -0.003711 0.542592 0.839988
vn -0.003711 0.542592 0.839988
vn 0.747723 0.663091 0.034934
vn 0.747723 0.663091 0.034934
vn 0.747723 0.663091 0.034934
vn 0.747723 0.663091 0.034934
vn 0.005383 0.531858 -0.846817
vn 0.005383 0.531858 -0.846817
vn 0.005383 0.531858 -0.846817
vn 0.005383 0.531858 -0.846817
vn -0.911665 0.410934 -0.000014
vn -0.911665 0.410934 -0.000014
vn -0.911665 0.410934 -0.000014
vn -0.911665 0.410934 -0.000014
vn -0.911665 0.410934 -0.000014
vn -0.000121 0.418573 0.908183
vn -0.000121 0.418573 0.908183
vn -0.000121 0.418573 0.908183
vn -0.000121 0.418573 0.908183
vn 0.875613 0.483013 -0.000196
vn 0.875613 0.483013 -0.000196
vn 0.875613 0.483013 -0.000196
vn 0.875613 0.483013 -0.000196
vn -0.000005 0.414546 -0.910028
vn -0.000005 0.414546 -0.910028
vn -0.000005 0.414546 -0.910028
vn -0.005107 0.522187 0.852816
vn -0.005107 0.522187 0.852816
vn -0.005107 0.522187 0.852816
vn 0.910050 0.414499 0.000000
vn 0.910050 0.414499 0.000000
vn 0.910050 0.414499 0.000000
vn 0.000000 0.422219 -0.906494
vn 0.000000 0.422219 -0.906494
vn 0.000000 0.422219 -0.906494
vn 0.000000 0.422219 -0.906494
vn -0.760933 0.648334 -0.025393
vn -0.760933 0.648334 -0.025393
vn -0.760933 0.648334 -0.025393
vn -0.760933 0.648334 -0.025393
vn 0.001129 0.539751 0.841824
vn 0.001129 0.539751 0.841824
vn 0.001129 0.539751 0.841824
vn 0.001129 0.539751 0.841824
vn 0.001129 0.539751 0.841824
vn 0.829953 0.557829 0.002104
vn 0.829953 0.557829 0.002104
vn 0.829953 0.557829 0.002104
vn 0.829953 0.557829 0.002104
vn 0.829953 0.557829 0.002104
vn 0.005875 0.527898 -0.849287
vn 0.005875 0.527898 -0.849287
vn 0.005875 0.527898 -0.849287
vn -0.849001 0.528391 -0.000939
vn -0.849001 0.528391 -0.000939
vn -0.849001 0.528391 -0.000939
vn -0.849001 0.528391 -0.000939
vn -0.849001 0.528391 -0.000939
vn 0.188649 0.975687 -0.111567
vn 0.188649 0.975687 -0.111567
vn 0.188649 0.975686 -0.111567
vn 0.085474 0.970154 -0.226926
vn 0.085474 0.970154 -0.226926
vn 0.085474 0.970154 -0.226926
vn -0.240790 0.962547 0.124590
vn -0.240790 0.962547 0.124590
vn -0.240790 0.962548 0.124590
vn -0.094544 0.949825 0.298151
vn -0.094544 0.949825 0.298151
vn -0.094544 0.949825 0.298151
vn -0.327635 0.940821 0.086671
vn -0.327635 0.940821 0.086671
vn -0.327635 0.940821 0.086671
vn -0.452406 0.888698 0.074459
vn -0.452406 0.888698 0.074459
vn -0.452406 0.888698 0.074459
vn -0.431785 0.889630 -0.148730
vn -0.431785 0.889630 -0.148730
vn -0.431784 0.889630 -0.148730
vn 0.423515 0.866665 -0.263680
vn 0.423515 0.866665 -0.263680
vn 0.423515 0.866665 -0.263680
vn 0.444464 0.870400 0.211792
vn 0.444464 0.870400 0.211792
vn 0.444464 0.870400 0.211792
vn -0.204897 0.976694 -0.063923
vn -0.204897 0.976694 -0.063923
vn -0.204897 0.976694 -0.063923
vn -0.041760 0.957667 -0.284834
vn -0.041760 0.957667 -0.284834
vn -0.041760 0.957667 -0.284834
vn -0.115580 0.976242 -0.183282
vn -0.115580 0.976242 -0.183282
vn -0.115580 0.976242 -0.183282
vn -0.115580 0.976242 -0.183282
vn 0.027237 0.999107 0.032315
vn 0.027237 0.999107 0.032315
vn 0.027237 0.999107 0.032315
vn -0.252902 0.955231 0.153542
vn -0.252902 0.955231 0.153542
vn -0.252901 0.955231 0.153542
vn 0.472919 0.879974 -0.044633
vn 0.472919 0.879975 -0.044633
vn 0.472919 0.879974 -0.044633
vn 0.487060 0.870209 0.074223
vn 0.487060 0.870209 0.074223
vn 0.487060 0.870209 0.074223
vn 0.093886 0.936034 0.339154
vn 0.093886 0.936034 0.339154
vn 0.093886 0.936034 0.339154
vn 0.152451 0.954881 0.254874
vn 0.152451 0.954881 0.254874
vn 0.152451 0.954881 0.254874
vn 0.152451 0.954881 0.254874
vn 0.303427 0.947219 0.103484
vn 0.303427 0.947219 0.103484
vn 0.303427 0.947219 0.103484
vn -0.019920 0.996767 -0.077844
vn -0.019920 0.996767 -0.077844
vn -0.019920 0.996767 -0.077844
vn -0.503393 0.855429 0.121805
vn -0.503393 0.855429 0.121805
vn -0.503393 0.855429 0.121805
vn -0.544033 0.771414 0.330074
vn -0.544032 0.771414 0.330074
vn -0.544033 0.771414 0.330074
vn -0.730145 0.651969 -0.204512
vn -0.730145 0.651969 -0.204512
vn -0.730145 0.651969 -0.204512
vn -0.483271 0.871459 -0.083720
vn -0.483271 0.871459 -0.083720
vn -0.483271 0.871459 -0.083720
vn -0.103750 0.963589 -0.246437
vn -0.103750 0.963589 -0.246437
vn -0.103750 0.963589 -0.246437
vn 0.051695 0.943684 -0.326786
vn 0.051695 0.943683 -0.326786
vn 0.051695 0.943684 -0.326786
vn 0.051695 0.943684 -0.326786
vn -0.048222 0.960512 -0.274027
vn -0.048222 0.960512 -0.274027
vn -0.048222 0.960512 -0.274027
vn -0.048222 0.960512 -0.274027
vn 0.000000 1.000000 0.000000
vn 0.000000 1.000000 0.000000
vn 0.000000 1.000000 0.000000
vn 0.000000 1.000000 0.000000
vn 0.000000 1.000000 0.000000
vn 0.000000 1.000000 0.000000
vn 0.000000 1.000000 0.000000
vn 0.000000 1.000000 0.000000
vn 0.000000 1.000000 0.000000
vn 0.000000 1.000000 -0.000000
vn 0.000000 1.000000 -0.000000
vn 0.000000 1.000000 -0.000000
vn 0.000000 1.000000 -0.000000
vn 0.000000 1.000000 -0.000000
vn 0.000000 1.000000 -0.000000
vn 0.000000 1.000000 0.000000
vn 0.000000 1.000000 0.000000
vn 0.000000 1.000000 0.000000
vn 0.000000 1.000000 0.000000
vn 0.000000 1.000000 0.000000
vn 0.000000 1.000000 0.000000
vn 0.000000 1.000000 0.000000
vn 0.000000 1.000000 0.000000
vn 0.000000 1.000000 0.000000
vn 0.000000 1.000000 0.000000
vn 0.000000 1.000000 0.000000
vn 0.000000 1.000000 0.000000
vn 0.000000 1.000000 0.000000
vn 0.000000 1.000000 0.000000
vn 0.000000 1.000000 0.000000
vn 0.000000 1.000000 0.000000
vn 0.000000 1.000000 0.000000
vn 0.000000 1.000000 0.000000
vn 0.000000 1.000000 0.000000
vn 0.000000 1.000000 0.000000
vn 0.000000 1.000000 -0.000000
vn 0.000000 1.000000 -0.000000
vn 0.000000 1.000000 -0.000000
vn -0.923568 0.383435 0.000038
vn -0.923568 0.383435 0.000038
vn -0.923568 0.383435 0.000038
vn -0.923568 0.383435 0.000038
vn -0.923568 0.383435 0.000038
vn -0.910040 0.414520 0.000000
vn -0.910040 0.414520 0.000000
vn -0.910040 0.414520 0.000000
vn 0.730932 0.681062 -0.043520
vn 0.730932 0.681062 -0.043520
vn 0.730932 0.681062 -0.043520
vn 0.730932 0.681062 -0.043520
vn 0.827019 0.562155 0.004561
vn 0.827019 0.562155 0.004561
vn 0.827019 0.562155 0.004561
vn 0.827019 0.562155 0.004561
vn -0.910047 0.414505 -0.000001
vn -0.910047 0.414505 -0.000001
vn -0.910047 0.414505 -0.000001
vn -0.910047 0.414505 -0.000001
vn -0.847592 0.530635 -0.003738
vn -0.847592 0.530635 -0.003738
vn -0.847592 0.530635 -0.003738
vn -0.847592 0.530635 -0.003738
vn -0.806758 0.590601 0.018226
vn -0.806758 0.590601 0.018226
vn -0.806758 0.590601 0.018226
vn -0.806758 0.590601 0.018226
vn -0.910033 0.414536 -0.000000
vn -0.910033 0.414536 -0.000000
vn -0.910033 0.414536 -0.000000
vn -0.910033 0.414536 -0.000000
vn 0.000001 0.414515 0.910043
vn 0.000001 0.414515 0.910043
vn 0.000001 0.414515 0.910043
vn 0.000001 0.414515 0.910043
vn 0.910044 0.414511 0.000001
vn 0.910044 0.414511 0.000001
vn 0.910044 0.414511 0.000001
vn 0.910044 0.414511 0.000001
vn 0.843703 0.536787 -0.004994
vn 0.843703 0.536787 -0.004994
vn 0.843703 0.536787 -0.004994
vn 0.843703 0.536787 -0.004994
vn 0.910049 0.414501 0.000000
vn 0.910049 0.414501 0.000000
vn 0.910049 0.414501 0.000000
vn 0.000002 0.414522 -0.910039
vn 0.000002 0.414522 -0.910039
vn 0.000002 0.414522 -0.910039
vn 0.000002 0.414522 -0.910039
vn 0.005725 0.528987 -0.848611
vn 0.005725 0.528987 -0.848610
vn 0.005725 0.528987 -0.848610
vn 0.005725 0.528987 -0.848610
vn 0.000001 0.414532 -0.910035
vn 0.000001 0.414532 -0.910035
vn 0.000001 0.414532 -0.910035
vn 0.000001 0.414532 -0.910035
vn -0.006274 0.553571 -0.832778
vn -0.006274 0.553571 -0.832778
vn -0.006274 0.553571 -0.832778
vn -0.006274 0.553571 -0.832778
vn 0.006989 0.551522 0.834131
vn 0.006989 0.551522 0.834131
vn 0.006989 0.551522 0.834131
vn 0.006989 0.551522 0.834131
vn 0.007482 0.568754 0.822474
vn 0.007482 0.568754 0.822474
vn 0.007482 0.568754 0.822474
vn 0.007482 0.568754 0.822474
vn 0.000000 1.000000 0.000000
vn 0.000000 1.000000 0.000000
vn 0.000000 1.000000 0.000000
vn 0.000000 1.000000 0.000000
vn 0.000000 1.000000 0.000000
vn 0.000000 1.000000 0.000000
vn 0.000000 1.000000 0.000000
vn 0.000000 1.000000 0.000000
vn 0.000000 1.000000 0.000000
vn 0.000000 1.000000 0.000000
vn 0.000000 1.000000 0.000000
vn 0.000000 1.000000 0.000000
vn 0.000000 1.000000 -0.000000
vn 0.000000 1.000000 -0.000000
vn 0.000000 1.000000 -0.000000
vn 0.000000 1.000000 -0.000000
s off
f 17/27/1 18/28/2 2/2/3 4/4/4
f 77/172/5 69/158/6 74/166/7 37/115/8 75/168/9
f 14/24/10 15/25/11 6/6/12 8/8/13
f 13/23/14 14/24/15 8/8/16 11/19/17
f 10/18/18 11/20/19 8/11/20 6/12/21
f 7/13/22 12/21/23 9/15/24 5/14/25
f 80/177/26 95/203/27 81/179/28 82/180/29
f 2/2/30 11/20/31 10/18/32 4/4/33
f 18/29/34 13/23/35 11/19/36 2/10/37
f 9/15/38 12/21/39 1/1/40 3/3/41
f 7/7/42 14/24/43 13/23/44 12/22/45
f 5/5/46 15/25/47 14/24/48 7/7/49
f 61/144/50 59/141/51 56/136/52 58/139/53
f 54/132/54 55/133/55 51/127/56 53/130/57 52/129/58
f 1/1/59 18/28/60 17/27/61 3/3/62
f 12/22/63 13/23/64 18/29/65 1/9/66
f 3/3/67 17/27/68 20/74/69 19/76/70
f 9/16/71 3/3/72 19/76/73 22/68/74
f 16/26/75 24/90/76 23/92/77 9/16/78 22/68/79 21/72/80
f 15/25/81 5/5/82 26/84/83 25/88/84
f 5/5/85 9/16/86 23/92/87 26/84/88
f 17/27/89 28/106/90 27/108/91 16/26/92 21/72/93 20/74/94
f 17/27/95 4/4/96 29/104/97 28/106/98
f 4/4/99 10/17/100 30/100/101 29/104/102
f 16/26/103 32/122/104 31/124/105 15/25/106 25/88/107 24/90/108
f 10/17/109 33/120/110 32/122/111 16/26/112 27/108/113 30/100/114
f 10/17/115 6/6/116 34/116/117 33/120/118
f 6/6/119 15/25/120 31/124/121 34/116/122
f 71/160/123 32/123/124 36/118/125 73/165/126 68/157/127
f 74/167/128 33/121/129 37/114/130
f 33/44/131 78/173/132 75/169/133 37/48/134
f 34/45/135 72/161/136 67/154/137 38/49/138
f 27/38/139 92/196/140 89/192/141 94/202/142 39/94/143
f 28/39/144 84/182/145 79/176/146 40/51/147
f 83/181/148 30/101/149 42/96/150 80/178/151
f 97/205/152 27/109/153 39/95/154
f 57/138/155 24/91/156 44/86/157
f 24/35/158 25/89/159 66/152/160
f 25/36/161 26/85/162 46/80/163 45/56/164
f 26/37/165 62/145/166 60/142/167 46/57/168
f 19/30/169 20/75/170 48/70/171 55/134/172 47/62/173
f 20/31/174 21/73/175 49/66/176 51/126/177 48/59/178
f 52/128/179 22/69/180 50/64/181
f 22/33/182 19/77/183 47/63/184 54/131/185 50/61/186
f 49/67/187 53/130/188 51/127/189
f 52/129/190 53/130/191 49/67/192
f 47/58/193 55/133/194 54/132/195
f 43/54/196 57/137/197 58/139/198
f 43/54/199 58/139/200 56/136/201
f 62/146/202 61/144/203 60/143/204
f 59/141/205 61/144/206 62/146/207
f 66/153/208 65/151/209 64/150/210
f 63/148/211 65/151/212 66/153/213
f 70/159/214 71/163/215 68/156/216
f 72/162/217 69/158/218 67/155/219
f 72/162/220 71/163/221 70/159/222 69/158/223
f 35/46/224 71/163/225 72/162/226
f 74/166/227 73/164/228 36/119/229
f 78/174/230 77/172/231 75/168/232
f 76/170/233 77/172/234 78/174/235
f 84/183/236 81/179/237 79/175/238
f 83/184/239 82/180/240 81/179/241 84/183/242
f 80/177/243 82/180/244 83/184/245
f 83/184/246 84/183/247 41/99/248
f 88/198/249 87/189/250 85/185/251
f 89/192/252 92/196/253 91/197/254
f 91/197/255 92/196/256 90/194/257
f 86/187/258 87/189/259 88/198/260
f 98/207/261 95/203/262 93/200/263
f 97/208/264 96/204/265 95/203/266 98/207/267
f 39/50/268 94/201/269 96/204/270 97/208/271
f 93/200/272 95/203/273 80/177/274 42/97/275
f 81/179/276 87/189/277 86/187/278 40/103/279 79/175/280
f 87/189/281 95/203/282 96/204/283 91/195/284 90/193/285 85/185/286
f 81/179/287 95/203/288 87/189/289
f 91/195/290 96/204/291 94/201/292 89/191/293
f 67/155/294 69/158/295 77/172/296 76/170/297 38/113/298
f 74/166/299 69/158/300 70/159/301 68/156/302 73/164/303
f 51/127/304 55/133/305 48/71/306
f 54/132/307 52/129/308 50/65/309
f 62/145/310 23/93/311 43/79/312 56/135/313 59/140/314
f 26/37/315 23/93/316 62/145/317
f 66/152/318 25/89/319 45/82/320 63/147/321
f 24/35/322 66/152/323 64/149/324 44/55/325
f 31/42/326 32/123/327 71/160/328 35/110/329
f 92/196/330 88/190/331 85/186/332 90/194/333
f 88/190/334 28/107/335 40/102/336 86/188/337
f 27/38/338 28/107/339 88/190/340 92/196/341
f 28/39/342 29/105/343 41/98/344 84/182/345
f 29/40/346 30/101/347 83/181/348 41/52/349
f 78/173/350 34/117/351 38/112/352 76/171/353
f 33/44/354 34/117/355 78/173/356
f 34/45/357 31/125/358 35/111/359 72/161/360
f 30/41/361 98/206/362 93/199/363 42/53/364
f 30/41/365 27/109/366 97/205/367 98/206/368
f 21/32/369 22/69/370 52/128/371 49/60/372
f 23/34/373 24/91/374 57/138/375 43/78/376
f 32/43/377 33/121/378 74/167/379 36/47/380
f 61/144/381 65/151/382 60/143/383
f 61/144/384 44/87/385 64/150/386 65/151/387
f 60/143/388 65/151/389 63/148/390 45/83/391 46/81/392
f 61/144/393 58/139/394 57/137/395 44/87/396
