# This file uses meters as units for non-parametric coordinates.

v -122.817139 0.000000 71.741150
v 122.817139 0.000000 71.741150
v -119.552979 6.055971 68.636780
v 114.954346 8.815597 65.450867
v -114.954346 8.815597 -65.450745
v 119.884033 5.441885 -68.951721
v -122.817139 0.000000 -71.741028
v 122.817139 0.000000 -71.741028
v 110.260010 0.000000 -83.173645
v 107.979248 4.712888 -80.372742
v 103.200928 8.815597 75.880798
v 110.260010 0.000000 83.173645
v -112.565674 0.000000 -83.173645
v -105.358643 8.815596 -75.880798
v -110.441162 4.300371 80.617981
v -112.565674 0.000000 83.173645
v -14.040771 8.815596 -82.009949
v 105.672119 8.815597 -59.371521
v 114.954346 8.815597 -6.765076
v 70.362549 8.815597 -72.127625
v 53.203857 8.815597 75.880798
v -105.358643 8.815596 65.008240
v -114.954346 8.815597 35.920471
v 5.795166 8.815596 77.100647
v -65.157471 8.815596 73.295959
v -90.434814 8.815596 67.088318
v -114.954346 8.815597 -13.047180
v -114.954346 8.815597 -57.182678
v -110.203857 8.815596 -31.585144
v -120.539307 4.226506 -33.701965
v -81.276611 8.815596 -75.880798
v -47.698975 8.815596 -75.880920
v -61.666748 8.815596 -72.554260
v -63.893311 6.322860 -79.415955
v 74.026611 8.815597 75.880798
v 96.978271 8.815597 75.880798
v 88.762451 8.815597 71.960876
v 89.194092 5.749624 79.756653
v -1.152588 0.000000 89.891785
v -0.535889 4.019586 87.309998
v -73.436279 4.942940 80.236023
v -75.597900 0.000000 83.173645
v -1.152588 0.000000 -89.891785
v 72.025146 6.087680 -79.555847
v 76.836182 0.000000 -83.173645
v -105.358643 8.815597 -9.249573
vt 0.102316 0.252730
vt 0.102316 0.252730
vt 0.102316 0.252730
vt 0.102316 0.252730
vt 0.102316 0.252730
vt 0.102316 0.252730
vt 0.102316 0.252730
vt 0.102316 0.252730
vt 0.102316 0.252730
vt 0.102316 0.252730
vt 0.102316 0.252730
vt 0.102316 0.252730
vt 0.102316 0.252730
vt 0.102316 0.252730
vt 0.102316 0.252730
vt 0.102316 0.252730
vt 0.102316 0.252730
vt 0.102316 0.252730
vt 0.102316 0.252730
vt 0.102316 0.252730
vt 0.102316 0.252730
vt 0.102316 0.252730
vt 0.102316 0.252730
vt 0.102316 0.252730
vt 0.102316 0.252730
vt 0.102316 0.252730
vt 0.102316 0.252730
vt 0.102316 0.252730
vt 0.102316 0.252730
vt 0.102316 0.252730
vt 0.102316 0.252730
vt 0.102316 0.252730
vt 0.102316 0.252730
vt 0.102316 0.252730
vt 0.102316 0.252730
vt 0.102316 0.252730
vt 0.102316 0.252730
vt 0.102316 0.252730
vt 0.102316 0.252730
vt 0.102316 0.252730
vt 0.102316 0.252730
vt 0.102316 0.252730
vt 0.102316 0.252730
vt 0.102316 0.252730
vt 0.102316 0.252730
vt 0.102316 0.252730
vt 0.102316 0.252730
vt 0.102316 0.252730
vt 0.102316 0.252730
vt 0.102316 0.252730
vt 0.102316 0.252730
vt 0.102316 0.252730
vt 0.102316 0.252730
vt 0.102316 0.252730
vt 0.102316 0.252730
vt 0.102316 0.252730
vt 0.102316 0.252730
vt 0.102316 0.252730
vt 0.102316 0.252730
vt 0.102316 0.252730
vt 0.102316 0.252730
vn 0.441222 0.751403 0.490629
vn 0.441222 0.751403 0.490629
vn 0.441222 0.751403 0.490629
vn 0.441222 0.751403 0.490629
vn 0.175933 0.980778 -0.084395
vn 0.195800 0.979137 -0.054345
vn 0.207394 0.977573 -0.036594
vn 0.000000 -1.000000 0.000000
vn 0.000000 -1.000000 0.000000
vn 0.000000 -1.000000 0.000000
vn 0.000000 -1.000000 0.000000
vn -0.895119 0.436860 -0.088969
vn -0.895119 0.436860 -0.088969
vn -0.895119 0.436860 -0.088969
vn 0.039419 0.940796 -0.336672
vn 0.039419 0.940797 -0.336672
vn 0.039419 0.940796 -0.336672
vn -0.075107 0.539670 0.838520
vn -0.075107 0.539670 0.838520
vn -0.075107 0.539670 0.838520
vn -0.075107 0.539670 0.838520
vn 0.000000 -1.000000 0.000000
vn 0.000000 -1.000000 0.000000
vn 0.000000 -1.000000 0.000000
vn -0.485679 0.754797 -0.440905
vn -0.485679 0.754797 -0.440905
vn -0.485679 0.754797 -0.440905
vn -0.485679 0.754797 -0.440905
vn -0.160815 0.980107 0.116317
vn -0.165194 0.981178 0.100004
vn -0.176184 0.982640 0.058121
vn -0.593039 0.601258 0.535531
vn -0.593039 0.601258 0.535531
vn -0.593039 0.601258 0.535531
vn -0.593039 0.601258 0.535531
vn 0.000000 -1.000000 0.000000
vn 0.000000 -1.000000 0.000000
vn 0.000000 -1.000000 0.000000
vn 0.000000 -1.000000 0.000000
vn -0.026929 0.901188 0.432590
vn -0.026929 0.901188 0.432590
vn -0.026929 0.901188 0.432590
vn -0.026929 0.901188 0.432590
vn 0.000000 1.000000 0.000000
vn 0.000000 1.000000 0.000000
vn 0.000000 1.000000 0.000000
vn 0.000000 1.000000 0.000000
vn 0.746286 0.665626 0.000000
vn 0.746286 0.665626 0.000000
vn 0.746286 0.665626 0.000000
vn -0.000000 1.000000 0.000000
vn -0.000000 1.000000 0.000000
vn -0.000000 1.000000 0.000000
vn -0.000000 1.000000 0.000000
vn -0.000000 1.000000 0.000000
vn 0.000000 1.000000 0.000000
vn 0.000000 1.000000 0.000000
vn 0.000000 1.000000 0.000000
vn 0.000000 1.000000 0.000000
vn 0.000000 1.000000 0.000000
vn -0.723077 0.690223 -0.027430
vn -0.723077 0.690223 -0.027430
vn -0.723077 0.690223 -0.027430
vn -0.723077 0.690223 -0.027430
vn -0.386784 0.916828 -0.099116
vn -0.386784 0.916828 -0.099116
vn -0.386784 0.916828 -0.099116
vn -0.075885 0.944840 -0.318620
vn -0.075885 0.944840 -0.318620
vn -0.075885 0.944840 -0.318620
vn 0.060760 0.931675 -0.358177
vn 0.060760 0.931675 -0.358177
vn 0.060760 0.931675 -0.358177
vn -0.417811 0.905219 0.077539
vn -0.417811 0.905219 0.077539
vn -0.417811 0.905219 0.077539
vn 0.095692 0.928138 0.359726
vn 0.095692 0.928138 0.359726
vn 0.095692 0.928138 0.359726
vn -0.175919 0.912746 0.368711
vn -0.175919 0.912746 0.368711
vn -0.175919 0.912745 0.368711
vn 0.035282 0.772619 0.633889
vn 0.035282 0.772619 0.633889
vn 0.035282 0.772619 0.633889
vn 0.035282 0.772619 0.633889
vn 0.035282 0.772619 0.633889
vn 0.011084 0.902387 0.430785
vn 0.011084 0.902387 0.430785
vn 0.011084 0.902387 0.430785
vn -0.040623 0.943007 0.330283
vn -0.040623 0.943007 0.330283
vn -0.040623 0.943007 0.330283
vn -0.040623 0.943007 0.330283
vn 0.000001 0.510887 0.859648
vn 0.000001 0.510887 0.859648
vn 0.000001 0.510887 0.859648
vn 0.000001 0.510887 0.859648
vn -0.037144 0.963120 0.266495
vn -0.037144 0.963120 0.266495
vn -0.037144 0.963120 0.266495
vn -0.700725 0.713372 0.009189
vn -0.700725 0.713372 0.009189
vn -0.700725 0.713372 0.009189
vn -0.700725 0.713372 0.009189
vn -0.880295 0.474426 0.000000
vn -0.880295 0.474426 0.000000
vn -0.880295 0.474426 0.000000
vn 0.000000 -1.000000 0.000000
vn 0.000000 -1.000000 0.000000
vn 0.000000 -1.000000 0.000000
vn -0.071921 0.718971 -0.691309
vn -0.071921 0.718971 -0.691309
vn -0.071921 0.718971 -0.691309
vn -0.071921 0.718971 -0.691309
vn 0.056586 0.972537 -0.225766
vn 0.056586 0.972537 -0.225766
vn 0.056586 0.972537 -0.225766
vn 0.056586 0.972537 -0.225766
vn 0.000000 -1.000000 0.000000
vn 0.000000 -1.000000 0.000000
vn 0.000000 -1.000000 0.000000
vn 0.000000 -1.000000 0.000000
vn 0.000000 -1.000000 0.000000
vn 0.000000 -1.000000 0.000000
vn 0.000000 -1.000000 0.000000
vn 0.000000 -1.000000 0.000000
vn 0.052441 0.682268 0.729219
vn 0.052441 0.682268 0.729219
vn 0.052441 0.682268 0.729219
vn 0.052441 0.682268 0.729219
vn 0.046686 0.631177 0.774233
vn 0.046686 0.631177 0.774233
vn 0.046686 0.631177 0.774233
vn 0.000000 1.000000 0.000000
vn 0.000000 1.000000 0.000000
vn 0.000000 1.000000 0.000000
vn 0.000000 1.000000 0.000000
vn 0.000000 1.000000 0.000000
vn 0.000000 1.000000 0.000000
vn 0.000000 1.000000 0.000000
vn 0.000000 1.000000 0.000000
vn -0.000000 1.000000 0.000000
vn -0.000000 1.000000 0.000000
vn -0.000000 1.000000 0.000000
vn 0.000000 1.000000 -0.000000
vn 0.000000 1.000000 -0.000000
vn 0.000000 1.000000 -0.000000
vn 0.000000 1.000000 -0.000000
vn 0.000000 1.000000 -0.000000
vn 0.000000 1.000000 -0.000000
vn 0.000000 1.000000 -0.000000
vn -0.000000 1.000000 0.000000
vn -0.000000 1.000000 0.000000
vn -0.000000 1.000000 0.000000
vn 0.000000 1.000000 0.000000
vn 0.000000 1.000000 0.000000
vn 0.000000 1.000000 0.000000
vn 0.000000 1.000000 0.000000
vn 0.000000 1.000000 0.000000
vn 0.000000 1.000000 -0.000000
vn 0.000000 1.000000 -0.000000
vn 0.000000 1.000000 -0.000000
vn 0.000000 1.000000 -0.000000
vn 0.000000 1.000000 -0.000000
vn 0.775661 0.631096 0.008240
vn 0.775661 0.631096 0.008240
vn 0.775661 0.631096 0.008240
vn 0.775661 0.631096 0.008240
vn 0.535796 0.601373 -0.592684
vn 0.535796 0.601373 -0.592684
vn 0.535795 0.601373 -0.592684
vn 0.535795 0.601373 -0.592684
vn 0.000002 0.510885 -0.859649
vn 0.000002 0.510885 -0.859649
vn 0.000002 0.510885 -0.859649
vn 0.000002 0.510885 -0.859649
vn 0.053226 0.648886 -0.759021
vn 0.053226 0.648886 -0.759021
vn 0.053226 0.648886 -0.759021
vn 0.053226 0.648886 -0.759021
vn -0.021421 0.681319 -0.731674
vn -0.021421 0.681319 -0.731674
vn -0.021421 0.681319 -0.731674
vn -0.021421 0.681319 -0.731674
vn -0.041375 0.726279 -0.686154
vn -0.041375 0.726279 -0.686154
vn -0.041375 0.726279 -0.686154
vn 0.111589 0.977553 -0.178712
vn 0.195800 0.979137 -0.054345
vn 0.175933 0.980778 -0.084395
vn -0.160815 0.980107 0.116317
vn -0.126567 0.963135 0.237383
vn -0.165194 0.981178 0.100004
s off
f 11/17/1 12/18/2 2/2/3 4/4/4
f 6/6/5 18/26/6 19/27/7
f 12/19/8 9/15/9 8/8/10 2/10/11
f 23/32/12 1/1/13 3/3/14
f 17/25/15 20/29/16 44/59/17
f 40/54/18 41/55/19 42/56/20 39/52/21
f 39/53/22 43/58/23 45/60/24
f 5/5/25 14/21/26 13/20/27 7/7/28
f 3/3/29 22/31/30 23/33/31
f 1/1/32 16/23/33 15/22/34 3/3/35
f 7/7/36 13/20/37 16/24/38 1/9/39
f 40/54/40 24/34/41 25/35/42 41/55/43
f 19/27/44 18/26/45 11/17/46 4/4/47
f 2/2/48 19/28/49 4/4/50
f 20/29/51 24/34/52 21/30/53 35/48/54 37/50/55
f 23/33/56 22/31/57 46/61/58 29/41/59 27/38/60
f 7/13/61 30/42/62 28/39/63 5/14/64
f 29/47/65 30/42/66 27/37/67
f 34/46/68 33/45/69 32/44/70
f 31/43/71 33/45/72 34/46/73
f 28/39/74 30/42/75 29/47/76
f 38/51/77 37/50/78 35/48/79
f 36/49/80 37/50/81 38/51/82
f 21/30/83 40/54/84 39/52/85 38/51/86 35/48/87
f 21/30/88 24/34/89 40/54/90
f 41/55/91 25/35/92 26/36/93 15/22/94
f 41/55/95 15/22/96 16/23/97 42/56/98
f 15/22/99 26/36/100 22/31/101
f 30/42/102 1/1/103 23/32/104 27/37/105
f 7/13/106 1/1/107 30/42/108
f 42/57/109 43/58/110 39/53/111
f 43/58/112 34/46/113 32/44/114 17/25/115
f 44/59/116 20/29/117 18/26/118 10/16/119
f 39/53/120 45/60/121 9/15/122 12/19/123
f 16/24/124 13/20/125 43/58/126 42/57/127
f 38/51/128 12/18/129 11/17/130 36/49/131
f 38/51/132 39/52/133 12/18/134
f 20/29/135 37/50/136 36/49/137 11/17/138 18/26/139
f 17/25/140 25/35/141 24/34/142
f 17/25/143 24/34/144 20/29/145
f 33/45/146 26/36/147 25/35/148
f 33/45/149 25/35/150 17/25/151 32/44/152
f 26/36/153 46/61/154 22/31/155
f 14/21/156 46/61/157 26/36/158 33/45/159 31/43/160
f 29/41/161 46/61/162 14/21/163 5/5/164 28/40/165
f 2/2/166 8/11/167 6/12/168 19/28/169
f 9/15/170 10/16/171 6/6/172 8/8/173
f 45/60/174 44/59/175 10/16/176 9/15/177
f 43/58/178 17/25/179 44/59/180 45/60/181
f 13/20/182 14/21/183 31/43/184 34/46/185
f 13/20/186 34/46/187 43/58/188
f 10/16/189 18/26/190 6/6/191
f 3/3/192 15/22/193 22/31/194
