# This file uses meters as units for non-parametric coordinates.

v 376.251526 0.030917 -318.555664
v 373.620789 -2.982913 -328.316406
v 379.150940 -2.982913 -328.316406
v 376.940735 -2.982913 -440.529419
v 371.749695 -2.982913 -439.250122
v 0.000000 0.030916 -316.580566
v 126.846252 0.218719 -317.839233
v 124.343079 -2.982913 -324.903809
v 0.000000 -2.982913 -319.759521
v 0.000000 -2.982913 -439.365845
v 124.343079 -2.982913 -440.467896
v 129.157043 -2.982913 -440.681274
v 129.568420 -2.982913 -324.895020
v -0.000854 0.000000 -499.999146
v -0.000854 2.973632 -471.542603
v -0.000854 2.973632 -447.802612
v -0.000854 -7.851262 -480.175903
v -0.000854 -2.071193 -491.964233
v 401.586243 -0.000000 -499.999146
v 399.642395 -4.384511 -485.424438
v 376.631287 -7.851264 -476.119507
v 376.631287 2.973634 -467.485962
v 376.631287 2.973634 -446.976440
v 6.685669 2.973634 -447.802612
v 6.846313 2.973634 -471.542603
v 5.198364 -7.851264 -480.175903
v 4.471313 -2.071193 -491.964233
v 138.824463 -0.000000 -499.999146
v 141.162354 -2.840712 -489.788696
v 133.992981 -7.851264 -478.826538
v 135.092773 2.973634 -470.193237
v 134.985535 2.973634 -447.952271
v 499.999817 0.030916 -316.580566
v 499.999817 -2.982913 -319.759521
v 499.999817 -2.982913 -439.365845
v 500.000671 0.000000 -499.999146
v 500.000671 2.973632 -471.542603
v 500.000671 2.973632 -447.802612
v 500.000671 -7.851262 -480.175903
v 500.000671 -2.071193 -491.964233
v 493.314148 2.973634 -447.802612
v 493.153503 2.973634 -471.542603
v 494.801453 -7.851264 -480.175903
v 495.528503 -2.071193 -491.964233
v 500.000610 0.000000 0.000000
v 0.000000 0.000000 0.000000
v 500.000610 6.969652 -67.378296
v 0.000000 6.969652 -67.378296
v 500.000610 6.969652 -102.306396
v 0.000000 6.969652 -102.306519
v 500.000610 -23.029484 -58.744873
v 0.000000 -23.029484 -58.744751
v 500.000610 -0.000000 -107.378418
v 0.000000 -0.000000 -107.378540
v 500.000610 -5.417279 -8.034912
v 0.000000 -5.417279 -8.034790
v 0.000000 -8.353827 -26.542603
v 500.000610 -8.353827 -26.542725
v 289.252441 -0.000000 0.000000
v 291.196289 -7.730597 -14.574829
v 287.894653 -8.353827 -21.887939
v 243.826172 -23.029484 -62.801392
v 243.826172 6.969654 -71.434814
v 243.826172 6.969654 -106.362915
v 245.167480 -0.000000 -112.563599
v 493.314209 6.969654 -102.306396
v 493.153687 6.969654 -67.378296
v 494.801514 -23.029484 -58.744873
v 495.529053 -8.353827 -26.542725
v 495.528687 -5.417279 -8.034912
v 3.359253 6.969654 -102.306641
v 3.359253 6.969654 -67.378174
v 3.359253 -23.029484 -58.744873
v 3.359009 -8.353827 -26.542847
v 3.359253 -5.417279 -8.034912
vt 0.166435 0.302343
vt 0.166435 0.302343
vt 0.101578 0.301816
vt 0.101578 0.301816
vt 0.101578 0.301816
vt 0.166435 0.302343
vt 0.101578 0.301816
vt 0.166435 0.302343
vt 0.166435 0.302343
vt 0.166435 0.302343
vt 0.166435 0.302343
vt 0.166435 0.302343
vt 0.100751 0.327220
vt 0.100751 0.327220
vt 0.100751 0.327220
vt 0.100751 0.327220
vt 0.100751 0.327220
vt 0.100751 0.327220
vt 0.100751 0.327220
vt 0.100751 0.327220
vt 0.100751 0.327220
vt 0.100751 0.327220
vt 0.101578 0.301816
vt 0.101578 0.301816
vt 0.101578 0.301816
vt 0.101578 0.301816
vt 0.166435 0.302343
vt 0.166435 0.302343
vt 0.066177 0.209415
vt 0.066177 0.209415
vt 0.066177 0.209415
vt 0.066177 0.209415
vt 0.066177 0.209415
vt 0.102497 0.279316
vt 0.102497 0.279316
vt 0.102497 0.279316
vt 0.102497 0.279316
vt 0.102497 0.279316
vt 0.102497 0.279316
vt 0.102497 0.279316
vt 0.102497 0.279316
vt 0.102497 0.279316
vt 0.102497 0.279316
vt 0.102497 0.279316
vt 0.102497 0.279316
vt 0.102497 0.279316
vt 0.102497 0.279316
vt 0.102497 0.279316
vt 0.102183 0.307564
vt 0.102183 0.307564
vt 0.102183 0.307564
vt 0.102183 0.307564
vt 0.102183 0.307564
vt 0.102183 0.307564
vt 0.102183 0.307564
vt 0.102183 0.307564
vt 0.102183 0.307564
vt 0.102183 0.307564
vt 0.102183 0.307564
vt 0.102183 0.307564
vt 0.102183 0.307564
vt 0.102183 0.307564
vt 0.102183 0.307564
vt 0.066177 0.209415
vt 0.066177 0.209415
vt 0.102183 0.307564
vt 0.102183 0.307564
vt 0.102183 0.307564
vt 0.102183 0.307564
vt 0.102183 0.307564
vt 0.102183 0.307564
vt 0.102183 0.307564
vt 0.102183 0.307564
vt 0.102183 0.307564
vt 0.102183 0.307564
vt 0.102183 0.307564
vt 0.166435 0.302343
vt 0.166435 0.302343
vt 0.166435 0.302343
vt 0.166435 0.302343
vt 0.100751 0.327220
vt 0.100751 0.327220
vt 0.100751 0.327220
vt 0.100751 0.327220
vt 0.066177 0.209415
vt 0.066177 0.209415
vt 0.066177 0.209415
vt 0.102497 0.279316
vt 0.102497 0.279316
vt 0.102497 0.279316
vt 0.102497 0.279316
vt 0.102497 0.279316
vt 0.102497 0.279316
vt 0.102497 0.279316
vt 0.102497 0.279316
vt 0.102497 0.279316
vt 0.102497 0.279316
vt 0.102497 0.279316
vt 0.102497 0.279316
vt 0.102497 0.279316
vt 0.102497 0.279316
vt 0.102497 0.279316
vt 0.066177 0.209415
vt 0.066177 0.209415
vt 0.102183 0.307564
vt 0.102183 0.307564
vt 0.102183 0.307564
vt 0.102183 0.307564
vt 0.102183 0.307564
vt 0.102183 0.307564
vt 0.102183 0.307564
vt 0.102183 0.307564
vt 0.102183 0.307564
vt 0.102183 0.307564
vt 0.102183 0.307564
vt 0.102183 0.307564
vt 0.102183 0.307564
vt 0.102183 0.307564
vt 0.102183 0.307564
vt 0.102183 0.307564
vt 0.066177 0.209415
vt 0.066177 0.209415
vt 0.066177 0.209415
vt 0.066177 0.209415
vt 0.102183 0.307564
vt 0.102183 0.307564
vt 0.102183 0.307564
vt 0.102183 0.307564
vt 0.102183 0.307564
vt 0.102183 0.307564
vt 0.102183 0.307564
vt 0.102183 0.307564
vt 0.102183 0.307564
vt 0.102183 0.307564
vt 0.102183 0.307564
vt 0.102183 0.307564
vt 0.102183 0.307564
vt 0.102183 0.307564
vt 0.102183 0.307564
vt 0.102183 0.307564
vt 0.102183 0.307564
vt 0.102183 0.307564
vt 0.166646 0.302939
vt 0.166646 0.302939
vt 0.066177 0.209415
vt 0.066177 0.209415
vt 0.066177 0.209415
vt 0.102497 0.279316
vt 0.102497 0.279316
vt 0.102497 0.279316
vt 0.102497 0.279316
vt 0.102497 0.279316
vt 0.102497 0.279316
vt 0.102497 0.279316
vt 0.102497 0.279316
vt 0.102497 0.279316
vt 0.102497 0.279316
vt 0.102497 0.279316
vt 0.102497 0.279316
vt 0.102497 0.279316
vt 0.102497 0.279316
vt 0.102497 0.279316
vt 0.102497 0.279316
vt 0.102497 0.279316
vt 0.102497 0.279316
vt 0.102497 0.279316
vt 0.166646 0.302939
vt 0.166646 0.302939
vt 0.166646 0.302939
vt 0.102183 0.307564
vt 0.102183 0.307564
vt 0.102183 0.307564
vt 0.102183 0.307564
vt 0.102183 0.307564
vt 0.102183 0.307564
vt 0.102183 0.307564
vt 0.102183 0.307564
vt 0.102183 0.307564
vt 0.102183 0.307564
vt 0.102183 0.307564
vt 0.102183 0.307564
vt 0.102183 0.307564
vt 0.102183 0.307564
vt 0.102183 0.307564
vt 0.102183 0.307564
vt 0.102183 0.307564
vt 0.102183 0.307564
vt 0.102497 0.279316
vt 0.102497 0.279316
vt 0.102497 0.279316
vt 0.102497 0.279316
vt 0.102497 0.279316
vt 0.102497 0.279316
vt 0.102497 0.279316
vt 0.102497 0.279316
vt 0.102497 0.279316
vt 0.102497 0.279316
vt 0.102497 0.279316
vt 0.102497 0.279316
vt 0.102497 0.279316
vt 0.102497 0.279316
vt 0.102497 0.279316
vt 0.102497 0.279316
vt 0.102497 0.279316
vt 0.102497 0.279316
vt 0.102497 0.279316
vt 0.066177 0.209415
vt 0.166646 0.302939
vt 0.166646 0.302939
vt 0.166646 0.302939
vt 0.166646 0.302939
vn 0.000000 1.000000 0.000000
vn 0.000000 1.000000 0.000000
vn 0.000000 1.000000 0.000000
vn 0.000000 1.000000 0.000000
vn 0.000000 0.955488 -0.295029
vn 0.000000 0.955488 -0.295029
vn 0.000000 0.955488 -0.295029
vn -0.013799 0.856340 -0.516229
vn -0.013799 0.856340 -0.516229
vn -0.013799 0.856340 -0.516229
vn -0.013799 0.856340 -0.516229
vn 0.000693 0.910737 -0.412986
vn 0.000693 0.910737 -0.412986
vn 0.000693 0.910737 -0.412986
vn 0.000000 1.000000 0.000000
vn 0.000000 1.000000 0.000000
vn 0.000000 1.000000 0.000000
vn 0.000000 1.000000 0.000000
vn 0.000000 1.000000 0.000000
vn 0.000000 1.000000 0.000000
vn 0.000000 1.000000 0.000000
vn 0.000000 1.000000 0.000000
vn 0.000000 1.000000 0.000000
vn 0.000000 1.000000 0.000000
vn 0.000000 1.000000 0.000000
vn 0.000000 1.000000 0.000000
vn 0.000000 1.000000 0.000000
vn 0.000000 1.000000 0.000000
vn -0.002550 0.937975 -0.346694
vn -0.002550 0.937975 -0.346693
vn -0.002550 0.937975 -0.346694
vn -0.002550 0.937975 -0.346693
vn 0.000000 0.968345 0.249614
vn 0.000000 0.968345 0.249614
vn 0.000000 0.968345 0.249614
vn 0.000000 0.897876 0.440248
vn 0.000000 0.897876 0.440248
vn 0.000000 0.897876 0.440248
vn 0.000000 0.897876 0.440248
vn -0.000001 0.623522 -0.781806
vn -0.000001 0.623522 -0.781806
vn -0.000001 0.623522 -0.781806
vn -0.000001 0.623522 -0.781806
vn -0.000000 1.000000 0.000000
vn -0.000000 1.000000 0.000000
vn -0.000000 1.000000 0.000000
vn -0.000000 1.000000 0.000000
vn 0.000007 0.816914 0.576759
vn 0.000007 0.816914 0.576759
vn 0.000007 0.816914 0.576759
vn -0.002326 0.783897 0.620887
vn -0.002330 0.783898 0.620886
vn 0.163927 0.728469 0.665177
vn 0.000000 1.000000 0.000000
vn 0.000000 1.000000 0.000000
vn 0.000000 1.000000 0.000000
vn 0.000000 1.000000 0.000000
vn 0.008547 0.623095 -0.782099
vn 0.008573 0.623113 -0.782084
vn 0.008745 0.623232 -0.781988
vn 0.008745 0.623232 -0.781988
vn -0.002671 0.919461 0.393173
vn -0.002831 0.913236 0.407420
vn -0.002553 0.923893 0.382643
vn -0.002553 0.923893 0.382643
vn 0.000500 0.960041 0.279858
vn 0.000550 0.961992 0.273079
vn 0.000533 0.961330 0.275398
vn 0.000500 0.960041 0.279858
vn 0.000533 0.961330 0.275398
vn 0.000550 0.961992 0.273079
vn 0.000646 0.965680 0.259733
vn 0.000646 0.965680 0.259733
vn -0.003061 0.903853 0.427833
vn -0.003061 0.903853 0.427833
vn -0.002831 0.913236 0.407420
vn -0.002671 0.919461 0.393173
vn 0.008214 0.622864 -0.782287
vn 0.008214 0.622864 -0.782287
vn 0.008573 0.623113 -0.782084
vn 0.008547 0.623095 -0.782099
vn 0.000000 1.000000 0.000000
vn 0.000000 1.000000 0.000000
vn 0.000000 1.000000 0.000000
vn 0.000000 1.000000 0.000000
vn -0.002103 0.786449 0.617652
vn 0.003109 0.798927 0.601420
vn -0.002457 0.783668 0.621175
vn 0.002979 0.799108 0.601180
vn 0.002979 0.799108 0.601180
vn 0.003109 0.798927 0.601420
vn -0.002103 0.786449 0.617652
vn -0.002103 0.786449 0.617652
vn -0.002457 0.783668 0.621175
vn -0.002330 0.783898 0.620886
vn -0.002326 0.783897 0.620887
vn 0.018036 0.907868 -0.418868
vn 0.018036 0.907868 -0.418868
vn 0.018036 0.907868 -0.418868
vn 0.018036 0.907868 -0.418868
vn 0.000000 1.000000 0.000000
vn 0.000000 1.000000 0.000000
vn 0.000000 1.000000 0.000000
vn 0.000000 1.000000 0.000000
vn 0.000000 0.968345 0.249614
vn 0.000000 0.968346 0.249614
vn 0.000000 0.968345 0.249614
vn 0.000000 0.897877 0.440247
vn 0.000000 0.897877 0.440247
vn 0.000000 0.897877 0.440247
vn 0.000000 0.897877 0.440247
vn 0.000000 0.623522 -0.781806
vn 0.000000 0.623522 -0.781806
vn 0.000000 0.623522 -0.781806
vn 0.000000 0.623522 -0.781806
vn 0.000000 1.000000 -0.000000
vn 0.000000 1.000000 -0.000000
vn 0.000000 1.000000 -0.000000
vn 0.000000 1.000000 -0.000000
vn -0.000007 0.816912 0.576763
vn -0.000007 0.816912 0.576763
vn -0.000007 0.816911 0.576763
vn -0.002229 0.961735 0.273971
vn -0.002229 0.961735 0.273971
vn -0.002229 0.961735 0.273971
vn -0.002229 0.961735 0.273971
vn 0.010514 0.911406 0.411373
vn 0.010514 0.911406 0.411373
vn 0.010514 0.911406 0.411373
vn 0.010514 0.911406 0.411373
vn -0.027051 0.622040 -0.782518
vn -0.027051 0.622040 -0.782518
vn -0.027051 0.622040 -0.782518
vn -0.027051 0.622040 -0.782518
vn 0.000000 1.000000 -0.000000
vn 0.000000 1.000000 -0.000000
vn 0.000000 1.000000 -0.000000
vn 0.000000 1.000000 -0.000000
vn -0.000880 0.780512 0.625141
vn -0.000880 0.780512 0.625141
vn -0.000880 0.780512 0.625141
vn -0.000880 0.780512 0.625141
vn -0.002237 0.864232 -0.503088
vn -0.002237 0.864232 -0.503088
vn -0.002237 0.864232 -0.503088
vn -0.002237 0.864232 -0.503088
vn 0.000000 1.000000 0.000000
vn 0.000000 1.000000 0.000000
vn 0.000000 1.000000 0.000000
vn 0.000000 1.000000 0.000000
vn -0.006977 0.698957 -0.715130
vn -0.006977 0.698957 -0.715130
vn -0.006977 0.698957 -0.715130
vn -0.006977 0.698957 -0.715130
vn 0.016209 0.276528 0.960869
vn 0.016209 0.276528 0.960869
vn 0.016209 0.276528 0.960869
vn 0.016209 0.276528 0.960869
vn 0.000425 0.927927 -0.372762
vn 0.000425 0.927927 -0.372762
vn 0.000425 0.927927 -0.372762
vn 0.000425 0.927927 -0.372762
vn 0.003552 0.990562 -0.137016
vn 0.003552 0.990562 -0.137016
vn 0.003552 0.990562 -0.137016
vn 0.003552 0.990562 -0.137016
vn 0.000000 0.829146 -0.559032
vn 0.000000 0.829146 -0.559032
vn 0.000000 0.829146 -0.559031
vn 0.000000 0.987645 -0.156705
vn 0.000000 0.987646 -0.156705
vn 0.000000 0.987645 -0.156705
vn 0.000000 0.987645 -0.156705
vn 0.000000 0.909958 -0.414700
vn 0.000000 0.909958 -0.414700
vn 0.000000 0.909958 -0.414700
vn 0.000000 0.909958 -0.414700
vn 0.000001 0.276564 0.960995
vn 0.000001 0.276564 0.960995
vn 0.000001 0.276564 0.960995
vn 0.000001 0.276564 0.960995
vn 0.000000 1.000000 0.000000
vn 0.000000 1.000000 0.000000
vn 0.000000 1.000000 0.000000
vn 0.000000 1.000000 0.000000
vn 0.065746 0.627607 -0.775749
vn 0.065746 0.627607 -0.775750
vn 0.065746 0.627607 -0.775750
vn 0.007303 0.999973 0.000148
vn 0.010745 0.999855 0.013252
vn 0.010745 0.999855 0.013252
vn 0.013582 0.696640 -0.717293
vn 0.013582 0.696640 -0.717293
vn 0.013582 0.696640 -0.717293
vn 0.013582 0.696640 -0.717292
vn 0.000000 1.000000 -0.000000
vn 0.000000 1.000000 -0.000000
vn 0.000000 1.000000 -0.000000
vn 0.000000 1.000000 -0.000000
vn -0.015584 0.276135 0.960993
vn -0.015584 0.276135 0.960993
vn -0.015584 0.276135 0.960993
vn -0.015584 0.276135 0.960993
vn -0.000486 0.928119 -0.372284
vn -0.000486 0.928119 -0.372284
vn -0.000486 0.928119 -0.372284
vn -0.000486 0.928119 -0.372284
vn -0.004941 0.990703 -0.135951
vn -0.004941 0.990703 -0.135951
vn -0.004941 0.990703 -0.135951
vn -0.004941 0.990703 -0.135951
vn 0.003108 0.864307 -0.502955
vn 0.003108 0.864307 -0.502955
vn 0.003108 0.864307 -0.502955
vn 0.003108 0.864307 -0.502955
vn -0.208089 0.639121 -0.740421
vn -0.208089 0.639121 -0.740421
vn -0.208089 0.639121 -0.740421
vn -0.000001 1.000000 0.000000
vn -0.000001 1.000000 0.000000
vn -0.000001 1.000000 0.000000
vn -0.000001 1.000000 0.000000
vn -0.000001 0.276564 0.960996
vn -0.000001 0.276564 0.960996
vn -0.000001 0.276564 0.960996
vn -0.000001 0.276564 0.960996
vn -0.000012 0.909958 -0.414701
vn -0.000012 0.909958 -0.414701
vn -0.000012 0.909958 -0.414701
vn -0.000012 0.909958 -0.414701
vn -0.000005 0.987646 -0.156705
vn -0.000005 0.987646 -0.156705
vn -0.000005 0.987646 -0.156705
vn -0.000005 0.987646 -0.156705
vn 0.000000 0.829149 -0.559028
vn 0.000000 0.829149 -0.559028
vn 0.000000 0.829149 -0.559028
vn 0.010745 0.999855 0.013252
vn 0.010745 0.999855 0.013252
vn 0.023741 0.999507 0.020525
vn -0.003782 0.999983 0.004419
vn -0.003782 0.999983 0.004419
vn -0.007510 0.999972 0.000148
vn -0.003782 0.999983 0.004419
vn 0.000101 0.999988 0.004797
vn -0.003782 0.999983 0.004419
vn 0.010745 0.999855 0.013252
vn -0.000099 0.999988 0.004843
vn 0.010745 0.999855 0.013252
s off
f 2/3/1 3/4/2 4/5/3 5/7/4
f 1/1/5 3/2/6 2/6/7
f 7/8/8 8/9/9 9/10/10 6/11/11
f 7/8/12 13/12/13 8/9/14
f 9/13/15 8/14/16 11/15/17 10/16/18
f 12/17/19 13/18/20 2/19/21
f 12/20/22 2/21/23 5/22/24
f 8/23/25 13/24/26 12/25/27 11/26/28
f 1/27/29 2/28/30 13/12/31 7/8/32
f 14/31/33 18/32/34 27/33/35
f 27/34/36 18/35/37 17/36/38 26/37/39
f 25/38/40 26/39/41 17/40/42 15/41/43
f 24/42/44 25/43/45 15/44/46 16/45/47
f 10/46/48 24/47/49 16/48/50
f 23/49/51 5/50/52 4/51/53
f 31/52/54 32/53/55 23/54/56 22/55/57
f 30/56/58 31/57/59 22/58/60 21/59/61
f 29/60/62 30/61/63 21/62/64 20/63/65
f 19/29/66 28/64/67 29/65/68 20/30/69
f 29/65/70 28/64/71 14/31/72 27/33/73
f 27/70/74 26/71/75 30/61/76 29/60/77
f 26/72/78 25/73/79 31/57/80 30/56/81
f 25/74/82 24/75/83 32/53/84 31/52/85
f 32/76/86 11/69/87 12/68/88
f 24/67/89 10/66/90 11/69/91 32/76/92
f 32/76/93 12/68/94 5/50/95 23/49/96
f 1/77/97 33/78/98 34/79/99 3/80/100
f 34/81/101 35/82/102 4/83/103 3/84/104
f 36/85/105 44/86/106 40/87/107
f 44/88/108 43/89/109 39/90/110 40/91/111
f 42/92/112 37/93/113 39/94/114 43/95/115
f 41/96/116 38/97/117 37/98/118 42/99/119
f 35/100/120 38/101/121 41/102/122
f 20/103/123 44/86/124 36/85/125 19/104/126
f 44/105/127 20/106/128 21/107/129 43/108/130
f 43/109/131 21/110/132 22/111/133 42/112/134
f 42/113/135 22/114/136 23/115/137 41/116/138
f 41/117/139 23/118/140 4/119/141 35/120/142
f 46/121/143 59/122/144 60/123/145 75/124/146
f 63/125/147 64/126/148 71/127/149 72/128/150
f 64/129/151 65/130/152 54/131/153 71/132/154
f 62/133/155 63/134/156 72/135/157 73/136/158
f 61/137/159 62/138/160 73/139/161 74/140/162
f 60/141/163 61/137/164 74/140/165 75/142/166
f 45/145/167 55/146/168 70/147/169
f 69/148/170 70/149/171 55/150/172 58/151/173
f 68/152/174 69/153/175 58/154/176 51/155/177
f 67/156/178 68/157/179 51/158/180 47/159/181
f 66/160/182 67/161/183 47/162/184 49/163/185
f 53/164/186 66/165/187 49/166/188
f 1/167/189 53/168/190 33/169/191
f 66/170/192 53/171/193 65/172/194 64/173/195
f 67/174/196 66/175/197 64/176/198 63/177/199
f 68/178/200 67/179/201 63/180/202 62/181/203
f 69/182/204 68/183/205 62/184/206 61/185/207
f 70/186/208 69/182/209 61/185/210 60/187/211
f 59/122/212 45/145/213 70/147/214 60/123/215
f 50/188/216 71/189/217 54/190/218
f 48/191/219 72/192/220 71/193/221 50/194/222
f 52/195/223 73/196/224 72/197/225 48/198/226
f 57/199/227 74/200/228 73/201/229 52/202/230
f 56/203/231 75/204/232 74/205/233 57/206/234
f 46/121/235 75/124/236 56/207/237
f 7/208/238 65/209/239 1/167/240
f 6/210/241 54/211/242 7/143/243
f 65/144/244 7/143/245 54/211/246
f 53/168/247 1/167/248 65/209/249
