# This file uses meters as units for non-parametric coordinates.

v 250.000488 0.000000 -250.000793
v 125.000488 0.000000 -250.000793
v 237.626099 15.993290 -250.000793
v 137.374878 15.993290 -250.000793
v 250.000488 0.000000 -130.222656
v 235.352600 15.500061 -110.656776
v 126.506836 0.281049 -137.484970
v 137.524292 18.954622 -128.756088
v 238.953125 16.408026 -197.158142
v 138.035095 18.911928 -205.829529
v 187.141174 24.690681 -132.213928
v 187.500488 16.785351 -250.000793
v 178.757751 18.139349 -113.412071
v 162.927429 18.884941 -250.000793
v 226.552307 13.087997 -139.303925
v 212.073547 18.884941 -250.000793
v 207.732605 22.566078 -223.962860
v 171.020813 19.364206 -168.838196
v 156.311951 19.210590 -161.304871
v 208.962402 14.480265 -149.730026
v 223.202271 19.576637 -188.417053
v 192.822571 18.538298 -174.235641
v 222.800049 0.000001 -0.000732
v 219.115417 16.438311 -29.490410
v 188.498230 19.060642 -70.157028
v 161.304138 19.210590 -93.689278
v 118.105957 18.954622 -115.811890
v 195.998169 22.132652 -38.308151
v 197.244934 15.096729 -10.810255
v 0.000000 0.000000 0.000000
v 0.000000 0.000000 -125.000000
v 0.000000 15.993290 -12.374409
v 0.000000 15.993290 -112.625595
v 130.221924 0.000000 -0.000732
v 130.999512 15.621605 -14.315588
v 0.000000 16.785351 -62.500000
v 104.715942 0.281049 -124.661041
v 0.000000 18.884941 -37.926926
v 0.000000 18.884941 -87.073074
v 77.095947 16.507177 -11.021277
v 81.868713 19.693348 -112.663124
v 132.213196 24.690681 -62.860046
v 113.959595 18.722771 -91.761688
v 148.518250 13.088015 -22.186720
v 50.076477 19.997015 -85.158463
v 80.120544 15.795935 -62.513344
v 106.779175 16.806847 -30.195183
v 148.689148 13.918627 -29.840651
v 168.119507 19.431597 -26.651148
v 154.402527 18.331896 -55.728149
v 234.233093 12.671288 -50.405006
v 250.000183 0.000001 -25.159700
v 235.312622 9.826338 -80.220535
v 237.112488 10.644225 -136.697174
v 242.290405 0.000001 -7.840715
v 119.579956 0.281049 -127.736214
v 129.557068 0.429214 -205.305359
v 70.088074 0.191247 -129.420593
vt 0.038568 0.254350
vt 0.038568 0.254328
vt 0.038568 0.254346
vt 0.038568 0.254331
vt 0.038578 0.254350
vt 0.038577 0.254346
vt 0.038578 0.254328
vt 0.038577 0.254331
vt 0.038572 0.254346
vt 0.038571 0.254331
vt 0.038577 0.254339
vt 0.038568 0.254338
vt 0.038577 0.254335
vt 0.038568 0.254335
vt 0.038577 0.254343
vt 0.038568 0.254342
vt 0.038572 0.254343
vt 0.038572 0.254338
vt 0.038572 0.254335
vt 0.038577 0.254342
vt 0.038575 0.254343
vt 0.038575 0.254340
vt 0.038578 0.254348
vt 0.038577 0.254347
vt 0.038577 0.254347
vt 0.038577 0.254347
vt 0.038577 0.254347
vt 0.038577 0.254347
vt 0.038577 0.254347
vt 0.038577 0.254347
vt 0.038577 0.254347
vt 0.038577 0.254347
vt 0.038577 0.254347
vt 0.038577 0.254348
vt 0.038577 0.254347
vt 0.038589 0.254350
vt 0.038578 0.254350
vt 0.038582 0.254347
vt 0.038582 0.254331
vt 0.038582 0.254335
vt 0.038577 0.254335
vt 0.038577 0.254331
vt 0.038577 0.254346
vt 0.038572 0.254346
vt 0.038589 0.254328
vt 0.038586 0.254331
vt 0.038586 0.254347
vt 0.038568 0.254350
vt 0.038578 0.254328
vt 0.038577 0.254330
vt 0.038578 0.254330
vt 0.038572 0.254335
vt 0.038582 0.254339
vt 0.038582 0.254343
vt 0.038577 0.254342
vt 0.038577 0.254339
vt 0.038577 0.254343
vt 0.038572 0.254338
vt 0.038575 0.254340
vt 0.038587 0.254335
vt 0.038587 0.254343
vt 0.038587 0.254339
vt 0.038575 0.254343
vt 0.038572 0.254343
vt 0.038577 0.254347
vt 0.038578 0.254348
vt 0.038577 0.254347
vt 0.038576 0.254346
vt 0.038578 0.254348
vt 0.038578 0.254329
vt 0.038571 0.254328
vt 0.038581 0.254328
vn -0.904446 0.417371 0.088198
vn -0.904446 0.417371 0.088198
vn -0.904446 0.417371 0.088198
vn 0.605564 0.790252 0.093771
vn 0.605564 0.790252 0.093771
vn 0.605564 0.790252 0.093771
vn 0.790663 0.611755 -0.024657
vn 0.790663 0.611755 -0.024657
vn 0.790663 0.611755 -0.024657
vn 0.829505 0.558499 0.000000
vn 0.829505 0.558499 0.000000
vn 0.829505 0.558499 0.000000
vn -0.860027 0.510214 -0.005982
vn -0.860027 0.510214 -0.005982
vn -0.860027 0.510214 -0.005982
vn -0.790580 0.611691 -0.028601
vn -0.790580 0.611691 -0.028601
vn -0.790580 0.611691 -0.028601
vn 0.013864 0.999778 0.015865
vn 0.013864 0.999778 0.015865
vn 0.013864 0.999778 0.015865
vn 0.259873 0.952293 -0.160014
vn 0.259873 0.952293 -0.160014
vn 0.259873 0.952293 -0.160014
vn -0.222671 0.973474 0.052595
vn -0.222671 0.973474 0.052595
vn -0.222671 0.973474 0.052595
vn -0.222671 0.973474 0.052595
vn 0.364432 0.927206 -0.086480
vn 0.364432 0.927206 -0.086480
vn 0.364432 0.927206 -0.086480
vn 0.177606 0.983106 -0.044262
vn 0.177606 0.983106 -0.044262
vn 0.177606 0.983106 -0.044262
vn 0.177606 0.983106 -0.044262
vn -0.165453 0.982149 -0.089487
vn -0.165453 0.982149 -0.089487
vn -0.165453 0.982149 -0.089487
vn -0.165453 0.982149 -0.089487
vn -0.012812 0.999907 -0.004627
vn -0.012812 0.999907 -0.004627
vn -0.012812 0.999907 -0.004627
vn -0.006259 0.999972 -0.004138
vn -0.006259 0.999972 -0.004138
vn -0.006259 0.999972 -0.004138
vn 0.000870 0.991393 0.130920
vn 0.000870 0.991393 0.130920
vn 0.000870 0.991393 0.130920
vn -0.014752 0.999891 -0.000652
vn -0.014752 0.999891 -0.000652
vn -0.014752 0.999891 -0.000652
vn -0.112218 0.991630 -0.063845
vn -0.112218 0.991630 -0.063845
vn -0.112218 0.991630 -0.063845
vn 0.085124 0.996267 -0.014371
vn 0.085124 0.996267 -0.014371
vn 0.085124 0.996267 -0.014371
vn 0.195765 0.980647 -0.002724
vn 0.195765 0.980647 -0.002724
vn 0.195765 0.980647 -0.002724
vn 0.254146 0.960934 0.109619
vn 0.254146 0.960934 0.109619
vn 0.254146 0.960934 0.109619
vn -0.058840 0.992292 0.109060
vn -0.058840 0.992292 0.109060
vn -0.058840 0.992292 0.109060
vn 0.062151 0.993137 0.099077
vn 0.062151 0.993137 0.099077
vn 0.062151 0.993137 0.099077
vn 0.087424 0.990469 0.106438
vn 0.087424 0.990469 0.106438
vn 0.087424 0.990469 0.106438
vn 0.001675 0.989482 -0.144643
vn 0.001675 0.989482 -0.144643
vn 0.001675 0.989482 -0.144643
vn 0.293194 0.942577 -0.159959
vn 0.293194 0.942577 -0.159959
vn 0.293194 0.942577 -0.159959
vn 0.789626 0.603010 0.113446
vn 0.789626 0.603010 0.113446
vn 0.789626 0.603010 0.113446
vn 0.027302 0.940120 0.339749
vn 0.027302 0.940120 0.339749
vn 0.027302 0.940120 0.339749
vn 0.245523 0.950462 -0.190633
vn 0.245523 0.950462 -0.190634
vn 0.245523 0.950462 -0.190633
vn 0.245523 0.950462 -0.190633
vn 0.029716 0.999167 -0.027973
vn 0.029716 0.999167 -0.027973
vn 0.029716 0.999167 -0.027973
vn 0.012685 0.999739 0.019030
vn 0.012685 0.999738 0.019030
vn 0.012685 0.999739 0.019030
vn 0.015049 0.999048 -0.040946
vn 0.015049 0.999048 -0.040946
vn 0.015049 0.999048 -0.040946
vn 0.174699 0.980748 -0.087256
vn 0.174699 0.980748 -0.087256
vn 0.174699 0.980748 -0.087256
vn 0.244484 0.903837 0.351151
vn 0.244484 0.903837 0.351151
vn 0.244484 0.903837 0.351151
vn 0.244484 0.903837 0.351151
vn 0.000005 0.555260 0.831677
vn 0.000005 0.555260 0.831677
vn 0.000005 0.555260 0.831677
vn 0.021418 0.999679 0.013538
vn 0.021418 0.999679 0.013538
vn 0.021418 0.999679 0.013538
vn 0.021418 0.999679 0.013538
vn -0.033589 0.676125 0.736021
vn -0.033589 0.676125 0.736021
vn -0.033589 0.676125 0.736021
vn -0.028008 0.611701 -0.790593
vn -0.028008 0.611701 -0.790593
vn -0.028008 0.611701 -0.790593
vn 0.056129 0.673012 0.737498
vn 0.056129 0.673012 0.737498
vn 0.056129 0.673012 0.737498
vn -0.017957 0.611843 0.790775
vn -0.017957 0.611843 0.790775
vn -0.017957 0.611843 0.790775
vn -0.000000 0.582170 0.813067
vn -0.000000 0.582170 0.813067
vn -0.000000 0.582170 0.813067
vn -0.651606 0.600873 -0.462992
vn -0.651606 0.600873 -0.462992
vn -0.651606 0.600873 -0.462992
vn 0.106315 0.610303 -0.785002
vn 0.106315 0.610303 -0.785002
vn 0.106315 0.610303 -0.785002
vn -0.009980 0.999919 0.007919
vn -0.009980 0.999919 0.007919
vn -0.009980 0.999919 0.007919
vn -0.062648 0.980208 0.187798
vn -0.062648 0.980208 0.187798
vn -0.062648 0.980208 0.187798
vn -0.062648 0.980208 0.187798
vn 0.021537 0.964671 -0.262576
vn 0.021537 0.964671 -0.262576
vn 0.021537 0.964671 -0.262576
vn -0.064006 0.997617 0.025777
vn -0.064006 0.997617 0.025777
vn -0.064006 0.997617 0.025777
vn -0.064006 0.997617 0.025777
vn 0.036502 0.989278 -0.141407
vn 0.036502 0.989278 -0.141407
vn 0.036502 0.989278 -0.141407
vn 0.036502 0.989278 -0.141407
vn 0.048022 0.998845 0.001308
vn 0.048022 0.998845 0.001308
vn 0.048022 0.998845 0.001308
vn 0.048022 0.998845 0.001308
vn 0.206873 0.955869 0.208612
vn 0.206873 0.955869 0.208612
vn 0.206873 0.955868 0.208612
vn -0.035175 0.996088 -0.081065
vn -0.035175 0.996088 -0.081065
vn -0.035175 0.996088 -0.081065
vn -0.035175 0.996088 -0.081065
vn -0.030090 0.974860 0.220776
vn -0.030090 0.974860 0.220776
vn -0.030090 0.974860 0.220776
vn 0.018997 0.997804 -0.063456
vn 0.018997 0.997804 -0.063456
vn 0.018997 0.997804 -0.063456
vn 0.018997 0.997804 -0.063456
vn 0.004810 0.997221 0.074346
vn 0.004810 0.997221 0.074346
vn 0.004810 0.997221 0.074346
vn 0.004810 0.997221 0.074346
vn 0.067422 0.991738 0.109130
vn 0.067422 0.991738 0.109130
vn 0.067422 0.991738 0.109130
vn -0.286379 0.953189 0.097047
vn -0.286379 0.953189 0.097047
vn -0.286379 0.953189 0.097047
vn 0.012318 0.996294 0.085126
vn 0.012318 0.996294 0.085126
vn 0.012318 0.996294 0.085126
vn 0.009606 0.968849 0.247465
vn 0.009606 0.968849 0.247465
vn 0.009606 0.968849 0.247465
vn -0.155170 0.842507 0.515852
vn -0.155170 0.842507 0.515852
vn -0.155170 0.842507 0.515852
vn -0.214869 0.929940 -0.298400
vn -0.214869 0.929940 -0.298400
vn -0.214869 0.929940 -0.298400
vn -0.056273 0.994983 -0.082720
vn -0.056273 0.994983 -0.082720
vn -0.056273 0.994983 -0.082720
vn -0.146025 0.980047 0.134849
vn -0.146025 0.980047 0.134849
vn -0.146025 0.980047 0.134849
vn 0.140571 0.914914 0.378380
vn 0.140571 0.914914 0.378380
vn 0.140571 0.914914 0.378380
vn -0.067148 0.466182 -0.882137
vn -0.067148 0.466182 -0.882137
vn -0.067148 0.466182 -0.882137
vn 0.163230 0.984799 -0.059390
vn 0.163230 0.984799 -0.059390
vn 0.163230 0.984799 -0.059390
vn 0.442812 0.878809 0.177796
vn 0.442812 0.878809 0.177796
vn 0.442812 0.878809 0.177796
vn 0.442812 0.878809 0.177796
vn 0.048119 0.998326 -0.032099
vn 0.048119 0.998326 -0.032099
vn 0.048119 0.998326 -0.032099
vn 0.556052 0.831148 0.000002
vn 0.556052 0.831148 0.000002
vn 0.556052 0.831148 0.000002
vn 0.227254 0.957290 0.178750
vn 0.227254 0.957290 0.178750
vn 0.227254 0.957290 0.178750
vn 0.669888 0.741007 -0.046451
vn 0.669888 0.741007 -0.046451
vn 0.669888 0.741007 -0.046451
vn 0.201081 0.974556 0.099027
vn 0.201081 0.974556 0.099027
vn 0.201081 0.974556 0.099027
vn 0.661628 0.743916 -0.094006
vn 0.661628 0.743916 -0.094006
vn 0.661628 0.743916 -0.094006
vn 0.185313 0.867999 0.460691
vn 0.185313 0.867999 0.460691
vn 0.185313 0.867999 0.460691
vn -0.173008 0.520344 -0.836248
vn -0.173008 0.520344 -0.836248
vn -0.173008 0.520344 -0.836248
vn -0.498561 0.438242 -0.747918
vn -0.498561 0.438242 -0.747918
vn -0.498561 0.438242 -0.747918
vn -0.908641 0.415661 -0.039958
vn -0.908641 0.415661 -0.039958
vn -0.908641 0.415661 -0.039958
vn -0.048674 0.667698 -0.742839
vn -0.048674 0.667698 -0.742839
vn -0.048674 0.667698 -0.742839
s off
f 57/71/1 10/10/2 2/2/3
f 54/68/4 5/5/5 9/9/6
f 9/9/7 1/1/8 3/3/9
f 9/9/10 5/5/11 1/1/12
f 7/7/13 8/8/14 10/10/15
f 2/2/16 10/10/17 4/4/18
f 19/19/19 8/8/20 13/13/21
f 54/68/22 15/15/23 6/6/24
f 18/18/25 19/19/26 13/13/27 11/11/28
f 20/20/29 22/22/30 11/11/31
f 16/16/32 17/17/33 9/9/34 3/3/35
f 12/12/36 18/18/37 17/17/38 16/16/39
f 14/14/40 19/19/41 18/18/42
f 14/14/43 10/10/44 19/19/45
f 21/21/46 20/20/47 15/15/48
f 19/19/49 10/10/50 8/8/51
f 4/4/52 10/10/53 14/14/54
f 14/14/55 18/18/56 12/12/57
f 9/9/58 17/17/59 21/21/60
f 9/9/61 21/21/62 15/15/63
f 17/17/64 20/20/65 21/21/66
f 17/17/67 18/18/68 22/22/69
f 17/17/70 22/22/71 20/20/72
f 11/11/73 22/22/74 18/18/75
f 24/24/76 25/25/77 28/33/78
f 6/6/79 53/67/80 5/5/81
f 6/6/82 11/26/83 13/27/84
f 6/6/85 15/29/86 20/28/87 11/26/88
f 25/25/89 13/27/90 26/30/91
f 27/31/92 13/27/93 8/32/94
f 26/30/95 13/27/96 27/31/97
f 53/67/98 25/25/99 51/65/100
f 23/23/101 24/24/102 28/35/103 29/34/104
f 30/36/105 34/37/106 40/38/107
f 41/39/108 45/40/109 43/41/110 27/42/111
f 35/43/112 34/37/113 29/44/114
f 31/45/115 33/46/116 41/39/117
f 40/38/118 34/37/119 35/43/120
f 30/36/121 40/38/122 32/47/123
f 29/44/124 34/37/125 23/48/126
f 56/70/127 8/50/128 7/51/129
f 58/72/130 41/39/131 37/49/132
f 26/52/133 27/42/134 43/41/135
f 46/53/136 47/54/137 48/55/138 42/56/139
f 29/44/140 44/57/141 35/43/142
f 45/40/143 46/53/144 42/56/145 43/41/146
f 25/58/147 26/52/148 43/41/149 42/56/150
f 35/43/151 44/57/152 47/54/153 40/38/154
f 48/55/155 50/59/156 42/56/157
f 39/60/158 45/40/159 41/39/160 33/46/161
f 39/60/162 46/53/163 45/40/164
f 38/61/165 47/54/166 46/53/167 36/62/168
f 40/38/169 47/54/170 38/61/171 32/47/172
f 48/55/173 47/54/174 44/57/175
f 49/63/176 48/55/177 44/57/178
f 36/62/179 46/53/180 39/60/181
f 29/44/182 28/64/183 49/63/184
f 29/44/185 49/63/186 44/57/187
f 28/64/188 48/55/189 49/63/190
f 28/64/191 25/58/192 50/59/193
f 28/64/194 50/59/195 48/55/196
f 42/56/197 50/59/198 25/58/199
f 37/49/200 41/39/201 27/42/202
f 51/65/203 25/25/204 24/24/205
f 52/66/206 51/65/207 24/24/208 55/69/209
f 6/6/210 13/27/211 25/25/212
f 5/5/213 53/67/214 52/66/215
f 6/6/216 25/25/217 53/67/218
f 52/66/219 53/67/220 51/65/221
f 9/9/222 15/15/223 54/68/224
f 6/6/225 5/5/226 54/68/227
f 55/69/228 24/24/229 23/23/230
f 37/49/231 27/42/232 56/70/233
f 56/70/234 27/42/235 8/50/236
f 7/7/237 10/10/238 57/71/239
f 31/45/240 41/39/241 58/72/242
