# This file uses meters as units for non-parametric coordinates.

v 0.000000 -0.000000 0.000000
v 500.000000 0.000000 0.000000
v 0.000000 -0.000000 -500.000000
v 67.378418 6.969643 0.000000
v 0.000000 6.969643 -67.378235
v 102.306396 6.969643 0.000000
v 0.000000 6.969643 -102.306335
v 58.744873 -23.029518 0.000000
v 0.000000 -23.029518 -58.744812
v 107.378418 -0.000000 0.000000
v 0.000000 -0.000000 -107.378357
v 8.034912 -5.417300 0.000000
v 0.000000 -5.417299 -8.034851
v 0.000000 -8.353806 -26.542664
v 26.542725 -8.353806 0.000000
v 25.777100 -8.353806 -26.038879
v 62.847900 -23.029518 -64.393433
v 70.324707 6.969643 -68.710144
v 104.167969 6.969643 -98.916199
v 110.785400 -0.000000 -106.324707
v 500.000000 0.000000 -500.000000
v 102.306396 6.969643 0.000000
v 67.378418 6.969643 0.000000
v 58.744873 -23.029518 0.000000
v 3.359375 6.969643 -102.306335
v 3.359375 6.969643 -67.378235
v 3.359375 -23.029518 -58.744812
v 3.359131 -8.353806 -26.542847
v 3.359375 -5.417299 -8.034851
v 339.458008 -0.000000 -359.929382
v 415.702850 -0.000000 -92.432907
v 411.556580 -0.000000 -418.488831
v 152.696350 -0.000000 -401.581177
v 0.000000 -0.000000 -303.689178
v 76.348175 -0.000000 -254.479767
v 199.323242 3.386657 -154.342255
v 288.502594 -0.000000 -93.458481
v 303.689209 -0.000000 0.000000
v 250.000000 -0.000000 -500.000000
v 264.906586 -0.000000 -452.866760
v 229.044525 -2.268158 -352.371765
v 354.044525 -4.738659 -227.371765
v 437.984650 -0.000000 -267.646454
v 500.000000 0.000000 -250.000000
vt 0.066177 0.209415
vt 0.102497 0.279316
vt 0.102497 0.279316
vt 0.102497 0.279316
vt 0.102497 0.279316
vt 0.102497 0.279316
vt 0.102497 0.279316
vt 0.102497 0.279316
vt 0.102497 0.279316
vt 0.102497 0.279316
vt 0.102497 0.279316
vt 0.100037 0.302029
vt 0.102497 0.279316
vt 0.102497 0.279316
vt 0.102497 0.279316
vt 0.102497 0.279316
vt 0.066177 0.209415
vt 0.102497 0.279316
vt 0.102497 0.279316
vt 0.102183 0.307564
vt 0.102183 0.307564
vt 0.102183 0.307564
vt 0.102183 0.307564
vt 0.102183 0.307564
vt 0.102183 0.307564
vt 0.102183 0.307564
vt 0.166646 0.302939
vt 0.102183 0.307564
vt 0.102183 0.307564
vt 0.102183 0.307564
vt 0.102183 0.307564
vt 0.102183 0.307564
vt 0.102183 0.307564
vt 0.102183 0.307564
vt 0.102183 0.307564
vt 0.166646 0.302939
vt 0.102497 0.279316
vt 0.102497 0.279316
vt 0.102497 0.279316
vt 0.102497 0.279316
vt 0.102497 0.279316
vt 0.102497 0.279316
vt 0.102497 0.279316
vt 0.066177 0.209415
vt 0.102497 0.279316
vt 0.102183 0.307564
vt 0.102497 0.279316
vt 0.102183 0.307564
vt 0.102183 0.307564
vt 0.102183 0.307564
vt 0.102183 0.307564
vt 0.102183 0.307564
vt 0.102183 0.307564
vt 0.102183 0.307564
vt 0.166646 0.302939
vt 0.102183 0.307564
vt 0.066177 0.209415
vt 0.102497 0.279316
vt 0.102497 0.279316
vt 0.102497 0.279316
vt 0.102497 0.279316
vt 0.102497 0.279316
vt 0.102497 0.279316
vt 0.102497 0.279316
vt 0.166646 0.302939
vt 0.166646 0.302939
vt 0.102183 0.307564
vt 0.102183 0.307564
vt 0.102183 0.307564
vt 0.102183 0.307564
vt 0.102183 0.307564
vt 0.102183 0.307564
vt 0.102183 0.307564
vt 0.166646 0.302939
vt 0.102183 0.307564
vt 0.102183 0.307564
vt 0.102183 0.307564
vt 0.102497 0.279316
vt 0.100037 0.302030
vt 0.100037 0.302029
vt 0.166646 0.302939
vt 0.166646 0.302939
vt 0.166646 0.302939
vt 0.166646 0.302939
vt 0.166646 0.302939
vt 0.166646 0.302939
vt 0.166646 0.302939
vt 0.166646 0.302939
vt 0.166646 0.302939
vt 0.166646 0.302939
vt 0.166646 0.302939
vt 0.166646 0.302939
vt 0.166646 0.302939
vt 0.166646 0.302939
vt 0.166646 0.302939
vn 0.531608 0.788478 -0.309346
vn 0.531608 0.788478 -0.309346
vn 0.531608 0.788478 -0.309346
vn 0.000000 1.000000 0.000000
vn 0.000000 1.000000 0.000000
vn 0.000000 1.000000 0.000000
vn 0.000000 1.000000 0.000000
vn 0.015606 0.668989 -0.743108
vn 0.015606 0.668989 -0.743108
vn 0.015606 0.668989 -0.743108
vn 0.015606 0.668989 -0.743108
vn 0.053956 0.204246 0.977431
vn 0.053956 0.204246 0.977431
vn 0.053956 0.204247 0.977431
vn 0.053956 0.204246 0.977431
vn -0.024814 0.918321 -0.395058
vn -0.024814 0.918321 -0.395058
vn -0.024814 0.918321 -0.395058
vn -0.024814 0.918321 -0.395058
vn 0.003523 0.987640 -0.156700
vn 0.003523 0.987640 -0.156700
vn 0.003523 0.987640 -0.156700
vn 0.000000 0.000000 0.000000
vn 0.000000 0.000000 0.000000
vn 0.000000 0.000000 0.000000
vn 0.000000 0.000000 0.000000
vn 0.000000 0.000000 0.000000
vn 0.000000 0.000000 0.000000
vn 0.000000 0.000000 0.000000
vn 0.000000 0.000000 0.000000
vn 0.000000 0.000000 0.000000
vn 0.000000 0.000000 0.000000
vn 0.000000 0.000000 0.000000
vn 0.000000 0.000000 0.000000
vn 0.000000 0.000000 0.000000
vn 0.000000 0.000000 0.000000
vn 0.771240 0.636237 0.019798
vn 0.771240 0.636237 0.019798
vn 0.771240 0.636237 0.019798
vn 0.771240 0.636237 0.019798
vn 0.000000 1.000000 -0.000000
vn 0.000000 1.000000 -0.000000
vn 0.000000 1.000000 -0.000000
vn 0.000000 1.000000 -0.000000
vn -0.965441 0.255555 -0.051131
vn -0.965441 0.255555 -0.051131
vn -0.965442 0.255555 -0.051131
vn -0.965442 0.255555 -0.051131
vn 0.396956 0.917721 0.014650
vn 0.396956 0.917721 0.014650
vn 0.396956 0.917721 0.014650
vn 0.396956 0.917721 0.014650
vn 0.156701 0.987635 -0.004608
vn 0.156701 0.987635 -0.004608
vn 0.156701 0.987635 -0.004608
vn 0.000000 0.588414 -0.808560
vn 0.000000 0.588414 -0.808560
vn 0.000000 0.588414 -0.808560
vn 0.000000 1.000000 0.000000
vn 0.000000 1.000000 0.000000
vn 0.000000 1.000000 0.000000
vn 0.000000 1.000000 0.000000
vn 0.000000 0.276564 0.960996
vn 0.000000 0.276564 0.960996
vn 0.000000 0.276564 0.960996
vn 0.000000 0.276564 0.960996
vn -0.000012 0.909957 -0.414702
vn -0.000012 0.909957 -0.414702
vn -0.000012 0.909957 -0.414702
vn -0.000012 0.909957 -0.414702
vn -0.000004 0.987646 -0.156702
vn -0.000004 0.987646 -0.156702
vn -0.000004 0.987646 -0.156702
vn -0.000004 0.987646 -0.156702
vn 0.000000 0.829147 -0.559031
vn 0.000000 0.829146 -0.559031
vn 0.000000 0.829147 -0.559031
vn -0.009629 0.999924 0.007724
vn -0.009629 0.999924 0.007724
vn -0.009629 0.999924 0.007724
vn -0.009629 0.999924 0.007724
vn 0.088798 0.994708 -0.051672
vn 0.088798 0.994708 -0.051672
vn 0.088798 0.994708 -0.051672
vn -0.018111 0.999649 0.019336
vn -0.018111 0.999649 0.019336
vn -0.018111 0.999649 0.019336
vn -0.018111 0.999649 0.019336
vn -0.022713 0.999232 -0.031942
vn -0.022713 0.999232 -0.031942
vn -0.022713 0.999232 -0.031942
vn 0.065793 0.997429 0.028416
vn 0.065793 0.997429 0.028416
vn 0.065793 0.997429 0.028416
vn -0.000000 1.000000 -0.000000
vn -0.000000 1.000000 -0.000000
vn -0.000000 1.000000 -0.000000
vn -0.000000 1.000000 -0.000000
vn -0.000000 1.000000 0.000000
vn -0.000000 1.000000 0.000000
vn -0.000000 1.000000 0.000000
vn -0.000000 1.000000 0.000000
vn -0.000000 1.000000 0.000000
vn -0.000000 1.000000 0.000000
vn -0.000000 1.000000 0.000000
vn -0.000000 1.000000 0.000000
vn -0.000000 1.000000 0.000000
vn -0.000000 1.000000 0.000000
vn -0.000000 1.000000 0.000000
vn -0.000000 1.000000 0.000000
vn -0.000000 1.000000 0.000000
vn -0.000000 1.000000 0.000000
vn -0.000000 1.000000 0.000000
vn -0.033948 0.999393 0.007891
vn -0.033948 0.999392 0.007891
vn -0.033948 0.999393 0.007891
vn -0.001523 0.999778 0.021031
vn -0.001523 0.999778 0.021031
vn -0.001523 0.999778 0.021031
vn -0.001523 0.999778 0.021031
vn -0.000000 1.000000 -0.000000
vn -0.000000 1.000000 -0.000000
vn -0.000000 1.000000 -0.000000
vn -0.000000 1.000000 0.000000
vn -0.000000 1.000000 0.000000
vn -0.000000 1.000000 0.000000
vn -0.000000 1.000000 0.000000
vn 0.012320 0.999561 0.026957
vn 0.012320 0.999561 0.026957
vn 0.012320 0.999561 0.026957
vn -0.003818 0.999569 -0.029116
vn -0.003818 0.999569 -0.029116
vn -0.003818 0.999569 -0.029116
vn 0.046518 0.998838 -0.012577
vn 0.046518 0.998838 -0.012577
vn 0.046518 0.998838 -0.012577
vn -0.060011 0.998169 -0.007632
vn -0.060011 0.998169 -0.007632
vn -0.060011 0.998169 -0.007632
vn -0.000000 1.000000 -0.000000
vn -0.000000 1.000000 -0.000000
vn -0.000000 1.000000 -0.000000
vn -0.000000 1.000000 -0.000000
vn 0.000284 0.999379 -0.035225
vn 0.000284 0.999379 -0.035225
vn 0.000284 0.999379 -0.035225
vn 0.022254 0.999686 0.011550
vn 0.022254 0.999686 0.011550
vn 0.022254 0.999686 0.011550
vn -0.000000 1.000000 0.000000
vn -0.000000 1.000000 0.000000
vn -0.000000 1.000000 0.000000
s off
f 1/1/1 12/44/2 29/17/3
f 18/71/4 19/68/5 25/54/6 26/51/7
f 19/69/8 20/67/9 11/56/10 25/53/11
f 17/73/12 18/70/13 26/52/14 27/49/15
f 16/25/16 17/72/17 27/50/18 28/48/19
f 16/25/20 28/48/21 29/46/22
f 24/60/23 15/58/24 8/2/25
f 23/62/26 24/59/27 8/11/28 4/6/29
f 22/64/30 23/61/31 4/14/32 6/7/33
f 10/9/34 22/63/35 6/15/36
f 22/29/37 10/26/38 20/24/39 19/75/40
f 23/31/41 22/28/42 19/23/43 18/76/44
f 24/33/45 23/30/46 18/22/47 17/77/48
f 15/34/49 24/32/50 17/21/51 16/20/52
f 12/35/53 15/34/54 16/20/55
f 7/8/56 25/38/57 11/10/58
f 5/5/59 26/40/60 25/37/61 7/16/62
f 9/3/63 27/42/64 26/39/65 5/13/66
f 14/19/67 28/47/68 27/41/69 9/4/70
f 13/18/71 29/45/72 28/43/73 14/78/74
f 1/1/75 29/17/76 13/57/77
f 32/83/78 40/91/79 41/92/80 30/81/81
f 29/12/82 12/80/83 16/79/84
f 42/93/85 43/94/86 32/83/87 30/81/88
f 30/81/89 41/92/90 36/87/91
f 36/87/92 42/93/93 30/81/94
f 2/65/95 31/82/96 37/88/97 38/89/98
f 21/66/99 32/83/100 43/94/101 44/95/102
f 21/66/103 39/90/104 40/91/105 32/83/106
f 34/85/107 35/86/108 33/84/109 3/36/110
f 11/55/111 35/86/112 34/85/113
f 36/87/114 35/86/115 20/74/116
f 10/27/117 37/88/118 36/87/119 20/74/120
f 38/89/121 37/88/122 10/27/123
f 40/91/124 39/90/125 3/36/126 33/84/127
f 41/92/128 40/91/129 33/84/130
f 36/87/131 41/92/132 35/86/133
f 36/87/134 37/88/135 42/93/136
f 31/82/137 43/94/138 42/93/139
f 44/95/140 43/94/141 31/82/142 2/65/143
f 42/93/144 37/88/145 31/82/146
f 35/86/147 41/92/148 33/84/149
f 20/74/150 35/86/151 11/55/152
