# This file uses meters as units for non-parametric coordinates.

v 500.000000 0.000000 0.000000
v 500.000000 0.000000 -499.999390
v 0.000000 0.000000 0.000000
v -0.000169 0.000000 -499.999390
v 500.000000 6.969652 -67.378296
v 0.000000 6.969652 -67.378296
v 500.000000 6.969652 -102.307129
v 0.000000 6.969652 -102.307129
v 500.000000 -23.029484 -58.744751
v 0.000000 -23.029484 -58.744751
v 500.000000 -0.000001 -107.379150
v 0.000000 -0.000001 -107.379150
v 500.000000 -5.417279 -8.034546
v 0.000000 -5.417279 -8.035278
v 0.000000 -8.353827 -26.542603
v 500.000000 -8.353827 -26.542603
v 246.992432 0.000000 0.000000
v 248.442139 -5.417279 -11.714233
v 245.045410 -15.808158 -23.337524
v 251.454102 -15.467115 -66.524536
v 251.454102 -9.204556 -75.858276
v 250.893555 -8.751798 -107.321167
v 246.992432 -2.982914 -165.416748
v 497.360229 6.969655 -101.687622
v 497.360229 6.969655 -66.760254
v 497.360229 -23.029482 -58.126831
v 497.360229 -8.353826 -26.033813
v 497.360229 -5.417279 -8.034546
v 500.000000 0.000001 0.000000
v 8.165039 6.969655 -102.787720
v 3.359985 6.969655 -66.760254
v 3.359985 -23.029482 -58.126831
v 3.359985 -8.353826 -26.033813
v 3.359985 -5.417279 -8.034546
v 0.000000 0.000001 0.000000
v 108.015381 0.000000 -118.566162
v 106.906128 6.969655 -110.889404
v 109.997559 6.969655 -79.882080
v 109.997559 -15.480256 -71.248657
v 95.880127 -8.353826 -28.989380
v 108.702148 -5.417279 -9.616089
v 106.164551 0.000001 0.000000
v 406.431885 1.286403 -119.830322
v 402.438721 6.969655 -110.778809
v 409.796387 6.969655 -79.339600
v 409.796387 -15.480256 -70.706177
v 410.100708 -8.353826 -28.301270
v 415.274048 -5.417279 -9.248413
v 416.564941 0.000001 0.000000
v 124.003174 -0.481810 -157.359192
v 129.766846 -8.751798 -110.266846
v 134.684814 -8.732895 -76.744873
v 134.684814 -15.467115 -71.841431
v 117.298828 -8.353826 -29.673706
v 133.090210 -5.417279 -9.982300
v 130.741943 0.000001 0.000000
v 374.217529 0.180940 -158.321838
v 382.261963 -8.751798 -110.377563
v 390.675659 -8.732895 -76.084839
v 390.675659 -15.467115 -71.180786
v 390.933105 -8.353826 -28.836060
v 395.918213 -5.417279 -9.534424
v 396.891846 0.000001 0.000732
v 246.118164 3.453716 -158.964478
v 111.328125 2.975636 -117.301880
v 128.501099 3.316895 -155.825806
v 369.280151 3.582191 -157.219849
v 399.904175 2.883642 -117.277466
v 375.000000 0.000001 -499.999329
v 125.000000 0.000001 -499.999329
v 0.000000 0.030915 -316.580750
v 119.006714 0.694921 -307.358093
v 248.379150 -2.982914 -311.556458
v 379.655151 2.933391 -304.501526
v 500.000000 0.030915 -316.580750
v 247.923950 -2.982914 -499.999329
v 500.000793 0.000000 -441.389526
v 378.780151 -0.581245 -451.818787
v 248.387573 -2.982914 -442.735657
v 126.011108 -0.869770 -454.489685
v 0.000807 0.000000 -441.389526
v 0.000000 -2.982914 -439.563538
v 129.296021 -2.982914 -446.246399
v 127.742554 -2.982914 -499.999329
v 0.000000 -2.982914 -319.323303
v 126.456543 -2.982914 -313.527405
v 372.100220 -2.982914 -499.999329
v 372.444580 -2.982914 -445.889709
v 500.000000 -2.982910 -439.563599
v 500.000000 -2.982914 -319.323303
v 372.123901 -2.982914 -313.402161
v 369.280151 -2.982914 -162.782288
v 128.501099 -2.982914 -161.682861
v 109.709351 0.625899 -314.522278
v 116.541870 -2.982914 -320.241150
v 120.676147 -2.982914 -439.421936
v 117.143433 -0.792032 -444.101379
v 396.117188 2.512223 -315.404602
v 387.231689 -2.982914 -321.728455
v 387.169067 -2.982914 -438.690491
v 389.654297 -0.436854 -446.135956
v 248.237915 -2.982914 -318.359680
v 247.923950 -2.982914 -436.939758
v 123.342407 -2.982914 -320.143982
v 126.483154 -2.982914 -439.308655
v 377.959473 -2.982914 -321.503723
v 379.413940 -2.982914 -438.592957
vt 0.065277 0.211215
vt 0.102497 0.279316
vt 0.102497 0.279316
vt 0.102497 0.279316
vt 0.102497 0.279316
vt 0.102497 0.279316
vt 0.102497 0.279316
vt 0.102497 0.279316
vt 0.102497 0.279316
vt 0.102497 0.279316
vt 0.102497 0.279316
vt 0.065277 0.211215
vt 0.102497 0.279316
vt 0.102497 0.279316
vt 0.102497 0.279316
vt 0.102497 0.279316
vt 0.065277 0.211215
vt 0.102497 0.279316
vt 0.102497 0.279316
vt 0.102497 0.279316
vt 0.102183 0.307564
vt 0.102183 0.307564
vt 0.102183 0.307564
vt 0.102183 0.307564
vt 0.102183 0.307564
vt 0.065277 0.211215
vt 0.102183 0.307564
vt 0.166694 0.304261
vt 0.102183 0.307564
vt 0.166674 0.304260
vt 0.102183 0.307564
vt 0.102183 0.307564
vt 0.102183 0.307564
vt 0.102183 0.307564
vt 0.102183 0.307564
vt 0.102183 0.307564
vt 0.102183 0.307564
vt 0.102183 0.307564
vt 0.065277 0.211215
vt 0.166678 0.304208
vt 0.102497 0.279316
vt 0.102497 0.279316
vt 0.102497 0.279316
vt 0.102497 0.279316
vt 0.102497 0.279316
vt 0.102497 0.279316
vt 0.102497 0.279316
vt 0.065277 0.211215
vt 0.065277 0.211215
vt 0.102497 0.279316
vt 0.102183 0.307564
vt 0.065277 0.211215
vt 0.102497 0.279316
vt 0.102183 0.307564
vt 0.102183 0.307564
vt 0.102183 0.307564
vt 0.102183 0.307564
vt 0.102183 0.307564
vt 0.102183 0.307564
vt 0.102183 0.307564
vt 0.166683 0.304201
vt 0.102183 0.307564
vt 0.065277 0.211215
vt 0.102497 0.279316
vt 0.065277 0.211215
vt 0.102497 0.279316
vt 0.102497 0.279316
vt 0.102497 0.279316
vt 0.102497 0.279316
vt 0.102497 0.279316
vt 0.102497 0.279316
vt 0.102497 0.279316
vt 0.102497 0.279316
vt 0.102497 0.279316
vt 0.166698 0.304200
vt 0.102497 0.279316
vt 0.102183 0.307564
vt 0.102183 0.307564
vt 0.102183 0.307564
vt 0.102183 0.307564
vt 0.102183 0.307564
vt 0.102183 0.307564
vt 0.102183 0.307564
vt 0.102183 0.307564
vt 0.102183 0.307564
vt 0.102318 0.327655
vt 0.102183 0.307564
vt 0.102183 0.307564
vt 0.102183 0.307564
vt 0.102497 0.279316
vt 0.102183 0.307564
vt 0.166614 0.304256
vt 0.102183 0.307564
vt 0.102183 0.307564
vt 0.102183 0.307564
vt 0.102183 0.307564
vt 0.102183 0.307564
vt 0.102183 0.307564
vt 0.102183 0.307564
vt 0.065277 0.211215
vt 0.102183 0.307564
vt 0.065277 0.211215
vt 0.102183 0.307564
vt 0.166618 0.304195
vt 0.102183 0.307564
vt 0.102183 0.307564
vt 0.102183 0.307564
vt 0.102183 0.307564
vt 0.102183 0.307564
vt 0.102183 0.307564
vt 0.102183 0.307564
vt 0.065277 0.211215
vt 0.102183 0.307564
vt 0.065277 0.211215
vt 0.102183 0.307564
vt 0.166822 0.304025
vt 0.102183 0.307564
vt 0.102183 0.307564
vt 0.102183 0.307564
vt 0.102183 0.307564
vt 0.102183 0.307564
vt 0.102183 0.307564
vt 0.102183 0.307564
vt 0.065277 0.211215
vt 0.102183 0.307564
vt 0.065277 0.211215
vt 0.102183 0.307564
vt 0.167037 0.304036
vt 0.102183 0.307564
vt 0.102183 0.307564
vt 0.102183 0.307564
vt 0.102183 0.307564
vt 0.102183 0.307564
vt 0.102183 0.307564
vt 0.102183 0.307564
vt 0.065277 0.211215
vt 0.102183 0.307564
vt 0.065277 0.211215
vt 0.102183 0.307564
vt 0.102183 0.307564
vt 0.102183 0.307564
vt 0.102183 0.307564
vt 0.102183 0.307564
vt 0.102183 0.307564
vt 0.167037 0.304042
vt 0.166809 0.304043
vt 0.166635 0.304198
vt 0.166637 0.304205
vt 0.166634 0.304257
vt 0.166616 0.304226
vt 0.166631 0.304227
vt 0.166367 0.304267
vt 0.102318 0.327655
vt 0.166681 0.304230
vt 0.166145 0.304262
vt 0.166696 0.304230
vt 0.102318 0.327655
vt 0.166694 0.304252
vt 0.166676 0.304251
vt 0.166145 0.304257
vt 0.102318 0.327655
vt 0.166375 0.304257
vt 0.166633 0.304248
vt 0.166614 0.304247
vt 0.166373 0.303766
vt 0.166374 0.304044
vt 0.166356 0.304033
vt 0.166366 0.303765
vt 0.166813 0.303765
vt 0.166803 0.303767
vt 0.166815 0.304361
vt 0.166810 0.304362
vt 0.101973 0.328103
vt 0.102318 0.327655
vt 0.102318 0.327655
vt 0.101956 0.328103
vt 0.102318 0.327655
vt 0.102318 0.327655
vt 0.102318 0.327655
vt 0.101968 0.328031
vt 0.101957 0.328032
vt 0.102318 0.327655
vt 0.102318 0.327655
vt 0.102183 0.307564
vt 0.102183 0.307564
vt 0.102318 0.327655
vt 0.166809 0.304255
vt 0.166822 0.304265
vt 0.166373 0.304363
vt 0.166368 0.304362
vt 0.166144 0.304045
vt 0.166144 0.304039
vt 0.167038 0.304254
vt 0.167038 0.304258
vt 0.166334 0.304033
vt 0.166629 0.304227
vt 0.101957 0.328086
vt 0.166346 0.304044
vt 0.166354 0.304257
vt 0.101972 0.328086
vt 0.166348 0.304266
vt 0.166631 0.304248
vt 0.166853 0.304027
vt 0.166683 0.304230
vt 0.166838 0.304043
vt 0.101957 0.328048
vt 0.101969 0.328048
vt 0.166843 0.304255
vt 0.166845 0.304265
vt 0.166678 0.304251
vt 0.102566 0.303692
vt 0.102318 0.327655
vt 0.102566 0.303692
vt 0.102566 0.303692
vt 0.102318 0.327655
vt 0.102566 0.303692
vt 0.103188 0.305671
vt 0.102808 0.305650
vt 0.102807 0.305632
vt 0.103234 0.305650
vt 0.102417 0.305627
vt 0.102443 0.305649
vt 0.102821 0.305248
vt 0.102820 0.305269
vt 0.102416 0.305262
vt 0.102447 0.305242
vt 0.103245 0.305292
vt 0.103200 0.305265
vt 0.102318 0.327655
vt 0.102437 0.305262
vt 0.102435 0.305627
vt 0.102318 0.327655
vt 0.102318 0.327655
vt 0.103217 0.305291
vt 0.103210 0.305649
vt 0.102318 0.327655
vt 0.102566 0.303692
vt 0.102566 0.303692
vt 0.102566 0.303692
vt 0.102566 0.303692
vn -0.003344 0.894414 -0.447228
vn -0.003344 0.894414 -0.447228
vn -0.003344 0.894414 -0.447228
vn -0.003344 0.894414 -0.447228
vn 0.001753 0.999984 0.005299
vn 0.001753 0.999985 0.005299
vn 0.001753 0.999985 0.005299
vn 0.001753 0.999985 0.005299
vn -0.013711 0.878944 -0.476727
vn -0.013711 0.878944 -0.476727
vn -0.309414 0.647489 -0.696434
vn -0.075956 0.845057 0.529253
vn -0.075956 0.845058 0.529253
vn -0.075956 0.845058 0.529253
vn -0.075956 0.845057 0.529253
vn 0.040404 0.995567 -0.084932
vn 0.040404 0.995567 -0.084932
vn 0.040404 0.995567 -0.084932
vn 0.040404 0.995567 -0.084932
vn 0.035711 0.911476 -0.409801
vn 0.035711 0.911476 -0.409801
vn 0.035711 0.911476 -0.409801
vn 0.035711 0.911476 -0.409801
vn 0.000000 0.829135 -0.559049
vn 0.000000 0.829135 -0.559049
vn 0.000000 0.829135 -0.559049
vn 0.000000 0.829135 -0.559049
vn -0.015308 0.987190 -0.158814
vn -0.015308 0.987190 -0.158814
vn -0.015308 0.987190 -0.158814
vn -0.015308 0.987190 -0.158814
vn -0.088290 0.906141 -0.413658
vn -0.088290 0.906141 -0.413658
vn -0.088290 0.906141 -0.413658
vn -0.088290 0.906141 -0.413658
vn 0.219487 0.269819 0.937562
vn 0.219487 0.269819 0.937562
vn 0.219487 0.269819 0.937562
vn 0.219487 0.269819 0.937562
vn 0.000001 1.000000 0.000000
vn 0.000001 1.000000 0.000000
vn 0.000001 1.000000 0.000000
vn 0.000001 1.000000 0.000000
vn 0.365704 0.667869 -0.648237
vn 0.365704 0.667869 -0.648237
vn 0.365704 0.667869 -0.648237
vn -0.236063 0.882450 -0.406885
vn -0.236063 0.882450 -0.406885
vn -0.236063 0.882450 -0.406885
vn -0.236063 0.882450 -0.406885
vn 0.060825 0.841360 -0.537042
vn 0.060825 0.841360 -0.537042
vn 0.060825 0.841360 -0.537042
vn 0.060825 0.841360 -0.537042
vn 0.000000 1.000000 0.000000
vn 0.000000 1.000000 0.000000
vn 0.000000 1.000000 0.000000
vn 0.000000 1.000000 0.000000
vn -0.131633 0.309981 0.941586
vn -0.131633 0.309981 0.941586
vn -0.131633 0.309981 0.941586
vn -0.131633 0.309981 0.941586
vn 0.065198 0.960218 -0.271533
vn 0.065198 0.960218 -0.271533
vn 0.065198 0.960218 -0.271533
vn 0.065198 0.960218 -0.271533
vn 0.003148 0.987535 -0.157369
vn 0.003148 0.987535 -0.157369
vn 0.003148 0.987535 -0.157369
vn 0.003148 0.987535 -0.157369
vn 0.003900 0.846870 -0.531786
vn 0.003900 0.846870 -0.531786
vn 0.003900 0.846870 -0.531786
vn 0.003900 0.846870 -0.531786
vn 0.008523 0.543122 -0.839610
vn 0.008523 0.543122 -0.839610
vn 0.008523 0.543122 -0.839610
vn -0.000001 1.000000 -0.000000
vn -0.000001 1.000000 -0.000000
vn -0.000001 1.000000 -0.000000
vn -0.000001 1.000000 -0.000000
vn -0.174051 0.272343 0.946327
vn -0.174051 0.272343 0.946327
vn -0.174051 0.272343 0.946327
vn -0.174051 0.272343 0.946327
vn 0.069470 0.907495 -0.414279
vn 0.069470 0.907495 -0.414279
vn 0.069470 0.907495 -0.414279
vn 0.069470 0.907495 -0.414279
vn 0.012045 0.987234 -0.158824
vn 0.012045 0.987234 -0.158824
vn 0.012045 0.987234 -0.158824
vn 0.012045 0.987234 -0.158824
vn 0.000127 0.829161 -0.559010
vn 0.000127 0.829161 -0.559010
vn 0.000127 0.829161 -0.559010
vn 0.000127 0.829161 -0.559010
vn 0.009308 0.785080 0.619324
vn 0.009308 0.785080 0.619324
vn 0.009308 0.785080 0.619324
vn 0.009308 0.785080 0.619324
vn -0.075288 0.644307 -0.761052
vn -0.075288 0.644307 -0.761052
vn -0.075288 0.644307 -0.761052
vn -0.075288 0.644307 -0.761052
vn 0.000000 1.000000 0.000000
vn 0.000000 1.000000 0.000000
vn 0.000000 1.000000 0.000000
vn 0.000000 1.000000 0.000000
vn 0.105224 0.310966 0.944578
vn 0.105224 0.310966 0.944578
vn 0.105224 0.310966 0.944578
vn 0.105224 0.310966 0.944578
vn -0.059707 0.954767 -0.291300
vn -0.059707 0.954767 -0.291300
vn -0.059707 0.954767 -0.291300
vn -0.059707 0.954767 -0.291300
vn -0.003533 0.988055 -0.154061
vn -0.003533 0.988055 -0.154061
vn -0.003533 0.988055 -0.154061
vn -0.003533 0.988055 -0.154061
vn -0.003919 0.851656 -0.524086
vn -0.003919 0.851656 -0.524086
vn -0.003919 0.851656 -0.524086
vn -0.003919 0.851656 -0.524086
vn -0.000880 0.846726 -0.532028
vn -0.000880 0.846726 -0.532028
vn -0.000880 0.846726 -0.532028
vn -0.616458 0.781806 0.093593
vn -0.616458 0.781806 0.093593
vn -0.616458 0.781806 0.093593
vn -0.616458 0.781806 0.093593
vn -0.106090 0.418425 0.902034
vn -0.106090 0.418425 0.902034
vn -0.106090 0.418426 0.902034
vn -0.106090 0.418425 0.902034
vn 0.004387 0.986371 -0.164478
vn 0.004387 0.986371 -0.164478
vn 0.004387 0.986371 -0.164478
vn 0.004387 0.986371 -0.164478
vn 0.003063 0.988210 -0.153077
vn 0.003063 0.988210 -0.153077
vn 0.003063 0.988210 -0.153077
vn 0.003063 0.988210 -0.153077
vn 0.003655 0.866031 -0.499976
vn 0.003655 0.866031 -0.499976
vn 0.003655 0.866031 -0.499976
vn 0.003655 0.866031 -0.499976
vn -0.491034 0.862473 -0.122583
vn -0.491034 0.862473 -0.122583
vn -0.491034 0.862473 -0.122583
vn -0.491034 0.862473 -0.122583
vn 0.553838 0.829762 -0.068985
vn 0.553838 0.829762 -0.068985
vn 0.553838 0.829762 -0.068985
vn 0.553838 0.829762 -0.068985
vn 0.086633 0.419198 0.903752
vn 0.086633 0.419198 0.903752
vn 0.086633 0.419198 0.903752
vn 0.086633 0.419198 0.903752
vn -0.004937 0.985757 -0.168104
vn -0.004937 0.985757 -0.168103
vn -0.004937 0.985757 -0.168104
vn -0.004937 0.985757 -0.168103
vn -0.003355 0.989239 -0.146268
vn -0.003355 0.989239 -0.146268
vn -0.003355 0.989239 -0.146268
vn -0.003355 0.989239 -0.146268
vn -0.003624 0.874780 -0.484507
vn -0.003624 0.874780 -0.484507
vn -0.003624 0.874780 -0.484507
vn -0.003624 0.874780 -0.484507
vn 0.265182 0.623296 -0.735650
vn 0.005256 0.936044 -0.351843
vn 0.005256 0.936044 -0.351843
vn -0.001294 0.999981 0.005992
vn -0.001294 0.999981 0.005992
vn -0.001294 0.999981 0.005992
vn -0.001294 0.999981 0.005992
vn 0.058546 0.846061 0.529862
vn 0.058546 0.846061 0.529862
vn 0.058546 0.846061 0.529862
vn 0.058546 0.846061 0.529862
vn -0.036572 0.993348 -0.109188
vn -0.036572 0.993348 -0.109188
vn -0.036572 0.993348 -0.109188
vn -0.036572 0.993348 -0.109188
vn -0.028491 0.923105 -0.383492
vn -0.028491 0.923105 -0.383492
vn -0.028491 0.923105 -0.383492
vn -0.028491 0.923105 -0.383492
vn 0.003330 0.890905 -0.454177
vn 0.003330 0.890905 -0.454177
vn 0.003330 0.890905 -0.454177
vn 0.003330 0.890905 -0.454177
vn -0.349355 0.668053 -0.657005
vn -0.349355 0.668053 -0.657005
vn -0.349355 0.668053 -0.657005
vn 0.281745 0.959156 -0.025278
vn 0.281745 0.959156 -0.025278
vn 0.281745 0.959156 -0.025278
vn 0.281745 0.959156 -0.025278
vn 0.564811 0.816578 -0.119118
vn 0.564811 0.816578 -0.119118
vn 0.564811 0.816578 -0.119118
vn 0.486714 0.859359 0.156883
vn 0.486714 0.859359 0.156883
vn 0.486714 0.859359 0.156883
vn -0.000372 0.970206 0.242282
vn -0.000372 0.970206 0.242282
vn -0.000372 0.970206 0.242282
vn -0.000372 0.970206 0.242282
vn -0.002267 0.968238 0.250018
vn -0.002267 0.968238 0.250018
vn -0.002267 0.968238 0.250018
vn -0.002267 0.968238 0.250018
vn -0.527142 0.846101 0.078958
vn -0.527141 0.846101 0.078958
vn -0.527142 0.846101 0.078958
vn -0.598825 0.762254 -0.245719
vn -0.598825 0.762254 -0.245719
vn -0.598825 0.762254 -0.245719
vn -0.002951 0.999994 0.001670
vn -0.002951 0.999994 0.001670
vn -0.002951 0.999994 0.001670
vn 0.000000 1.000000 0.000000
vn 0.000000 1.000000 0.000000
vn 0.045446 0.998947 0.006323
vn 0.000000 1.000000 0.000000
vn 0.000000 1.000000 0.000000
vn 0.454411 0.890764 -0.007127
vn 0.454411 0.890764 -0.007127
vn 0.454411 0.890764 -0.007127
vn -0.003010 0.999984 0.004853
vn -0.002753 0.999986 -0.004539
vn -0.582540 0.812755 -0.008717
vn -0.582540 0.812755 -0.008717
vn -0.582540 0.812755 -0.008717
vn -0.054308 0.998383 0.016779
vn -0.054308 0.998383 0.016779
vn 0.006314 0.999971 -0.004170
vn 0.019683 0.999802 0.002786
vn 0.019683 0.999802 0.002786
vn 0.019683 0.999802 0.002786
vn -0.006527 0.999936 -0.009275
vn -0.006527 0.999936 -0.009275
vn -0.002617 0.999987 0.004486
vn -0.002617 0.999987 0.004486
vn -0.002617 0.999987 0.004486
vn 0.006852 0.999933 -0.009354
vn -0.002617 0.999987 0.004486
vn -0.491612 0.870462 0.024769
vn -0.491612 0.870462 0.024769
vn -0.491612 0.870462 0.024769
vn -0.491612 0.870462 0.024769
vn 0.653752 0.756639 -0.010261
vn 0.653752 0.756639 -0.010261
vn 0.653752 0.756639 -0.010261
vn 0.653752 0.756639 -0.010261
vn 0.000000 1.000000 0.000000
vn 0.004135 0.999964 0.007474
vn 0.004135 0.999964 0.007474
vn 0.004135 0.999964 0.007474
vn 0.004135 0.999964 0.007474
vn 0.000000 1.000000 0.000000
vn 0.000000 1.000000 0.000000
vn 0.000000 1.000000 0.000000
vn 0.000000 1.000000 0.000000
vn 0.000000 1.000000 0.000000
vn 0.000000 1.000000 0.000000
vn 0.000000 1.000000 0.000000
vn 0.000000 1.000000 0.000000
vn 0.001033 0.787879 -0.615829
vn 0.001033 0.787879 -0.615829
vn 0.001033 0.787879 -0.615829
vn 0.001033 0.787880 -0.615829
vn 0.000000 1.000000 -0.000000
vn 0.000000 1.000000 0.000000
vn 0.000000 1.000000 0.000000
vn 0.000000 1.000000 0.000000
vn -0.137537 0.955052 0.262601
vn -0.137537 0.955052 0.262601
vn -0.137537 0.955052 0.262601
vn -0.137537 0.955052 0.262601
vn 0.000000 1.000000 -0.000000
vn 0.000000 1.000000 0.000000
vn 0.000000 1.000000 -0.000000
vn 0.000000 1.000000 -0.000000
vn 0.000000 1.000000 0.000000
vn 0.000000 1.000000 0.000000
vn 0.000000 1.000000 0.000000
vn -0.002753 0.999986 -0.004539
vn 0.005256 0.936044 -0.351843
vn 0.005256 0.936044 -0.351843
vn 0.005256 0.936044 -0.351843
vn 0.012739 0.679087 -0.733948
vn -0.021349 0.694031 -0.719629
vn -0.013711 0.878944 -0.476727
vn -0.013711 0.878944 -0.476727
vn -0.013711 0.878944 -0.476727
vn -0.002753 0.999986 -0.004539
vn 0.000000 1.000000 0.000000
vn 0.000000 1.000000 0.000000
vn 0.000000 1.000000 0.000000
vn 0.000000 1.000000 0.000000
vn 0.000000 1.000000 0.000000
vn 0.000000 1.000000 0.000000
vn 0.217882 0.926687 -0.306235
vn 0.217882 0.926687 -0.306235
vn 0.217882 0.926687 -0.306235
vn 0.217882 0.926687 -0.306235
vn 0.208980 0.955543 0.208000
vn 0.208980 0.955543 0.208000
vn 0.208980 0.955543 0.208000
vn 0.208980 0.955543 0.208000
vn 0.012200 0.723119 -0.690615
vn 0.012200 0.723119 -0.690615
vn 0.012200 0.723119 -0.690615
vn 0.012200 0.723119 -0.690615
vn -0.000000 1.000000 0.000000
vn -0.000000 1.000000 0.000000
vn -0.000000 1.000000 0.000000
vn -0.000000 1.000000 0.000000
vn -0.010536 0.860066 0.510073
vn -0.010536 0.860066 0.510073
vn -0.010536 0.860066 0.510073
vn -0.010536 0.860066 0.510073
vn 0.000000 1.000000 0.000000
vn 0.000000 1.000000 0.000000
vn 0.000000 1.000000 0.000000
vn 0.000000 1.000000 0.000000
vn 0.000000 1.000000 0.000000
vn 0.000000 1.000000 0.000000
vn 0.000000 1.000000 0.000000
vn 0.000000 1.000000 0.000000
vn 0.000000 1.000000 0.000000
vn 0.000000 1.000000 0.000000
vn 0.000000 1.000000 0.000000
vn 0.000000 1.000000 0.000000
vn 0.000000 1.000000 0.000000
vn 0.000000 1.000000 0.000000
vn 0.000000 1.000000 0.000000
vn 0.000000 1.000000 0.000000
vn 0.000000 1.000000 0.000000
vn 0.000000 1.000000 0.000000
vn 0.000000 1.000000 0.000000
vn 0.000000 1.000000 0.000000
vn 0.000000 1.000000 0.000000
vn 0.000000 1.000000 0.000000
vn 0.000000 1.000000 0.000000
vn 0.000000 1.000000 0.000000
vn 0.000000 1.000000 0.000000
vn 0.000000 1.000000 -0.000000
vn 0.000000 1.000000 0.000000
vn 0.000000 1.000000 0.000000
vn 0.000000 1.000000 0.000000
vn 0.000000 1.000000 0.000000
vn 0.000000 1.000000 -0.000000
vn 0.000000 1.000000 -0.000000
vn 0.000000 1.000000 -0.000000
vn 0.000000 1.000000 -0.000000
vn 0.000000 1.000000 0.000000
vn 0.000000 1.000000 0.000000
vn 0.000000 1.000000 0.000000
s off
f 17/1/1 18/12/2 55/124/3 56/126/4
f 51/117/5 52/120/6 21/81/7 22/78/8
f 50/115/9 66/142/10 93/185/11
f 52/119/12 53/122/13 20/83/14 21/80/15
f 53/121/16 54/123/17 19/27/18 20/82/19
f 54/123/20 55/125/21 18/84/22 19/27/23
f 1/39/24 13/48/25 28/49/26 29/52/27
f 27/68/28 28/64/29 13/66/30 16/20/31
f 26/70/32 27/67/33 16/76/34 9/2/35
f 25/72/36 26/69/37 9/11/38 5/6/39
f 24/74/40 25/71/41 5/14/42 7/7/43
f 11/9/44 24/73/45 7/15/46
f 74/116/47 98/203/48 99/205/49 91/146/50
f 43/103/51 44/106/52 24/32/53 11/29/54
f 44/105/55 45/108/56 25/34/57 24/31/58
f 45/107/59 46/110/60 26/36/61 25/33/62
f 46/109/63 47/111/64 27/37/65 26/35/66
f 47/111/67 48/113/68 28/38/69 27/37/70
f 29/52/71 28/49/72 48/112/73 49/114/74
f 8/8/75 30/42/76 12/10/77
f 6/5/78 31/44/79 30/41/80 8/16/81
f 10/3/82 32/46/83 31/43/84 6/13/85
f 15/19/86 33/53/87 32/45/88 10/4/89
f 14/18/90 34/50/91 33/47/92 15/90/93
f 35/26/94 34/17/95 14/63/96 3/65/97
f 96/199/98 97/201/99 81/155/100 82/160/101
f 12/62/102 30/59/103 37/94/104 36/91/105
f 30/60/106 31/57/107 38/96/108 37/93/109
f 31/58/110 32/55/111 39/98/112 38/95/113
f 32/56/114 33/54/115 40/99/116 39/97/117
f 33/54/118 34/51/119 41/101/120 40/99/121
f 42/102/122 41/100/123 34/17/124 35/26/125
f 43/103/126 68/144/127 44/106/128
f 58/129/129 59/132/130 45/108/131 44/105/132
f 59/131/133 60/134/134 46/110/135 45/107/136
f 60/133/137 61/135/138 47/111/139 46/109/140
f 61/135/141 62/137/142 48/113/143 47/111/144
f 49/114/145 48/112/146 62/136/147 63/138/148
f 36/91/149 65/141/150 66/142/151 50/115/152
f 37/93/153 38/96/154 52/120/155 51/117/156
f 38/95/157 39/98/158 53/122/159 52/119/160
f 39/97/161 40/99/162 54/123/163 53/121/164
f 40/99/165 41/101/166 55/125/167 54/123/168
f 56/126/169 55/124/170 41/100/171 42/102/172
f 92/184/173 67/143/174 57/127/175
f 22/24/176 21/88/177 59/132/178 58/129/179
f 21/23/180 20/89/181 60/134/182 59/131/183
f 20/22/184 19/85/185 61/135/186 60/133/187
f 19/85/188 18/21/189 62/137/190 61/135/191
f 63/138/192 62/136/193 18/12/194 17/1/195
f 36/91/196 37/94/197 65/141/198
f 57/127/199 67/143/200 68/144/201 43/103/202
f 65/141/203 37/94/204 51/118/205
f 66/142/206 65/141/207 51/118/208
f 64/139/209 66/142/210 51/118/211 22/79/212
f 67/143/213 64/140/214 22/87/215 58/130/216
f 68/144/217 67/143/218 58/130/219
f 44/106/220 68/144/221 58/130/222
f 72/151/223 94/196/224 71/150/225 12/104/226 36/147/227
f 72/151/228 36/147/229 50/148/230
f 93/165/231 86/166/232 72/167/233 50/168/234
f 57/169/235 74/116/236 91/146/237 92/170/238
f 74/154/239 57/40/240 43/61/241
f 75/156/242 98/204/243 74/154/244 43/61/245 11/75/246
f 78/159/247 101/210/248 77/158/249 2/28/250 69/30/251
f 69/171/252 87/172/253 88/187/254 78/188/255
f 80/152/256 83/162/257 84/189/258 70/190/259
f 4/92/260 81/164/261 97/202/262 80/163/263 70/149/264
f 95/197/265 96/200/266 82/173/267 85/176/268
f 83/174/269 79/161/270 76/157/271 84/175/272
f 94/195/273 95/198/274 85/191/275 71/192/276
f 88/179/277 87/178/278 76/157/279 79/161/280
f 88/187/281 100/208/282 101/209/283 78/188/284
f 88/217/285 79/218/286 103/219/287 107/235/288
f 92/183/289 91/182/290 73/153/291 23/86/292
f 23/25/293 64/140/294 67/143/295 92/184/296
f 93/185/297 66/142/298 64/139/299 23/77/300
f 23/86/301 73/153/302 86/177/303 93/186/304
f 96/221/305 105/231/306 83/222/307
f 86/166/308 95/198/309 94/195/310 72/167/311
f 80/152/312 97/201/313 96/199/314 83/162/315
f 99/205/316 98/203/317 75/128/318 90/145/319
f 100/207/320 99/206/321 90/181/322 89/180/323
f 101/209/324 100/208/325 89/193/326 77/194/327
f 86/226/328 104/230/329 95/225/330
f 91/228/331 106/234/332 102/224/333 73/223/334
f 95/211/335 104/213/336 105/214/337 96/216/338
f 106/233/339 107/236/340 103/215/341 102/212/342
f 73/223/343 102/224/344 104/230/345 86/226/346
f 105/232/347 104/229/348 102/212/349 103/215/350
f 83/222/351 105/231/352 103/219/353 79/218/354
f 99/227/355 106/234/356 91/228/357
f 100/237/358 107/238/359 106/239/360 99/240/361
f 88/217/362 107/235/363 100/220/364
