# This file uses meters as units for non-parametric coordinates.

v -2.795898 0.000000 -5.124146
v -5.905151 0.000000 -8.352173
v -5.497559 17.388149 -6.458862
v -8.119141 13.053051 -9.467651
v -7.902222 14.751546 -2.411438
v -10.523804 10.416447 -5.420288
v -6.023804 0.000000 -2.014862
v -9.133057 0.000000 -5.242798
v -14.888428 22.179020 -7.354767
v 5.275269 0.000000 -10.918030
v 0.651123 0.000000 -8.485474
v 8.950195 20.862305 -12.205536
v 3.768433 22.864445 -9.777466
v 10.181396 17.384529 -7.214630
v 6.845703 21.709450 -4.333191
v 7.707764 0.000000 -6.293762
v 3.083740 0.000000 -3.861145
v 14.888306 32.807758 -10.847656
v -2.901611 0.000000 2.644592
v -0.014648 0.000000 6.490845
v -2.750000 14.688978 4.441071
v 0.277588 10.923178 8.090118
v 1.664795 15.362517 1.257813
v 4.692383 11.596708 4.906799
v 0.944458 0.000000 -0.242432
v 3.831665 0.000000 3.603851
v 2.494141 25.131907 12.205566
vt 0.166810 0.303526
vt 0.166810 0.303526
vt 0.166810 0.303526
vt 0.166810 0.303526
vt 0.166810 0.303526
vt 0.166810 0.303526
vt 0.166810 0.303526
vt 0.166810 0.303526
vt 0.166810 0.303526
vt 0.166810 0.303526
vt 0.166810 0.303526
vt 0.166810 0.303526
vt 0.166810 0.303526
vt 0.166810 0.303526
vt 0.166810 0.303526
vt 0.166810 0.303526
vt 0.166810 0.303526
vt 0.166810 0.303526
vt 0.166810 0.303526
vt 0.166810 0.303526
vt 0.166810 0.303526
vt 0.166810 0.303526
vt 0.166810 0.303526
vt 0.166810 0.303526
vt 0.166810 0.303526
vt 0.166810 0.303526
vt 0.166810 0.303526
vt 0.166810 0.303526
vt 0.166810 0.303526
vt 0.166810 0.303526
vt 0.166810 0.303526
vt 0.166810 0.303526
vt 0.166810 0.303526
vt 0.166810 0.303526
vt 0.166810 0.303526
vt 0.166810 0.303526
vt 0.166810 0.303526
vt 0.166810 0.303526
vt 0.166810 0.303526
vn 0.714215 0.059197 -0.697419
vn 0.714215 0.059197 -0.697419
vn 0.714215 0.059197 -0.697419
vn 0.714215 0.059197 -0.697419
vn -0.707395 -0.075857 0.702736
vn -0.707395 -0.075857 0.702736
vn -0.707395 -0.075857 0.702736
vn -0.707395 -0.075857 0.702736
vn -0.749134 -0.150599 -0.645073
vn -0.749134 -0.150599 -0.645073
vn -0.749134 -0.150599 -0.645073
vn -0.749134 -0.150599 -0.645073
vn 0.751809 0.141825 0.643948
vn 0.751809 0.141825 0.643948
vn 0.751809 0.141825 0.643948
vn 0.751809 0.141825 0.643948
vn 0.295150 0.417864 -0.859230
vn 0.295150 0.417864 -0.859230
vn 0.295150 0.417864 -0.859230
vn -0.681674 -0.357893 -0.638148
vn -0.681674 -0.357893 -0.638148
vn -0.681674 -0.357893 -0.638148
vn -0.655721 -0.120742 0.745286
vn -0.655721 -0.120742 0.745286
vn -0.655721 -0.120742 0.745286
vn 0.300120 0.707858 0.639426
vn 0.300120 0.707858 0.639426
vn 0.300120 0.707858 0.639426
vn -0.441495 0.015656 -0.897127
vn -0.441495 0.015656 -0.897127
vn -0.441495 0.015656 -0.897127
vn -0.441495 0.015656 -0.897127
vn 0.533552 -0.055032 0.843975
vn 0.533552 -0.055032 0.843975
vn 0.533552 -0.055032 0.843975
vn 0.533552 -0.055032 0.843975
vn -0.859604 0.151973 0.487838
vn -0.859604 0.151973 0.487838
vn -0.859604 0.151973 0.487838
vn -0.859604 0.151973 0.487838
vn 0.899466 -0.167893 -0.403452
vn 0.899465 -0.167893 -0.403452
vn 0.899465 -0.167893 -0.403452
vn 0.899465 -0.167893 -0.403452
vn -0.323658 0.264169 -0.908549
vn -0.323658 0.264169 -0.908549
vn -0.323658 0.264169 -0.908549
vn -0.565180 0.682012 0.464145
vn -0.565181 0.682012 0.464145
vn -0.565181 0.682012 0.464145
vn 0.642102 -0.015414 0.766464
vn 0.642102 -0.015414 0.766464
vn 0.642102 -0.015414 0.766464
vn 0.818981 -0.355956 -0.450072
vn 0.818981 -0.355956 -0.450072
vn 0.818981 -0.355956 -0.450072
vn -0.799061 -0.065396 0.597684
vn -0.799061 -0.065396 0.597684
vn -0.799061 -0.065396 0.597684
vn -0.799061 -0.065396 0.597684
vn 0.789161 0.017555 -0.613936
vn 0.789161 0.017555 -0.613936
vn 0.789161 0.017555 -0.613936
vn 0.789161 0.017555 -0.613936
vn 0.593902 -0.132670 0.793523
vn 0.593902 -0.132670 0.793523
vn 0.593902 -0.132670 0.793523
vn 0.593902 -0.132670 0.793523
vn -0.594419 0.104714 -0.797309
vn -0.594419 0.104714 -0.797309
vn -0.594419 0.104714 -0.797309
vn -0.594419 0.104714 -0.797309
vn -0.794068 -0.051544 0.605639
vn -0.794068 -0.051544 0.605639
vn -0.794068 -0.051544 0.605639
vn 0.586869 -0.308392 0.748651
vn 0.586869 -0.308392 0.748651
vn 0.586869 -0.308392 0.748651
vn 0.865666 0.339159 -0.368232
vn 0.865666 0.339159 -0.368232
vn 0.865666 0.339159 -0.368232
vn -0.501266 0.664131 -0.554674
vn -0.501266 0.664131 -0.554674
vn -0.501266 0.664131 -0.554674
s off
f 1/1/1 2/2/2 4/4/3 3/3/4
f 5/5/5 6/6/6 8/8/7 7/7/8
f 2/2/9 8/9/10 6/10/11 4/4/12
f 7/11/13 1/1/14 3/3/15 5/12/16
f 3/3/17 4/4/18 9/13/19
f 4/4/20 6/6/21 9/13/22
f 6/6/23 5/5/24 9/13/25
f 5/5/26 3/3/27 9/13/28
f 10/14/29 11/15/30 13/16/31 12/17/32
f 14/18/33 15/19/34 17/20/35 16/21/36
f 11/15/37 17/22/38 15/23/39 13/16/40
f 16/24/41 10/14/42 12/17/43 14/25/44
f 12/17/45 13/16/46 18/26/47
f 13/16/48 15/19/49 18/26/50
f 15/19/51 14/18/52 18/26/53
f 14/18/54 12/17/55 18/26/56
f 19/27/57 20/28/58 22/29/59 21/30/60
f 23/31/61 24/32/62 26/33/63 25/34/64
f 20/28/65 26/35/66 24/36/67 22/29/68
f 25/37/69 19/27/70 21/30/71 23/38/72
f 21/30/73 22/29/74 27/39/75
f 22/29/76 24/32/77 27/39/78
f 24/32/79 23/31/80 27/39/81
f 23/31/82 21/30/83 27/39/84
