# This file uses meters as units for non-parametric coordinates.

v 499.999756 0.000000 0.000000
v 500.019043 0.000000 -143.616547
v 483.841919 0.000000 -221.778442
v 470.548218 0.000000 -286.007568
v 428.166382 0.000000 -347.823730
v 155.746582 0.000000 -498.292236
v 86.964844 0.000000 -499.186035
v 276.166199 0.000000 -474.141907
v 211.621704 0.000000 -487.459106
v 388.885132 0.000000 -403.061035
v 327.765869 0.000000 -442.077026
v 0.000000 0.000000 -500.000000
v 0.000000 0.000000 0.000000
vt 0.958432 0.964808
vt 0.700074 0.964842
vt 0.958432 0.065336
vt 0.559465 0.935740
vt 0.443920 0.911826
vt 0.332716 0.835583
vt 0.233347 0.764918
vt 0.163160 0.654968
vt 0.105477 0.562143
vt 0.081520 0.446031
vt 0.062032 0.345515
vt 0.060424 0.221780
vt 0.058960 0.065336
vn 0.000000 1.000000 0.000000
vn 0.000000 1.000000 0.000000
vn 0.000000 1.000000 0.000000
vn 0.000000 1.000000 0.000000
vn 0.000000 1.000000 0.000000
vn 0.000000 1.000000 0.000000
vn -0.000000 1.000000 0.000000
vn -0.000000 1.000000 0.000000
vn -0.000000 1.000000 0.000000
vn -0.000000 1.000000 0.000000
vn -0.000000 1.000000 0.000000
vn -0.000000 1.000000 0.000000
vn -0.000000 1.000000 0.000000
vn -0.000000 1.000000 0.000000
vn -0.000000 1.000000 0.000000
vn -0.000000 1.000000 0.000000
vn -0.000000 1.000000 0.000000
vn -0.000000 1.000000 0.000000
vn -0.000000 1.000000 0.000000
vn -0.000000 1.000000 0.000000
vn -0.000000 1.000000 0.000000
vn -0.000000 1.000000 0.000000
vn -0.000000 1.000000 0.000000
vn -0.000000 1.000000 0.000000
vn -0.000000 1.000000 0.000000
vn -0.000000 1.000000 0.000000
vn -0.000000 1.000000 0.000000
vn -0.000000 1.000000 0.000000
vn -0.000000 1.000000 0.000000
vn -0.000000 1.000000 0.000000
vn 0.000000 1.000000 0.000000
vn 0.000000 1.000000 0.000000
vn 0.000000 1.000000 0.000000
s off
f 1/1/1 2/2/2 13/3/3
f 2/2/4 3/4/5 13/3/6
f 4/5/7 5/6/8 13/3/9
f 6/11/10 7/12/11 13/3/12
f 8/9/13 9/10/14 13/3/15
f 10/7/16 11/8/17 13/3/18
f 5/6/19 10/7/20 13/3/21
f 11/8/22 8/9/23 13/3/24
f 9/10/25 6/11/26 13/3/27
f 7/12/28 12/13/29 13/3/30
f 3/4/31 4/5/32 13/3/33
