# This file uses meters as units for non-parametric coordinates.

v 500.000732 0.000000 0.000000
v 500.000732 -0.000000 -500.000000
v 0.000000 0.000000 0.000000
v 0.000000 -0.000000 -500.000000
v 500.000732 6.969652 -67.378235
v 0.000000 6.969652 -67.378235
v 500.000732 6.969652 -102.306396
v 0.000000 6.969652 -102.306580
v 500.000732 -23.029484 -58.744812
v 0.000000 -23.029484 -58.744812
v 500.000732 -0.000000 -107.378418
v 0.000000 -0.000000 -107.378601
v 500.000732 -5.417279 -8.034851
v 0.000000 -5.417279 -8.034851
v 0.000000 -8.353827 -26.542664
v 500.000732 -8.353827 -26.542664
v 289.252441 -0.000000 0.000000
v 291.196289 -7.730597 -14.574829
v 287.894775 -8.353827 -21.887939
v 243.826172 -23.029484 -62.801331
v 243.826172 6.969654 -71.434814
v 243.826172 6.969654 -106.362976
v 245.167480 -0.000000 -112.563538
v 248.666260 -0.000000 -500.000000
v 493.314209 6.969654 -102.306396
v 493.153564 6.969654 -67.378235
v 494.801514 -23.029484 -58.744812
v 495.529053 -8.353827 -26.542664
v 495.528564 -5.417279 -8.034851
v 3.359131 6.969654 -102.306580
v 3.359131 6.969654 -67.378235
v 3.359131 -23.029484 -58.744812
v 3.359131 -8.353827 -26.542847
v 3.359131 -5.417279 -8.034851
v 124.333252 -0.000000 -500.000000
v 374.333496 -0.000000 -500.000000
v 54.685421 0.117628 -439.095459
v 133.613770 1.048243 -417.257355
v 246.932632 0.117628 -417.257385
v 361.467529 1.507210 -417.257385
v 447.785858 0.117628 -434.987061
v 421.370270 0.117628 -153.319534
v 325.729218 0.117628 -165.783752
v 224.458069 0.117628 -182.567245
v 160.790359 0.117628 -165.783707
v 52.300106 0.117628 -157.853775
v 33.222618 0.117628 -291.520569
v 155.387680 -1.507239 -300.954346
v 249.421448 0.117628 -317.128113
v 326.674377 1.135914 -304.501556
v 466.005493 0.117628 -291.520447
v 106.863937 1.135914 -249.271393
v 379.092743 -1.507239 -226.675873
vt 0.066177 0.209415
vt 0.102497 0.279316
vt 0.102497 0.279316
vt 0.102497 0.279316
vt 0.102497 0.279316
vt 0.102497 0.279316
vt 0.102497 0.279316
vt 0.102497 0.279316
vt 0.102497 0.279316
vt 0.102497 0.279316
vt 0.102497 0.279316
vt 0.066177 0.209415
vt 0.102497 0.279316
vt 0.102497 0.279316
vt 0.102497 0.279316
vt 0.102497 0.279316
vt 0.066177 0.209415
vt 0.102497 0.279316
vt 0.102497 0.279316
vt 0.102497 0.279316
vt 0.102183 0.307564
vt 0.102183 0.307564
vt 0.102183 0.307564
vt 0.102183 0.307564
vt 0.102183 0.307564
vt 0.166646 0.302939
vt 0.066177 0.209415
vt 0.102183 0.307564
vt 0.102183 0.307564
vt 0.166646 0.302939
vt 0.102183 0.307564
vt 0.102183 0.307564
vt 0.102183 0.307564
vt 0.102183 0.307564
vt 0.102183 0.307564
vt 0.102183 0.307564
vt 0.102183 0.307564
vt 0.102183 0.307564
vt 0.066177 0.209415
vt 0.166646 0.302939
vt 0.102497 0.279316
vt 0.102497 0.279316
vt 0.102497 0.279316
vt 0.102497 0.279316
vt 0.102497 0.279316
vt 0.102497 0.279316
vt 0.102497 0.279316
vt 0.066177 0.209415
vt 0.102497 0.279316
vt 0.102183 0.307564
vt 0.066177 0.209415
vt 0.102497 0.279316
vt 0.102183 0.307564
vt 0.102183 0.307564
vt 0.102183 0.307564
vt 0.102183 0.307564
vt 0.102183 0.307564
vt 0.102183 0.307564
vt 0.102183 0.307564
vt 0.166646 0.302939
vt 0.102183 0.307564
vt 0.066177 0.209415
vt 0.102497 0.279316
vt 0.102497 0.279316
vt 0.102497 0.279316
vt 0.102497 0.279316
vt 0.102497 0.279316
vt 0.102497 0.279316
vt 0.102497 0.279316
vt 0.102497 0.279316
vt 0.102497 0.279316
vt 0.102497 0.279316
vt 0.166646 0.302939
vt 0.102497 0.279316
vt 0.166646 0.302939
vt 0.102183 0.307564
vt 0.166646 0.302939
vt 0.102183 0.307564
vt 0.102183 0.307564
vt 0.102183 0.307564
vt 0.102183 0.307564
vt 0.102183 0.307564
vt 0.102183 0.307564
vt 0.102183 0.307564
vt 0.102183 0.307564
vt 0.166646 0.302939
vt 0.102183 0.307564
vt 0.102183 0.307564
vt 0.102183 0.307564
vt 0.102497 0.279316
vt 0.166630 0.303341
vt 0.166630 0.303341
vt 0.166635 0.303221
vt 0.166635 0.303219
vt 0.166646 0.302939
vt 0.166646 0.302939
vt 0.166635 0.303219
vt 0.166635 0.303221
vt 0.166640 0.303080
vt 0.166640 0.303076
vt 0.166646 0.302939
vt 0.166646 0.302939
vt 0.166640 0.303076
vt 0.166640 0.303080
vt 0.166637 0.303150
vt 0.166638 0.303148
vt 0.166646 0.302939
vt 0.166646 0.302939
vt 0.166638 0.303148
vt 0.166637 0.303150
vt 0.166639 0.303118
vt 0.166639 0.303118
vn -0.002237 0.864232 -0.503089
vn -0.002237 0.864232 -0.503089
vn -0.002237 0.864232 -0.503089
vn -0.002237 0.864232 -0.503089
vn 0.000000 1.000000 0.000000
vn 0.000000 1.000000 0.000000
vn 0.000000 1.000000 0.000000
vn 0.000000 1.000000 0.000000
vn -0.014775 0.630030 -0.776430
vn -0.014775 0.630030 -0.776430
vn -0.014775 0.630030 -0.776430
vn -0.014775 0.630030 -0.776430
vn 0.016209 0.276529 0.960869
vn 0.016209 0.276529 0.960869
vn 0.016209 0.276529 0.960869
vn 0.016209 0.276529 0.960869
vn 0.000425 0.927927 -0.372762
vn 0.000425 0.927927 -0.372762
vn 0.000425 0.927927 -0.372762
vn 0.000425 0.927927 -0.372762
vn 0.003552 0.990562 -0.137016
vn 0.003552 0.990562 -0.137016
vn 0.003552 0.990562 -0.137016
vn 0.003552 0.990562 -0.137016
vn 0.003916 0.999966 -0.007224
vn 0.003916 0.999966 -0.007224
vn 0.003916 0.999966 -0.007224
vn 0.003916 0.999966 -0.007224
vn 0.000000 0.829147 -0.559031
vn 0.000000 0.829147 -0.559031
vn 0.000000 0.829147 -0.559031
vn 0.000000 0.987645 -0.156705
vn 0.000000 0.987646 -0.156705
vn 0.000000 0.987645 -0.156705
vn 0.000000 0.987645 -0.156705
vn 0.000000 0.909958 -0.414700
vn 0.000000 0.909958 -0.414700
vn 0.000000 0.909958 -0.414700
vn 0.000000 0.909958 -0.414700
vn 0.000000 0.276565 0.960995
vn 0.000000 0.276565 0.960995
vn 0.000000 0.276565 0.960995
vn 0.000000 0.276565 0.960995
vn 0.000000 1.000000 0.000000
vn 0.000000 1.000000 0.000000
vn 0.000000 1.000000 0.000000
vn 0.000000 1.000000 0.000000
vn 0.000000 0.588412 -0.808561
vn 0.000000 0.588412 -0.808562
vn 0.000000 0.588412 -0.808561
vn 0.014174 0.633666 -0.773477
vn 0.014174 0.633666 -0.773477
vn 0.014174 0.633666 -0.773477
vn 0.014174 0.633666 -0.773477
vn 0.000000 1.000000 0.000000
vn 0.000000 1.000000 0.000000
vn 0.000000 1.000000 0.000000
vn 0.000000 1.000000 0.000000
vn -0.015584 0.276136 0.960992
vn -0.015584 0.276136 0.960992
vn -0.015584 0.276136 0.960992
vn -0.015584 0.276136 0.960992
vn -0.000486 0.928119 -0.372284
vn -0.000486 0.928119 -0.372284
vn -0.000486 0.928119 -0.372284
vn -0.000486 0.928119 -0.372284
vn -0.004941 0.990703 -0.135951
vn -0.004941 0.990703 -0.135951
vn -0.004941 0.990703 -0.135951
vn -0.004941 0.990703 -0.135951
vn 0.003108 0.864307 -0.502955
vn 0.003108 0.864307 -0.502955
vn 0.003108 0.864307 -0.502955
vn 0.003108 0.864307 -0.502955
vn 0.000000 0.588413 -0.808560
vn 0.000000 0.588413 -0.808560
vn 0.000000 0.588413 -0.808560
vn -0.000001 1.000000 0.000000
vn -0.000001 1.000000 0.000000
vn -0.000001 1.000000 0.000000
vn -0.000001 1.000000 0.000000
vn 0.000000 0.276564 0.960996
vn 0.000000 0.276564 0.960996
vn 0.000000 0.276564 0.960995
vn 0.000000 0.276564 0.960996
vn -0.000011 0.909958 -0.414701
vn -0.000011 0.909958 -0.414701
vn -0.000011 0.909958 -0.414701
vn -0.000011 0.909958 -0.414701
vn -0.000004 0.987646 -0.156704
vn -0.000004 0.987646 -0.156704
vn -0.000004 0.987646 -0.156704
vn -0.000004 0.987646 -0.156704
vn 0.000000 0.829147 -0.559030
vn 0.000000 0.829147 -0.559030
vn 0.000000 0.829147 -0.559030
vn 0.000000 0.999998 -0.001809
vn 0.000000 0.999998 -0.001809
vn 0.000000 0.999998 -0.001809
vn 0.000000 0.999998 -0.001931
vn 0.000000 0.999998 -0.001931
vn 0.000000 0.999998 -0.001931
vn -0.005785 0.999930 -0.010328
vn -0.005785 0.999930 -0.010328
vn -0.005785 0.999930 -0.010328
vn -0.005785 0.999930 -0.010328
vn -0.008550 0.999895 -0.011708
vn -0.008550 0.999895 -0.011708
vn -0.008550 0.999895 -0.011708
vn 0.012762 0.999787 -0.016227
vn 0.012762 0.999787 -0.016227
vn 0.012762 0.999787 -0.016227
vn 0.000083 0.999997 0.002243
vn 0.000083 0.999998 0.002243
vn 0.000083 0.999997 0.002243
vn 0.000083 0.999997 0.002243
vn 0.000411 0.999999 0.001559
vn 0.000411 0.999999 0.001559
vn 0.000411 0.999999 0.001559
vn -0.000293 0.999998 0.001767
vn -0.000293 0.999998 0.001767
vn -0.000293 0.999998 0.001767
vn -0.000119 0.999997 0.002370
vn -0.000119 0.999997 0.002370
vn -0.000119 0.999997 0.002370
vn -0.000119 0.999997 0.002370
vn 0.015687 0.999875 -0.001992
vn 0.015687 0.999875 -0.001992
vn 0.015687 0.999875 -0.001992
vn -0.012131 0.999926 0.000302
vn -0.012131 0.999926 0.000302
vn -0.012131 0.999926 0.000302
vn 0.008212 0.999966 -0.000204
vn 0.008212 0.999966 -0.000204
vn 0.008212 0.999966 -0.000204
vn -0.011334 0.999934 -0.001648
vn -0.011334 0.999934 -0.001648
vn -0.011334 0.999934 -0.001648
vn -0.003541 0.999994 0.000000
vn -0.003541 0.999994 0.000000
vn -0.003541 0.999994 0.000000
vn 0.001945 0.999998 -0.000247
vn 0.001945 0.999998 -0.000247
vn 0.001945 0.999998 -0.000247
vn -0.001977 0.999998 0.000282
vn -0.001977 0.999998 0.000282
vn -0.001977 0.999998 0.000282
vn -0.015059 0.999884 0.002149
vn -0.015059 0.999884 0.002149
vn -0.015059 0.999884 0.002149
vn 0.000000 1.000000 0.000000
vn 0.000000 1.000000 0.000000
vn 0.000000 1.000000 0.000000
vn 0.000000 1.000000 0.000000
vn 0.000000 1.000000 0.000000
vn 0.000000 1.000000 0.000000
vn 0.003120 0.999708 -0.023942
vn 0.003120 0.999708 -0.023942
vn 0.003120 0.999708 -0.023942
vn 0.001258 0.999999 0.000406
vn 0.001258 0.999999 0.000406
vn 0.001258 0.999999 0.000406
vn 0.003460 0.999994 0.000000
vn 0.003460 0.999994 0.000000
vn 0.003460 0.999994 0.000000
vn -0.001851 0.999998 -0.000269
vn -0.001851 0.999998 -0.000269
vn -0.001851 0.999998 -0.000269
vn 0.014779 0.999707 0.019199
vn 0.014779 0.999707 0.019199
vn 0.014779 0.999707 0.019199
vn -0.013074 0.999617 0.024412
vn -0.013074 0.999617 0.024412
vn -0.013074 0.999617 0.024412
vn -0.013060 0.999914 -0.000737
vn -0.013060 0.999914 -0.000737
vn -0.013060 0.999915 -0.000737
vn 0.006806 0.999962 0.005393
vn 0.006806 0.999962 0.005393
vn 0.006806 0.999962 0.005393
vn 0.039099 0.999206 0.007601
vn 0.039099 0.999206 0.007601
vn 0.039099 0.999206 0.007601
vn -0.014363 0.999871 0.007242
vn -0.014363 0.999871 0.007242
vn -0.014363 0.999871 0.007242
vn -0.019210 0.999752 -0.011250
vn -0.019210 0.999752 -0.011250
vn -0.019210 0.999752 -0.011250
vn 0.010073 0.999082 -0.041637
vn 0.010073 0.999082 -0.041637
vn 0.010073 0.999082 -0.041637
vn 0.000851 0.999932 0.011646
vn 0.000851 0.999932 0.011646
vn 0.000851 0.999932 0.011646
vn 0.039931 0.999110 -0.013606
vn 0.039931 0.999110 -0.013606
vn 0.039931 0.999110 -0.013606
vn -0.024622 0.999665 -0.007952
vn -0.024622 0.999665 -0.007952
vn -0.024622 0.999665 -0.007952
vn 0.004419 0.999511 0.030969
vn 0.004419 0.999511 0.030969
vn 0.004419 0.999511 0.030969
s off
f 3/27/1 17/1/2 18/12/3 34/17/4
f 21/81/5 22/78/6 30/59/7 31/56/8
f 22/79/9 23/76/10 12/61/11 30/58/12
f 20/83/13 21/80/14 31/57/15 32/54/16
f 19/28/17 20/82/18 32/55/19 33/53/20
f 18/84/21 19/28/22 33/53/23 34/50/24
f 35/91/25 38/94/26 39/95/27 24/75/28
f 1/39/29 13/48/30 29/51/31
f 28/66/32 29/63/33 13/64/34 16/20/35
f 27/68/36 28/65/37 16/74/38 9/2/39
f 26/70/40 27/67/41 9/11/42 5/6/43
f 25/72/44 26/69/45 5/14/46 7/7/47
f 11/9/48 25/71/49 7/15/50
f 25/32/51 11/29/52 23/25/53 22/87/54
f 26/34/55 25/31/56 22/24/57 21/88/58
f 27/36/59 26/33/60 21/23/61 20/89/62
f 28/37/63 27/35/64 20/22/65 19/85/66
f 29/38/67 28/37/68 19/85/69 18/21/70
f 17/1/71 1/39/72 29/51/73 18/12/74
f 8/8/75 30/42/76 12/10/77
f 6/5/78 31/44/79 30/41/80 8/16/81
f 10/3/82 32/46/83 31/43/84 6/13/85
f 15/19/86 33/52/87 32/45/88 10/4/89
f 14/18/90 34/49/91 33/47/92 15/90/93
f 3/27/94 34/17/95 14/62/96
f 41/98/97 2/73/98 36/92/99
f 35/91/100 4/40/101 37/93/102
f 36/92/103 24/26/104 39/96/105 40/97/106
f 37/93/107 38/94/108 35/91/109
f 40/97/110 41/98/111 36/92/112
f 23/77/113 45/103/114 46/104/115 12/60/116
f 44/101/117 45/103/118 23/77/119
f 43/100/120 44/102/121 23/86/122
f 11/30/123 42/99/124 43/100/125 23/86/126
f 40/97/127 51/110/128 41/98/129
f 40/97/130 39/96/131 49/108/132
f 39/95/133 38/94/134 49/107/135
f 47/105/136 38/94/137 37/93/138
f 47/105/139 4/40/140 12/60/141
f 51/110/142 2/73/143 41/98/144
f 47/105/145 12/60/146 46/104/147
f 46/104/148 52/111/149 47/105/150
f 49/107/151 45/103/152 44/101/153
f 43/100/154 49/108/155 44/102/156
f 43/100/157 42/99/158 53/112/159
f 11/30/160 51/110/161 42/99/162
f 11/30/163 2/73/164 51/110/165
f 37/93/166 4/40/167 47/105/168
f 47/105/169 48/106/170 38/94/171
f 49/107/172 38/94/173 48/106/174
f 40/97/175 49/108/176 50/109/177
f 50/109/178 51/110/179 40/97/180
f 43/100/181 53/112/182 50/109/183
f 50/109/184 49/108/185 43/100/186
f 49/107/187 48/106/188 45/103/189
f 47/105/190 52/111/191 48/106/192
f 46/104/193 45/103/194 52/111/195
f 48/106/196 52/111/197 45/103/198
f 53/112/199 42/99/200 51/110/201
f 50/109/202 53/112/203 51/110/204
