# This file uses meters as units for non-parametric coordinates.

v 500.000000 0.000000 0.000000
v 499.999207 0.000000 -499.999390
v 0.000000 0.000000 0.000000
v 0.000000 -0.000000 -499.999390
v 500.000000 6.969652 -67.378296
v 0.000000 6.969652 -67.378296
v 500.000000 6.969652 -102.307129
v 0.000000 6.969652 -102.307129
v 500.000000 -23.029484 -58.744751
v 0.000000 -23.029484 -58.744751
v 500.000000 -0.000001 -107.379150
v 0.000000 -0.000001 -107.379150
v 500.000000 -5.417279 -8.034546
v 0.000000 -5.417279 -8.035278
v 0.000000 -8.353827 -26.542603
v 500.000000 -8.353827 -26.542603
v 374.739349 0.000000 0.000000
v 376.189056 -5.417279 -11.714233
v 372.792328 -15.808158 -23.337524
v 375.107666 -15.467115 -66.524536
v 375.107666 -9.204556 -75.858276
v 378.640472 -8.751798 -107.321167
v 377.737396 -2.982914 -166.180450
v 497.360229 6.969655 -101.687622
v 497.360229 6.969655 -66.760254
v 497.360229 -23.029482 -58.126831
v 497.360229 -8.353826 -26.033813
v 497.360229 -5.417279 -8.034546
v 500.000000 0.000001 0.000000
v 8.165039 6.969655 -102.787720
v 3.359985 6.969655 -66.760254
v 3.359985 -23.029482 -58.126831
v 3.359985 -8.353826 -26.033813
v 3.359985 -5.417279 -8.034546
v 0.000000 0.000001 0.000000
v 299.718323 0.000000 -118.566162
v 298.609070 6.969655 -110.889404
v 297.607147 6.969655 -79.882080
v 297.607147 -15.480256 -71.248657
v 287.583069 -8.353826 -28.989380
v 260.405121 -5.417279 -9.616089
v 257.867523 0.000001 0.000000
v 475.651123 1.286403 -119.830322
v 471.657959 6.969655 -110.778809
v 474.922241 6.969655 -79.339600
v 474.922241 -15.480256 -70.706177
v 482.315765 -8.353826 -28.301270
v 487.489105 -5.417279 -9.248413
v 488.779999 0.000001 0.000000
v 318.704193 -0.481810 -157.359253
v 321.469788 -8.751798 -110.266846
v 322.294403 -8.732895 -76.744873
v 322.294403 -15.467115 -71.841431
v 309.001770 -8.353826 -29.673706
v 284.793152 -5.417279 -9.982300
v 282.444885 0.000001 0.000000
v 446.434814 0.180940 -158.321899
v 451.481201 -8.751798 -110.377563
v 455.801514 -8.732895 -76.084839
v 455.801514 -15.467115 -71.180786
v 464.907837 -8.353826 -28.836060
v 468.133270 -5.417279 -9.534424
v 469.106903 0.000001 0.000732
v 376.863129 1.059430 -158.964478
v 303.031067 2.975636 -117.301880
v 323.202118 0.922609 -155.825806
v 441.497437 1.187905 -157.219849
v 469.123413 2.883642 -117.277466
v 374.999634 0.000000 -499.998901
v 375.670868 -0.792032 -444.101440
v -0.000169 0.030915 -316.580750
v 310.709656 0.694921 -307.358032
v 376.126068 -2.982914 -311.556519
v 448.874390 2.933391 -304.501587
v 499.999817 0.030915 -316.580750
v 249.999756 -0.000000 -499.999084
v 500.000183 0.000000 -441.389526
v 426.112732 -0.558332 -444.129883
v 375.670868 -2.982914 -439.308716
v 347.086884 -0.792032 -444.101440
v 0.000807 0.000000 -441.389526
v 0.000000 -2.982914 -439.563599
v 318.186096 -2.982914 -439.308716
v 0.000000 -2.982914 -319.323364
v 318.159485 -2.982914 -313.527466
v 448.633179 -2.982914 -438.592896
v 500.000000 -2.982914 -439.563599
v 500.000000 -2.982914 -319.323364
v 441.343140 -2.982914 -313.402222
v 441.497437 -2.982914 -163.546051
v 323.202118 -2.982914 -162.446564
v 301.412292 0.625899 -314.522339
v 308.244812 -2.982914 -320.241089
v 312.379089 -2.982914 -439.421997
v 279.945618 -0.792032 -444.101440
v 465.336426 2.512223 -315.404663
v 456.450928 -2.982914 -321.728394
v 456.388306 -2.982914 -438.690552
v 480.403015 -0.485405 -445.408081
v 375.984833 -2.982914 -318.359741
v 315.045349 -2.982914 -320.143921
v 447.178711 -2.982914 -321.503784
v 124.999878 -0.000000 -499.999268
vt 0.065277 0.211215
vt 0.102497 0.279316
vt 0.102497 0.279316
vt 0.102497 0.279316
vt 0.102497 0.279316
vt 0.102497 0.279316
vt 0.102497 0.279316
vt 0.102497 0.279316
vt 0.102497 0.279316
vt 0.102497 0.279316
vt 0.102497 0.279316
vt 0.065277 0.211215
vt 0.102497 0.279316
vt 0.102497 0.279316
vt 0.102497 0.279316
vt 0.102497 0.279316
vt 0.065277 0.211215
vt 0.102497 0.279316
vt 0.102497 0.279316
vt 0.102497 0.279316
vt 0.102183 0.307564
vt 0.102183 0.307564
vt 0.102183 0.307564
vt 0.102183 0.307564
vt 0.102183 0.307564
vt 0.065277 0.211215
vt 0.102183 0.307564
vt 0.166270 0.303747
vt 0.102183 0.307564
vt 0.166261 0.303759
vt 0.102183 0.307564
vt 0.102183 0.307564
vt 0.102183 0.307564
vt 0.102183 0.307564
vt 0.102183 0.307564
vt 0.102183 0.307564
vt 0.102183 0.307564
vt 0.102183 0.307564
vt 0.065277 0.211215
vt 0.166678 0.304208
vt 0.102497 0.279316
vt 0.102497 0.279316
vt 0.102497 0.279316
vt 0.102497 0.279316
vt 0.102497 0.279316
vt 0.102497 0.279316
vt 0.102497 0.279316
vt 0.065277 0.211215
vt 0.065277 0.211215
vt 0.102497 0.279316
vt 0.102183 0.307564
vt 0.065277 0.211215
vt 0.102497 0.279316
vt 0.102183 0.307564
vt 0.102183 0.307564
vt 0.102183 0.307564
vt 0.102183 0.307564
vt 0.102183 0.307564
vt 0.102183 0.307564
vt 0.102183 0.307564
vt 0.166683 0.304201
vt 0.102183 0.307564
vt 0.065277 0.211215
vt 0.102497 0.279316
vt 0.065277 0.211215
vt 0.102497 0.279316
vt 0.102497 0.279316
vt 0.102497 0.279316
vt 0.102497 0.279316
vt 0.102497 0.279316
vt 0.102497 0.279316
vt 0.102497 0.279316
vt 0.102497 0.279316
vt 0.102497 0.279316
vt 0.166698 0.304200
vt 0.102497 0.279316
vt 0.102183 0.307564
vt 0.102183 0.307564
vt 0.102183 0.307564
vt 0.102183 0.307564
vt 0.102183 0.307564
vt 0.102183 0.307564
vt 0.102183 0.307564
vt 0.102183 0.307564
vt 0.102183 0.307564
vt 0.102318 0.327655
vt 0.102183 0.307564
vt 0.102183 0.307564
vt 0.102183 0.307564
vt 0.102497 0.279316
vt 0.102183 0.307564
vt 0.165981 0.303752
vt 0.102183 0.307564
vt 0.102183 0.307564
vt 0.102183 0.307564
vt 0.102183 0.307564
vt 0.102183 0.307564
vt 0.102183 0.307564
vt 0.102183 0.307564
vt 0.065277 0.211215
vt 0.102183 0.307564
vt 0.065277 0.211215
vt 0.102183 0.307564
vt 0.166618 0.304195
vt 0.102183 0.307564
vt 0.102183 0.307564
vt 0.102183 0.307564
vt 0.102183 0.307564
vt 0.102183 0.307564
vt 0.102183 0.307564
vt 0.102183 0.307564
vt 0.065277 0.211215
vt 0.102183 0.307564
vt 0.065277 0.211215
vt 0.102183 0.307564
vt 0.166822 0.304025
vt 0.102183 0.307564
vt 0.102183 0.307564
vt 0.102183 0.307564
vt 0.102183 0.307564
vt 0.102183 0.307564
vt 0.102183 0.307564
vt 0.102183 0.307564
vt 0.065277 0.211215
vt 0.102183 0.307564
vt 0.065277 0.211215
vt 0.102183 0.307564
vt 0.167037 0.304036
vt 0.102183 0.307564
vt 0.102183 0.307564
vt 0.102183 0.307564
vt 0.102183 0.307564
vt 0.102183 0.307564
vt 0.102183 0.307564
vt 0.102183 0.307564
vt 0.065277 0.211215
vt 0.102183 0.307564
vt 0.065277 0.211215
vt 0.102183 0.307564
vt 0.102183 0.307564
vt 0.102183 0.307564
vt 0.102183 0.307564
vt 0.102183 0.307564
vt 0.102183 0.307564
vt 0.167037 0.304042
vt 0.166809 0.304043
vt 0.166635 0.304198
vt 0.166637 0.304205
vt 0.165981 0.303746
vt 0.166616 0.304226
vt 0.166631 0.304227
vt 0.166835 0.303762
vt 0.102318 0.327655
vt 0.166681 0.304230
vt 0.166964 0.303765
vt 0.166696 0.304230
vt 0.166877 0.303886
vt 0.166574 0.303760
vt 0.166574 0.303885
vt 0.166284 0.303759
vt 0.166284 0.303747
vt 0.166574 0.303748
vt 0.165981 0.303883
vt 0.166373 0.303766
vt 0.166374 0.304044
vt 0.166356 0.304033
vt 0.166366 0.303765
vt 0.166813 0.303765
vt 0.166803 0.303767
vt 0.166889 0.303747
vt 0.101973 0.328103
vt 0.101956 0.328103
vt 0.102318 0.327655
vt 0.101968 0.328031
vt 0.101957 0.328032
vt 0.102318 0.327655
vt 0.102318 0.327655
vt 0.102183 0.307564
vt 0.102183 0.307564
vt 0.102318 0.327655
vt 0.166907 0.303747
vt 0.167177 0.303750
vt 0.167177 0.303759
vt 0.167176 0.303887
vt 0.166144 0.304045
vt 0.166144 0.304039
vt 0.102566 0.303692
vt 0.102566 0.303692
vt 0.166334 0.304033
vt 0.166629 0.304227
vt 0.101957 0.328086
vt 0.166346 0.304044
vt 0.102566 0.303692
vt 0.101972 0.328086
vt 0.102566 0.303692
vt 0.102318 0.327655
vt 0.166853 0.304027
vt 0.166683 0.304230
vt 0.166838 0.304043
vt 0.101957 0.328048
vt 0.101969 0.328048
vt 0.103217 0.305291
vt 0.102318 0.327655
vt 0.102318 0.327655
vt 0.102566 0.303692
vt 0.102318 0.327655
vt 0.102566 0.303692
vt 0.102566 0.303692
vt 0.102318 0.327655
vt 0.102566 0.303692
vt 0.102437 0.305262
vt 0.102821 0.305248
vt 0.102820 0.305269
vt 0.102416 0.305262
vt 0.102447 0.305242
vt 0.103245 0.305292
vt 0.103200 0.305265
vt 0.102318 0.327655
vt 0.166284 0.303885
vn -0.003344 0.894414 -0.447228
vn -0.003344 0.894414 -0.447228
vn -0.003344 0.894414 -0.447228
vn -0.003344 0.894414 -0.447228
vn 0.001753 0.999984 0.005299
vn 0.001753 0.999985 0.005299
vn 0.001753 0.999985 0.005299
vn 0.001753 0.999985 0.005299
vn -0.013711 0.878944 -0.476727
vn -0.013711 0.878944 -0.476727
vn -0.095283 0.857391 -0.505769
vn -0.075956 0.845057 0.529253
vn -0.075956 0.845058 0.529253
vn -0.075956 0.845058 0.529253
vn -0.075956 0.845057 0.529253
vn 0.040404 0.995567 -0.084932
vn 0.040404 0.995567 -0.084932
vn 0.040404 0.995567 -0.084932
vn 0.040404 0.995567 -0.084932
vn 0.035711 0.911476 -0.409801
vn 0.035711 0.911476 -0.409801
vn 0.035711 0.911476 -0.409801
vn 0.035711 0.911476 -0.409801
vn 0.000000 0.829135 -0.559049
vn 0.000000 0.829135 -0.559049
vn 0.000000 0.829135 -0.559049
vn 0.000000 0.829135 -0.559049
vn -0.015308 0.987190 -0.158814
vn -0.015308 0.987190 -0.158814
vn -0.015308 0.987190 -0.158814
vn -0.015308 0.987190 -0.158814
vn -0.088290 0.906141 -0.413658
vn -0.088290 0.906141 -0.413658
vn -0.088290 0.906141 -0.413658
vn -0.088290 0.906141 -0.413658
vn 0.219487 0.269819 0.937562
vn 0.219487 0.269819 0.937562
vn 0.219487 0.269819 0.937562
vn 0.219487 0.269819 0.937562
vn 0.000001 1.000000 0.000000
vn 0.000001 1.000000 0.000000
vn 0.000001 1.000000 0.000000
vn 0.000001 1.000000 0.000000
vn 0.365704 0.667869 -0.648237
vn 0.365704 0.667869 -0.648237
vn 0.365704 0.667869 -0.648237
vn -0.236063 0.882449 -0.406888
vn -0.236063 0.882449 -0.406888
vn -0.236063 0.882449 -0.406888
vn -0.236063 0.882449 -0.406888
vn 0.060825 0.841360 -0.537042
vn 0.060825 0.841360 -0.537042
vn 0.060825 0.841360 -0.537042
vn 0.060825 0.841360 -0.537042
vn 0.000000 1.000000 0.000000
vn 0.000000 1.000000 0.000000
vn 0.000000 1.000000 0.000000
vn 0.000000 1.000000 0.000000
vn -0.131633 0.309981 0.941586
vn -0.131633 0.309981 0.941586
vn -0.131633 0.309981 0.941586
vn -0.131633 0.309981 0.941586
vn 0.065198 0.960218 -0.271533
vn 0.065198 0.960218 -0.271533
vn 0.065198 0.960218 -0.271533
vn 0.065198 0.960218 -0.271533
vn 0.003148 0.987535 -0.157369
vn 0.003148 0.987535 -0.157369
vn 0.003148 0.987535 -0.157369
vn 0.003148 0.987535 -0.157369
vn 0.003900 0.846870 -0.531786
vn 0.003900 0.846870 -0.531786
vn 0.003900 0.846870 -0.531786
vn 0.003900 0.846870 -0.531786
vn 0.008523 0.543122 -0.839610
vn 0.008523 0.543122 -0.839610
vn 0.008523 0.543122 -0.839610
vn -0.000001 1.000000 -0.000000
vn -0.000001 1.000000 -0.000000
vn -0.000001 1.000000 -0.000000
vn -0.000001 1.000000 -0.000000
vn -0.174051 0.272343 0.946327
vn -0.174051 0.272343 0.946327
vn -0.174051 0.272343 0.946327
vn -0.174051 0.272343 0.946327
vn 0.069470 0.907495 -0.414279
vn 0.069470 0.907495 -0.414279
vn 0.069470 0.907495 -0.414279
vn 0.069470 0.907495 -0.414279
vn 0.012045 0.987234 -0.158824
vn 0.012045 0.987234 -0.158824
vn 0.012045 0.987234 -0.158824
vn 0.012045 0.987234 -0.158824
vn 0.000127 0.829161 -0.559010
vn 0.000127 0.829161 -0.559010
vn 0.000127 0.829161 -0.559010
vn 0.000127 0.829161 -0.559010
vn 0.003710 0.791579 0.611055
vn 0.003710 0.791579 0.611055
vn 0.003710 0.791579 0.611055
vn 0.003710 0.791579 0.611055
vn -0.075288 0.644307 -0.761052
vn -0.075288 0.644307 -0.761052
vn -0.075288 0.644307 -0.761052
vn -0.075288 0.644307 -0.761052
vn 0.000000 1.000000 0.000000
vn 0.000000 1.000000 0.000000
vn 0.000000 1.000000 0.000000
vn 0.000000 1.000000 0.000000
vn 0.105224 0.310966 0.944578
vn 0.105224 0.310966 0.944578
vn 0.105224 0.310966 0.944578
vn 0.105224 0.310966 0.944578
vn -0.059707 0.954767 -0.291300
vn -0.059707 0.954767 -0.291300
vn -0.059707 0.954767 -0.291300
vn -0.059707 0.954767 -0.291300
vn -0.003533 0.988055 -0.154061
vn -0.003533 0.988055 -0.154061
vn -0.003533 0.988055 -0.154061
vn -0.003533 0.988055 -0.154061
vn -0.003919 0.851656 -0.524086
vn -0.003919 0.851656 -0.524086
vn -0.003919 0.851656 -0.524086
vn -0.003919 0.851656 -0.524086
vn -0.000880 0.846726 -0.532028
vn -0.000880 0.846726 -0.532028
vn -0.000880 0.846726 -0.532028
vn -0.616458 0.781806 0.093593
vn -0.616458 0.781806 0.093593
vn -0.616458 0.781806 0.093593
vn -0.616458 0.781806 0.093593
vn -0.106090 0.418425 0.902034
vn -0.106090 0.418425 0.902034
vn -0.106090 0.418426 0.902034
vn -0.106090 0.418425 0.902034
vn 0.004387 0.986371 -0.164478
vn 0.004387 0.986371 -0.164478
vn 0.004387 0.986371 -0.164478
vn 0.004387 0.986371 -0.164478
vn 0.003063 0.988210 -0.153077
vn 0.003063 0.988210 -0.153077
vn 0.003063 0.988210 -0.153077
vn 0.003063 0.988210 -0.153077
vn 0.003655 0.866031 -0.499976
vn 0.003655 0.866031 -0.499976
vn 0.003655 0.866031 -0.499976
vn 0.003655 0.866031 -0.499976
vn -0.491034 0.862473 -0.122583
vn -0.491034 0.862473 -0.122583
vn -0.491034 0.862473 -0.122583
vn -0.491034 0.862473 -0.122583
vn 0.553838 0.829762 -0.068985
vn 0.553838 0.829762 -0.068985
vn 0.553838 0.829762 -0.068985
vn 0.553838 0.829762 -0.068985
vn 0.086633 0.419198 0.903752
vn 0.086633 0.419198 0.903752
vn 0.086633 0.419198 0.903752
vn 0.086633 0.419198 0.903752
vn -0.004937 0.985757 -0.168104
vn -0.004937 0.985757 -0.168103
vn -0.004937 0.985757 -0.168104
vn -0.004937 0.985757 -0.168103
vn -0.003355 0.989239 -0.146268
vn -0.003355 0.989239 -0.146268
vn -0.003355 0.989239 -0.146268
vn -0.003355 0.989239 -0.146268
vn -0.003624 0.874780 -0.484507
vn -0.003624 0.874780 -0.484507
vn -0.003624 0.874780 -0.484507
vn -0.003624 0.874780 -0.484507
vn 0.047361 0.833944 -0.549813
vn 0.005256 0.936044 -0.351843
vn 0.005256 0.936044 -0.351843
vn -0.001294 0.999981 0.005992
vn -0.001294 0.999981 0.005992
vn -0.001294 0.999981 0.005992
vn -0.001294 0.999981 0.005992
vn 0.058546 0.846061 0.529862
vn 0.058546 0.846061 0.529862
vn 0.058546 0.846061 0.529862
vn 0.058546 0.846061 0.529862
vn -0.036572 0.993348 -0.109188
vn -0.036572 0.993348 -0.109188
vn -0.036572 0.993348 -0.109188
vn -0.036572 0.993348 -0.109188
vn -0.028491 0.923105 -0.383492
vn -0.028491 0.923105 -0.383492
vn -0.028491 0.923105 -0.383492
vn -0.028491 0.923105 -0.383492
vn 0.003330 0.890905 -0.454177
vn 0.003330 0.890905 -0.454177
vn 0.003330 0.890905 -0.454177
vn 0.003330 0.890905 -0.454177
vn -0.349355 0.668053 -0.657005
vn -0.349355 0.668053 -0.657005
vn -0.349355 0.668053 -0.657005
vn 0.281745 0.959156 -0.025278
vn 0.281745 0.959156 -0.025278
vn 0.281745 0.959156 -0.025278
vn 0.281745 0.959156 -0.025278
vn 0.564811 0.816578 -0.119118
vn 0.564811 0.816578 -0.119118
vn 0.564811 0.816578 -0.119118
vn 0.486714 0.859359 0.156883
vn 0.486714 0.859359 0.156883
vn 0.486714 0.859359 0.156883
vn -0.000372 0.970206 0.242282
vn -0.000372 0.970206 0.242282
vn -0.000372 0.970206 0.242282
vn -0.000372 0.970206 0.242282
vn -0.002267 0.968238 0.250018
vn -0.002267 0.968238 0.250018
vn -0.002267 0.968238 0.250018
vn -0.002267 0.968238 0.250018
vn -0.527142 0.846101 0.078958
vn -0.527141 0.846101 0.078958
vn -0.527142 0.846101 0.078958
vn -0.598825 0.762254 -0.245719
vn -0.598825 0.762254 -0.245719
vn -0.598825 0.762254 -0.245719
vn -0.001097 0.999998 0.001639
vn -0.001097 0.999998 0.001639
vn -0.001097 0.999998 0.001639
vn 0.000000 1.000000 0.000000
vn 0.000000 1.000000 0.000000
vn 0.037313 0.999286 0.005851
vn 0.000000 1.000000 0.000000
vn 0.000000 1.000000 0.000000
vn 0.447465 0.894161 -0.015881
vn 0.447465 0.894161 -0.015881
vn 0.447465 0.894161 -0.015881
vn -0.003010 0.999984 0.004853
vn -0.002753 0.999986 -0.004539
vn -0.590853 0.806774 0.002940
vn -0.590853 0.806774 0.002940
vn -0.590853 0.806774 0.002940
vn -0.061172 0.997969 0.017770
vn -0.061172 0.997969 0.017770
vn 0.006314 0.999971 -0.004170
vn 0.055848 0.998437 0.002197
vn 0.055848 0.998437 0.002197
vn 0.055848 0.998437 0.002197
vn -0.006527 0.999936 -0.009275
vn -0.006527 0.999936 -0.009275
vn -0.001085 0.999939 0.010985
vn -0.001085 0.999939 0.010985
vn -0.001085 0.999939 0.010985
vn -0.000000 0.999950 0.009993
vn -0.000000 0.999950 0.009993
vn -0.000000 0.999950 0.009993
vn 0.000000 0.909480 0.415747
vn 0.000000 0.999999 0.001493
vn 0.000000 0.999982 0.005953
vn 0.000000 0.909480 0.415747
vn 0.000000 1.000000 0.000000
vn -0.000000 0.999900 0.014168
vn -0.000000 0.999900 0.014168
vn 0.000000 1.000000 0.000000
vn 0.000000 1.000000 0.000000
vn 0.000000 1.000000 0.000000
vn 0.000000 1.000000 0.000000
vn 0.000384 0.787624 -0.616157
vn 0.000384 0.787624 -0.616157
vn 0.000384 0.787624 -0.616156
vn 0.000384 0.787624 -0.616156
vn 0.007191 0.927619 0.373460
vn 0.007191 0.927619 0.373460
vn 0.007191 0.927619 0.373459
vn 0.007191 0.927619 0.373459
vn 0.000000 1.000000 0.000000
vn 0.000000 1.000000 0.000000
vn 0.000000 1.000000 0.000000
vn -0.002753 0.999986 -0.004539
vn 0.005256 0.936044 -0.351843
vn 0.005256 0.936044 -0.351843
vn 0.005256 0.936044 -0.351843
vn 0.016801 0.855396 -0.517702
vn -0.032815 0.865766 -0.499372
vn -0.013711 0.878944 -0.476727
vn -0.013711 0.878944 -0.476727
vn -0.013711 0.878944 -0.476727
vn -0.002753 0.999986 -0.004539
vn 0.000000 1.000000 0.000000
vn 0.000000 1.000000 0.000000
vn 0.000000 1.000000 0.000000
vn 0.217882 0.926687 -0.306235
vn 0.217882 0.926686 -0.306235
vn 0.217882 0.926687 -0.306235
vn 0.217882 0.926686 -0.306235
vn -0.000652 0.907502 0.420048
vn -0.000652 0.907502 0.420048
vn -0.000652 0.907502 0.420048
vn -0.000652 0.907502 0.420048
vn 0.033611 0.712106 -0.701267
vn 0.033611 0.712106 -0.701267
vn 0.033611 0.712106 -0.701267
vn 0.033611 0.712106 -0.701267
vn 0.000000 1.000000 0.000000
vn 0.000000 1.000000 0.000000
vn 0.000000 1.000000 0.000000
vn 0.000000 1.000000 0.000000
vn -0.030506 0.878090 0.477523
vn -0.030506 0.878090 0.477523
vn -0.030506 0.878090 0.477523
vn -0.030506 0.878090 0.477523
vn 0.000000 1.000000 0.000000
vn 0.000000 1.000000 0.000000
vn 0.000000 1.000000 0.000000
vn 0.000000 1.000000 0.000000
vn 0.000000 1.000000 0.000000
vn 0.000000 1.000000 0.000000
vn 0.000000 1.000000 0.000000
vn 0.000000 1.000000 0.000000
vn 0.000000 1.000000 0.000000
vn 0.000000 1.000000 0.000000
vn 0.000000 1.000000 0.000000
vn 0.000000 1.000000 -0.000000
vn 0.000000 1.000000 -0.000000
vn 0.000000 0.999982 0.005953
vn 0.000000 1.000000 0.000000
vn 0.000000 1.000000 0.000000
vn 0.000000 1.000000 0.000000
vn 0.000000 1.000000 0.000000
vn 0.000000 1.000000 0.000000
vn 0.000000 0.999999 0.001493
vn 0.000000 1.000000 0.000000
vn 0.000000 1.000000 0.000000
vn 0.000000 0.999982 0.005953
vn 0.000000 1.000000 0.000000
vn 0.000000 1.000000 0.000000
vn 0.000000 1.000000 0.000000
vn 0.000000 1.000000 -0.000000
vn 0.000000 1.000000 -0.000000
vn 0.000000 1.000000 -0.000000
vn 0.000000 1.000000 -0.000000
vn -0.004036 0.909693 0.415263
vn -0.004036 0.909693 0.415263
vn -0.004036 0.909693 0.415263
vn -0.004036 0.909693 0.415263
vn 0.000000 0.999961 0.008891
vn 0.000000 0.999960 0.008891
vn 0.006852 0.999933 -0.009354
vn -0.000000 0.999900 0.014168
vn -0.000000 0.999900 0.014168
vn -0.000000 0.999900 0.014168
vn 0.000000 0.999900 0.014168
vn 0.000000 0.999900 0.014168
vn 0.000000 0.999900 0.014168
vn 0.000000 1.000000 0.000000
vn 0.002829 0.999996 -0.000000
vn 0.002829 0.999996 -0.000000
vn 0.000000 0.999900 0.014168
vn 0.000000 0.999900 0.014168
vn 0.000000 0.999900 0.014168
vn -0.004618 0.999688 0.024547
vn -0.004618 0.999688 0.024547
vn -0.004618 0.999688 0.024547
vn 0.006852 0.999933 -0.009354
vn -0.024762 0.999693 0.000000
vn -0.024762 0.999693 0.000000
s off
f 17/1/1 18/12/2 55/124/3 56/126/4
f 51/117/5 52/120/6 21/81/7 22/78/8
f 50/115/9 66/142/10 91/179/11
f 52/119/12 53/122/13 20/83/14 21/80/15
f 53/121/16 54/123/17 19/27/18 20/82/19
f 54/123/20 55/125/21 18/84/22 19/27/23
f 1/39/24 13/48/25 28/49/26 29/52/27
f 27/68/28 28/64/29 13/66/30 16/20/31
f 26/70/32 27/67/33 16/76/34 9/2/35
f 25/72/36 26/69/37 9/11/38 5/6/39
f 24/74/40 25/71/41 5/14/42 7/7/43
f 11/9/44 24/73/45 7/15/46
f 74/116/47 96/197/48 97/199/49 89/146/50
f 43/103/51 44/106/52 24/32/53 11/29/54
f 44/105/55 45/108/56 25/34/57 24/31/58
f 45/107/59 46/110/60 26/36/61 25/33/62
f 46/109/63 47/111/64 27/37/65 26/35/66
f 47/111/67 48/113/68 28/38/69 27/37/70
f 29/52/71 28/49/72 48/112/73 49/114/74
f 8/8/75 30/42/76 12/10/77
f 6/5/78 31/44/79 30/41/80 8/16/81
f 10/3/82 32/46/83 31/43/84 6/13/85
f 15/19/86 33/53/87 32/45/88 10/4/89
f 14/18/90 34/50/91 33/47/92 15/90/93
f 35/26/94 34/17/95 14/63/96 3/65/97
f 94/28/98 95/30/99 81/92/100 82/149/101
f 12/62/102 30/59/103 37/94/104 36/91/105
f 30/60/106 31/57/107 38/96/108 37/93/109
f 31/58/110 32/55/111 39/98/112 38/95/113
f 32/56/114 33/54/115 40/99/116 39/97/117
f 33/54/118 34/51/119 41/101/120 40/99/121
f 42/102/122 41/100/123 34/17/124 35/26/125
f 43/103/126 68/144/127 44/106/128
f 58/129/129 59/132/130 45/108/131 44/105/132
f 59/131/133 60/134/134 46/110/135 45/107/136
f 60/133/137 61/135/138 47/111/139 46/109/140
f 61/135/141 62/137/142 48/113/143 47/111/144
f 49/114/145 48/112/146 62/136/147 63/138/148
f 36/91/149 65/141/150 66/142/151 50/115/152
f 37/93/153 38/96/154 52/120/155 51/117/156
f 38/95/157 39/98/158 53/122/159 52/119/160
f 39/97/161 40/99/162 54/123/163 53/121/164
f 40/99/165 41/101/166 55/125/167 54/123/168
f 56/126/169 55/124/170 41/100/171 42/102/172
f 90/178/173 67/143/174 57/127/175
f 22/24/176 21/88/177 59/132/178 58/129/179
f 21/23/180 20/89/181 60/134/182 59/131/183
f 20/22/184 19/85/185 61/135/186 60/133/187
f 19/85/188 18/21/189 62/137/190 61/135/191
f 63/138/192 62/136/193 18/12/194 17/1/195
f 36/91/196 37/94/197 65/141/198
f 57/127/199 67/143/200 68/144/201 43/103/202
f 65/141/203 37/94/204 51/118/205
f 66/142/206 65/141/207 51/118/208
f 64/139/209 66/142/210 51/118/211 22/79/212
f 67/143/213 64/140/214 22/87/215 58/130/216
f 68/144/217 67/143/218 58/130/219
f 44/106/220 68/144/221 58/130/222
f 72/151/223 92/190/224 71/150/225 12/104/226 36/147/227
f 72/151/228 36/147/229 50/148/230
f 91/164/231 85/165/232 72/166/233 50/167/234
f 57/168/235 74/116/236 89/146/237 90/169/238
f 74/154/239 57/40/240 43/61/241
f 75/156/242 96/198/243 74/154/244 43/61/245 11/75/246
f 78/152/247 99/155/248 69/157/249
f 76/159/250 78/152/251 69/157/252
f 80/160/253 83/161/254 79/162/255 70/158/256
f 4/163/257 95/30/258 103/219/259
f 93/191/260 94/194/261 82/171/262 84/172/263
f 92/189/264 93/192/265 84/185/266 71/186/267
f 86/170/268 98/181/269 99/155/270 78/152/271
f 90/177/272 89/176/273 73/153/274 23/86/275
f 23/25/276 64/140/277 67/143/278 90/178/279
f 91/179/280 66/142/281 64/139/282 23/77/283
f 23/86/284 73/153/285 85/173/286 91/180/287
f 85/165/288 93/192/289 92/189/290 72/166/291
f 80/160/292 95/30/293 94/28/294 83/161/295
f 97/199/296 96/197/297 75/128/298 88/145/299
f 98/201/300 97/200/301 88/175/302 87/174/303
f 99/155/304 98/181/305 87/182/306 77/183/307
f 85/215/308 101/211/309 93/214/310
f 89/217/311 102/202/312 100/213/313 73/212/314
f 93/205/315 101/207/316 83/208/317 94/210/318
f 102/203/319 86/196/320 79/209/321 100/206/322
f 73/212/323 100/213/324 101/211/325 85/215/326
f 83/204/327 101/218/328 100/206/329 79/209/330
f 97/216/331 102/202/332 89/217/333
f 98/195/334 86/193/335 102/188/336 97/187/337
f 86/170/338 78/152/339 70/158/340 79/162/341
f 69/157/342 99/155/343 2/184/344
f 103/219/345 80/160/346 76/159/347
f 103/219/348 95/30/349 80/160/350
f 4/163/351 81/92/352 95/30/353
f 76/159/354 80/160/355 70/158/356
f 70/158/357 78/152/358 76/159/359
f 2/184/360 99/155/361 77/183/362
