# This file uses meters as units for non-parametric coordinates.

v 3.619415 0.000000 -4.257233
v -3.619293 0.000000 -4.257233
v -4.915833 0.000000 0.000000
v -3.619293 0.000000 4.257233
v 3.619354 0.000000 4.257233
v 4.915863 0.000000 0.000000
v 1.034393 39.687885 -1.791565
v -1.034332 39.687885 -1.791565
v -2.068726 39.687885 0.000000
v -1.034332 39.687885 1.791534
v 1.034393 39.687885 1.791534
v 2.068726 39.687885 0.000000
v 0.000031 0.000000 0.000000
v 0.000031 39.687885 0.000000
v -1.558136 24.674629 2.698792
v 1.558228 24.674629 2.698792
v 3.116364 24.674629 0.000000
v 1.558228 24.674629 -2.698822
v -1.558105 24.674629 -2.698822
v -3.116272 24.674629 0.000000
v -4.961151 20.440136 5.835510
v 4.961212 20.440136 5.835510
v 6.738312 20.440136 0.000000
v 4.961212 20.440136 -5.835541
v -4.961151 20.440136 -5.835541
v -6.738251 20.440136 0.000000
v -4.961151 1.750058 5.835510
v 4.961212 1.750058 5.835510
v 6.738312 1.750058 0.000000
v 4.961212 1.750058 -5.835541
v -4.961151 1.750058 -5.835541
v -6.738251 1.750058 0.000000
v -1.130829 37.707760 -1.958710
v 1.130890 37.707760 -1.958710
v 2.261749 37.707760 0.000000
v 1.130890 37.707760 1.958679
v -1.130859 37.707760 1.958679
v -2.261688 37.707760 0.000000
v 1.352844 37.844604 -2.343140
v 2.705627 37.844604 0.000000
v 1.352844 37.844604 2.343109
v -1.352753 37.844604 2.343109
v -2.705566 37.844604 0.000000
v -1.352753 37.844604 -2.343140
v -1.298523 38.943798 -2.249146
v 1.298584 38.943798 -2.249146
v 2.597168 38.943798 0.000000
v 1.298584 38.943798 2.249146
v -1.298523 38.943798 2.249146
v -2.597107 38.943798 0.000000
v 4.961212 17.785995 -5.835541
v 6.738312 17.785995 0.000000
v 4.961212 17.785995 5.835510
v -4.961151 17.785995 5.835510
v -6.738251 17.785995 0.000000
v -4.961151 17.785995 -5.835541
v -6.738251 4.832197 0.000000
v -4.961151 4.832197 5.835510
v 4.961212 4.832197 5.835510
v 6.738312 4.832197 0.000000
v 4.961212 4.832197 -5.835541
v -4.961151 4.832197 -5.835541
v -5.849701 17.785995 2.917755
v -5.849701 4.832197 2.917755
v -5.849701 4.832197 -2.917786
v -5.849701 17.785995 -2.917786
v 5.849762 17.785995 2.917755
v 5.849762 4.832197 2.917755
v 5.849762 4.832197 -2.917786
v 5.849762 17.785995 -2.917786
v -3.358734 12.129535 5.835510
v 3.358765 12.129535 5.835510
v 3.358765 14.166105 5.835510
v -3.358734 14.166105 5.835510
vt 0.030434 0.254211
vt 0.030434 0.254211
vt 0.030434 0.254211
vt 0.030434 0.254211
vt 0.030434 0.254211
vt 0.030434 0.254211
vt 0.030434 0.254211
vt 0.030434 0.254211
vt 0.030434 0.254211
vt 0.030434 0.254211
vt 0.030434 0.254211
vt 0.030434 0.254211
vt 0.030434 0.254211
vt 0.081450 0.227989
vt 0.081450 0.227989
vt 0.081450 0.227989
vt 0.081450 0.227989
vt 0.081450 0.227989
vt 0.081450 0.227989
vt 0.081450 0.227989
vt 0.081450 0.227989
vt 0.081450 0.227989
vt 0.081450 0.227989
vt 0.081450 0.227989
vt 0.081450 0.227989
vt 0.081450 0.227989
vt 0.030434 0.254211
vt 0.081450 0.227989
vt 0.030434 0.254211
vt 0.030434 0.254211
vt 0.030434 0.254211
vt 0.030434 0.254211
vt 0.030434 0.254211
vt 0.030434 0.254211
vt 0.030434 0.254211
vt 0.030434 0.254211
vt 0.030434 0.254211
vt 0.030434 0.254211
vt 0.030434 0.254211
vt 0.030434 0.254211
vt 0.030434 0.254211
vt 0.030434 0.254211
vt 0.030434 0.254211
vt 0.030434 0.254211
vt 0.030434 0.254211
vt 0.030434 0.254211
vt 0.030434 0.254211
vt 0.030434 0.254211
vt 0.030434 0.254211
vt 0.030434 0.254211
vt 0.030434 0.254211
vt 0.030434 0.254211
vt 0.030434 0.254211
vt 0.030434 0.254211
vt 0.030434 0.254211
vt 0.030434 0.254211
vt 0.081450 0.227989
vt 0.081450 0.227989
vt 0.081450 0.227989
vt 0.081450 0.227989
vt 0.081450 0.227989
vt 0.081450 0.227989
vt 0.081450 0.227989
vt 0.081450 0.227989
vt 0.081450 0.227989
vt 0.081450 0.227989
vt 0.081450 0.227989
vt 0.030434 0.254211
vt 0.030434 0.254211
vt 0.030434 0.254211
vt 0.030434 0.254211
vt 0.030434 0.254211
vt 0.030434 0.254211
vt 0.030434 0.254211
vt 0.030434 0.254211
vt 0.030434 0.254211
vt 0.030434 0.254211
vt 0.030434 0.254211
vt 0.030434 0.254211
vt 0.030434 0.254211
vt 0.030434 0.254211
vt 0.030434 0.254211
vt 0.030434 0.254211
vt 0.030434 0.254211
vt 0.030434 0.254211
vt 0.030434 0.254211
vt 0.030434 0.254211
vt 0.030434 0.254211
vt 0.030434 0.254211
vt 0.208008 0.228781
vt 0.208008 0.228781
vt 0.208008 0.228782
vt 0.208008 0.228782
vt 0.208008 0.228781
vt 0.208008 0.228781
vt 0.208008 0.228782
vt 0.208008 0.228782
vt 0.208008 0.228781
vt 0.208008 0.228782
vt 0.208008 0.228782
vt 0.208008 0.228781
vt 0.208008 0.228781
vt 0.208008 0.228782
vt 0.208008 0.228782
vt 0.208008 0.228781
vt 0.208008 0.228781
vt 0.208008 0.228781
vt 0.208008 0.228782
vt 0.208008 0.228782
vt 0.451111 0.009420
vt 0.451111 0.009420
vt 0.451111 0.009421
vt 0.451111 0.009421
vn 0.000000 0.056696 -0.998392
vn 0.000000 0.056696 -0.998392
vn 0.000000 0.056696 -0.998392
vn 0.000000 0.056696 -0.998392
vn -0.864633 0.056694 -0.499196
vn -0.864633 0.056694 -0.499196
vn -0.864633 0.056694 -0.499196
vn -0.864633 0.056694 -0.499196
vn -0.864635 0.056694 0.499192
vn -0.864635 0.056694 0.499192
vn -0.864635 0.056694 0.499192
vn -0.864635 0.056694 0.499192
vn 0.000000 0.056696 0.998392
vn 0.000000 0.056696 0.998392
vn 0.000000 0.056696 0.998392
vn 0.000000 0.056696 0.998392
vn 0.864632 0.056697 0.499196
vn 0.864632 0.056697 0.499196
vn 0.864632 0.056697 0.499196
vn 0.864632 0.056697 0.499196
vn 0.864635 0.056697 -0.499191
vn 0.864635 0.056697 -0.499191
vn 0.864635 0.056697 -0.499191
vn 0.864635 0.056697 -0.499191
vn 0.000000 -1.000000 0.000000
vn 0.000000 -1.000000 0.000000
vn 0.000000 -1.000000 0.000000
vn 0.000000 -1.000000 0.000000
vn 0.000000 -1.000000 0.000000
vn 0.000000 -1.000000 0.000000
vn 0.000000 -1.000000 0.000000
vn 0.000000 -1.000000 0.000000
vn 0.000000 -1.000000 0.000000
vn 0.000000 -1.000000 0.000000
vn 0.000000 -1.000000 0.000000
vn 0.000000 -1.000000 0.000000
vn 0.000000 -1.000000 0.000000
vn 0.000000 -1.000000 0.000000
vn 0.000000 -1.000000 0.000000
vn 0.000000 -1.000000 0.000000
vn 0.000000 -1.000000 0.000000
vn 0.000000 -1.000000 0.000000
vn 0.000000 1.000000 0.000000
vn 0.000000 1.000000 0.000000
vn 0.000000 1.000000 0.000000
vn 0.000000 1.000000 0.000000
vn 0.000000 1.000000 0.000000
vn 0.000000 1.000000 0.000000
vn 0.000000 1.000000 0.000000
vn 0.000000 1.000000 0.000000
vn 0.000000 1.000000 0.000000
vn 0.000000 1.000000 0.000000
vn 0.000000 1.000000 0.000000
vn 0.000000 1.000000 0.000000
vn 0.000000 1.000000 0.000002
vn 0.000000 1.000000 0.000002
vn 0.000000 1.000000 0.000002
vn 0.000000 1.000000 -0.000004
vn 0.000000 1.000000 -0.000004
vn 0.000000 1.000000 -0.000004
vn 0.000000 0.595235 0.803552
vn 0.000000 0.595235 0.803552
vn 0.000000 0.595235 0.803552
vn 0.000000 0.595235 0.803552
vn 0.689760 0.671988 0.269561
vn 0.689760 0.671988 0.269561
vn 0.689760 0.671988 0.269561
vn 0.689760 0.671988 0.269561
vn 0.689761 0.671988 -0.269559
vn 0.689761 0.671988 -0.269559
vn 0.689761 0.671988 -0.269559
vn 0.689761 0.671988 -0.269559
vn 0.000000 0.595235 -0.803552
vn 0.000000 0.595235 -0.803552
vn 0.000000 0.595234 -0.803552
vn 0.000000 0.595234 -0.803552
vn -0.689757 0.671992 -0.269560
vn -0.689757 0.671992 -0.269560
vn -0.689757 0.671992 -0.269560
vn -0.689757 0.671992 -0.269560
vn -0.689758 0.671991 0.269560
vn -0.689758 0.671991 0.269560
vn -0.689758 0.671991 0.269560
vn -0.689758 0.671991 0.269560
vn 0.000000 0.000000 1.000000
vn 0.000000 0.000000 1.000000
vn 0.000000 0.000000 1.000000
vn 0.000000 0.000000 1.000000
vn 0.956625 0.000000 0.291323
vn 0.956625 0.000000 0.291323
vn 0.956625 0.000000 0.291323
vn 0.956625 0.000000 0.291323
vn 0.956626 0.000000 -0.291320
vn 0.956626 0.000000 -0.291320
vn 0.956626 0.000000 -0.291320
vn 0.956626 0.000000 -0.291320
vn 0.000000 0.000000 -1.000000
vn 0.000000 0.000000 -1.000000
vn 0.000000 0.000000 -1.000000
vn 0.000000 0.000000 -1.000000
vn -0.956625 0.000000 -0.291323
vn -0.956625 0.000000 -0.291323
vn -0.956625 0.000000 -0.291323
vn -0.956625 0.000000 -0.291323
vn -0.956625 0.000000 0.291323
vn -0.956625 0.000000 0.291323
vn -0.956625 0.000000 0.291323
vn -0.956625 0.000000 0.291323
vn 0.000000 -0.669721 0.742613
vn 0.000000 -0.669721 0.742613
vn 0.000000 -0.669721 0.742613
vn 0.000000 -0.669721 0.742613
vn 0.677719 -0.705762 0.206390
vn 0.677719 -0.705762 0.206390
vn 0.677719 -0.705762 0.206390
vn 0.677719 -0.705762 0.206390
vn 0.677725 -0.705757 -0.206387
vn 0.677725 -0.705757 -0.206387
vn 0.677725 -0.705757 -0.206387
vn 0.677725 -0.705757 -0.206387
vn 0.000000 -0.669728 -0.742607
vn 0.000000 -0.669728 -0.742607
vn 0.000000 -0.669728 -0.742607
vn 0.000000 -0.669728 -0.742607
vn -0.677720 -0.705761 -0.206392
vn -0.677720 -0.705761 -0.206392
vn -0.677720 -0.705761 -0.206392
vn -0.677720 -0.705761 -0.206392
vn -0.677721 -0.705760 0.206393
vn -0.677721 -0.705760 0.206393
vn -0.677721 -0.705760 0.206393
vn -0.677721 -0.705760 0.206393
vn 0.000000 -0.942094 -0.335348
vn 0.000000 -0.942094 -0.335348
vn 0.000000 -0.942094 -0.335348
vn 0.000000 -0.942094 -0.335348
vn 0.290432 -0.942090 -0.167679
vn 0.290432 -0.942090 -0.167679
vn 0.290432 -0.942090 -0.167679
vn 0.290432 -0.942090 -0.167679
vn 0.290431 -0.942090 0.167679
vn 0.290431 -0.942090 0.167679
vn 0.290431 -0.942090 0.167679
vn 0.290431 -0.942090 0.167679
vn 0.000000 -0.942094 0.335348
vn 0.000000 -0.942094 0.335348
vn 0.000000 -0.942094 0.335348
vn 0.000000 -0.942094 0.335348
vn -0.290449 -0.942082 0.167691
vn -0.290449 -0.942082 0.167691
vn -0.290449 -0.942082 0.167691
vn -0.290449 -0.942082 0.167691
vn -0.290440 -0.942086 -0.167685
vn -0.290440 -0.942086 -0.167685
vn -0.290440 -0.942086 -0.167685
vn -0.290440 -0.942086 -0.167685
vn 0.862878 0.085169 -0.498185
vn 0.862878 0.085169 -0.498185
vn 0.862878 0.085169 -0.498185
vn 0.862878 0.085169 -0.498185
vn 0.862877 0.085162 0.498188
vn 0.862877 0.085162 0.498188
vn 0.862877 0.085162 0.498188
vn 0.862877 0.085162 0.498188
vn 0.000000 0.085173 0.996366
vn 0.000000 0.085173 0.996366
vn 0.000000 0.085173 0.996366
vn 0.000000 0.085173 0.996366
vn -0.862876 0.085150 0.498192
vn -0.862876 0.085150 0.498192
vn -0.862875 0.085150 0.498192
vn -0.862876 0.085150 0.498192
vn -0.862876 0.085157 -0.498189
vn -0.862876 0.085157 -0.498189
vn -0.862876 0.085157 -0.498189
vn -0.862876 0.085157 -0.498189
vn 0.000000 0.085201 -0.996364
vn 0.000000 0.085201 -0.996364
vn 0.000000 0.085201 -0.996364
vn 0.000000 0.085201 -0.996364
vn 0.000000 0.523832 -0.851821
vn 0.000000 0.523832 -0.851821
vn 0.000000 0.523832 -0.851821
vn 0.000000 0.523832 -0.851821
vn 0.737683 0.523861 -0.425903
vn 0.737683 0.523861 -0.425903
vn 0.737683 0.523861 -0.425903
vn 0.737683 0.523861 -0.425903
vn 0.737678 0.523867 0.425904
vn 0.737678 0.523867 0.425904
vn 0.737678 0.523867 0.425904
vn 0.737678 0.523867 0.425904
vn 0.000000 0.523858 0.851806
vn 0.000000 0.523858 0.851806
vn 0.000000 0.523858 0.851806
vn 0.000000 0.523858 0.851806
vn -0.737685 0.523846 0.425919
vn -0.737685 0.523846 0.425919
vn -0.737685 0.523846 0.425919
vn -0.737685 0.523846 0.425919
vn -0.737689 0.523839 -0.425918
vn -0.737689 0.523839 -0.425919
vn -0.737689 0.523839 -0.425919
vn -0.737689 0.523839 -0.425919
vn 0.956626 0.000000 -0.291320
vn 0.956626 0.000000 -0.291320
vn 0.956626 0.000000 -0.291320
vn 0.956625 0.000000 0.291323
vn 0.956625 0.000000 0.291323
vn 0.956625 0.000000 0.291323
vn 0.000000 0.000000 1.000000
vn 0.000000 0.000000 1.000000
vn 0.000000 0.000000 1.000000
vn 0.000000 0.000000 1.000000
vn -0.956625 0.000000 0.291323
vn -0.956625 0.000000 0.291323
vn -0.956625 0.000000 0.291323
vn -0.956625 0.000000 0.291323
vn -0.956625 0.000001 -0.291322
vn -0.956625 0.000001 -0.291322
vn -0.956625 0.000001 -0.291322
vn -0.956625 0.000001 -0.291322
vn 0.000000 0.000000 -1.000000
vn 0.000000 0.000000 -1.000000
vn 0.000000 0.000000 -1.000000
vn 0.000000 0.000000 -1.000000
vn -0.956625 0.000000 0.291323
vn -0.956625 0.000000 0.291323
vn -0.956625 0.000000 0.291323
vn -0.956625 0.000000 0.291323
vn 0.000000 0.000000 1.000000
vn 0.000000 0.000000 1.000000
vn 0.000000 0.000000 1.000000
vn 0.000000 0.000000 1.000000
vn 0.956625 0.000000 0.291323
vn 0.956625 0.000000 0.291323
vn 0.956625 0.000000 0.291323
vn 0.956626 0.000000 -0.291320
vn 0.956626 0.000000 -0.291320
vn 0.956626 0.000000 -0.291320
vn 0.000000 0.000000 -1.000000
vn 0.000000 0.000000 -1.000000
vn 0.000000 0.000000 -1.000000
vn 0.000000 0.000000 -1.000000
vn -0.956625 -0.000001 -0.291322
vn -0.956625 -0.000001 -0.291322
vn -0.956625 -0.000001 -0.291322
vn -0.956625 -0.000001 -0.291322
vn -0.956625 0.000000 0.291323
vn -0.956625 0.000000 0.291323
vn -0.956625 0.000000 0.291323
vn -0.956625 0.000000 0.291323
vn -0.956625 0.000000 0.291323
vn -0.956625 0.000000 0.291323
vn -0.956625 0.000000 0.291323
vn -0.956625 0.000000 0.291323
vn -0.956625 0.000000 0.291323
vn -0.956625 0.000000 0.291323
vn -0.956626 0.000000 -0.291320
vn -0.956626 0.000000 -0.291320
vn -0.956626 0.000000 -0.291320
vn -0.956626 0.000000 -0.291320
vn -0.956626 0.000000 -0.291320
vn -0.956626 0.000000 -0.291320
vn -0.956626 0.000000 -0.291320
vn -0.956626 0.000000 -0.291320
vn -0.956626 0.000000 -0.291320
vn -0.956626 0.000000 -0.291320
vn 0.956625 0.000000 0.291323
vn 0.956625 0.000000 0.291323
vn 0.956625 0.000000 0.291323
vn 0.956625 0.000000 0.291323
vn 0.956625 0.000000 0.291323
vn 0.956625 0.000000 0.291323
vn 0.956625 0.000000 0.291323
vn 0.956625 0.000000 0.291323
vn 0.956625 -0.000000 0.291323
vn 0.956625 -0.000000 0.291323
vn 0.956625 -0.000000 0.291323
vn 0.956625 -0.000000 0.291323
vn 0.956625 -0.000001 -0.291322
vn 0.956625 -0.000001 -0.291322
vn 0.956625 -0.000001 -0.291322
vn 0.956625 -0.000001 -0.291322
vn 0.956625 0.000000 -0.291323
vn 0.956625 0.000000 -0.291323
vn 0.956625 0.000000 -0.291323
vn 0.956625 0.000000 -0.291323
vn 0.956625 0.000001 -0.291322
vn 0.956625 0.000001 -0.291322
vn 0.956625 0.000001 -0.291322
vn 0.956625 0.000001 -0.291322
vn 0.000000 0.000000 1.000000
vn 0.000000 0.000000 1.000000
vn 0.000000 0.000000 1.000000
vn 0.000000 0.000000 1.000000
vn 0.000000 0.000000 1.000000
vn 0.000000 0.000000 1.000000
vn 0.000000 0.000000 1.000000
vn 0.000000 0.000000 1.000000
vn 0.000000 0.000000 1.000000
vn 0.000000 0.000000 1.000000
vn 0.000000 0.000000 1.000000
vn 0.000000 0.000000 1.000000
vn 0.000000 0.000000 1.000000
vn 0.000000 0.000000 1.000000
vn 0.000000 0.000000 1.000000
vn 0.000000 0.000000 1.000000
s off
f 18/33/1 19/34/2 33/50/3 34/52/4
f 19/34/5 20/35/6 38/56/7 33/50/8
f 20/35/9 15/29/10 37/55/11 38/56/12
f 15/29/13 16/30/14 36/54/15 37/55/16
f 16/30/17 17/31/18 35/53/19 36/54/20
f 17/31/21 18/32/22 34/51/23 35/53/24
f 2/2/25 1/1/26 13/27/27
f 3/3/28 2/2/29 13/27/30
f 4/4/31 3/3/32 13/27/33
f 5/5/34 4/4/35 13/27/36
f 6/6/37 5/5/38 13/27/39
f 1/1/40 6/6/41 13/27/42
f 7/14/43 8/15/44 14/16/45
f 8/15/46 9/17/47 14/16/48
f 9/17/49 10/18/50 14/16/51
f 10/18/52 11/19/53 14/16/54
f 11/19/55 12/20/56 14/16/57
f 12/20/58 7/14/59 14/16/60
f 21/36/61 22/37/62 16/30/63 15/29/64
f 22/37/65 23/38/66 17/31/67 16/30/68
f 23/38/69 24/39/70 18/32/71 17/31/72
f 24/40/73 25/41/74 19/34/75 18/33/76
f 25/41/77 26/42/78 20/35/79 19/34/80
f 26/42/81 21/36/82 15/29/83 20/35/84
f 71/110/85 72/111/86 73/112/87 74/113/88
f 67/86/89 68/87/90 60/78/91 52/70/92
f 60/78/93 69/88/94 70/89/95 52/70/96
f 61/94/97 62/95/98 56/96/99 51/97/100
f 62/95/101 65/98/102 66/99/103 56/96/104
f 63/100/105 64/101/106 58/90/107 54/93/108
f 4/10/109 5/11/110 28/44/111 27/43/112
f 5/11/113 6/12/114 29/45/115 28/44/116
f 6/12/117 1/13/118 30/46/119 29/45/120
f 1/7/121 2/8/122 31/48/123 30/47/124
f 2/8/125 3/9/126 32/49/127 31/48/128
f 3/9/129 4/10/130 27/43/131 32/49/132
f 34/21/133 33/22/134 44/23/135 39/24/136
f 35/25/137 34/21/138 39/24/139 40/26/140
f 36/28/141 35/25/142 40/26/143 41/57/144
f 37/58/145 36/28/146 41/57/147 42/59/148
f 38/60/149 37/58/150 42/59/151 43/61/152
f 33/22/153 38/60/154 43/61/155 44/23/156
f 40/26/157 39/24/158 46/62/159 47/63/160
f 41/57/161 40/26/162 47/63/163 48/64/164
f 42/59/165 41/57/166 48/64/167 49/65/168
f 43/61/169 42/59/170 49/65/171 50/66/172
f 44/23/173 43/61/174 50/66/175 45/67/176
f 39/24/177 44/23/178 45/67/179 46/62/180
f 46/62/181 45/67/182 8/15/183 7/14/184
f 47/63/185 46/62/186 7/14/187 12/20/188
f 48/64/189 47/63/190 12/20/191 11/19/192
f 49/65/193 48/64/194 11/19/195 10/18/196
f 50/66/197 49/65/198 10/18/199 9/17/200
f 45/67/201 50/66/202 9/17/203 8/15/204
f 52/70/205 70/89/206 23/38/207
f 23/38/208 67/86/209 52/70/210
f 54/72/211 53/71/212 22/37/213 21/36/214
f 26/42/215 63/82/216 54/72/217 21/36/218
f 56/74/219 66/85/220 26/42/221 25/41/222
f 51/69/223 56/74/224 25/41/225 24/40/226
f 32/49/227 27/43/228 58/76/229 64/83/230
f 27/43/231 28/44/232 59/77/233 58/76/234
f 68/87/235 29/45/236 60/78/237
f 29/45/238 69/88/239 60/78/240
f 30/47/241 31/48/242 62/81/243 61/80/244
f 31/48/245 32/49/246 65/84/247 62/81/248
f 55/73/249 63/82/250 26/42/251
f 57/75/252 64/83/253 63/82/254 55/73/255
f 32/49/256 64/83/257 57/75/258
f 65/84/259 32/49/260 57/75/261
f 66/85/262 65/84/263 57/75/264 55/73/265
f 26/42/266 66/85/267 55/73/268
f 53/71/269 67/86/270 23/38/271 22/37/272
f 59/91/273 68/102/274 67/103/275 53/92/276
f 28/44/277 29/45/278 68/87/279 59/77/280
f 29/45/281 30/46/282 61/79/283 69/88/284
f 70/104/285 69/105/286 61/94/287 51/97/288
f 23/38/289 70/89/290 51/68/291 24/39/292
f 58/90/293 59/91/294 72/107/295 71/106/296
f 59/91/297 53/92/298 73/108/299 72/107/300
f 53/92/301 54/93/302 74/109/303 73/108/304
f 54/93/305 58/90/306 71/106/307 74/109/308
