# This file uses meters as units for non-parametric coordinates.

v -2.672821 0.000000 -1.674316
v -2.672821 0.000000 1.674805
v -2.105743 39.936836 -1.355713
v -2.105743 39.936836 1.356445
v 0.606384 39.936836 -1.355713
v 0.606384 39.936836 1.356445
v 1.173462 0.000000 -1.674316
v 1.173462 0.000000 1.674805
v -3.456299 22.694145 -2.356689
v -3.456299 22.694145 2.357422
v 1.956940 22.694145 2.357422
v 1.956940 22.694145 -2.356689
v 0.935791 25.075523 1.685791
v -2.435150 25.075523 1.685791
v -2.435150 25.075523 -1.685059
v 0.935791 25.075523 -1.685059
v -3.456299 1.566154 -2.356689
v -3.456299 1.566154 2.357422
v 1.956940 1.566154 2.357422
v 1.956940 1.566154 -2.356689
v -2.855072 40.444885 -2.105225
v -2.855072 40.444885 2.105713
v 1.355682 40.444885 2.105713
v 1.355682 40.444885 -2.105225
v -2.855072 46.201576 -2.105225
v -2.855072 46.201576 2.105713
v 1.355682 46.201576 2.105713
v 1.355682 46.201576 -2.105225
v -4.782501 41.915909 -1.029297
v -4.782501 41.915909 1.029785
v -4.782501 44.730553 1.029785
v -4.782501 44.730553 -1.029297
v -6.218567 41.812180 -1.105257
v -6.218566 41.812180 1.105257
v -6.218566 44.834282 1.105257
v -6.218567 44.834282 -1.105257
v -6.368780 41.208698 -1.529913
v -6.368780 41.208698 1.529913
v -6.368780 45.437756 1.529913
v -6.368780 45.437756 -1.529913
v -10.076721 41.515724 -1.307775
v -10.076721 41.515724 1.307775
v -10.076721 45.130730 1.307775
v -10.076721 45.130730 -1.307775
v 3.890442 41.940262 -1.964600
v 3.890442 41.940262 1.965576
v 4.391174 45.532440 -1.964600
v 4.391174 45.532440 1.965576
v 6.766968 42.489487 -1.964600
v 6.766968 42.489487 1.965576
v 7.359924 43.786819 -1.964600
v 7.359924 43.786819 1.965576
v 9.520782 41.134285 -1.964600
v 9.520782 41.134285 1.965576
v 10.076691 42.097687 -1.964600
v 10.076691 42.097687 1.965576
v 10.076691 42.097687 -0.785645
v 10.076691 42.097687 0.786377
v 7.359924 43.786819 -0.392822
v 7.359924 43.786819 0.393311
v 9.520782 41.134285 -0.785645
v 9.520782 41.134285 0.786377
v 6.766968 42.489487 -0.392822
v 6.766968 42.489487 0.393311
v -2.105743 28.555191 -1.355713
v -2.105743 28.555191 1.356689
v 0.606384 28.555176 1.356445
v 0.606384 28.555176 -1.355713
v -2.435150 28.239746 -1.685059
v -2.435150 28.239746 1.686035
v 0.935791 28.239731 1.685791
v 0.935791 28.239731 -1.685059
v -9.515294 45.437756 1.529913
v -9.515294 45.437756 -1.529913
v -9.515294 41.208698 -1.529913
v -9.515294 41.208698 1.529913
v -9.515294 42.052841 2.205072
v -9.515294 44.593613 2.205072
v -10.076721 44.409157 1.884903
v -10.076721 42.237297 1.884903
v -6.530517 42.052841 2.205072
v -6.530517 44.593613 2.205072
v -9.515295 44.593613 -2.205072
v -9.515295 42.052841 -2.205072
v -10.076721 42.237297 -1.884903
v -10.076721 44.409157 -1.884903
v -6.530518 42.052841 -2.205072
v -6.530518 44.593613 -2.205072
vt 0.102295 0.228745
vt 0.102295 0.228745
vt 0.132744 0.381162
vt 0.132744 0.381162
vt 0.132744 0.381162
vt 0.132744 0.381162
vt 0.101563 0.227280
vt 0.101563 0.227280
vt 0.101563 0.227295
vt 0.101563 0.227295
vt 0.102295 0.228745
vt 0.132744 0.381162
vt 0.102295 0.228745
vt 0.132744 0.381162
vt 0.102295 0.228745
vt 0.102295 0.228745
vt 0.102295 0.228745
vt 0.102295 0.228745
vt 0.101563 0.227295
vt 0.101563 0.227295
vt 0.101563 0.227280
vt 0.101563 0.227280
vt 0.101563 0.227295
vt 0.101563 0.227295
vt 0.102295 0.228745
vt 0.102295 0.228745
vt 0.102295 0.228745
vt 0.102295 0.228745
vt 0.132744 0.381162
vt 0.132744 0.381162
vt 0.132744 0.381162
vt 0.132744 0.381162
vt 0.132744 0.381162
vt 0.132744 0.381162
vt 0.132744 0.381162
vt 0.132744 0.381162
vt 0.132744 0.381162
vt 0.132744 0.381162
vt 0.132744 0.381162
vt 0.132744 0.381162
vt 0.132744 0.381162
vt 0.132744 0.381162
vt 0.132744 0.381162
vt 0.132744 0.381162
vt 0.132744 0.381162
vt 0.132744 0.381162
vt 0.132744 0.381162
vt 0.132744 0.381162
vt 0.132744 0.381162
vt 0.132744 0.381162
vt 0.132744 0.381162
vt 0.132744 0.381162
vt 0.132744 0.381162
vt 0.132744 0.381162
vt 0.132744 0.381162
vt 0.132744 0.381162
vt 0.132744 0.381162
vt 0.132744 0.381162
vt 0.132744 0.381162
vt 0.132744 0.381162
vt 0.132744 0.381162
vt 0.132744 0.381162
vt 0.132744 0.381162
vt 0.132744 0.381162
vt 0.132744 0.381162
vt 0.132744 0.381162
vt 0.132744 0.381162
vt 0.132744 0.381162
vt 0.132744 0.381162
vt 0.132744 0.381162
vt 0.132744 0.381162
vt 0.132744 0.381162
vt 0.132744 0.381162
vt 0.132744 0.381162
vt 0.132744 0.381162
vt 0.132744 0.381162
vt 0.132744 0.381162
vt 0.132744 0.381162
vt 0.132744 0.381162
vt 0.132744 0.381162
vt 0.101563 0.227295
vt 0.101563 0.227295
vt 0.101563 0.227295
vt 0.101563 0.227295
vt 0.101563 0.227295
vt 0.101563 0.227295
vt 0.132744 0.381162
vt 0.132744 0.381162
vt 0.132744 0.381162
vt 0.132744 0.381162
vt 0.132744 0.381162
vt 0.132744 0.381162
vt 0.132744 0.381162
vt 0.132744 0.381162
vt 0.132744 0.381162
vt 0.132744 0.381162
vt 0.132744 0.381162
vt 0.132744 0.381162
vt 0.132744 0.381162
vt 0.132744 0.381162
vt 0.132744 0.381162
vt 0.132744 0.381162
vn -0.919067 0.394101 0.000000
vn -0.919067 0.394101 0.000000
vn -0.919067 0.394101 0.000000
vn -0.919067 0.394101 0.000000
vn 0.000000 1.000000 0.000000
vn 0.000000 1.000000 0.000000
vn 0.000000 1.000000 0.000000
vn 0.000000 1.000000 0.000000
vn 0.919067 0.394101 0.000000
vn 0.919067 0.394101 0.000000
vn 0.919067 0.394101 0.000000
vn 0.919067 0.394101 0.000000
vn 0.000000 -1.000000 0.000000
vn 0.000000 -1.000000 0.000000
vn 0.000000 -1.000000 0.000000
vn 0.000000 -1.000000 0.000000
vn 0.000000 0.271445 0.962454
vn 0.000000 0.271445 0.962454
vn 0.000000 0.271445 0.962454
vn 0.000000 0.271445 0.962454
vn 0.000000 0.271445 -0.962454
vn 0.000000 0.271445 -0.962454
vn 0.000000 0.271445 -0.962454
vn 0.000000 0.271445 -0.962454
vn -1.000000 0.000000 0.000000
vn -1.000000 0.000000 0.000000
vn -1.000000 0.000000 0.000000
vn -1.000000 0.000000 0.000000
vn 0.000000 0.000000 1.000000
vn 0.000000 0.000000 1.000000
vn 0.000000 0.000000 1.000000
vn 0.000000 0.000000 1.000000
vn 1.000000 0.000000 0.000000
vn 1.000000 0.000000 0.000000
vn 1.000000 0.000000 0.000000
vn 1.000000 0.000000 0.000000
vn 0.000000 0.000000 -1.000000
vn 0.000000 0.000000 -1.000000
vn 0.000000 0.000000 -1.000000
vn 0.000000 0.000000 -1.000000
vn 0.000045 0.000011 1.000000
vn 0.000045 0.000011 1.000000
vn 0.000045 0.000011 1.000000
vn 0.000045 0.000011 1.000000
vn -1.000000 0.000000 0.000000
vn -1.000000 0.000000 0.000000
vn -1.000000 0.000000 0.000000
vn -1.000000 0.000000 0.000000
vn 0.000000 0.000000 -1.000000
vn 0.000000 0.000000 -1.000000
vn 0.000000 0.000000 -1.000000
vn 0.000000 0.000000 -1.000000
vn 1.000000 0.000000 0.000000
vn 1.000000 0.000000 0.000000
vn 1.000000 0.000000 0.000000
vn 1.000000 0.000000 0.000000
vn -0.894336 -0.447397 0.000000
vn -0.894336 -0.447397 0.000000
vn -0.894336 -0.447397 0.000000
vn -0.894336 -0.447397 0.000000
vn 0.000000 -0.399553 0.916710
vn 0.000000 -0.399553 0.916710
vn 0.000000 -0.399553 0.916710
vn 0.000000 -0.399553 0.916710
vn 0.894336 -0.447397 0.000000
vn 0.894336 -0.447397 0.000000
vn 0.894336 -0.447397 0.000000
vn 0.894336 -0.447397 0.000000
vn 0.000000 -0.399433 -0.916762
vn 0.000000 -0.399433 -0.916762
vn 0.000000 -0.399433 -0.916762
vn 0.000000 -0.399433 -0.916762
vn -0.561181 -0.827693 0.000000
vn -0.561181 -0.827693 0.000000
vn -0.561181 -0.827693 0.000000
vn -0.561181 -0.827693 0.000000
vn 0.000000 -0.827670 0.561215
vn 0.000000 -0.827670 0.561215
vn 0.000000 -0.827670 0.561215
vn 0.000000 -0.827670 0.561215
vn 0.561196 -0.827683 0.000000
vn 0.561196 -0.827683 0.000000
vn 0.561196 -0.827683 0.000000
vn 0.561196 -0.827683 0.000000
vn 0.000000 -0.827757 -0.561087
vn 0.000000 -0.827757 -0.561088
vn 0.000000 -0.827757 -0.561087
vn 0.000000 -0.827756 -0.561087
vn -1.000000 0.000000 0.000000
vn -1.000000 0.000000 0.000000
vn -1.000000 0.000000 0.000000
vn -1.000000 0.000000 0.000000
vn 0.000000 0.000000 1.000000
vn 0.000000 0.000000 1.000000
vn 0.000000 0.000000 1.000000
vn 0.000000 0.000000 1.000000
vn 0.866147 -0.499790 0.000000
vn 0.866147 -0.499790 0.000000
vn 0.866147 -0.499790 0.000000
vn 0.866147 -0.499790 0.000000
vn 0.000000 0.000000 -1.000000
vn 0.000000 0.000000 -1.000000
vn 0.000000 0.000000 -1.000000
vn 0.000000 0.000000 -1.000000
vn -0.606697 -0.794933 0.000000
vn -0.606697 -0.794933 0.000000
vn -0.606697 -0.794933 0.000000
vn -0.606697 -0.794933 0.000000
vn -0.487419 0.000000 0.873168
vn -0.487419 0.000000 0.873168
vn -0.487419 0.000000 0.873168
vn -0.487419 0.000000 0.873168
vn -0.606697 0.794933 0.000000
vn -0.606697 0.794933 0.000000
vn -0.606697 0.794933 0.000000
vn -0.606697 0.794933 0.000000
vn -0.487419 0.000000 -0.873168
vn -0.487419 0.000000 -0.873168
vn -0.487419 0.000000 -0.873168
vn -0.487419 0.000000 -0.873168
vn 0.072044 -0.997401 -0.000001
vn 0.072044 -0.997402 -0.000001
vn 0.072044 -0.997401 -0.000001
vn 0.072044 -0.997401 -0.000001
vn 0.052482 0.000000 0.998622
vn 0.052482 0.000000 0.998622
vn 0.052482 0.000000 0.998622
vn 0.052482 0.000000 0.998622
vn 0.072044 0.997402 0.000000
vn 0.072044 0.997401 0.000000
vn 0.072044 0.997401 0.000000
vn 0.072044 0.997401 0.000000
vn 0.052820 0.000000 -0.998604
vn 0.052820 0.000000 -0.998604
vn 0.052820 0.000000 -0.998604
vn 0.052820 0.000000 -0.998604
vn 0.970390 -0.241542 -0.000000
vn 0.970390 -0.241542 -0.000000
vn 0.970390 -0.241542 -0.000000
vn 0.970390 -0.241542 -0.000000
vn 0.942757 0.000000 0.333481
vn 0.942757 0.000000 0.333481
vn 0.942757 0.000000 0.333481
vn 0.942757 0.000000 0.333481
vn 0.970390 0.241545 0.000000
vn 0.970390 0.241545 0.000000
vn 0.970390 0.241545 0.000000
vn 0.970390 0.241545 0.000000
vn 0.942757 0.000000 -0.333480
vn 0.942757 0.000000 -0.333480
vn 0.942757 0.000000 -0.333480
vn 0.942757 0.000000 -0.333480
vn -0.062907 -0.998019 0.000000
vn -0.062907 -0.998019 0.000000
vn -0.479807 -0.877374 0.000000
vn -0.479807 -0.877374 0.000000
vn -0.071412 0.000000 0.997447
vn -0.071412 0.000000 0.997447
vn -0.495385 0.000000 0.868673
vn -0.495385 0.000000 0.868673
vn -0.062907 0.998019 0.000000
vn -0.062907 0.998019 0.000000
vn -0.479807 0.877374 0.000000
vn -0.479807 0.877374 0.000000
vn -0.071412 0.000000 -0.997447
vn -0.071412 0.000000 -0.997447
vn -0.495386 0.000000 -0.868673
vn -0.495386 0.000000 -0.868673
vn 0.508116 -0.861289 0.000000
vn 0.508116 -0.861289 0.000000
vn 0.508116 -0.861289 0.000000
vn 0.508116 -0.861289 0.000000
vn 0.050830 -0.002722 -0.998704
vn 0.050830 -0.002722 -0.998704
vn 0.050830 -0.002722 -0.998704
vn 0.050830 -0.002722 -0.998704
vn 0.215269 0.976555 0.000000
vn 0.215269 0.976555 0.000000
vn 0.215269 0.976555 0.000000
vn 0.215269 0.976555 0.000000
vn 0.050654 -0.002713 0.998713
vn 0.050654 -0.002713 0.998713
vn 0.050654 -0.002713 0.998713
vn 0.050654 -0.002713 0.998713
vn 0.187545 -0.982256 0.000000
vn 0.187545 -0.982256 0.000000
vn 0.187545 -0.982256 0.000000
vn 0.000000 0.000000 -1.000000
vn 0.000000 0.000000 -1.000000
vn 0.000000 0.000000 -1.000000
vn 0.000000 0.000000 -1.000000
vn 0.506868 0.862023 0.000000
vn 0.506868 0.862023 0.000000
vn 0.506868 0.862023 0.000000
vn 0.506868 0.862023 0.000000
vn 0.000000 0.000000 1.000000
vn 0.000000 0.000000 1.000000
vn 0.000000 0.000000 1.000000
vn 0.000000 0.000000 1.000000
vn -0.441547 -0.897238 0.000000
vn -0.441547 -0.897238 0.000000
vn -0.441547 -0.897238 0.000000
vn -0.441547 -0.897238 0.000000
vn 0.000000 0.000000 -1.000000
vn 0.000000 0.000000 -1.000000
vn 0.000000 0.000000 -1.000000
vn 0.000000 0.000000 -1.000000
vn 0.528009 0.849239 0.000000
vn 0.528009 0.849239 0.000000
vn 0.528009 0.849239 0.000000
vn 0.528009 0.849239 0.000000
vn 0.000000 0.000000 1.000000
vn 0.000000 0.000000 1.000000
vn 0.000000 0.000000 1.000000
vn 0.000000 0.000000 1.000000
vn 0.528009 0.849239 0.000000
vn 0.528009 0.849239 0.000000
vn 0.528009 0.849239 0.000000
vn 0.528009 0.849239 0.000000
vn 0.866147 -0.499789 0.000000
vn 0.866147 -0.499789 0.000000
vn 0.866147 -0.499789 0.000000
vn 0.866147 -0.499789 0.000000
vn -0.441547 -0.897238 0.000000
vn -0.441547 -0.897238 0.000000
vn -0.441547 -0.897238 0.000000
vn -0.441547 -0.897238 0.000000
vn 0.111148 -0.056483 -0.992197
vn 0.111148 -0.056483 -0.992197
vn 0.111148 -0.056483 -0.992197
vn 0.111148 -0.056483 -0.992197
vn 0.909504 -0.415696 0.000000
vn 0.909504 -0.415696 0.000000
vn 0.909504 -0.415696 0.000000
vn 0.909504 -0.415696 0.000000
vn 0.111080 -0.056449 0.992207
vn 0.111080 -0.056449 0.992207
vn 0.111080 -0.056449 0.992207
vn 0.111080 -0.056449 0.992207
vn 0.506868 0.862023 0.000000
vn 0.506868 0.862023 0.000000
vn 0.506868 0.862023 0.000000
vn 0.506869 0.862023 0.000000
vn 0.506868 0.862023 0.000000
vn 0.506869 0.862023 0.000000
vn 0.187545 -0.982256 0.000000
vn 0.187545 -0.982256 0.000000
vn 0.187546 -0.982256 0.000000
vn 0.187545 -0.982256 0.000000
vn 0.187545 -0.982256 0.000000
vn 0.187545 -0.982256 0.000000
vn 0.187545 -0.982256 0.000000
vn -0.691635 0.722247 0.000000
vn -0.691635 0.722247 0.000000
vn -0.691635 0.722247 0.000000
vn -0.691635 0.722247 0.000000
vn 0.000059 0.722181 0.691704
vn 0.000059 0.722181 0.691704
vn 0.000059 0.722181 0.691704
vn 0.000059 0.722181 0.691704
vn 0.691635 0.722247 0.000000
vn 0.691635 0.722247 0.000000
vn 0.691635 0.722247 0.000000
vn 0.691635 0.722247 0.000000
vn 0.000004 0.722183 -0.691702
vn 0.000004 0.722183 -0.691702
vn 0.000004 0.722183 -0.691702
vn 0.000004 0.722183 -0.691702
vn -1.000000 -0.000000 0.000000
vn -1.000000 -0.000000 0.000000
vn -1.000000 -0.000000 0.000000
vn -1.000000 -0.000000 0.000000
vn 0.000036 -0.000039 1.000000
vn 0.000036 -0.000039 1.000000
vn 0.000036 -0.000039 1.000000
vn 0.000036 -0.000039 1.000000
vn 1.000000 0.000000 0.000000
vn 1.000000 0.000000 0.000000
vn 1.000000 0.000000 0.000000
vn 1.000000 0.000000 0.000000
vn 0.000000 0.000000 -1.000000
vn 0.000000 0.000000 -1.000000
vn 0.000000 0.000000 -1.000000
vn 0.000000 0.000000 -1.000000
vn 0.000000 1.000000 0.000000
vn 0.000000 1.000000 0.000000
vn -0.062907 0.998019 0.000000
vn -0.062907 0.998019 0.000000
vn 0.000000 0.000000 -1.000000
vn 0.000000 0.000000 -1.000000
vn -0.071412 0.000000 -0.997447
vn -0.071412 0.000000 -0.997447
vn 0.000000 -1.000000 0.000000
vn 0.000000 -1.000000 0.000000
vn -0.062907 -0.998019 0.000000
vn -0.062907 -0.998019 0.000000
vn 0.000000 0.000000 1.000000
vn 0.000000 0.000000 1.000000
vn -0.071412 0.000000 0.997447
vn -0.071412 0.000000 0.997447
vn -0.545323 0.523563 0.654603
vn -0.545323 0.523563 0.654603
vn -0.545323 0.523563 0.654603
vn -0.545323 0.523563 0.654603
vn -1.000000 0.000000 0.000000
vn -1.000000 0.000000 0.000000
vn -1.000000 0.000000 0.000000
vn -1.000000 0.000000 0.000000
vn -0.545324 -0.523564 0.654602
vn -0.545324 -0.523564 0.654602
vn -0.545324 -0.523564 0.654601
vn -0.545324 -0.523564 0.654601
vn 0.972486 0.000000 0.232962
vn 0.972486 0.000000 0.232962
vn 0.972486 0.000000 0.232962
vn 0.972486 0.000000 0.232962
vn 0.000000 0.624606 0.780940
vn 0.000000 0.624606 0.780940
vn 0.000000 0.624606 0.780940
vn 0.000000 0.624606 0.780940
vn 0.000000 -0.624607 0.780939
vn 0.000000 -0.624607 0.780939
vn 0.000000 -0.624607 0.780939
vn 0.000000 -0.624607 0.780939
vn -0.545324 -0.523564 -0.654601
vn -0.545324 -0.523564 -0.654601
vn -0.545324 -0.523564 -0.654601
vn -0.545324 -0.523564 -0.654601
vn -1.000000 0.000000 0.000000
vn -1.000000 0.000000 0.000000
vn -1.000000 0.000000 0.000000
vn -1.000000 0.000000 0.000000
vn -0.545323 0.523564 -0.654601
vn -0.545323 0.523564 -0.654601
vn -0.545323 0.523564 -0.654601
vn -0.545323 0.523564 -0.654601
vn 0.972485 0.000000 -0.232964
vn 0.972485 0.000000 -0.232964
vn 0.972485 0.000000 -0.232964
vn 0.972485 0.000000 -0.232964
vn 0.000000 -0.624608 -0.780938
vn 0.000000 -0.624609 -0.780938
vn 0.000000 -0.624609 -0.780938
vn 0.000000 -0.624608 -0.780938
vn 0.000000 0.624606 -0.780940
vn 0.000000 0.624606 -0.780940
vn 0.000000 0.624606 -0.780940
vn 0.000000 0.624606 -0.780940
s off
f 9/7/1 10/8/2 14/9/3 15/10/4
f 25/33/5 26/34/6 27/35/7 28/36/8
f 16/19/9 13/20/10 11/21/11 12/22/12
f 7/15/13 8/16/14 2/17/15 1/18/16
f 10/8/17 11/21/18 13/20/19 14/9/20
f 12/22/21 9/7/22 15/10/23 16/19/24
f 17/25/25 18/26/26 10/2/27 9/1/28
f 18/26/29 19/27/30 11/11/31 10/2/32
f 12/13/33 11/11/34 19/27/35 20/28/36
f 20/28/37 17/25/38 9/1/39 12/13/40
f 66/76/41 67/78/42 6/12/43 4/4/44
f 65/75/45 66/76/46 4/4/47 3/3/48
f 68/79/49 65/75/50 3/3/51 5/14/52
f 5/5/53 6/6/54 67/77/55 68/80/56
f 1/18/57 2/17/58 18/26/59 17/25/60
f 2/17/61 8/16/62 19/27/63 18/26/64
f 20/28/65 19/27/66 8/16/67 7/15/68
f 7/15/69 1/18/70 17/25/71 20/28/72
f 3/3/73 4/4/74 22/30/75 21/29/76
f 4/4/77 6/6/78 23/31/79 22/30/80
f 6/6/81 5/5/82 24/32/83 23/31/84
f 5/5/85 3/3/86 21/29/87 24/32/88
f 41/49/89 42/50/90 43/51/91 44/52/92
f 22/30/93 23/31/94 27/35/95 26/34/96
f 57/65/97 61/69/98 53/62/99 55/63/100
f 24/32/101 21/29/102 25/33/103 28/36/104
f 21/29/105 22/30/106 30/38/107 29/37/108
f 22/30/109 26/34/110 31/39/111 30/38/112
f 26/34/113 25/33/114 32/40/115 31/39/116
f 25/33/117 21/29/118 29/37/119 32/40/120
f 29/37/121 30/38/122 34/42/123 33/41/124
f 30/38/125 31/39/126 35/43/127 34/42/128
f 31/39/129 32/40/130 36/44/131 35/43/132
f 32/40/133 29/37/134 33/41/135 36/44/136
f 33/41/137 34/42/138 38/46/139 37/45/140
f 34/42/141 35/43/142 39/47/143 38/46/144
f 35/43/145 36/44/146 40/48/147 39/47/148
f 36/44/149 33/41/150 37/45/151 40/48/152
f 75/89/153 76/90/154 42/50/155 41/49/156
f 77/94/157 78/91/158 79/92/159 80/93/160
f 73/87/161 74/88/162 44/52/163 43/51/164
f 83/98/165 84/95/166 85/96/167 86/97/168
f 23/31/169 24/32/170 45/54/171 46/53/172
f 24/32/173 28/36/174 47/55/175 45/54/176
f 28/36/177 27/35/178 48/56/179 47/55/180
f 27/35/181 23/31/182 46/53/183 48/56/184
f 46/53/185 64/72/186 50/57/187
f 45/54/188 47/55/189 51/59/190 49/58/191
f 47/55/192 48/56/193 60/68/194 59/67/195
f 48/56/196 46/53/197 50/57/198 52/60/199
f 61/69/200 63/71/201 49/58/202 53/62/203
f 49/58/204 51/59/205 55/63/206 53/62/207
f 58/66/208 60/68/209 52/60/210 56/64/211
f 52/60/212 50/57/213 54/61/214 56/64/215
f 51/59/216 59/67/217 57/65/218 55/63/219
f 54/61/220 62/70/221 58/66/222 56/64/223
f 50/57/224 64/72/225 62/70/226 54/61/227
f 62/70/228 64/72/229 60/73/230 58/66/231
f 64/72/232 63/71/233 59/74/234 60/73/235
f 63/71/236 61/69/237 57/65/238 59/74/239
f 60/68/240 48/56/241 52/60/242
f 47/55/243 59/67/244 51/59/245
f 63/71/246 45/54/247 49/58/248
f 46/53/249 45/54/250 63/71/251 64/72/252
f 69/23/253 70/24/254 66/81/255 65/82/256
f 70/24/257 71/83/258 67/84/259 66/81/260
f 68/85/261 67/84/262 71/83/263 72/86/264
f 72/86/265 69/23/266 65/82/267 68/85/268
f 15/10/269 14/9/270 70/24/271 69/23/272
f 14/9/273 13/20/274 71/83/275 70/24/276
f 72/86/277 71/83/278 13/20/279 16/19/280
f 16/19/281 15/10/282 69/23/283 72/86/284
f 39/47/285 40/48/286 74/88/287 73/87/288
f 88/99/289 87/100/290 84/95/291 83/98/292
f 37/45/293 38/46/294 76/90/295 75/89/296
f 81/101/297 82/102/298 78/91/299 77/94/300
f 73/87/301 43/51/302 79/92/303 78/91/304
f 43/51/305 42/50/306 80/93/307 79/92/308
f 42/50/309 76/90/310 77/94/311 80/93/312
f 38/89/313 39/49/314 82/96/315 81/95/316
f 39/49/317 73/52/318 78/97/319 82/96/320
f 76/52/321 38/88/322 81/98/323 77/97/324
f 75/48/325 41/45/326 85/100/327 84/99/328
f 41/45/329 44/89/330 86/95/331 85/100/332
f 44/88/333 74/48/334 83/99/335 86/98/336
f 40/46/337 37/47/338 87/102/339 88/101/340
f 37/47/341 75/87/342 84/91/343 87/102/344
f 74/90/345 40/46/346 88/101/347 83/94/348
