# This file uses meters as units for non-parametric coordinates.

v 7.296875 -7.296829 -0.433350
v 10.319336 0.000031 -0.433350
v 7.296875 7.296906 -0.433350
v 0.000000 10.319351 -0.433350
v -7.296906 7.296906 -0.433350
v -10.319366 0.000031 -0.433350
v -7.296906 -7.296829 -0.433350
v 0.000000 -10.319305 -0.433350
v 7.296875 -7.296829 0.433594
v 10.319336 0.000031 0.433594
v 7.296875 7.296906 0.433594
v 0.000000 10.319351 0.433594
v -7.296906 7.296906 0.433594
v -10.319366 0.000031 0.433594
v -7.296906 -7.296829 0.433594
v 0.000000 -10.319305 0.433594
v 12.031494 0.503036 -0.433350
v 12.031494 0.503036 0.433594
v -0.503021 12.031540 -0.433350
v -0.503021 12.031540 0.433594
v -12.031555 -0.502975 -0.433350
v -12.031555 -0.502975 0.433594
v 0.502991 -12.031464 -0.433350
v 0.502991 -12.031464 0.433594
v 8.863251 -8.151840 -0.433350
v 8.863251 -8.151840 0.433594
v 8.151855 8.863266 -0.433350
v 8.151855 8.863266 0.433594
v -8.863251 8.151901 -0.433350
v -8.863251 8.151901 0.433594
v -8.151947 -8.863205 -0.433350
v -8.151947 -8.863205 0.433594
v 3.110443 -3.110428 -0.433350
v 4.398834 0.000046 -0.433350
v 3.110443 3.110504 -0.433350
v 0.000000 4.398895 -0.433350
v -3.110474 3.110504 -0.433350
v -4.398865 0.000046 -0.433350
v -3.110474 -3.110428 -0.433350
v 0.000000 -4.398788 -0.433350
v 3.110443 -3.110428 0.433594
v 4.398834 0.000046 0.433594
v 3.110443 3.110504 0.433594
v 0.000000 4.398895 0.433594
v -3.110474 3.110504 0.433594
v -4.398865 0.000046 0.433594
v -3.110474 -3.110428 0.433594
v 0.000000 -4.398788 0.433594
v 1.551788 -1.551788 -0.433350
v 2.194611 0.000046 -0.433350
v 1.551788 1.551865 -0.433350
v 0.000000 2.194656 -0.433350
v -1.551849 1.551865 -0.433350
v -2.194672 0.000046 -0.433350
v -1.551849 -1.551788 -0.433350
v 0.000000 -2.194565 -0.433350
v 1.551788 -1.551788 0.433594
v 2.194611 0.000046 0.433594
v 1.551788 1.551865 0.433594
v 0.000000 2.194656 0.433594
v -1.551849 1.551865 0.433594
v -2.194672 0.000046 0.433594
v -1.551849 -1.551788 0.433594
v 0.000000 -2.194565 0.433594
vt 0.132744 0.381162
vt 0.132744 0.381162
vt 0.132744 0.381162
vt 0.132744 0.381162
vt 0.132744 0.381162
vt 0.132744 0.381162
vt 0.132744 0.381162
vt 0.132744 0.381162
vt 0.132744 0.381162
vt 0.132744 0.381162
vt 0.132744 0.381162
vt 0.132744 0.381162
vt 0.132744 0.381162
vt 0.132744 0.381162
vt 0.132744 0.381162
vt 0.132744 0.381162
vt 0.132744 0.381162
vt 0.132744 0.381162
vt 0.132744 0.381162
vt 0.132744 0.381162
vt 0.132744 0.381162
vt 0.132744 0.381162
vt 0.132744 0.381162
vt 0.132744 0.381162
vt 0.132744 0.381162
vt 0.132744 0.381162
vt 0.132744 0.381162
vt 0.132744 0.381162
vt 0.132744 0.381162
vt 0.132744 0.381162
vt 0.132744 0.381162
vt 0.132744 0.381162
vt 0.132744 0.381162
vt 0.132744 0.381162
vt 0.132744 0.381162
vt 0.132744 0.381162
vt 0.132744 0.381162
vt 0.132744 0.381162
vt 0.132744 0.381162
vt 0.132744 0.381162
vt 0.132744 0.381162
vt 0.132744 0.381162
vt 0.132744 0.381162
vt 0.132744 0.381162
vt 0.132744 0.381162
vt 0.132744 0.381162
vt 0.132744 0.381162
vt 0.132744 0.381162
vt 0.132744 0.381162
vt 0.132744 0.381162
vt 0.132744 0.381162
vt 0.132744 0.381162
vt 0.132744 0.381162
vt 0.132744 0.381162
vt 0.132744 0.381162
vt 0.132744 0.381162
vt 0.132744 0.381162
vt 0.132744 0.381162
vt 0.132744 0.381162
vt 0.132744 0.381162
vt 0.132744 0.381162
vt 0.132744 0.381162
vt 0.132744 0.381162
vt 0.132744 0.381162
vt 0.132744 0.381162
vt 0.132744 0.381162
vt 0.135742 0.303864
vt 0.135742 0.303864
vt 0.135742 0.303864
vt 0.135742 0.303864
vt 0.135742 0.303864
vt 0.135742 0.303864
vt 0.135742 0.303864
vt 0.135742 0.303864
vt 0.135742 0.303864
vt 0.135742 0.303864
vt 0.135742 0.303864
vt 0.135742 0.303864
vt 0.135742 0.303864
vt 0.135742 0.303864
vt 0.135742 0.303864
vt 0.135742 0.303864
vt 0.135742 0.303864
vt 0.135742 0.303864
vt 0.135742 0.303864
vt 0.135742 0.303864
vt 0.135742 0.303864
vt 0.135742 0.303864
vt 0.135742 0.303864
vt 0.135742 0.303864
vt 0.135742 0.303864
vt 0.135742 0.303864
vt 0.135742 0.303864
vt 0.135742 0.303864
vt 0.135742 0.303864
vt 0.135742 0.303864
vt 0.135742 0.303864
vt 0.135742 0.303864
vn 0.984419 -0.175837 0.000000
vn 0.984419 -0.175837 0.000000
vn 0.984419 -0.175837 0.000000
vn 0.984419 -0.175837 0.000000
vn 0.820427 0.571752 0.000000
vn 0.820427 0.571752 0.000000
vn 0.820427 0.571752 0.000000
vn 0.820427 0.571752 0.000000
vn 0.175837 0.984419 0.000000
vn 0.175837 0.984419 0.000000
vn 0.175837 0.984419 0.000000
vn 0.175837 0.984419 0.000000
vn -0.571752 0.820426 0.000000
vn -0.571752 0.820426 0.000000
vn -0.571752 0.820426 0.000000
vn -0.571752 0.820426 0.000000
vn -0.984419 0.175840 0.000000
vn -0.984419 0.175840 0.000000
vn -0.984419 0.175840 0.000000
vn -0.984419 0.175840 0.000000
vn -0.820424 -0.571755 0.000000
vn -0.820424 -0.571755 0.000000
vn -0.820424 -0.571755 0.000000
vn -0.820424 -0.571755 0.000000
vn -0.175837 -0.984419 0.000000
vn -0.175837 -0.984419 0.000000
vn -0.175837 -0.984419 0.000000
vn -0.175837 -0.984419 0.000000
vn 0.571752 -0.820426 0.000000
vn 0.571752 -0.820426 0.000000
vn 0.571752 -0.820426 0.000000
vn 0.571752 -0.820426 0.000000
vn 0.000000 0.000000 -1.000000
vn 0.000000 0.000000 -1.000000
vn 0.000000 0.000000 -1.000000
vn 0.000000 0.000000 1.000000
vn 0.000000 0.000000 1.000000
vn 0.000000 0.000000 1.000000
vn 0.281872 -0.959452 0.000000
vn 0.281872 -0.959452 0.000000
vn 0.281872 -0.959452 0.000000
vn 0.281872 -0.959452 0.000000
vn -0.000000 0.000000 -1.000000
vn -0.000000 0.000000 -1.000000
vn -0.000000 0.000000 -1.000000
vn 0.000000 0.000000 1.000000
vn 0.000000 0.000000 1.000000
vn 0.000000 0.000000 1.000000
vn 0.959451 0.281876 0.000000
vn 0.959451 0.281876 0.000000
vn 0.959451 0.281876 0.000000
vn 0.959451 0.281876 0.000000
vn 0.000000 0.000000 -1.000000
vn 0.000000 0.000000 -1.000000
vn 0.000000 0.000000 -1.000000
vn 0.000000 0.000000 1.000000
vn 0.000000 0.000000 1.000000
vn 0.000000 0.000000 1.000000
vn -0.281868 0.959453 0.000000
vn -0.281868 0.959453 0.000000
vn -0.281868 0.959453 0.000000
vn -0.281868 0.959453 0.000000
vn 0.000000 0.000000 -1.000000
vn 0.000000 0.000000 -1.000000
vn 0.000000 0.000000 -1.000000
vn 0.000000 0.000000 1.000000
vn 0.000000 0.000000 1.000000
vn 0.000000 0.000000 1.000000
vn -0.959454 -0.281865 0.000000
vn -0.959454 -0.281865 0.000000
vn -0.959454 -0.281865 0.000000
vn -0.959454 -0.281865 0.000000
vn 0.000000 0.000000 -1.000000
vn 0.000000 0.000000 -1.000000
vn 0.000000 0.000000 -1.000000
vn 0.000000 0.000000 1.000000
vn 0.000000 0.000000 1.000000
vn 0.000000 0.000000 1.000000
vn -0.479122 -0.877749 0.000000
vn -0.479122 -0.877749 0.000000
vn -0.479122 -0.877749 0.000000
vn -0.479122 -0.877749 0.000000
vn 0.000000 0.000000 -1.000000
vn 0.000000 0.000000 -1.000000
vn 0.000000 0.000000 -1.000000
vn -0.000000 0.000000 1.000000
vn -0.000000 0.000000 1.000000
vn -0.000000 0.000000 1.000000
vn 0.877754 -0.479112 0.000000
vn 0.877754 -0.479112 0.000000
vn 0.877754 -0.479112 0.000000
vn 0.877754 -0.479112 0.000000
vn -0.000000 0.000000 -1.000000
vn -0.000000 0.000000 -1.000000
vn -0.000000 0.000000 -1.000000
vn 0.000000 0.000000 1.000000
vn 0.000000 0.000000 1.000000
vn 0.000000 0.000000 1.000000
vn 0.479122 0.877748 0.000000
vn 0.479122 0.877748 0.000000
vn 0.479122 0.877748 0.000000
vn 0.479122 0.877748 0.000000
vn 0.000000 0.000000 -1.000000
vn 0.000000 0.000000 -1.000000
vn 0.000000 0.000000 -1.000000
vn -0.000000 0.000000 1.000000
vn -0.000000 0.000000 1.000000
vn -0.000000 0.000000 1.000000
vn -0.877741 0.479135 0.000000
vn -0.877741 0.479135 0.000000
vn -0.877741 0.479135 0.000000
vn -0.877741 0.479135 0.000000
vn 0.000000 0.000000 -1.000000
vn 0.000000 0.000000 -1.000000
vn 0.000000 0.000000 -1.000000
vn 0.000000 0.000000 -1.000000
vn 0.000000 0.000000 -1.000000
vn 0.000000 0.000000 -1.000000
vn 0.000000 0.000000 -1.000000
vn 0.000000 0.000000 -1.000000
vn 0.000000 0.000000 -1.000000
vn 0.000000 0.000000 -1.000000
vn 0.000000 0.000000 -1.000000
vn 0.000000 0.000000 -1.000000
vn 0.000000 0.000000 -1.000000
vn 0.000000 0.000000 -1.000000
vn 0.000000 0.000000 -1.000000
vn 0.000000 0.000000 -1.000000
vn 0.000000 0.000000 -1.000000
vn 0.000000 0.000000 -1.000000
vn 0.000000 0.000000 -1.000000
vn 0.000000 0.000000 -1.000000
vn 0.000000 0.000000 -1.000000
vn 0.000000 0.000000 -1.000000
vn 0.000000 0.000000 -1.000000
vn 0.000000 0.000000 -1.000000
vn 0.000000 0.000000 -1.000000
vn 0.000000 0.000000 -1.000000
vn 0.000000 0.000000 -1.000000
vn 0.000000 0.000000 -1.000000
vn 0.000000 0.000000 -1.000000
vn 0.000000 0.000000 -1.000000
vn 0.000000 0.000000 -1.000000
vn 0.000000 0.000000 -1.000000
vn 0.000000 0.000000 1.000000
vn 0.000000 0.000000 1.000000
vn 0.000000 0.000000 1.000000
vn 0.000000 0.000000 1.000000
vn -0.000000 0.000000 1.000000
vn -0.000000 0.000000 1.000000
vn -0.000000 0.000000 1.000000
vn -0.000000 0.000000 1.000000
vn 0.000000 0.000000 1.000000
vn 0.000000 0.000000 1.000000
vn 0.000000 0.000000 1.000000
vn 0.000000 0.000000 1.000000
vn 0.000000 0.000000 1.000000
vn 0.000000 0.000000 1.000000
vn 0.000000 0.000000 1.000000
vn 0.000000 0.000000 1.000000
vn 0.000000 0.000000 1.000000
vn 0.000000 0.000000 1.000000
vn 0.000000 0.000000 1.000000
vn 0.000000 0.000000 1.000000
vn -0.000000 0.000000 1.000000
vn -0.000000 0.000000 1.000000
vn -0.000000 0.000000 1.000000
vn -0.000000 0.000000 1.000000
vn 0.000000 0.000000 1.000000
vn 0.000000 0.000000 1.000000
vn 0.000000 0.000000 1.000000
vn 0.000000 0.000000 1.000000
vn 0.000000 0.000000 1.000000
vn 0.000000 0.000000 1.000000
vn 0.000000 0.000000 1.000000
vn 0.000000 0.000000 1.000000
vn 0.000000 0.000000 -1.000000
vn 0.000000 0.000000 -1.000000
vn 0.000000 0.000000 -1.000000
vn 0.000000 0.000000 -1.000000
vn 0.000000 0.000000 -1.000000
vn 0.000000 0.000000 -1.000000
vn 0.000000 0.000000 -1.000000
vn 0.000000 0.000000 -1.000000
vn -0.000000 0.000000 -1.000000
vn -0.000000 0.000000 -1.000000
vn -0.000000 0.000000 -1.000000
vn -0.000000 0.000000 -1.000000
vn 0.000000 0.000000 -1.000000
vn 0.000000 0.000000 -1.000000
vn 0.000000 0.000000 -1.000000
vn 0.000000 0.000000 -1.000000
vn -0.000000 0.000000 -1.000000
vn -0.000000 0.000000 -1.000000
vn -0.000000 0.000000 -1.000000
vn -0.000000 0.000000 -1.000000
vn 0.000000 0.000000 -1.000000
vn 0.000000 0.000000 -1.000000
vn 0.000000 0.000000 -1.000000
vn 0.000000 0.000000 -1.000000
vn 0.000000 0.000000 -1.000000
vn 0.000000 0.000000 -1.000000
vn 0.000000 0.000000 -1.000000
vn 0.000000 0.000000 -1.000000
vn 0.000000 0.000000 -1.000000
vn 0.000000 0.000000 -1.000000
vn 0.000000 0.000000 -1.000000
vn 0.000000 0.000000 -1.000000
vn 0.000000 0.000000 1.000000
vn 0.000000 0.000000 1.000000
vn 0.000000 0.000000 1.000000
vn 0.000000 0.000000 1.000000
vn 0.000000 0.000000 1.000000
vn 0.000000 0.000000 1.000000
vn 0.000000 0.000000 1.000000
vn 0.000000 0.000000 1.000000
vn 0.000000 0.000000 1.000000
vn 0.000000 0.000000 1.000000
vn 0.000000 0.000000 1.000000
vn 0.000000 0.000000 1.000000
vn -0.000000 0.000000 1.000000
vn -0.000000 0.000000 1.000000
vn -0.000000 0.000000 1.000000
vn -0.000000 0.000000 1.000000
vn -0.000000 0.000000 1.000000
vn -0.000000 0.000000 1.000000
vn -0.000000 0.000000 1.000000
vn -0.000000 0.000000 1.000000
vn 0.000000 0.000000 1.000000
vn 0.000000 0.000000 1.000000
vn 0.000000 0.000000 1.000000
vn 0.000000 0.000000 1.000000
vn 0.000000 0.000000 1.000000
vn 0.000000 0.000000 1.000000
vn 0.000000 0.000000 1.000000
vn 0.000000 0.000000 1.000000
vn -0.000000 0.000000 1.000000
vn -0.000000 0.000000 1.000000
vn -0.000000 0.000000 1.000000
vn -0.000000 0.000000 1.000000
vn -0.923873 0.382699 0.000000
vn -0.923873 0.382699 0.000000
vn -0.923873 0.382699 0.000000
vn -0.923873 0.382699 0.000000
vn -0.923872 -0.382703 0.000000
vn -0.923872 -0.382703 0.000000
vn -0.923872 -0.382703 0.000000
vn -0.923872 -0.382703 0.000000
vn -0.382694 -0.923875 0.000000
vn -0.382694 -0.923875 0.000000
vn -0.382694 -0.923875 0.000000
vn -0.382694 -0.923875 0.000000
vn 0.382681 -0.923881 0.000000
vn 0.382681 -0.923881 0.000000
vn 0.382681 -0.923881 0.000000
vn 0.382681 -0.923881 0.000000
vn 0.923872 -0.382703 0.000000
vn 0.923872 -0.382703 0.000000
vn 0.923872 -0.382703 0.000000
vn 0.923872 -0.382703 0.000000
vn 0.923873 0.382699 0.000000
vn 0.923873 0.382699 0.000000
vn 0.923873 0.382699 0.000000
vn 0.923873 0.382699 0.000000
vn 0.382673 0.923884 0.000000
vn 0.382673 0.923884 0.000000
vn 0.382673 0.923884 0.000000
vn 0.382673 0.923884 0.000000
vn -0.382686 0.923878 0.000000
vn -0.382686 0.923878 0.000000
vn -0.382686 0.923878 0.000000
vn -0.382686 0.923878 0.000000
s off
f 25/43/1 2/10/2 10/19/3 26/44/4
f 17/35/5 3/11/6 11/20/7 18/36/8
f 27/45/9 4/12/10 12/21/11 28/46/12
f 19/37/13 5/13/14 13/22/15 20/38/16
f 29/47/17 6/14/18 14/23/19 30/48/20
f 21/39/21 7/15/22 15/24/23 22/40/24
f 31/49/25 8/16/26 16/25/27 32/50/28
f 23/41/29 1/17/30 9/26/31 24/42/32
f 2/10/33 3/11/34 17/35/35
f 11/20/36 10/19/37 18/36/38
f 10/19/39 2/10/40 17/35/41 18/36/42
f 4/12/43 5/13/44 19/37/45
f 13/22/46 12/21/47 20/38/48
f 12/21/49 4/12/50 19/37/51 20/38/52
f 6/14/53 7/15/54 21/39/55
f 15/24/56 14/23/57 22/40/58
f 14/23/59 6/14/60 21/39/61 22/40/62
f 8/16/63 1/17/64 23/41/65
f 9/26/66 16/25/67 24/42/68
f 16/25/69 8/16/70 23/41/71 24/42/72
f 1/9/73 2/10/74 25/43/75
f 10/19/76 9/18/77 26/44/78
f 9/18/79 1/9/80 25/43/81 26/44/82
f 3/11/83 4/12/84 27/45/85
f 12/21/86 11/20/87 28/46/88
f 11/20/89 3/11/90 27/45/91 28/46/92
f 5/13/93 6/14/94 29/47/95
f 14/23/96 13/22/97 30/48/98
f 13/22/99 5/13/100 29/47/101 30/48/102
f 7/15/103 8/16/104 31/49/105
f 16/25/106 15/24/107 32/50/108
f 15/24/109 7/15/110 31/49/111 32/50/112
f 2/2/113 1/1/114 33/52/115 34/51/116
f 3/3/117 2/2/118 34/51/119 35/53/120
f 4/4/121 3/3/122 35/53/123 36/54/124
f 5/5/125 4/4/126 36/54/127 37/55/128
f 6/6/129 5/5/130 37/55/131 38/56/132
f 7/7/133 6/6/134 38/56/135 39/57/136
f 8/8/137 7/7/138 39/57/139 40/58/140
f 1/1/141 8/8/142 40/58/143 33/52/144
f 9/33/145 10/32/146 42/60/147 41/59/148
f 10/32/149 11/31/150 43/61/151 42/60/152
f 11/31/153 12/30/154 44/62/155 43/61/156
f 12/30/157 13/29/158 45/63/159 44/62/160
f 13/29/161 14/28/162 46/64/163 45/63/164
f 14/28/165 15/27/166 47/65/167 46/64/168
f 15/27/169 16/34/170 48/66/171 47/65/172
f 16/34/173 9/33/174 41/59/175 48/66/176
f 34/67/177 33/68/178 49/69/179 50/70/180
f 35/71/181 34/67/182 50/70/183 51/72/184
f 36/73/185 35/71/186 51/72/187 52/74/188
f 37/75/189 36/73/190 52/74/191 53/76/192
f 38/77/193 37/75/194 53/76/195 54/78/196
f 39/79/197 38/77/198 54/78/199 55/80/200
f 40/81/201 39/79/202 55/80/203 56/82/204
f 33/68/205 40/81/206 56/82/207 49/69/208
f 41/83/209 42/84/210 58/85/211 57/86/212
f 42/84/213 43/87/214 59/88/215 58/85/216
f 43/87/217 44/89/218 60/90/219 59/88/220
f 44/89/221 45/91/222 61/92/223 60/90/224
f 45/91/225 46/93/226 62/94/227 61/92/228
f 46/93/229 47/95/230 63/96/231 62/94/232
f 47/95/233 48/97/234 64/98/235 63/96/236
f 48/97/237 41/83/238 57/86/239 64/98/240
f 50/70/241 49/69/242 57/86/243 58/85/244
f 51/72/245 50/70/246 58/85/247 59/88/248
f 52/74/249 51/72/250 59/88/251 60/90/252
f 53/76/253 52/74/254 60/90/255 61/92/256
f 54/78/257 53/76/258 61/92/259 62/94/260
f 55/80/261 54/78/262 62/94/263 63/96/264
f 56/82/265 55/80/266 63/96/267 64/98/268
f 49/69/269 56/82/270 64/98/271 57/86/272
