# This file uses meters as units for non-parametric coordinates.

v 4.032806 18.869873 -0.989258
v 4.032806 18.869873 0.989746
v 4.032806 21.575012 0.989746
v 4.032806 21.575012 -0.989258
v 5.191315 18.659302 -1.143555
v 5.191315 18.659302 1.143555
v 5.191315 21.785583 1.143555
v 5.191315 21.785583 -1.143555
v 5.651337 18.236725 -2.070557
v 5.651337 18.236725 2.070557
v 5.651337 22.208160 2.070557
v 5.651337 22.208160 -2.070557
v 8.252686 18.644363 -1.645508
v 8.252686 18.644363 1.645508
v 8.252686 21.800507 1.645508
v 8.252686 21.800507 -1.645508
v 2.105377 17.344101 -2.105225
v 2.105377 17.344101 2.105713
v 2.105377 23.100784 2.105713
v 2.105377 23.100784 -2.105225
v -1.923157 -23.100784 -1.674316
v -1.923157 -23.100784 1.674805
v -1.356079 16.836044 -1.355713
v -1.356079 16.836044 1.356445
v 1.356018 16.836044 -1.355713
v 1.356018 16.836044 1.356445
v 1.923126 -23.100784 -1.674316
v 1.923126 -23.100784 1.674805
v -2.706635 -0.406639 -2.356689
v -2.706635 -0.406639 2.357422
v 2.706573 -0.406639 2.357422
v 2.706573 -0.406639 -2.356689
v 1.685455 1.974739 1.685791
v -1.685486 1.974739 1.685791
v -1.685486 1.974739 -1.685059
v 1.685455 1.974739 -1.685059
v -2.706635 -21.534630 -2.356689
v -2.706635 -21.534630 2.357422
v 2.706573 -21.534630 2.357422
v 2.706573 -21.534630 -2.356689
v -2.105408 17.344101 -2.105225
v -2.105408 17.344101 2.105713
v -2.105408 23.100784 -2.105225
v -2.105408 23.100784 2.105713
v -1.356079 5.454399 -1.355713
v -1.356079 5.454399 1.356689
v 1.356018 5.454391 1.356445
v 1.356018 5.454391 -1.355713
v -1.685486 5.138947 -1.685059
v -1.685486 5.138947 1.686035
v 1.685455 5.138939 1.685791
v 1.685455 5.138939 -1.685059
v -4.032837 18.869873 -0.989258
v -4.032837 18.869873 0.989746
v -4.032837 21.575012 0.989746
v -4.032837 21.575012 -0.989258
v -5.191345 18.659302 -1.143555
v -5.191345 18.659302 1.143555
v -5.191345 21.785583 1.143555
v -5.191345 21.785583 -1.143555
v -5.651367 18.236725 -2.070557
v -5.651367 18.236725 2.070557
v -5.651367 22.208160 2.070557
v -5.651367 22.208160 -2.070557
v -8.252716 18.644363 -1.645508
v -8.252716 18.644363 1.645508
v -8.252716 21.800507 1.645508
v -8.252716 21.800507 -1.645508
vt 0.132744 0.381162
vt 0.132744 0.381162
vt 0.132744 0.381162
vt 0.132744 0.381162
vt 0.132744 0.381162
vt 0.132744 0.381162
vt 0.132744 0.381162
vt 0.132744 0.381162
vt 0.132744 0.381162
vt 0.132744 0.381162
vt 0.132744 0.381162
vt 0.132744 0.381162
vt 0.132744 0.381162
vt 0.132744 0.381162
vt 0.132744 0.381162
vt 0.132744 0.381162
vt 0.132744 0.381162
vt 0.132744 0.381162
vt 0.132744 0.381162
vt 0.132744 0.381162
vt 0.101563 0.227280
vt 0.101563 0.227280
vt 0.101563 0.227295
vt 0.101563 0.227295
vt 0.132744 0.381162
vt 0.132744 0.381162
vt 0.132744 0.381162
vt 0.132744 0.381162
vt 0.101563 0.227295
vt 0.101563 0.227295
vt 0.101563 0.227280
vt 0.101563 0.227280
vt 0.102295 0.228745
vt 0.102295 0.228745
vt 0.102295 0.228745
vt 0.102295 0.228745
vt 0.102295 0.228745
vt 0.102295 0.228745
vt 0.102295 0.228745
vt 0.102295 0.228745
vt 0.102295 0.228745
vt 0.102295 0.228745
vt 0.102295 0.228745
vt 0.102295 0.228745
vt 0.132744 0.381162
vt 0.132744 0.381162
vt 0.132744 0.381162
vt 0.132744 0.381162
vt 0.132744 0.381162
vt 0.132744 0.381162
vt 0.132744 0.381162
vt 0.132744 0.381162
vt 0.132744 0.381162
vt 0.132744 0.381162
vt 0.132744 0.381162
vt 0.132744 0.381162
vt 0.132744 0.381162
vt 0.132744 0.381162
vt 0.132744 0.381162
vt 0.132744 0.381162
vt 0.101563 0.227295
vt 0.101563 0.227295
vt 0.101563 0.227295
vt 0.101563 0.227295
vt 0.101563 0.227295
vt 0.101563 0.227295
vt 0.101563 0.227295
vt 0.101563 0.227295
vt 0.132744 0.381162
vt 0.132744 0.381162
vt 0.132744 0.381162
vt 0.132744 0.381162
vt 0.132744 0.381162
vt 0.132744 0.381162
vt 0.132744 0.381162
vt 0.132744 0.381162
vt 0.132744 0.381162
vt 0.132744 0.381162
vt 0.132744 0.381162
vt 0.132744 0.381162
vt 0.132744 0.381162
vt 0.132744 0.381162
vt 0.132744 0.381162
vt 0.132744 0.381162
vt 0.132744 0.381162
vt 0.132744 0.381162
vt 0.132744 0.381162
vt 0.132744 0.381162
vn 1.000000 0.000000 0.000000
vn 1.000000 0.000000 0.000000
vn 1.000000 0.000000 0.000000
vn 1.000000 0.000000 0.000000
vn 0.620676 -0.784067 0.000000
vn 0.620676 -0.784067 0.000000
vn 0.620676 -0.784067 0.000000
vn 0.620676 -0.784067 0.000000
vn 0.501065 0.000000 0.865409
vn 0.501065 0.000000 0.865409
vn 0.501065 0.000000 0.865409
vn 0.501065 0.000000 0.865409
vn 0.620676 0.784067 0.000000
vn 0.620676 0.784067 0.000000
vn 0.620676 0.784067 0.000000
vn 0.620676 0.784067 0.000000
vn 0.501065 0.000000 -0.865409
vn 0.501065 0.000000 -0.865409
vn 0.501065 0.000000 -0.865409
vn 0.501065 0.000000 -0.865409
vn -0.178831 -0.983880 0.000000
vn -0.178831 -0.983880 0.000000
vn -0.178831 -0.983880 0.000000
vn -0.178831 -0.983880 0.000000
vn -0.131610 0.000000 0.991302
vn -0.131610 0.000000 0.991302
vn -0.131610 0.000000 0.991302
vn -0.131610 0.000000 0.991302
vn -0.178831 0.983880 0.000000
vn -0.178831 0.983880 0.000000
vn -0.178831 0.983880 0.000000
vn -0.178831 0.983880 0.000000
vn -0.132020 0.000000 -0.991247
vn -0.132020 0.000000 -0.991247
vn -0.132020 0.000000 -0.991247
vn -0.132020 0.000000 -0.991247
vn -0.676499 -0.736444 0.000000
vn -0.676499 -0.736444 0.000000
vn -0.676499 -0.736444 0.000000
vn -0.676499 -0.736444 0.000000
vn -0.895768 0.000000 0.444522
vn -0.895768 0.000000 0.444522
vn -0.895768 0.000000 0.444522
vn -0.895768 0.000000 0.444522
vn -0.676499 0.736444 0.000000
vn -0.676499 0.736444 0.000000
vn -0.676499 0.736444 0.000000
vn -0.676499 0.736444 0.000000
vn -0.895768 0.000000 -0.444522
vn -0.895768 0.000000 -0.444522
vn -0.895768 0.000000 -0.444522
vn -0.895768 0.000000 -0.444522
vn 0.154813 -0.987944 0.000000
vn 0.154813 -0.987944 0.000000
vn 0.154813 -0.987944 0.000000
vn 0.154813 -0.987944 0.000000
vn 0.161257 0.000000 0.986912
vn 0.161257 0.000000 0.986912
vn 0.161257 0.000000 0.986912
vn 0.161257 0.000000 0.986912
vn 0.154819 0.987943 0.000000
vn 0.154819 0.987943 0.000000
vn 0.154819 0.987943 0.000000
vn 0.154819 0.987943 0.000000
vn 0.161257 0.000000 -0.986912
vn 0.161257 0.000000 -0.986912
vn 0.161257 0.000000 -0.986912
vn 0.161257 0.000000 -0.986912
vn -0.919067 0.394101 0.000000
vn -0.919067 0.394101 0.000000
vn -0.919067 0.394101 0.000000
vn -0.919067 0.394101 0.000000
vn 0.000000 1.000000 0.000000
vn 0.000000 1.000000 0.000000
vn 0.000000 1.000000 0.000000
vn 0.000000 1.000000 0.000000
vn 0.919071 0.394091 0.000000
vn 0.919071 0.394091 0.000000
vn 0.919071 0.394091 0.000000
vn 0.919071 0.394091 0.000000
vn 0.000000 -1.000000 0.000000
vn 0.000000 -1.000000 0.000000
vn 0.000000 -1.000000 0.000000
vn 0.000000 -1.000000 0.000000
vn 0.000000 0.271445 0.962454
vn 0.000000 0.271445 0.962454
vn 0.000000 0.271445 0.962454
vn 0.000000 0.271445 0.962454
vn 0.000000 0.271445 -0.962454
vn 0.000000 0.271445 -0.962454
vn 0.000000 0.271445 -0.962454
vn 0.000000 0.271445 -0.962454
vn -1.000000 0.000000 0.000000
vn -1.000000 0.000000 0.000000
vn -1.000000 0.000000 0.000000
vn -1.000000 0.000000 0.000000
vn 0.000000 0.000000 1.000000
vn 0.000000 0.000000 1.000000
vn 0.000000 0.000000 1.000000
vn 0.000000 0.000000 1.000000
vn 1.000000 0.000000 0.000000
vn 1.000000 0.000000 0.000000
vn 1.000000 0.000000 0.000000
vn 1.000000 0.000000 0.000000
vn 0.000000 0.000000 -1.000000
vn 0.000000 0.000000 -1.000000
vn 0.000000 0.000000 -1.000000
vn 0.000000 0.000000 -1.000000
vn 0.000045 0.000011 1.000000
vn 0.000045 0.000011 1.000000
vn 0.000045 0.000011 1.000000
vn 0.000045 0.000011 1.000000
vn -1.000000 0.000000 0.000000
vn -1.000000 0.000000 0.000000
vn -1.000000 0.000000 0.000000
vn -1.000000 0.000000 0.000000
vn 0.000000 0.000000 -1.000000
vn 0.000000 0.000000 -1.000000
vn 0.000000 0.000000 -1.000000
vn 0.000000 0.000000 -1.000000
vn 1.000000 0.000000 0.000000
vn 1.000000 0.000000 0.000000
vn 1.000000 0.000000 0.000000
vn 1.000000 0.000000 0.000000
vn -0.894336 -0.447397 0.000000
vn -0.894336 -0.447397 0.000000
vn -0.894336 -0.447397 0.000000
vn -0.894336 -0.447397 0.000000
vn 0.000000 -0.399553 0.916710
vn 0.000000 -0.399553 0.916710
vn 0.000000 -0.399553 0.916710
vn 0.000000 -0.399553 0.916710
vn 0.894343 -0.447383 0.000000
vn 0.894343 -0.447383 0.000000
vn 0.894343 -0.447383 0.000000
vn 0.894343 -0.447383 0.000000
vn 0.000000 -0.399433 -0.916762
vn 0.000000 -0.399433 -0.916762
vn 0.000000 -0.399433 -0.916762
vn 0.000000 -0.399433 -0.916762
vn -0.561187 -0.827689 0.000000
vn -0.561187 -0.827689 0.000000
vn -0.561187 -0.827689 0.000000
vn -0.561187 -0.827689 0.000000
vn 0.000000 -0.827668 0.561218
vn 0.000000 -0.827668 0.561218
vn 0.000000 -0.827668 0.561218
vn 0.000000 -0.827668 0.561218
vn 0.561171 -0.827700 0.000000
vn 0.561171 -0.827700 0.000000
vn 0.561171 -0.827700 0.000000
vn 0.561171 -0.827700 0.000000
vn 0.000000 -0.827753 -0.561093
vn 0.000000 -0.827753 -0.561093
vn 0.000000 -0.827753 -0.561093
vn 0.000000 -0.827753 -0.561093
vn 0.000000 0.000000 1.000000
vn 0.000000 0.000000 1.000000
vn 0.000000 0.000000 1.000000
vn 0.000000 0.000000 1.000000
vn 0.000000 0.000000 -1.000000
vn 0.000000 0.000000 -1.000000
vn 0.000000 0.000000 -1.000000
vn 0.000000 0.000000 -1.000000
vn -0.691644 0.722239 0.000000
vn -0.691644 0.722239 0.000000
vn -0.691644 0.722239 0.000000
vn -0.691644 0.722239 0.000000
vn 0.000057 0.722175 0.691710
vn 0.000057 0.722175 0.691710
vn 0.000057 0.722175 0.691710
vn 0.000057 0.722175 0.691710
vn 0.691610 0.722271 0.000000
vn 0.691610 0.722271 0.000000
vn 0.691610 0.722271 0.000000
vn 0.691610 0.722271 0.000000
vn 0.000002 0.722175 -0.691710
vn 0.000002 0.722175 -0.691710
vn 0.000002 0.722175 -0.691710
vn 0.000002 0.722175 -0.691710
vn -1.000000 0.000000 0.000000
vn -1.000000 0.000000 0.000000
vn -1.000000 0.000000 0.000000
vn -1.000000 0.000000 0.000000
vn 0.000036 -0.000039 1.000000
vn 0.000036 -0.000039 1.000000
vn 0.000036 -0.000039 1.000000
vn 0.000036 -0.000039 1.000000
vn 1.000000 0.000000 0.000000
vn 1.000000 0.000000 0.000000
vn 1.000000 0.000000 0.000000
vn 1.000000 0.000000 0.000000
vn 0.000000 0.000000 -1.000000
vn 0.000000 0.000000 -1.000000
vn 0.000000 0.000000 -1.000000
vn 0.000000 0.000000 -1.000000
vn -1.000000 0.000000 0.000000
vn -1.000000 0.000000 0.000000
vn -1.000000 0.000000 0.000000
vn -1.000000 0.000000 0.000000
vn -0.620676 -0.784068 0.000000
vn -0.620676 -0.784068 0.000000
vn -0.620676 -0.784067 0.000000
vn -0.620676 -0.784067 0.000000
vn -0.501065 0.000000 0.865409
vn -0.501065 0.000000 0.865409
vn -0.501065 0.000000 0.865409
vn -0.501065 0.000000 0.865409
vn -0.620676 0.784068 0.000000
vn -0.620676 0.784068 0.000000
vn -0.620676 0.784067 0.000000
vn -0.620676 0.784067 0.000000
vn -0.501065 0.000000 -0.865409
vn -0.501065 0.000000 -0.865409
vn -0.501065 0.000000 -0.865409
vn -0.501065 0.000000 -0.865409
vn 0.178831 -0.983880 0.000000
vn 0.178831 -0.983880 0.000000
vn 0.178831 -0.983880 0.000000
vn 0.178831 -0.983880 0.000000
vn 0.131610 0.000000 0.991302
vn 0.131610 0.000000 0.991302
vn 0.131610 0.000000 0.991302
vn 0.131610 0.000000 0.991302
vn 0.178831 0.983880 0.000000
vn 0.178831 0.983880 0.000000
vn 0.178831 0.983880 0.000000
vn 0.178831 0.983880 0.000000
vn 0.132020 0.000000 -0.991247
vn 0.132020 0.000000 -0.991247
vn 0.132020 0.000000 -0.991247
vn 0.132020 0.000000 -0.991247
vn 0.676499 -0.736444 0.000000
vn 0.676499 -0.736444 0.000000
vn 0.676499 -0.736444 0.000000
vn 0.676499 -0.736444 0.000000
vn 0.895768 0.000000 0.444522
vn 0.895768 0.000000 0.444522
vn 0.895768 0.000000 0.444522
vn 0.895768 0.000000 0.444522
vn 0.676499 0.736444 0.000000
vn 0.676499 0.736444 0.000000
vn 0.676499 0.736444 0.000000
vn 0.676499 0.736444 0.000000
vn 0.895768 0.000000 -0.444522
vn 0.895768 0.000000 -0.444522
vn 0.895768 0.000000 -0.444522
vn 0.895768 0.000000 -0.444522
vn -0.154814 -0.987944 0.000000
vn -0.154814 -0.987944 0.000000
vn -0.154814 -0.987944 0.000000
vn -0.154814 -0.987944 0.000000
vn -0.161257 0.000000 0.986912
vn -0.161257 0.000000 0.986912
vn -0.161257 0.000000 0.986912
vn -0.161257 0.000000 0.986912
vn -0.154819 0.987943 0.000000
vn -0.154819 0.987943 0.000000
vn -0.154819 0.987943 0.000000
vn -0.154819 0.987943 0.000000
vn -0.161257 0.000000 -0.986912
vn -0.161257 0.000000 -0.986912
vn -0.161257 0.000000 -0.986912
vn -0.161257 0.000000 -0.986912
s off
f 13/1/1 16/4/2 15/3/3 14/2/4
f 17/5/5 1/8/6 2/7/7 18/6/8
f 18/6/9 2/7/10 3/10/11 19/9/12
f 19/9/13 3/10/14 4/12/15 20/11/16
f 20/11/17 4/12/18 1/8/19 17/5/20
f 1/8/21 5/14/22 6/13/23 2/7/24
f 2/7/25 6/13/26 7/15/27 3/10/28
f 3/10/29 7/15/30 8/16/31 4/12/32
f 4/12/33 8/16/34 5/14/35 1/8/36
f 5/14/37 9/18/38 10/17/39 6/13/40
f 6/13/41 10/17/42 11/19/43 7/15/44
f 7/15/45 11/19/46 12/20/47 8/16/48
f 8/16/49 12/20/50 9/18/51 5/14/52
f 9/18/53 13/1/54 14/2/55 10/17/56
f 10/17/57 14/2/58 15/3/59 11/19/60
f 11/19/61 15/3/62 16/4/63 12/20/64
f 12/20/65 16/4/66 13/1/67 9/18/68
f 29/21/69 30/22/70 34/23/71 35/24/72
f 43/25/73 44/26/74 19/27/75 20/28/76
f 36/29/77 33/30/78 31/31/79 32/32/80
f 27/33/81 28/34/82 22/35/83 21/36/84
f 30/22/85 31/31/86 33/30/87 34/23/88
f 32/32/89 29/21/90 35/24/91 36/29/92
f 37/37/93 38/38/94 30/39/95 29/40/96
f 38/38/97 39/41/98 31/42/99 30/39/100
f 32/43/101 31/42/102 39/41/103 40/44/104
f 40/44/105 37/37/106 29/40/107 32/43/108
f 46/45/109 47/46/110 26/47/111 24/48/112
f 45/49/113 46/45/114 24/48/115 23/50/116
f 48/51/117 45/49/118 23/50/119 25/52/120
f 25/53/121 26/54/122 47/55/123 48/56/124
f 21/36/125 22/35/126 38/38/127 37/37/128
f 22/35/129 28/34/130 39/41/131 38/38/132
f 40/44/133 39/41/134 28/34/135 27/33/136
f 27/33/137 21/36/138 37/37/139 40/44/140
f 23/50/141 24/48/142 42/57/143 41/58/144
f 24/48/145 26/54/146 18/59/147 42/57/148
f 26/54/149 25/53/150 17/60/151 18/59/152
f 25/53/153 23/50/154 41/58/155 17/60/156
f 42/57/157 18/59/158 19/27/159 44/26/160
f 17/60/161 41/58/162 43/25/163 20/28/164
f 49/61/165 50/62/166 46/63/167 45/64/168
f 50/62/169 51/65/170 47/66/171 46/63/172
f 48/67/173 47/66/174 51/65/175 52/68/176
f 52/68/177 49/61/178 45/64/179 48/67/180
f 35/24/181 34/23/182 50/62/183 49/61/184
f 34/23/185 33/30/186 51/65/187 50/62/188
f 52/68/189 51/65/190 33/30/191 36/29/192
f 36/29/193 35/24/194 49/61/195 52/68/196
f 65/69/197 66/70/198 67/71/199 68/72/200
f 41/73/201 42/74/202 54/75/203 53/76/204
f 42/74/205 44/77/206 55/78/207 54/75/208
f 44/77/209 43/79/210 56/80/211 55/78/212
f 43/79/213 41/73/214 53/76/215 56/80/216
f 53/76/217 54/75/218 58/81/219 57/82/220
f 54/75/221 55/78/222 59/83/223 58/81/224
f 55/78/225 56/80/226 60/84/227 59/83/228
f 56/80/229 53/76/230 57/82/231 60/84/232
f 57/82/233 58/81/234 62/85/235 61/86/236
f 58/81/237 59/83/238 63/87/239 62/85/240
f 59/83/241 60/84/242 64/88/243 63/87/244
f 60/84/245 57/82/246 61/86/247 64/88/248
f 61/86/249 62/85/250 66/70/251 65/69/252
f 62/85/253 63/87/254 67/71/255 66/70/256
f 63/87/257 64/88/258 68/72/259 67/71/260
f 64/88/261 61/86/262 65/69/263 68/72/264
