# This file uses meters as units for non-parametric coordinates.

v 5.145058 7.004159 4.897367
v 7.276199 7.004159 -0.247687
v 5.145073 7.004159 -5.392741
v 0.000008 7.004159 -7.523889
v -5.145042 7.004159 -5.392741
v -7.276199 7.004159 -0.247687
v -5.145058 7.004159 4.897369
v -0.000008 7.004159 7.028514
v 4.324959 21.268440 4.077268
v 6.116402 21.268440 -0.247687
v 4.324959 21.268440 -4.572640
v 0.000008 21.268440 -6.364094
v -4.324944 21.268440 -4.572640
v -6.116386 21.268440 -0.247687
v -4.324959 21.268440 4.077268
v -0.000008 21.268440 5.868723
v 4.324959 0.000000 4.077268
v 6.116402 0.000000 -0.247687
v 0.000008 0.000000 -0.247687
v 4.324959 0.000000 -4.572640
v 0.000008 0.000000 -6.364094
v -4.324944 0.000000 -4.572640
v -6.116386 0.000000 -0.247687
v -4.324959 0.000000 4.077268
v -0.000008 0.000000 5.868723
v 3.538315 21.268440 3.290627
v 5.003929 21.268440 -0.247687
v 3.538322 21.268440 -3.786001
v 0.000008 21.268440 -5.251619
v -3.538315 21.268440 -3.786001
v -5.003929 21.268440 -0.247687
v -3.538315 21.268440 3.290629
v -0.000008 21.268440 4.756247
v 3.252792 9.152394 3.005106
v 4.600143 9.152394 -0.247687
v 0.000008 9.152394 -0.247687
v 3.252792 9.152394 -3.500480
v 0.000008 9.152394 -4.847830
v -3.252777 9.152394 -3.500480
v -4.600136 9.152394 -0.247687
v -3.252792 9.152394 3.005108
v -0.000008 9.152394 4.352459
v 0.664528 3.043358 -2.273555
v 0.693619 2.919691 -1.815640
v 1.729584 27.570820 5.054630
v 1.801308 27.265903 6.183669
v 3.941833 27.460186 4.884222
v 4.013557 27.155270 6.013261
v 1.436890 3.004734 -2.333049
v 1.465973 2.881067 -1.875134
v 2.651855 17.082935 1.718169
v 2.580132 17.387850 0.589130
v 1.413361 17.446199 0.679007
v 1.485077 17.141283 1.808046
v 2.148567 4.114407 -1.224020
v 2.076859 4.419324 -2.353059
v 0.172516 4.514557 -2.206370
v 0.244240 4.209641 -1.077330
v 2.559708 32.728622 6.394847
v 2.631424 32.423706 7.523889
v 3.913620 32.359589 7.425122
v 3.841896 32.664505 6.296083
v 1.434631 27.688688 3.201940
v 3.960518 27.562374 3.007372
v 2.382446 33.577682 4.732153
v 3.846405 33.504471 4.619384
v 0.513733 1.935112 -1.428062
v 0.049583 1.856003 -1.492332
v -4.090637 26.954609 -4.470654
v -5.235046 26.759560 -4.629120
v -4.418465 27.096729 -2.278012
v -5.562881 26.901678 -2.436479
v 0.399284 1.984728 -0.662552
v -0.064865 1.905620 -0.726823
v -2.224396 16.404577 -1.788817
v -1.079987 16.599628 -1.630351
v -0.907074 16.524673 -2.786782
v -2.051506 16.329622 -2.945250
v -0.707153 3.263919 -0.335027
v 0.437256 3.458970 -0.176559
v 0.719460 3.336634 -2.064013
v -0.424957 3.141583 -2.222479
v -4.995872 32.271446 -4.477467
v -6.140282 32.076393 -4.635933
v -6.330299 32.158760 -3.365111
v -5.185883 32.353813 -3.206647
v -2.216812 26.875093 -4.344885
v -2.591125 27.037357 -1.841395
v -3.250381 32.945663 -4.352660
v -3.467323 33.039707 -2.901678
vt 0.220885 0.328456
vt 0.220886 0.328456
vt 0.220885 0.328456
vt 0.220886 0.328456
vt 0.220886 0.328456
vt 0.220886 0.328456
vt 0.220885 0.328456
vt 0.220886 0.328456
vt 0.383923 0.009855
vt 0.383923 0.009855
vt 0.383923 0.009855
vt 0.383923 0.009855
vt 0.383923 0.009855
vt 0.383923 0.009855
vt 0.383923 0.009855
vt 0.383923 0.009855
vt 0.383923 0.009855
vt 0.383923 0.009855
vt 0.383923 0.009855
vt 0.383923 0.009855
vt 0.383923 0.009855
vt 0.383923 0.009855
vt 0.383923 0.009855
vt 0.383923 0.009855
vt 0.383923 0.009855
vt 0.383923 0.009855
vt 0.383923 0.009855
vt 0.383923 0.009855
vt 0.383923 0.009855
vt 0.383923 0.009855
vt 0.383923 0.009855
vt 0.383923 0.009855
vt 0.383923 0.009855
vt 0.383923 0.009855
vt 0.220886 0.328456
vt 0.383923 0.009855
vt 0.220885 0.328458
vt 0.220886 0.328458
vt 0.220886 0.328458
vt 0.220886 0.328458
vt 0.220886 0.328458
vt 0.220885 0.328458
vt 0.220886 0.328458
vt 0.220886 0.328458
vt 0.383923 0.009855
vt 0.383923 0.009855
vt 0.383923 0.009855
vt 0.383923 0.009855
vt 0.383923 0.009855
vt 0.383923 0.009855
vt 0.383923 0.009855
vt 0.383923 0.009855
vt 0.383923 0.009855
vt 0.383923 0.009855
vt 0.383923 0.009855
vt 0.383923 0.009855
vt 0.383923 0.009855
vt 0.383923 0.009855
vt 0.383923 0.009855
vt 0.383923 0.009855
vt 0.322931 0.449081
vt 0.322931 0.449081
vt 0.322931 0.449081
vt 0.322931 0.449081
vt 0.322931 0.449081
vt 0.322931 0.449081
vt 0.322931 0.449081
vt 0.322931 0.449081
vt 0.322931 0.449081
vt 0.322931 0.449081
vt 0.322931 0.449081
vt 0.322931 0.449081
vt 0.322931 0.449081
vt 0.322931 0.449081
vt 0.322931 0.449081
vt 0.322931 0.449081
vt 0.322931 0.449081
vt 0.322931 0.449081
vt 0.322931 0.449081
vt 0.322931 0.449081
vt 0.322931 0.449081
vt 0.322931 0.449081
vt 0.322931 0.449081
vt 0.322931 0.449081
vt 0.322931 0.449081
vt 0.322931 0.449081
vt 0.322931 0.449081
vt 0.322931 0.449081
vt 0.322931 0.449081
vt 0.322931 0.449081
vt 0.217239 0.378137
vt 0.217239 0.378137
vt 0.217239 0.378138
vt 0.217239 0.378138
vt 0.217239 0.378137
vt 0.217239 0.378137
vt 0.217239 0.378138
vt 0.217239 0.378138
vt 0.110305 0.473875
vt 0.110305 0.473875
vt 0.110305 0.473875
vt 0.110305 0.473875
vt 0.110305 0.473875
vt 0.110305 0.473875
vt 0.110305 0.473875
vt 0.110305 0.473875
vt 0.110305 0.473875
vt 0.110305 0.473875
vt 0.110305 0.473875
vt 0.110305 0.473875
vt 0.110305 0.473875
vt 0.110305 0.473875
vt 0.110305 0.473875
vt 0.110305 0.473875
vt 0.110305 0.473875
vt 0.110305 0.473875
vt 0.110305 0.473875
vt 0.110305 0.473875
vt 0.110305 0.473875
vt 0.110305 0.473875
vt 0.110305 0.473875
vt 0.110305 0.473875
vt 0.110305 0.473875
vt 0.110305 0.473875
vt 0.110305 0.473875
vt 0.110305 0.473875
vt 0.110305 0.473875
vt 0.110305 0.473875
vt 0.217239 0.378137
vt 0.217239 0.378137
vt 0.217239 0.378138
vt 0.217239 0.378138
vt 0.217239 0.378137
vt 0.217239 0.378137
vt 0.217239 0.378138
vt 0.217239 0.378138
vn 0.921285 0.074908 0.381606
vn 0.921285 0.074908 0.381606
vn 0.921285 0.074908 0.381606
vn 0.921285 0.074908 0.381606
vn 0.921285 0.074908 -0.381605
vn 0.921285 0.074908 -0.381605
vn 0.921285 0.074908 -0.381605
vn 0.921285 0.074908 -0.381605
vn 0.381608 0.074908 -0.921284
vn 0.381608 0.074908 -0.921284
vn 0.381608 0.074908 -0.921284
vn 0.381608 0.074908 -0.921284
vn -0.381608 0.074907 -0.921284
vn -0.381608 0.074907 -0.921284
vn -0.381608 0.074907 -0.921284
vn -0.381608 0.074907 -0.921284
vn -0.921284 0.074908 -0.381608
vn -0.921284 0.074908 -0.381608
vn -0.921284 0.074908 -0.381608
vn -0.921284 0.074908 -0.381608
vn -0.921285 0.074908 0.381605
vn -0.921285 0.074908 0.381605
vn -0.921285 0.074908 0.381605
vn -0.921285 0.074908 0.381605
vn -0.381608 0.074907 0.921284
vn -0.381608 0.074907 0.921284
vn -0.381608 0.074907 0.921284
vn -0.381608 0.074907 0.921284
vn 0.381607 0.074907 0.921284
vn 0.381607 0.074907 0.921284
vn 0.381607 0.074907 0.921284
vn 0.381607 0.074907 0.921284
vn 0.000000 -1.000000 0.000000
vn 0.000000 -1.000000 0.000000
vn 0.000000 -1.000000 0.000000
vn 0.000000 -1.000000 0.000000
vn 0.000000 -1.000000 0.000000
vn 0.000000 -1.000000 0.000000
vn 0.000000 -1.000000 0.000000
vn 0.000000 -1.000000 0.000000
vn 0.000000 -1.000000 0.000000
vn 0.000000 -1.000000 0.000000
vn 0.000000 -1.000000 0.000000
vn 0.000000 -1.000000 0.000000
vn 0.000000 -1.000000 0.000000
vn 0.000000 -1.000000 0.000000
vn 0.000000 -1.000000 0.000000
vn 0.000000 -1.000000 0.000000
vn 0.000000 -1.000000 0.000000
vn 0.000000 -1.000000 0.000000
vn 0.000000 -1.000000 0.000000
vn 0.000000 -1.000000 0.000000
vn 0.000000 -1.000000 0.000000
vn 0.000000 -1.000000 0.000000
vn 0.000000 -1.000000 0.000000
vn 0.000000 -1.000000 0.000000
vn 0.000000 1.000000 -0.000000
vn 0.000000 1.000000 -0.000000
vn 0.000000 1.000000 -0.000000
vn 0.000000 1.000000 0.000000
vn 0.000000 1.000000 0.000000
vn 0.000000 1.000000 0.000000
vn 0.000000 1.000000 0.000000
vn 0.000000 1.000000 0.000000
vn 0.000000 1.000000 0.000000
vn 0.000000 1.000000 0.000000
vn 0.000000 1.000000 0.000000
vn 0.000000 1.000000 0.000000
vn 0.000000 1.000000 0.000000
vn 0.000000 1.000000 0.000000
vn 0.000000 1.000000 0.000000
vn 0.000000 1.000000 0.000000
vn 0.000000 1.000000 0.000000
vn 0.000000 1.000000 0.000000
vn 0.000000 1.000000 0.000000
vn 0.000000 1.000000 0.000000
vn 0.000000 1.000000 0.000000
vn 0.000000 1.000000 0.000000
vn 0.000000 1.000000 0.000000
vn 0.000000 1.000000 0.000000
vn 0.913255 -0.151223 0.378281
vn 0.913255 -0.151223 0.378281
vn 0.913255 -0.151223 0.378281
vn 0.913255 -0.151223 0.378281
vn 0.913256 -0.151224 -0.378279
vn 0.913256 -0.151224 -0.378279
vn 0.913256 -0.151224 -0.378279
vn 0.913256 -0.151224 -0.378279
vn 0.378282 -0.151223 -0.913255
vn 0.378282 -0.151223 -0.913255
vn 0.378282 -0.151223 -0.913255
vn 0.378282 -0.151223 -0.913255
vn -0.378282 -0.151223 -0.913255
vn -0.378282 -0.151223 -0.913255
vn -0.378282 -0.151223 -0.913255
vn -0.378282 -0.151223 -0.913255
vn -0.913255 -0.151224 -0.378282
vn -0.913255 -0.151224 -0.378282
vn -0.913255 -0.151224 -0.378282
vn -0.913255 -0.151224 -0.378282
vn -0.913256 -0.151224 0.378279
vn -0.913256 -0.151224 0.378279
vn -0.913256 -0.151224 0.378279
vn -0.913256 -0.151224 0.378279
vn -0.378282 -0.151223 0.913255
vn -0.378282 -0.151223 0.913255
vn -0.378282 -0.151223 0.913255
vn -0.378282 -0.151223 0.913255
vn 0.378281 -0.151223 0.913255
vn 0.378281 -0.151223 0.913255
vn 0.378281 -0.151223 0.913255
vn 0.378281 -0.151223 0.913255
vn 0.000000 1.000000 0.000000
vn 0.000000 1.000000 0.000000
vn 0.000000 1.000000 0.000000
vn 0.000000 1.000000 0.000000
vn 0.000000 1.000000 0.000001
vn 0.000000 1.000000 0.000001
vn 0.000000 1.000000 0.000001
vn 0.000000 1.000000 0.000001
vn 0.000000 1.000000 -0.000001
vn 0.000000 1.000000 -0.000001
vn 0.000000 1.000000 -0.000001
vn 0.000000 1.000000 -0.000001
vn 0.000000 1.000000 -0.000002
vn 0.000000 1.000000 -0.000002
vn 0.000000 1.000000 -0.000002
vn 0.000000 1.000000 -0.000002
vn 0.000000 1.000000 0.000000
vn 0.000000 1.000000 0.000000
vn 0.000000 1.000000 0.000000
vn 0.000000 1.000000 0.000000
vn 0.000000 1.000000 0.000000
vn 0.000000 1.000000 0.000000
vn 0.000000 1.000000 0.000000
vn 0.000000 1.000000 0.000000
vn 0.000000 1.000000 0.000000
vn 0.000000 1.000000 0.000000
vn 0.000000 1.000000 0.000000
vn 0.000000 1.000000 0.000000
vn 0.000000 1.000000 0.000000
vn 0.000000 1.000000 0.000000
vn 0.000000 1.000000 0.000000
vn 0.000000 1.000000 0.000000
vn -0.923442 0.030775 -0.382502
vn -0.923442 0.030775 -0.382502
vn -0.923442 0.030775 -0.382502
vn -0.923442 0.030775 -0.382502
vn -0.923442 0.030776 0.382501
vn -0.923442 0.030776 0.382501
vn -0.923443 0.030776 0.382501
vn -0.923443 0.030776 0.382501
vn -0.382502 0.030775 0.923442
vn -0.382502 0.030775 0.923442
vn -0.382502 0.030775 0.923442
vn -0.382502 0.030775 0.923442
vn 0.382502 0.030776 0.923442
vn 0.382502 0.030776 0.923442
vn 0.382502 0.030776 0.923442
vn 0.382502 0.030776 0.923442
vn 0.923442 0.030776 0.382503
vn 0.923442 0.030776 0.382503
vn 0.923442 0.030776 0.382503
vn 0.923442 0.030776 0.382503
vn 0.923443 0.030776 -0.382501
vn 0.923442 0.030776 -0.382501
vn 0.923442 0.030776 -0.382501
vn 0.923442 0.030776 -0.382501
vn 0.382503 0.030775 -0.923442
vn 0.382503 0.030775 -0.923442
vn 0.382503 0.030775 -0.923442
vn 0.382503 0.030775 -0.923442
vn -0.382502 0.030775 -0.923442
vn -0.382502 0.030775 -0.923442
vn -0.382502 0.030775 -0.923442
vn -0.382502 0.030775 -0.923442
vn -0.997925 0.003378 0.064304
vn -0.997925 0.003378 0.064304
vn -0.997925 0.003378 0.064304
vn -0.997925 0.003378 0.064304
vn 0.067946 0.964260 0.256097
vn 0.067946 0.964260 0.256097
vn 0.067946 0.964260 0.256097
vn 0.067946 0.964260 0.256097
vn 0.991390 -0.096105 -0.088934
vn 0.991390 -0.096105 -0.088934
vn 0.991390 -0.096105 -0.088934
vn 0.991390 -0.096105 -0.088934
vn -0.067948 -0.964260 -0.256097
vn -0.067948 -0.964260 -0.256097
vn -0.067948 -0.964260 -0.256097
vn -0.067948 -0.964260 -0.256098
vn 0.050693 -0.397537 0.916185
vn 0.050693 -0.397537 0.916185
vn 0.050693 -0.397537 0.916185
vn 0.050693 -0.397537 0.916185
vn -0.050693 0.397537 -0.916185
vn -0.050693 0.397537 -0.916185
vn -0.050693 0.397537 -0.916185
vn -0.050693 0.397537 -0.916185
vn 0.997316 -0.022927 -0.069541
vn 0.997316 -0.022927 -0.069541
vn 0.997316 -0.022927 -0.069541
vn 0.997316 -0.022927 -0.069541
vn -0.063766 0.223152 -0.972696
vn -0.063766 0.223152 -0.972696
vn -0.063766 0.223152 -0.972696
vn -0.063766 0.223152 -0.972696
vn -0.993531 0.076633 0.083808
vn -0.993531 0.076633 0.083808
vn -0.993531 0.076633 0.083808
vn -0.993531 0.076633 0.083808
vn 0.063767 -0.223152 0.972696
vn 0.063767 -0.223152 0.972696
vn 0.063767 -0.223152 0.972696
vn 0.063767 -0.223152 0.972696
vn 0.897372 -0.408343 -0.167274
vn 0.897371 -0.408343 -0.167274
vn 0.897371 -0.408343 -0.167274
vn 0.897371 -0.408343 -0.167274
vn -0.075782 0.020182 -0.996920
vn -0.075782 0.020182 -0.996920
vn -0.075782 0.020182 -0.996920
vn -0.075782 0.020182 -0.996920
vn -0.948416 -0.316033 -0.025100
vn -0.948416 -0.316033 -0.025100
vn -0.948416 -0.316033 -0.025100
vn -0.948416 -0.316033 -0.025100
vn 0.043032 -0.484951 0.873482
vn 0.043032 -0.484951 0.873482
vn 0.043032 -0.484951 0.873482
vn 0.043032 -0.484951 0.873482
vn -0.986186 0.133103 0.098592
vn -0.986186 0.133103 0.098592
vn -0.986186 0.133103 0.098592
vn -0.986186 0.133103 0.098592
vn 0.061212 -0.260237 0.963603
vn 0.061212 -0.260237 0.963603
vn 0.061212 -0.260237 0.963603
vn 0.061212 -0.260237 0.963603
vn 0.997953 0.033880 -0.054247
vn 0.997953 0.033880 -0.054247
vn 0.997953 0.033880 -0.054247
vn 0.997953 0.033880 -0.054247
vn -0.061212 0.260237 -0.963603
vn -0.061212 0.260237 -0.963602
vn -0.061212 0.260237 -0.963602
vn -0.061212 0.260237 -0.963603
vn -0.054083 -0.997030 -0.054821
vn -0.054083 -0.997030 -0.054821
vn -0.054083 -0.997030 -0.054821
vn -0.054083 -0.997030 -0.054821
vn -0.979817 0.115260 0.163320
vn -0.979817 0.115260 0.163320
vn -0.979817 0.115260 0.163320
vn -0.979817 0.115260 0.163320
vn 0.078974 0.891204 0.446674
vn 0.078974 0.891204 0.446674
vn 0.078974 0.891204 0.446674
vn 0.078974 0.891204 0.446674
vn 0.999809 0.016260 0.010837
vn 0.999809 0.016260 0.010837
vn 0.999809 0.016260 0.010837
vn 0.999809 0.016260 0.010837
vn 0.154882 -0.111209 -0.981654
vn 0.154882 -0.111209 -0.981654
vn 0.154882 -0.111209 -0.981654
vn 0.154882 -0.111209 -0.981654
vn -0.155654 0.983969 -0.087046
vn -0.155654 0.983969 -0.087046
vn -0.155654 0.983969 -0.087046
vn -0.155654 0.983969 -0.087046
vn -0.139915 0.016585 0.990025
vn -0.139915 0.016585 0.990025
vn -0.139915 0.016585 0.990025
vn -0.139915 0.016585 0.990025
vn 0.155651 -0.983969 0.087047
vn 0.155651 -0.983969 0.087047
vn 0.155651 -0.983969 0.087047
vn 0.155651 -0.983969 0.087047
vn -0.943761 -0.307627 -0.121164
vn -0.943761 -0.307627 -0.121164
vn -0.943761 -0.307627 -0.121164
vn -0.943761 -0.307627 -0.121164
vn 0.943760 0.307628 0.121168
vn 0.943760 0.307628 0.121168
vn 0.943760 0.307628 0.121168
vn 0.943760 0.307628 0.121168
vn -0.151848 0.091349 0.984173
vn -0.151848 0.091349 0.984174
vn -0.151848 0.091349 0.984174
vn -0.151848 0.091349 0.984174
vn 0.981967 0.128700 0.138480
vn 0.981967 0.128700 0.138480
vn 0.981967 0.128700 0.138480
vn 0.981967 0.128700 0.138480
vn 0.143177 -0.036545 -0.989022
vn 0.143177 -0.036545 -0.989022
vn 0.143177 -0.036545 -0.989022
vn 0.143177 -0.036545 -0.989022
vn -0.981969 -0.128700 -0.138471
vn -0.981969 -0.128700 -0.138471
vn -0.981969 -0.128700 -0.138471
vn -0.981969 -0.128700 -0.138471
vn -0.078301 -0.310302 0.947408
vn -0.078301 -0.310302 0.947408
vn -0.078301 -0.310302 0.947408
vn -0.078301 -0.310302 0.947408
vn 0.985451 -0.075571 0.152236
vn 0.985451 -0.075571 0.152236
vn 0.985451 -0.075571 0.152236
vn 0.985451 -0.075571 0.152236
vn 0.195228 -0.428877 -0.882015
vn 0.195228 -0.428877 -0.882015
vn 0.195228 -0.428877 -0.882015
vn 0.195228 -0.428877 -0.882015
vn -0.910429 -0.398697 -0.110277
vn -0.910429 -0.398697 -0.110277
vn -0.910429 -0.398697 -0.110277
vn -0.910429 -0.398697 -0.110277
vn 0.133539 0.021466 -0.990811
vn 0.133539 0.021466 -0.990811
vn 0.133539 0.021466 -0.990811
vn 0.133539 0.021466 -0.990811
vn -0.976727 -0.166470 -0.135249
vn -0.976727 -0.166470 -0.135249
vn -0.976727 -0.166470 -0.135249
vn -0.976727 -0.166470 -0.135249
vn -0.160492 0.148930 0.975737
vn -0.160492 0.148930 0.975737
vn -0.160492 0.148930 0.975737
vn -0.160492 0.148930 0.975737
vn 0.976727 0.166469 0.135246
vn 0.976727 0.166469 0.135246
vn 0.976727 0.166470 0.135246
vn 0.976727 0.166469 0.135246
vn -0.046195 -0.997263 0.057731
vn -0.046195 -0.997263 0.057731
vn -0.046195 -0.997263 0.057731
vn -0.046195 -0.997263 0.057731
vn 0.067396 0.010197 -0.997674
vn 0.067396 0.010197 -0.997674
vn 0.067396 0.010197 -0.997674
vn 0.067396 0.010197 -0.997674
vn -0.350996 0.929567 -0.112730
vn -0.350996 0.929567 -0.112730
vn -0.350996 0.929567 -0.112730
vn -0.350996 0.929567 -0.112730
vn -0.225966 0.137370 0.964401
vn -0.225966 0.137370 0.964401
vn -0.225966 0.137370 0.964401
vn -0.225966 0.137370 0.964401
s off
f 1/9/1 2/10/2 10/19/3 9/18/4
f 2/10/5 3/11/6 11/20/7 10/19/8
f 3/11/9 4/12/10 12/21/11 11/20/12
f 4/12/13 5/13/14 13/22/15 12/21/16
f 5/13/17 6/14/18 14/23/19 13/22/20
f 6/14/21 7/15/22 15/24/23 14/23/24
f 7/15/25 8/16/26 16/25/27 15/24/28
f 8/16/29 1/17/30 9/26/31 16/25/32
f 18/1/33 17/2/34 19/3/35
f 20/4/36 18/1/37 19/3/38
f 21/5/39 20/4/40 19/3/41
f 22/6/42 21/5/43 19/3/44
f 23/7/45 22/6/46 19/3/47
f 24/8/48 23/7/49 19/3/50
f 25/35/51 24/8/52 19/3/53
f 17/2/54 25/35/55 19/3/56
f 34/53/57 35/54/58 36/36/59
f 35/54/60 37/55/61 36/36/62
f 37/55/63 38/56/64 36/36/65
f 38/56/66 39/57/67 36/36/68
f 39/57/69 40/58/70 36/36/71
f 40/58/72 41/59/73 36/36/74
f 41/59/75 42/60/76 36/36/77
f 42/60/78 34/53/79 36/36/80
f 2/37/81 1/38/82 17/2/83 18/1/84
f 3/39/85 2/37/86 18/1/87 20/4/88
f 4/40/89 3/39/90 20/4/91 21/5/92
f 5/41/93 4/40/94 21/5/95 22/6/96
f 6/42/97 5/41/98 22/6/99 23/7/100
f 7/43/101 6/42/102 23/7/103 24/8/104
f 8/44/105 7/43/106 24/8/107 25/35/108
f 1/38/109 8/44/110 25/35/111 17/2/112
f 9/33/113 10/32/114 27/46/115 26/45/116
f 10/32/117 11/31/118 28/47/119 27/46/120
f 11/31/121 12/30/122 29/48/123 28/47/124
f 12/30/125 13/29/126 30/49/127 29/48/128
f 13/29/129 14/28/130 31/50/131 30/49/132
f 14/28/133 15/27/134 32/51/135 31/50/136
f 15/27/137 16/34/138 33/52/139 32/51/140
f 16/34/141 9/33/142 26/45/143 33/52/144
f 26/45/145 27/46/146 35/54/147 34/53/148
f 27/46/149 28/47/150 37/55/151 35/54/152
f 28/47/153 29/48/154 38/56/155 37/55/156
f 29/48/157 30/49/158 39/57/159 38/56/160
f 30/49/161 31/50/162 40/58/163 39/57/164
f 31/50/165 32/51/166 41/59/167 40/58/168
f 32/51/169 33/52/170 42/60/171 41/59/172
f 33/52/173 26/45/174 34/53/175 42/60/176
f 53/61/177 54/62/178 46/63/179 45/64/180
f 59/65/181 60/66/182 61/67/183 62/68/184
f 47/69/185 48/70/186 51/71/187 52/72/188
f 49/73/189 50/74/190 44/75/191 43/76/192
f 54/62/193 51/77/194 48/78/195 46/63/196
f 52/79/197 53/61/198 45/64/199 47/80/200
f 52/72/201 51/71/202 55/81/203 56/82/204
f 56/83/205 57/84/206 53/61/207 52/79/208
f 57/84/209 58/85/210 54/62/211 53/61/212
f 58/85/213 55/86/214 51/77/215 54/62/216
f 56/82/217 55/81/218 50/74/219 49/73/220
f 49/87/221 43/88/222 57/84/223 56/83/224
f 43/88/225 44/89/226 58/85/227 57/84/228
f 44/89/229 50/90/230 55/86/231 58/85/232
f 45/64/233 46/63/234 60/66/235 59/65/236
f 46/63/237 48/70/238 61/67/239 60/66/240
f 48/70/241 47/69/242 62/68/243 61/67/244
f 64/91/245 63/92/246 65/93/247 66/94/248
f 47/95/249 45/96/250 63/92/251 64/91/252
f 45/96/253 59/97/254 65/93/255 63/92/256
f 59/97/257 62/98/258 66/94/259 65/93/260
f 62/98/261 47/95/262 64/91/263 66/94/264
f 77/99/265 78/100/266 70/101/267 69/102/268
f 83/103/269 84/104/270 85/105/271 86/106/272
f 71/107/273 72/108/274 75/109/275 76/110/276
f 73/111/277 74/112/278 68/113/279 67/114/280
f 78/100/281 75/115/282 72/116/283 70/101/284
f 76/117/285 77/99/286 69/102/287 71/118/288
f 76/110/289 75/109/290 79/119/291 80/120/292
f 80/121/293 81/122/294 77/99/295 76/117/296
f 81/122/297 82/123/298 78/100/299 77/99/300
f 82/123/301 79/124/302 75/115/303 78/100/304
f 80/120/305 79/119/306 74/112/307 73/111/308
f 73/125/309 67/126/310 81/122/311 80/121/312
f 67/126/313 68/127/314 82/123/315 81/122/316
f 68/127/317 74/128/318 79/124/319 82/123/320
f 69/102/321 70/101/322 84/104/323 83/103/324
f 70/101/325 72/108/326 85/105/327 84/104/328
f 72/108/329 71/107/330 86/106/331 85/105/332
f 88/129/333 87/130/334 89/131/335 90/132/336
f 71/133/337 69/134/338 87/130/339 88/129/340
f 69/134/341 83/135/342 89/131/343 87/130/344
f 83/135/345 86/136/346 90/132/347 89/131/348
f 86/136/349 71/133/350 88/129/351 90/132/352
