# This file uses meters as units for non-parametric coordinates.

v 5.660522 1.242310 2.874878
v -7.626221 -1.659073 2.009033
v 1.985718 0.914642 16.506714
v -0.713989 3.892960 16.262085
v -4.640503 3.035721 16.006226
v -5.867432 -0.799774 15.994995
v -0.377686 -1.832443 19.291260
v 0.423828 0.673004 19.298584
v -2.219360 0.134674 20.265137
v -1.339233 2.618393 19.138916
v -3.904175 2.058517 18.971680
v -4.705688 -0.446930 18.964355
v -2.942261 -2.392456 19.124146
v -2.106079 3.169724 23.026855
v -3.885864 2.781311 22.910767
v -2.716797 1.446304 23.808350
v -4.979980 1.519592 25.281006
v -5.488037 -0.068848 25.276489
v -3.911743 0.299881 26.101074
v -4.798218 -1.259171 21.818604
v -3.764648 -2.399277 21.912231
v -3.341064 -0.918320 22.580933
v -1.985229 -2.364319 24.831055
v -0.567139 -2.054703 24.923462
v -1.585571 -0.966934 25.462036
v -0.196045 -0.337479 23.630859
v 0.176880 0.828262 23.634277
v -1.053101 0.577744 24.083984
v 0.268433 1.608444 22.025635
v -0.738647 2.719727 21.934326
v -1.241455 1.301010 22.577637
v 1.343018 -1.094406 16.500732
v 6.100586 1.347961 -3.933716
v 3.463745 3.665939 2.675781
v -4.730103 -2.054504 16.097900
v -7.404175 -1.694351 -5.922729
v -6.857666 0.743179 2.016113
v 5.636108 -6.428391 -15.950195
v 8.050171 1.114960 -15.927734
v 7.029297 1.248657 -6.336304
v 6.553711 0.406601 2.572388
v 4.348511 -6.082321 2.791626
v 2.740356 6.971519 -16.408813
v -4.983154 5.284920 -16.912109
v -6.295898 5.659393 1.830078
v 1.445801 7.350006 2.334595
v -7.397461 -2.258415 -16.934326
v -7.552612 -2.018860 -9.726563
v -7.773315 1.320679 1.528687
v -2.088013 -8.114868 -16.453613
v -3.393433 -7.772720 2.287109
v -8.050293 -2.776550 1.627197
v 2.864258 -2.957069 -23.491577
v 3.789551 -0.064575 -23.483032
v 0.835571 -0.713127 -23.773804
v 1.754028 2.181435 -23.667358
v -1.207153 1.535034 -23.860474
v -2.132446 -1.357559 -23.868896
v -0.096558 -3.603828 -23.684448
v 4.506714 -4.879646 -21.397217
v 6.239258 0.536629 -21.381348
v 2.427246 4.742287 -21.726685
v -3.117432 3.531845 -22.088013
v -4.849976 -1.884430 -22.103882
v -1.037964 -6.090164 -21.758545
v -5.246826 3.881134 15.361816
v -0.451782 4.941727 15.684692
v -3.504150 -4.791962 16.387695
v -5.472046 -2.952301 15.696899
v 1.464355 -3.707031 16.711426
v -3.177612 -3.309586 19.148560
v 0.207275 -2.578735 19.372559
v 2.447754 -1.550049 16.216064
v 4.171143 4.513702 2.298218
vt 0.145500 0.330357
vt 0.145500 0.330357
vt 0.145500 0.330357
vt 0.145500 0.330357
vt 0.145500 0.356352
vt 0.145500 0.356352
vt 0.145500 0.356352
vt 0.145500 0.330357
vt 0.145500 0.330357
vt 0.145500 0.330357
vt 0.145500 0.330357
vt 0.145500 0.330357
vt 0.145500 0.330357
vt 0.145500 0.330357
vt 0.145500 0.330357
vt 0.145500 0.330357
vt 0.145500 0.330357
vt 0.145500 0.330357
vt 0.145500 0.330357
vt 0.145500 0.330357
vt 0.145500 0.330357
vt 0.145500 0.330357
vt 0.145500 0.330357
vt 0.145500 0.330357
vt 0.145500 0.330357
vt 0.145500 0.330357
vt 0.145500 0.330357
vt 0.145500 0.330357
vt 0.145500 0.330357
vt 0.145500 0.330357
vt 0.145500 0.330357
vt 0.145500 0.330357
vt 0.145500 0.330357
vt 0.145500 0.330357
vt 0.145500 0.330357
vt 0.145500 0.330357
vt 0.145500 0.330357
vt 0.145500 0.330357
vt 0.145500 0.330357
vt 0.145500 0.330357
vt 0.145500 0.330357
vt 0.047607 0.377899
vt 0.047607 0.377899
vt 0.047607 0.377899
vt 0.047607 0.377899
vt 0.047607 0.377899
vt 0.047607 0.377899
vt 0.047607 0.377899
vt 0.047607 0.377899
vt 0.047607 0.377899
vt 0.047607 0.377899
vt 0.047607 0.377899
vt 0.047607 0.377899
vt 0.047607 0.377899
vt 0.047607 0.377899
vt 0.047607 0.377899
vt 0.047607 0.377899
vt 0.047607 0.377899
vt 0.047607 0.377899
vt 0.145500 0.330357
vt 0.145500 0.330357
vt 0.145500 0.330357
vt 0.145500 0.330357
vt 0.145500 0.330357
vt 0.145500 0.330357
vt 0.145500 0.330357
vt 0.145500 0.330357
vt 0.145500 0.330357
vt 0.145500 0.330357
vt 0.145500 0.330357
vt 0.145500 0.330357
vt 0.145500 0.330357
vt 0.145500 0.330357
vt 0.145500 0.330357
vt 0.145500 0.330357
vt 0.145500 0.330357
vt 0.145500 0.330357
vt 0.145500 0.330357
vt 0.145500 0.330357
vt 0.145500 0.330357
vt 0.145500 0.330357
vt 0.145500 0.330357
vt 0.145500 0.330357
vt 0.145500 0.356352
vt 0.145500 0.356352
vt 0.145500 0.356352
vt 0.145500 0.356352
vt 0.145500 0.356352
vt 0.145500 0.330357
vt 0.145500 0.330357
vt 0.145500 0.330357
vt 0.145500 0.330357
vt 0.145500 0.330357
vt 0.145500 0.330357
vt 0.145500 0.330357
vt 0.145500 0.330357
vt 0.145500 0.330357
vt 0.145500 0.330357
vt 0.145500 0.330357
vt 0.145500 0.330357
vt 0.145500 0.330357
vt 0.145500 0.330357
vt 0.145500 0.330357
vt 0.145500 0.330357
vt 0.145500 0.330357
vt 0.145500 0.330357
vt 0.145500 0.330357
vt 0.145500 0.330357
vt 0.145500 0.330357
vt 0.145500 0.330357
vt 0.145500 0.330357
vt 0.145500 0.330357
vt 0.145500 0.330357
vt 0.145500 0.330357
vt 0.145500 0.330357
vt 0.145500 0.330357
vt 0.145500 0.330357
vt 0.145500 0.330357
vt 0.145500 0.330357
vt 0.145500 0.330357
vt 0.145500 0.330357
vt 0.145500 0.330357
vt 0.145500 0.330357
vt 0.145500 0.330357
vt 0.145500 0.330357
vt 0.145500 0.330357
vt 0.145500 0.330357
vt 0.145500 0.356352
vt 0.145500 0.356352
vt 0.145500 0.356352
vt 0.145500 0.356352
vt 0.145500 0.356352
vt 0.145500 0.356352
vt 0.145500 0.356352
vt 0.145500 0.330357
vt 0.145500 0.330357
vt 0.145500 0.330357
vt 0.145500 0.330357
vt 0.145500 0.330357
vt 0.145500 0.330357
vt 0.145500 0.330357
vt 0.047607 0.377899
vt 0.047607 0.377899
vt 0.047607 0.377899
vt 0.047607 0.377899
vt 0.047607 0.377899
vt 0.047607 0.377899
vt 0.047607 0.377899
vt 0.145500 0.330357
vt 0.145500 0.330357
vt 0.145500 0.330357
vt 0.145500 0.330357
vt 0.145500 0.330357
vt 0.145500 0.330357
vt 0.145500 0.330357
vt 0.145500 0.330357
vt 0.145500 0.330357
vt 0.145500 0.330357
vt 0.145500 0.330357
vt 0.145500 0.330357
vt 0.145500 0.330357
vt 0.145500 0.330357
vt 0.145500 0.356352
vt 0.145500 0.356352
vt 0.145500 0.356352
vt 0.145500 0.356352
vt 0.145500 0.356352
vt 0.145500 0.356352
vt 0.145500 0.356352
vt 0.145500 0.330357
vt 0.145500 0.330357
vt 0.145500 0.330357
vt 0.145500 0.330357
vt 0.145500 0.330357
vt 0.145500 0.330357
vt 0.145500 0.330357
vt 0.145500 0.330357
vt 0.145500 0.330357
vt 0.145500 0.330357
vt 0.145500 0.330357
vt 0.145500 0.330357
vt 0.145500 0.330357
vt 0.145500 0.330357
vt 0.145500 0.330357
vt 0.145500 0.330357
vt 0.145500 0.330357
vt 0.145500 0.330357
vt 0.145500 0.330357
vt 0.145500 0.330357
vt 0.145500 0.330357
vt 0.145500 0.330357
vt 0.145500 0.330357
vt 0.145500 0.330357
vt 0.145500 0.330357
vt 0.145500 0.330357
vt 0.145500 0.330357
vt 0.145500 0.330357
vn 0.958192 -0.280580 0.056068
vn 0.958192 -0.280580 0.056068
vn 0.958192 -0.280580 0.056068
vn 0.958192 -0.280580 0.056068
vn 0.737301 0.673062 0.058099
vn 0.737301 0.673062 0.058099
vn 0.737301 0.673062 0.058099
vn -0.211087 0.976865 -0.034304
vn -0.211087 0.976865 -0.034304
vn -0.211087 0.976865 -0.034304
vn -0.211087 0.976865 -0.034304
vn -0.955573 0.282581 -0.083835
vn -0.955573 0.282581 -0.083835
vn -0.955573 0.282582 -0.083835
vn -0.955573 0.282581 -0.083835
vn -0.752173 -0.656738 -0.054134
vn -0.752174 -0.656738 -0.054134
vn -0.752173 -0.656738 -0.054134
vn -0.752174 -0.656738 -0.054134
vn 0.211178 -0.976906 0.032546
vn 0.211178 -0.976906 0.032546
vn 0.211178 -0.976906 0.032546
vn 0.211178 -0.976906 0.032546
vn 0.104547 -0.030507 -0.994052
vn 0.104547 -0.030507 -0.994052
vn 0.104547 -0.030507 -0.994052
vn 0.096671 0.005928 -0.995299
vn 0.096671 0.005928 -0.995299
vn 0.096671 0.005928 -0.995299
vn 0.061319 0.017243 -0.997969
vn 0.061319 0.017243 -0.997969
vn 0.061319 0.017243 -0.997969
vn 0.033731 -0.007880 -0.999400
vn 0.033731 -0.007880 -0.999400
vn 0.033731 -0.007880 -0.999400
vn 0.041590 -0.044266 -0.998154
vn 0.041590 -0.044266 -0.998154
vn 0.041590 -0.044266 -0.998154
vn 0.076993 -0.055598 -0.995480
vn 0.076993 -0.055598 -0.995480
vn 0.076993 -0.055598 -0.995480
vn 0.362180 -0.118574 0.924536
vn 0.362180 -0.118574 0.924536
vn 0.362180 -0.118574 0.924536
vn 0.267899 0.317518 0.909622
vn 0.267899 0.317518 0.909622
vn 0.267899 0.317518 0.909622
vn -0.156163 0.453283 0.877581
vn -0.156163 0.453283 0.877581
vn -0.156163 0.453283 0.877581
vn -0.485931 0.152976 0.860506
vn -0.485931 0.152976 0.860506
vn -0.485931 0.152976 0.860506
vn -0.391726 -0.283232 0.875403
vn -0.391726 -0.283232 0.875403
vn -0.391726 -0.283232 0.875403
vn 0.032348 -0.418990 0.907414
vn 0.032348 -0.418990 0.907414
vn 0.032348 -0.418990 0.907414
vn 0.916428 -0.292415 -0.273227
vn 0.916428 -0.292415 -0.273227
vn 0.916428 -0.292415 -0.273227
vn 0.916428 -0.292415 -0.273227
vn 0.717968 0.625843 -0.304700
vn 0.717968 0.625843 -0.304700
vn 0.717968 0.625843 -0.304700
vn 0.717968 0.625843 -0.304700
vn -0.174830 0.911683 -0.371844
vn -0.174830 0.911683 -0.371844
vn -0.174830 0.911683 -0.371844
vn -0.174830 0.911683 -0.371844
vn -0.869193 0.279326 -0.408019
vn -0.869193 0.279326 -0.408019
vn -0.869193 0.279326 -0.408019
vn -0.869193 0.279326 -0.408019
vn -0.670722 -0.638939 -0.376683
vn -0.670722 -0.638939 -0.376683
vn -0.670722 -0.638939 -0.376683
vn -0.670722 -0.638939 -0.376683
vn 0.222046 -0.924781 -0.308993
vn 0.222046 -0.924781 -0.308993
vn 0.222046 -0.924781 -0.308993
vn 0.222046 -0.924781 -0.308993
vn 0.923943 -0.296292 0.241950
vn 0.923943 -0.296292 0.241950
vn 0.923943 -0.296292 0.241950
vn 0.715951 0.666128 0.209018
vn 0.715951 0.666128 0.209018
vn 0.715951 0.666128 0.209018
vn 0.715951 0.666128 0.209018
vn -0.221151 0.964661 0.143254
vn -0.221151 0.964661 0.143254
vn -0.221151 0.964661 0.143254
vn -0.221151 0.964661 0.143254
vn -0.942820 0.313113 0.114241
vn -0.942820 0.313113 0.114241
vn -0.942820 0.313113 0.114241
vn -0.724729 -0.676497 0.130842
vn -0.724729 -0.676497 0.130842
vn -0.724729 -0.676497 0.130842
vn -0.724729 -0.676497 0.130842
vn 0.196101 -0.959069 0.204284
vn 0.196101 -0.959069 0.204284
vn 0.196101 -0.959069 0.204284
vn 0.196101 -0.959069 0.204284
vn 0.665794 -0.210873 -0.715717
vn 0.665794 -0.210873 -0.715717
vn 0.665794 -0.210873 -0.715717
vn 0.665794 -0.210873 -0.715717
vn 0.529597 0.419478 -0.737269
vn 0.529597 0.419478 -0.737269
vn 0.529597 0.419478 -0.737269
vn 0.529597 0.419478 -0.737269
vn -0.083341 0.615729 -0.783538
vn -0.083341 0.615729 -0.783538
vn -0.083341 0.615729 -0.783538
vn -0.083341 0.615729 -0.783538
vn -0.560157 0.181546 -0.808248
vn -0.560157 0.181546 -0.808248
vn -0.560157 0.181546 -0.808248
vn -0.560157 0.181546 -0.808248
vn -0.423924 -0.448826 -0.786666
vn -0.423924 -0.448826 -0.786666
vn -0.423924 -0.448827 -0.786666
vn -0.423924 -0.448827 -0.786666
vn 0.189095 -0.645046 -0.740378
vn 0.189095 -0.645046 -0.740378
vn 0.189095 -0.645046 -0.740378
vn 0.189095 -0.645046 -0.740378
vn 0.849426 -0.273067 0.451563
vn 0.849426 -0.273067 0.451563
vn 0.849426 -0.273067 0.451563
vn 0.849426 -0.273067 0.451563
vn 0.654762 0.628002 0.420596
vn 0.654762 0.628002 0.420596
vn 0.654762 0.628002 0.420596
vn 0.654762 0.628002 0.420596
vn -0.221429 0.908509 0.354374
vn -0.221429 0.908509 0.354373
vn -0.221429 0.908509 0.354373
vn -0.221429 0.908509 0.354373
vn -0.902941 0.287913 0.319068
vn -0.902941 0.287914 0.319068
vn -0.902941 0.287913 0.319068
vn -0.902941 0.287914 0.319068
vn -0.696681 -0.594452 0.401575
vn -0.696681 -0.594452 0.401575
vn -0.696681 -0.594452 0.401575
vn 0.161332 -0.878087 0.450484
vn 0.161332 -0.878087 0.450484
vn 0.161332 -0.878087 0.450484
vn 0.161332 -0.878087 0.450484
vn -0.198948 0.964083 -0.175965
vn -0.198948 0.964083 -0.175965
vn -0.198948 0.964083 -0.175965
vn -0.198948 0.964083 -0.175965
vn -0.784452 -0.609350 0.115449
vn -0.784452 -0.609350 0.115449
vn -0.784452 -0.609350 0.115449
vn -0.784452 -0.609350 0.115449
vn 0.946589 -0.235623 0.220116
vn 0.946589 -0.235623 0.220116
vn 0.946589 -0.235623 0.220116
vn 0.946589 -0.235623 0.220116
vn -0.943614 0.302238 -0.135069
vn -0.943614 0.302238 -0.135069
vn -0.943615 0.302238 -0.135069
vn -0.943615 0.302238 -0.135069
vn 0.186271 -0.979093 0.081733
vn 0.186271 -0.979093 0.081733
vn 0.186271 -0.979093 0.081733
vn 0.186271 -0.979093 0.081733
vn 0.678560 0.713000 0.176599
vn 0.678560 0.713001 0.176599
vn 0.678560 0.713001 0.176599
vn 0.678560 0.713001 0.176599
vn -0.715216 -0.665776 -0.212620
vn -0.715216 -0.665776 -0.212620
vn -0.715216 -0.665776 -0.212620
vn -0.715216 -0.665776 -0.212620
vn 0.890246 -0.372803 0.261687
vn 0.890246 -0.372803 0.261687
vn 0.890246 -0.372803 0.261687
vn 0.890246 -0.372803 0.261687
vn -0.341369 0.906892 0.247012
vn -0.341368 0.906892 0.247012
vn -0.341368 0.906892 0.247012
vn -0.341368 0.906892 0.247012
vn 0.215168 -0.976076 -0.031276
vn 0.215168 -0.976076 -0.031276
vn 0.215168 -0.976076 -0.031276
vn 0.215168 -0.976076 -0.031276
vn 0.741589 0.668886 0.051343
vn 0.741589 0.668886 0.051343
vn 0.741589 0.668886 0.051343
vn 0.741589 0.668886 0.051343
vn -0.965742 0.203572 0.160939
vn -0.965742 0.203572 0.160939
vn -0.965742 0.203572 0.160939
vn -0.965742 0.203572 0.160939
vn 0.950379 -0.304223 0.065024
vn 0.950379 -0.304223 0.065024
vn 0.950379 -0.304223 0.065024
vn 0.950379 -0.304223 0.065024
vn -0.215900 0.975273 -0.047219
vn -0.215900 0.975273 -0.047219
vn -0.215900 0.975273 -0.047219
vn -0.215900 0.975273 -0.047219
vn -0.629415 -0.726212 0.276500
vn -0.629415 -0.726212 0.276500
vn -0.629415 -0.726212 0.276500
vn -0.629415 -0.726212 0.276500
vn 0.736020 0.652103 -0.181758
vn 0.736020 0.652103 -0.181758
vn 0.736020 0.652103 -0.181758
vn 0.736020 0.652103 -0.181758
vn -0.899095 0.399634 0.178666
vn -0.899095 0.399634 0.178666
vn -0.899095 0.399634 0.178666
vn -0.899095 0.399634 0.178666
vn 0.301310 -0.896529 0.324726
vn 0.301310 -0.896529 0.324726
vn 0.301310 -0.896529 0.324726
vn 0.301310 -0.896529 0.324726
vn 0.825284 -0.261286 0.500635
vn 0.825285 -0.261286 0.500635
vn 0.825284 -0.261286 0.500635
vn 0.917584 -0.318770 0.237541
vn 0.917584 -0.318770 0.237541
vn 0.917584 -0.318770 0.237541
vn 0.917584 -0.318770 0.237541
vn 0.756866 0.652974 0.027903
vn 0.756866 0.652974 0.027903
vn 0.756866 0.652974 0.027903
vn 0.756866 0.652974 0.027903
vn 0.704538 0.674131 0.221752
vn 0.704538 0.674131 0.221752
vn 0.704538 0.674131 0.221752
vn -0.708197 -0.613196 0.349926
vn -0.708197 -0.613196 0.349926
vn -0.708197 -0.613196 0.349926
vn -0.708197 -0.613196 0.349926
vn -0.739708 -0.659544 0.133544
vn -0.739708 -0.659544 0.133544
vn -0.739708 -0.659544 0.133544
vn -0.952046 0.304671 -0.028007
vn -0.952046 0.304671 -0.028007
vn -0.952046 0.304671 -0.028007
vn -0.947708 0.302881 0.100565
vn -0.947708 0.302881 0.100565
vn -0.947708 0.302881 0.100565
vn -0.947708 0.302881 0.100565
vn 0.548869 0.831864 0.082135
vn 0.548869 0.831864 0.082135
vn 0.548869 0.831864 0.082135
vn 0.548869 0.831864 0.082135
vn -0.828740 -0.531850 0.174144
vn -0.828740 -0.531850 0.174144
vn -0.828740 -0.531850 0.174144
vn -0.828740 -0.531850 0.174144
vn -0.909783 0.414676 -0.018419
vn -0.909783 0.414676 -0.018419
vn -0.909783 0.414676 -0.018419
vn -0.909783 0.414676 -0.018419
vn -0.168565 0.512484 0.841989
vn -0.168565 0.512485 0.841989
vn -0.168565 0.512485 0.841989
vn -0.168565 0.512485 0.841989
vn -0.751422 -0.616321 0.235612
vn -0.751422 -0.616321 0.235612
vn -0.751422 -0.616321 0.235612
vn -0.751422 -0.616321 0.235612
vn -0.880119 0.439300 0.180017
vn -0.880119 0.439300 0.180017
vn -0.880119 0.439300 0.180017
vn -0.880119 0.439300 0.180017
vn -0.787625 0.314132 0.530063
vn -0.787625 0.314132 0.530063
vn -0.787625 0.314132 0.530063
vn -0.787625 0.314132 0.530063
vn -0.075756 0.047375 0.996000
vn -0.075756 0.047375 0.996000
vn -0.075756 0.047375 0.996000
vn -0.075756 0.047375 0.996000
vn 0.528471 0.650666 0.545300
vn 0.528471 0.650666 0.545300
vn 0.528471 0.650666 0.545300
vn 0.528471 0.650666 0.545300
vn 0.578403 0.759289 0.298211
vn 0.578403 0.759289 0.298211
vn 0.578403 0.759289 0.298211
vn 0.578403 0.759289 0.298211
vn 0.854133 -0.306496 0.420140
vn 0.854132 -0.306496 0.420140
vn 0.854133 -0.306496 0.420140
vn 0.854133 -0.306496 0.420140
vn 0.901871 -0.309134 0.301769
vn 0.901871 -0.309134 0.301769
vn 0.901871 -0.309134 0.301769
vn 0.901871 -0.309134 0.301769
vn 0.947059 -0.303395 0.105030
vn 0.947059 -0.303395 0.105030
vn 0.947059 -0.303395 0.105030
vn 0.736251 0.673184 0.068980
vn 0.736251 0.673184 0.068980
vn 0.736251 0.673184 0.068980
vn -0.951935 0.304765 -0.030620
vn -0.951935 0.304765 -0.030620
vn -0.951935 0.304765 -0.030620
vn -0.741103 -0.671361 0.006361
vn -0.741103 -0.671361 0.006361
vn -0.741103 -0.671361 0.006361
s off
f 38/1/1 40/2/2 41/3/3 42/4/4
f 33/5/5 34/6/6 1/7/7
f 43/8/8 44/9/9 45/10/10 46/11/11
f 44/12/12 48/13/13 49/14/14 45/15/15
f 48/16/16 50/17/17 51/18/18 52/19/19
f 50/20/20 38/21/21 42/22/22 51/23/23
f 54/24/24 53/25/25 55/26/26
f 56/27/27 54/28/28 55/29/29
f 57/30/30 56/31/31 55/32/32
f 58/33/33 57/34/34 55/35/35
f 59/36/36 58/37/37 55/38/38
f 53/39/39 59/40/40 55/41/41
f 26/42/42 27/43/43 28/44/44
f 29/45/45 30/46/46 31/47/47
f 14/48/48 15/49/49 16/50/50
f 17/51/51 18/52/52 19/53/53
f 20/54/54 21/55/55 22/56/56
f 23/57/57 24/58/58 25/59/59
f 39/60/60 38/61/61 60/62/62 61/63/63
f 43/64/64 39/65/65 61/66/66 62/67/67
f 44/68/68 43/69/69 62/70/70 63/71/71
f 47/72/72 44/73/73 63/74/74 64/75/75
f 50/76/76 47/77/77 64/78/78 65/79/79
f 38/80/80 50/81/81 65/82/82 60/83/83
f 32/84/84 1/85/85 3/86/86
f 1/85/87 34/87/88 4/88/89 3/86/90
f 46/89/91 45/90/92 66/91/93 67/92/94
f 45/93/95 49/94/96 66/95/97
f 52/96/98 51/97/99 68/98/100 69/99/101
f 51/100/102 42/101/103 70/102/104 68/103/105
f 61/104/106 60/105/107 53/106/108 54/107/109
f 62/108/110 61/109/111 54/110/112 56/111/113
f 63/112/114 62/113/115 56/114/116 57/115/117
f 64/116/118 63/117/119 57/118/120 58/119/121
f 65/120/122 64/121/123 58/122/124 59/123/125
f 60/124/126 65/125/127 59/126/128 53/127/129
f 7/128/130 32/84/131 3/86/132 8/129/133
f 3/86/134 4/88/135 10/130/136 8/129/137
f 4/88/138 5/131/139 11/132/140 10/130/141
f 5/131/142 6/133/143 12/134/144 11/132/145
f 71/135/146 69/136/147 68/137/148
f 68/138/149 70/139/150 72/140/151 71/141/152
f 10/142/153 11/143/154 15/49/155 14/48/156
f 11/143/157 9/144/158 16/50/159 15/49/160
f 9/144/161 10/142/162 14/48/163 16/50/164
f 11/143/165 12/145/166 18/52/167 17/51/168
f 12/145/169 9/144/170 19/53/171 18/52/172
f 9/144/173 11/143/174 17/51/175 19/53/176
f 12/145/177 13/146/178 21/55/179 20/54/180
f 13/146/181 9/144/182 22/56/183 21/55/184
f 9/144/185 12/145/186 20/54/187 22/56/188
f 13/146/189 7/147/190 24/58/191 23/57/192
f 7/147/193 9/144/194 25/59/195 24/58/196
f 9/144/197 13/146/198 23/57/199 25/59/200
f 7/147/201 8/148/202 27/43/203 26/42/204
f 8/148/205 9/144/206 28/44/207 27/43/208
f 9/144/209 7/147/210 26/42/211 28/44/212
f 8/148/213 10/142/214 30/46/215 29/45/216
f 10/142/217 9/144/218 31/47/219 30/46/220
f 9/144/221 8/148/222 29/45/223 31/47/224
f 70/149/225 73/150/226 72/151/227
f 42/152/228 41/153/229 73/154/230 70/155/231
f 40/156/232 43/157/233 46/158/234 74/159/235
f 67/160/236 74/161/237 46/162/238
f 6/133/239 35/163/240 13/164/241 12/134/242
f 2/165/243 35/163/244 6/133/245
f 37/166/246 36/167/247 2/168/248
f 5/131/249 37/169/250 2/165/251 6/133/252
f 33/170/253 1/171/254 41/3/255 40/2/256
f 36/172/257 37/173/258 49/14/259 48/13/260
f 2/174/261 36/175/262 48/16/263 52/19/264
f 5/176/265 4/177/266 67/92/267 66/91/268
f 37/178/269 5/179/270 66/95/271 49/94/272
f 35/180/273 2/181/274 52/96/275 69/99/276
f 13/182/277 35/183/278 69/136/279 71/135/280
f 7/184/281 13/185/282 71/141/283 72/140/284
f 32/186/285 7/187/286 72/151/287 73/150/288
f 1/188/289 32/189/290 73/154/291 41/153/292
f 34/190/293 33/191/294 40/156/295 74/159/296
f 4/192/297 34/193/298 74/161/299 67/160/300
f 38/1/301 39/194/302 40/2/303
f 39/195/304 43/157/305 40/156/306
f 44/12/307 47/196/308 48/13/309
f 47/197/310 50/17/311 48/16/312
