# This file uses meters as units for non-parametric coordinates.

v 5.513836 0.000000 5.513835
v 7.797741 0.000000 0.000000
v 5.513836 0.000000 -5.513836
v 0.000000 0.000000 -7.797742
v -5.513836 0.000000 -5.513836
v -7.797741 0.000000 0.000000
v -5.513836 0.000000 5.513836
v 0.000000 0.000000 7.797741
v 5.513836 14.128068 5.513835
v 7.797741 14.128068 0.000000
v 5.513836 14.128068 -5.513836
v 0.000000 14.128068 -7.797742
v -5.513836 14.128068 -5.513836
v -7.797741 14.128068 0.000000
v -5.513836 14.128068 5.513836
v 0.000000 14.128068 7.797741
v 2.479914 0.000000 2.479913
v 3.507125 0.000000 0.000000
v 2.479913 0.000000 -2.479914
v 0.000000 0.000000 -3.507125
v -2.479914 0.000000 -2.479914
v -3.507125 0.000000 0.000000
v -2.479913 0.000000 2.479913
v 0.000000 0.000000 3.507125
v 2.479914 14.128068 2.479913
v 3.507125 14.128068 0.000000
v 2.479913 14.128068 -2.479914
v 0.000000 14.128068 -3.507125
v -2.479914 14.128068 -2.479914
v -3.507125 14.128068 0.000000
v -2.479913 14.128068 2.479913
v 0.000000 14.128068 3.507125
v 2.000323 0.000000 2.000323
v 2.828882 0.000000 0.000000
v 2.000323 0.000000 -2.000323
v 0.000000 0.000000 -2.828882
v -2.000323 0.000000 -2.000323
v -2.828882 0.000000 0.000000
v -2.000323 0.000000 2.000323
v 0.000000 0.000000 2.828882
v 2.000323 14.128068 2.000323
v 2.828882 14.128068 0.000000
v 2.000323 14.128068 -2.000323
v 0.000000 14.128068 -2.828882
v -2.000323 14.128068 -2.000323
v -2.828882 14.128068 0.000000
v -2.000323 14.128068 2.000323
v 0.000000 14.128068 2.828882
vt 0.386086 0.010506
vt 0.386086 0.010506
vt 0.386086 0.010506
vt 0.386086 0.010506
vt 0.386086 0.010506
vt 0.386086 0.010506
vt 0.386086 0.010506
vt 0.386086 0.010506
vt 0.386086 0.010506
vt 0.386086 0.010506
vt 0.386086 0.010506
vt 0.386086 0.010506
vt 0.386086 0.010506
vt 0.386086 0.010506
vt 0.386086 0.010506
vt 0.386086 0.010506
vt 0.386086 0.010506
vt 0.386086 0.010506
vt 0.386086 0.010506
vt 0.386086 0.010506
vt 0.386086 0.010506
vt 0.386086 0.010506
vt 0.386086 0.010506
vt 0.386086 0.010506
vt 0.386086 0.010506
vt 0.386086 0.010506
vt 0.386086 0.010506
vt 0.386086 0.010506
vt 0.386086 0.010506
vt 0.386086 0.010506
vt 0.386086 0.010506
vt 0.386086 0.010506
vt 0.386086 0.010506
vt 0.386086 0.010506
vt 0.386086 0.010506
vt 0.386086 0.010506
vt 0.386086 0.010506
vt 0.386086 0.010506
vt 0.386086 0.010506
vt 0.386086 0.010506
vt 0.386086 0.010506
vt 0.386086 0.010506
vt 0.386086 0.010506
vt 0.386086 0.010506
vt 0.386086 0.010506
vt 0.386086 0.010506
vt 0.386086 0.010506
vt 0.386086 0.010506
vt 0.386086 0.010506
vt 0.386086 0.010506
vt 0.005162 0.329819
vt 0.005162 0.329819
vt 0.005162 0.329819
vt 0.005162 0.329819
vt 0.005161 0.329819
vt 0.005162 0.329819
vt 0.005162 0.329819
vt 0.005162 0.329819
vt 0.005161 0.329819
vt 0.005162 0.329819
vt 0.005162 0.329819
vt 0.005162 0.329819
vt 0.005162 0.329819
vt 0.005162 0.329819
vt 0.005163 0.329819
vt 0.005162 0.329819
vt 0.005162 0.329819
vt 0.005162 0.329819
vt 0.005162 0.329819
vt 0.005162 0.329819
vt 0.005161 0.329819
vt 0.005162 0.329819
vt 0.005162 0.329819
vt 0.005162 0.329819
vt 0.005161 0.329819
vt 0.005162 0.329819
vt 0.005162 0.329819
vt 0.005162 0.329819
vt 0.005162 0.329819
vt 0.005162 0.329819
vt 0.005163 0.329819
vt 0.005162 0.329819
vn 0.923880 0.000000 0.382683
vn 0.923880 0.000000 0.382683
vn 0.923880 0.000000 0.382683
vn 0.923880 0.000000 0.382683
vn 0.923880 0.000000 -0.382683
vn 0.923880 0.000000 -0.382683
vn 0.923880 0.000000 -0.382683
vn 0.923880 0.000000 -0.382683
vn 0.382683 0.000000 -0.923880
vn 0.382683 0.000000 -0.923880
vn 0.382683 0.000000 -0.923880
vn 0.382683 0.000000 -0.923880
vn -0.382683 0.000000 -0.923880
vn -0.382683 0.000000 -0.923880
vn -0.382683 0.000000 -0.923880
vn -0.382683 0.000000 -0.923880
vn -0.923880 0.000000 -0.382683
vn -0.923880 0.000000 -0.382683
vn -0.923880 0.000000 -0.382683
vn -0.923880 0.000000 -0.382683
vn -0.923880 0.000000 0.382683
vn -0.923880 0.000000 0.382683
vn -0.923880 0.000000 0.382683
vn -0.923880 0.000000 0.382683
vn -0.382683 0.000000 0.923880
vn -0.382683 0.000000 0.923880
vn -0.382683 0.000000 0.923880
vn -0.382683 0.000000 0.923880
vn 0.382684 0.000000 0.923880
vn 0.382684 0.000000 0.923880
vn 0.382684 0.000000 0.923880
vn 0.382684 0.000000 0.923880
vn 0.000000 -1.000000 0.000000
vn 0.000000 -1.000000 0.000000
vn 0.000000 -1.000000 0.000000
vn 0.000000 -1.000000 0.000000
vn 0.000000 -1.000000 0.000000
vn 0.000000 -1.000000 0.000000
vn 0.000000 -1.000000 0.000000
vn 0.000000 -1.000000 0.000000
vn 0.000000 -1.000000 0.000000
vn 0.000000 -1.000000 0.000000
vn 0.000000 -1.000000 0.000000
vn 0.000000 -1.000000 0.000000
vn 0.000000 -1.000000 0.000000
vn 0.000000 -1.000000 0.000000
vn 0.000000 -1.000000 0.000000
vn 0.000000 -1.000000 0.000000
vn 0.000000 -1.000000 0.000000
vn 0.000000 -1.000000 0.000000
vn 0.000000 -1.000000 0.000000
vn 0.000000 -1.000000 0.000000
vn 0.000000 -1.000000 0.000000
vn 0.000000 -1.000000 0.000000
vn 0.000000 -1.000000 0.000000
vn 0.000000 -1.000000 0.000000
vn 0.000000 -1.000000 0.000000
vn 0.000000 -1.000000 0.000000
vn 0.000000 -1.000000 0.000000
vn 0.000000 -1.000000 0.000000
vn 0.000000 -1.000000 0.000000
vn 0.000000 -1.000000 0.000000
vn 0.000000 -1.000000 0.000000
vn 0.000000 -1.000000 0.000000
vn 0.000000 1.000000 0.000000
vn 0.000000 1.000000 0.000000
vn 0.000000 1.000000 0.000000
vn 0.000000 1.000000 0.000000
vn 0.000000 1.000000 -0.000000
vn 0.000000 1.000000 -0.000000
vn 0.000000 1.000000 -0.000000
vn 0.000000 1.000000 -0.000000
vn 0.000000 1.000000 0.000000
vn 0.000000 1.000000 0.000000
vn 0.000000 1.000000 0.000000
vn 0.000000 1.000000 0.000000
vn 0.000000 1.000000 0.000000
vn 0.000000 1.000000 0.000000
vn 0.000000 1.000000 0.000000
vn 0.000000 1.000000 0.000000
vn 0.000000 1.000000 0.000000
vn 0.000000 1.000000 0.000000
vn 0.000000 1.000000 0.000000
vn 0.000000 1.000000 0.000000
vn 0.000000 1.000000 0.000000
vn 0.000000 1.000000 0.000000
vn 0.000000 1.000000 0.000000
vn 0.000000 1.000000 0.000000
vn 0.000000 1.000000 -0.000000
vn 0.000000 1.000000 -0.000000
vn 0.000000 1.000000 -0.000000
vn 0.000000 1.000000 -0.000000
vn 0.000000 1.000000 -0.000000
vn 0.000000 1.000000 -0.000000
vn 0.000000 1.000000 -0.000000
vn 0.000000 1.000000 -0.000000
vn 0.000000 -1.000000 0.000000
vn 0.000000 -1.000000 0.000000
vn 0.000000 -1.000000 0.000000
vn 0.000000 -1.000000 0.000000
vn 0.000000 -1.000000 0.000000
vn 0.000000 -1.000000 0.000000
vn 0.000000 -1.000000 0.000000
vn 0.000000 -1.000000 0.000000
vn 0.000000 -1.000000 0.000000
vn 0.000000 -1.000000 0.000000
vn 0.000000 -1.000000 0.000000
vn 0.000000 -1.000000 0.000000
vn 0.000000 -1.000000 0.000000
vn 0.000000 -1.000000 0.000000
vn 0.000000 -1.000000 0.000000
vn 0.000000 -1.000000 0.000000
vn 0.000000 -1.000000 0.000000
vn 0.000000 -1.000000 0.000000
vn 0.000000 -1.000000 0.000000
vn 0.000000 -1.000000 0.000000
vn 0.000000 -1.000000 0.000000
vn 0.000000 -1.000000 0.000000
vn 0.000000 -1.000000 0.000000
vn 0.000000 -1.000000 0.000000
vn 0.000000 -1.000000 0.000000
vn 0.000000 -1.000000 0.000000
vn 0.000000 -1.000000 0.000000
vn 0.000000 -1.000000 0.000000
vn 0.000000 -1.000000 0.000000
vn 0.000000 -1.000000 0.000000
vn 0.000000 -1.000000 0.000000
vn 0.000000 -1.000000 0.000000
vn 0.000000 1.000000 0.000000
vn 0.000000 1.000000 0.000000
vn 0.000000 1.000000 0.000000
vn 0.000000 1.000000 0.000000
vn 0.000000 1.000000 0.000001
vn 0.000000 1.000000 0.000001
vn 0.000000 1.000000 0.000001
vn 0.000000 1.000000 0.000001
vn 0.000000 1.000000 -0.000001
vn 0.000000 1.000000 -0.000001
vn 0.000000 1.000000 -0.000001
vn 0.000000 1.000000 -0.000001
vn 0.000000 1.000000 0.000000
vn 0.000000 1.000000 0.000000
vn 0.000000 1.000000 0.000000
vn 0.000000 1.000000 0.000000
vn 0.000000 1.000000 0.000000
vn 0.000000 1.000000 0.000000
vn 0.000000 1.000000 0.000000
vn 0.000000 1.000000 0.000000
vn 0.000000 1.000000 0.000001
vn 0.000000 1.000000 0.000001
vn 0.000000 1.000000 0.000001
vn 0.000000 1.000000 0.000001
vn 0.000000 1.000000 0.000001
vn 0.000000 1.000000 0.000001
vn 0.000000 1.000000 0.000001
vn 0.000000 1.000000 0.000001
vn 0.000000 1.000000 0.000000
vn 0.000000 1.000000 0.000000
vn 0.000000 1.000000 0.000000
vn 0.000000 1.000000 0.000000
vn -0.923880 0.000000 -0.382683
vn -0.923880 0.000000 -0.382683
vn -0.923880 0.000000 -0.382683
vn -0.923880 0.000000 -0.382683
vn -0.923880 0.000000 0.382683
vn -0.923880 0.000000 0.382683
vn -0.923880 0.000000 0.382683
vn -0.923880 0.000000 0.382683
vn -0.382683 0.000000 0.923880
vn -0.382683 0.000000 0.923880
vn -0.382683 0.000000 0.923880
vn -0.382683 0.000000 0.923880
vn 0.382683 0.000000 0.923880
vn 0.382683 0.000000 0.923880
vn 0.382683 0.000000 0.923880
vn 0.382683 0.000000 0.923880
vn 0.923880 0.000000 0.382683
vn 0.923880 0.000000 0.382683
vn 0.923880 0.000000 0.382683
vn 0.923880 0.000000 0.382683
vn 0.923880 0.000000 -0.382683
vn 0.923880 0.000000 -0.382683
vn 0.923880 0.000000 -0.382683
vn 0.923880 0.000000 -0.382683
vn 0.382683 0.000000 -0.923880
vn 0.382683 0.000000 -0.923880
vn 0.382683 0.000000 -0.923880
vn 0.382683 0.000000 -0.923880
vn -0.382683 0.000000 -0.923880
vn -0.382683 0.000000 -0.923880
vn -0.382683 0.000000 -0.923880
vn -0.382683 0.000000 -0.923880
s off
f 1/9/1 2/10/2 10/19/3 9/18/4
f 2/10/5 3/11/6 11/20/7 10/19/8
f 3/11/9 4/12/10 12/21/11 11/20/12
f 4/12/13 5/13/14 13/22/15 12/21/16
f 5/13/17 6/14/18 14/23/19 13/22/20
f 6/14/21 7/15/22 15/24/23 14/23/24
f 7/15/25 8/16/26 16/25/27 15/24/28
f 8/16/29 1/17/30 9/26/31 16/25/32
f 2/2/33 1/1/34 17/36/35 18/35/36
f 3/3/37 2/2/38 18/35/39 19/37/40
f 4/4/41 3/3/42 19/37/43 20/38/44
f 5/5/45 4/4/46 20/38/47 21/39/48
f 6/6/49 5/5/50 21/39/51 22/40/52
f 7/7/53 6/6/54 22/40/55 23/41/56
f 8/8/57 7/7/58 23/41/59 24/42/60
f 1/1/61 8/8/62 24/42/63 17/36/64
f 9/33/65 10/32/66 26/44/67 25/43/68
f 10/32/69 11/31/70 27/45/71 26/44/72
f 11/31/73 12/30/74 28/46/75 27/45/76
f 12/30/77 13/29/78 29/47/79 28/46/80
f 13/29/81 14/28/82 30/48/83 29/47/84
f 14/28/85 15/27/86 31/49/87 30/48/88
f 15/27/89 16/34/90 32/50/91 31/49/92
f 16/34/93 9/33/94 25/43/95 32/50/96
f 18/51/97 17/52/98 33/53/99 34/54/100
f 19/55/101 18/51/102 34/54/103 35/56/104
f 20/57/105 19/55/106 35/56/107 36/58/108
f 21/59/109 20/57/110 36/58/111 37/60/112
f 22/61/113 21/59/114 37/60/115 38/62/116
f 23/63/117 22/61/118 38/62/119 39/64/120
f 24/65/121 23/63/122 39/64/123 40/66/124
f 17/52/125 24/65/126 40/66/127 33/53/128
f 25/67/129 26/68/130 42/69/131 41/70/132
f 26/68/133 27/71/134 43/72/135 42/69/136
f 27/71/137 28/73/138 44/74/139 43/72/140
f 28/73/141 29/75/142 45/76/143 44/74/144
f 29/75/145 30/77/146 46/78/147 45/76/148
f 30/77/149 31/79/150 47/80/151 46/78/152
f 31/79/153 32/81/154 48/82/155 47/80/156
f 32/81/157 25/67/158 41/70/159 48/82/160
f 34/54/161 33/53/162 41/70/163 42/69/164
f 35/56/165 34/54/166 42/69/167 43/72/168
f 36/58/169 35/56/170 43/72/171 44/74/172
f 37/60/173 36/58/174 44/74/175 45/76/176
f 38/62/177 37/60/178 45/76/179 46/78/180
f 39/64/181 38/62/182 46/78/183 47/80/184
f 40/66/185 39/64/186 47/80/187 48/82/188
f 33/53/189 40/66/190 48/82/191 41/70/192
