# This file uses meters as units for non-parametric coordinates.

v 2.979248 0.000000 1.719971
v 2.979248 0.000000 -1.720215
v 0.000000 0.000000 -3.440186
v -2.978760 0.000000 -1.720215
v -2.978760 0.000000 1.719971
v 0.000000 0.000000 3.439941
v 3.014893 24.073265 1.741211
v 3.014893 24.073265 -1.740723
v 0.000000 24.073265 -3.479980
v -3.014160 24.073265 -1.740723
v -3.014160 24.073265 1.741211
v 0.000000 24.073265 3.480957
v 0.000000 0.000000 -0.000244
v -3.014160 23.268028 -1.740723
v -3.014160 23.268028 1.741211
v 0.000000 23.268028 3.480957
v 3.014893 23.268028 1.741211
v 3.014893 23.268028 -1.740723
v 0.000000 23.268028 -3.479980
v -3.574951 22.821480 -2.062744
v -3.574951 22.821480 2.063721
v 0.000000 22.821480 4.127686
v 3.574951 22.821480 2.063721
v 3.574951 22.821480 -2.062744
v 0.000000 22.821480 -4.127441
v -3.574951 0.682110 -2.062744
v -3.574951 0.682110 2.063721
v 0.000000 0.682110 4.127686
v 3.574951 0.682110 2.063721
v 3.574951 0.682110 -2.062744
v 0.000000 0.682110 -4.127441
v 3.574951 14.684914 -2.062744
v 3.574951 14.684914 2.063721
v 0.000000 14.684914 4.127686
v -3.574951 14.684914 2.063721
v -3.574951 14.684914 -2.062744
v 0.000000 14.684914 -4.127441
v -3.574951 12.274933 -2.062744
v -3.574951 12.274933 2.063721
v 0.000000 12.274933 4.127686
v 3.574951 12.274933 2.063721
v 3.574951 12.274933 -2.062744
v 0.000000 12.274933 -4.127441
v 2.276855 24.073265 1.044678
v 2.276855 24.073265 -1.043945
v 0.000000 24.073265 -1.043945
v 0.000000 24.073265 1.044678
v 0.149780 24.619492 0.907471
v 0.149780 24.619492 -0.906738
v 2.126953 24.619492 0.907471
v 2.126953 24.619492 -0.906738
vt 0.111993 0.350379
vt 0.111993 0.350379
vt 0.111993 0.350379
vt 0.111993 0.350379
vt 0.111993 0.350379
vt 0.111993 0.350379
vt 0.111993 0.350379
vt 0.111993 0.350379
vt 0.111993 0.350379
vt 0.111993 0.350379
vt 0.111993 0.350379
vt 0.111993 0.350379
vt 0.111993 0.350379
vt 0.111993 0.350379
vt 0.111993 0.350379
vt 0.111993 0.350379
vt 0.111993 0.350379
vt 0.111993 0.350379
vt 0.111993 0.350379
vt 0.111993 0.350379
vt 0.111993 0.350379
vt 0.111993 0.350379
vt 0.111993 0.350379
vt 0.111993 0.350379
vt 0.111993 0.350379
vt 0.111993 0.350379
vt 0.111993 0.350379
vt 0.111993 0.350379
vt 0.111993 0.350379
vt 0.111993 0.350379
vt 0.111993 0.350379
vt 0.111993 0.350379
vt 0.111993 0.350379
vt 0.111993 0.350379
vt 0.350342 0.472481
vt 0.350342 0.472481
vt 0.350342 0.472481
vt 0.350342 0.472481
vt 0.350342 0.472481
vt 0.350342 0.472481
vt 0.350342 0.472481
vt 0.111993 0.350379
vt 0.111993 0.350379
vt 0.111993 0.350379
vt 0.111993 0.350379
vt 0.111993 0.350379
vt 0.111993 0.350379
vt 0.111993 0.350379
vt 0.485596 0.011433
vt 0.485596 0.011433
vt 0.208008 0.354401
vt 0.208008 0.354401
vt 0.485596 0.011433
vt 0.208008 0.354401
vt 0.485596 0.011433
vt 0.350342 0.472481
vt 0.350342 0.472481
vt 0.350342 0.472481
vt 0.350342 0.472481
vt 0.350342 0.472481
vt 0.350342 0.472481
vt 0.350342 0.472481
vt 0.350342 0.472481
vt 0.350342 0.472481
vt 0.350342 0.472481
vt 0.350342 0.472481
vt 0.208008 0.354401
vt 0.485596 0.011433
vt 0.208008 0.354401
vt 0.485596 0.011433
vt 0.208008 0.354401
vt 0.485596 0.011436
vt 0.485596 0.011436
vt 0.485596 0.011436
vt 0.485596 0.011436
vt 0.485596 0.011436
vt 0.485596 0.011436
vt 0.208008 0.354401
vt 0.208008 0.354401
vt 0.208008 0.354401
vt 0.208008 0.354401
vt 0.208008 0.354401
vt 0.208008 0.354401
vt 0.111993 0.350379
vt 0.111993 0.350379
vt 0.111993 0.350379
vt 0.111993 0.350379
vt 0.112549 0.327896
vt 0.112549 0.327896
vt 0.112549 0.327896
vt 0.112549 0.327896
vt 0.112549 0.327896
vt 0.112549 0.327896
vt 0.112549 0.327896
vt 0.112549 0.327896
vn 1.000000 0.000000 0.000000
vn 1.000000 0.000000 0.000000
vn 1.000000 0.000000 0.000000
vn 1.000000 0.000000 0.000000
vn 0.499700 0.000000 -0.866199
vn 0.499700 0.000000 -0.866199
vn 0.499700 0.000000 -0.866199
vn 0.499700 0.000000 -0.866199
vn -0.499791 0.000000 -0.866146
vn -0.499791 0.000000 -0.866146
vn -0.499791 0.000000 -0.866146
vn -0.499791 0.000000 -0.866146
vn -1.000000 0.000000 0.000000
vn -1.000000 0.000000 0.000000
vn -1.000000 0.000000 0.000000
vn -1.000000 0.000000 0.000000
vn -0.499896 0.000000 0.866085
vn -0.499896 0.000000 0.866085
vn -0.499896 0.000000 0.866085
vn -0.499896 0.000000 0.866085
vn 0.499805 0.000000 0.866138
vn 0.499805 0.000000 0.866138
vn 0.499805 0.000000 0.866138
vn 0.499805 0.000000 0.866138
vn 0.000000 -1.000000 0.000000
vn 0.000000 -1.000000 0.000000
vn 0.000000 -1.000000 0.000000
vn 0.000000 -1.000000 0.000000
vn 0.000000 -1.000000 0.000000
vn 0.000000 -1.000000 0.000000
vn 0.000000 -1.000000 0.000000
vn 0.000000 -1.000000 0.000000
vn 0.000000 -1.000000 0.000000
vn 0.000000 -1.000000 0.000000
vn 0.000000 -1.000000 0.000000
vn 0.000000 -1.000000 0.000000
vn 0.000000 -1.000000 0.000000
vn 0.000000 -1.000000 0.000000
vn 0.000000 -1.000000 0.000000
vn 0.000000 -1.000000 0.000000
vn 0.000000 -1.000000 0.000000
vn 0.000000 -1.000000 0.000000
vn 0.000000 1.000000 0.000000
vn 0.000000 1.000000 0.000000
vn 0.000000 1.000000 0.000000
vn 0.000000 1.000000 0.000000
vn 0.000000 1.000000 0.000000
vn 0.000000 1.000000 0.000000
vn 0.000000 1.000000 -0.000001
vn 0.000000 1.000000 -0.000001
vn 0.000000 1.000000 -0.000001
vn 0.000000 1.000000 -0.000001
vn -0.622921 0.782285 0.000000
vn -0.622921 0.782285 0.000000
vn -0.622921 0.782285 0.000000
vn -0.622921 0.782285 0.000000
vn -0.311735 0.781798 0.540013
vn -0.311735 0.781798 0.540013
vn -0.311735 0.781798 0.540013
vn -0.311735 0.781798 0.540013
vn 0.311772 0.781698 0.540135
vn 0.311772 0.781698 0.540135
vn 0.311772 0.781698 0.540135
vn 0.311772 0.781698 0.540135
vn 0.623419 0.781888 0.000000
vn 0.623419 0.781888 0.000000
vn 0.623419 0.781888 0.000000
vn 0.623419 0.781888 0.000000
vn 0.311751 0.781755 -0.540065
vn 0.311751 0.781755 -0.540065
vn 0.311751 0.781755 -0.540065
vn 0.311751 0.781755 -0.540065
vn -0.311714 0.781855 -0.539942
vn -0.311714 0.781855 -0.539942
vn -0.311714 0.781855 -0.539942
vn -0.311714 0.781855 -0.539942
vn -1.000000 0.000000 0.000000
vn -1.000000 0.000000 0.000000
vn -1.000000 0.000000 0.000000
vn -1.000000 0.000000 0.000000
vn -0.499994 0.000000 0.866029
vn -0.499994 0.000000 0.866029
vn -0.499994 0.000000 0.866029
vn -0.499994 0.000000 0.866029
vn 0.499994 0.000000 0.866029
vn 0.499994 0.000000 0.866029
vn 0.499994 0.000000 0.866029
vn 0.499994 0.000000 0.866029
vn 1.000000 0.000000 0.000000
vn 1.000000 0.000000 0.000000
vn 1.000000 0.000000 0.000000
vn 1.000000 0.000000 0.000000
vn 0.500127 0.000000 -0.865952
vn 0.500127 0.000000 -0.865952
vn 0.500127 0.000000 -0.865952
vn 0.500127 0.000000 -0.865952
vn -0.500127 0.000000 -0.865952
vn -0.500127 0.000000 -0.865952
vn -0.500127 0.000000 -0.865952
vn -0.500127 0.000000 -0.865952
vn -0.752935 -0.658095 0.000000
vn -0.752935 -0.658095 0.000000
vn -0.752935 -0.658095 0.000000
vn -0.752935 -0.658095 0.000000
vn -0.376613 -0.657786 0.652288
vn -0.376613 -0.657786 0.652288
vn -0.376614 -0.657786 0.652288
vn -0.376613 -0.657786 0.652288
vn 0.376626 -0.657710 0.652358
vn 0.376626 -0.657710 0.652358
vn 0.376626 -0.657710 0.652358
vn 0.376626 -0.657710 0.652358
vn 0.753202 -0.657789 0.000000
vn 0.753202 -0.657789 0.000000
vn 0.753202 -0.657789 0.000000
vn 0.753202 -0.657789 0.000000
vn 0.376883 -0.657246 -0.652677
vn 0.376883 -0.657246 -0.652677
vn 0.376883 -0.657246 -0.652677
vn 0.376883 -0.657246 -0.652677
vn -0.376871 -0.657322 -0.652607
vn -0.376871 -0.657322 -0.652607
vn -0.376871 -0.657322 -0.652607
vn -0.376871 -0.657322 -0.652607
vn 1.000000 0.000000 0.000000
vn 1.000000 0.000000 0.000000
vn 1.000000 0.000000 0.000000
vn 1.000000 0.000000 0.000000
vn 0.499994 0.000000 0.866029
vn 0.499994 0.000000 0.866029
vn 0.499994 0.000000 0.866029
vn 0.499994 0.000000 0.866029
vn -0.499994 0.000000 0.866029
vn -0.499994 0.000000 0.866029
vn -0.499994 0.000000 0.866029
vn -0.499994 0.000000 0.866029
vn -1.000000 0.000000 0.000000
vn -1.000000 0.000000 0.000000
vn -1.000000 0.000000 0.000000
vn -1.000000 0.000000 0.000000
vn -0.500127 0.000000 -0.865952
vn -0.500127 0.000000 -0.865952
vn -0.500127 0.000000 -0.865952
vn -0.500127 0.000000 -0.865952
vn 0.500127 0.000000 -0.865952
vn 0.500127 0.000000 -0.865952
vn 0.500127 0.000000 -0.865952
vn 0.500127 0.000000 -0.865952
vn -1.000000 0.000000 0.000000
vn -1.000000 0.000000 0.000000
vn -1.000000 0.000000 0.000000
vn -1.000000 0.000000 0.000000
vn -0.499994 0.000000 0.866029
vn -0.499994 0.000000 0.866029
vn -0.499994 0.000000 0.866029
vn -0.499994 0.000000 0.866029
vn 0.499994 0.000000 0.866029
vn 0.499994 0.000000 0.866029
vn 0.499994 0.000000 0.866029
vn 0.499994 0.000000 0.866029
vn 1.000000 0.000000 0.000000
vn 1.000000 0.000000 0.000000
vn 1.000000 0.000000 0.000000
vn 1.000000 0.000000 0.000000
vn 0.500127 0.000000 -0.865952
vn 0.500127 0.000000 -0.865952
vn 0.500127 0.000000 -0.865952
vn 0.500127 0.000000 -0.865952
vn -0.500127 0.000000 -0.865952
vn -0.500127 0.000000 -0.865952
vn -0.500127 0.000000 -0.865952
vn -0.500127 0.000000 -0.865952
vn 0.000000 1.000000 0.000000
vn 0.000000 1.000000 0.000000
vn 0.000000 1.000000 0.000000
vn 0.000000 1.000000 0.000000
vn 0.000000 1.000000 0.000000
vn 0.000000 1.000000 0.000000
vn 0.000000 1.000000 0.000000
vn 0.000000 1.000000 0.000000
vn 0.000000 1.000000 0.000000
vn 0.000000 1.000000 0.000000
vn 0.000000 1.000000 0.000000
vn 0.000000 1.000000 0.000000
vn 0.000000 1.000000 0.000000
vn 0.000000 1.000000 0.000000
vn 0.000000 1.000000 0.000000
vn 0.000000 1.000000 0.000000
vn -0.964400 0.264447 0.000000
vn -0.964400 0.264447 0.000000
vn -0.964400 0.264447 0.000000
vn -0.964400 0.264447 0.000000
vn 0.000000 0.243622 0.969870
vn 0.000000 0.243622 0.969870
vn 0.000000 0.243622 0.969870
vn 0.000000 0.243622 0.969870
vn 0.964345 0.264648 0.000000
vn 0.964345 0.264648 0.000000
vn 0.964345 0.264648 0.000000
vn 0.964345 0.264648 0.000000
vn 0.000000 0.243622 -0.969870
vn 0.000000 0.243622 -0.969870
vn 0.000000 0.243622 -0.969870
vn 0.000000 0.243622 -0.969870
s off
f 17/32/1 18/33/2 8/15/3 7/14/4
f 18/33/5 19/34/6 9/16/7 8/15/8
f 19/34/9 14/28/10 10/17/11 9/16/12
f 14/28/13 15/29/14 11/18/15 10/17/16
f 15/29/17 16/30/18 12/19/19 11/18/20
f 16/30/21 17/31/22 7/20/23 12/19/24
f 2/2/25 1/1/26 13/27/27
f 3/3/28 2/2/29 13/27/30
f 4/4/31 3/3/32 13/27/33
f 5/5/34 4/4/35 13/27/36
f 6/6/37 5/5/38 13/27/39
f 1/1/40 6/6/41 13/27/42
f 9/23/43 10/22/44 46/86/45
f 11/21/46 12/26/47 47/87/48
f 12/26/49 7/25/50 44/84/51 47/87/52
f 20/35/53 21/36/54 15/37/55 14/38/56
f 21/36/57 22/39/58 16/40/59 15/37/60
f 22/39/61 23/41/62 17/56/63 16/40/64
f 23/41/65 24/57/66 18/58/67 17/56/68
f 24/57/69 25/59/70 19/60/71 18/58/72
f 25/59/73 20/35/74 14/38/75 19/60/76
f 38/51/77 39/52/78 35/54/79 36/67/80
f 39/52/81 40/69/82 34/71/83 35/54/84
f 40/69/85 41/78/86 33/79/87 34/71/88
f 41/78/89 42/80/90 32/81/91 33/79/92
f 42/80/93 43/82/94 37/83/95 32/81/96
f 43/82/97 38/51/98 36/67/99 37/83/100
f 4/10/101 5/11/102 27/43/103 26/42/104
f 5/11/105 6/12/106 28/44/107 27/43/108
f 6/12/109 1/13/110 29/45/111 28/44/112
f 1/7/113 2/8/114 30/47/115 29/46/116
f 2/8/117 3/9/118 31/48/119 30/47/120
f 3/9/121 4/10/122 26/42/123 31/48/124
f 33/61/125 32/62/126 24/57/127 23/41/128
f 34/63/129 33/61/130 23/41/131 22/39/132
f 35/64/133 34/63/134 22/39/135 21/36/136
f 36/65/137 35/64/138 21/36/139 20/35/140
f 37/66/141 36/65/142 20/35/143 25/59/144
f 32/62/145 37/66/146 25/59/147 24/57/148
f 26/49/149 27/50/150 39/73/151 38/72/152
f 27/50/153 28/53/154 40/74/155 39/73/156
f 28/53/157 29/55/158 41/75/159 40/74/160
f 29/55/161 30/68/162 42/76/163 41/75/164
f 30/68/165 31/70/166 43/77/167 42/76/168
f 31/70/169 26/49/170 38/72/171 43/77/172
f 7/25/173 8/24/174 45/85/175 44/84/176
f 8/24/177 9/23/178 46/86/179 45/85/180
f 49/88/181 48/89/182 50/90/183 51/91/184
f 46/86/185 10/22/186 11/21/187 47/87/188
f 46/92/189 47/93/190 48/89/191 49/88/192
f 47/93/193 44/94/194 50/90/195 48/89/196
f 44/94/197 45/95/198 51/91/199 50/90/200
f 45/95/201 46/92/202 49/88/203 51/91/204
