# This file uses meters as units for non-parametric coordinates.

v 4.303467 0.000000 2.484619
v 4.303467 0.000000 -2.484619
v 0.000000 0.000000 -4.969482
v -4.303711 0.000000 -2.484619
v -4.303711 0.000000 2.484619
v 0.000000 0.000000 4.969482
v 2.168457 22.318604 1.252197
v 2.168457 22.318604 -1.252197
v 0.000000 22.318604 -2.504150
v -2.168701 22.318604 -1.252197
v -2.168701 22.318604 1.252197
v 0.000000 22.318611 2.504150
v 0.000000 22.318604 0.000000
v -4.303711 16.221298 -2.484619
v -4.303711 15.947830 2.484619
v 0.000000 16.221298 4.969482
v 4.303467 16.221298 2.484619
v 4.303467 16.221298 -2.484619
v 0.000000 16.221298 -4.969482
v 2.168457 20.303711 -1.252197
v 2.168457 20.303711 1.252197
v 0.000000 20.303711 2.504150
v -2.168701 20.303711 1.252197
v -2.168701 20.303711 -1.252197
v 0.000000 20.303711 -2.504150
v -4.422607 13.577896 -2.553223
v -4.422607 13.577904 2.553467
v 0.000000 13.577896 5.106934
v 4.422607 13.577896 2.553467
v 4.422607 13.577896 -2.553223
v 0.000000 13.577896 -5.106934
v -4.422607 3.420380 -2.553223
v -4.422607 3.420380 2.553467
v 0.000000 3.420387 5.106934
v 4.422607 3.420387 2.553467
v 4.422607 3.420380 -2.553223
v 0.000000 3.420380 -5.106934
vt 0.218463 0.493254
vt 0.218463 0.493254
vt 0.218463 0.493254
vt 0.218463 0.493254
vt 0.218463 0.493254
vt 0.218463 0.493254
vt 0.218463 0.493254
vt 0.218463 0.493254
vt 0.218463 0.493254
vt 0.218463 0.493254
vt 0.218463 0.493254
vt 0.218463 0.493254
vt 0.218463 0.493254
vt 0.218463 0.493254
vt 0.101196 0.227921
vt 0.101196 0.227921
vt 0.101196 0.227921
vt 0.101196 0.227921
vt 0.101196 0.227921
vt 0.101196 0.227921
vt 0.101196 0.227921
vt 0.218463 0.493254
vt 0.218463 0.493254
vt 0.218463 0.493254
vt 0.218463 0.493254
vt 0.218463 0.493254
vt 0.218463 0.493254
vt 0.218463 0.493254
vt 0.101196 0.227921
vt 0.101196 0.227921
vt 0.101196 0.227921
vt 0.101196 0.227921
vt 0.101196 0.227921
vt 0.101196 0.227921
vt 0.144775 0.330257
vt 0.144775 0.330257
vt 0.144775 0.330257
vt 0.144775 0.330257
vt 0.144775 0.330257
vt 0.144775 0.330257
vt 0.144775 0.330257
vt 0.144775 0.330257
vt 0.144775 0.330257
vt 0.144775 0.330257
vt 0.144775 0.330257
vt 0.144775 0.330257
vt 0.218463 0.493254
vt 0.218463 0.493254
vt 0.218463 0.493254
vt 0.218463 0.493254
vt 0.218463 0.493254
vt 0.218463 0.493254
vt 0.218463 0.493254
vt 0.218463 0.493254
vt 0.218463 0.493254
vt 0.218463 0.493254
vt 0.218463 0.493254
vt 0.218463 0.493254
vt 0.218463 0.493254
vt 0.218463 0.493254
vn 0.886134 0.463428 0.000000
vn 0.886134 0.463428 0.000000
vn 0.886134 0.463428 0.000000
vn 0.886134 0.463428 0.000000
vn 0.443093 0.463414 -0.767409
vn 0.443093 0.463414 -0.767409
vn 0.443093 0.463414 -0.767409
vn 0.443093 0.463414 -0.767409
vn -0.443068 0.463414 -0.767423
vn -0.443068 0.463414 -0.767423
vn -0.443068 0.463414 -0.767423
vn -0.443068 0.463414 -0.767423
vn -0.892143 0.451450 0.016519
vn -0.892143 0.451450 0.016519
vn -0.892143 0.451450 0.016519
vn -0.892143 0.451450 0.016519
vn -0.460378 0.451436 0.764367
vn -0.460378 0.451436 0.764367
vn -0.460378 0.451436 0.764367
vn -0.460378 0.451436 0.764367
vn 0.443093 0.463414 0.767409
vn 0.443093 0.463414 0.767409
vn 0.443093 0.463414 0.767409
vn 0.443093 0.463414 0.767409
vn 0.000000 1.000000 0.000000
vn 0.000000 1.000000 0.000000
vn 0.000000 1.000000 0.000000
vn 0.000000 1.000000 0.000000
vn 0.000000 1.000000 0.000000
vn 0.000000 1.000000 0.000000
vn 0.000000 1.000000 0.000000
vn 0.000000 1.000000 0.000000
vn 0.000000 1.000000 0.000000
vn 0.000000 1.000000 0.000000
vn 0.000000 1.000000 0.000000
vn 0.000000 1.000000 0.000000
vn -0.000002 1.000000 -0.000003
vn -0.000002 1.000000 -0.000003
vn -0.000002 1.000000 -0.000003
vn 0.000002 1.000000 -0.000003
vn 0.000002 1.000000 -0.000003
vn 0.000002 1.000000 -0.000003
vn -0.998876 0.047379 0.001286
vn -0.998876 0.047379 0.001286
vn -0.998876 0.047379 0.001286
vn -0.998876 0.047379 0.001286
vn -0.500566 0.047441 0.864398
vn -0.500566 0.047441 0.864398
vn -0.500566 0.047441 0.864398
vn -0.500566 0.047441 0.864398
vn 0.499518 0.045016 0.865133
vn 0.499518 0.045016 0.865133
vn 0.499518 0.045016 0.865133
vn 0.499518 0.045016 0.865133
vn 0.998986 0.045025 0.000000
vn 0.998986 0.045025 0.000000
vn 0.998986 0.045025 0.000000
vn 0.998986 0.045025 0.000000
vn 0.499537 0.044976 -0.865124
vn 0.499537 0.044976 -0.865124
vn 0.499537 0.044976 -0.865124
vn 0.499537 0.044976 -0.865124
vn -0.499527 0.044953 -0.865131
vn -0.499527 0.044953 -0.865131
vn -0.499527 0.044953 -0.865131
vn -0.499527 0.044953 -0.865131
vn 1.000000 0.000000 0.000000
vn 1.000000 0.000000 0.000000
vn 1.000000 0.000000 0.000000
vn 1.000000 0.000000 0.000000
vn 0.499998 0.000000 0.866027
vn 0.499998 0.000000 0.866027
vn 0.499998 0.000000 0.866026
vn 0.499998 0.000000 0.866026
vn -0.499956 0.000000 0.866051
vn -0.499956 0.000000 0.866051
vn -0.499956 0.000000 0.866051
vn -0.499956 0.000000 0.866051
vn -1.000000 0.000000 0.000000
vn -1.000000 0.000000 0.000000
vn -1.000000 0.000000 0.000000
vn -1.000000 0.000000 0.000000
vn -0.499956 0.000000 -0.866051
vn -0.499956 0.000000 -0.866051
vn -0.499956 0.000000 -0.866051
vn -0.499956 0.000000 -0.866051
vn 0.499998 0.000000 -0.866027
vn 0.499998 0.000000 -0.866027
vn 0.499998 0.000000 -0.866027
vn 0.499998 0.000000 -0.866027
vn -1.000000 0.000000 0.000000
vn -1.000000 0.000000 0.000000
vn -1.000000 0.000000 0.000000
vn -1.000000 0.000000 0.000000
vn -0.500011 0.000000 0.866019
vn -0.500011 0.000000 0.866019
vn -0.500011 0.000000 0.866019
vn -0.500011 0.000000 0.866019
vn 0.500011 0.000000 0.866019
vn 0.500011 0.000000 0.866019
vn 0.500011 0.000000 0.866019
vn 0.500011 0.000000 0.866019
vn 1.000000 0.000000 0.000000
vn 1.000000 0.000000 0.000000
vn 1.000000 0.000000 0.000000
vn 1.000000 0.000000 0.000000
vn 0.500047 0.000000 -0.865998
vn 0.500047 0.000000 -0.865998
vn 0.500047 0.000000 -0.865998
vn 0.500047 0.000000 -0.865998
vn -0.500047 0.000000 -0.865998
vn -0.500047 0.000000 -0.865998
vn -0.500047 0.000000 -0.865998
vn -0.500047 0.000000 -0.865998
vn -0.999396 -0.034740 0.000000
vn -0.999396 -0.034740 0.000000
vn -0.999396 -0.034740 0.000000
vn -0.999396 -0.034740 0.000000
vn -0.499711 -0.034786 0.865493
vn -0.499711 -0.034786 0.865493
vn -0.499711 -0.034786 0.865493
vn -0.499711 -0.034786 0.865493
vn 0.499721 -0.034804 0.865487
vn 0.499722 -0.034804 0.865487
vn 0.499722 -0.034804 0.865487
vn 0.499722 -0.034804 0.865487
vn 0.999394 -0.034811 0.000000
vn 0.999394 -0.034811 0.000000
vn 0.999394 -0.034811 0.000000
vn 0.999394 -0.034811 0.000000
vn 0.499740 -0.034773 -0.865477
vn 0.499740 -0.034773 -0.865477
vn 0.499740 -0.034773 -0.865477
vn 0.499740 -0.034773 -0.865477
vn -0.499730 -0.034755 -0.865484
vn -0.499730 -0.034755 -0.865484
vn -0.499730 -0.034755 -0.865484
vn -0.499730 -0.034755 -0.865484
s off
f 17/1/1 18/2/2 20/3/3 21/4/4
f 18/2/5 19/5/6 25/6/7 20/3/8
f 19/5/9 14/7/10 24/8/11 25/6/12
f 14/7/13 15/9/14 23/10/15 24/8/16
f 15/9/17 16/11/18 22/12/19 23/10/20
f 16/11/21 17/13/22 21/14/23 22/12/24
f 7/15/25 8/16/26 13/17/27
f 8/16/28 9/18/29 13/17/30
f 9/18/31 10/19/32 13/17/33
f 10/19/34 11/20/35 13/17/36
f 11/20/37 12/21/38 13/17/39
f 12/21/40 7/15/41 13/17/42
f 26/22/43 27/23/44 15/9/45 14/7/46
f 27/23/47 28/24/48 16/11/49 15/9/50
f 28/24/51 29/25/52 17/13/53 16/11/54
f 29/26/55 30/27/56 18/2/57 17/1/58
f 30/27/59 31/28/60 19/5/61 18/2/62
f 31/28/63 26/22/64 14/7/65 19/5/66
f 21/29/67 20/30/68 8/16/69 7/15/70
f 22/31/71 21/29/72 7/15/73 12/21/74
f 23/32/75 22/31/76 12/21/77 11/20/78
f 24/33/79 23/32/80 11/20/81 10/19/82
f 25/34/83 24/33/84 10/19/85 9/18/86
f 20/30/87 25/34/88 9/18/89 8/16/90
f 32/35/91 33/36/92 27/37/93 26/38/94
f 33/36/95 34/39/96 28/40/97 27/37/98
f 34/39/99 35/41/100 29/42/101 28/40/102
f 35/41/103 36/43/104 30/44/105 29/42/106
f 36/43/107 37/45/108 31/46/109 30/44/110
f 37/45/111 32/35/112 26/38/113 31/46/114
f 4/47/115 5/48/116 33/49/117 32/50/118
f 5/48/119 6/51/120 34/52/121 33/49/122
f 6/51/123 1/53/124 35/54/125 34/52/126
f 1/55/127 2/56/128 36/57/129 35/58/130
f 2/56/131 3/59/132 37/60/133 36/57/134
f 3/59/135 4/47/136 32/50/137 37/60/138
