# This file uses meters as units for non-parametric coordinates.

v 5.927185 20.082497 0.000244
v 2.963562 20.082497 -5.133057
v -2.963562 20.082497 -5.133057
v -5.927063 20.082497 0.000244
v -2.963562 20.082497 5.133057
v 2.963562 20.082497 5.133057
v 5.927185 32.414406 0.000244
v 2.963562 32.414406 -5.133057
v -2.963562 32.414406 -5.133057
v -5.927063 32.414406 0.000244
v -2.963562 32.414406 5.133057
v 2.963562 32.414406 5.133057
v 4.770142 32.414406 0.000244
v 2.385071 32.414406 -4.130859
v -2.385010 32.414406 -4.130859
v -4.770020 32.414406 0.000244
v -2.385010 32.414406 4.131104
v 2.385071 32.414406 4.131104
v 4.232422 20.082504 0.000244
v 2.116211 20.082504 -3.665283
v 0.000000 20.082504 0.000244
v -2.116150 20.082504 -3.665283
v -4.232361 20.082504 0.000244
v -2.116150 20.082504 3.665283
v 2.116211 20.082504 3.665283
v 2.613281 16.222412 0.000244
v 1.306702 16.222412 -2.262939
v -1.306580 16.222412 -2.262939
v -2.613220 16.222412 0.000244
v -1.306580 16.222412 2.263428
v 1.306702 16.222412 2.263428
v 1.180237 13.111130 0.000244
v 0.590149 13.111130 -1.022217
v -0.590088 13.111130 -1.022217
v -1.180176 13.111130 0.000244
v -0.590088 13.111130 1.022217
v 0.590149 13.111130 1.022217
v 1.180237 2.163971 0.000244
v 0.590149 2.163971 -1.022217
v -0.590088 2.163971 -1.022217
v -1.180176 2.163971 0.000244
v -0.590088 2.163971 1.022217
v 0.590149 2.163971 1.022217
v 2.899353 1.128357 0.000244
v 1.449707 1.128357 -2.510986
v -1.449646 1.128357 -2.510986
v -2.899292 1.128357 0.000244
v -1.449646 1.128357 2.510986
v 1.449707 1.128357 2.510986
v 6.497986 0.638756 0.000244
v 3.249084 0.638756 -5.627686
v -3.249023 0.638756 -5.627686
v -6.497925 0.638756 0.000244
v -3.249023 0.638756 5.627930
v 3.249084 0.638756 5.627930
v 6.497986 0.000000 0.000244
v 3.249084 0.000000 -5.627686
v 0.000000 0.000000 0.000244
v -3.249023 0.000000 -5.627686
v -6.497925 0.000000 0.000244
v -3.249023 0.000000 5.627930
v 3.249084 0.000000 5.627930
v -6.972900 25.475594 0.000244
v -3.486450 25.475594 6.038818
v 3.486511 25.475594 6.038818
v 6.972961 25.475594 0.000244
v 3.486511 25.475594 -6.038574
v -3.486450 25.475594 -6.038574
v 3.018005 25.475586 -5.227295
v -3.017944 25.475586 -5.227295
v -6.035950 25.475586 0.000244
v -3.017944 25.475586 5.227295
v 3.018005 25.475586 5.227295
v 6.036011 25.475586 0.000244
vt 0.132799 0.377111
vt 0.132799 0.377111
vt 0.132799 0.377111
vt 0.132799 0.377111
vt 0.132799 0.377111
vt 0.132799 0.377111
vt 0.132799 0.377111
vt 0.132799 0.377111
vt 0.132799 0.377111
vt 0.132799 0.377111
vt 0.132799 0.377111
vt 0.132799 0.377111
vt 0.132799 0.377111
vt 0.132799 0.377111
vt 0.132799 0.377111
vt 0.132799 0.377111
vt 0.132799 0.377111
vt 0.132799 0.377111
vt 0.132799 0.377111
vt 0.132799 0.377111
vt 0.132799 0.377111
vt 0.132799 0.377111
vt 0.132799 0.377111
vt 0.132799 0.377111
vt 0.132799 0.377111
vt 0.132799 0.377111
vt 0.132799 0.377111
vt 0.132799 0.377111
vt 0.132799 0.377111
vt 0.132799 0.377111
vt 0.132799 0.377111
vt 0.132799 0.377111
vt 0.132799 0.377111
vt 0.132799 0.377111
vt 0.132799 0.377111
vt 0.132799 0.377111
vt 0.132799 0.377111
vt 0.132799 0.377111
vt 0.132799 0.377111
vt 0.132799 0.377111
vt 0.132799 0.377111
vt 0.132799 0.377111
vt 0.132799 0.377111
vt 0.132799 0.377111
vt 0.132799 0.377111
vt 0.132799 0.377111
vt 0.132799 0.377111
vt 0.132799 0.377111
vt 0.132799 0.377111
vt 0.132799 0.377111
vt 0.132799 0.377111
vt 0.132799 0.377111
vt 0.132799 0.377111
vt 0.132799 0.377111
vt 0.132799 0.377111
vt 0.132799 0.377111
vt 0.132799 0.377111
vt 0.132799 0.377111
vt 0.132799 0.377111
vt 0.132799 0.377111
vt 0.132799 0.377111
vt 0.132799 0.377111
vt 0.132799 0.377111
vt 0.132799 0.377111
vt 0.132799 0.377111
vt 0.132799 0.377111
vt 0.132799 0.377111
vt 0.132799 0.377111
vt 0.132799 0.377111
vt 0.132799 0.377111
vt 0.132799 0.377111
vt 0.132799 0.377111
vt 0.132799 0.377111
vt 0.132799 0.377111
vt 0.132799 0.377111
vt 0.132799 0.377111
vt 0.132799 0.377111
vt 0.132799 0.377111
vt 0.132799 0.377111
vt 0.132799 0.377111
vt 0.132799 0.377111
vt 0.132799 0.377111
vt 0.132799 0.377111
vt 0.132799 0.377111
vt 0.132799 0.377111
vt 0.132799 0.377111
vt 0.132799 0.377111
vt 0.132799 0.377111
vt 0.132799 0.377111
vn 0.858747 0.129423 -0.495786
vn 0.858747 0.129423 -0.495786
vn 0.858747 0.129423 -0.495786
vn 0.858747 0.129423 -0.495786
vn 0.000000 0.129403 -0.991592
vn 0.000000 0.129403 -0.991592
vn 0.000000 0.129403 -0.991592
vn 0.000000 0.129403 -0.991592
vn -0.858751 0.129423 -0.495779
vn -0.858751 0.129423 -0.495779
vn -0.858751 0.129423 -0.495779
vn -0.858751 0.129423 -0.495779
vn -0.858736 0.129431 0.495803
vn -0.858736 0.129431 0.495803
vn -0.858736 0.129431 0.495803
vn -0.858736 0.129431 0.495803
vn 0.000000 0.129437 0.991588
vn 0.000000 0.129437 0.991588
vn 0.000000 0.129437 0.991588
vn 0.000000 0.129437 0.991588
vn 0.858732 0.129431 0.495810
vn 0.858732 0.129431 0.495810
vn 0.858732 0.129431 0.495810
vn 0.858732 0.129431 0.495810
vn 0.000000 -1.000000 0.000000
vn 0.000000 -1.000000 0.000000
vn 0.000000 -1.000000 0.000000
vn 0.000000 -1.000000 0.000000
vn 0.000000 -1.000000 0.000000
vn 0.000000 -1.000000 0.000000
vn 0.000000 -1.000000 0.000000
vn 0.000000 -1.000000 0.000000
vn 0.000000 -1.000000 0.000000
vn 0.000000 -1.000000 0.000000
vn 0.000000 -1.000000 0.000000
vn 0.000000 -1.000000 0.000000
vn 0.000000 -1.000000 0.000000
vn 0.000000 -1.000000 0.000000
vn 0.000000 -1.000000 0.000000
vn 0.000000 -1.000000 0.000000
vn 0.000000 -1.000000 0.000000
vn 0.000000 -1.000000 0.000000
vn 0.000000 1.000000 0.000000
vn 0.000000 1.000000 0.000000
vn 0.000000 1.000000 0.000000
vn 0.000000 1.000000 0.000000
vn 0.000000 1.000000 0.000000
vn 0.000000 1.000000 0.000000
vn 0.000000 1.000000 -0.000000
vn 0.000000 1.000000 -0.000000
vn 0.000000 1.000000 -0.000000
vn 0.000000 1.000000 0.000001
vn 0.000000 1.000000 0.000001
vn 0.000000 1.000000 0.000001
vn 0.000000 1.000000 -0.000000
vn 0.000000 1.000000 -0.000000
vn 0.000000 1.000000 -0.000000
vn 0.000000 1.000000 0.000000
vn 0.000000 1.000000 0.000000
vn 0.000000 1.000000 0.000000
vn 0.000000 1.000000 0.000000
vn 0.000000 1.000000 0.000000
vn 0.000000 1.000000 0.000000
vn 0.000000 1.000000 0.000000
vn 0.000000 1.000000 0.000000
vn 0.000000 1.000000 0.000000
vn 0.000000 1.000000 0.000000
vn 0.000000 1.000000 0.000000
vn 0.000000 1.000000 -0.000001
vn 0.000000 1.000000 -0.000001
vn 0.000000 1.000000 -0.000001
vn 0.000000 1.000000 -0.000001
vn 0.000000 1.000000 0.000001
vn 0.000000 1.000000 0.000001
vn 0.000000 1.000000 0.000001
vn 0.000000 1.000000 0.000001
vn 0.000000 1.000000 -0.000001
vn 0.000000 1.000000 -0.000001
vn 0.000000 1.000000 -0.000001
vn 0.000000 1.000000 -0.000001
vn 0.000000 1.000000 0.000000
vn 0.000000 1.000000 0.000000
vn 0.000000 1.000000 0.000000
vn 0.000000 1.000000 0.000000
vn -0.831848 0.278192 0.480249
vn -0.831848 0.278192 0.480249
vn -0.831848 0.278192 0.480249
vn -0.831848 0.278192 0.480249
vn 0.000000 0.278199 0.960523
vn 0.000000 0.278199 0.960523
vn 0.000000 0.278199 0.960523
vn 0.000000 0.278199 0.960523
vn 0.831848 0.278192 0.480249
vn 0.831848 0.278192 0.480249
vn 0.831848 0.278192 0.480249
vn 0.831848 0.278192 0.480249
vn 0.831825 0.278192 -0.480288
vn 0.831825 0.278192 -0.480288
vn 0.831825 0.278192 -0.480288
vn 0.831825 0.278192 -0.480288
vn 0.000000 0.278199 -0.960523
vn 0.000000 0.278199 -0.960523
vn 0.000000 0.278199 -0.960523
vn 0.000000 0.278199 -0.960523
vn -0.831825 0.278192 -0.480288
vn -0.831825 0.278192 -0.480288
vn -0.831825 0.278192 -0.480288
vn -0.831825 0.278192 -0.480288
vn 0.694993 -0.596651 -0.401239
vn 0.694993 -0.596651 -0.401239
vn 0.694993 -0.596651 -0.401239
vn 0.694993 -0.596651 -0.401239
vn 0.000000 -0.596676 -0.802482
vn 0.000000 -0.596676 -0.802482
vn 0.000000 -0.596676 -0.802482
vn 0.000000 -0.596676 -0.802482
vn -0.694993 -0.596655 -0.401234
vn -0.694993 -0.596655 -0.401234
vn -0.694993 -0.596655 -0.401234
vn -0.694993 -0.596655 -0.401234
vn -0.694992 -0.596638 0.401259
vn -0.694992 -0.596638 0.401260
vn -0.694992 -0.596638 0.401260
vn -0.694992 -0.596638 0.401259
vn 0.000000 -0.596610 0.802531
vn 0.000000 -0.596610 0.802531
vn 0.000000 -0.596610 0.802531
vn 0.000000 -0.596610 0.802531
vn 0.694992 -0.596635 0.401265
vn 0.694992 -0.596635 0.401265
vn 0.694992 -0.596635 0.401265
vn 0.694992 -0.596635 0.401265
vn 0.804431 -0.370482 -0.464365
vn 0.804431 -0.370482 -0.464365
vn 0.804431 -0.370482 -0.464365
vn 0.804431 -0.370482 -0.464365
vn 0.000000 -0.370415 -0.928866
vn 0.000000 -0.370415 -0.928866
vn 0.000000 -0.370415 -0.928866
vn 0.000000 -0.370415 -0.928866
vn -0.804426 -0.370475 -0.464377
vn -0.804426 -0.370475 -0.464377
vn -0.804426 -0.370475 -0.464377
vn -0.804426 -0.370475 -0.464377
vn -0.804386 -0.370507 0.464423
vn -0.804386 -0.370507 0.464423
vn -0.804386 -0.370507 0.464423
vn -0.804386 -0.370507 0.464423
vn 0.000000 -0.370541 0.928816
vn 0.000000 -0.370541 0.928816
vn 0.000000 -0.370541 0.928816
vn 0.000000 -0.370541 0.928816
vn 0.804390 -0.370514 0.464410
vn 0.804390 -0.370514 0.464410
vn 0.804390 -0.370514 0.464410
vn 0.804390 -0.370514 0.464410
vn 0.866110 0.000000 -0.499854
vn 0.866110 0.000000 -0.499854
vn 0.866110 0.000000 -0.499854
vn 0.866110 0.000000 -0.499854
vn 0.000000 0.000000 -1.000000
vn 0.000000 0.000000 -1.000000
vn 0.000000 0.000000 -1.000000
vn 0.000000 0.000000 -1.000000
vn -0.866110 0.000000 -0.499854
vn -0.866110 0.000000 -0.499854
vn -0.866110 0.000000 -0.499854
vn -0.866110 0.000000 -0.499854
vn -0.866006 0.000000 0.500033
vn -0.866006 0.000000 0.500033
vn -0.866006 0.000000 0.500033
vn -0.866006 0.000000 0.500033
vn 0.000000 0.000000 1.000000
vn 0.000000 0.000000 1.000000
vn 0.000000 0.000000 1.000000
vn 0.000000 0.000000 1.000000
vn 0.866006 0.000000 0.500033
vn 0.866006 0.000000 0.500033
vn 0.866006 0.000000 0.500033
vn 0.866006 0.000000 0.500033
vn 0.494562 0.820922 -0.285473
vn 0.494562 0.820922 -0.285473
vn 0.494562 0.820923 -0.285473
vn 0.494562 0.820922 -0.285473
vn 0.000000 0.820919 -0.571045
vn 0.000000 0.820919 -0.571045
vn 0.000000 0.820919 -0.571045
vn 0.000000 0.820919 -0.571045
vn -0.494562 0.820922 -0.285473
vn -0.494562 0.820922 -0.285473
vn -0.494562 0.820922 -0.285473
vn -0.494562 0.820923 -0.285473
vn -0.494528 0.820922 0.285532
vn -0.494528 0.820922 0.285532
vn -0.494528 0.820922 0.285532
vn -0.494528 0.820922 0.285532
vn 0.000000 0.820919 0.571045
vn 0.000000 0.820919 0.571045
vn 0.000000 0.820919 0.571045
vn 0.000000 0.820919 0.571045
vn 0.494528 0.820922 0.285532
vn 0.494528 0.820922 0.285532
vn 0.494528 0.820922 0.285532
vn 0.494528 0.820922 0.285532
vn 0.134405 0.987884 -0.077589
vn 0.134405 0.987884 -0.077589
vn 0.134405 0.987884 -0.077589
vn 0.134405 0.987884 -0.077589
vn 0.000000 0.987885 -0.155187
vn 0.000000 0.987885 -0.155187
vn 0.000000 0.987885 -0.155187
vn 0.000000 0.987885 -0.155187
vn -0.134405 0.987884 -0.077589
vn -0.134405 0.987884 -0.077589
vn -0.134405 0.987884 -0.077589
vn -0.134405 0.987884 -0.077589
vn -0.134399 0.987885 0.077592
vn -0.134399 0.987885 0.077592
vn -0.134399 0.987885 0.077592
vn -0.134399 0.987885 0.077592
vn 0.000000 0.987887 0.155175
vn 0.000000 0.987887 0.155175
vn 0.000000 0.987887 0.155175
vn 0.000000 0.987887 0.155175
vn 0.134399 0.987885 0.077592
vn 0.134399 0.987885 0.077592
vn 0.134399 0.987885 0.077592
vn 0.134399 0.987885 0.077592
vn 0.866051 0.000000 -0.499956
vn 0.866051 0.000000 -0.499956
vn 0.866051 0.000000 -0.499956
vn 0.866051 0.000000 -0.499956
vn 0.000000 0.000000 -1.000000
vn 0.000000 0.000000 -1.000000
vn 0.000000 0.000000 -1.000000
vn 0.000000 0.000000 -1.000000
vn -0.866051 0.000000 -0.499956
vn -0.866051 0.000000 -0.499956
vn -0.866051 0.000000 -0.499956
vn -0.866051 0.000000 -0.499956
vn -0.866042 0.000000 0.499972
vn -0.866042 0.000000 0.499972
vn -0.866042 0.000000 0.499972
vn -0.866042 0.000000 0.499972
vn 0.000000 0.000000 1.000000
vn 0.000000 0.000000 1.000000
vn 0.000000 0.000000 1.000000
vn 0.000000 0.000000 1.000000
vn 0.866042 0.000000 0.499972
vn 0.866042 0.000000 0.499972
vn 0.866042 0.000000 0.499972
vn 0.866042 0.000000 0.499972
vn -0.854060 -0.165621 0.493103
vn -0.854060 -0.165621 0.493103
vn -0.854060 -0.165621 0.493103
vn -0.854060 -0.165621 0.493103
vn 0.000000 -0.165629 0.986188
vn 0.000000 -0.165629 0.986188
vn 0.000000 -0.165629 0.986188
vn 0.000000 -0.165629 0.986188
vn 0.854056 -0.165621 0.493110
vn 0.854056 -0.165621 0.493110
vn 0.854056 -0.165621 0.493110
vn 0.854056 -0.165621 0.493110
vn 0.854072 -0.165610 -0.493087
vn 0.854072 -0.165610 -0.493087
vn 0.854072 -0.165610 -0.493087
vn 0.854072 -0.165610 -0.493087
vn 0.000000 -0.165585 -0.986196
vn 0.000000 -0.165585 -0.986196
vn 0.000000 -0.165585 -0.986196
vn 0.000000 -0.165585 -0.986196
vn -0.854076 -0.165610 -0.493080
vn -0.854076 -0.165610 -0.493080
vn -0.854076 -0.165610 -0.493080
vn -0.854076 -0.165610 -0.493080
vn 0.000000 -0.156078 0.987745
vn 0.000000 -0.156078 0.987745
vn 0.000000 -0.156078 0.987745
vn 0.000000 -0.156078 0.987745
vn 0.855422 -0.156065 0.493860
vn 0.855422 -0.156065 0.493860
vn 0.855422 -0.156065 0.493860
vn 0.855422 -0.156065 0.493860
vn 0.855406 -0.156057 -0.493890
vn 0.855406 -0.156057 -0.493890
vn 0.855406 -0.156057 -0.493890
vn 0.855406 -0.156057 -0.493890
vn 0.000000 -0.156044 -0.987750
vn 0.000000 -0.156044 -0.987750
vn 0.000000 -0.156044 -0.987750
vn 0.000000 -0.156044 -0.987750
vn -0.855404 -0.156053 -0.493894
vn -0.855404 -0.156053 -0.493894
vn -0.855404 -0.156053 -0.493894
vn -0.855404 -0.156053 -0.493894
vn -0.855420 -0.156061 0.493864
vn -0.855420 -0.156061 0.493864
vn -0.855420 -0.156061 0.493864
vn -0.855420 -0.156061 0.493864
s off
f 66/81/1 67/82/2 8/15/3 7/14/4
f 67/82/5 68/83/6 9/16/7 8/15/8
f 68/83/9 63/77/10 10/17/11 9/16/12
f 63/77/13 64/78/14 11/18/15 10/17/16
f 64/78/17 65/79/18 12/19/19 11/18/20
f 65/79/21 66/80/22 7/20/23 12/19/24
f 57/71/25 56/72/26 58/27/27
f 59/73/28 57/71/29 58/27/30
f 60/74/31 59/73/32 58/27/33
f 61/75/34 60/74/35 58/27/36
f 62/76/37 61/75/38 58/27/39
f 56/72/40 62/76/41 58/27/42
f 19/35/43 20/36/44 21/28/45
f 20/36/46 22/37/47 21/28/48
f 22/37/49 23/38/50 21/28/51
f 23/38/52 24/39/53 21/28/54
f 24/39/55 25/40/56 21/28/57
f 25/40/58 19/35/59 21/28/60
f 7/25/61 8/24/62 14/30/63 13/29/64
f 8/24/65 9/23/66 15/31/67 14/30/68
f 9/23/69 10/22/70 16/32/71 15/31/72
f 10/22/73 11/21/74 17/33/75 16/32/76
f 11/21/77 12/26/78 18/34/79 17/33/80
f 12/26/81 7/25/82 13/29/83 18/34/84
f 74/89/85 69/84/86 20/36/87 19/35/88
f 69/84/89 70/85/90 22/37/91 20/36/92
f 70/85/93 71/86/94 23/38/95 22/37/96
f 71/86/97 72/87/98 24/39/99 23/38/100
f 72/87/101 73/88/102 25/40/103 24/39/104
f 73/88/105 74/89/106 19/35/107 25/40/108
f 2/2/109 1/1/110 26/42/111 27/41/112
f 3/3/113 2/2/114 27/41/115 28/43/116
f 4/4/117 3/3/118 28/43/119 29/44/120
f 5/5/121 4/4/122 29/44/123 30/45/124
f 6/6/125 5/5/126 30/45/127 31/46/128
f 1/1/129 6/6/130 31/46/131 26/42/132
f 27/41/133 26/42/134 32/48/135 33/47/136
f 28/43/137 27/41/138 33/47/139 34/49/140
f 29/44/141 28/43/142 34/49/143 35/50/144
f 30/45/145 29/44/146 35/50/147 36/51/148
f 31/46/149 30/45/150 36/51/151 37/52/152
f 26/42/153 31/46/154 37/52/155 32/48/156
f 33/47/157 32/48/158 38/54/159 39/53/160
f 34/49/161 33/47/162 39/53/163 40/55/164
f 35/50/165 34/49/166 40/55/167 41/56/168
f 36/51/169 35/50/170 41/56/171 42/57/172
f 37/52/173 36/51/174 42/57/175 43/58/176
f 32/48/177 37/52/178 43/58/179 38/54/180
f 39/53/181 38/54/182 44/60/183 45/59/184
f 40/55/185 39/53/186 45/59/187 46/61/188
f 41/56/189 40/55/190 46/61/191 47/62/192
f 42/57/193 41/56/194 47/62/195 48/63/196
f 43/58/197 42/57/198 48/63/199 49/64/200
f 38/54/201 43/58/202 49/64/203 44/60/204
f 45/59/205 44/60/206 50/66/207 51/65/208
f 46/61/209 45/59/210 51/65/211 52/67/212
f 47/62/213 46/61/214 52/67/215 53/68/216
f 48/63/217 47/62/218 53/68/219 54/69/220
f 49/64/221 48/63/222 54/69/223 55/70/224
f 44/60/225 49/64/226 55/70/227 50/66/228
f 51/65/229 50/66/230 56/72/231 57/71/232
f 52/67/233 51/65/234 57/71/235 59/73/236
f 53/68/237 52/67/238 59/73/239 60/74/240
f 54/69/241 53/68/242 60/74/243 61/75/244
f 55/70/245 54/69/246 61/75/247 62/76/248
f 50/66/249 55/70/250 62/76/251 56/72/252
f 4/10/253 5/11/254 64/78/255 63/77/256
f 5/11/257 6/12/258 65/79/259 64/78/260
f 6/12/261 1/13/262 66/80/263 65/79/264
f 1/7/265 2/8/266 67/82/267 66/81/268
f 2/8/269 3/9/270 68/83/271 67/82/272
f 3/9/273 4/10/274 63/77/275 68/83/276
f 14/30/277 15/31/278 70/85/279 69/84/280
f 15/31/281 16/32/282 71/86/283 70/85/284
f 16/32/285 17/33/286 72/87/287 71/86/288
f 17/33/289 18/34/290 73/88/291 72/87/292
f 18/34/293 13/29/294 74/89/295 73/88/296
f 13/29/297 14/30/298 69/84/299 74/89/300
