# This file uses meters as units for non-parametric coordinates.

v -4.294342 -18.669769 -1.256592
v -2.186249 -14.094421 -1.256592
v 0.844757 -14.193237 -1.256592
v 1.295807 -17.597046 -1.256592
v 5.449127 -11.804123 -1.256592
v 2.732422 -8.155609 -1.256592
v -3.114105 -8.095688 -1.256592
v -6.223328 -12.114975 -1.256592
v -0.837463 -21.134384 -1.256592
v 1.179108 -21.479019 -1.256592
v 5.472565 -17.643494 -1.256592
v -5.287445 -18.007095 -1.256592
v -5.287445 -18.007095 1.256836
v -3.115265 21.663376 -1.256592
v -3.115265 21.663376 1.256836
v 2.772430 21.663376 -1.256592
v 2.772430 21.663376 1.256836
v 5.472565 -17.643494 1.256836
v 5.449127 -11.804123 1.256836
v -6.223328 -12.114975 1.256836
v 2.732422 -8.155609 1.256836
v -3.114105 -8.095688 1.256836
v 3.940094 18.966019 1.256836
v -4.282776 18.966019 1.256836
v -4.282776 18.966019 -1.256592
v 3.940094 18.966019 -1.256592
v -4.282776 14.898026 -1.256592
v -4.282776 14.898026 1.256836
v 3.940094 14.898056 1.256836
v 3.940094 14.898056 -1.256592
v -1.845001 16.327835 1.256836
v 1.502380 16.327835 1.256836
v 2.530304 18.357162 1.256836
v -2.873169 18.357162 1.256836
v 1.550018 20.367172 1.256836
v -1.892792 20.367172 1.256836
v 1.502380 16.327835 -1.256592
v -1.845001 16.327835 -1.256592
v -2.873169 18.357162 -1.256592
v 2.530304 18.357162 -1.256592
v -1.892792 20.367172 -1.256592
v 1.550018 20.367172 -1.256592
v 1.826202 -6.619675 1.256836
v -2.169037 -6.619659 1.256836
v 2.618561 12.659332 1.256836
v -2.961273 12.659332 1.256836
v 1.130737 14.370270 1.256836
v -1.473480 14.370270 1.256836
v -2.169037 -6.619659 -1.256592
v 1.826202 -6.619675 -1.256592
v -2.961273 12.659332 -1.256592
v 2.618561 12.659332 -1.256592
v -1.473480 14.370270 -1.256592
v 1.130737 14.370270 -1.256592
v 1.179108 -21.479019 1.256836
v -0.837463 -21.134384 1.256836
v -4.294342 -18.669769 1.256836
v -2.186249 -14.094421 1.256836
v 0.844757 -14.193237 1.256836
v 1.295807 -17.597046 1.256836
v 0.907349 -12.892731 1.256836
v -2.697144 -12.562241 1.256836
v 0.971558 -9.335007 1.256836
v -2.194031 -9.113220 1.256836
v -2.697144 -12.562241 -1.256592
v -2.194031 -9.113220 -1.256592
v 0.971558 -9.335007 -1.256592
v 0.907349 -12.892731 -1.256592
v 0.543243 -11.801636 2.608643
v -2.207916 -11.586075 2.608643
v 0.578766 -10.087616 2.608643
v -1.997223 -9.907364 2.608643
v -2.207916 -11.586075 -2.608398
v -1.997223 -9.907349 -2.608398
v 0.578766 -10.087585 -2.608398
v 0.543243 -11.801605 -2.608398
vt 0.133518 0.380645
vt 0.133518 0.380645
vt 0.133518 0.380645
vt 0.133518 0.380645
vt 0.133518 0.380645
vt 0.133518 0.380645
vt 0.133518 0.380645
vt 0.133518 0.380645
vt 0.133518 0.380645
vt 0.133518 0.380645
vt 0.133518 0.380645
vt 0.133518 0.380645
vt 0.133518 0.380645
vt 0.133518 0.380645
vt 0.133518 0.380645
vt 0.133518 0.380645
vt 0.133518 0.380645
vt 0.133518 0.380645
vt 0.133518 0.380645
vt 0.133518 0.380645
vt 0.133518 0.380645
vt 0.133518 0.380645
vt 0.133518 0.380645
vt 0.133518 0.380645
vt 0.133518 0.380645
vt 0.133518 0.380645
vt 0.133518 0.380645
vt 0.133518 0.380645
vt 0.133518 0.380645
vt 0.133518 0.380645
vt 0.133518 0.380645
vt 0.133518 0.380645
vt 0.133518 0.380645
vt 0.133518 0.380645
vt 0.133518 0.380645
vt 0.133518 0.380645
vt 0.133518 0.380645
vt 0.133518 0.380645
vt 0.133545 0.327049
vt 0.133545 0.327049
vt 0.133545 0.326981
vt 0.133545 0.326981
vt 0.133545 0.327049
vt 0.133545 0.327049
vt 0.133545 0.326981
vt 0.133545 0.326981
vt 0.133545 0.326981
vt 0.133545 0.326981
vt 0.133518 0.380645
vt 0.133518 0.380645
vt 0.133518 0.380645
vt 0.133518 0.380645
vt 0.133518 0.380645
vt 0.133518 0.380645
vt 0.133518 0.380645
vt 0.133518 0.380645
vt 0.133518 0.380645
vt 0.133518 0.380645
vt 0.133518 0.380645
vt 0.133518 0.380645
vt 0.133545 0.326981
vt 0.133545 0.326981
vt 0.133518 0.380645
vt 0.133518 0.380645
vt 0.133518 0.380645
vt 0.133518 0.380645
vt 0.133518 0.380645
vt 0.133518 0.380645
vt 0.133518 0.380645
vt 0.133518 0.380645
vt 0.133518 0.380645
vt 0.133518 0.380645
vt 0.133518 0.380645
vt 0.133518 0.380645
vt 0.133518 0.380645
vt 0.133518 0.380645
vt 0.133518 0.380645
vt 0.133518 0.380645
vt 0.133518 0.380645
vt 0.133518 0.380645
vt 0.133518 0.380645
vt 0.133518 0.380645
vt 0.133518 0.380645
vt 0.133518 0.380645
vt 0.133518 0.380645
vt 0.133518 0.380645
vt 0.133518 0.380645
vt 0.133518 0.380645
vt 0.133518 0.380645
vt 0.133518 0.380645
vt 0.133518 0.380645
vt 0.133518 0.380645
vt 0.133518 0.380645
vt 0.133518 0.380645
vt 0.133518 0.380645
vt 0.133518 0.380645
vt 0.133518 0.380645
vt 0.133518 0.380645
vt 0.133518 0.380645
vt 0.133518 0.380645
vt 0.133518 0.380645
vt 0.133518 0.380645
vt 0.133518 0.380645
vt 0.133518 0.380645
vt 0.133518 0.380645
vt 0.133518 0.380645
vt 0.133518 0.380645
vt 0.133518 0.380645
vt 0.133518 0.380645
vt 0.133518 0.380645
vt 0.133518 0.380645
vt 0.133518 0.380645
vt 0.133518 0.380645
vt 0.133518 0.380645
vt 0.134277 0.326477
vt 0.134277 0.326477
vt 0.134277 0.326477
vt 0.134277 0.326477
vt 0.134277 0.326477
vt 0.134277 0.326477
vt 0.134277 0.326477
vt 0.134277 0.326477
vt 0.134277 0.326477
vt 0.134277 0.326477
vt 0.134277 0.326477
vt 0.134277 0.326477
vt 0.134277 0.326477
vt 0.134277 0.326477
vt 0.134277 0.326477
vt 0.134277 0.326477
vt 0.133518 0.380645
vt 0.133518 0.380645
vt 0.133518 0.380645
vt 0.133518 0.380645
vt 0.133518 0.380645
vt 0.133518 0.380645
vt 0.133518 0.380645
vt 0.133518 0.380645
vt 0.133518 0.380645
vt 0.133518 0.380645
vt 0.133518 0.380645
vt 0.133518 0.380645
vt 0.133518 0.380645
vt 0.133518 0.380645
vt 0.133518 0.380645
vt 0.133518 0.380645
vt 0.133518 0.380645
vt 0.133518 0.380645
vt 0.133518 0.380645
vt 0.133518 0.380645
vt 0.133518 0.380645
vt 0.133518 0.380645
vt 0.133518 0.380645
vt 0.133518 0.380645
vt 0.133518 0.380645
vt 0.133518 0.380645
vt 0.133518 0.380645
vt 0.133518 0.380645
vt 0.133518 0.380645
vt 0.133518 0.380645
vt 0.133518 0.380645
vt 0.133518 0.380645
vt 0.133518 0.380645
vt 0.133518 0.380645
vt 0.133518 0.380645
vt 0.133518 0.380645
vt 0.133518 0.380645
vt 0.133518 0.380645
vt 0.133518 0.380645
vt 0.133518 0.380645
vt 0.133518 0.380645
vn -0.000000 0.000000 -1.000000
vn -0.000000 0.000000 -1.000000
vn -0.000000 0.000000 -1.000000
vn -0.000000 0.000000 -1.000000
vn 0.000000 0.000000 -1.000000
vn 0.000000 0.000000 -1.000000
vn 0.000000 0.000000 -1.000000
vn 0.000000 0.000000 -1.000000
vn 0.000000 0.000000 -1.000000
vn 0.000000 0.000000 -1.000000
vn 0.000000 0.000000 -1.000000
vn 0.000000 0.000000 -1.000000
vn -0.987619 -0.156870 0.000000
vn -0.987619 -0.156870 0.000000
vn -0.987619 -0.156870 0.000000
vn -0.987619 -0.156870 0.000000
vn 0.000000 1.000000 0.000000
vn 0.000000 1.000000 0.000000
vn 0.000000 1.000000 0.000000
vn 0.000000 1.000000 0.000000
vn 0.999992 0.004014 0.000000
vn 0.999992 0.004014 0.000000
vn 0.999992 0.004014 0.000000
vn 0.999992 0.004014 0.000000
vn -0.168459 -0.985709 0.000000
vn -0.168459 -0.985709 0.000000
vn -0.168459 -0.985709 0.000000
vn -0.168459 -0.985709 0.000000
vn -1.000000 0.000000 0.000000
vn -1.000000 0.000000 0.000000
vn -1.000000 0.000000 0.000000
vn -1.000000 0.000000 0.000000
vn 1.000000 0.000000 0.000000
vn 1.000000 0.000000 0.000000
vn 1.000000 0.000000 0.000000
vn 1.000000 0.000000 0.000000
vn -0.917722 0.397222 0.000000
vn -0.917722 0.397222 0.000000
vn -0.917722 0.397222 0.000000
vn -0.917722 0.397222 0.000000
vn 0.917703 0.397266 0.000000
vn 0.917703 0.397266 0.000000
vn 0.917703 0.397266 0.000000
vn 0.917703 0.397266 0.000000
vn -0.998711 -0.050760 0.000000
vn -0.998711 -0.050760 0.000000
vn -0.998711 -0.050760 0.000000
vn -0.998711 -0.050760 0.000000
vn 0.000000 0.000000 1.000000
vn 0.000000 0.000000 1.000000
vn 0.000000 0.000000 1.000000
vn 0.000000 0.000000 1.000000
vn 0.998631 -0.052314 0.000000
vn 0.998631 -0.052314 0.000000
vn 0.998631 -0.052314 0.000000
vn 0.998631 -0.052314 0.000000
vn 0.000000 0.000000 -1.000000
vn 0.000000 0.000000 -1.000000
vn 0.000000 0.000000 -1.000000
vn 0.000000 0.000000 -1.000000
vn 0.000000 0.000000 1.000000
vn 0.000000 0.000000 1.000000
vn 0.000000 0.000000 1.000000
vn 0.000000 0.000000 1.000000
vn -0.000000 0.000000 1.000000
vn -0.000000 0.000000 1.000000
vn -0.000000 0.000000 1.000000
vn -0.000000 0.000000 1.000000
vn 0.000000 0.000000 1.000000
vn 0.000000 0.000000 1.000000
vn 0.000000 0.000000 1.000000
vn 0.000000 0.000000 1.000000
vn 0.000000 0.000000 1.000000
vn 0.000000 0.000000 1.000000
vn 0.000000 0.000000 1.000000
vn 0.000000 0.000000 1.000000
vn 0.000000 0.000000 1.000000
vn 0.000000 0.000000 1.000000
vn 0.000000 0.000000 1.000000
vn 0.000000 0.000000 1.000000
vn 0.000000 0.000000 1.000000
vn 0.000000 0.000000 1.000000
vn 0.000000 0.000000 1.000000
vn 0.000000 0.000000 1.000000
vn 0.000000 0.000000 -1.000000
vn 0.000000 0.000000 -1.000000
vn 0.000000 0.000000 -1.000000
vn 0.000000 0.000000 -1.000000
vn -0.000000 0.000000 -1.000000
vn -0.000000 0.000000 -1.000000
vn -0.000000 0.000000 -1.000000
vn -0.000000 0.000000 -1.000000
vn -0.000000 0.000000 -1.000000
vn -0.000000 0.000000 -1.000000
vn -0.000000 0.000000 -1.000000
vn -0.000000 0.000000 -1.000000
vn 0.000000 0.000000 -1.000000
vn 0.000000 0.000000 -1.000000
vn 0.000000 0.000000 -1.000000
vn 0.000000 0.000000 -1.000000
vn 0.000000 0.000000 -1.000000
vn 0.000000 0.000000 -1.000000
vn 0.000000 0.000000 -1.000000
vn 0.000000 0.000000 -1.000000
vn 0.000000 0.000000 -1.000000
vn 0.000000 0.000000 -1.000000
vn 0.000000 0.000000 -1.000000
vn 0.000000 0.000000 -1.000000
vn 0.000000 1.000000 0.000000
vn 0.000000 1.000000 0.000000
vn 0.000000 1.000000 0.000000
vn 0.000000 1.000000 0.000000
vn 0.892040 0.451956 0.000000
vn 0.892040 0.451956 0.000000
vn 0.892040 0.451956 0.000000
vn 0.892040 0.451956 0.000000
vn -0.892083 0.451871 0.000000
vn -0.892083 0.451871 0.000000
vn -0.892083 0.451871 0.000000
vn -0.892083 0.451871 0.000000
vn 0.898789 -0.438382 0.000000
vn 0.898789 -0.438382 0.000000
vn 0.898789 -0.438382 0.000000
vn 0.898789 -0.438382 0.000000
vn 0.000000 -1.000000 0.000000
vn 0.000000 -1.000000 0.000000
vn 0.000000 -1.000000 0.000000
vn 0.000000 -1.000000 0.000000
vn -0.898805 -0.438349 0.000000
vn -0.898805 -0.438349 0.000000
vn -0.898805 -0.438349 0.000000
vn -0.898805 -0.438349 0.000000
vn -0.000000 0.000000 1.000000
vn -0.000000 0.000000 1.000000
vn -0.000000 0.000000 1.000000
vn -0.000000 0.000000 1.000000
vn 0.000000 0.000000 1.000000
vn 0.000000 0.000000 1.000000
vn 0.000000 0.000000 1.000000
vn 0.000000 0.000000 1.000000
vn -0.000000 0.000000 1.000000
vn -0.000000 0.000000 1.000000
vn -0.000000 0.000000 1.000000
vn -0.000000 0.000000 1.000000
vn -0.000000 0.000000 1.000000
vn -0.000000 0.000000 1.000000
vn -0.000000 0.000000 1.000000
vn -0.000000 0.000000 1.000000
vn 0.000000 0.000000 1.000000
vn 0.000000 0.000000 1.000000
vn 0.000000 0.000000 1.000000
vn 0.000000 0.000000 1.000000
vn 0.000000 0.000000 1.000000
vn 0.000000 0.000000 1.000000
vn 0.000000 0.000000 1.000000
vn 0.000000 0.000000 1.000000
vn -0.000000 0.000000 -1.000000
vn -0.000000 0.000000 -1.000000
vn -0.000000 0.000000 -1.000000
vn -0.000000 0.000000 -1.000000
vn -0.000000 0.000000 -1.000000
vn -0.000000 0.000000 -1.000000
vn -0.000000 0.000000 -1.000000
vn -0.000000 0.000000 -1.000000
vn 0.000000 0.000000 -1.000000
vn 0.000000 0.000000 -1.000000
vn 0.000000 0.000000 -1.000000
vn 0.000000 0.000000 -1.000000
vn -0.000000 0.000000 -1.000000
vn -0.000000 0.000000 -1.000000
vn -0.000000 0.000000 -1.000000
vn -0.000000 0.000000 -1.000000
vn 0.000000 0.000000 -1.000000
vn 0.000000 0.000000 -1.000000
vn 0.000000 0.000000 -1.000000
vn 0.000000 0.000000 -1.000000
vn 0.000000 0.000000 -1.000000
vn 0.000000 0.000000 -1.000000
vn 0.000000 0.000000 -1.000000
vn 0.000000 0.000000 -1.000000
vn 0.666217 -0.745758 0.000000
vn 0.666217 -0.745758 0.000000
vn 0.666217 -0.745758 0.000000
vn 0.666217 -0.745758 0.000000
vn 0.000000 0.000000 1.000000
vn 0.000000 0.000000 1.000000
vn 0.000000 0.000000 1.000000
vn 0.000000 0.000000 1.000000
vn 0.000000 0.000000 1.000000
vn 0.000000 0.000000 1.000000
vn 0.000000 0.000000 1.000000
vn 0.000000 0.000000 1.000000
vn 0.000000 0.000000 1.000000
vn 0.000000 0.000000 1.000000
vn 0.000000 0.000000 1.000000
vn 0.000000 0.000000 1.000000
vn 0.000000 0.000000 1.000000
vn 0.000000 0.000000 1.000000
vn 0.000000 0.000000 1.000000
vn -0.555051 -0.831816 0.000000
vn -0.555051 -0.831816 0.000000
vn -0.555051 -0.831816 0.000000
vn -0.555051 -0.831816 0.000000
vn 0.908232 -0.418468 0.000000
vn 0.908232 -0.418468 0.000000
vn 0.908232 -0.418468 0.000000
vn 0.908232 -0.418468 0.000000
vn -0.032584 -0.999469 0.000000
vn -0.032584 -0.999469 0.000000
vn -0.032584 -0.999469 0.000000
vn -0.032584 -0.999469 0.000000
vn -0.991334 -0.131365 0.000000
vn -0.991334 -0.131365 0.000000
vn -0.991334 -0.131365 0.000000
vn -0.991334 -0.131365 0.000000
vn -0.856330 0.516429 0.000000
vn -0.856330 0.516429 0.000000
vn -0.856330 0.516429 0.000000
vn -0.856330 0.516429 0.000000
vn -0.790960 0.611867 0.000000
vn -0.790960 0.611867 0.000000
vn -0.790960 0.611867 0.000000
vn -0.790960 0.611867 0.000000
vn 0.000000 0.000000 1.000000
vn 0.000000 0.000000 1.000000
vn 0.000000 0.000000 1.000000
vn 0.000000 0.000000 1.000000
vn 0.802072 0.597228 0.000000
vn 0.802072 0.597228 0.000000
vn 0.802072 0.597228 0.000000
vn 0.802072 0.597228 0.000000
vn -0.000000 0.000000 -1.000000
vn -0.000000 0.000000 -1.000000
vn -0.000000 0.000000 -1.000000
vn -0.000000 0.000000 -1.000000
vn 0.000000 0.000000 1.000000
vn 0.000000 0.000000 1.000000
vn 0.000000 0.000000 1.000000
vn 0.000000 0.000000 1.000000
vn 0.000000 0.000000 1.000000
vn 0.000000 0.000000 1.000000
vn 0.000000 0.000000 1.000000
vn 0.000000 0.000000 1.000000
vn -0.000000 0.000000 1.000000
vn -0.000000 0.000000 1.000000
vn -0.000000 0.000000 1.000000
vn -0.000000 0.000000 1.000000
vn 0.000000 0.000000 -1.000000
vn 0.000000 0.000000 -1.000000
vn 0.000000 0.000000 -1.000000
vn 0.000000 0.000000 -1.000000
vn 0.000000 0.000000 -1.000000
vn 0.000000 0.000000 -1.000000
vn 0.000000 0.000000 -1.000000
vn 0.000000 0.000000 -1.000000
vn 0.000000 0.000000 -1.000000
vn 0.000000 0.000000 -1.000000
vn 0.000000 0.000000 -1.000000
vn 0.000000 0.000000 -1.000000
vn 0.000000 0.000000 -1.000000
vn 0.000000 0.000000 -1.000000
vn 0.000000 0.000000 -1.000000
vn 0.000000 0.000000 1.000000
vn 0.000000 0.000000 1.000000
vn 0.000000 0.000000 1.000000
vn 0.000000 0.000000 1.000000
vn -0.000000 0.000000 1.000000
vn -0.000000 0.000000 1.000000
vn -0.000000 0.000000 1.000000
vn -0.000000 0.000000 -1.000000
vn -0.000000 0.000000 -1.000000
vn -0.000000 0.000000 -1.000000
vn -0.000000 0.000000 -1.000000
vn 0.000000 0.000000 -1.000000
vn 0.000000 0.000000 -1.000000
vn 0.000000 0.000000 -1.000000
vn -0.067962 -0.791031 0.607990
vn -0.067962 -0.791031 0.607990
vn -0.067962 -0.791031 0.607990
vn -0.067962 -0.791031 0.607990
vn 0.962221 -0.018203 0.271660
vn 0.962221 -0.018203 0.271660
vn 0.962221 -0.018203 0.271660
vn 0.962221 -0.018203 0.271660
vn 0.060534 0.864500 0.498974
vn 0.060534 0.864500 0.498974
vn 0.060534 0.864500 0.498974
vn 0.060534 0.864500 0.498974
vn -0.962653 0.134006 0.235249
vn -0.962653 0.134006 0.235249
vn -0.962653 0.134006 0.235249
vn -0.962653 0.134006 0.235249
vn -0.962653 0.134006 -0.235248
vn -0.962653 0.134006 -0.235248
vn -0.962653 0.134006 -0.235248
vn -0.962653 0.134006 -0.235248
vn 0.060532 0.864507 -0.498962
vn 0.060532 0.864507 -0.498962
vn 0.060532 0.864507 -0.498962
vn 0.060532 0.864507 -0.498962
vn 0.962221 -0.018203 -0.271660
vn 0.962221 -0.018203 -0.271660
vn 0.962221 -0.018203 -0.271660
vn 0.962221 -0.018203 -0.271660
vn -0.067958 -0.791027 -0.607996
vn -0.067958 -0.791027 -0.607996
vn -0.067958 -0.791027 -0.607996
vn -0.067958 -0.791027 -0.607996
s off
f 11/7/1 10/10/2 9/9/3 4/8/4
f 2/2/5 1/12/6 12/11/7 8/1/8
f 11/14/9 4/13/10 3/3/11 5/4/12
f 20/15/13 8/16/14 12/91/15 13/92/16
f 14/17/17 15/18/18 17/19/19 16/20/20
f 11/89/21 5/21/22 19/22/23 18/90/24
f 10/23/25 55/24/26 56/25/27 9/26/28
f 27/31/29 28/32/30 24/33/31 25/34/32
f 26/35/33 23/36/34 29/37/35 30/38/36
f 25/34/37 24/33/38 15/18/39 14/17/40
f 16/20/41 17/19/42 23/36/43 26/35/44
f 7/30/45 22/29/46 28/32/47 27/31/48
f 44/39/49 43/40/50 45/41/51 46/42/52
f 30/38/53 29/37/54 21/28/55 6/27/56
f 50/43/57 49/44/58 51/45/59 52/46/60
f 46/42/61 45/41/62 47/47/63 48/48/64
f 29/49/65 23/50/66 33/51/67 32/52/68
f 24/33/69 28/32/70 31/53/71 34/54/72
f 23/55/73 17/131/74 35/56/75 33/57/76
f 17/132/77 15/133/78 36/58/79 35/56/80
f 15/59/81 24/134/82 34/135/83 36/60/84
f 52/46/85 51/45/86 53/61/87 54/62/88
f 27/63/89 25/136/90 39/64/91 38/65/92
f 26/137/93 30/138/94 37/139/95 40/140/96
f 25/34/97 14/17/98 41/66/99 39/141/100
f 14/17/101 16/67/102 42/68/103 41/66/104
f 16/67/105 26/142/106 40/143/107 42/68/108
f 37/144/109 38/65/110 31/69/111 32/145/112
f 38/65/113 39/64/114 34/70/115 31/69/116
f 40/146/117 37/147/118 32/148/119 33/149/120
f 39/150/121 41/66/122 36/71/123 34/151/124
f 41/66/125 42/68/126 35/72/127 36/71/128
f 42/68/129 40/152/130 33/153/131 35/72/132
f 22/29/133 21/73/134 43/74/135 44/75/136
f 21/73/137 29/49/138 45/76/139 43/74/140
f 28/32/141 22/29/142 44/75/143 46/77/144
f 29/78/145 32/154/146 47/79/147 45/80/148
f 32/155/149 31/156/150 48/81/151 47/79/152
f 31/157/153 28/158/154 46/159/155 48/82/156
f 6/160/157 7/161/158 49/83/159 50/162/160
f 7/163/161 27/164/162 51/84/163 49/83/164
f 30/165/165 6/166/166 50/167/167 52/168/168
f 27/63/169 38/65/170 53/85/171 51/86/172
f 38/65/173 37/169/174 54/87/175 53/85/176
f 37/170/177 30/171/178 52/88/179 54/87/180
f 11/89/181 18/90/182 55/24/183 10/23/184
f 20/93/185 58/94/186 62/107/187
f 18/99/188 60/100/189 56/101/190 55/102/191
f 58/94/192 20/93/193 13/103/194 57/104/195
f 18/106/196 19/96/197 59/95/198 60/105/199
f 12/11/200 1/12/201 57/104/202 13/92/203
f 57/104/204 1/12/205 2/2/206 58/94/207
f 58/94/208 2/2/209 3/3/210 59/95/211
f 59/95/212 3/3/213 4/8/214 60/105/215
f 60/105/216 4/8/217 9/26/218 56/101/219
f 8/16/220 20/15/221 22/29/222 7/30/223
f 70/115/224 69/116/225 71/117/226 72/118/227
f 6/27/228 21/28/229 19/22/230 5/21/231
f 73/119/232 74/120/233 75/121/234 76/122/235
f 19/96/236 21/97/237 63/109/238 61/108/239
f 21/97/240 22/98/241 64/110/242 63/109/243
f 22/98/244 20/93/245 62/107/246 64/110/247
f 8/1/248 7/6/249 66/112/250 65/111/251
f 7/6/252 6/5/253 67/113/254 66/112/255
f 6/5/256 5/4/257 68/114/258 67/113/259
f 3/3/260 68/114/261 5/4/262
f 62/107/263 58/94/264 59/95/265 61/108/266
f 61/108/267 59/95/268 19/96/269
f 2/2/270 65/111/271 68/114/272 3/3/273
f 8/1/274 65/111/275 2/2/276
f 62/123/277 61/124/278 69/116/279 70/115/280
f 61/124/281 63/125/282 71/117/283 69/116/284
f 63/125/285 64/126/286 72/118/287 71/117/288
f 64/126/289 62/123/290 70/115/291 72/118/292
f 65/127/293 66/128/294 74/120/295 73/119/296
f 66/128/297 67/129/298 75/121/299 74/120/300
f 67/129/301 68/130/302 76/122/303 75/121/304
f 68/130/305 65/127/306 73/119/307 76/122/308
