# This file uses meters as units for non-parametric coordinates.

v -68.327576 4.597420 -1.396973
v -68.327576 4.597420 1.397461
v -68.327576 8.871391 -1.396973
v -68.327576 8.871391 1.397461
v -20.257568 8.871391 -1.396973
v -20.257568 8.871391 1.397461
v -18.719055 4.597420 -1.396973
v -18.719055 4.597420 1.397461
v -71.471764 1.847786 -1.396973
v -71.471764 1.847786 1.397461
v -75.007912 1.847786 1.397461
v -75.007912 1.847786 -1.396973
v -71.471764 -6.078163 -1.396973
v -71.471764 -6.078163 1.397461
v -75.007912 -6.078163 1.397461
v -75.007912 -6.078163 -1.396973
v -72.412354 -8.105095 -0.879883
v -72.412354 -8.105095 0.879883
v -74.067383 -8.105095 0.879883
v -74.067383 -8.105095 -0.879883
v -72.412354 -11.965118 -0.879883
v -72.412354 -11.965118 0.879883
v -74.067383 -11.965118 0.879883
v -74.067383 -11.965118 -0.879883
v -70.337616 3.855843 -1.396973
v -70.337616 3.855843 1.397461
v -73.566772 7.033638 1.397461
v -73.566772 7.033638 -1.396973
v -19.752686 10.006119 -1.697021
v -19.752686 10.006119 1.697021
v -17.472961 3.462677 1.697021
v -17.472961 3.462677 -1.697021
v -2.698181 10.006119 -1.697021
v -2.698181 10.006119 1.697021
v -15.597137 3.462677 1.697021
v -15.597137 3.462677 -1.697021
v 1.439392 3.980820 -1.697021
v 1.439392 3.980820 1.697021
v -13.530212 -1.938171 1.697021
v -13.530212 -1.938171 -1.697021
v -9.295654 -2.899612 1.697021
v -9.295654 -2.899612 -1.697021
v -12.428650 -3.302330 -0.814453
v -12.428650 -3.302330 0.813721
v -10.397217 -3.302330 -0.814453
v -10.397217 -3.302330 0.813721
v -12.428650 -11.982727 -0.814453
v -12.428650 -11.982727 0.813721
v -10.397217 -11.982727 -0.814453
v -10.397217 -11.982727 0.813721
v -4.586060 -11.529366 1.697021
v -4.586060 -11.529366 -1.697021
v 5.353149 -9.614510 1.697021
v 7.160797 -4.961456 1.697021
v 7.160797 -4.961456 -1.697021
v 5.353149 -9.614510 -1.697021
v -3.761993 5.119270 1.697021
v -9.692200 2.462784 1.697021
v -3.434021 0.778168 1.697021
v -3.654602 -9.255119 1.697021
v -1.389069 -8.639847 1.697021
v -0.181091 -5.287407 1.697021
v -3.761993 5.119270 -1.697021
v -9.692200 2.462784 -1.697021
v -3.434021 0.778168 -1.697021
v -0.181091 -5.287407 -1.697021
v -1.389069 -8.639847 -1.697021
v -3.654602 -9.255119 -1.697021
v -6.318665 5.119270 1.697021
v -6.318665 5.119270 -1.697021
v -68.327576 -12.437881 0.000244
v -68.327576 -7.049583 -0.444580
v -68.327576 -7.049583 0.445068
v -15.974091 -7.049583 -0.444580
v -15.974091 -7.049583 0.445068
v -15.974091 -12.437881 0.000244
v -69.324677 -10.987282 -0.444580
v -69.324677 -10.987282 0.445068
v -69.324677 -8.500183 0.445068
v -69.324677 -8.500183 -0.444580
v -14.976929 -8.500183 -0.444580
v -14.976929 -8.500183 0.445068
v -14.976929 -10.987282 0.445068
v -14.976929 -10.987282 -0.444580
v -73.110352 -10.987282 -0.444580
v -73.110352 -10.987282 0.445068
v -73.110352 -8.500183 0.445068
v -73.110352 -8.500183 -0.444580
v -11.191284 -8.500183 -0.444580
v -11.191284 -8.500183 0.445068
v -11.191284 -10.987282 0.445068
v -11.191284 -10.987282 -0.444580
v -68.327576 -9.743736 0.445068
v -15.974091 -9.743736 0.445068
v -15.974091 -9.743736 -0.444580
v -68.327576 -9.743736 -0.444580
vt 0.134766 0.302658
vt 0.134766 0.302658
vt 0.134766 0.302658
vt 0.134766 0.302658
vt 0.102654 0.228270
vt 0.102654 0.228270
vt 0.102654 0.228270
vt 0.102654 0.228270
vt 0.134766 0.302673
vt 0.134766 0.302673
vt 0.134766 0.302673
vt 0.134766 0.302673
vt 0.134766 0.302658
vt 0.134766 0.302658
vt 0.134766 0.302658
vt 0.134766 0.302658
vt 0.134766 0.302658
vt 0.134766 0.302658
vt 0.134766 0.302658
vt 0.134766 0.302658
vt 0.134766 0.302673
vt 0.134766 0.302658
vt 0.134766 0.302673
vt 0.134766 0.302658
vt 0.134766 0.302658
vt 0.134766 0.302658
vt 0.134766 0.302658
vt 0.134766 0.302658
vt 0.134766 0.302658
vt 0.134766 0.302658
vt 0.134766 0.302658
vt 0.134766 0.302658
vt 0.134766 0.302658
vt 0.134766 0.302658
vt 0.102654 0.228270
vt 0.102654 0.228270
vt 0.102654 0.228270
vt 0.102654 0.228270
vt 0.102654 0.228270
vt 0.102654 0.228270
vt 0.102654 0.228270
vt 0.102654 0.228270
vt 0.102654 0.228270
vt 0.102654 0.228270
vt 0.102654 0.228270
vt 0.102654 0.228270
vt 0.102654 0.228270
vt 0.102654 0.228270
vt 0.102654 0.228270
vt 0.102654 0.228270
vt 0.102654 0.228270
vt 0.102654 0.228270
vt 0.134766 0.302658
vt 0.134766 0.302658
vt 0.134766 0.302658
vt 0.134766 0.302658
vt 0.102654 0.228270
vt 0.102654 0.228270
vt 0.102654 0.228270
vt 0.102654 0.228270
vt 0.102654 0.228270
vt 0.102654 0.228270
vt 0.102654 0.228270
vt 0.102654 0.228270
vt 0.102654 0.228270
vt 0.102654 0.228270
vt 0.102654 0.228270
vt 0.102654 0.228270
vt 0.102654 0.228270
vt 0.102654 0.228270
vt 0.102654 0.228270
vt 0.102654 0.228270
vt 0.102654 0.228270
vt 0.102654 0.228270
vt 0.102654 0.228270
vt 0.102654 0.228270
vt 0.134766 0.302658
vt 0.134766 0.302658
vt 0.173753 0.468303
vt 0.173753 0.468303
vt 0.173753 0.468303
vt 0.173753 0.468303
vt 0.173753 0.468303
vt 0.173753 0.468303
vt 0.173753 0.468303
vt 0.173753 0.468303
vt 0.173753 0.468303
vt 0.173753 0.468303
vt 0.173753 0.468303
vt 0.173753 0.468303
vt 0.173433 0.474132
vt 0.173433 0.474132
vt 0.173433 0.474132
vt 0.173753 0.468303
vt 0.173433 0.474132
vt 0.173433 0.474132
vt 0.173753 0.468303
vt 0.173433 0.474132
vt 0.173753 0.468303
vt 0.173753 0.468303
vt 0.173753 0.468303
vt 0.173753 0.468303
vt 0.173753 0.468303
vt 0.173753 0.468303
vt 0.173433 0.474132
vt 0.173433 0.474132
vt 0.173433 0.474132
vt 0.173433 0.474132
vt 0.173433 0.474132
vt 0.173433 0.474132
vt 0.173433 0.474132
vt 0.173433 0.474132
vt 0.173753 0.468303
vt 0.173433 0.474132
vt 0.173433 0.474132
vt 0.173753 0.468303
vt 0.173753 0.468303
vt 0.173433 0.474132
vt 0.173753 0.468303
vt 0.173433 0.474132
vt 0.173433 0.474132
vt 0.173753 0.468303
vt 0.173753 0.468303
vt 0.173433 0.474132
vt 0.173433 0.474132
vt 0.173433 0.474132
vt 0.173753 0.468303
vt 0.173433 0.474132
vt 0.173753 0.468303
vt 0.173433 0.474132
vt 0.173433 0.474132
vt 0.173433 0.474132
vt 0.102654 0.228270
vt 0.102654 0.228270
vt 0.102654 0.228270
vt 0.102654 0.228270
vt 0.102654 0.228270
vt 0.102654 0.228270
vt 0.102654 0.228270
vt 0.102654 0.228270
vt 0.102654 0.228270
vt 0.102654 0.228270
vt 0.102654 0.228270
vt 0.102654 0.228270
vt 0.102654 0.228270
vt 0.102654 0.228270
vt 0.102654 0.228270
vt 0.102654 0.228270
vt 0.102654 0.228270
vt 0.102654 0.228270
vt 0.102654 0.228270
vt 0.102654 0.228270
vt 0.102654 0.228270
vt 0.102654 0.228270
vt 0.102654 0.228270
vt 0.102654 0.228270
vt 0.102654 0.228270
vt 0.102654 0.228270
vt 0.102654 0.228270
vt 0.102654 0.228270
vt 0.102654 0.228270
vt 0.102654 0.228270
vt 0.102654 0.228270
vt 0.102654 0.228270
vt 0.102654 0.228270
vt 0.102654 0.228270
vt 0.102654 0.228270
vt 0.102654 0.228270
vt 0.102654 0.228270
vt 0.102654 0.228270
vt 0.102654 0.228270
vt 0.102654 0.228270
vt 0.102654 0.228270
vt 0.102654 0.228270
vt 0.102654 0.228270
vt 0.102654 0.228270
vt 0.102654 0.228270
vn 0.000000 -1.000000 0.000000
vn 0.000000 -1.000000 0.000000
vn 0.000000 -1.000000 0.000000
vn 0.000000 -1.000000 0.000000
vn 0.000000 1.000000 0.000000
vn 0.000000 1.000000 0.000000
vn 0.000000 1.000000 0.000000
vn 0.000000 1.000000 0.000000
vn 0.189178 -0.981943 0.000000
vn 0.189178 -0.981943 0.000000
vn 0.189178 -0.981943 0.000000
vn 0.189178 -0.981943 0.000000
vn 0.000000 -1.000000 0.000000
vn 0.000000 -1.000000 0.000000
vn 0.000000 -1.000000 0.000000
vn 0.000000 -1.000000 0.000000
vn 0.000000 0.000000 1.000000
vn 0.000000 0.000000 1.000000
vn 0.000000 0.000000 1.000000
vn 0.000000 0.000000 1.000000
vn 0.000000 0.000000 -1.000000
vn 0.000000 0.000000 -1.000000
vn 0.000000 0.000000 -1.000000
vn 0.000000 0.000000 -1.000000
vn 0.870719 -0.491780 0.000000
vn 0.870719 -0.491780 0.000000
vn 0.870719 -0.491780 0.000000
vn 0.870719 -0.491780 0.000000
vn -0.000000 0.000000 1.000000
vn -0.000000 0.000000 1.000000
vn -0.000000 0.000000 1.000000
vn -0.000000 0.000000 1.000000
vn -0.963488 0.267752 0.000000
vn -0.963488 0.267752 0.000000
vn -0.963488 0.267752 0.000000
vn -0.963488 0.267752 0.000000
vn 0.000000 0.000000 -1.000000
vn 0.000000 0.000000 -1.000000
vn 0.000000 0.000000 -1.000000
vn 0.000000 0.000000 -1.000000
vn 1.000000 0.000000 0.000000
vn 1.000000 0.000000 0.000000
vn 1.000000 0.000000 0.000000
vn 1.000000 0.000000 0.000000
vn 0.000000 0.000000 1.000000
vn 0.000000 0.000000 1.000000
vn 0.000000 0.000000 1.000000
vn 0.000000 0.000000 1.000000
vn -1.000000 0.000000 0.000000
vn -1.000000 0.000000 0.000000
vn -1.000000 0.000000 0.000000
vn -1.000000 0.000000 0.000000
vn 0.000000 0.000000 -1.000000
vn 0.000000 0.000000 -1.000000
vn 0.000000 0.000000 -1.000000
vn 0.000000 0.000000 -1.000000
vn 0.907091 -0.420934 0.000000
vn 0.907091 -0.420933 0.000000
vn 0.907091 -0.420933 0.000000
vn 0.907091 -0.420934 0.000000
vn 0.000000 -0.247411 0.968911
vn 0.000000 -0.247411 0.968911
vn 0.000000 -0.247411 0.968911
vn 0.000000 -0.247411 0.968911
vn -0.907102 -0.420911 0.000000
vn -0.907102 -0.420911 0.000000
vn -0.907102 -0.420911 0.000000
vn -0.907102 -0.420911 0.000000
vn 0.000000 -0.247193 -0.968966
vn 0.000000 -0.247192 -0.968966
vn 0.000000 -0.247192 -0.968966
vn 0.000000 -0.247192 -0.968966
vn 1.000000 0.000000 0.000000
vn 1.000000 0.000000 0.000000
vn 1.000000 0.000000 0.000000
vn 1.000000 0.000000 0.000000
vn 0.000000 0.000000 1.000000
vn 0.000000 0.000000 1.000000
vn 0.000000 0.000000 1.000000
vn 0.000000 0.000000 1.000000
vn -1.000000 0.000000 0.000000
vn -1.000000 0.000000 0.000000
vn -1.000000 0.000000 0.000000
vn -1.000000 0.000000 0.000000
vn 0.000000 0.000000 -1.000000
vn 0.000000 0.000000 -1.000000
vn 0.000000 0.000000 -1.000000
vn 0.000000 0.000000 -1.000000
vn 0.346131 -0.938186 0.000000
vn 0.346131 -0.938186 0.000000
vn 0.346131 -0.938186 0.000000
vn 0.346131 -0.938186 0.000000
vn 0.000000 0.000000 1.000000
vn 0.000000 0.000000 1.000000
vn 0.000000 0.000000 1.000000
vn 0.000000 0.000000 1.000000
vn -0.330998 0.943632 0.000000
vn -0.330998 0.943632 0.000000
vn -0.330998 0.943632 0.000000
vn -0.330998 0.943632 0.000000
vn -0.000000 0.000000 -1.000000
vn -0.000000 0.000000 -1.000000
vn -0.000000 0.000000 -1.000000
vn -0.000000 0.000000 -1.000000
vn -0.913644 0.406514 0.000000
vn -0.913644 0.406514 0.000000
vn -0.913644 0.406514 0.000000
vn -0.913644 0.406514 0.000000
vn -0.321645 -0.113532 0.940029
vn -0.321645 -0.113531 0.940029
vn -0.321645 -0.113531 0.940029
vn -0.321645 -0.113532 0.940029
vn -0.673299 -0.739370 0.000000
vn -0.673299 -0.739370 0.000000
vn -0.673299 -0.739370 0.000000
vn -0.673299 -0.739370 0.000000
vn -0.322108 -0.113695 -0.939851
vn -0.322108 -0.113695 -0.939851
vn -0.322108 -0.113695 -0.939851
vn -0.322108 -0.113695 -0.939851
vn 0.000000 1.000000 0.000000
vn 0.000000 1.000000 0.000000
vn 0.000000 1.000000 0.000000
vn 0.000000 1.000000 0.000000
vn 0.000000 0.000000 1.000000
vn 0.000000 0.000000 1.000000
vn 0.000000 0.000000 1.000000
vn 0.000000 0.000000 1.000000
vn 0.000000 -1.000000 0.000000
vn 0.000000 -1.000000 0.000000
vn 0.000000 -1.000000 0.000000
vn 0.000000 -1.000000 0.000000
vn 0.000000 0.000000 -1.000000
vn 0.000000 0.000000 -1.000000
vn 0.000000 0.000000 -1.000000
vn 0.000000 0.000000 -1.000000
vn 0.824350 0.566081 0.000000
vn 0.824350 0.566081 0.000000
vn 0.824350 0.566081 0.000000
vn 0.824350 0.566081 0.000000
vn -0.933942 -0.357423 0.000000
vn -0.933942 -0.357423 0.000000
vn -0.933942 -0.357423 0.000000
vn -0.933942 -0.357423 0.000000
vn 0.000000 -1.000000 0.000000
vn 0.000000 -1.000000 0.000000
vn 0.000000 -1.000000 0.000000
vn 0.000000 -1.000000 0.000000
vn -0.778013 -0.628248 0.000000
vn -0.778013 -0.628248 0.000000
vn -0.778013 -0.628248 0.000000
vn -0.778013 -0.628248 0.000000
vn -0.107811 -0.702639 -0.703331
vn -0.107812 -0.702639 -0.703331
vn -0.107811 -0.702639 -0.703331
vn -0.107812 -0.702639 -0.703331
vn 0.343361 -0.939204 0.000000
vn 0.343361 -0.939203 0.000000
vn 0.343361 -0.939204 0.000000
vn 0.343361 -0.939204 0.000000
vn -0.107856 -0.702927 0.703037
vn -0.107856 -0.702927 0.703037
vn -0.107856 -0.702927 0.703037
vn -0.107856 -0.702927 0.703037
vn -1.000000 0.000000 0.000000
vn -1.000000 0.000000 0.000000
vn -1.000000 0.000000 0.000000
vn -1.000000 0.000000 0.000000
vn 0.000000 0.000000 -1.000000
vn 0.000000 0.000000 -1.000000
vn 0.000000 0.000000 -1.000000
vn 0.000000 0.000000 -1.000000
vn 1.000000 0.000000 0.000000
vn 1.000000 0.000000 0.000000
vn 1.000000 0.000000 0.000000
vn 1.000000 0.000000 0.000000
vn 0.000000 0.000000 1.000000
vn 0.000000 0.000000 1.000000
vn 0.000000 0.000000 1.000000
vn 0.000000 0.000000 1.000000
vn 0.842342 0.538943 0.000000
vn 0.842342 0.538943 0.000000
vn 0.842342 0.538943 0.000000
vn 0.842342 0.538943 0.000000
vn -0.877791 -0.479045 0.000000
vn -0.877791 -0.479045 0.000000
vn -0.877791 -0.479045 0.000000
vn -0.877791 -0.479045 0.000000
vn 0.932131 -0.362120 0.000000
vn 0.932131 -0.362120 0.000000
vn 0.932131 -0.362120 0.000000
vn 0.932131 -0.362120 0.000000
vn 0.000000 0.000000 1.000000
vn 0.000000 0.000000 1.000000
vn 0.000000 0.000000 1.000000
vn 0.000000 0.000000 1.000000
vn 0.000000 0.000000 1.000000
vn 0.000000 0.000000 1.000000
vn -0.000000 0.000000 1.000000
vn -0.000000 0.000000 1.000000
vn -0.000000 0.000000 1.000000
vn -0.000000 0.000000 1.000000
vn 0.000000 0.000000 1.000000
vn 0.000000 0.000000 1.000000
vn 0.000000 0.000000 1.000000
vn -0.000000 0.000000 1.000000
vn -0.000000 0.000000 1.000000
vn -0.000000 0.000000 1.000000
vn -0.000000 0.000000 1.000000
vn 0.000000 0.000000 1.000000
vn 0.000000 0.000000 1.000000
vn 0.000000 0.000000 1.000000
vn 0.000000 0.000000 1.000000
vn 0.000000 0.000000 1.000000
vn 0.000000 0.000000 1.000000
vn 0.000000 0.000000 1.000000
vn 0.000000 0.000000 1.000000
vn 0.000000 0.000000 1.000000
vn 0.000000 0.000000 1.000000
vn 0.000000 0.000000 1.000000
vn 0.000000 0.000000 1.000000
vn 0.000000 0.000000 -1.000000
vn 0.000000 0.000000 -1.000000
vn 0.000000 0.000000 -1.000000
vn -0.000000 0.000000 -1.000000
vn -0.000000 0.000000 -1.000000
vn -0.000000 0.000000 -1.000000
vn -0.000000 0.000000 -1.000000
vn 0.000000 0.000000 -1.000000
vn 0.000000 0.000000 -1.000000
vn 0.000000 0.000000 -1.000000
vn 0.000000 0.000000 -1.000000
vn 0.000000 0.000000 -1.000000
vn 0.000000 0.000000 -1.000000
vn -0.000000 0.000000 -1.000000
vn -0.000000 0.000000 -1.000000
vn -0.000000 0.000000 -1.000000
vn -0.000000 0.000000 -1.000000
vn 0.000000 0.000000 -1.000000
vn 0.000000 0.000000 -1.000000
vn 0.000000 0.000000 -1.000000
vn 0.000000 0.000000 -1.000000
vn -0.000000 0.000000 -1.000000
vn -0.000000 0.000000 -1.000000
vn -0.000000 0.000000 -1.000000
vn -0.000000 0.000000 -1.000000
vn -0.000000 0.000000 -1.000000
vn -0.000000 0.000000 -1.000000
vn -0.000000 0.000000 -1.000000
vn -0.000000 0.000000 -1.000000
vn 0.000000 0.000000 1.000000
vn 0.000000 0.000000 1.000000
vn 0.000000 0.000000 1.000000
vn 0.000000 0.000000 1.000000
vn -0.000000 0.000000 -1.000000
vn -0.000000 0.000000 -1.000000
vn -0.000000 0.000000 -1.000000
vn -0.000000 0.000000 -1.000000
vn 0.618664 -0.785656 0.000000
vn 0.618664 -0.785656 0.000000
vn 0.618664 -0.785656 0.000000
vn 0.618664 -0.785656 0.000000
vn 0.000000 -1.000000 0.000000
vn 0.000000 -1.000000 0.000000
vn 0.000000 -1.000000 0.000000
vn 0.000000 -1.000000 0.000000
vn -0.997158 -0.075336 0.000000
vn -0.997158 -0.075336 0.000000
vn -0.997158 -0.075336 0.000000
vn -0.997158 -0.075336 0.000000
vn -0.881267 -0.472618 0.000000
vn -0.881267 -0.472618 0.000000
vn -0.881267 -0.472618 0.000000
vn -0.881267 -0.472618 0.000000
vn -0.940789 0.338992 0.000000
vn -0.940789 0.338992 0.000000
vn -0.940789 0.338992 0.000000
vn -0.940789 0.338992 0.000000
vn -0.262086 0.965044 0.000000
vn -0.262086 0.965044 0.000000
vn -0.262086 0.965044 0.000000
vn -0.262086 0.965044 0.000000
vn 0.888941 0.458023 0.000000
vn 0.888941 0.458023 0.000000
vn 0.888941 0.458023 0.000000
vn 0.888941 0.458023 0.000000
vn -1.000000 0.000000 0.000000
vn -1.000000 0.000000 0.000000
vn -1.000000 0.000000 0.000000
vn -1.000000 0.000000 0.000000
vn 0.000000 1.000000 0.000000
vn 0.000000 1.000000 0.000000
vn 0.000000 1.000000 0.000000
vn 0.000000 1.000000 0.000000
vn 1.000000 0.000000 0.000000
vn 1.000000 0.000000 0.000000
vn 1.000000 0.000000 0.000000
vn 1.000000 0.000000 0.000000
vn 0.000000 0.000000 1.000000
vn 0.000000 0.000000 1.000000
vn 0.000000 0.000000 1.000000
vn 0.000000 0.000000 1.000000
vn 0.000000 0.000000 -1.000000
vn 0.000000 0.000000 -1.000000
vn 0.000000 0.000000 -1.000000
vn 0.000000 0.000000 -1.000000
vn -0.824091 -0.566457 0.000000
vn -0.824091 -0.566457 0.000000
vn -0.824091 -0.566457 0.000000
vn 0.000000 0.000000 1.000000
vn 0.000000 0.000000 1.000000
vn 0.000000 0.000000 1.000000
vn 0.000000 0.000000 1.000000
vn -0.824091 0.566457 0.000000
vn -0.824091 0.566457 0.000000
vn -0.824091 0.566457 0.000000
vn -0.824091 0.566457 0.000000
vn 0.000000 0.000000 -1.000000
vn 0.000000 0.000000 -1.000000
vn 0.000000 0.000000 -1.000000
vn 0.000000 0.000000 -1.000000
vn 0.824075 0.566480 0.000000
vn 0.824075 0.566480 0.000000
vn 0.824075 0.566480 0.000000
vn 0.824075 0.566480 0.000000
vn -0.000000 0.000000 1.000000
vn -0.000000 0.000000 1.000000
vn -0.000000 0.000000 1.000000
vn -0.000000 0.000000 1.000000
vn 0.824075 -0.566480 0.000000
vn 0.824075 -0.566480 0.000000
vn 0.824075 -0.566480 0.000000
vn 0.000000 0.000000 -1.000000
vn 0.000000 0.000000 -1.000000
vn 0.000000 0.000000 -1.000000
vn 0.000000 0.000000 -1.000000
vn 0.000000 -1.000000 0.000000
vn 0.000000 -1.000000 0.000000
vn 0.000000 -1.000000 0.000000
vn 0.000000 -1.000000 0.000000
vn 0.000000 0.000000 1.000000
vn 0.000000 0.000000 1.000000
vn 0.000000 0.000000 1.000000
vn 0.000000 0.000000 1.000000
vn 0.000000 1.000000 0.000000
vn 0.000000 1.000000 0.000000
vn 0.000000 1.000000 0.000000
vn 0.000000 1.000000 0.000000
vn 0.000000 0.000000 -1.000000
vn 0.000000 0.000000 -1.000000
vn 0.000000 0.000000 -1.000000
vn 0.000000 0.000000 -1.000000
vn 0.000000 1.000000 0.000000
vn 0.000000 1.000000 0.000000
vn 0.000000 1.000000 0.000000
vn 0.000000 1.000000 0.000000
vn 0.000000 0.000000 1.000000
vn 0.000000 0.000000 1.000000
vn 0.000000 0.000000 1.000000
vn 0.000000 0.000000 1.000000
vn 0.000000 -1.000000 0.000000
vn 0.000000 -1.000000 0.000000
vn 0.000000 -1.000000 0.000000
vn 0.000000 -1.000000 0.000000
vn 0.000000 0.000000 -1.000000
vn 0.000000 0.000000 -1.000000
vn 0.000000 0.000000 -1.000000
vn 0.000000 0.000000 -1.000000
vn 0.199098 -0.159641 0.966889
vn 0.199098 -0.159641 0.966889
vn 0.199098 -0.159641 0.966889
vn 0.000000 -0.162902 0.986642
vn 0.000000 -0.162902 0.986642
vn 0.000000 -0.162902 0.986642
vn 0.000000 -0.162902 0.986642
vn -0.199086 -0.159641 0.966892
vn -0.199086 -0.159641 0.966892
vn -0.199086 -0.159641 0.966892
vn -0.199086 -0.159641 -0.966892
vn -0.199086 -0.159641 -0.966892
vn -0.199086 -0.159641 -0.966892
vn 0.000000 -0.162902 -0.986642
vn 0.000000 -0.162902 -0.986642
vn 0.000000 -0.162902 -0.986642
vn 0.000000 -0.162902 -0.986642
vn 0.199098 -0.159641 -0.966889
vn 0.199098 -0.159641 -0.966889
vn 0.199098 -0.159641 -0.966889
s off
f 21/1/1 22/2/2 23/3/3 24/4/4
f 3/9/5 4/10/6 6/11/7 5/12/8
f 56/62/9 53/59/10 51/57/11 52/58/12
f 7/13/13 8/14/14 2/15/15 1/16/16
f 2/15/17 8/14/18 6/11/19 4/10/20
f 7/13/21 1/16/22 3/9/23 5/12/24
f 25/17/25 26/18/26 10/19/27 9/20/28
f 26/18/29 27/21/30 11/22/31 10/19/32
f 27/21/33 28/23/34 12/24/35 11/22/36
f 28/23/37 25/17/38 9/20/39 12/24/40
f 9/20/41 10/19/42 14/25/43 13/26/44
f 10/19/45 11/22/46 15/27/47 14/25/48
f 11/22/49 12/24/50 16/28/51 15/27/52
f 12/24/53 9/20/54 13/26/55 16/28/56
f 13/26/57 14/25/58 18/29/59 17/30/60
f 14/25/61 15/27/62 19/31/63 18/29/64
f 15/27/65 16/28/66 20/32/67 19/31/68
f 16/28/69 13/26/70 17/30/71 20/32/72
f 17/30/73 18/29/74 22/2/75 21/1/76
f 18/29/77 19/31/78 23/3/79 22/2/80
f 19/31/81 20/32/82 24/4/83 23/3/84
f 20/32/85 17/30/86 21/1/87 24/4/88
f 1/16/89 2/15/90 26/18/91 25/17/92
f 2/15/93 4/10/94 27/21/95 26/18/96
f 4/10/97 3/9/98 28/23/99 27/21/100
f 3/9/101 1/16/102 25/17/103 28/23/104
f 5/5/105 6/6/106 30/36/107 29/35/108
f 6/6/109 8/8/110 31/37/111 30/36/112
f 8/8/113 7/7/114 32/38/115 31/37/116
f 7/7/117 5/5/118 29/35/119 32/38/120
f 29/35/121 30/36/122 34/40/123 33/39/124
f 30/36/125 31/37/126 35/41/127 34/40/128
f 31/37/129 32/38/130 36/42/131 35/41/132
f 32/38/133 29/35/134 33/39/135 36/42/136
f 33/39/137 34/40/138 38/44/139 37/43/140
f 35/41/141 36/42/142 40/46/143 39/45/144
f 48/33/145 47/34/146 49/53/147 50/54/148
f 39/45/149 40/46/150 43/50/151 44/49/152
f 40/46/153 42/48/154 45/51/155 43/50/156
f 42/48/157 41/47/158 46/52/159 45/51/160
f 41/47/161 39/45/162 44/49/163 46/52/164
f 44/55/165 43/56/166 47/34/167 48/33/168
f 43/56/169 45/77/170 49/53/171 47/34/172
f 45/77/173 46/78/174 50/54/175 49/53/176
f 46/78/177 44/55/178 48/33/179 50/54/180
f 37/43/181 38/44/182 54/60/183 55/61/184
f 41/47/185 42/48/186 52/58/187 51/57/188
f 56/62/189 55/61/190 54/60/191 53/59/192
f 34/40/193 69/72/194 57/63/195
f 35/41/196 39/45/197 58/64/198
f 38/44/199 34/40/200 57/63/201 59/65/202
f 39/133/203 41/134/204 58/66/205
f 41/135/206 51/136/207 60/67/208 58/66/209
f 51/137/210 53/138/211 61/139/212 60/140/213
f 53/141/214 54/142/215 62/143/216 61/144/217
f 54/145/218 38/146/219 59/147/220 62/148/221
f 70/73/222 33/149/223 63/68/224
f 33/150/225 37/151/226 65/152/227 63/68/228
f 40/153/229 36/154/230 64/155/231
f 42/156/232 40/157/233 64/158/234
f 37/43/235 55/61/236 66/69/237 65/159/238
f 55/61/239 56/62/240 67/70/241 66/69/242
f 56/62/243 52/58/244 68/71/245 67/70/246
f 52/58/247 42/48/248 64/160/249 68/71/250
f 34/40/251 35/41/252 58/64/253 69/72/254
f 36/161/255 33/162/256 70/73/257 64/163/258
f 64/164/259 70/165/260 69/166/261 58/167/262
f 70/168/263 63/169/264 57/170/265 69/171/266
f 63/172/267 65/173/268 59/65/269 57/174/270
f 65/175/271 66/69/272 62/74/273 59/176/274
f 66/69/275 67/70/276 61/75/277 62/74/278
f 67/70/279 68/71/280 60/76/281 61/75/282
f 68/71/283 64/177/284 58/66/285 60/76/286
f 85/79/287 86/80/288 87/81/289 88/82/290
f 72/83/291 73/84/292 75/85/293 74/86/294
f 89/87/295 90/88/296 91/89/297 92/90/298
f 93/127/299 94/122/300 75/94/301 73/84/302
f 95/117/303 96/113/304 72/83/305 74/97/306
f 71/96/307 78/128/308 77/114/309
f 78/129/310 93/127/311 73/84/312 79/100/313
f 73/84/314 72/83/315 80/101/316 79/100/317
f 72/83/318 96/113/319 77/99/320 80/101/321
f 74/86/322 75/85/323 82/102/324 81/103/325
f 75/85/326 94/123/327 83/104/328 82/102/329
f 76/120/330 84/118/331 83/124/332
f 84/119/333 95/116/334 74/86/335 81/103/336
f 77/99/337 78/129/338 86/80/339 85/79/340
f 78/129/341 79/100/342 87/81/343 86/80/344
f 79/100/345 80/101/346 88/82/347 87/81/348
f 80/101/349 77/99/350 85/79/351 88/82/352
f 81/103/353 82/102/354 90/88/355 89/87/356
f 82/102/357 83/104/358 91/89/359 90/88/360
f 83/104/361 84/119/362 92/90/363 91/89/364
f 84/119/365 81/103/366 89/87/367 92/90/368
f 71/92/369 93/126/370 78/98/371
f 71/130/372 76/93/373 94/108/374 93/106/375
f 83/125/376 94/107/377 76/91/378
f 76/121/379 95/110/380 84/105/381
f 76/95/382 71/131/383 96/112/384 95/109/385
f 77/115/386 96/111/387 71/132/388
