# This file uses meters as units for non-parametric coordinates.

v 3.010620 14.113594 -1.288330
v 3.010620 14.113594 1.288574
v 3.010620 -7.987869 -1.288330
v 3.010620 -7.987869 1.288574
v -3.010620 -7.987869 -1.288330
v -3.010620 -7.987869 1.288574
v -3.010620 14.113594 -1.288330
v -3.010620 14.113594 1.288574
v 0.605347 15.493744 -1.288330
v 0.605347 15.493744 1.288574
v 2.048492 14.665657 -0.377197
v 0.605347 15.493744 -0.377197
v -1.925842 14.527641 -0.000244
v 2.048492 14.665657 0.377197
v 0.605347 15.493744 0.377197
v 2.048492 17.823959 0.377197
v 2.048492 17.823959 -0.377197
v -1.925842 20.267654 -0.000244
v -1.166443 14.817474 0.377197
v -1.130951 19.778908 0.377197
v -1.130951 19.778908 -0.377197
v -1.166443 14.817474 -0.377197
v 3.164612 -10.226166 -1.288330
v 3.164612 -10.226166 1.288574
v -4.679749 -10.226166 1.288574
v -4.679749 -10.226166 -1.288330
v 2.780365 -12.568237 -1.288330
v 2.780365 -12.568237 1.288574
v -4.300018 -12.568237 1.288574
v -4.300018 -12.568237 -1.288330
v 0.932465 -14.168793 -1.288330
v 0.932465 -14.168793 1.288574
v -2.452057 -14.168793 1.288574
v -2.452057 -14.168793 -1.288330
v 1.371796 12.478912 1.288574
v -1.166718 12.478912 1.288574
v -1.166718 -7.520508 1.288574
v 1.371796 -7.520508 1.288574
v -1.166718 -10.226151 1.288574
v 1.371796 -10.226151 1.288574
v -1.166718 12.478912 -1.288330
v 1.371796 12.478912 -1.288330
v 1.371796 -7.520508 -1.288330
v -1.166718 -7.520508 -1.288330
v 1.371796 -10.226151 -1.288330
v -1.166718 -10.226151 -1.288330
v -0.741364 12.154854 0.477051
v 0.946442 12.154854 0.477051
v -0.741364 -7.196442 0.477051
v 0.946442 -7.196442 0.477051
v -0.741364 12.154854 -0.476563
v 0.946442 12.154854 -0.476563
v 0.946442 -7.196442 -0.476563
v -0.741364 -7.196442 -0.476563
v 1.175842 -7.729340 2.081299
v -0.970764 -7.729340 2.081299
v -0.970764 -10.017303 2.081299
v 1.175842 -10.017303 2.081299
v 1.175842 -7.729340 -2.080811
v -0.970764 -7.729340 -2.080811
v 1.175842 -10.017303 -2.080811
v -0.970764 -10.017303 -2.080811
vt 0.219865 0.468902
vt 0.219865 0.468902
vt 0.219865 0.468902
vt 0.219865 0.468902
vt 0.219865 0.468902
vt 0.219865 0.468902
vt 0.219865 0.468902
vt 0.219865 0.468902
vt 0.219865 0.468902
vt 0.219865 0.468902
vt 0.219865 0.468902
vt 0.219865 0.468902
vt 0.219865 0.468902
vt 0.219865 0.468902
vt 0.219865 0.468902
vt 0.219865 0.468902
vt 0.219865 0.468902
vt 0.219865 0.468902
vt 0.219865 0.468902
vt 0.219865 0.468902
vt 0.219865 0.468902
vt 0.219865 0.468902
vt 0.219865 0.468902
vt 0.132813 0.378922
vt 0.103271 0.301788
vt 0.103271 0.301788
vt 0.132813 0.378922
vt 0.219865 0.468902
vt 0.103271 0.301788
vt 0.103271 0.301788
vt 0.219865 0.468902
vt 0.103271 0.301788
vt 0.103271 0.301788
vt 0.103271 0.301788
vt 0.103271 0.301788
vt 0.132813 0.378922
vt 0.103271 0.301788
vt 0.103271 0.301788
vt 0.132813 0.378922
vt 0.132813 0.378922
vt 0.132813 0.378922
vt 0.219865 0.468902
vt 0.219865 0.468902
vt 0.219865 0.468902
vt 0.219865 0.468902
vt 0.104248 0.230606
vt 0.104248 0.230606
vt 0.104248 0.230606
vt 0.104248 0.230606
vt 0.104248 0.230606
vt 0.104248 0.230606
vt 0.104248 0.230606
vt 0.104248 0.230606
vt 0.104248 0.230606
vt 0.104248 0.230606
vt 0.104248 0.230606
vt 0.104248 0.230606
vt 0.219865 0.468902
vt 0.219865 0.468902
vt 0.219865 0.468902
vt 0.219865 0.468902
vt 0.219865 0.468902
vt 0.219865 0.468902
vt 0.219865 0.468902
vt 0.219865 0.468902
vt 0.219865 0.468902
vt 0.219865 0.468902
vt 0.219865 0.468902
vt 0.219865 0.468902
vt 0.219865 0.468902
vt 0.219865 0.468902
vt 0.103271 0.230598
vt 0.103271 0.230598
vt 0.103271 0.230606
vt 0.103271 0.230606
vt 0.103271 0.230598
vt 0.103271 0.230598
vt 0.103271 0.230606
vt 0.103271 0.230606
vt 0.103271 0.230606
vt 0.103271 0.230606
vt 0.103271 0.230606
vt 0.103271 0.230606
vt 0.103271 0.230606
vt 0.103271 0.230606
vt 0.103271 0.230598
vt 0.103271 0.230598
vt 0.103271 0.230606
vt 0.103271 0.230606
vt 0.103271 0.230598
vt 0.103271 0.230598
vt 0.103271 0.230606
vt 0.103271 0.230606
vt 0.103027 0.300797
vt 0.103027 0.300797
vt 0.103027 0.300812
vt 0.103027 0.300812
vt 0.103027 0.300797
vt 0.103027 0.300797
vt 0.103027 0.300812
vt 0.103027 0.300812
vt 0.103271 0.230606
vt 0.103271 0.230606
vt 0.103271 0.230606
vt 0.103271 0.230606
vt 0.103271 0.230606
vt 0.103271 0.230606
vt 0.103271 0.230606
vt 0.103271 0.230606
vt 0.219865 0.468902
vt 0.219865 0.468902
vt 0.219865 0.468902
vt 0.219865 0.468902
vt 0.219865 0.468902
vt 0.219865 0.468902
vt 0.219865 0.468902
vt 0.219865 0.468902
vt 0.219865 0.468902
vt 0.219865 0.468902
vt 0.219865 0.468902
vt 0.219865 0.468902
vt 0.219865 0.468902
vt 0.219865 0.468902
vn 1.000000 0.000000 0.000000
vn 1.000000 0.000000 0.000000
vn 1.000000 0.000000 0.000000
vn 1.000000 0.000000 0.000000
vn 0.000000 -1.000000 0.000000
vn 0.000000 -1.000000 0.000000
vn 0.000000 -1.000000 0.000000
vn 0.000000 -1.000000 0.000000
vn -1.000000 0.000000 0.000000
vn -1.000000 0.000000 0.000000
vn -1.000000 0.000000 0.000000
vn -1.000000 0.000000 0.000000
vn 0.497685 0.867358 0.000000
vn 0.497685 0.867358 0.000000
vn 0.497685 0.867358 0.000000
vn 0.497685 0.867358 0.000000
vn 0.000000 0.000000 1.000000
vn 0.000000 0.000000 1.000000
vn 0.000000 0.000000 1.000000
vn 0.000000 0.000000 1.000000
vn 0.000000 0.000000 -1.000000
vn 0.000000 0.000000 -1.000000
vn 0.000000 0.000000 -1.000000
vn 0.000000 0.000000 -1.000000
vn -0.356580 0.934265 0.000015
vn -0.356580 0.934265 0.000015
vn -0.356580 0.934265 0.000015
vn 0.497691 0.867354 -0.000005
vn 0.497691 0.867354 -0.000005
vn 0.497691 0.867354 -0.000005
vn 0.497691 0.867354 -0.000005
vn -0.356596 0.934259 0.000000
vn -0.356596 0.934259 0.000000
vn -0.356596 0.934259 0.000000
vn 0.497691 0.867354 0.000006
vn 0.497691 0.867354 0.000006
vn 0.497691 0.867354 0.000006
vn 0.497691 0.867354 0.000006
vn -0.356580 0.934265 -0.000015
vn -0.356580 0.934265 -0.000015
vn -0.356580 0.934265 -0.000015
vn 0.523773 0.851858 0.000000
vn 0.523773 0.851858 0.000000
vn 0.523773 0.851858 0.000000
vn -0.000000 0.000000 1.000000
vn -0.000000 0.000000 1.000000
vn -0.000000 0.000000 1.000000
vn 1.000000 0.000000 0.000000
vn 1.000000 0.000000 0.000000
vn 1.000000 0.000000 0.000000
vn 1.000000 0.000000 0.000000
vn 0.000000 0.000000 -1.000000
vn 0.000000 0.000000 -1.000000
vn 0.000000 0.000000 -1.000000
vn -0.436726 0.001448 0.899593
vn -0.436726 0.001448 0.899593
vn -0.436726 0.001448 0.899593
vn -0.436726 0.001448 0.899593
vn -0.436269 0.001447 -0.899815
vn -0.436269 0.001447 -0.899815
vn -0.436269 0.001447 -0.899815
vn -0.436269 0.001447 -0.899815
vn -0.356592 0.934260 -0.000006
vn -0.356592 0.934260 -0.000006
vn -0.356592 0.934260 -0.000006
vn -0.356592 0.934260 -0.000006
vn 0.000000 0.000000 1.000000
vn 0.000000 0.000000 1.000000
vn 0.000000 0.000000 1.000000
vn 0.000000 0.000000 1.000000
vn 0.523780 0.851853 0.000000
vn 0.523780 0.851853 0.000000
vn 0.523780 0.851853 0.000000
vn 0.523780 0.851853 0.000000
vn 0.000000 0.000000 -1.000000
vn 0.000000 0.000000 -1.000000
vn 0.000000 0.000000 -1.000000
vn 0.000000 0.000000 -1.000000
vn -0.356592 0.934260 0.000006
vn -0.356592 0.934260 0.000006
vn -0.356592 0.934260 0.000006
vn -0.356592 0.934260 0.000006
vn 0.997642 0.068636 0.000000
vn 0.997642 0.068636 0.000000
vn 0.997642 0.068636 0.000000
vn 0.997642 0.068636 0.000000
vn 0.000000 0.000000 1.000000
vn 0.000000 0.000000 1.000000
vn 0.000000 0.000000 1.000000
vn 0.000000 0.000000 1.000000
vn -0.801646 0.597799 0.000000
vn -0.801646 0.597799 0.000000
vn -0.801646 0.597799 0.000000
vn -0.801646 0.597799 0.000000
vn 0.000000 0.000000 -1.000000
vn 0.000000 0.000000 -1.000000
vn 0.000000 0.000000 -1.000000
vn 0.000000 0.000000 -1.000000
vn 0.986807 -0.161898 0.000000
vn 0.986807 -0.161898 0.000000
vn 0.986807 -0.161898 0.000000
vn 0.986807 -0.161898 0.000000
vn 0.000000 0.000000 1.000000
vn 0.000000 0.000000 1.000000
vn 0.000000 0.000000 1.000000
vn 0.000000 0.000000 1.000000
vn 0.000000 0.000000 1.000000
vn 0.000000 0.000000 1.000000
vn -0.987110 -0.160044 0.000000
vn -0.987110 -0.160044 0.000000
vn -0.987110 -0.160044 0.000000
vn -0.987110 -0.160044 0.000000
vn 0.654707 -0.755883 0.000000
vn 0.654707 -0.755883 0.000000
vn 0.654707 -0.755883 0.000000
vn 0.654707 -0.755883 0.000000
vn 0.000000 0.000000 1.000000
vn 0.000000 0.000000 1.000000
vn 0.000000 0.000000 1.000000
vn 0.000000 0.000000 1.000000
vn -0.654694 -0.755894 0.000000
vn -0.654694 -0.755894 0.000000
vn -0.654694 -0.755894 0.000000
vn -0.654694 -0.755894 0.000000
vn 0.000000 0.000000 -1.000000
vn 0.000000 0.000000 -1.000000
vn 0.000000 0.000000 -1.000000
vn 0.000000 0.000000 -1.000000
vn 0.000000 0.000000 1.000000
vn 0.000000 0.000000 1.000000
vn 0.000000 0.000000 1.000000
vn 0.000000 0.000000 1.000000
vn 0.000000 0.000000 1.000000
vn 0.000000 0.000000 1.000000
vn 0.000000 0.000000 1.000000
vn 0.000000 0.000000 1.000000
vn 0.000000 0.000000 1.000000
vn 0.000000 0.000000 1.000000
vn -0.000000 0.000000 1.000000
vn -0.000000 0.000000 1.000000
vn -0.000000 0.000000 1.000000
vn -0.000000 0.000000 1.000000
vn 0.000000 0.000000 1.000000
vn 0.000000 0.000000 1.000000
vn 0.000000 0.000000 1.000000
vn 0.000000 0.000000 1.000000
vn 0.000000 0.000000 1.000000
vn 0.000000 0.000000 1.000000
vn 0.000000 0.000000 1.000000
vn 0.000000 0.000000 1.000000
vn 0.000000 0.000000 -1.000000
vn 0.000000 0.000000 -1.000000
vn 0.000000 0.000000 -1.000000
vn -0.000000 0.000000 -1.000000
vn -0.000000 0.000000 -1.000000
vn -0.000000 0.000000 -1.000000
vn -0.000000 0.000000 -1.000000
vn -0.000000 0.000000 -1.000000
vn -0.000000 0.000000 -1.000000
vn -0.000000 0.000000 -1.000000
vn -0.000000 0.000000 -1.000000
vn -0.000000 0.000000 -1.000000
vn -0.000000 0.000000 -1.000000
vn -0.000000 0.000000 -1.000000
vn 0.000000 0.000000 -1.000000
vn 0.000000 0.000000 -1.000000
vn 0.000000 0.000000 -1.000000
vn 0.000000 0.000000 -1.000000
vn 0.000000 0.000000 -1.000000
vn 0.000000 0.000000 -1.000000
vn 0.000000 0.000000 -1.000000
vn 0.000000 0.000000 -1.000000
vn 0.000000 0.000000 -1.000000
vn 0.000000 0.000000 -1.000000
vn -0.000000 0.000000 -1.000000
vn -0.000000 0.000000 -1.000000
vn -0.000000 0.000000 -1.000000
vn -0.000000 0.000000 -1.000000
vn 0.000000 0.000000 -1.000000
vn 0.000000 0.000000 -1.000000
vn 0.000000 0.000000 -1.000000
vn -0.000000 0.000000 1.000000
vn -0.000000 0.000000 1.000000
vn -0.000000 0.000000 1.000000
vn 0.000000 -0.928694 0.370846
vn 0.000000 -0.928694 0.370846
vn 0.000000 -0.928694 0.370846
vn 0.000000 -0.928694 0.370846
vn 0.885710 0.000000 0.464238
vn 0.885710 0.000000 0.464238
vn 0.885710 0.000000 0.464238
vn 0.885710 0.000000 0.464238
vn 0.000000 0.928691 0.370854
vn 0.000000 0.928691 0.370854
vn 0.000000 0.928691 0.370854
vn 0.000000 0.928691 0.370854
vn -0.885710 0.000000 0.464238
vn -0.885710 0.000000 0.464238
vn -0.885710 0.000000 0.464238
vn -0.885710 0.000000 0.464239
vn 0.000000 -0.928733 -0.370750
vn 0.000000 -0.928733 -0.370750
vn 0.000000 -0.928733 -0.370750
vn 0.000000 -0.928733 -0.370750
vn -0.885768 0.000000 -0.464129
vn -0.885768 0.000000 -0.464129
vn -0.885768 0.000000 -0.464129
vn -0.885768 0.000000 -0.464129
vn 0.000000 0.928729 -0.370758
vn 0.000000 0.928729 -0.370758
vn 0.000000 0.928729 -0.370758
vn 0.000000 0.928729 -0.370758
vn 0.885768 0.000000 -0.464129
vn 0.885768 0.000000 -0.464129
vn 0.885768 0.000000 -0.464129
vn 0.885768 0.000000 -0.464129
vn 0.000000 0.967008 0.254744
vn 0.000000 0.967008 0.254744
vn 0.000000 0.967009 0.254744
vn 0.000000 0.967009 0.254744
vn -0.970781 0.000000 0.239967
vn -0.970781 0.000000 0.239967
vn -0.970781 0.000000 0.239967
vn -0.970781 0.000000 0.239967
vn 0.000000 -0.967004 0.254761
vn 0.000000 -0.967004 0.254761
vn 0.000000 -0.967004 0.254761
vn 0.000000 -0.967004 0.254761
vn 0.970781 0.000000 0.239967
vn 0.970781 0.000000 0.239967
vn 0.970781 0.000000 0.239967
vn 0.970781 0.000000 0.239967
vn 0.000000 0.966989 -0.254818
vn 0.000000 0.966989 -0.254818
vn 0.000000 0.966989 -0.254818
vn 0.000000 0.966989 -0.254818
vn 0.970764 0.000000 -0.240037
vn 0.970764 0.000000 -0.240037
vn 0.970764 0.000000 -0.240037
vn 0.970764 0.000000 -0.240037
vn 0.000000 -0.966985 -0.254835
vn 0.000000 -0.966985 -0.254835
vn 0.000000 -0.966985 -0.254835
vn 0.000000 -0.966985 -0.254835
vn -0.970764 0.000000 -0.240037
vn -0.970764 0.000000 -0.240037
vn -0.970764 0.000000 -0.240037
vn -0.970764 0.000000 -0.240037
s off
f 1/1/1 2/2/2 4/4/3 3/3/4
f 31/46/5 32/47/6 33/48/7 34/49/8
f 5/5/9 6/6/10 8/8/11 7/7/12
f 1/9/13 11/19/14 14/22/15 2/10/16
f 48/94/17 47/95/18 49/96/19 50/97/20
f 51/98/21 52/99/22 53/100/23 54/101/24
f 8/8/25 19/28/26 13/21/27
f 14/22/28 15/23/29 10/17/30 2/10/31
f 7/7/32 8/8/33 13/21/34
f 9/16/35 12/20/36 11/19/37 1/9/38
f 7/7/39 13/21/40 22/31/41
f 18/24/42 20/27/43 21/36/44
f 15/29/45 14/30/46 16/32/47
f 14/30/48 11/33/49 17/34/50 16/32/51
f 11/33/52 12/35/53 17/34/54
f 13/39/55 19/40/56 20/27/57 18/24/58
f 21/36/59 22/41/60 13/39/61 18/24/62
f 15/23/63 19/28/64 8/8/65 10/17/66
f 20/25/67 19/37/68 15/29/69 16/32/70
f 21/26/71 20/25/72 16/32/73 17/34/74
f 12/35/75 22/38/76 21/26/77 17/34/78
f 7/7/79 22/31/80 12/20/81 9/16/82
f 3/3/83 4/4/84 24/43/85 23/42/86
f 55/102/87 56/103/88 57/104/89 58/105/90
f 6/6/91 5/5/92 26/45/93 25/44/94
f 60/106/95 59/107/96 61/108/97 62/109/98
f 23/50/99 24/51/100 28/52/101 27/53/102
f 25/54/103 29/55/104 28/52/105 24/84/106 40/81/107 39/80/108
f 25/54/109 26/56/110 30/57/111 29/55/112
f 27/53/113 28/52/114 32/47/115 31/46/116
f 28/52/117 29/55/118 33/48/119 32/47/120
f 29/55/121 30/57/122 34/49/123 33/48/124
f 30/57/125 27/53/126 31/46/127 34/49/128
f 2/2/129 10/18/130 35/58/131
f 10/18/132 36/59/133 35/58/134
f 8/11/135 6/12/136 37/60/137 36/59/138
f 4/4/139 2/2/140 35/58/141 38/61/142
f 6/13/143 25/15/144 39/63/145 37/62/146
f 24/110/147 4/111/148 38/65/149 40/64/150
f 7/14/151 9/112/152 41/66/153
f 9/113/154 1/114/155 42/67/156
f 1/115/157 3/116/158 43/68/159 42/67/160
f 5/117/161 7/118/162 41/119/163 44/120/164
f 3/3/165 23/42/166 45/69/167 43/121/168
f 26/85/169 46/83/170 45/82/171 23/50/172 27/53/173 30/57/174
f 26/45/175 5/5/176 44/71/177 46/70/178
f 41/66/179 9/122/180 42/123/181
f 10/18/182 8/11/183 36/59/184
f 35/72/185 36/73/186 47/87/187 48/86/188
f 36/73/189 37/74/190 49/88/191 47/87/192
f 37/74/193 38/75/194 50/89/195 49/88/196
f 38/75/197 35/72/198 48/86/199 50/89/200
f 41/76/201 42/77/202 52/91/203 51/90/204
f 42/77/205 43/78/206 53/92/207 52/91/208
f 43/78/209 44/79/210 54/93/211 53/92/212
f 44/79/213 41/76/214 51/90/215 54/93/216
f 38/75/217 37/74/218 56/103/219 55/102/220
f 37/74/221 39/80/222 57/104/223 56/103/224
f 39/80/225 40/81/226 58/105/227 57/104/228
f 40/81/229 38/75/230 55/102/231 58/105/232
f 44/79/233 43/78/234 59/107/235 60/106/236
f 43/78/237 45/82/238 61/108/239 59/107/240
f 45/82/241 46/83/242 62/109/243 61/108/244
f 46/83/245 44/79/246 60/106/247 62/109/248
