# This file uses meters as units for non-parametric coordinates.

v 1.088348 14.510544 -1.197998
v -1.088470 14.510544 -1.197998
v 1.016602 16.409927 -1.083740
v -1.016754 16.409927 -1.083740
v -2.594482 8.288651 -1.572021
v 2.594360 8.288651 -1.572021
v 1.598297 18.326462 -0.968506
v -1.598419 18.326462 -0.968506
v 1.088348 14.510544 1.198242
v -1.088470 14.510544 1.198242
v 1.016602 16.409927 1.084229
v -1.016754 16.409927 1.084229
v -2.594482 8.288651 1.572266
v 2.594360 8.288651 1.572266
v 1.598297 18.326462 0.968750
v -1.598419 18.326462 0.968750
v -3.473755 -13.463135 -1.530273
v -3.473755 -13.463135 1.530762
v 3.473633 -13.463135 -1.530273
v 3.473633 -13.463135 1.530762
v 2.203583 0.321594 -1.335205
v 2.203583 0.321594 1.335449
v -2.203644 0.321594 1.335449
v -2.203644 0.321594 -1.335205
v -3.833618 -3.102905 2.034912
v 3.833588 -3.102905 2.034912
v 3.833588 -3.102905 -2.034912
v -3.833618 -3.102905 -2.034912
v -3.833618 -6.783081 -2.034912
v -3.833618 -6.783081 2.034912
v 3.833588 -6.783081 2.034912
v 3.833588 -6.783081 -2.034912
vt 0.112061 0.229858
vt 0.112061 0.229858
vt 0.112061 0.229858
vt 0.112061 0.229858
vt 0.146973 0.445663
vt 0.146973 0.445663
vt 0.146973 0.445663
vt 0.146973 0.445663
vt 0.146973 0.445663
vt 0.146973 0.445663
vt 0.146973 0.445663
vt 0.146973 0.445663
vt 0.112061 0.229858
vt 0.112061 0.229858
vt 0.112061 0.229858
vt 0.112061 0.229858
vt 0.146973 0.445663
vt 0.146973 0.445663
vt 0.146973 0.445663
vt 0.146973 0.445663
vt 0.146973 0.445663
vt 0.146973 0.445663
vt 0.146973 0.445663
vt 0.146973 0.445663
vt 0.146973 0.445663
vt 0.146973 0.445663
vt 0.146973 0.445663
vt 0.146973 0.445663
vt 0.146973 0.445663
vt 0.146973 0.445663
vt 0.146973 0.445663
vt 0.146973 0.445663
vt 0.146973 0.445663
vt 0.146973 0.445663
vt 0.146973 0.445663
vt 0.146973 0.445663
vt 0.102783 0.230011
vt 0.102783 0.230011
vt 0.102783 0.230011
vt 0.102783 0.230011
vt 0.146973 0.445663
vt 0.146973 0.445663
vt 0.146973 0.445663
vt 0.146973 0.445663
vt 0.218262 0.467453
vt 0.218262 0.467453
vt 0.218262 0.467453
vt 0.218262 0.467453
vt 0.218262 0.467453
vt 0.218262 0.467453
vt 0.218262 0.467453
vt 0.218262 0.467453
vt 0.102783 0.230011
vt 0.102783 0.230011
vt 0.102783 0.230011
vt 0.102783 0.230011
vn 0.000000 0.060047 -0.998196
vn 0.000000 0.060047 -0.998196
vn 0.000000 0.060047 -0.998196
vn 0.000000 0.060047 -0.998196
vn 0.000000 0.060006 -0.998198
vn 0.000000 0.060006 -0.998198
vn 0.000000 0.060006 -0.998198
vn 0.000000 0.060006 -0.998198
vn 0.000052 0.060025 -0.998197
vn 0.000052 0.060025 -0.998197
vn 0.000052 0.060025 -0.998197
vn 0.000052 0.060025 -0.998197
vn 0.000000 0.060018 -0.998197
vn 0.000000 0.060018 -0.998197
vn 0.000000 0.060018 -0.998197
vn 0.000000 0.060018 -0.998197
vn -0.000052 0.060025 -0.998197
vn -0.000052 0.060025 -0.998197
vn -0.000052 0.060025 -0.998197
vn -0.000052 0.060025 -0.998197
vn 0.000000 0.059919 0.998203
vn 0.000000 0.059919 0.998203
vn 0.000000 0.059919 0.998203
vn 0.000000 0.059919 0.998203
vn 0.000000 0.060006 0.998198
vn 0.000000 0.060006 0.998198
vn 0.000000 0.060006 0.998198
vn 0.000000 0.060006 0.998198
vn 0.000144 0.060013 0.998198
vn 0.000144 0.060013 0.998198
vn 0.000144 0.060013 0.998198
vn 0.000144 0.060013 0.998198
vn 0.000000 0.060145 0.998190
vn 0.000000 0.060145 0.998190
vn 0.000000 0.060145 0.998190
vn 0.000000 0.060145 0.998190
vn -0.000143 0.060013 0.998198
vn -0.000143 0.060013 0.998198
vn -0.000143 0.060013 0.998198
vn -0.000143 0.060013 0.998198
vn -0.902936 0.429775 0.000000
vn -0.902936 0.429775 0.000000
vn -0.902936 0.429775 0.000000
vn -0.902936 0.429775 0.000000
vn 0.000000 1.000000 0.000000
vn 0.000000 1.000000 0.000000
vn 0.000000 1.000000 0.000000
vn 0.000000 1.000000 0.000000
vn 0.902933 0.429781 0.000000
vn 0.902933 0.429781 0.000000
vn 0.902933 0.429781 0.000000
vn 0.902933 0.429781 0.000000
vn 0.000000 -1.000000 0.000000
vn 0.000000 -1.000000 0.000000
vn 0.000000 -1.000000 0.000000
vn 0.000000 -1.000000 0.000000
vn 0.000000 0.200121 0.979771
vn 0.000000 0.200121 0.979771
vn 0.000000 0.200121 0.979771
vn 0.000000 0.200121 0.979771
vn 0.000000 0.200188 -0.979757
vn 0.000000 0.200188 -0.979758
vn 0.000000 0.200188 -0.979758
vn 0.000000 0.200188 -0.979757
vn 0.998799 -0.048990 0.000000
vn 0.998799 -0.048990 0.000000
vn 0.998799 -0.048990 0.000000
vn 0.998799 -0.048990 0.000000
vn 0.000000 -0.029711 0.999559
vn 0.000000 -0.029711 0.999559
vn 0.000000 -0.029711 0.999559
vn 0.000000 -0.029711 0.999559
vn -0.998799 -0.048998 0.000000
vn -0.998799 -0.048998 0.000000
vn -0.998799 -0.048998 0.000000
vn -0.998799 -0.048998 0.000000
vn 0.000000 -0.029711 -0.999559
vn 0.000000 -0.029711 -0.999559
vn 0.000000 -0.029711 -0.999559
vn 0.000000 -0.029711 -0.999559
vn 0.000000 0.000000 1.000000
vn 0.000000 0.000000 1.000000
vn 0.000000 0.000000 1.000000
vn 0.000000 0.000000 1.000000
vn 1.000000 0.000000 0.000000
vn 1.000000 0.000000 0.000000
vn 1.000000 0.000000 0.000000
vn 1.000000 0.000000 0.000000
vn 0.000000 0.000000 -1.000000
vn 0.000000 0.000000 -1.000000
vn 0.000000 0.000000 -1.000000
vn 0.000000 0.000000 -1.000000
vn -1.000000 0.000000 0.000000
vn -1.000000 0.000000 0.000000
vn -1.000000 0.000000 0.000000
vn -1.000000 0.000000 0.000000
vn 0.995113 0.098746 0.000000
vn 0.995113 0.098746 0.000000
vn 0.995113 0.098746 0.000000
vn 0.995113 0.098746 0.000000
vn -0.995113 0.098746 0.000000
vn -0.995113 0.098746 0.000000
vn -0.995113 0.098746 0.000000
vn -0.995113 0.098746 0.000000
vn -0.998552 -0.053793 0.000000
vn -0.998552 -0.053793 0.000000
vn -0.998552 -0.053793 0.000000
vn -0.998552 -0.053793 0.000000
vn 0.000000 -0.075257 0.997164
vn 0.000000 -0.075257 0.997164
vn 0.000000 -0.075257 0.997164
vn 0.000000 -0.075257 0.997164
vn 0.998551 -0.053807 0.000000
vn 0.998551 -0.053807 0.000000
vn 0.998551 -0.053807 0.000000
vn 0.998551 -0.053807 0.000000
vn 0.000000 -0.075329 -0.997159
vn 0.000000 -0.075329 -0.997159
vn 0.000000 -0.075329 -0.997159
vn 0.000000 -0.075329 -0.997159
s off
f 2/1/1 4/4/2 3/3/3 1/2/4
f 5/5/5 2/8/6 1/7/7 6/6/8
f 6/6/9 1/7/10 3/10/11 7/9/12
f 7/9/13 3/10/14 4/12/15 8/11/16
f 8/11/17 4/12/18 2/8/19 5/5/20
f 10/13/21 9/14/22 11/15/23 12/16/24
f 13/17/25 14/18/26 9/19/27 10/20/28
f 14/18/29 15/21/30 11/22/31 9/19/32
f 15/21/33 16/23/34 12/24/35 11/22/36
f 16/23/37 13/17/38 10/20/39 12/24/40
f 28/25/41 25/26/42 23/27/43 24/28/44
f 8/29/45 16/30/46 15/31/47 7/32/48
f 21/33/49 22/34/50 26/35/51 27/36/52
f 19/37/53 20/38/54 18/39/55 17/40/56
f 25/26/57 26/35/58 22/34/59 23/27/60
f 27/36/61 28/25/62 24/28/63 21/33/64
f 6/41/65 14/42/66 22/34/67 21/33/68
f 23/27/69 22/34/70 14/42/71 13/43/72
f 24/28/73 23/27/74 13/43/75 5/44/76
f 21/33/77 24/28/78 5/44/79 6/41/80
f 30/45/81 31/46/82 26/47/83 25/48/84
f 27/49/85 26/47/86 31/46/87 32/50/88
f 32/50/89 29/51/90 28/52/91 27/49/92
f 29/51/93 30/45/94 25/48/95 28/52/96
f 7/32/97 15/31/98 14/42/99 6/41/100
f 5/44/101 13/43/102 16/30/103 8/29/104
f 17/40/105 18/39/106 30/53/107 29/54/108
f 18/39/109 20/38/110 31/55/111 30/53/112
f 32/56/113 31/55/114 20/38/115 19/37/116
f 19/37/117 17/40/118 29/54/119 32/56/120
