# This file uses meters as units for non-parametric coordinates.

v 10.138297 0.847727 -10.138328
v -0.000015 0.847727 -14.337799
v -10.138344 0.847727 -10.138328
v -14.337799 0.847727 -0.000015
v -10.138344 0.847727 10.138312
v -0.000015 0.847727 14.337737
v 10.138297 0.847727 10.138312
v 14.337752 0.847727 -0.000015
v 11.415374 1.618345 -11.415436
v -0.000015 1.618345 -16.143848
v -11.415436 1.618345 -11.415436
v -16.143818 1.618345 -0.000015
v -11.415436 1.618345 11.415374
v -0.000015 1.618345 16.143787
v 11.415374 1.618345 11.415374
v 16.143787 1.618345 -0.000015
v -0.000015 0.847727 -0.000015
v 13.497874 -3.045295 -13.497905
v -0.000015 -3.045295 -19.088890
v -0.000015 -2.531316 -20.042992
v 14.172508 -2.531316 -14.172508
v -13.497905 -3.045295 -13.497905
v -14.172523 -2.531316 -14.172508
v -19.088905 -3.045321 -0.000015
v -20.043007 -2.531316 -0.000015
v -13.497905 -3.045295 13.497874
v -14.172523 -2.531316 14.172523
v -0.000015 -3.045295 19.088905
v -0.000015 -2.531316 20.042976
v 13.497874 -3.045295 13.497874
v 14.172508 -2.531316 14.172523
v 19.088890 -3.045295 -0.000015
v 20.042961 -2.531316 -0.000015
v -0.000015 -0.508721 -19.342571
v 13.677206 -0.508721 -13.677237
v 19.342571 -0.508721 -0.000015
v 13.677206 -0.508721 13.677221
v -0.000015 -0.508721 19.342554
v -13.677237 -0.508721 13.677221
v -19.342571 -0.508721 -0.000015
v -13.677237 -0.508721 -13.677237
v -17.905775 -1.336017 -0.000015
v -12.661275 -1.336017 12.661259
v -0.000015 -1.336017 17.905745
v 12.661259 -1.336017 12.661259
v 17.905758 -1.336017 -0.000015
v 12.661259 -1.336017 -12.661305
v -0.000015 -1.336017 -17.905775
v -12.661275 -1.336017 -12.661305
v 9.810933 1.618345 -9.810965
v -0.000015 1.618345 -13.874828
v -9.810965 1.618345 -9.810965
v -13.874828 1.618345 -0.000015
v -9.810965 1.618345 9.810933
v -0.000015 1.618345 13.874782
v 9.810933 1.618345 9.810933
v 13.874812 1.618345 -0.000015
v 7.191393 1.618345 -7.191439
v -0.000015 1.618345 -10.170228
v -0.000015 1.618345 -0.000015
v -7.191439 1.618345 -7.191439
v -10.170228 1.618345 -0.000015
v -7.191439 1.618345 7.191393
v -0.000015 1.618345 10.170182
v 7.191393 1.618345 7.191393
v 10.170197 1.618345 -0.000015
vt 0.351436 0.470301
vt 0.351436 0.470301
vt 0.351436 0.470301
vt 0.351436 0.470301
vt 0.351436 0.470301
vt 0.351436 0.470301
vt 0.351436 0.470301
vt 0.351436 0.470301
vt 0.351436 0.470301
vt 0.351436 0.470301
vt 0.351436 0.470301
vt 0.351436 0.470301
vt 0.351436 0.470301
vt 0.351436 0.470301
vt 0.351436 0.470301
vt 0.351436 0.470301
vt 0.351436 0.470301
vt 0.351436 0.470301
vt 0.351436 0.470301
vt 0.351436 0.470301
vt 0.351436 0.470301
vt 0.351436 0.470301
vt 0.351436 0.470301
vt 0.351436 0.470301
vt 0.351436 0.470301
vt 0.351436 0.470301
vt 0.132126 0.382370
vt 0.132126 0.382370
vt 0.132126 0.382370
vt 0.132126 0.382370
vt 0.132126 0.382370
vt 0.132126 0.382370
vt 0.132126 0.382370
vt 0.132126 0.382370
vt 0.351436 0.470301
vt 0.136673 0.382355
vt 0.351436 0.470301
vt 0.351436 0.470301
vt 0.351436 0.470301
vt 0.351436 0.470301
vt 0.351436 0.470301
vt 0.351436 0.470301
vt 0.351436 0.470301
vt 0.351436 0.470301
vt 0.351436 0.470301
vt 0.351436 0.470301
vt 0.351436 0.470301
vt 0.351436 0.470301
vt 0.351436 0.470301
vt 0.351436 0.470301
vt 0.351436 0.470301
vt 0.351436 0.470301
vt 0.351436 0.470301
vt 0.351436 0.470301
vt 0.351436 0.470301
vt 0.351436 0.470301
vt 0.351436 0.470301
vt 0.351436 0.470301
vt 0.351436 0.470301
vt 0.351436 0.470301
vt 0.351436 0.470301
vt 0.351436 0.470301
vt 0.351436 0.470301
vt 0.351436 0.470301
vt 0.351436 0.470301
vt 0.351436 0.470301
vt 0.351436 0.470301
vt 0.351436 0.470301
vt 0.351436 0.470301
vt 0.351436 0.470301
vt 0.351436 0.470301
vt 0.351436 0.470301
vt 0.351436 0.470301
vt 0.351436 0.470301
vt 0.351436 0.470301
vt 0.351436 0.470301
vt 0.351436 0.470301
vt 0.351436 0.470301
vt 0.351436 0.470301
vt 0.351436 0.470301
vt 0.132126 0.382370
vt 0.132126 0.382370
vt 0.132126 0.382370
vt 0.132126 0.382370
vt 0.132126 0.382370
vt 0.132126 0.382370
vt 0.132126 0.382370
vt 0.132126 0.382370
vt 0.351436 0.470301
vt 0.351436 0.470301
vt 0.351436 0.470301
vt 0.351436 0.470301
vt 0.351436 0.470301
vt 0.351436 0.470301
vt 0.351436 0.470301
vt 0.351436 0.470301
vt 0.136673 0.382355
vt 0.136673 0.382355
vt 0.136673 0.382355
vt 0.136673 0.382355
vt 0.136673 0.382355
vt 0.136673 0.382355
vt 0.136673 0.382355
vt 0.136673 0.382355
vn 0.192767 -0.863864 -0.465381
vn 0.192767 -0.863864 -0.465381
vn 0.192767 -0.863864 -0.465381
vn 0.192767 -0.863864 -0.465381
vn -0.192768 -0.863863 -0.465382
vn -0.192768 -0.863863 -0.465382
vn -0.192768 -0.863863 -0.465382
vn -0.192768 -0.863863 -0.465382
vn -0.465389 -0.863859 -0.192772
vn -0.465389 -0.863859 -0.192772
vn -0.465389 -0.863859 -0.192772
vn -0.465389 -0.863859 -0.192772
vn -0.465386 -0.863861 0.192770
vn -0.465386 -0.863861 0.192770
vn -0.465386 -0.863861 0.192770
vn -0.465386 -0.863861 0.192770
vn -0.192767 -0.863865 0.465379
vn -0.192767 -0.863865 0.465379
vn -0.192767 -0.863865 0.465379
vn -0.192767 -0.863865 0.465379
vn 0.192766 -0.863866 0.465378
vn 0.192766 -0.863866 0.465378
vn 0.192766 -0.863866 0.465378
vn 0.192766 -0.863866 0.465378
vn 0.465380 -0.863865 0.192767
vn 0.465380 -0.863865 0.192767
vn 0.465380 -0.863865 0.192767
vn 0.465380 -0.863865 0.192767
vn 0.465384 -0.863862 -0.192769
vn 0.465384 -0.863862 -0.192769
vn 0.465384 -0.863862 -0.192769
vn 0.465384 -0.863862 -0.192769
vn 0.000000 -1.000000 0.000000
vn 0.000000 -1.000000 0.000000
vn 0.000000 -1.000000 0.000000
vn 0.000000 -1.000000 0.000000
vn 0.000000 -1.000000 0.000000
vn 0.000000 -1.000000 0.000000
vn 0.000000 -1.000000 -0.000000
vn 0.000000 -1.000000 -0.000000
vn 0.000000 -1.000000 -0.000000
vn 0.000000 -1.000000 0.000000
vn 0.000000 -1.000000 0.000000
vn 0.000000 -1.000000 0.000000
vn 0.000000 -1.000000 0.000000
vn 0.000000 -1.000000 0.000000
vn 0.000000 -1.000000 0.000000
vn 0.000000 -1.000000 0.000000
vn 0.000000 -1.000000 0.000000
vn 0.000000 -1.000000 0.000000
vn 0.000000 -1.000000 0.000000
vn 0.000000 -1.000000 0.000000
vn 0.000000 -1.000000 0.000000
vn 0.000000 -1.000000 0.000000
vn 0.000000 -1.000000 0.000000
vn 0.000000 -1.000000 0.000000
vn 0.000000 1.000000 0.000000
vn 0.000000 1.000000 0.000000
vn 0.000000 1.000000 0.000000
vn 0.000000 1.000000 0.000000
vn 0.000000 1.000000 0.000000
vn 0.000000 1.000000 0.000000
vn 0.000000 1.000000 0.000000
vn 0.000000 1.000000 0.000000
vn 0.000000 1.000000 0.000000
vn 0.000000 1.000000 0.000000
vn 0.000000 1.000000 0.000000
vn 0.000000 1.000000 0.000000
vn 0.000000 1.000000 0.000000
vn 0.000000 1.000000 0.000000
vn 0.000000 1.000000 0.000000
vn 0.000000 1.000000 0.000000
vn 0.000000 1.000000 0.000000
vn 0.000000 1.000000 0.000000
vn 0.000000 1.000000 0.000000
vn 0.000000 1.000000 0.000000
vn 0.000000 1.000000 0.000000
vn 0.000000 1.000000 0.000000
vn 0.000000 1.000000 0.000000
vn 0.000000 1.000000 0.000000
vn -0.322397 -0.538749 0.778338
vn -0.322397 -0.538749 0.778338
vn -0.322397 -0.538749 0.778338
vn -0.322397 -0.538749 0.778338
vn 0.364485 0.304724 -0.879940
vn 0.364485 0.304724 -0.879940
vn 0.364485 0.304724 -0.879940
vn 0.364485 0.304724 -0.879940
vn 0.322397 -0.538750 0.778337
vn 0.322397 -0.538750 0.778337
vn 0.322397 -0.538750 0.778337
vn 0.322397 -0.538750 0.778337
vn -0.364486 0.304723 -0.879940
vn -0.364486 0.304723 -0.879940
vn -0.364486 0.304723 -0.879940
vn -0.364486 0.304723 -0.879940
vn 0.778336 -0.538752 0.322397
vn 0.778336 -0.538752 0.322397
vn 0.778336 -0.538752 0.322397
vn 0.778336 -0.538752 0.322397
vn -0.879938 0.304728 -0.364485
vn -0.879938 0.304728 -0.364485
vn -0.879938 0.304728 -0.364485
vn -0.879938 0.304728 -0.364485
vn 0.778335 -0.538754 -0.322397
vn 0.778335 -0.538754 -0.322397
vn 0.778335 -0.538754 -0.322397
vn 0.778334 -0.538754 -0.322397
vn -0.879938 0.304731 0.364484
vn -0.879938 0.304731 0.364484
vn -0.879938 0.304731 0.364484
vn -0.879938 0.304731 0.364484
vn 0.322396 -0.538760 -0.778331
vn 0.322396 -0.538760 -0.778331
vn 0.322396 -0.538760 -0.778331
vn 0.322396 -0.538760 -0.778331
vn -0.364484 0.304729 0.879938
vn -0.364484 0.304729 0.879938
vn -0.364484 0.304729 0.879938
vn -0.364484 0.304729 0.879938
vn -0.322396 -0.538759 -0.778331
vn -0.322396 -0.538759 -0.778331
vn -0.322396 -0.538759 -0.778331
vn -0.322396 -0.538759 -0.778331
vn 0.364484 0.304731 0.879938
vn 0.364484 0.304731 0.879938
vn 0.364484 0.304731 0.879938
vn 0.364484 0.304731 0.879938
vn -0.778334 -0.538755 -0.322397
vn -0.778334 -0.538755 -0.322397
vn -0.778334 -0.538755 -0.322397
vn -0.778334 -0.538755 -0.322397
vn 0.879940 0.304724 0.364485
vn 0.879940 0.304724 0.364485
vn 0.879940 0.304724 0.364485
vn 0.879940 0.304724 0.364485
vn -0.778334 -0.538754 0.322397
vn -0.778334 -0.538754 0.322397
vn -0.778334 -0.538754 0.322397
vn -0.778334 -0.538754 0.322397
vn 0.879940 0.304722 -0.364486
vn 0.879940 0.304722 -0.364486
vn 0.879940 0.304722 -0.364486
vn 0.879940 0.304722 -0.364486
vn 0.223557 0.811624 -0.539712
vn 0.223557 0.811624 -0.539712
vn 0.223557 0.811624 -0.539712
vn 0.223557 0.811624 -0.539712
vn 0.539707 0.811627 -0.223555
vn 0.539707 0.811627 -0.223556
vn 0.539707 0.811628 -0.223555
vn 0.539707 0.811628 -0.223555
vn 0.539706 0.811628 0.223555
vn 0.539706 0.811628 0.223555
vn 0.539706 0.811628 0.223555
vn 0.539706 0.811628 0.223555
vn 0.223555 0.811628 0.539707
vn 0.223555 0.811628 0.539706
vn 0.223555 0.811628 0.539707
vn 0.223555 0.811628 0.539707
vn -0.223555 0.811627 0.539707
vn -0.223555 0.811628 0.539707
vn -0.223555 0.811628 0.539707
vn -0.223555 0.811627 0.539707
vn -0.539710 0.811626 0.223555
vn -0.539710 0.811626 0.223555
vn -0.539710 0.811626 0.223555
vn -0.539710 0.811626 0.223555
vn -0.539711 0.811625 -0.223556
vn -0.539711 0.811625 -0.223556
vn -0.539711 0.811625 -0.223556
vn -0.539711 0.811625 -0.223556
vn -0.223557 0.811624 -0.539712
vn -0.223557 0.811624 -0.539712
vn -0.223557 0.811624 -0.539712
vn -0.223557 0.811624 -0.539712
vn 0.510235 -0.833662 -0.211347
vn 0.510235 -0.833662 -0.211347
vn 0.510235 -0.833662 -0.211347
vn 0.510235 -0.833662 -0.211347
vn 0.211346 -0.833664 -0.510233
vn 0.211346 -0.833664 -0.510233
vn 0.211346 -0.833664 -0.510233
vn 0.211346 -0.833664 -0.510233
vn -0.211345 -0.833664 -0.510232
vn -0.211345 -0.833664 -0.510232
vn -0.211345 -0.833664 -0.510232
vn -0.211345 -0.833664 -0.510232
vn -0.510232 -0.833664 -0.211346
vn -0.510232 -0.833664 -0.211346
vn -0.510232 -0.833664 -0.211346
vn -0.510232 -0.833664 -0.211346
vn -0.510231 -0.833665 0.211346
vn -0.510231 -0.833665 0.211346
vn -0.510231 -0.833665 0.211346
vn -0.510231 -0.833665 0.211346
vn -0.211346 -0.833664 0.510232
vn -0.211346 -0.833664 0.510232
vn -0.211346 -0.833664 0.510232
vn -0.211346 -0.833664 0.510232
vn 0.211346 -0.833664 0.510233
vn 0.211346 -0.833664 0.510233
vn 0.211346 -0.833664 0.510233
vn 0.211346 -0.833664 0.510233
vn 0.510234 -0.833663 0.211347
vn 0.510234 -0.833663 0.211347
vn 0.510234 -0.833663 0.211347
vn 0.510234 -0.833663 0.211347
vn 0.000000 1.000000 -0.000000
vn 0.000000 1.000000 -0.000000
vn 0.000000 1.000000 -0.000000
vn 0.000000 1.000000 -0.000000
vn 0.000000 1.000000 0.000000
vn 0.000000 1.000000 0.000000
vn 0.000000 1.000000 0.000000
vn 0.000000 1.000000 0.000000
vn 0.000000 1.000000 0.000000
vn 0.000000 1.000000 0.000000
vn 0.000000 1.000000 0.000000
vn 0.000000 1.000000 0.000000
vn 0.000000 1.000000 -0.000000
vn 0.000000 1.000000 -0.000000
vn 0.000000 1.000000 -0.000000
vn 0.000000 1.000000 -0.000000
vn 0.000000 1.000000 -0.000000
vn 0.000000 1.000000 -0.000000
vn 0.000000 1.000000 -0.000000
vn 0.000000 1.000000 -0.000000
vn 0.000000 1.000000 0.000000
vn 0.000000 1.000000 0.000000
vn 0.000000 1.000000 0.000000
vn 0.000000 1.000000 0.000000
vn 0.000000 1.000000 0.000000
vn 0.000000 1.000000 0.000000
vn 0.000000 1.000000 0.000000
vn 0.000000 1.000000 0.000000
vn 0.000000 1.000000 -0.000000
vn 0.000000 1.000000 -0.000000
vn 0.000000 1.000000 -0.000000
vn 0.000000 1.000000 -0.000000
vn 0.000000 1.000000 0.000000
vn 0.000000 1.000000 0.000000
vn 0.000000 1.000000 0.000000
vn 0.000000 1.000000 0.000000
vn 0.000000 1.000000 0.000000
vn 0.000000 1.000000 0.000000
vn 0.000000 1.000000 0.000000
vn 0.000000 1.000000 0.000000
vn 0.000000 1.000000 0.000000
vn 0.000000 1.000000 0.000000
vn 0.000000 1.000000 0.000000
vn 0.000000 1.000000 0.000000
vn 0.000000 1.000000 0.000000
vn 0.000000 1.000000 0.000000
vn 0.000000 1.000000 0.000000
vn 0.000000 1.000000 0.000000
vn 0.000000 1.000000 0.000000
vn 0.000000 1.000000 0.000000
vn 0.000000 1.000000 0.000000
vn 0.000000 1.000000 0.000000
vn 0.000000 1.000000 -0.000000
vn 0.000000 1.000000 -0.000000
vn 0.000000 1.000000 -0.000000
vn 0.000000 1.000000 -0.000000
vn 0.000000 1.000000 0.000000
vn 0.000000 1.000000 0.000000
vn 0.000000 1.000000 0.000000
vn 0.000000 1.000000 0.000000
vn 0.000000 1.000000 0.000000
vn 0.000000 1.000000 0.000000
vn 0.000000 1.000000 0.000000
vn 0.000000 1.000000 0.000000
s off
f 18/37/1 19/38/2 20/39/3 21/40/4
f 19/38/5 22/41/6 23/42/7 20/39/8
f 22/41/9 24/43/10 25/44/11 23/42/12
f 24/43/13 26/45/14 27/46/15 25/44/16
f 26/45/17 28/47/18 29/48/19 27/46/20
f 28/47/21 30/49/22 31/50/23 29/48/24
f 30/49/25 32/51/26 33/52/27 31/50/28
f 32/51/29 18/53/30 21/54/31 33/52/32
f 2/2/33 1/1/34 17/35/35
f 3/3/36 2/2/37 17/35/38
f 4/4/39 3/3/40 17/35/41
f 5/5/42 4/4/43 17/35/44
f 6/6/45 5/5/46 17/35/47
f 7/7/48 6/6/49 17/35/50
f 8/8/51 7/7/52 17/35/53
f 1/1/54 8/8/55 17/35/56
f 58/36/57 59/97/58 60/98/59
f 59/97/60 61/99/61 60/98/62
f 61/99/63 62/100/64 60/98/65
f 62/100/66 63/101/67 60/98/68
f 63/101/69 64/102/70 60/98/71
f 64/102/72 65/103/73 60/98/74
f 65/103/75 66/104/76 60/98/77
f 66/104/78 58/36/79 60/98/80
f 47/70/81 48/71/82 19/38/83 18/37/84
f 34/55/85 35/56/86 21/40/87 20/39/88
f 48/71/89 49/72/90 22/41/91 19/38/92
f 41/63/93 34/55/94 20/39/95 23/42/96
f 49/72/97 42/64/98 24/43/99 22/41/100
f 40/62/101 41/63/102 23/42/103 25/44/104
f 42/64/105 43/65/106 26/45/107 24/43/108
f 39/61/109 40/62/110 25/44/111 27/46/112
f 43/65/113 44/66/114 28/47/115 26/45/116
f 38/60/117 39/61/118 27/46/119 29/48/120
f 44/66/121 45/67/122 30/49/123 28/47/124
f 37/59/125 38/60/126 29/48/127 31/50/128
f 45/67/129 46/68/130 32/51/131 30/49/132
f 36/58/133 37/59/134 31/50/135 33/52/136
f 46/68/137 47/69/138 18/53/139 32/51/140
f 35/57/141 36/58/142 33/52/143 21/54/144
f 10/19/145 9/18/146 35/56/147 34/55/148
f 9/26/149 16/25/150 36/58/151 35/57/152
f 16/25/153 15/24/154 37/59/155 36/58/156
f 15/24/157 14/23/158 38/60/159 37/59/160
f 14/23/161 13/22/162 39/61/163 38/60/164
f 13/22/165 12/21/166 40/62/167 39/61/168
f 12/21/169 11/20/170 41/63/171 40/62/172
f 11/20/173 10/19/174 34/55/175 41/63/176
f 4/12/177 5/13/178 43/65/179 42/64/180
f 5/13/181 6/14/182 44/66/183 43/65/184
f 6/14/185 7/15/186 45/67/187 44/66/188
f 7/15/189 8/16/190 46/68/191 45/67/192
f 8/16/193 1/17/194 47/69/195 46/68/196
f 1/9/197 2/10/198 48/71/199 47/70/200
f 2/10/201 3/11/202 49/72/203 48/71/204
f 3/11/205 4/12/206 42/64/207 49/72/208
f 9/27/209 10/28/210 51/29/211 50/30/212
f 10/28/213 11/31/214 52/32/215 51/29/216
f 11/31/217 12/33/218 53/34/219 52/32/220
f 12/33/221 13/81/222 54/82/223 53/34/224
f 13/81/225 14/83/226 55/84/227 54/82/228
f 14/83/229 15/85/230 56/86/231 55/84/232
f 15/85/233 16/87/234 57/88/235 56/86/236
f 16/87/237 9/27/238 50/30/239 57/88/240
f 50/73/241 51/74/242 59/90/243 58/89/244
f 51/74/245 52/75/246 61/91/247 59/90/248
f 52/75/249 53/76/250 62/92/251 61/91/252
f 53/76/253 54/77/254 63/93/255 62/92/256
f 54/77/257 55/78/258 64/94/259 63/93/260
f 55/78/261 56/79/262 65/95/263 64/94/264
f 56/79/265 57/80/266 66/96/267 65/95/268
f 57/80/269 50/73/270 58/89/271 66/96/272
