# This file uses meters as units for non-parametric coordinates.

v -1.715496 -1.715499 -8.741028
v -1.715496 -1.715499 8.741058
v -1.715496 1.715499 -8.741028
v -1.715496 1.715499 8.741058
v 1.715500 1.715499 -8.741028
v 1.715500 1.715499 8.741058
v 1.715500 -1.715499 -8.741028
v 1.715500 -1.715499 8.741058
v 1.078515 -1.078512 -9.199989
v -1.078511 -1.078512 -9.199989
v -1.078511 1.078512 -9.199989
v 1.078515 1.078512 -9.199989
v 1.078515 -1.078512 -11.014992
v -1.078511 -1.078512 -11.014992
v -1.078511 1.078512 -11.014992
v 1.078515 1.078512 -11.014992
v 0.648913 -0.659861 -11.272578
v -0.648910 -0.659861 -11.272578
v -0.648910 0.637961 -11.272578
v 0.648913 0.637961 -11.272578
v 0.972263 -0.000000 -26.388781
v -0.887568 -0.000000 -26.388781
v -1.715496 1.715499 -6.314539
v 1.715500 1.715499 -6.314539
v 1.715500 -1.715499 -6.314539
v -1.715496 -1.715499 -6.314539
v -1.715496 1.715499 -3.093325
v 1.715500 1.715499 -3.093325
v 1.715500 -1.715499 -3.093325
v -1.715496 -1.715499 -3.093325
v -1.249537 1.279795 -5.914585
v -1.249537 1.279795 -4.473642
v 1.249540 1.279795 -4.473642
v 1.249540 1.279795 -5.914585
v 1.249540 -1.279795 -5.914585
v 1.249540 -1.279795 -4.473642
v -1.249537 -1.279795 -5.914585
v -1.249537 -1.279795 -4.473642
v -0.887568 -0.000000 -14.999761
v 0.972263 -0.000000 -14.999761
v 0.803566 0.599487 -12.730200
v -0.723241 0.599487 -12.730200
v -0.723241 -0.621386 -12.730200
v 0.803566 -0.621386 -12.730200
v -7.301311 -0.000000 -13.930913
v 7.060676 -0.000000 -13.930913
v -5.769342 -0.000000 -14.999762
v -5.769342 -0.000000 -12.765192
v 5.294219 -0.000000 -14.999761
v 5.294219 -0.000000 -12.765191
v -5.769342 -0.000000 -26.444422
v -7.301311 -0.000000 -26.444420
v 5.294218 -0.000000 -26.444424
v 7.060675 -0.000000 -26.444422
v 0.042343 0.189864 -27.957680
v -6.535324 0.189864 -28.013321
v 6.177448 -0.000000 -28.013321
v 0.019757 0.163350 -14.999761
v 0.079227 0.163350 -26.388781
v 0.972263 0.050404 -13.860920
v 5.294218 0.289021 -14.027555
v 6.284266 0.163350 -14.523503
v 6.282629 0.163350 -26.444422
v -0.887568 0.089346 -13.818419
v -5.769342 0.289021 -13.835608
v -6.620341 0.163350 -14.523504
v -6.590342 0.163350 -26.444422
v 6.074511 0.743584 -26.444424
v 6.254392 0.743584 -14.522985
v 5.294218 0.743584 -13.830524
v 0.972263 0.743584 -13.838196
v -0.887568 0.743584 -13.805761
v -5.769342 0.743584 -13.818419
v -6.494078 0.743584 -14.522984
v -6.569155 0.743584 -26.444422
v 0.002562 0.743584 -14.999761
v 0.086243 0.743584 -26.388781
vt 0.171785 0.468347
vt 0.171785 0.468347
vt 0.171785 0.468347
vt 0.171785 0.468347
vt 0.171785 0.468347
vt 0.171785 0.468347
vt 0.171785 0.468347
vt 0.171785 0.468347
vt 0.171785 0.468347
vt 0.171785 0.468347
vt 0.171785 0.468347
vt 0.171785 0.468347
vt 0.171785 0.468347
vt 0.171785 0.468347
vt 0.385357 0.476142
vt 0.385357 0.476142
vt 0.385357 0.476142
vt 0.385357 0.476142
vt 0.385357 0.476142
vt 0.385357 0.476142
vt 0.385357 0.476142
vt 0.171785 0.010025
vt 0.171785 0.010025
vt 0.171785 0.010025
vt 0.171785 0.010025
vt 0.171785 0.010025
vt 0.171785 0.468347
vt 0.171785 0.468347
vt 0.171785 0.468347
vt 0.171785 0.468347
vt 0.171785 0.468347
vt 0.171785 0.468347
vt 0.171785 0.468347
vt 0.171785 0.468347
vt 0.171785 0.468347
vt 0.171785 0.468347
vt 0.087411 0.195316
vt 0.171785 0.468347
vt 0.087411 0.195316
vt 0.171785 0.468347
vt 0.087411 0.195316
vt 0.171785 0.468347
vt 0.087411 0.195316
vt 0.171785 0.468347
vt 0.087411 0.195316
vt 0.171785 0.468347
vt 0.171785 0.010025
vt 0.171785 0.010025
vt 0.171785 0.010025
vt 0.171785 0.010025
vt 0.171785 0.010025
vt 0.171785 0.010025
vt 0.171785 0.010025
vt 0.171785 0.010025
vt 0.171785 0.010025
vt 0.171785 0.010025
vt 0.171785 0.010025
vt 0.171785 0.010025
vt 0.171785 0.010025
vt 0.171785 0.010025
vt 0.171785 0.010025
vt 0.171785 0.010025
vt 0.171785 0.010025
vt 0.171785 0.010025
vt 0.171785 0.010025
vt 0.171785 0.010025
vt 0.171785 0.010025
vt 0.171785 0.010025
vt 0.171785 0.010025
vt 0.171785 0.010025
vt 0.171785 0.010025
vt 0.171785 0.010025
vt 0.171785 0.010025
vt 0.171785 0.010025
vt 0.171785 0.010025
vt 0.171785 0.010025
vt 0.171785 0.010025
vt 0.171785 0.010025
vt 0.171785 0.010025
vt 0.171785 0.010025
vt 0.171785 0.010025
vt 0.171785 0.010025
vt 0.171785 0.010025
vt 0.171785 0.010025
vt 0.171785 0.010025
vt 0.171785 0.010025
vt 0.171785 0.010025
vt 0.171785 0.010025
vt 0.171785 0.010025
vt 0.385357 0.476142
vt 0.385357 0.476142
vt 0.171785 0.010025
vt 0.171785 0.010025
vt 0.171785 0.010025
vt 0.171785 0.010025
vt 0.171785 0.010025
vt 0.171785 0.010025
vt 0.171785 0.010025
vt 0.171785 0.010025
vt 0.171785 0.010025
vt 0.171785 0.010025
vt 0.171785 0.010025
vt 0.171785 0.010025
vt 0.171785 0.010025
vt 0.171785 0.010025
vt 0.171785 0.010025
vt 0.171785 0.010025
vt 0.171785 0.010025
vt 0.171785 0.010025
vt 0.171785 0.010025
vt 0.171785 0.010025
vt 0.385357 0.476142
vt 0.171785 0.010025
vt 0.171785 0.010025
vt 0.385357 0.476142
vt 0.385357 0.476142
vt 0.385357 0.476142
vt 0.385357 0.476142
vt 0.171785 0.010025
vt 0.385357 0.476142
vt 0.171785 0.010025
vt 0.171785 0.010025
vt 0.171785 0.010025
vt 0.171785 0.010025
vt 0.171785 0.010025
vt 0.171785 0.010025
vt 0.171785 0.010025
vt 0.171785 0.010025
vt 0.171785 0.010025
vt 0.171785 0.010025
vt 0.171785 0.010025
vt 0.171785 0.010025
vt 0.171785 0.010025
vt 0.171785 0.010025
vt 0.171785 0.010025
vt 0.171785 0.010025
vt 0.171785 0.010025
vt 0.171785 0.010025
vt 0.171785 0.010025
vt 0.171785 0.010025
vt 0.171785 0.010025
vt 0.171785 0.010025
vt 0.171785 0.010025
vt 0.171785 0.010025
vt 0.171785 0.010025
vt 0.171785 0.010025
vt 0.171785 0.010025
vt 0.171785 0.010025
vt 0.171785 0.010025
vt 0.171785 0.010025
vt 0.171785 0.010025
vt 0.171785 0.010025
vt 0.171785 0.010025
vt 0.171785 0.010025
vt 0.171785 0.010025
vt 0.171785 0.010025
vt 0.171785 0.010025
vt 0.171785 0.010025
vt 0.171785 0.010025
vt 0.171785 0.010025
vt 0.171785 0.010025
vt 0.171785 0.010025
vt 0.171785 0.010025
vt 0.171785 0.010025
vt 0.171785 0.010025
vt 0.171785 0.010025
vt 0.171785 0.010025
vt 0.171785 0.010025
vt 0.171785 0.010025
vt 0.171785 0.010025
vt 0.171785 0.010025
vt 0.171785 0.010025
vt 0.171785 0.010025
vt 0.171785 0.010025
vt 0.171785 0.010025
vt 0.171785 0.010025
vt 0.171785 0.010025
vt 0.171785 0.010025
vt 0.171785 0.010025
vt 0.171785 0.010025
vt 0.171785 0.010025
vt 0.171785 0.010025
vt 0.171785 0.010025
vt 0.171785 0.010025
vt 0.171785 0.010025
vt 0.171785 0.010025
vt 0.171785 0.010025
vt 0.171785 0.010025
vt 0.171785 0.010025
vt 0.171785 0.010025
vt 0.171785 0.010025
vt 0.171785 0.010025
vt 0.171785 0.010025
vt 0.171785 0.010025
vt 0.171785 0.010025
vt 0.171785 0.010025
vt 0.171785 0.010025
vt 0.171785 0.010025
vt 0.171785 0.010025
vt 0.171785 0.010025
vt 0.171785 0.010025
vt 0.171785 0.010025
vt 0.171785 0.010025
vt 0.171785 0.010025
vt 0.171785 0.010025
vt 0.171785 0.010025
vt 0.171785 0.010025
vt 0.171785 0.010025
vt 0.171785 0.010025
vt 0.171785 0.010025
vt 0.171785 0.010025
vt 0.171785 0.010025
vt 0.171785 0.010025
vt 0.171785 0.010025
vt 0.171785 0.010025
vt 0.171785 0.010025
vt 0.171785 0.010025
vt 0.171785 0.010025
vt 0.171785 0.010025
vt 0.171785 0.010025
vt 0.171785 0.010025
vt 0.171785 0.010025
vt 0.171785 0.010025
vt 0.171785 0.010025
vt 0.171785 0.010025
vt 0.171785 0.010025
vt 0.171785 0.010025
vt 0.171785 0.010025
vt 0.171785 0.010025
vt 0.171785 0.010025
vt 0.171785 0.010025
vt 0.171785 0.010025
vt 0.171785 0.010025
vt 0.171785 0.010025
vt 0.171785 0.010025
vt 0.385357 0.476142
vt 0.385357 0.476142
vt 0.171785 0.010025
vt 0.385357 0.476142
vt 0.385357 0.476142
vt 0.171785 0.010025
vt 0.385357 0.476142
vt 0.385357 0.476142
vt 0.385357 0.476142
vt 0.385357 0.476142
vt 0.385357 0.476142
vt 0.385357 0.476142
vt 0.385357 0.476142
vt 0.385357 0.476142
vt 0.385357 0.476142
vt 0.171785 0.468347
vt 0.385357 0.476142
vt 0.171785 0.468347
vt 0.385357 0.476142
vt 0.171785 0.468347
vt 0.385357 0.476142
vt 0.171785 0.468347
vt 0.385357 0.476142
vt 0.087411 0.195316
vt 0.087411 0.195316
vt 0.087411 0.195316
vt 0.171785 0.468347
vt 0.171785 0.468347
vt 0.171785 0.468347
vt 0.087411 0.195316
vt 0.087411 0.195316
vt 0.087411 0.195316
vt 0.087411 0.195316
vt 0.087411 0.195316
vt 0.171785 0.468347
vt 0.087411 0.195316
vt 0.087411 0.195316
vt 0.087411 0.195316
vt 0.171785 0.468347
vn -1.000000 0.000000 0.000000
vn -1.000000 0.000000 0.000000
vn -1.000000 0.000000 0.000000
vn -1.000000 0.000000 0.000000
vn 0.000000 1.000000 0.000000
vn 0.000000 1.000000 0.000000
vn 0.000000 1.000000 0.000000
vn 0.000000 1.000000 0.000000
vn 1.000000 0.000000 0.000000
vn 1.000000 0.000000 0.000000
vn 1.000000 0.000000 0.000000
vn 1.000000 0.000000 0.000000
vn 0.000000 -1.000000 0.000000
vn 0.000000 -1.000000 0.000000
vn 0.000000 -1.000000 0.000000
vn 0.000000 -1.000000 0.000000
vn 0.000000 0.000000 1.000000
vn 0.000000 0.000000 1.000000
vn 0.000000 0.000000 1.000000
vn 0.000000 0.000000 1.000000
vn 0.000000 -0.584582 -0.811334
vn 0.000000 -0.584582 -0.811334
vn 0.000000 -0.584582 -0.811334
vn 0.000000 -0.584582 -0.811334
vn -0.584584 0.000000 -0.811333
vn -0.584584 0.000000 -0.811333
vn -0.584584 0.000000 -0.811333
vn -0.584584 0.000000 -0.811333
vn 0.000000 0.584582 -0.811335
vn 0.000000 0.584582 -0.811335
vn 0.000000 0.584582 -0.811335
vn 0.000000 0.584582 -0.811335
vn 0.584583 0.000000 -0.811334
vn 0.584583 0.000000 -0.811334
vn 0.584583 0.000000 -0.811334
vn 0.584583 0.000000 -0.811334
vn 0.000000 -1.000000 0.000000
vn 0.000000 -1.000000 0.000000
vn 0.000000 -1.000000 0.000000
vn 0.000000 -1.000000 0.000000
vn -1.000000 0.000000 0.000000
vn -1.000000 0.000000 0.000000
vn -1.000000 0.000000 0.000000
vn -1.000000 0.000000 0.000000
vn 0.000000 1.000000 0.000000
vn 0.000000 1.000000 0.000000
vn 0.000000 1.000000 0.000000
vn 0.000000 1.000000 0.000000
vn 1.000000 0.000000 0.000000
vn 1.000000 0.000000 0.000000
vn 1.000000 0.000000 0.000000
vn 1.000000 0.000000 0.000000
vn -0.514239 0.000000 -0.857647
vn -0.514239 0.000000 -0.857647
vn -0.514239 0.000000 -0.857647
vn -0.514239 0.000000 -0.857647
vn 0.000000 0.504746 -0.863268
vn 0.000000 0.504746 -0.863268
vn 0.000000 0.504746 -0.863268
vn 0.000000 0.504746 -0.863268
vn 0.514239 0.000000 -0.857647
vn 0.514239 0.000000 -0.857647
vn 0.514239 0.000000 -0.857647
vn 0.514239 0.000000 -0.857647
vn 0.000000 -0.999652 -0.026386
vn 0.000000 -0.999652 -0.026386
vn 0.000000 -0.999652 -0.026386
vn 0.000000 -0.999652 -0.026386
vn -0.998702 0.000000 0.050929
vn -0.998702 0.000000 0.050929
vn -0.998702 0.000000 0.050929
vn -0.998702 0.000000 0.050929
vn 0.000000 0.999652 -0.026386
vn 0.000000 0.999652 -0.026386
vn 0.000000 0.999652 -0.026386
vn 0.000000 0.999652 -0.026386
vn 0.994419 0.000000 0.105507
vn 0.994419 0.000000 0.105507
vn 0.994419 0.000000 0.105507
vn 0.994419 0.000000 0.105507
vn 0.000000 1.000000 0.000000
vn 0.000000 1.000000 0.000000
vn 0.000000 1.000000 0.000000
vn 0.000000 1.000000 0.000000
vn 1.000000 0.000000 0.000000
vn 1.000000 0.000000 0.000000
vn 1.000000 0.000000 0.000000
vn 1.000000 0.000000 0.000000
vn 0.000000 -1.000000 0.000000
vn 0.000000 -1.000000 0.000000
vn 0.000000 -1.000000 0.000000
vn 0.000000 -1.000000 0.000000
vn -1.000000 0.000000 0.000000
vn -1.000000 0.000000 0.000000
vn -1.000000 0.000000 0.000000
vn -1.000000 0.000000 0.000000
vn 0.000000 1.000000 0.000000
vn 0.000000 1.000000 0.000000
vn 0.000000 1.000000 0.000000
vn 0.000000 1.000000 0.000000
vn 1.000000 0.000000 0.000000
vn 1.000000 0.000000 0.000000
vn 1.000000 0.000000 0.000000
vn 1.000000 0.000000 0.000000
vn 0.000000 -1.000000 0.000000
vn 0.000000 -1.000000 0.000000
vn 0.000000 -1.000000 0.000000
vn 0.000000 -1.000000 0.000000
vn -1.000000 0.000000 0.000000
vn -1.000000 0.000000 0.000000
vn -1.000000 0.000000 0.000000
vn -1.000000 0.000000 0.000000
vn 0.000000 0.953620 -0.301015
vn 0.000000 0.953620 -0.301015
vn 0.000000 0.953620 -0.301015
vn 0.000000 0.953620 -0.301015
vn 0.000000 0.676238 0.736684
vn 0.000000 0.676238 0.736684
vn 0.000000 0.676238 0.736684
vn 0.000000 0.676238 0.736684
vn 0.651316 0.000000 0.758806
vn 0.651316 0.000000 0.758806
vn 0.651316 0.000000 0.758806
vn 0.651316 0.000000 0.758806
vn 0.947471 0.000000 -0.319842
vn 0.947471 0.000000 -0.319842
vn 0.947471 0.000000 -0.319842
vn 0.947471 0.000000 -0.319842
vn 0.000000 -0.676238 0.736684
vn 0.000000 -0.676238 0.736684
vn 0.000000 -0.676238 0.736684
vn 0.000000 -0.676238 0.736684
vn 0.000000 -0.953620 -0.301015
vn 0.000000 -0.953620 -0.301015
vn 0.000000 -0.953620 -0.301015
vn 0.000000 -0.953620 -0.301015
vn -0.651316 0.000000 0.758806
vn -0.651316 0.000000 0.758806
vn -0.651316 0.000000 0.758806
vn -0.651316 0.000000 0.758806
vn -0.947471 0.000000 -0.319842
vn -0.947471 0.000000 -0.319842
vn -0.947471 0.000000 -0.319842
vn -0.947471 0.000000 -0.319842
vn -0.174312 -0.984690 -0.000455
vn -0.174312 -0.984690 -0.000455
vn -0.174312 -0.984690 -0.000455
vn -0.174312 -0.984690 -0.000455
vn -0.623674 0.781681 -0.002291
vn -0.623674 0.781681 -0.002291
vn -0.623674 0.781681 -0.002291
vn -0.623674 0.781681 -0.002291
vn 0.000000 1.000000 0.000000
vn 0.000000 1.000000 0.000000
vn 0.000000 1.000000 0.000000
vn -0.022691 -0.996548 -0.079856
vn -0.022691 -0.996548 -0.079856
vn -0.022691 -0.996548 -0.079856
vn -0.006934 0.000000 0.999976
vn -0.006934 0.000000 0.999976
vn -0.006934 0.000000 0.999976
vn -0.057408 0.919867 0.388006
vn -0.057408 0.919867 0.388006
vn -0.057408 0.919867 0.388006
vn -0.057408 0.919867 0.388006
vn -0.020466 -0.987030 0.159225
vn -0.020466 -0.987030 0.159225
vn -0.020466 -0.987030 0.159225
vn -0.020466 -0.987030 0.159225
vn 0.007792 0.000000 0.999970
vn 0.007792 0.000000 0.999970
vn 0.007792 0.000000 0.999970
vn 0.082068 -0.926854 -0.366342
vn 0.082068 -0.926854 -0.366342
vn 0.082068 -0.926854 -0.366342
vn 0.082068 -0.926854 -0.366342
vn 0.063911 0.922118 0.381593
vn 0.063911 0.922118 0.381593
vn 0.063911 0.922118 0.381593
vn 0.063911 0.922118 0.381593
vn -0.408872 0.767743 0.493350
vn -0.408872 0.767743 0.493350
vn -0.408872 0.767743 0.493350
vn -0.408872 0.767743 0.493350
vn -0.051380 -0.969255 0.240635
vn -0.051380 -0.969255 0.240635
vn -0.051380 -0.969255 0.240635
vn -0.149672 -0.973182 -0.174686
vn -0.149672 -0.973182 -0.174686
vn -0.149672 -0.973182 -0.174686
vn -0.149672 -0.973182 -0.174686
vn 0.355905 0.774981 0.522242
vn 0.355905 0.774981 0.522242
vn 0.355905 0.774981 0.522242
vn 0.355905 0.774981 0.522242
vn -0.191837 -0.981427 -0.000246
vn -0.191837 -0.981427 -0.000246
vn -0.191837 -0.981427 -0.000246
vn -0.191837 -0.981427 -0.000246
vn -0.694376 0.719609 0.002134
vn -0.694376 0.719609 0.002134
vn -0.694377 0.719609 0.002134
vn -0.694376 0.719609 0.002134
vn 0.639439 0.768827 -0.004707
vn 0.639439 0.768827 -0.004707
vn 0.639439 0.768827 -0.004707
vn 0.639439 0.768827 -0.004707
vn -0.205683 -0.978619 0.000014
vn -0.205683 -0.978619 0.000014
vn -0.205683 -0.978619 0.000014
vn -0.205683 -0.978619 0.000014
vn -0.179917 -0.983604 -0.012392
vn -0.179917 -0.983604 -0.012392
vn -0.179917 -0.983604 -0.012392
vn -0.586849 0.768551 -0.254828
vn -0.586849 0.768551 -0.254828
vn -0.586849 0.768551 -0.254828
vn -0.195087 -0.980506 -0.023411
vn -0.195087 -0.980506 -0.023411
vn -0.195087 -0.980506 -0.023411
vn -0.689128 0.678538 -0.254340
vn -0.689128 0.678538 -0.254340
vn -0.689128 0.678538 -0.254340
vn 0.570191 0.756204 -0.320995
vn 0.570191 0.756204 -0.320995
vn 0.570191 0.756204 -0.320995
vn -0.204110 -0.972181 0.114905
vn -0.204110 -0.972181 0.114905
vn -0.204110 -0.972181 0.114905
vn 0.176698 -0.981462 0.074229
vn 0.176698 -0.981462 0.074229
vn 0.176698 -0.981462 0.074229
vn 0.171733 -0.985143 0.000448
vn 0.171733 -0.985143 0.000448
vn 0.171733 -0.985144 0.000448
vn 0.171733 -0.985144 0.000448
vn 0.166565 -0.985816 -0.020575
vn 0.166565 -0.985816 -0.020575
vn 0.166565 -0.985816 -0.020575
vn 0.030302 -0.986866 0.158674
vn 0.030302 -0.986866 0.158674
vn 0.030302 -0.986866 0.158674
vn 0.030302 -0.986866 0.158674
vn 0.021068 -0.958327 0.284896
vn 0.021068 -0.958327 0.284896
vn 0.021068 -0.958327 0.284896
vn 0.162926 -0.986638 -0.000011
vn 0.162926 -0.986638 -0.000011
vn 0.162926 -0.986638 -0.000011
vn 0.162926 -0.986638 -0.000011
vn 0.162371 -0.982487 0.091409
vn 0.162371 -0.982487 0.091409
vn 0.162371 -0.982487 0.091409
vn -0.072840 -0.907098 -0.414570
vn -0.072840 -0.907098 -0.414570
vn -0.072840 -0.907098 -0.414570
vn -0.072840 -0.907098 -0.414570
vn 0.193243 -0.963919 -0.183077
vn 0.193243 -0.963919 -0.183077
vn 0.193243 -0.963919 -0.183077
vn 0.193243 -0.963919 -0.183077
vn 0.228613 -0.973517 0.000281
vn 0.228613 -0.973517 0.000281
vn 0.228613 -0.973517 0.000281
vn 0.228613 -0.973517 0.000281
vn 0.223915 -0.974571 -0.008617
vn 0.223915 -0.974571 -0.008617
vn 0.223915 -0.974571 -0.008617
vn -0.643077 0.674824 -0.362028
vn -0.643077 0.674824 -0.362028
vn -0.643077 0.674824 -0.362028
vn -0.650402 0.759574 0.005007
vn -0.650402 0.759574 0.005007
vn -0.650402 0.759574 0.005007
vn -0.650402 0.759574 0.005007
vn -0.360924 0.786940 -0.500460
vn -0.360924 0.786939 -0.500460
vn -0.360924 0.786940 -0.500460
vn 0.000477 0.843017 -0.537887
vn 0.000477 0.843017 -0.537887
vn 0.000477 0.843017 -0.537887
vn 0.000477 0.843017 -0.537887
vn 0.000688 0.847584 -0.530660
vn 0.000688 0.847584 -0.530660
vn 0.000688 0.847584 -0.530661
vn 0.000688 0.847584 -0.530660
vn 0.459866 0.751509 -0.473030
vn 0.459866 0.751509 -0.473030
vn 0.459866 0.751509 -0.473030
vn 0.697915 0.716177 -0.002242
vn 0.697915 0.716177 -0.002242
vn 0.697915 0.716177 -0.002242
vn 0.697915 0.716177 -0.002242
vn 0.661518 0.711541 -0.236863
vn 0.661518 0.711541 -0.236863
vn 0.661518 0.711541 -0.236863
vn 0.625357 0.780335 0.002297
vn 0.625357 0.780335 0.002297
vn 0.625357 0.780335 0.002297
vn 0.625357 0.780335 0.002297
vn 0.617686 0.736009 -0.277047
vn 0.617686 0.736009 -0.277047
vn 0.617686 0.736009 -0.277047
vn 0.000000 -0.524031 -0.851699
vn 0.000000 -0.524031 -0.851699
vn 0.000000 -0.524031 -0.851699
vn 0.000000 -0.524031 -0.851699
vn -0.016394 -0.848611 -0.528764
vn -0.016394 -0.848611 -0.528764
vn -0.016394 -0.848611 -0.528764
vn -0.016394 -0.848611 -0.528764
vn 0.542519 0.707494 -0.452907
vn 0.542519 0.707494 -0.452908
vn 0.542519 0.707494 -0.452908
vn -0.578434 0.692431 -0.431224
vn -0.578434 0.692431 -0.431224
vn -0.578434 0.692431 -0.431224
vn 0.001253 0.991401 0.130851
vn 0.001253 0.991401 0.130851
vn 0.001253 0.991401 0.130851
vn 0.001253 0.991401 0.130851
vn -0.168868 -0.984675 0.043581
vn -0.168868 -0.984675 0.043581
vn -0.168868 -0.984675 0.043581
s off
f 1/1/1 26/30/2 23/27/3 3/3/4
f 3/3/5 23/27/6 24/28/7 5/5/8
f 5/5/9 24/28/10 25/29/11 7/7/12
f 7/7/13 25/29/14 26/31/15 1/9/16
f 2/2/17 8/11/18 6/12/19 4/4/20
f 7/13/21 1/1/22 10/255/23 9/257/24
f 1/1/25 3/3/26 11/253/27 10/255/28
f 3/3/29 5/14/30 12/251/31 11/253/32
f 5/14/33 7/13/34 9/257/35 12/251/36
f 9/15/37 10/256/38 14/117/39 13/248/40
f 10/16/41 11/254/42 15/246/43 14/116/44
f 11/17/45 12/252/46 16/243/47 15/245/48
f 12/18/49 9/258/50 13/249/51 16/242/52
f 14/115/53 15/247/54 19/237/55 18/120/56
f 15/20/57 16/244/58 20/91/59 19/236/60
f 16/21/61 13/250/62 17/240/63 20/90/64
f 18/113/65 43/66/66 44/52/67 17/22/68
f 18/119/69 19/238/70 42/121/71 43/234/72
f 20/24/73 41/87/74 42/50/75 19/23/76
f 20/89/77 17/241/78 44/222/79 41/232/80
f 31/265/81 32/261/82 33/271/83 34/273/84
f 35/269/85 34/39/86 33/272/87 36/267/88
f 37/43/89 35/41/90 36/268/91 38/259/92
f 31/266/93 37/45/94 38/260/95 32/37/96
f 27/32/97 4/4/98 6/6/99 28/33/100
f 29/34/101 28/33/102 6/6/103 8/8/104
f 30/36/105 29/34/106 8/8/107 2/10/108
f 27/32/109 30/35/110 2/2/111 4/4/112
f 27/32/113 28/33/114 33/38/115 32/262/116
f 24/28/117 23/27/118 31/40/119 34/274/120
f 25/29/121 24/28/122 34/274/123 35/270/124
f 28/33/125 29/34/126 36/42/127 33/38/128
f 26/31/129 25/29/130 35/270/131 37/263/132
f 29/34/133 30/36/134 38/44/135 36/42/136
f 23/27/137 26/30/138 37/264/139 31/40/140
f 30/35/141 27/32/142 32/262/143 38/46/144
f 40/174/145 58/109/146 59/217/147 21/132/148
f 39/138/149 76/100/150 77/126/151 22/220/152
f 76/93/153 72/81/154 71/99/155
f 60/108/156 64/103/157 58/67/158
f 43/51/159 42/122/160 48/157/161
f 42/123/162 72/94/163 73/149/164 48/56/165
f 39/135/166 64/104/167 65/196/168 47/55/169
f 41/49/170 44/223/171 50/212/172
f 44/224/173 60/106/174 61/210/175 50/58/176
f 70/163/177 71/98/178 41/233/179 50/213/180
f 48/160/181 73/150/182 74/146/183 45/53/184
f 47/202/185 65/197/186 66/193/187
f 50/215/188 61/211/189 62/207/190 46/184/191
f 69/166/192 70/162/193 50/214/194 46/185/195
f 47/201/196 66/194/197 67/190/198 51/229/199
f 45/156/200 74/147/201 75/140/202 52/60/203
f 68/169/204 69/165/205 46/54/206 54/188/207
f 46/183/208 62/208/209 63/204/210 54/187/211
f 21/131/212 59/218/213 55/129/214
f 22/219/215 77/127/216 55/63/217
f 51/59/218 67/191/219 56/143/220
f 52/153/221 75/141/222 56/64/223
f 57/172/224 68/168/225 54/62/226
f 54/186/227 63/205/228 57/171/229
f 58/111/230 64/73/231 39/136/232
f 59/216/233 58/110/234 39/137/235 22/221/236
f 55/128/237 59/68/238 22/26/239
f 61/209/240 60/107/241 40/176/242 49/178/243
f 62/206/244 61/70/245 49/179/246
f 63/203/247 62/71/248 49/180/249 53/227/250
f 57/170/251 63/72/252 53/228/253
f 65/195/254 64/105/255 43/235/256 48/158/257
f 66/192/258 65/74/259 48/159/260 45/154/261
f 67/189/262 66/75/263 45/155/264 52/151/265
f 56/142/266 67/76/267 52/152/268
f 53/61/269 68/167/270 57/65/271
f 49/181/272 69/164/273 68/77/274 53/226/275
f 49/182/276 70/161/277 69/78/278
f 40/177/279 71/97/280 70/79/281 49/57/282
f 73/148/283 72/95/284 39/134/285 47/198/286
f 74/145/287 73/82/288 47/199/289
f 75/139/290 74/83/291 47/200/292 51/230/293
f 56/144/294 75/84/295 51/231/296
f 77/125/297 76/101/298 40/173/299 21/133/300
f 55/130/301 77/86/302 21/25/303
f 13/19/304 14/118/305 18/112/306 17/239/307
f 43/114/308 64/102/309 60/69/310 44/225/311
f 76/92/312 71/80/313 40/48/314
f 72/96/315 76/85/316 39/47/317
f 71/99/318 72/81/319 42/124/320 41/88/321
f 60/108/322 58/67/323 40/175/324
