# This file uses meters as units for non-parametric coordinates.

v 17.358307 20.312294 0.000000
v 11.989700 7.228515 0.000000
v 11.531464 20.312294 6.519562
v 2.776978 20.312294 9.142853
v 2.807693 7.228515 9.345215
v -7.668976 20.312294 6.485413
v -6.769196 7.228515 6.601990
v -11.013748 20.312294 0.000000
v -9.437500 7.228515 0.000000
v 16.237061 17.928196 0.000000
v 10.830688 18.283695 6.153961
v 2.776810 18.283695 9.137207
v -7.768875 18.283695 7.178406
v -10.998032 18.283695 0.000000
v 12.920395 -20.312294 0.000000
v 8.833130 -20.312294 6.883575
v 2.807693 -20.312294 8.883118
v -3.322342 -20.312294 6.883575
v -8.590652 -20.312294 0.000000
v 2.807693 -20.312294 0.000000
v 15.695221 -12.356455 0.000000
v 2.807648 -12.356455 11.865509
v -8.883713 -12.356455 8.724304
v -13.093964 -12.356455 0.000000
v 15.695221 -0.928284 0.000000
v -13.329880 -0.915805 0.000000
v -8.883713 -0.866073 8.068085
v 2.807693 -0.874180 11.865509
v -17.029480 -1.718410 1.151703
v -12.322708 -2.338234 0.827789
v -8.115051 12.657317 1.142212
v -14.098038 15.422893 1.096436
v -17.358307 13.839329 0.826538
v -15.804199 -0.162447 1.352997
v -12.322708 -0.782273 0.986542
v -8.095581 11.191879 1.342285
v -13.976700 13.594527 1.290527
v -15.957199 12.309695 0.985199
v 15.565918 20.312294 0.000000
v 11.105103 20.312294 5.276489
v 2.776672 20.312294 7.886047
v -6.502426 20.312294 5.596680
v -9.655243 20.312294 0.000000
v 13.167084 15.277487 0.000000
v 9.595551 15.277487 4.679749
v 2.448669 15.277487 7.749634
v -6.505539 15.277487 5.217285
v -9.431702 15.277487 0.000000
v 2.807220 15.277487 0.000000
v -9.971725 -18.410763 0.000000
v -6.248749 -18.410763 8.100159
v 2.807678 -18.410763 10.872467
v 10.668594 -18.410763 7.147614
v 14.454239 -18.410763 0.000000
v 10.766556 -0.901233 6.957764
v 11.167419 -12.356455 7.052734
v 11.531464 20.312294 -6.519562
v 2.776978 20.312294 -9.142853
v 2.807693 7.228515 -9.345215
v -7.668976 20.312294 -6.485413
v -6.769196 7.228515 -6.601990
v 10.830688 18.283695 -6.153961
v 2.776810 18.283695 -9.137207
v -7.768875 18.283695 -7.178406
v 8.833130 -20.312294 -6.883575
v 2.807693 -20.312294 -8.883118
v -3.322342 -20.312294 -6.883575
v 2.807648 -12.356455 -11.865509
v -8.883713 -12.356455 -8.724304
v -8.883713 -0.866073 -8.068085
v 2.807693 -0.874180 -11.865509
v -17.029480 -1.718410 -1.151703
v -12.322708 -2.338234 -0.827789
v -8.115051 12.657317 -1.142212
v -14.098038 15.422893 -1.096436
v -17.358307 13.839329 -0.826538
v -15.804199 -0.162447 -1.352997
v -12.322708 -0.782273 -0.986542
v -8.095581 11.191879 -1.342285
v -13.976700 13.594527 -1.290527
v -15.957199 12.309695 -0.985199
v 11.105103 20.312294 -5.276489
v 2.776672 20.312294 -7.886047
v -6.502426 20.312294 -5.596680
v 9.595551 15.277487 -4.679749
v 2.448669 15.277487 -7.749634
v -6.505539 15.277487 -5.217285
v -6.248749 -18.410763 -8.100159
v 2.807678 -18.410763 -10.872467
v 10.668594 -18.410763 -7.147614
v 10.766556 -0.901233 -6.957764
v 11.167419 -12.356455 -7.052734
vt 0.429138 0.012122
vt 0.208939 0.325311
vt 0.429136 0.012122
vt 0.208939 0.325311
vt 0.429136 0.012122
vt 0.208939 0.325311
vt 0.429136 0.012122
vt 0.208939 0.325311
vt 0.208939 0.325311
vt 0.208939 0.325310
vt 0.208939 0.325310
vt 0.208939 0.325310
vt 0.208939 0.325310
vt 0.422211 0.014892
vt 0.422209 0.014892
vt 0.422209 0.014892
vt 0.422209 0.014892
vt 0.208939 0.325311
vt 0.208939 0.325311
vt 0.208939 0.325311
vt 0.208939 0.325311
vt 0.208939 0.325310
vt 0.208939 0.325310
vt 0.208939 0.325310
vt 0.208939 0.325310
vt 0.429138 0.012122
vt 0.429136 0.012122
vt 0.429136 0.012122
vt 0.429136 0.012122
vt 0.208939 0.325311
vt 0.208939 0.325311
vt 0.208939 0.325311
vt 0.208939 0.325311
vt 0.208939 0.325311
vt 0.208939 0.325311
vt 0.426615 0.010310
vt 0.426615 0.010310
vt 0.426615 0.010310
vt 0.426615 0.010310
vt 0.426615 0.010310
vt 0.426615 0.010310
vt 0.426615 0.010310
vt 0.426615 0.010310
vt 0.426615 0.010310
vt 0.426615 0.010310
vt 0.426615 0.010310
vt 0.426615 0.010310
vt 0.426615 0.010310
vt 0.426615 0.010310
vt 0.426615 0.010310
vt 0.426615 0.010310
vt 0.426615 0.010310
vt 0.426615 0.010310
vt 0.426615 0.010310
vt 0.426615 0.010310
vt 0.426615 0.010310
vt 0.426615 0.010310
vt 0.426615 0.010310
vt 0.426615 0.010310
vt 0.426615 0.010310
vt 0.426615 0.010310
vt 0.426615 0.010310
vt 0.426615 0.010310
vt 0.426615 0.010310
vt 0.426615 0.010310
vt 0.426615 0.010310
vt 0.426615 0.010310
vt 0.429138 0.012122
vt 0.429136 0.012122
vt 0.429136 0.012122
vt 0.429138 0.012122
vt 0.429138 0.012122
vt 0.429136 0.012122
vt 0.429136 0.012122
vt 0.429136 0.012122
vt 0.429136 0.012122
vt 0.429136 0.012122
vt 0.429136 0.012122
vt 0.429136 0.012122
vt 0.429136 0.012122
vt 0.429136 0.012122
vt 0.429136 0.012122
vt 0.429138 0.012122
vt 0.429136 0.012122
vt 0.429136 0.012122
vt 0.429136 0.012122
vt 0.429138 0.012122
vt 0.429138 0.012122
vt 0.429138 0.012122
vt 0.429136 0.012122
vt 0.429136 0.012122
vt 0.429136 0.012122
vt 0.429136 0.012122
vt 0.429136 0.012122
vt 0.429136 0.012122
vt 0.429136 0.012122
vt 0.429136 0.012122
vt 0.429136 0.012122
vt 0.429138 0.012122
vt 0.429138 0.012122
vt 0.429136 0.012122
vt 0.429136 0.012122
vt 0.429136 0.012122
vt 0.429136 0.012122
vt 0.429136 0.012122
vt 0.429136 0.012122
vt 0.429138 0.012122
vt 0.208939 0.325311
vt 0.208939 0.325311
vt 0.208939 0.325311
vt 0.208939 0.325311
vt 0.208939 0.325311
vt 0.422211 0.014892
vt 0.422209 0.014892
vt 0.422209 0.014892
vt 0.422209 0.014892
vt 0.422209 0.014892
vt 0.422209 0.014892
vt 0.422209 0.014892
vt 0.422211 0.014892
vt 0.422211 0.014892
vt 0.422211 0.014892
vt 0.422209 0.014892
vt 0.422209 0.014892
vt 0.422209 0.014892
vt 0.422209 0.014892
vt 0.422209 0.014892
vt 0.422209 0.014892
vt 0.422209 0.014892
vt 0.422209 0.014892
vt 0.422209 0.014892
vt 0.422211 0.014892
vt 0.422211 0.014892
vt 0.422211 0.014892
vt 0.422211 0.014892
vt 0.422211 0.014892
vt 0.208939 0.325310
vt 0.208939 0.325311
vt 0.429136 0.012122
vt 0.429138 0.012122
vt 0.429138 0.012122
vt 0.429136 0.012122
vt 0.429136 0.012122
vt 0.429136 0.012122
vt 0.429136 0.012122
vt 0.429136 0.012122
vt 0.429136 0.012122
vt 0.429136 0.012122
vt 0.429136 0.012122
vt 0.429136 0.012122
vt 0.429138 0.012122
vt 0.429136 0.012122
vt 0.429136 0.012122
vt 0.429138 0.012122
vt 0.208939 0.325310
vt 0.208939 0.325311
vt 0.208939 0.325311
vt 0.208939 0.325310
vt 0.208939 0.325311
vt 0.208939 0.325310
vt 0.208939 0.325311
vt 0.208939 0.325310
vt 0.208939 0.325311
vt 0.422209 0.014892
vt 0.422211 0.014892
vt 0.422211 0.014892
vt 0.422209 0.014892
vt 0.422209 0.014892
vt 0.422211 0.014892
vt 0.422209 0.014892
vt 0.422209 0.014892
vt 0.422211 0.014892
vt 0.422211 0.014892
vt 0.422209 0.014892
vt 0.422211 0.014892
vt 0.422211 0.014892
vt 0.422209 0.014892
vt 0.422209 0.014892
vt 0.422211 0.014892
vt 0.422209 0.014892
vt 0.422209 0.014892
vt 0.422209 0.014892
vt 0.422209 0.014892
vt 0.422209 0.014892
vt 0.422209 0.014892
vt 0.422209 0.014892
vt 0.422209 0.014892
vt 0.422209 0.014892
vt 0.422211 0.014892
vt 0.422211 0.014892
vt 0.422209 0.014892
vt 0.208939 0.325311
vt 0.208939 0.325310
vt 0.208939 0.325310
vt 0.208939 0.325311
vt 0.208939 0.325311
vt 0.208939 0.325310
vt 0.208939 0.325311
vt 0.208939 0.325310
vt 0.426615 0.010310
vt 0.426615 0.010310
vt 0.426615 0.010310
vt 0.426615 0.010310
vt 0.426615 0.010310
vt 0.426615 0.010310
vt 0.426615 0.010310
vt 0.426615 0.010310
vt 0.426615 0.010310
vt 0.426615 0.010310
vt 0.426615 0.010310
vt 0.426615 0.010310
vt 0.426615 0.010310
vt 0.426615 0.010310
vt 0.426615 0.010310
vt 0.426615 0.010310
vt 0.426615 0.010310
vt 0.426615 0.010310
vt 0.426615 0.010310
vt 0.426615 0.010310
vt 0.426615 0.010310
vt 0.426615 0.010310
vt 0.426615 0.010310
vt 0.426615 0.010310
vt 0.426615 0.010310
vt 0.426615 0.010310
vt 0.426615 0.010310
vt 0.426615 0.010310
vt 0.426615 0.010310
vt 0.426615 0.010310
vt 0.426615 0.010310
vt 0.426615 0.010310
vt 0.429138 0.012122
vt 0.429136 0.012122
vt 0.429136 0.012122
vt 0.429138 0.012122
vt 0.429136 0.012122
vt 0.429136 0.012122
vt 0.429136 0.012122
vt 0.429136 0.012122
vt 0.429136 0.012122
vt 0.429136 0.012122
vt 0.429136 0.012122
vt 0.429136 0.012122
vt 0.429136 0.012122
vt 0.429138 0.012122
vt 0.429138 0.012122
vt 0.429136 0.012122
vt 0.429138 0.012122
vt 0.429136 0.012122
vt 0.429136 0.012122
vt 0.429138 0.012122
vt 0.429136 0.012122
vt 0.429136 0.012122
vt 0.429136 0.012122
vt 0.429136 0.012122
vt 0.429136 0.012122
vt 0.429136 0.012122
vt 0.429136 0.012122
vt 0.429136 0.012122
vt 0.429136 0.012122
vt 0.429138 0.012122
vt 0.429138 0.012122
vt 0.429136 0.012122
vt 0.208939 0.325311
vt 0.208939 0.325311
vt 0.208939 0.325311
vt 0.208939 0.325311
vt 0.208939 0.325311
vt 0.208939 0.325311
vt 0.208939 0.325311
vt 0.208939 0.325311
vt 0.208939 0.325311
vt 0.208939 0.325311
vt 0.208939 0.325311
vt 0.208939 0.325311
vt 0.208939 0.325310
vn 0.698826 -0.340659 0.628962
vn 0.698826 -0.340659 0.628962
vn 0.698826 -0.340659 0.628962
vn 0.698826 -0.340659 0.628962
vn 0.313299 -0.140073 0.939268
vn 0.313299 -0.140073 0.939267
vn 0.313299 -0.140073 0.939267
vn 0.313299 -0.140073 0.939268
vn -0.211712 0.168322 0.962728
vn -0.211712 0.168322 0.962728
vn -0.211712 0.168322 0.962728
vn -0.211712 0.168322 0.962728
vn -0.897278 0.092354 0.431698
vn -0.897278 0.092354 0.431698
vn -0.897278 0.092354 0.431698
vn -0.897278 0.092354 0.431698
vn 0.712436 -0.282810 0.642226
vn 0.712436 -0.282810 0.642226
vn 0.712436 -0.282810 0.642226
vn 0.347288 0.018611 0.937574
vn 0.347288 0.018611 0.937574
vn 0.347288 0.018611 0.937574
vn -0.227458 -0.026821 0.973419
vn -0.227458 -0.026821 0.973418
vn -0.227458 -0.026821 0.973419
vn -0.227458 -0.026821 0.973418
vn -0.913150 -0.115924 0.390792
vn -0.913150 -0.115924 0.390792
vn -0.913150 -0.115924 0.390792
vn -0.913150 -0.115924 0.390792
vn 0.000000 -1.000000 0.000000
vn 0.000000 -1.000000 0.000000
vn 0.000000 -1.000000 0.000000
vn 0.000000 -1.000000 0.000000
vn 0.000000 -1.000000 0.000000
vn 0.000000 -1.000000 0.000000
vn 0.000000 -1.000000 0.000000
vn 0.000000 -1.000000 0.000000
vn 0.000000 -1.000000 0.000000
vn 0.000000 -1.000000 -0.000000
vn 0.000000 -1.000000 -0.000000
vn 0.000000 -1.000000 -0.000000
vn 0.678801 -0.627824 0.380876
vn 0.678801 -0.627824 0.380876
vn 0.678801 -0.627824 0.380876
vn 0.678801 -0.627824 0.380876
vn 0.307570 -0.590525 0.746110
vn 0.307570 -0.590525 0.746110
vn 0.307570 -0.590525 0.746110
vn 0.307570 -0.590525 0.746110
vn -0.208303 -0.719124 0.662925
vn -0.208303 -0.719124 0.662925
vn -0.208303 -0.719124 0.662925
vn -0.208303 -0.719124 0.662926
vn -0.566626 -0.750549 0.340015
vn -0.566626 -0.750549 0.340015
vn -0.566626 -0.750549 0.340015
vn -0.566626 -0.750549 0.340015
vn 0.511733 0.012499 0.859054
vn 0.511733 0.012499 0.859054
vn 0.511733 0.012499 0.859053
vn 0.511733 0.012499 0.859053
vn -0.284365 0.027375 0.958325
vn -0.284365 0.027375 0.958325
vn -0.284365 0.027375 0.958325
vn -0.284365 0.027375 0.958325
vn -0.888847 0.003967 0.458186
vn -0.888847 0.003967 0.458186
vn -0.888847 0.003967 0.458186
vn -0.888847 0.003967 0.458186
vn -0.843688 0.348920 0.407976
vn -0.843688 0.348920 0.407976
vn -0.843688 0.348920 0.407976
vn -0.843688 0.348920 0.407976
vn -0.283432 0.263910 0.921964
vn -0.283432 0.263910 0.921964
vn -0.283432 0.263910 0.921964
vn -0.283432 0.263910 0.921964
vn 0.639911 0.441821 0.628735
vn 0.639911 0.441821 0.628735
vn 0.639911 0.441821 0.628735
vn -0.130560 -0.991440 0.000000
vn -0.130560 -0.991440 0.000000
vn -0.130560 -0.991440 0.000000
vn -0.130560 -0.991440 0.000000
vn 0.419583 0.907717 0.000000
vn 0.419583 0.907717 0.000000
vn 0.419583 0.907717 0.000000
vn 0.419583 0.907717 0.000000
vn -0.436905 0.899508 0.000000
vn -0.436905 0.899508 0.000000
vn -0.436905 0.899508 0.000000
vn -0.436905 0.899508 0.000000
vn -0.999777 -0.021131 0.000000
vn -0.999777 -0.021131 0.000000
vn -0.999777 -0.021131 0.000000
vn -0.999777 -0.021131 0.000000
vn 0.062304 -0.138882 0.988347
vn 0.062304 -0.138882 0.988347
vn 0.062304 -0.138882 0.988347
vn 0.062304 -0.138882 0.988347
vn 0.044371 0.120574 0.991712
vn 0.044371 0.120574 0.991712
vn 0.044371 0.120574 0.991712
vn 0.044371 0.120574 0.991712
vn -0.132688 0.043860 0.990187
vn -0.132688 0.043860 0.990187
vn -0.132688 0.043860 0.990187
vn -0.132688 0.043860 0.990187
vn -0.135968 0.022149 0.990466
vn -0.135968 0.022149 0.990466
vn -0.135968 0.022149 0.990466
vn -0.135968 0.022149 0.990466
vn 0.000000 1.000000 0.000001
vn 0.000000 1.000000 0.000001
vn 0.000000 1.000000 0.000001
vn 0.000000 1.000000 0.000001
vn 0.000000 1.000000 0.000000
vn 0.000000 1.000000 0.000000
vn 0.000000 1.000000 0.000000
vn 0.000000 1.000000 0.000000
vn 0.000000 1.000000 0.000000
vn 0.000000 1.000000 0.000000
vn 0.000000 1.000000 0.000000
vn 0.000000 1.000000 0.000000
vn 0.000000 1.000000 -0.000001
vn 0.000000 1.000000 -0.000001
vn 0.000000 1.000000 -0.000001
vn 0.000000 1.000000 -0.000001
vn -0.737026 0.321304 -0.594607
vn -0.737025 0.321304 -0.594607
vn -0.737026 0.321304 -0.594607
vn -0.737026 0.321304 -0.594607
vn -0.341602 0.130107 -0.930795
vn -0.341602 0.130107 -0.930795
vn -0.341602 0.130107 -0.930795
vn -0.341602 0.130107 -0.930795
vn 0.255442 0.041081 -0.965951
vn 0.255442 0.041080 -0.965951
vn 0.255442 0.041081 -0.965951
vn 0.255442 0.041081 -0.965951
vn 0.871095 0.037518 -0.489679
vn 0.871095 0.037518 -0.489679
vn 0.871095 0.037518 -0.489679
vn 0.871095 0.037518 -0.489679
vn 0.000000 1.000000 -0.000000
vn 0.000000 1.000000 -0.000000
vn 0.000000 1.000000 -0.000000
vn 0.000000 1.000000 0.000000
vn 0.000000 1.000000 0.000000
vn 0.000000 1.000000 0.000000
vn 0.000000 1.000000 0.000000
vn 0.000000 1.000000 0.000000
vn 0.000000 1.000000 0.000000
vn 0.000000 1.000000 -0.000000
vn 0.000000 1.000000 -0.000000
vn 0.000000 1.000000 -0.000000
vn -0.824195 -0.411907 0.388632
vn -0.824195 -0.411907 0.388632
vn -0.824195 -0.411907 0.388632
vn -0.824195 -0.411907 0.388632
vn -0.269379 -0.184849 0.945127
vn -0.269379 -0.184849 0.945127
vn -0.269379 -0.184849 0.945127
vn -0.269379 -0.184849 0.945127
vn 0.464098 -0.084521 0.881742
vn 0.464098 -0.084521 0.881742
vn 0.464098 -0.084521 0.881742
vn 0.464098 -0.084521 0.881742
vn 0.856836 -0.119182 0.501626
vn 0.856836 -0.119182 0.501626
vn 0.856836 -0.119182 0.501625
vn 0.856836 -0.119182 0.501625
vn 0.765691 0.347843 0.541039
vn 0.765691 0.347843 0.541039
vn 0.765691 0.347843 0.541039
vn 0.828763 0.016839 0.559346
vn 0.828763 0.016839 0.559346
vn 0.828763 0.016839 0.559346
vn 0.828763 0.016839 0.559346
vn 0.680284 -0.300752 0.668403
vn 0.680284 -0.300752 0.668403
vn 0.680284 -0.300752 0.668403
vn 0.698826 -0.340659 -0.628962
vn 0.698826 -0.340659 -0.628962
vn 0.698826 -0.340659 -0.628962
vn 0.698826 -0.340659 -0.628962
vn 0.313299 -0.140073 -0.939268
vn 0.313299 -0.140073 -0.939268
vn 0.313299 -0.140073 -0.939268
vn 0.313299 -0.140073 -0.939267
vn -0.211712 0.168322 -0.962728
vn -0.211712 0.168322 -0.962728
vn -0.211712 0.168322 -0.962728
vn -0.211712 0.168322 -0.962728
vn -0.897278 0.092354 -0.431698
vn -0.897278 0.092354 -0.431698
vn -0.897278 0.092354 -0.431698
vn -0.897278 0.092354 -0.431698
vn 0.712436 -0.282810 -0.642226
vn 0.712436 -0.282810 -0.642226
vn 0.712436 -0.282810 -0.642226
vn 0.347288 0.018611 -0.937574
vn 0.347288 0.018611 -0.937574
vn 0.347288 0.018611 -0.937574
vn -0.227458 -0.026821 -0.973419
vn -0.227458 -0.026821 -0.973418
vn -0.227458 -0.026821 -0.973419
vn -0.227458 -0.026821 -0.973418
vn -0.913150 -0.115924 -0.390792
vn -0.913150 -0.115924 -0.390792
vn -0.913150 -0.115924 -0.390792
vn -0.913150 -0.115924 -0.390792
vn 0.000000 -1.000000 -0.000000
vn 0.000000 -1.000000 -0.000000
vn 0.000000 -1.000000 -0.000000
vn 0.000000 -1.000000 0.000000
vn 0.000000 -1.000000 0.000000
vn 0.000000 -1.000000 0.000000
vn 0.000000 -1.000000 0.000000
vn 0.000000 -1.000000 0.000000
vn 0.000000 -1.000000 0.000000
vn 0.000000 -1.000000 0.000000
vn 0.000000 -1.000000 0.000000
vn 0.000000 -1.000000 0.000000
vn 0.678801 -0.627824 -0.380876
vn 0.678801 -0.627824 -0.380876
vn 0.678801 -0.627824 -0.380876
vn 0.678801 -0.627824 -0.380876
vn 0.307570 -0.590525 -0.746110
vn 0.307570 -0.590525 -0.746110
vn 0.307570 -0.590525 -0.746110
vn 0.307570 -0.590525 -0.746110
vn -0.208303 -0.719125 -0.662925
vn -0.208303 -0.719125 -0.662925
vn -0.208303 -0.719125 -0.662925
vn -0.208303 -0.719125 -0.662925
vn -0.566626 -0.750549 -0.340015
vn -0.566626 -0.750549 -0.340015
vn -0.566626 -0.750549 -0.340015
vn -0.566626 -0.750549 -0.340015
vn 0.511733 0.012499 -0.859054
vn 0.511733 0.012499 -0.859054
vn 0.511733 0.012499 -0.859054
vn 0.511733 0.012499 -0.859054
vn -0.284365 0.027375 -0.958325
vn -0.284365 0.027375 -0.958325
vn -0.284365 0.027375 -0.958325
vn -0.284365 0.027375 -0.958325
vn -0.888847 0.003967 -0.458186
vn -0.888847 0.003967 -0.458186
vn -0.888847 0.003967 -0.458186
vn -0.888847 0.003967 -0.458186
vn -0.843688 0.348920 -0.407976
vn -0.843688 0.348920 -0.407976
vn -0.843688 0.348920 -0.407976
vn -0.843688 0.348920 -0.407976
vn -0.283431 0.263910 -0.921964
vn -0.283432 0.263910 -0.921964
vn -0.283431 0.263910 -0.921964
vn -0.283432 0.263910 -0.921964
vn 0.508036 0.255824 -0.822468
vn 0.508036 0.255824 -0.822468
vn 0.508036 0.255824 -0.822468
vn 0.062304 -0.138882 -0.988347
vn 0.062304 -0.138882 -0.988347
vn 0.062304 -0.138882 -0.988347
vn 0.062304 -0.138882 -0.988347
vn 0.044371 0.120574 -0.991712
vn 0.044371 0.120574 -0.991712
vn 0.044371 0.120574 -0.991712
vn 0.044371 0.120574 -0.991712
vn -0.132688 0.043860 -0.990187
vn -0.132688 0.043860 -0.990187
vn -0.132688 0.043860 -0.990187
vn -0.132688 0.043860 -0.990187
vn -0.135969 0.022149 -0.990466
vn -0.135969 0.022149 -0.990466
vn -0.135968 0.022149 -0.990466
vn -0.135968 0.022149 -0.990466
vn 0.175279 0.984519 0.000000
vn 0.175279 0.984519 0.000000
vn 0.175279 0.984519 0.000000
vn 0.175279 0.984519 0.000000
vn -0.378193 -0.925727 0.000000
vn -0.378193 -0.925727 0.000000
vn -0.378193 -0.925727 0.000000
vn -0.378193 -0.925727 0.000000
vn 0.544246 -0.838926 0.000000
vn 0.544246 -0.838926 0.000000
vn 0.544246 -0.838926 0.000000
vn 0.544246 -0.838926 0.000000
vn 0.999925 0.012266 0.000000
vn 0.999925 0.012266 0.000000
vn 0.999925 0.012266 0.000000
vn 0.999925 0.012266 0.000000
vn 0.000000 1.000000 -0.000001
vn 0.000000 1.000000 -0.000001
vn 0.000000 1.000000 -0.000001
vn 0.000000 1.000000 -0.000001
vn 0.000000 1.000000 -0.000000
vn 0.000000 1.000000 -0.000000
vn 0.000000 1.000000 -0.000000
vn 0.000000 1.000000 -0.000000
vn 0.000000 1.000000 -0.000000
vn 0.000000 1.000000 -0.000000
vn 0.000000 1.000000 -0.000000
vn 0.000000 1.000000 -0.000000
vn 0.000000 1.000000 0.000000
vn 0.000000 1.000000 0.000000
vn 0.000000 1.000000 0.000000
vn 0.000000 1.000000 0.000000
vn -0.737026 0.321304 0.594607
vn -0.737026 0.321304 0.594607
vn -0.737026 0.321304 0.594607
vn -0.737025 0.321304 0.594607
vn -0.341602 0.130107 0.930795
vn -0.341602 0.130107 0.930795
vn -0.341602 0.130107 0.930795
vn -0.341602 0.130107 0.930795
vn 0.255442 0.041081 0.965951
vn 0.255442 0.041081 0.965951
vn 0.255442 0.041081 0.965951
vn 0.255442 0.041081 0.965951
vn 0.871095 0.037518 0.489679
vn 0.871095 0.037518 0.489679
vn 0.871095 0.037518 0.489679
vn 0.871095 0.037518 0.489679
vn 0.000000 1.000000 0.000000
vn 0.000000 1.000000 0.000000
vn 0.000000 1.000000 0.000000
vn 0.000000 1.000000 -0.000000
vn 0.000000 1.000000 -0.000000
vn 0.000000 1.000000 -0.000000
vn 0.000000 1.000000 0.000000
vn 0.000000 1.000000 0.000000
vn 0.000000 1.000000 0.000000
vn 0.000000 1.000000 0.000000
vn 0.000000 1.000000 0.000000
vn 0.000000 1.000000 0.000000
vn -0.824195 -0.411907 -0.388632
vn -0.824195 -0.411907 -0.388632
vn -0.824195 -0.411907 -0.388632
vn -0.824195 -0.411907 -0.388632
vn -0.269379 -0.184849 -0.945127
vn -0.269379 -0.184849 -0.945127
vn -0.269379 -0.184849 -0.945127
vn -0.269379 -0.184849 -0.945127
vn 0.464098 -0.084521 -0.881742
vn 0.464098 -0.084521 -0.881742
vn 0.464098 -0.084521 -0.881742
vn 0.464098 -0.084521 -0.881742
vn 0.856836 -0.119182 -0.501626
vn 0.856836 -0.119182 -0.501625
vn 0.856836 -0.119182 -0.501625
vn 0.856836 -0.119182 -0.501626
vn 0.765691 0.347843 -0.541039
vn 0.765691 0.347843 -0.541039
vn 0.765691 0.347843 -0.541039
vn 0.828763 0.016839 -0.559346
vn 0.828763 0.016839 -0.559346
vn 0.828763 0.016839 -0.559346
vn 0.828763 0.016839 -0.559346
vn 0.680284 -0.300752 -0.668403
vn 0.680284 -0.300752 -0.668403
vn 0.680284 -0.300752 -0.668403
vn 0.508036 0.255824 0.822468
vn 0.508036 0.255824 0.822468
vn 0.508036 0.255824 0.822468
vn 0.639911 0.441821 -0.628735
vn 0.639911 0.441821 -0.628735
vn 0.639911 0.441821 -0.628735
s off
f 3/97/1 11/105/2 10/107/3 1/99/4
f 4/94/5 12/103/6 11/106/7 3/96/8
f 6/91/9 13/101/10 12/104/11 4/93/12
f 8/88/13 14/100/14 13/102/15 6/90/16
f 2/10/17 10/2/18 11/4/19
f 11/4/20 12/6/21 5/11/22
f 5/11/23 12/6/24 13/8/25 7/12/26
f 7/12/27 13/8/28 14/9/29 9/13/30
f 16/130/31 20/133/32 15/132/33
f 17/127/34 20/134/35 16/129/36
f 18/124/37 20/135/38 17/126/39
f 19/121/40 20/136/41 18/123/42
f 15/14/43 54/113/44 53/115/45 16/131/46
f 16/15/47 53/114/48 52/117/49 17/128/50
f 17/16/51 52/116/52 51/119/53 18/125/54
f 18/17/55 51/118/56 50/120/57 19/122/58
f 22/19/59 56/138/60 55/137/61 28/22/62
f 23/20/63 22/19/64 28/22/65 27/24/66
f 24/21/67 23/20/68 27/24/69 26/25/70
f 27/24/71 7/12/72 9/13/73 26/25/74
f 28/22/75 5/11/76 7/12/77 27/24/78
f 5/11/79 55/137/80 2/10/81
f 73/201/82 30/45/83 29/44/84 72/200/85
f 32/47/86 31/46/87 74/202/88 75/203/89
f 33/49/90 32/48/91 75/204/92 76/205/93
f 29/51/94 33/50/95 76/206/96 72/207/97
f 30/52/98 35/55/99 34/64/100 29/67/101
f 32/58/102 37/59/103 36/61/104 31/60/105
f 33/56/106 38/57/107 37/63/108 32/66/109
f 38/62/110 33/65/111 29/53/112 34/54/113
f 1/1/114 39/87/115 40/85/116 3/98/117
f 3/3/118 40/84/119 41/81/120 4/95/121
f 4/5/122 41/80/123 42/76/124 6/92/125
f 6/7/126 42/75/127 43/71/128 8/89/129
f 39/26/130 44/83/131 45/79/132 40/86/133
f 40/27/134 45/78/135 46/74/136 41/82/137
f 41/28/138 46/73/139 47/70/140 42/77/141
f 42/29/142 47/69/143 48/68/144 43/72/145
f 44/30/146 49/35/147 45/31/148
f 45/31/149 49/35/150 46/32/151
f 46/32/152 49/35/153 47/33/154
f 47/33/155 49/35/156 48/34/157
f 51/109/158 23/20/159 24/21/160 50/108/161
f 52/110/162 22/19/163 23/20/164 51/109/165
f 22/19/166 52/110/167 53/111/168 56/138/169
f 21/18/170 56/138/171 53/111/172 54/112/173
f 2/10/174 55/137/175 25/23/176
f 56/138/177 21/18/178 25/23/179 55/137/180
f 2/10/181 11/4/182 5/11/183
f 57/139/184 1/140/185 10/141/186 62/142/187
f 58/143/188 57/144/189 62/145/190 63/146/191
f 60/147/192 58/148/193 63/149/194 64/150/195
f 8/151/196 60/152/197 64/153/198 14/154/199
f 2/155/200 62/156/201 10/157/202
f 62/156/203 59/158/204 63/159/205
f 59/158/206 61/160/207 64/161/208 63/159/209
f 61/160/210 9/162/211 14/163/212 64/161/213
f 65/164/214 15/165/215 20/166/216
f 66/167/217 65/168/218 20/169/219
f 67/170/220 66/171/221 20/172/222
f 19/173/223 67/174/224 20/175/225
f 15/176/226 65/177/227 90/178/228 54/179/229
f 65/180/230 66/181/231 89/182/232 90/183/233
f 66/184/234 67/185/235 88/186/236 89/187/237
f 67/188/238 19/189/239 50/190/240 88/191/241
f 68/192/242 71/193/243 91/194/244 92/195/245
f 69/196/246 70/197/247 71/193/248 68/192/249
f 24/198/250 26/199/251 70/197/252 69/196/253
f 70/197/254 26/199/255 9/162/256 61/160/257
f 71/193/258 70/197/259 61/160/260 59/158/261
f 71/193/262 59/158/263 91/194/264
f 73/208/265 72/209/266 77/210/267 78/211/268
f 75/212/269 74/213/270 79/214/271 80/215/272
f 76/216/273 75/217/274 80/218/275 81/219/276
f 81/220/277 77/221/278 72/222/279 76/223/280
f 35/43/281 78/224/282 77/225/283 34/42/284
f 37/41/285 80/226/286 79/227/287 36/40/288
f 38/39/289 81/228/290 80/229/291 37/38/292
f 34/36/293 77/230/294 81/231/295 38/37/296
f 1/232/297 57/233/298 82/234/299 39/235/300
f 57/236/301 58/237/302 83/238/303 82/239/304
f 58/240/305 60/241/306 84/242/307 83/243/308
f 60/244/309 8/245/310 43/246/311 84/247/312
f 39/248/313 82/249/314 85/250/315 44/251/316
f 82/252/317 83/253/318 86/254/319 85/255/320
f 83/256/321 84/257/322 87/258/323 86/259/324
f 84/260/325 43/261/326 48/262/327 87/263/328
f 44/264/329 85/265/330 49/266/331
f 85/265/332 86/267/333 49/266/334
f 86/267/335 87/268/336 49/266/337
f 87/268/338 48/269/339 49/266/340
f 88/270/341 50/271/342 24/198/343 69/196/344
f 89/272/345 88/270/346 69/196/347 68/192/348
f 68/192/349 92/195/350 90/273/351 89/272/352
f 21/274/353 54/275/354 90/273/355 92/195/356
f 2/155/357 25/276/358 91/194/359
f 92/195/360 91/194/361 25/276/362 21/274/363
f 2/155/364 59/158/365 62/156/366
f 28/22/367 55/137/368 5/11/369
f 91/194/370 59/158/371 2/155/372
