# This file uses meters as units for non-parametric coordinates.

v -2.529418 8.740382 -6.232394
v -2.529418 8.740382 6.232394
v -2.529418 19.589911 -6.232394
v -2.529418 19.589911 6.232394
v 2.529418 19.589911 -6.232394
v 2.529418 19.589911 6.232394
v 2.529418 8.740382 -6.232394
v 2.529418 8.740382 6.232394
v -3.186907 21.209936 -7.852420
v -3.186906 21.209936 7.852420
v 3.186907 21.209936 7.852420
v 3.186906 21.209936 -7.852420
v 3.186906 7.120356 -7.852420
v 3.186907 7.120356 7.852420
v -3.186906 7.120356 7.852420
v -3.186907 7.120356 -7.852420
v -3.186907 25.206736 -7.852420
v -3.186906 25.206736 7.852420
v 3.186907 25.206736 7.852420
v 3.186906 25.206736 -7.852420
v 3.186906 0.993443 -7.852420
v 3.186907 0.993443 7.852420
v -3.186906 0.993443 7.852420
v -3.186907 0.993443 -7.852420
v -1.687056 27.570091 -6.837968
v -1.687056 27.570091 6.837968
v 1.687056 27.570091 6.837968
v 1.687056 27.570091 -6.837968
v 1.687056 0.000000 -6.837968
v 1.687056 0.000000 6.837968
v -1.687056 0.000000 6.837968
v -1.687056 0.000000 -6.837968
v 3.299450 17.656990 -5.460128
v 3.299450 17.656990 5.460127
v 3.299450 11.337183 5.460127
v 3.299450 11.337183 -5.460128
v -1.152552 28.283218 -1.941172
v -1.152551 28.283218 1.941172
v 1.152552 28.283218 1.941172
v 1.152551 28.283218 -1.941172
v -1.152552 30.064241 -1.941172
v -1.152552 30.064241 1.941172
v 1.152552 30.064241 1.941172
v 1.152552 30.064241 -1.941172
v -1.600384 30.064241 -2.695429
v -1.600384 30.064241 2.695429
v 1.600384 30.064241 2.695429
v 1.600384 30.064241 -2.695429
v -1.600384 35.907379 -2.695429
v -1.600384 35.907379 2.695429
v 1.600384 35.907379 2.695429
v 1.600384 35.907379 -2.695429
v 2.537949 35.907379 0.025648
v 2.537949 30.064241 0.025648
v 1.827759 30.064241 0.018471
v 1.827759 28.283218 0.018471
v -1.827759 28.283218 0.018471
v -1.827759 30.064241 0.018471
v -2.537949 30.064241 0.025648
v -2.537949 35.907379 0.025648
v 2.928515 27.570091 -0.042243
v 5.532067 25.206736 -0.048509
v 5.532067 21.209936 -0.048509
v 4.390750 19.589911 -0.038501
v 4.390750 17.656990 -0.033731
v 4.390750 11.337183 -0.033731
v 4.390750 8.740382 -0.038501
v 5.532067 7.120355 -0.048509
v 5.532067 0.993443 -0.048509
v 2.928515 0.000000 -0.042243
v -2.928515 0.000000 -0.042243
v -5.532067 0.993443 -0.048509
v -5.532067 7.120355 -0.048509
v -4.390750 8.740382 -0.038501
v -4.390750 19.589911 -0.038501
v -5.532067 21.209936 -0.048509
v -5.532067 25.206736 -0.048509
v -2.928515 27.570091 -0.042243
vt 0.307196 0.491356
vt 0.307196 0.491356
vt 0.307196 0.491356
vt 0.307196 0.491356
vt 0.307196 0.491356
vt 0.307196 0.491356
vt 0.307196 0.491356
vt 0.307196 0.491356
vt 0.307196 0.491356
vt 0.307196 0.491356
vt 0.307196 0.491356
vt 0.307196 0.491356
vt 0.307196 0.491356
vt 0.307196 0.491356
vt 0.307196 0.491356
vt 0.307196 0.491356
vt 0.307196 0.491356
vt 0.307196 0.491356
vt 0.307196 0.491356
vt 0.307196 0.491356
vt 0.307196 0.491356
vt 0.307196 0.491356
vt 0.307196 0.491356
vt 0.307196 0.491356
vt 0.307196 0.491356
vt 0.307196 0.491356
vt 0.307196 0.491356
vt 0.307196 0.491356
vt 0.307196 0.491356
vt 0.307196 0.491356
vt 0.307196 0.491356
vt 0.307196 0.491356
vt 0.307196 0.491356
vt 0.307196 0.491356
vt 0.307196 0.491356
vt 0.307196 0.491356
vt 0.307196 0.491356
vt 0.307196 0.491356
vt 0.307196 0.491356
vt 0.307196 0.491356
vt 0.307196 0.491356
vt 0.307196 0.491356
vt 0.421398 0.010506
vt 0.421398 0.010506
vt 0.421398 0.010506
vt 0.421398 0.010506
vt 0.307196 0.491356
vt 0.307196 0.491356
vt 0.307196 0.491356
vt 0.307196 0.491356
vt 0.307196 0.491356
vt 0.307196 0.491356
vt 0.307196 0.491356
vt 0.307196 0.491356
vt 0.081046 0.252432
vt 0.081047 0.252432
vt 0.081047 0.252432
vt 0.081046 0.252432
vt 0.081046 0.252434
vt 0.081047 0.252434
vt 0.081047 0.252434
vt 0.081046 0.252434
vt 0.081047 0.252434
vt 0.081047 0.252434
vt 0.081046 0.252434
vt 0.081046 0.252434
vt 0.081047 0.252432
vt 0.081047 0.252434
vt 0.307196 0.491356
vt 0.081047 0.252434
vt 0.307196 0.491356
vt 0.307196 0.491356
vt 0.081047 0.252434
vt 0.307196 0.491356
vt 0.081047 0.252434
vt 0.081047 0.252432
vt 0.307196 0.491356
vt 0.307196 0.491356
vt 0.307196 0.491356
vt 0.307196 0.491356
vt 0.421398 0.010506
vt 0.307196 0.491356
vt 0.307196 0.491356
vt 0.421398 0.010506
vt 0.307196 0.491356
vt 0.307196 0.491356
vt 0.307196 0.491356
vt 0.307196 0.491356
vt 0.307196 0.491356
vt 0.307196 0.491356
vt 0.307196 0.491356
vt 0.307196 0.491356
vt 0.307196 0.491356
vt 0.307196 0.491356
vt 0.307196 0.491356
vt 0.307196 0.491356
vt 0.307196 0.491356
vn -0.957692 0.000000 -0.287797
vn -0.957692 0.000000 -0.287797
vn -0.957692 0.000000 -0.287797
vn -0.957692 0.000000 -0.287797
vn 0.000000 1.000000 0.000000
vn 0.000000 1.000000 0.000000
vn 0.000000 1.000000 0.000000
vn 0.000000 1.000000 0.000000
vn 0.980371 0.000000 -0.197162
vn 0.980371 0.000000 -0.197162
vn 0.980371 0.000000 -0.197162
vn 0.980371 0.000000 -0.197162
vn 0.000000 -1.000000 0.000000
vn 0.000000 -1.000000 0.000000
vn 0.000000 -1.000000 0.000000
vn 0.000000 -1.000000 0.000000
vn 0.000000 0.000000 1.000000
vn 0.000000 0.000000 1.000000
vn 0.000000 0.000000 1.000000
vn 0.000000 0.000000 1.000000
vn -0.000000 0.000000 -1.000000
vn -0.000000 0.000000 -1.000000
vn -0.000000 0.000000 -1.000000
vn -0.000000 0.000000 -1.000000
vn -0.793238 -0.560313 -0.238376
vn -0.793238 -0.560313 -0.238376
vn -0.793238 -0.560313 -0.238376
vn -0.793238 -0.560313 -0.238376
vn 0.000000 -0.707107 0.707107
vn 0.000000 -0.707107 0.707107
vn 0.000000 -0.707107 0.707107
vn 0.000000 -0.707107 0.707107
vn 0.793238 -0.560313 -0.238376
vn 0.793238 -0.560313 -0.238376
vn 0.793238 -0.560313 -0.238376
vn 0.793238 -0.560313 -0.238376
vn 0.000000 -0.707107 -0.707107
vn 0.000000 -0.707107 -0.707107
vn 0.000000 -0.707107 -0.707107
vn 0.000000 -0.707107 -0.707107
vn 0.793238 0.560313 -0.238377
vn 0.793238 0.560313 -0.238377
vn 0.793238 0.560313 -0.238377
vn 0.793238 0.560313 -0.238377
vn 0.000000 0.707107 0.707107
vn 0.000000 0.707107 0.707107
vn 0.000000 0.707107 0.707107
vn 0.000000 0.707107 0.707107
vn -0.793238 0.560312 -0.238377
vn -0.793238 0.560312 -0.238377
vn -0.793238 0.560312 -0.238377
vn -0.793238 0.560312 -0.238377
vn 0.000000 0.707107 -0.707107
vn 0.000000 0.707107 -0.707107
vn 0.000000 0.707107 -0.707107
vn 0.000000 0.707107 -0.707107
vn -0.957692 0.000000 -0.287797
vn -0.957692 0.000000 -0.287797
vn -0.957692 0.000000 -0.287797
vn -0.957692 0.000000 -0.287797
vn 0.000000 0.000000 1.000000
vn 0.000000 0.000000 1.000000
vn 0.000000 0.000000 1.000000
vn 0.000000 0.000000 1.000000
vn 0.957691 0.000000 -0.287797
vn 0.957691 0.000000 -0.287797
vn 0.957691 0.000000 -0.287797
vn 0.957691 0.000000 -0.287797
vn -0.000000 0.000000 -1.000000
vn -0.000000 0.000000 -1.000000
vn -0.000000 0.000000 -1.000000
vn -0.000000 0.000000 -1.000000
vn 0.957692 0.000000 -0.287797
vn 0.957691 0.000000 -0.287797
vn 0.957692 0.000000 -0.287797
vn 0.957692 0.000000 -0.287797
vn 0.000000 0.000000 1.000000
vn 0.000000 0.000000 1.000000
vn 0.000000 0.000000 1.000000
vn 0.000000 0.000000 1.000000
vn -0.957692 0.000000 -0.287797
vn -0.957692 0.000000 -0.287797
vn -0.957692 0.000000 -0.287797
vn -0.957692 0.000000 -0.287797
vn 0.000000 0.000000 -1.000000
vn 0.000000 0.000000 -1.000000
vn 0.000000 0.000000 -1.000000
vn 0.000000 0.000000 -1.000000
vn -0.723778 0.666731 -0.177807
vn -0.723778 0.666731 -0.177807
vn -0.723778 0.666731 -0.177807
vn -0.723778 0.666731 -0.177807
vn 0.000000 0.394440 0.918922
vn 0.000000 0.394440 0.918922
vn 0.000000 0.394440 0.918922
vn 0.000000 0.394440 0.918922
vn 0.723778 0.666731 -0.177807
vn 0.723778 0.666731 -0.177807
vn 0.723778 0.666731 -0.177807
vn 0.723778 0.666731 -0.177807
vn 0.000000 0.394440 -0.918922
vn 0.000000 0.394440 -0.918922
vn 0.000000 0.394440 -0.918922
vn 0.000000 0.394440 -0.918922
vn 0.412998 -0.905063 -0.101459
vn 0.412998 -0.905063 -0.101459
vn 0.412998 -0.905063 -0.101459
vn 0.412998 -0.905063 -0.101459
vn 0.000000 -0.714466 0.699670
vn 0.000000 -0.714466 0.699670
vn 0.000000 -0.714466 0.699670
vn 0.000000 -0.714466 0.699670
vn -0.412998 -0.905063 -0.101459
vn -0.412998 -0.905063 -0.101459
vn -0.412998 -0.905063 -0.101459
vn -0.412998 -0.905063 -0.101459
vn 0.000000 -0.714466 -0.699670
vn 0.000000 -0.714466 -0.699670
vn 0.000000 -0.714466 -0.699670
vn 0.000000 -0.714466 -0.699670
vn 0.959367 0.142098 -0.243768
vn 0.959367 0.142098 -0.243768
vn 0.959367 0.142098 -0.243768
vn 0.959367 0.142098 -0.243768
vn 0.708130 0.000000 0.706082
vn 0.708130 0.000000 0.706082
vn 0.708130 0.000000 0.706082
vn 0.708130 0.000000 0.706082
vn 0.963716 -0.106249 -0.244873
vn 0.963716 -0.106249 -0.244873
vn 0.963716 -0.106249 -0.244873
vn 0.963716 -0.106249 -0.244873
vn 0.708130 0.000000 -0.706082
vn 0.708130 0.000000 -0.706082
vn 0.708130 0.000000 -0.706082
vn 0.708130 0.000000 -0.706082
vn -0.303941 0.946918 -0.104724
vn -0.303941 0.946918 -0.104724
vn -0.303941 0.946918 -0.104724
vn -0.537276 0.837676 -0.098151
vn -0.537276 0.837676 -0.098151
vn -0.537276 0.837676 -0.098151
vn -0.299950 0.948121 0.105336
vn -0.299950 0.948121 0.105336
vn -0.299950 0.948121 0.105336
vn 0.000000 0.989562 0.144111
vn 0.000000 0.989562 0.144111
vn 0.000000 0.989562 0.144111
vn 0.000000 0.989562 0.144111
vn 0.303941 0.946918 -0.104725
vn 0.303941 0.946918 -0.104725
vn 0.303941 0.946918 -0.104725
vn 0.544900 0.832717 0.098321
vn 0.544900 0.832717 0.098321
vn 0.544900 0.832717 0.098321
vn 0.299951 0.948121 0.105335
vn 0.299951 0.948121 0.105335
vn 0.299951 0.948121 0.105335
vn 0.000000 0.989562 -0.144111
vn 0.000000 0.989562 -0.144111
vn 0.000000 0.989562 -0.144111
vn 0.000000 0.989562 -0.144111
vn -0.945452 0.000000 -0.325762
vn -0.945452 0.000000 -0.325762
vn -0.945452 0.000000 -0.325762
vn -0.945452 0.000000 -0.325762
vn 0.000000 0.000000 1.000000
vn 0.000000 0.000000 1.000000
vn 0.000000 0.000000 1.000000
vn 0.000000 0.000000 1.000000
vn 0.945452 -0.000000 -0.325762
vn 0.945452 -0.000000 -0.325762
vn 0.945452 -0.000000 -0.325762
vn 0.945452 -0.000000 -0.325762
vn -0.000000 0.000000 -1.000000
vn -0.000000 0.000000 -1.000000
vn -0.000000 0.000000 -1.000000
vn -0.000000 0.000000 -1.000000
vn 0.000000 -1.000000 -0.000001
vn 0.000000 -1.000000 -0.000001
vn 0.000000 -1.000000 -0.000001
vn 0.000000 -1.000000 -0.000001
vn 0.000000 -1.000000 -0.000003
vn 0.000000 -1.000000 -0.000003
vn 0.000000 -1.000000 -0.000003
vn 0.000000 -1.000000 -0.000003
vn 0.000000 -1.000000 0.000000
vn 0.000000 -1.000000 0.000000
vn 0.000000 -1.000000 0.000000
vn 0.000000 -1.000000 0.000000
vn 0.000000 -1.000000 0.000003
vn 0.000000 -1.000000 0.000003
vn 0.000000 -1.000000 0.000003
vn 0.000000 -1.000000 0.000003
vn -0.945452 0.000000 -0.325762
vn -0.945452 0.000000 -0.325762
vn -0.945452 0.000000 -0.325762
vn -0.945452 0.000000 -0.325762
vn 0.000000 0.000000 1.000000
vn 0.000000 0.000000 1.000000
vn 0.000000 0.000000 1.000000
vn 0.000000 0.000000 1.000000
vn 0.945452 0.000000 -0.325762
vn 0.945452 0.000000 -0.325762
vn 0.945452 0.000000 -0.325762
vn 0.945452 0.000000 -0.325762
vn -0.000000 0.000000 -1.000000
vn -0.000000 0.000000 -1.000000
vn -0.000000 0.000000 -1.000000
vn -0.000000 0.000000 -1.000000
vn 0.943512 0.000000 0.331339
vn 0.943512 0.000000 0.331339
vn 0.943512 0.000000 0.331339
vn 0.943512 0.000000 0.331339
vn 0.000000 -1.000000 0.000001
vn 0.000000 -1.000000 0.000001
vn 0.000000 -1.000000 0.000001
vn 0.000000 -1.000000 0.000001
vn 0.943512 0.000000 0.331339
vn 0.943512 0.000000 0.331339
vn 0.943512 0.000000 0.331339
vn 0.943512 0.000000 0.331339
vn -0.943512 -0.000000 0.331339
vn -0.943512 -0.000000 0.331339
vn -0.943512 -0.000000 0.331339
vn -0.943512 -0.000000 0.331339
vn 0.000000 -1.000000 0.000002
vn 0.000000 -1.000000 0.000002
vn 0.000000 -1.000000 0.000002
vn 0.000000 -1.000000 0.000002
vn -0.943512 0.000000 0.331339
vn -0.943512 0.000000 0.331339
vn -0.943512 0.000000 0.331339
vn -0.943512 0.000000 0.331339
vn 0.000000 1.000000 -0.000001
vn 0.000000 1.000000 -0.000001
vn 0.000000 1.000000 -0.000001
vn 0.000000 1.000000 -0.000001
vn 0.724510 0.666467 0.175802
vn 0.724510 0.666467 0.175802
vn 0.724510 0.666467 0.175802
vn 0.724510 0.666467 0.175802
vn 0.958661 0.000000 0.284551
vn 0.958661 0.000000 0.284551
vn 0.958661 0.000000 0.284551
vn 0.958661 0.000000 0.284551
vn 0.795092 -0.558688 0.236000
vn 0.795092 -0.558688 0.236000
vn 0.795092 -0.558688 0.236000
vn 0.795092 -0.558688 0.236000
vn 0.959900 0.143373 0.240908
vn 0.959900 0.143373 0.240908
vn 0.959900 0.143373 0.240909
vn 0.959900 0.143373 0.240908
vn 0.980836 0.000000 0.194833
vn 0.980836 0.000000 0.194833
vn 0.980836 0.000000 0.194833
vn 0.980836 0.000000 0.194833
vn 0.964330 -0.107212 0.242020
vn 0.964330 -0.107212 0.242020
vn 0.964330 -0.107212 0.242020
vn 0.964330 -0.107212 0.242020
vn 0.795092 0.558688 0.236000
vn 0.795092 0.558688 0.236000
vn 0.795092 0.558688 0.236000
vn 0.795092 0.558688 0.236000
vn 0.958661 0.000000 0.284550
vn 0.958661 0.000000 0.284550
vn 0.958661 0.000000 0.284551
vn 0.958661 0.000000 0.284550
vn 0.413526 -0.904946 0.100341
vn 0.413526 -0.904946 0.100341
vn 0.413526 -0.904946 0.100341
vn 0.413526 -0.904946 0.100341
vn 0.000000 -1.000000 0.000000
vn 0.000000 -1.000000 0.000000
vn 0.000000 -1.000000 0.000000
vn 0.000000 -1.000000 0.000000
vn -0.413526 -0.904946 0.100341
vn -0.413526 -0.904946 0.100341
vn -0.413526 -0.904946 0.100341
vn -0.413526 -0.904946 0.100341
vn -0.958661 0.000000 0.284551
vn -0.958661 0.000000 0.284551
vn -0.958661 0.000000 0.284551
vn -0.958661 0.000000 0.284551
vn -0.795092 0.558688 0.236000
vn -0.795092 0.558688 0.236000
vn -0.795092 0.558688 0.236000
vn -0.795092 0.558688 0.236000
vn -0.958661 0.000000 0.284551
vn -0.958661 0.000000 0.284551
vn -0.958661 0.000000 0.284551
vn -0.958661 0.000000 0.284551
vn -0.795092 -0.558688 0.236000
vn -0.795092 -0.558689 0.236000
vn -0.795092 -0.558689 0.236000
vn -0.795092 -0.558688 0.236000
vn -0.958661 0.000000 0.284551
vn -0.958661 0.000000 0.284551
vn -0.958661 0.000000 0.284551
vn -0.958661 0.000000 0.284551
vn -0.724510 0.666467 0.175801
vn -0.724510 0.666467 0.175801
vn -0.724510 0.666467 0.175801
vn -0.724510 0.666467 0.175801
vn 0.537276 0.837676 -0.098151
vn 0.537276 0.837676 -0.098151
vn 0.537276 0.837676 -0.098151
vn -0.544900 0.832717 0.098321
vn -0.544900 0.832717 0.098321
vn -0.544900 0.832717 0.098321
s off
f 3/3/1 1/1/2 74/92/3 75/94/4
f 49/55/5 60/76/6 53/67/7 52/58/8
f 36/46/9 33/43/10 65/81/11 66/84/12
f 32/38/13 29/35/14 70/88/15 71/89/16
f 2/2/17 8/11/18 6/12/19 4/4/20
f 7/13/21 1/1/22 3/3/23 5/14/24
f 9/15/25 3/3/26 75/94/27 76/95/28
f 4/4/29 6/6/30 11/17/31 10/16/32
f 5/5/33 12/18/34 63/79/35 64/80/36
f 5/5/37 3/3/38 9/15/39 12/18/40
f 13/19/41 7/7/42 67/85/43 68/86/44
f 8/8/45 2/10/46 15/21/47 14/20/48
f 1/9/49 16/22/50 73/91/51 74/93/52
f 1/9/53 7/7/54 13/19/55 16/22/56
f 17/23/57 9/15/58 76/95/59 77/96/60
f 10/16/61 11/17/62 19/25/63 18/24/64
f 12/18/65 20/26/66 62/78/67 63/79/68
f 12/18/69 9/15/70 17/23/71 20/26/72
f 21/27/73 13/19/74 68/86/75 69/87/76
f 14/20/77 15/21/78 23/29/79 22/28/80
f 16/22/81 24/30/82 72/90/83 73/91/84
f 16/22/85 13/19/86 21/27/87 24/30/88
f 25/31/89 17/23/90 77/96/91 78/97/92
f 18/24/93 19/25/94 27/33/95 26/32/96
f 20/26/97 28/34/98 61/77/99 62/78/100
f 20/26/101 17/23/102 25/31/103 28/34/104
f 29/35/105 21/27/106 69/87/107 70/88/108
f 22/28/109 23/29/110 31/37/111 30/36/112
f 24/30/113 32/38/114 71/89/115 72/90/116
f 24/30/117 21/27/118 29/35/119 32/38/120
f 33/39/121 5/5/122 64/80/123 65/82/124
f 6/6/125 8/8/126 35/41/127 34/40/128
f 7/7/129 36/42/130 66/83/131 67/85/132
f 7/7/133 5/5/134 33/39/135 36/42/136
f 37/47/137 25/31/138 57/72/139
f 25/31/140 78/97/141 57/72/142
f 57/72/143 26/32/144 38/48/145
f 26/32/146 27/33/147 39/49/148 38/48/149
f 40/50/150 56/71/151 28/34/152
f 61/77/153 56/71/154 27/33/155
f 56/71/156 39/49/157 27/33/158
f 28/34/159 25/31/160 37/47/161 40/50/162
f 37/47/163 57/72/164 58/74/165 41/51/166
f 38/48/167 39/49/168 43/53/169 42/52/170
f 56/71/171 40/50/172 44/54/173 55/69/174
f 40/50/175 37/47/176 41/51/177 44/54/178
f 41/59/179 58/73/180 59/75/181 45/62/182
f 42/60/183 43/63/184 47/64/185 46/61/186
f 55/70/187 44/65/188 48/66/189 54/68/190
f 44/65/191 41/59/192 45/62/193 48/66/194
f 45/62/195 59/75/196 60/76/197 49/55/198
f 46/61/199 47/64/200 51/57/201 50/56/202
f 54/68/203 48/66/204 52/58/205 53/67/206
f 48/66/207 45/62/208 49/55/209 52/58/210
f 47/64/211 54/68/212 53/67/213 51/57/214
f 43/63/215 55/70/216 54/68/217 47/64/218
f 39/49/219 56/71/220 55/69/221 43/53/222
f 58/74/223 57/72/224 38/48/225 42/52/226
f 59/75/227 58/73/228 42/60/229 46/61/230
f 60/76/231 59/75/232 46/61/233 50/56/234
f 53/67/235 60/76/236 50/56/237 51/57/238
f 62/78/239 61/77/240 27/33/241 19/25/242
f 63/79/243 62/78/244 19/25/245 11/17/246
f 64/80/247 63/79/248 11/17/249 6/6/250
f 65/82/251 64/80/252 6/6/253 34/40/254
f 66/84/255 65/81/256 34/44/257 35/45/258
f 67/85/259 66/83/260 35/41/261 8/8/262
f 68/86/263 67/85/264 8/8/265 14/20/266
f 69/87/267 68/86/268 14/20/269 22/28/270
f 70/88/271 69/87/272 22/28/273 30/36/274
f 71/89/275 70/88/276 30/36/277 31/37/278
f 72/90/279 71/89/280 31/37/281 23/29/282
f 73/91/283 72/90/284 23/29/285 15/21/286
f 74/93/287 73/91/288 15/21/289 2/10/290
f 75/94/291 74/92/292 2/2/293 4/4/294
f 76/95/295 75/94/296 4/4/297 10/16/298
f 77/96/299 76/95/300 10/16/301 18/24/302
f 78/97/303 77/96/304 18/24/305 26/32/306
f 28/34/307 56/71/308 61/77/309
f 57/72/310 78/97/311 26/32/312
