# This file uses meters as units for non-parametric coordinates.

v 2.871368 0.000000 -4.973389
v -2.871429 0.000000 -4.973389
v -5.742828 0.000000 0.000000
v -2.871429 0.000000 4.973389
v 2.871368 0.000000 4.973389
v 5.742767 0.000000 0.000000
v 1.123322 47.911995 -1.945618
v -1.123352 47.911995 -1.945618
v -2.246704 47.911995 0.000000
v -1.123352 47.911995 1.945648
v 1.123322 47.911995 1.945648
v 2.246643 47.911995 0.000000
v -0.000031 0.000000 0.000000
v -0.000031 47.911995 0.000000
v -1.575256 33.039253 2.728363
v 1.575226 33.039253 2.728363
v 3.150421 33.039253 0.000000
v 1.575226 33.039253 -2.728333
v -1.575226 33.039253 -2.728333
v -3.150452 33.039253 0.000000
v -3.535034 27.017532 6.122803
v 3.534973 27.017532 6.122803
v 7.069977 27.017532 0.000000
v 3.534973 27.017532 -6.122772
v -3.535034 27.017532 -6.122772
v -7.070038 27.017532 0.000000
v -3.535034 1.951479 6.122803
v 3.534973 1.951479 6.122803
v 7.069977 1.951479 0.000000
v 3.534973 1.951479 -6.122772
v -3.535034 1.951479 -6.122772
v -7.070038 1.951479 0.000000
v -1.228119 45.622276 -2.127197
v 1.228088 45.622276 -2.127197
v 2.456238 45.622276 0.000000
v 1.228088 45.622276 2.127197
v -1.228119 45.622276 2.127197
v -2.456268 45.622276 0.000000
v 1.469086 45.780518 -2.544678
v 2.938324 45.780518 0.000000
v 1.469086 45.780518 2.544678
v -1.469147 45.780518 2.544678
v -2.938385 45.780518 0.000000
v -1.469147 45.780518 -2.544678
v -1.410217 47.051567 -2.442627
v 1.410187 47.051567 -2.442627
v 2.820496 47.051567 0.000000
v 1.410187 47.051567 2.442627
v -1.410217 47.051567 2.442627
v -2.820526 47.051567 0.000000
v 7.069977 23.442234 0.000000
v 3.534973 23.442234 6.122803
v -3.535034 23.442234 6.122803
v -7.070038 23.442234 0.000000
v -3.535034 23.442234 -6.122772
v 3.534973 23.442234 -6.122772
v -3.535034 6.652582 -6.122772
v -7.070038 6.652582 0.000000
v -3.535034 6.652582 6.122803
v 3.534912 6.652582 6.122803
v 7.069977 6.652582 0.000000
v 3.534912 6.652582 -6.122772
v 5.302490 23.442234 3.061432
v 5.302490 6.652582 3.061432
v 5.302490 6.652582 -3.061432
v 5.302490 23.442234 -3.061432
v -5.302521 23.442234 -3.061432
v -5.302521 6.652582 -3.061432
v -5.302521 6.652582 3.061432
v -5.302521 23.442234 3.061432
v -2.712616 18.441940 6.122803
v 2.712524 18.441940 6.122803
v 2.712555 20.503241 6.122803
v -2.712616 20.503241 6.122803
v -1.443420 37.817245 -2.500061
v -2.886841 37.817245 0.000000
v -1.443451 37.817245 2.500092
v 1.443359 37.817245 2.500092
v 2.886780 37.817245 0.000000
v 1.443359 37.817245 -2.500061
vt 0.166240 0.252043
vt 0.166240 0.252043
vt 0.166240 0.252043
vt 0.166240 0.252043
vt 0.166240 0.252043
vt 0.166240 0.252043
vt 0.166240 0.252043
vt 0.166240 0.252043
vt 0.166240 0.252043
vt 0.166240 0.252043
vt 0.166240 0.252043
vt 0.166240 0.252043
vt 0.166240 0.252043
vt 0.092194 0.227989
vt 0.092194 0.227989
vt 0.092194 0.227989
vt 0.092194 0.227989
vt 0.092194 0.227989
vt 0.092194 0.227989
vt 0.092194 0.227989
vt 0.092194 0.227989
vt 0.092194 0.227989
vt 0.092194 0.227989
vt 0.092194 0.227989
vt 0.092194 0.227989
vt 0.092194 0.227989
vt 0.166240 0.252043
vt 0.092194 0.227989
vt 0.166240 0.252043
vt 0.166240 0.252043
vt 0.166240 0.252043
vt 0.166240 0.252043
vt 0.166240 0.252043
vt 0.166240 0.252043
vt 0.166240 0.252043
vt 0.166240 0.252043
vt 0.166240 0.252043
vt 0.166240 0.252043
vt 0.166240 0.252043
vt 0.166240 0.252043
vt 0.166240 0.252043
vt 0.166240 0.252043
vt 0.166240 0.252043
vt 0.166240 0.252043
vt 0.166240 0.252043
vt 0.166240 0.252043
vt 0.166240 0.252043
vt 0.166240 0.252043
vt 0.166240 0.252043
vt 0.186859 0.253500
vt 0.186859 0.253500
vt 0.186859 0.253500
vt 0.186859 0.253500
vt 0.186859 0.253500
vt 0.186859 0.253500
vt 0.186859 0.253500
vt 0.092194 0.227989
vt 0.092194 0.227989
vt 0.092194 0.227989
vt 0.092194 0.227989
vt 0.092194 0.227989
vt 0.092194 0.227989
vt 0.092194 0.227989
vt 0.092194 0.227989
vt 0.092194 0.227989
vt 0.092194 0.227989
vt 0.092194 0.227989
vt 0.166240 0.252043
vt 0.166240 0.252043
vt 0.166240 0.252043
vt 0.166240 0.252043
vt 0.166240 0.252043
vt 0.166240 0.252043
vt 0.166240 0.252043
vt 0.166240 0.252043
vt 0.166240 0.252043
vt 0.166240 0.252043
vt 0.166240 0.252043
vt 0.166240 0.252043
vt 0.166240 0.252043
vt 0.166240 0.252043
vt 0.166240 0.252043
vt 0.166240 0.252043
vt 0.166240 0.252043
vt 0.166240 0.252043
vt 0.166240 0.252043
vt 0.166240 0.252043
vt 0.166240 0.252043
vt 0.166240 0.252043
vt 0.186523 0.252741
vt 0.186523 0.252741
vt 0.186523 0.252743
vt 0.186523 0.252743
vt 0.186523 0.252741
vt 0.186523 0.252741
vt 0.186523 0.252743
vt 0.186523 0.252743
vt 0.186523 0.252741
vt 0.186523 0.252743
vt 0.186523 0.252743
vt 0.186523 0.252741
vt 0.186523 0.252741
vt 0.186523 0.252743
vt 0.186523 0.252743
vt 0.186523 0.252741
vt 0.186523 0.252741
vt 0.186523 0.252741
vt 0.186523 0.252743
vt 0.186523 0.252743
vt 0.418640 0.008892
vt 0.418640 0.008892
vt 0.418640 0.008892
vt 0.418640 0.008892
vt 0.166240 0.252043
vt 0.166240 0.252043
vt 0.166240 0.252043
vt 0.166240 0.252043
vt 0.166240 0.252043
vt 0.166240 0.252043
vt 0.166240 0.252043
vt 0.186859 0.253500
vt 0.186859 0.253500
vt 0.186859 0.253500
vt 0.186859 0.253500
vt 0.186859 0.253500
vn 0.000000 0.047718 -0.998861
vn 0.000000 0.047718 -0.998861
vn 0.000000 0.047718 -0.998861
vn 0.000000 0.047718 -0.998861
vn -0.865037 0.047721 -0.499433
vn -0.865037 0.047721 -0.499433
vn -0.865037 0.047721 -0.499433
vn -0.865037 0.047721 -0.499433
vn -0.865041 0.047724 0.499426
vn -0.865041 0.047724 0.499427
vn -0.865041 0.047724 0.499427
vn -0.865041 0.047724 0.499427
vn 0.000000 0.047722 0.998861
vn 0.000000 0.047722 0.998861
vn 0.000000 0.047722 0.998861
vn 0.000000 0.047722 0.998861
vn 0.865039 0.047718 0.499431
vn 0.865039 0.047718 0.499431
vn 0.865039 0.047718 0.499431
vn 0.865039 0.047718 0.499431
vn 0.865037 0.047717 -0.499433
vn 0.865037 0.047717 -0.499433
vn 0.865037 0.047717 -0.499433
vn 0.865037 0.047717 -0.499433
vn 0.000000 -1.000000 0.000000
vn 0.000000 -1.000000 0.000000
vn 0.000000 -1.000000 0.000000
vn 0.000000 -1.000000 0.000000
vn 0.000000 -1.000000 0.000000
vn 0.000000 -1.000000 0.000000
vn 0.000000 -1.000000 0.000000
vn 0.000000 -1.000000 0.000000
vn 0.000000 -1.000000 0.000000
vn 0.000000 -1.000000 0.000000
vn 0.000000 -1.000000 0.000000
vn 0.000000 -1.000000 0.000000
vn 0.000000 -1.000000 0.000000
vn 0.000000 -1.000000 0.000000
vn 0.000000 -1.000000 0.000000
vn 0.000000 -1.000000 0.000000
vn 0.000000 -1.000000 0.000000
vn 0.000000 -1.000000 0.000000
vn 0.000000 1.000000 0.000002
vn 0.000000 1.000000 0.000002
vn 0.000000 1.000000 0.000002
vn 0.000000 1.000000 -0.000002
vn 0.000000 1.000000 -0.000002
vn 0.000000 1.000000 -0.000002
vn 0.000000 1.000000 0.000003
vn 0.000000 1.000000 0.000003
vn 0.000000 1.000000 0.000003
vn 0.000000 1.000000 -0.000002
vn 0.000000 1.000000 -0.000002
vn 0.000000 1.000000 -0.000002
vn 0.000000 1.000000 0.000002
vn 0.000000 1.000000 0.000002
vn 0.000000 1.000000 0.000002
vn 0.000000 1.000000 -0.000003
vn 0.000000 1.000000 -0.000003
vn 0.000000 1.000000 -0.000003
vn 0.000000 0.491054 0.871129
vn 0.000000 0.491054 0.871129
vn 0.000000 0.491054 0.871129
vn 0.000000 0.491055 0.871129
vn 0.754421 0.491053 0.435563
vn 0.754421 0.491053 0.435563
vn 0.754421 0.491053 0.435563
vn 0.754421 0.491053 0.435563
vn 0.754420 0.491053 -0.435566
vn 0.754420 0.491053 -0.435566
vn 0.754420 0.491053 -0.435566
vn 0.754420 0.491053 -0.435566
vn 0.000000 0.491055 -0.871129
vn 0.000000 0.491055 -0.871129
vn 0.000000 0.491055 -0.871129
vn 0.000000 0.491055 -0.871129
vn -0.754417 0.491057 -0.435566
vn -0.754417 0.491057 -0.435566
vn -0.754417 0.491057 -0.435566
vn -0.754417 0.491057 -0.435566
vn -0.754420 0.491056 0.435563
vn -0.754420 0.491056 0.435563
vn -0.754420 0.491056 0.435563
vn -0.754420 0.491056 0.435563
vn 0.000000 0.000000 1.000000
vn 0.000000 0.000000 1.000000
vn 0.000000 0.000000 1.000000
vn 0.000000 0.000000 1.000000
vn 0.866029 0.000000 0.499993
vn 0.866029 0.000000 0.499993
vn 0.866029 0.000000 0.499993
vn 0.866029 0.000000 0.499993
vn 0.866029 0.000000 -0.499993
vn 0.866029 0.000000 -0.499993
vn 0.866029 0.000000 -0.499993
vn 0.866029 0.000000 -0.499993
vn 0.000000 0.000000 -1.000000
vn 0.000000 0.000000 -1.000000
vn 0.000000 0.000000 -1.000000
vn 0.000000 0.000000 -1.000000
vn -0.866026 0.000000 -0.500000
vn -0.866026 0.000000 -0.500000
vn -0.866026 0.000000 -0.500000
vn -0.866026 0.000000 -0.500000
vn -0.866026 0.000000 0.500000
vn -0.866026 0.000000 0.500000
vn -0.866026 0.000000 0.500000
vn -0.866026 0.000000 0.500000
vn 0.000000 -0.507507 0.861647
vn 0.000000 -0.507507 0.861647
vn 0.000000 -0.507507 0.861647
vn 0.000000 -0.507507 0.861647
vn 0.746210 -0.507503 0.430826
vn 0.746210 -0.507503 0.430826
vn 0.746210 -0.507503 0.430826
vn 0.746210 -0.507503 0.430826
vn 0.746211 -0.507501 -0.430827
vn 0.746211 -0.507501 -0.430827
vn 0.746211 -0.507501 -0.430827
vn 0.746211 -0.507501 -0.430827
vn 0.000000 -0.507497 -0.861653
vn 0.000000 -0.507497 -0.861653
vn 0.000000 -0.507497 -0.861653
vn 0.000000 -0.507497 -0.861653
vn -0.746211 -0.507501 -0.430827
vn -0.746211 -0.507501 -0.430827
vn -0.746211 -0.507501 -0.430827
vn -0.746211 -0.507501 -0.430827
vn -0.746210 -0.507503 0.430826
vn -0.746210 -0.507503 0.430826
vn -0.746210 -0.507503 0.430826
vn -0.746210 -0.507503 0.430826
vn 0.000000 -0.935083 -0.354428
vn 0.000000 -0.935083 -0.354428
vn 0.000000 -0.935083 -0.354428
vn 0.000000 -0.935083 -0.354428
vn 0.306949 -0.935080 -0.177222
vn 0.306949 -0.935080 -0.177222
vn 0.306949 -0.935080 -0.177222
vn 0.306949 -0.935080 -0.177222
vn 0.306949 -0.935080 0.177225
vn 0.306949 -0.935080 0.177225
vn 0.306949 -0.935079 0.177225
vn 0.306949 -0.935080 0.177225
vn 0.000000 -0.935085 0.354424
vn 0.000000 -0.935085 0.354424
vn 0.000000 -0.935085 0.354424
vn 0.000000 -0.935085 0.354424
vn -0.306932 -0.935088 0.177212
vn -0.306932 -0.935088 0.177212
vn -0.306932 -0.935088 0.177212
vn -0.306932 -0.935088 0.177212
vn -0.306932 -0.935087 -0.177214
vn -0.306932 -0.935087 -0.177214
vn -0.306932 -0.935087 -0.177214
vn -0.306932 -0.935087 -0.177214
vn 0.863239 0.080021 -0.498412
vn 0.863239 0.080021 -0.498412
vn 0.863239 0.080021 -0.498412
vn 0.863239 0.080021 -0.498412
vn 0.863239 0.080021 0.498413
vn 0.863239 0.080021 0.498413
vn 0.863239 0.080021 0.498413
vn 0.863239 0.080021 0.498413
vn 0.000000 0.080031 0.996792
vn 0.000000 0.080031 0.996792
vn 0.000000 0.080031 0.996792
vn 0.000000 0.080031 0.996792
vn -0.863237 0.080042 0.498412
vn -0.863237 0.080042 0.498412
vn -0.863237 0.080042 0.498412
vn -0.863237 0.080042 0.498412
vn -0.863238 0.080042 -0.498412
vn -0.863238 0.080042 -0.498412
vn -0.863238 0.080042 -0.498412
vn -0.863238 0.080042 -0.498412
vn 0.000000 0.080031 -0.996792
vn 0.000000 0.080031 -0.996792
vn 0.000000 0.080031 -0.996792
vn 0.000000 0.080031 -0.996792
vn 0.000000 0.500183 -0.865920
vn 0.000000 0.500183 -0.865920
vn 0.000000 0.500183 -0.865920
vn 0.000000 0.500183 -0.865920
vn 0.749924 0.500140 -0.432983
vn 0.749924 0.500140 -0.432983
vn 0.749924 0.500140 -0.432983
vn 0.749924 0.500140 -0.432983
vn 0.749928 0.500134 0.432983
vn 0.749928 0.500134 0.432983
vn 0.749928 0.500134 0.432983
vn 0.749928 0.500134 0.432983
vn 0.000000 0.500160 0.865933
vn 0.000000 0.500160 0.865933
vn 0.000000 0.500160 0.865933
vn 0.000000 0.500160 0.865933
vn -0.749931 0.500124 0.432989
vn -0.749931 0.500124 0.432989
vn -0.749931 0.500124 0.432989
vn -0.749931 0.500124 0.432989
vn -0.749927 0.500130 -0.432990
vn -0.749927 0.500130 -0.432990
vn -0.749927 0.500130 -0.432990
vn -0.749927 0.500130 -0.432990
vn 0.866029 0.000000 0.499993
vn 0.866029 0.000000 0.499993
vn 0.866029 0.000000 0.499993
vn 0.000000 0.000000 1.000000
vn 0.000000 0.000000 1.000000
vn 0.000000 0.000000 1.000000
vn 0.000000 0.000000 1.000000
vn -0.866026 0.000000 0.500000
vn -0.866025 0.000000 0.500000
vn -0.866025 0.000000 0.500000
vn -0.866025 0.000000 -0.500000
vn -0.866025 0.000000 -0.500000
vn -0.866026 0.000000 -0.500000
vn 0.000000 0.000000 -1.000000
vn 0.000000 0.000000 -1.000000
vn 0.000000 0.000000 -1.000000
vn 0.000000 0.000000 -1.000000
vn 0.866029 0.000000 -0.499993
vn 0.866029 0.000000 -0.499993
vn 0.866029 0.000000 -0.499993
vn -0.866026 0.000000 -0.500000
vn -0.866026 0.000000 -0.500000
vn -0.866026 0.000000 -0.500000
vn -0.866026 0.000000 0.500000
vn -0.866026 0.000000 0.500000
vn -0.866026 0.000000 0.500000
vn 0.000000 0.000000 1.000000
vn 0.000000 0.000000 1.000000
vn 0.000000 0.000000 1.000000
vn 0.000000 0.000000 1.000000
vn 0.866029 0.000000 0.499993
vn 0.866029 0.000000 0.499993
vn 0.866029 0.000000 0.499993
vn 0.866029 0.000000 -0.499993
vn 0.866029 0.000000 -0.499993
vn 0.866029 0.000000 -0.499993
vn 0.000000 0.000000 -1.000000
vn 0.000000 0.000000 -1.000000
vn 0.000000 0.000000 -1.000000
vn 0.000000 0.000000 -1.000000
vn 0.866024 0.000005 0.500002
vn 0.866024 0.000005 0.500002
vn 0.866024 0.000005 0.500002
vn 0.866024 0.000005 0.500002
vn 0.866018 -0.000002 0.500014
vn 0.866018 -0.000002 0.500014
vn 0.866018 -0.000002 0.500014
vn 0.866018 -0.000002 0.500014
vn 0.866022 -0.000000 0.500007
vn 0.866022 -0.000000 0.500007
vn 0.866021 -0.000000 0.500007
vn 0.866021 -0.000000 0.500007
vn 0.866020 -0.000001 -0.500009
vn 0.866020 -0.000001 -0.500009
vn 0.866020 -0.000001 -0.500009
vn 0.866020 -0.000001 -0.500009
vn 0.866015 -0.000002 -0.500017
vn 0.866015 -0.000002 -0.500017
vn 0.866015 -0.000002 -0.500017
vn 0.866015 -0.000002 -0.500017
vn 0.866023 0.000007 -0.500005
vn 0.866023 0.000007 -0.500005
vn 0.866023 0.000007 -0.500005
vn 0.866023 0.000007 -0.500005
vn -0.866024 0.000002 -0.500003
vn -0.866024 0.000002 -0.500003
vn -0.866024 0.000002 -0.500003
vn -0.866024 0.000002 -0.500003
vn -0.866023 0.000000 -0.500004
vn -0.866023 0.000000 -0.500004
vn -0.866023 0.000000 -0.500004
vn -0.866023 0.000000 -0.500004
vn -0.866024 -0.000001 -0.500003
vn -0.866024 -0.000001 -0.500003
vn -0.866024 -0.000001 -0.500003
vn -0.866024 -0.000001 -0.500003
vn -0.866025 -0.000000 0.500000
vn -0.866025 -0.000000 0.500000
vn -0.866025 -0.000000 0.500000
vn -0.866025 -0.000000 0.500000
vn -0.866025 0.000000 0.500001
vn -0.866025 0.000000 0.500001
vn -0.866025 0.000000 0.500001
vn -0.866025 0.000000 0.500001
vn -0.866025 0.000000 0.500000
vn -0.866025 0.000000 0.500000
vn -0.866025 0.000000 0.500000
vn -0.866025 0.000000 0.500000
vn 0.000000 0.000000 1.000000
vn 0.000000 0.000000 1.000000
vn 0.000000 0.000000 1.000000
vn 0.000000 0.000000 1.000000
vn -0.000001 0.000000 1.000000
vn -0.000001 0.000000 1.000000
vn -0.000001 0.000000 1.000000
vn -0.000001 0.000000 1.000000
vn 0.000000 0.000000 1.000000
vn 0.000000 0.000000 1.000000
vn 0.000000 0.000000 1.000000
vn 0.000000 0.000000 1.000000
vn 0.000000 0.000000 1.000000
vn 0.000000 0.000000 1.000000
vn 0.000000 0.000000 1.000000
vn 0.000000 0.000000 1.000000
vn -0.865036 0.047725 -0.499434
vn -0.865036 0.047725 -0.499434
vn -0.865036 0.047725 -0.499434
vn -0.865036 0.047725 -0.499434
vn -0.865043 0.047725 0.499422
vn -0.865043 0.047725 0.499422
vn -0.865043 0.047725 0.499422
vn -0.865043 0.047725 0.499422
vn 0.000000 0.047721 0.998861
vn 0.000000 0.047721 0.998861
vn 0.000000 0.047721 0.998861
vn 0.000000 0.047721 0.998861
vn 0.865041 0.047733 0.499426
vn 0.865041 0.047733 0.499426
vn 0.865041 0.047733 0.499426
vn 0.865041 0.047733 0.499426
vn 0.865038 0.047733 -0.499430
vn 0.865038 0.047733 -0.499430
vn 0.865038 0.047733 -0.499430
vn 0.865038 0.047733 -0.499430
vn 0.000000 0.047721 -0.998861
vn 0.000000 0.047721 -0.998861
vn 0.000000 0.047721 -0.998861
vn 0.000000 0.047721 -0.998861
s off
f 80/50/1 75/51/2 33/52/3 34/53/4
f 75/51/5 76/54/6 38/55/7 33/52/8
f 76/54/9 77/56/10 37/121/11 38/55/12
f 77/56/13 78/122/14 36/123/15 37/121/16
f 78/122/17 79/124/18 35/125/19 36/123/20
f 79/124/21 80/50/22 34/53/23 35/125/24
f 2/2/25 1/1/26 13/27/27
f 3/3/28 2/2/29 13/27/30
f 4/4/31 3/3/32 13/27/33
f 5/5/34 4/4/35 13/27/36
f 6/6/37 5/5/38 13/27/39
f 1/1/40 6/6/41 13/27/42
f 7/14/43 8/15/44 14/16/45
f 8/15/46 9/17/47 14/16/48
f 9/17/49 10/18/50 14/16/51
f 10/18/52 11/19/53 14/16/54
f 11/19/55 12/20/56 14/16/57
f 12/20/58 7/14/59 14/16/60
f 21/36/61 22/37/62 16/30/63 15/29/64
f 22/37/65 23/38/66 17/31/67 16/30/68
f 23/38/69 24/39/70 18/32/71 17/31/72
f 24/40/73 25/41/74 19/34/75 18/33/76
f 25/41/77 26/42/78 20/35/79 19/34/80
f 26/42/81 21/36/82 15/29/83 20/35/84
f 71/110/85 72/111/86 73/112/87 74/113/88
f 63/82/89 64/83/90 61/79/91 51/68/92
f 61/79/93 65/84/94 66/85/95 51/68/96
f 62/94/97 57/95/98 55/96/99 56/97/100
f 67/86/101 68/87/102 58/76/103 54/71/104
f 58/76/105 69/88/106 70/89/107 54/71/108
f 4/10/109 5/11/110 28/44/111 27/43/112
f 5/11/113 6/12/114 29/45/115 28/44/116
f 6/12/117 1/13/118 30/46/119 29/45/120
f 1/7/121 2/8/122 31/48/123 30/47/124
f 2/8/125 3/9/126 32/49/127 31/48/128
f 3/9/129 4/10/130 27/43/131 32/49/132
f 34/21/133 33/22/134 44/23/135 39/24/136
f 35/25/137 34/21/138 39/24/139 40/26/140
f 36/28/141 35/25/142 40/26/143 41/57/144
f 37/58/145 36/28/146 41/57/147 42/59/148
f 38/60/149 37/58/150 42/59/151 43/61/152
f 33/22/153 38/60/154 43/61/155 44/23/156
f 40/26/157 39/24/158 46/62/159 47/63/160
f 41/57/161 40/26/162 47/63/163 48/64/164
f 42/59/165 41/57/166 48/64/167 49/65/168
f 43/61/169 42/59/170 49/65/171 50/66/172
f 44/23/173 43/61/174 50/66/175 45/67/176
f 39/24/177 44/23/178 45/67/179 46/62/180
f 46/62/181 45/67/182 8/15/183 7/14/184
f 47/63/185 46/62/186 7/14/187 12/20/188
f 48/64/189 47/63/190 12/20/191 11/19/192
f 49/65/193 48/64/194 11/19/195 10/18/196
f 50/66/197 49/65/198 10/18/199 9/17/200
f 45/67/201 50/66/202 9/17/203 8/15/204
f 23/38/205 63/82/206 51/68/207
f 53/70/208 52/69/209 22/37/210 21/36/211
f 54/71/212 70/89/213 26/42/214
f 26/42/215 67/86/216 54/71/217
f 56/74/218 55/72/219 25/41/220 24/40/221
f 51/68/222 66/85/223 23/38/224
f 68/87/225 32/49/226 58/76/227
f 32/49/228 69/88/229 58/76/230
f 27/43/231 28/44/232 60/78/233 59/77/234
f 64/83/235 29/45/236 61/79/237
f 29/45/238 65/84/239 61/79/240
f 30/47/241 31/48/242 57/75/243 62/81/244
f 52/69/245 63/82/246 23/38/247 22/37/248
f 60/91/249 64/98/250 63/99/251 52/92/252
f 28/44/253 29/45/254 64/83/255 60/78/256
f 29/45/257 30/46/258 62/80/259 65/84/260
f 66/100/261 65/101/262 62/94/263 56/97/264
f 23/38/265 66/85/266 56/73/267 24/39/268
f 55/72/269 67/86/270 26/42/271 25/41/272
f 57/95/273 68/102/274 67/103/275 55/96/276
f 31/48/277 32/49/278 68/87/279 57/75/280
f 32/49/281 27/43/282 59/77/283 69/88/284
f 70/104/285 69/105/286 59/90/287 53/93/288
f 26/42/289 70/89/290 53/70/291 21/36/292
f 59/90/293 60/91/294 72/107/295 71/106/296
f 60/91/297 52/92/298 73/108/299 72/107/300
f 52/92/301 53/93/302 74/109/303 73/108/304
f 53/93/305 59/90/306 71/106/307 74/109/308
f 19/34/309 20/35/310 76/115/311 75/114/312
f 20/35/313 15/29/314 77/116/315 76/115/316
f 15/29/317 16/30/318 78/117/319 77/116/320
f 16/30/321 17/31/322 79/118/323 78/117/324
f 17/31/325 18/32/326 80/119/327 79/118/328
f 18/33/329 19/34/330 75/114/331 80/120/332
