# This file uses meters as units for non-parametric coordinates.

v 0.801453 -34.802444 0.463135
v 0.801453 -34.802444 -0.462646
v 0.000122 -34.802444 -0.925049
v -0.801331 -34.802444 -0.462646
v -0.801331 -34.802444 0.463135
v 0.000122 -34.802444 0.926270
v 2.041504 11.447960 1.178711
v 2.041504 11.447960 -1.177734
v 0.000122 11.447960 -2.356201
v -2.041504 11.447960 -1.177734
v -2.041504 11.447960 1.178711
v 0.000122 11.447960 2.357422
v 0.000122 -36.074516 0.000244
v 0.000122 11.447960 0.000244
v -0.801331 -12.387306 -0.462646
v -0.801331 -12.387306 0.463135
v 0.000122 -12.387306 0.926270
v 0.801453 -12.387306 0.463135
v 0.801453 -12.387306 -0.462646
v 0.000122 -12.387306 -0.925049
v 2.944336 -11.884666 -1.699951
v 2.944336 -11.884666 1.700928
v 0.000122 -11.884666 3.400635
v -2.944275 -11.884666 1.700928
v -2.944275 -11.884666 -1.699951
v 0.000122 -11.884666 -3.399658
v 2.944336 -9.123596 -1.699951
v 2.944336 -9.123596 1.700928
v 0.000122 -9.123596 3.400635
v -2.944275 -9.123596 1.700928
v -2.944275 -9.123596 -1.699951
v 0.000122 -9.123596 -3.399658
v 1.953613 -5.684204 -1.126709
v 1.953613 -5.684204 1.128662
v 0.000122 -5.684204 2.255859
v -1.953430 -5.684204 1.128662
v -1.953430 -5.684204 -1.126709
v 0.000122 -5.684204 -2.255615
v 3.091675 -2.692497 -1.784912
v 3.091675 -2.692497 1.785400
v 0.000122 -2.692497 3.570068
v -3.091675 -2.692497 1.785400
v -3.091675 -2.692497 -1.784912
v 0.000122 -2.692497 -3.569824
v 3.091675 9.893860 -1.784912
v 3.091675 9.893860 1.785400
v 0.000122 9.893860 3.570068
v -3.091675 9.893860 1.785400
v -3.091675 9.893860 -1.784912
v 0.000122 9.893860 -3.569824
v 2.439026 -1.164803 2.162354
v 0.652588 -1.164803 3.194092
v 2.439026 8.366158 2.162354
v 0.652588 8.366158 3.194092
v -3.091675 -1.164803 1.032471
v -3.091675 -1.164803 -1.030273
v -3.091675 8.366158 1.032471
v -3.091675 8.366158 -1.030273
v 0.652588 -1.164803 -3.193115
v 2.439087 -1.164803 -2.160889
v 0.652588 8.366158 -3.193115
v 2.439087 8.366158 -2.160889
v 2.449524 -11.347366 1.986572
v 0.494995 -11.347366 3.114746
v 2.449524 -9.660896 1.986572
v 0.494995 -9.660896 3.114746
v -2.944275 -11.347366 1.129639
v -2.944275 -11.347366 -1.128174
v -2.944275 -9.660896 1.129639
v -2.944275 -9.660896 -1.128174
v 0.494934 -11.347366 -3.114014
v 2.449524 -11.347366 -1.985107
v 0.494934 -9.660896 -3.114014
v 2.449524 -9.660896 -1.985107
vt 0.129638 0.305159
vt 0.129638 0.305159
vt 0.129638 0.305159
vt 0.129638 0.305159
vt 0.129638 0.305159
vt 0.129638 0.305159
vt 0.129638 0.305159
vt 0.129638 0.305159
vt 0.129638 0.305159
vt 0.129638 0.305159
vt 0.129638 0.305159
vt 0.129638 0.305159
vt 0.129638 0.305159
vt 0.218750 0.470810
vt 0.218750 0.470810
vt 0.218750 0.470810
vt 0.218750 0.470810
vt 0.218750 0.470810
vt 0.218750 0.470810
vt 0.218750 0.470810
vt 0.218750 0.470810
vt 0.218750 0.470810
vt 0.218750 0.470810
vt 0.218750 0.470810
vt 0.218750 0.470810
vt 0.218750 0.470810
vt 0.129638 0.305159
vt 0.218750 0.470810
vt 0.129638 0.305159
vt 0.129638 0.305159
vt 0.129638 0.305159
vt 0.129638 0.305159
vt 0.129638 0.305159
vt 0.129638 0.305159
vt 0.129638 0.305159
vt 0.218750 0.470810
vt 0.218750 0.470810
vt 0.218750 0.470810
vt 0.218750 0.470810
vt 0.218750 0.470810
vt 0.218750 0.470810
vt 0.218750 0.470810
vt 0.218750 0.470810
vt 0.218750 0.470810
vt 0.218750 0.470810
vt 0.218750 0.470810
vt 0.218750 0.470810
vt 0.218750 0.470810
vt 0.218750 0.470810
vt 0.218750 0.470810
vt 0.218750 0.470810
vt 0.218750 0.470810
vt 0.218750 0.470810
vt 0.218750 0.470810
vt 0.218750 0.470810
vt 0.218750 0.470810
vt 0.218750 0.470810
vt 0.218750 0.470810
vt 0.218750 0.470810
vt 0.218750 0.470810
vt 0.218750 0.470810
vt 0.218750 0.470810
vt 0.218750 0.470810
vt 0.218750 0.470810
vt 0.218750 0.470810
vt 0.218750 0.470810
vt 0.218750 0.470810
vt 0.218750 0.470810
vt 0.218750 0.470810
vt 0.218750 0.470810
vt 0.218750 0.470810
vt 0.218750 0.470810
vt 0.218750 0.470810
vt 0.218750 0.470810
vt 0.218750 0.470810
vt 0.218750 0.470810
vt 0.102295 0.229416
vt 0.102295 0.229416
vt 0.102295 0.229416
vt 0.102295 0.229416
vt 0.102295 0.229416
vt 0.102295 0.229416
vt 0.102295 0.229416
vt 0.102295 0.229416
vt 0.102295 0.229416
vt 0.102295 0.229416
vt 0.102295 0.229416
vt 0.102295 0.229416
vt 0.218750 0.470810
vt 0.218750 0.470810
vt 0.218750 0.470810
vt 0.218750 0.470810
vt 0.218750 0.470810
vt 0.218750 0.470810
vt 0.218750 0.470810
vt 0.218750 0.470810
vt 0.218750 0.470810
vt 0.218750 0.470810
vt 0.218750 0.470810
vt 0.218750 0.470810
vt 0.101318 0.231079
vt 0.101318 0.231079
vt 0.101318 0.231079
vt 0.101318 0.231079
vt 0.101318 0.231079
vt 0.101318 0.231079
vt 0.101318 0.231079
vt 0.101318 0.231079
vt 0.101318 0.231079
vt 0.101318 0.231079
vt 0.101318 0.231079
vt 0.101318 0.231079
vn 0.228364 -0.973576 0.000000
vn 0.228364 -0.973576 0.000000
vn 0.228364 -0.973576 0.000000
vn 0.228364 -0.973576 0.000000
vn 0.114160 -0.973579 -0.197765
vn 0.114160 -0.973579 -0.197765
vn 0.114160 -0.973579 -0.197765
vn 0.114160 -0.973579 -0.197765
vn -0.114152 -0.973580 -0.197768
vn -0.114152 -0.973580 -0.197768
vn -0.114152 -0.973580 -0.197768
vn -0.114152 -0.973580 -0.197768
vn -0.228358 -0.973577 0.000000
vn -0.228358 -0.973577 0.000000
vn -0.228358 -0.973577 0.000000
vn -0.228358 -0.973577 0.000000
vn -0.114176 -0.973582 0.197742
vn -0.114176 -0.973582 0.197742
vn -0.114176 -0.973582 0.197742
vn -0.114176 -0.973582 0.197742
vn 0.114183 -0.973582 0.197739
vn 0.114183 -0.973582 0.197739
vn 0.114183 -0.973582 0.197739
vn 0.114183 -0.973582 0.197739
vn 0.846114 -0.533002 0.000000
vn 0.846114 -0.533002 0.000000
vn 0.846114 -0.533002 0.000000
vn 0.422872 -0.533051 -0.732827
vn 0.422872 -0.533051 -0.732827
vn 0.422872 -0.533051 -0.732827
vn -0.422820 -0.533066 -0.732846
vn -0.422820 -0.533066 -0.732846
vn -0.422820 -0.533066 -0.732846
vn -0.846077 -0.533060 0.000000
vn -0.846077 -0.533060 0.000000
vn -0.846077 -0.533060 0.000000
vn -0.423275 -0.533217 0.732474
vn -0.423275 -0.533217 0.732474
vn -0.423275 -0.533217 0.732474
vn 0.423327 -0.533202 0.732455
vn 0.423327 -0.533202 0.732455
vn 0.423327 -0.533202 0.732455
vn 0.000000 1.000000 0.000000
vn 0.000000 1.000000 0.000000
vn 0.000000 1.000000 0.000000
vn 0.000000 1.000000 0.000000
vn 0.000000 1.000000 0.000000
vn 0.000000 1.000000 0.000000
vn 0.000000 1.000000 0.000000
vn 0.000000 1.000000 0.000000
vn 0.000000 1.000000 0.000000
vn 0.000000 1.000000 0.000000
vn 0.000000 1.000000 0.000000
vn 0.000000 1.000000 0.000000
vn 0.000000 1.000000 0.000000
vn 0.000000 1.000000 0.000000
vn 0.000000 1.000000 0.000000
vn 0.000000 1.000000 0.000000
vn 0.000000 1.000000 0.000000
vn 0.000000 1.000000 0.000000
vn -1.000000 0.000000 0.000000
vn -1.000000 0.000000 0.000000
vn -1.000000 0.000000 0.000000
vn -1.000000 0.000000 0.000000
vn -0.500337 0.000000 0.865831
vn -0.500337 0.000000 0.865831
vn -0.500337 0.000000 0.865831
vn -0.500337 0.000000 0.865831
vn 0.500394 0.000000 0.865798
vn 0.500394 0.000000 0.865798
vn 0.500394 0.000000 0.865798
vn 0.500394 0.000000 0.865798
vn 1.000000 0.000000 0.000000
vn 1.000000 0.000000 0.000000
vn 1.000000 0.000000 0.000000
vn 1.000000 0.000000 0.000000
vn 0.499801 0.000000 -0.866140
vn 0.499801 0.000000 -0.866140
vn 0.499801 0.000000 -0.866140
vn 0.499801 0.000000 -0.866140
vn -0.499743 0.000000 -0.866174
vn -0.499743 0.000000 -0.866174
vn -0.499743 0.000000 -0.866174
vn -0.499743 0.000000 -0.866174
vn 1.000000 0.000000 0.000000
vn 1.000000 0.000000 0.000000
vn 1.000000 0.000000 0.000000
vn 1.000000 0.000000 0.000000
vn 0.499909 0.000000 0.866078
vn 0.499909 0.000000 0.866078
vn 0.499909 0.000000 0.866078
vn 0.499909 0.000000 0.866078
vn -0.499947 0.000000 0.866056
vn -0.499947 0.000000 0.866056
vn -0.499947 0.000000 0.866056
vn -0.499947 0.000000 0.866056
vn -1.000000 0.000000 0.000000
vn -1.000000 0.000000 0.000000
vn -1.000000 0.000000 0.000000
vn -1.000000 0.000000 0.000000
vn -0.499947 0.000000 -0.866056
vn -0.499947 0.000000 -0.866056
vn -0.499947 0.000000 -0.866056
vn -0.499947 0.000000 -0.866056
vn 0.500141 0.000000 -0.865944
vn 0.500141 0.000000 -0.865944
vn 0.500141 0.000000 -0.865944
vn 0.500141 0.000000 -0.865944
vn 0.960928 0.276797 0.000000
vn 0.960928 0.276797 0.000000
vn 0.960928 0.276797 0.000000
vn 0.960928 0.276797 0.000000
vn 0.480347 0.276915 0.832217
vn 0.480347 0.276915 0.832217
vn 0.480347 0.276915 0.832217
vn 0.480347 0.276915 0.832217
vn -0.480328 0.276923 0.832225
vn -0.480328 0.276923 0.832225
vn -0.480328 0.276923 0.832225
vn -0.480328 0.276923 0.832225
vn -0.960919 0.276829 0.000000
vn -0.960919 0.276829 0.000000
vn -0.960919 0.276829 0.000000
vn -0.960919 0.276829 0.000000
vn -0.480542 0.276950 -0.832093
vn -0.480542 0.276950 -0.832093
vn -0.480542 0.276950 -0.832093
vn -0.480542 0.276950 -0.832093
vn 0.480561 0.276943 -0.832084
vn 0.480561 0.276943 -0.832084
vn 0.480561 0.276943 -0.832084
vn 0.480561 0.276943 -0.832084
vn 0.934658 -0.355549 0.000000
vn 0.934658 -0.355549 0.000000
vn 0.934658 -0.355549 0.000000
vn 0.934658 -0.355549 0.000000
vn 0.467227 -0.355521 0.809508
vn 0.467227 -0.355521 0.809508
vn 0.467227 -0.355521 0.809508
vn 0.467227 -0.355521 0.809508
vn -0.467203 -0.355534 0.809516
vn -0.467203 -0.355534 0.809516
vn -0.467203 -0.355534 0.809517
vn -0.467203 -0.355534 0.809516
vn -0.934639 -0.355599 0.000000
vn -0.934639 -0.355599 0.000000
vn -0.934639 -0.355599 0.000000
vn -0.934639 -0.355599 0.000000
vn -0.467405 -0.355707 -0.809324
vn -0.467405 -0.355707 -0.809324
vn -0.467405 -0.355707 -0.809324
vn -0.467405 -0.355707 -0.809324
vn 0.467429 -0.355694 -0.809316
vn 0.467429 -0.355694 -0.809316
vn 0.467429 -0.355694 -0.809316
vn 0.467429 -0.355694 -0.809316
vn 1.000000 0.000000 0.000000
vn 1.000000 0.000000 0.000000
vn 1.000000 0.000000 0.000000
vn 1.000000 0.000000 0.000000
vn 0.500123 0.000000 0.865954
vn 0.500123 0.000000 0.865954
vn 0.500123 0.000000 0.865954
vn 0.500123 0.000000 0.865954
vn -0.499920 0.000000 0.866072
vn -0.499920 0.000000 0.866072
vn -0.499920 0.000000 0.866072
vn -0.499920 0.000000 0.866072
vn -1.000000 0.000000 0.000000
vn -1.000000 0.000000 0.000000
vn -1.000000 0.000000 0.000000
vn -1.000000 0.000000 0.000000
vn -0.499971 0.000000 -0.866042
vn -0.499971 0.000000 -0.866042
vn -0.499971 0.000000 -0.866042
vn -0.499971 0.000000 -0.866042
vn 0.500287 0.000000 -0.865859
vn 0.500287 0.000000 -0.865859
vn 0.500287 0.000000 -0.865859
vn 0.500287 0.000000 -0.865859
vn 0.828563 0.559895 0.000000
vn 0.828563 0.559895 0.000000
vn 0.828563 0.559895 0.000000
vn 0.828563 0.559895 0.000000
vn 0.414248 0.559956 0.717528
vn 0.414248 0.559957 0.717528
vn 0.414248 0.559957 0.717528
vn 0.414248 0.559956 0.717528
vn -0.414219 0.559957 0.717545
vn -0.414219 0.559957 0.717545
vn -0.414219 0.559957 0.717545
vn -0.414219 0.559957 0.717545
vn -0.828563 0.559895 0.000000
vn -0.828563 0.559895 0.000000
vn -0.828563 0.559895 0.000000
vn -0.828563 0.559895 0.000000
vn -0.414140 0.560189 -0.717410
vn -0.414140 0.560189 -0.717410
vn -0.414140 0.560189 -0.717410
vn -0.414140 0.560189 -0.717410
vn 0.414170 0.560189 -0.717393
vn 0.414170 0.560189 -0.717393
vn 0.414170 0.560189 -0.717393
vn 0.414170 0.560189 -0.717393
vn 0.500013 -0.000247 0.866018
vn 0.500013 -0.000247 0.866018
vn 0.500013 -0.000247 0.866018
vn 0.500013 -0.000247 0.866018
vn 0.500145 0.000000 0.865942
vn 0.500145 0.000000 0.865941
vn 0.500145 0.000000 0.865942
vn 0.500145 0.000000 0.865941
vn 0.500013 0.000247 0.866018
vn 0.500013 0.000247 0.866018
vn 0.500013 0.000247 0.866018
vn 0.500013 0.000247 0.866018
vn 0.499278 0.000000 0.866442
vn 0.499278 0.000000 0.866442
vn 0.499278 0.000000 0.866442
vn 0.499278 0.000000 0.866442
vn -1.000000 0.000000 0.000000
vn -1.000000 0.000000 0.000000
vn -1.000000 0.000000 0.000000
vn -1.000000 0.000000 0.000000
vn -1.000000 0.000000 0.000000
vn -1.000000 0.000000 0.000000
vn -1.000000 0.000000 0.000000
vn -1.000000 0.000000 0.000000
vn -1.000000 0.000000 0.000000
vn -1.000000 0.000000 0.000000
vn -1.000000 0.000000 0.000000
vn -1.000000 0.000000 0.000000
vn -1.000000 0.000000 0.000000
vn -1.000000 0.000000 0.000000
vn -1.000000 0.000000 0.000000
vn -1.000000 0.000000 0.000000
vn 0.500106 0.000228 -0.865964
vn 0.500106 0.000228 -0.865964
vn 0.500106 0.000228 -0.865964
vn 0.500106 0.000228 -0.865964
vn 0.500008 0.000000 -0.866021
vn 0.500008 0.000000 -0.866021
vn 0.500008 0.000000 -0.866021
vn 0.500008 0.000000 -0.866021
vn 0.500106 -0.000228 -0.865964
vn 0.500106 -0.000228 -0.865964
vn 0.500106 -0.000228 -0.865964
vn 0.500106 -0.000228 -0.865964
vn 0.499208 0.000000 -0.866482
vn 0.499208 0.000000 -0.866482
vn 0.499208 0.000000 -0.866482
vn 0.499208 0.000000 -0.866482
vn 0.499946 0.000168 0.866057
vn 0.499946 0.000168 0.866057
vn 0.499946 0.000168 0.866057
vn 0.499946 0.000168 0.866057
vn 0.499954 0.000000 0.866052
vn 0.499954 0.000000 0.866052
vn 0.499953 0.000000 0.866052
vn 0.499953 0.000000 0.866052
vn 0.499946 -0.000168 0.866057
vn 0.499946 -0.000168 0.866057
vn 0.499946 -0.000168 0.866057
vn 0.499946 -0.000168 0.866057
vn 0.500228 0.000000 0.865894
vn 0.500228 0.000000 0.865894
vn 0.500228 0.000000 0.865894
vn 0.500228 0.000000 0.865894
vn -1.000000 0.000000 0.000000
vn -1.000000 0.000000 0.000000
vn -1.000000 0.000000 0.000000
vn -1.000000 0.000000 0.000000
vn -1.000000 0.000000 0.000000
vn -1.000000 0.000000 0.000000
vn -1.000000 0.000000 0.000000
vn -1.000000 0.000000 0.000000
vn -1.000000 0.000000 0.000000
vn -1.000000 0.000000 0.000000
vn -1.000000 0.000000 0.000000
vn -1.000000 0.000000 0.000000
vn -1.000000 0.000000 0.000000
vn -1.000000 0.000000 0.000000
vn -1.000000 0.000000 0.000000
vn -1.000000 0.000000 0.000000
vn 0.500038 0.000394 -0.866003
vn 0.500038 0.000394 -0.866003
vn 0.500038 0.000394 -0.866003
vn 0.500038 0.000394 -0.866003
vn 0.499953 0.000000 -0.866052
vn 0.499953 0.000000 -0.866052
vn 0.499953 0.000000 -0.866052
vn 0.499953 0.000000 -0.866052
vn 0.500038 -0.000393 -0.866003
vn 0.500038 -0.000393 -0.866003
vn 0.500038 -0.000393 -0.866003
vn 0.500038 -0.000393 -0.866003
vn 0.499312 0.000000 -0.866422
vn 0.499312 0.000000 -0.866422
vn 0.499312 0.000000 -0.866422
vn 0.499312 0.000000 -0.866422
s off
f 18/14/1 19/15/2 21/16/3 22/17/4
f 19/15/5 20/18/6 26/19/7 21/16/8
f 20/18/9 15/20/10 25/21/11 26/19/12
f 15/20/13 16/22/14 24/23/15 25/21/16
f 16/22/17 17/24/18 23/25/19 24/23/20
f 17/24/21 18/14/22 22/17/23 23/25/24
f 2/2/25 1/1/26 13/27/27
f 3/3/28 2/2/29 13/27/30
f 4/4/31 3/3/32 13/27/33
f 5/5/34 4/4/35 13/27/36
f 6/6/37 5/5/38 13/27/39
f 1/1/40 6/6/41 13/27/42
f 7/26/43 8/28/44 14/36/45
f 8/28/46 9/37/47 14/36/48
f 9/37/49 10/38/50 14/36/51
f 10/38/52 11/39/53 14/36/54
f 11/39/55 12/40/56 14/36/57
f 12/40/58 7/26/59 14/36/60
f 4/10/61 5/11/62 16/30/63 15/29/64
f 5/11/65 6/12/66 17/31/67 16/30/68
f 6/12/69 1/13/70 18/32/71 17/31/72
f 1/7/73 2/8/74 19/34/75 18/33/76
f 2/8/77 3/9/78 20/35/79 19/34/80
f 3/9/81 4/10/82 15/29/83 20/35/84
f 22/17/85 21/16/86 27/41/87 28/42/88
f 64/101/89 63/102/90 65/103/91 66/104/92
f 24/23/93 23/25/94 29/43/95 30/44/96
f 68/105/97 67/106/98 69/107/99 70/108/100
f 26/19/101 25/21/102 31/45/103 32/46/104
f 72/109/105 71/110/106 73/111/107 74/112/108
f 28/42/109 27/41/110 33/47/111 34/48/112
f 29/43/113 28/42/114 34/48/115 35/49/116
f 30/44/117 29/43/118 35/49/119 36/50/120
f 31/45/121 30/44/122 36/50/123 37/51/124
f 32/46/125 31/45/126 37/51/127 38/52/128
f 27/41/129 32/46/130 38/52/131 33/47/132
f 34/48/133 33/47/134 39/53/135 40/54/136
f 35/49/137 34/48/138 40/54/139 41/55/140
f 36/50/141 35/49/142 41/55/143 42/56/144
f 37/51/145 36/50/146 42/56/147 43/57/148
f 38/52/149 37/51/150 43/57/151 44/58/152
f 33/47/153 38/52/154 44/58/155 39/53/156
f 40/54/157 39/53/158 45/59/159 46/60/160
f 52/77/161 51/78/162 53/79/163 54/80/164
f 42/56/165 41/55/166 47/61/167 48/62/168
f 56/81/169 55/82/170 57/83/171 58/84/172
f 44/58/173 43/57/174 49/63/175 50/64/176
f 60/85/177 59/86/178 61/87/179 62/88/180
f 46/60/181 45/59/182 8/28/183 7/26/184
f 47/61/185 46/60/186 7/26/187 12/40/188
f 48/62/189 47/61/190 12/40/191 11/39/192
f 49/63/193 48/62/194 11/39/195 10/38/196
f 50/64/197 49/63/198 10/38/199 9/37/200
f 45/59/201 50/64/202 9/37/203 8/28/204
f 41/55/205 40/54/206 51/66/207 52/65/208
f 40/54/209 46/60/210 53/67/211 51/66/212
f 46/60/213 47/61/214 54/68/215 53/67/216
f 47/61/217 41/55/218 52/65/219 54/68/220
f 43/57/221 42/56/222 55/70/223 56/69/224
f 42/56/225 48/62/226 57/71/227 55/70/228
f 48/62/229 49/63/230 58/72/231 57/71/232
f 49/63/233 43/57/234 56/69/235 58/72/236
f 39/53/237 44/58/238 59/74/239 60/73/240
f 44/58/241 50/64/242 61/75/243 59/74/244
f 50/64/245 45/59/246 62/76/247 61/75/248
f 45/59/249 39/53/250 60/73/251 62/76/252
f 23/25/253 22/17/254 63/90/255 64/89/256
f 22/17/257 28/42/258 65/91/259 63/90/260
f 28/42/261 29/43/262 66/92/263 65/91/264
f 29/43/265 23/25/266 64/89/267 66/92/268
f 25/21/269 24/23/270 67/94/271 68/93/272
f 24/23/273 30/44/274 69/95/275 67/94/276
f 30/44/277 31/45/278 70/96/279 69/95/280
f 31/45/281 25/21/282 68/93/283 70/96/284
f 21/16/285 26/19/286 71/98/287 72/97/288
f 26/19/289 32/46/290 73/99/291 71/98/292
f 32/46/293 27/41/294 74/100/295 73/99/296
f 27/41/297 21/16/298 72/97/299 74/100/300
