# This file uses meters as units for non-parametric coordinates.

v 1.058502 14.469849 -1.165039
v -1.058655 14.469849 -1.165039
v 0.988739 16.317169 -1.053955
v -0.988892 16.317169 -1.053955
v -2.523346 8.418518 -1.528809
v 2.523254 8.418518 -1.528809
v 1.554504 18.181168 -0.941895
v -1.554596 18.181168 -0.941895
v 1.058502 14.469849 1.165527
v -1.058655 14.469849 1.165527
v 0.988739 16.317169 1.054443
v -0.988892 16.317169 1.054443
v -2.523346 8.418518 1.529297
v 2.523254 8.418518 1.529297
v 1.554504 18.181168 0.942383
v -1.554596 18.181168 0.942383
v -6.878876 -11.180374 0.000000
v 6.878754 -11.180374 0.000000
v 2.143158 3.847748 -1.298584
v 2.143158 3.847748 1.299072
v -2.143219 3.847748 1.299072
v -2.143219 3.847748 -1.298584
v -2.196014 2.129700 0.967529
v 2.196014 2.129700 0.967529
v 2.196014 2.129700 -0.967529
v -2.196014 2.129700 -0.967529
v -5.113281 -1.441986 -0.967529
v -5.113281 -1.441986 0.967529
v 5.113251 -1.441986 0.967529
v 5.113251 -1.441986 -0.967529
v -6.839722 -8.905624 -0.648193
v -6.839722 -8.905624 0.648193
v 6.839661 -8.905624 0.648193
v 6.839661 -8.905624 -0.648193
v 2.716156 2.736160 1.485840
v -2.716156 2.736160 1.485840
v -2.716156 2.736160 -1.485596
v 2.716156 2.736160 -1.485840
vt 0.112061 0.229858
vt 0.112061 0.229858
vt 0.112061 0.229858
vt 0.112061 0.229858
vt 0.146973 0.445663
vt 0.146973 0.445663
vt 0.146973 0.445663
vt 0.146973 0.445663
vt 0.146973 0.445663
vt 0.146973 0.445663
vt 0.146973 0.445663
vt 0.146973 0.445663
vt 0.112061 0.229858
vt 0.112061 0.229858
vt 0.112061 0.229858
vt 0.112061 0.229858
vt 0.146973 0.445663
vt 0.146973 0.445663
vt 0.146973 0.445663
vt 0.146973 0.445663
vt 0.146973 0.445663
vt 0.146973 0.445663
vt 0.146973 0.445663
vt 0.146973 0.445663
vt 0.133545 0.305450
vt 0.133545 0.305450
vt 0.146973 0.445663
vt 0.146973 0.445663
vt 0.146973 0.445663
vt 0.146973 0.445663
vt 0.146973 0.445663
vt 0.146973 0.445663
vt 0.146973 0.445663
vt 0.146973 0.445663
vt 0.134277 0.379669
vt 0.134277 0.379669
vt 0.134277 0.379669
vt 0.134277 0.379669
vt 0.133545 0.305450
vt 0.133545 0.305450
vt 0.146973 0.445663
vt 0.146973 0.445663
vt 0.146973 0.445663
vt 0.146973 0.445663
vt 0.133545 0.305450
vt 0.133545 0.305450
vt 0.133545 0.305450
vt 0.133545 0.305450
vt 0.133545 0.305450
vt 0.133545 0.305450
vt 0.133545 0.305450
vt 0.133545 0.305450
vt 0.133545 0.305450
vt 0.133545 0.305450
vt 0.133545 0.380356
vt 0.133545 0.380356
vt 0.133545 0.380356
vt 0.133545 0.380356
vt 0.133545 0.380356
vt 0.133545 0.380356
vt 0.134277 0.379669
vt 0.134277 0.379669
vt 0.134277 0.379669
vt 0.134277 0.379669
vt 0.134277 0.379669
vt 0.134277 0.379669
vt 0.134277 0.379669
vt 0.134277 0.379669
vn 0.000000 0.060024 -0.998197
vn 0.000000 0.060024 -0.998197
vn 0.000000 0.060024 -0.998197
vn 0.000000 0.060024 -0.998197
vn 0.000000 0.060006 -0.998198
vn 0.000000 0.060006 -0.998198
vn 0.000000 0.060006 -0.998198
vn 0.000000 0.060006 -0.998198
vn 0.000022 0.060014 -0.998197
vn 0.000022 0.060014 -0.998197
vn 0.000022 0.060014 -0.998197
vn 0.000022 0.060014 -0.998198
vn 0.000000 0.060010 -0.998198
vn 0.000000 0.060010 -0.998198
vn 0.000000 0.060010 -0.998198
vn 0.000000 0.060010 -0.998198
vn -0.000022 0.060014 -0.998197
vn -0.000022 0.060014 -0.998197
vn -0.000022 0.060014 -0.998198
vn -0.000022 0.060014 -0.998197
vn 0.000000 0.060024 0.998197
vn 0.000000 0.060024 0.998197
vn 0.000000 0.060024 0.998197
vn 0.000000 0.060024 0.998197
vn 0.000000 0.060006 0.998198
vn 0.000000 0.060006 0.998198
vn 0.000000 0.060006 0.998198
vn 0.000000 0.060006 0.998198
vn 0.000022 0.060014 0.998197
vn 0.000022 0.060014 0.998198
vn 0.000022 0.060014 0.998197
vn 0.000022 0.060014 0.998197
vn 0.000000 0.060010 0.998198
vn 0.000000 0.060010 0.998198
vn 0.000000 0.060010 0.998198
vn 0.000000 0.060010 0.998198
vn -0.000022 0.060014 0.998197
vn -0.000022 0.060014 0.998197
vn -0.000022 0.060014 0.998198
vn -0.000022 0.060014 0.998197
vn -0.759060 -0.651021 0.000000
vn -0.759060 -0.651021 0.000000
vn -0.759060 -0.651021 0.000000
vn -0.759060 -0.651021 0.000000
vn 0.000000 1.000000 0.000000
vn 0.000000 1.000000 0.000000
vn 0.000000 1.000000 0.000000
vn 0.000000 1.000000 0.000000
vn 0.759060 -0.651021 0.000000
vn 0.759060 -0.651021 0.000000
vn 0.759060 -0.651021 0.000000
vn 0.759060 -0.651021 0.000000
vn 0.000000 -0.649698 0.760193
vn 0.000000 -0.649698 0.760193
vn 0.000000 -0.649698 0.760193
vn 0.000000 -0.649698 0.760193
vn -0.000019 -0.649609 -0.760268
vn -0.000019 -0.649609 -0.760268
vn -0.000019 -0.649609 -0.760268
vn -0.000019 -0.649609 -0.760268
vn 0.996560 -0.082872 0.000000
vn 0.996560 -0.082872 0.000000
vn 0.996560 -0.082872 0.000000
vn 0.996560 -0.082872 0.000000
vn 0.000000 -0.050305 0.998734
vn 0.000000 -0.050305 0.998734
vn 0.000000 -0.050305 0.998734
vn 0.000000 -0.050305 0.998734
vn -0.996560 -0.082879 0.000000
vn -0.996560 -0.082879 0.000000
vn -0.996560 -0.082879 0.000000
vn -0.996560 -0.082879 0.000000
vn 0.000000 -0.050305 -0.998734
vn 0.000000 -0.050305 -0.998734
vn 0.000000 -0.050305 -0.998734
vn 0.000000 -0.050305 -0.998734
vn 0.000000 0.000000 1.000000
vn 0.000000 0.000000 1.000000
vn 0.000000 0.000000 1.000000
vn 0.000000 0.000000 1.000000
vn 0.774494 0.632581 0.000000
vn 0.774494 0.632581 0.000000
vn 0.774494 0.632581 0.000000
vn 0.774494 0.632581 0.000000
vn 0.000000 0.000000 -1.000000
vn 0.000000 0.000000 -1.000000
vn 0.000000 0.000000 -1.000000
vn 0.000000 0.000000 -1.000000
vn -0.774491 0.632585 0.000000
vn -0.774491 0.632585 0.000000
vn -0.774491 0.632585 0.000000
vn -0.774491 0.632585 0.000000
vn 0.995113 0.098745 0.000000
vn 0.995113 0.098745 0.000000
vn 0.995113 0.098745 0.000000
vn 0.995113 0.098745 0.000000
vn -0.995113 0.098745 0.000000
vn -0.995113 0.098745 0.000000
vn -0.995113 0.098745 0.000000
vn -0.995113 0.098745 0.000000
vn -0.974275 0.225363 0.000000
vn -0.974275 0.225363 0.000000
vn -0.974275 0.225363 0.000000
vn -0.974275 0.225363 0.000000
vn 0.000000 -0.042746 0.999086
vn 0.000000 -0.042746 0.999086
vn 0.000000 -0.042746 0.999086
vn 0.000000 -0.042746 0.999086
vn 0.974276 0.225359 0.000000
vn 0.974276 0.225359 0.000000
vn 0.974276 0.225359 0.000000
vn 0.974276 0.225359 0.000000
vn 0.000000 -0.042746 -0.999086
vn 0.000000 -0.042746 -0.999086
vn 0.000000 -0.042746 -0.999086
vn 0.000000 -0.042746 -0.999086
vn -0.999852 0.017210 0.000000
vn -0.999852 0.017210 0.000000
vn -0.999852 0.017210 0.000000
vn 0.000000 -0.274043 0.961717
vn 0.000000 -0.274043 0.961718
vn 0.000000 -0.274043 0.961717
vn 0.000000 -0.274043 0.961718
vn 0.999852 0.017183 0.000000
vn 0.999852 0.017183 0.000000
vn 0.999852 0.017183 0.000000
vn 0.000000 -0.274043 -0.961718
vn 0.000000 -0.274043 -0.961717
vn 0.000000 -0.274043 -0.961718
vn 0.000000 -0.274043 -0.961717
vn 0.000000 0.165696 0.986177
vn 0.000000 0.165696 0.986177
vn 0.000000 0.165696 0.986177
vn 0.000000 0.165696 0.986177
vn -0.888877 0.458147 0.000000
vn -0.888877 0.458147 0.000000
vn -0.888876 0.458147 0.000000
vn -0.888877 0.458147 0.000000
vn -0.000025 0.166012 -0.986124
vn -0.000025 0.166012 -0.986124
vn -0.000025 0.166012 -0.986124
vn -0.000025 0.166012 -0.986124
vn 0.888857 0.458185 0.000000
vn 0.888857 0.458185 0.000000
vn 0.888857 0.458185 0.000000
vn 0.888857 0.458185 0.000000
s off
f 2/1/1 4/4/2 3/3/3 1/2/4
f 5/5/5 2/8/6 1/7/7 6/6/8
f 6/6/9 1/7/10 3/10/11 7/9/12
f 7/9/13 3/10/14 4/12/15 8/11/16
f 8/11/17 4/12/18 2/8/19 5/5/20
f 10/13/21 9/14/22 11/15/23 12/16/24
f 13/17/25 14/18/26 9/19/27 10/20/28
f 14/18/29 15/21/30 11/22/31 9/19/32
f 15/21/33 16/23/34 12/24/35 11/22/36
f 16/23/37 13/17/38 10/20/39 12/24/40
f 26/35/41 23/36/42 36/37/43 37/38/44
f 8/29/45 16/30/46 15/31/47 7/32/48
f 38/61/49 35/62/50 24/63/51 25/64/52
f 23/36/53 24/63/54 35/62/55 36/37/56
f 25/64/57 26/35/58 37/38/59 38/61/60
f 6/41/61 14/42/62 20/34/63 19/33/64
f 21/27/65 20/34/66 14/42/67 13/43/68
f 22/28/69 21/27/70 13/43/71 5/44/72
f 19/33/73 22/28/74 5/44/75 6/41/76
f 28/47/77 29/48/78 24/39/79 23/26/80
f 25/40/81 24/39/82 29/48/83 30/49/84
f 30/49/85 27/50/86 26/25/87 25/40/88
f 27/50/89 28/47/90 23/26/91 26/25/92
f 7/32/93 15/31/94 14/42/95 6/41/96
f 5/44/97 13/43/98 16/30/99 8/29/100
f 31/51/101 32/52/102 28/47/103 27/50/104
f 32/52/105 33/53/106 29/48/107 28/47/108
f 30/49/109 29/48/110 33/53/111 34/54/112
f 34/54/113 31/51/114 27/50/115 30/49/116
f 17/46/117 32/52/118 31/51/119
f 17/55/120 18/56/121 33/57/122 32/58/123
f 34/54/124 33/53/125 18/45/126
f 18/56/127 17/55/128 31/59/129 34/60/130
f 36/37/131 35/62/132 20/65/133 21/66/134
f 37/38/135 36/37/136 21/66/137 22/67/138
f 38/61/139 37/38/140 22/67/141 19/68/142
f 19/68/143 20/65/144 35/62/145 38/61/146
