# This file uses meters as units for non-parametric coordinates.

v 2.371505 82.870529 -4.107565
v -2.371505 82.870529 -4.107565
v -4.743010 82.870529 -0.000001
v -2.371505 82.870529 4.107565
v 2.371505 82.870529 4.107565
v 4.743010 82.870529 -0.000000
v 2.371505 266.481018 -4.107565
v -2.371505 266.481018 -4.107565
v -4.743010 266.481018 -0.000001
v -2.371505 266.481018 4.107565
v 2.371505 266.481018 4.107565
v 4.743010 266.481018 -0.000000
v 5.778086 270.761871 -10.007977
v -5.778515 270.761871 -10.007978
v -11.556315 270.761871 -0.000002
v -5.778515 270.761871 10.007978
v 5.778086 270.761871 10.007978
v 11.556315 270.761871 -0.000000
v 5.778086 286.824432 -10.007977
v -5.778515 286.824432 -10.007978
v -11.556315 286.824432 -0.000002
v -5.778515 286.824432 10.007978
v 5.778086 286.824432 10.007978
v 11.556315 286.824432 -0.000000
v 15.831375 278.778839 -27.420807
v -15.833235 278.778839 -27.420807
v -31.663181 278.778839 -0.000005
v -15.833235 278.778839 27.420807
v 15.831375 278.778839 27.420807
v 31.662464 278.778839 0.000000
v 16.125917 281.645599 -27.930975
v -16.127800 281.645599 -27.930975
v -32.252266 281.645599 -0.000005
v -16.127800 281.645599 27.930975
v 16.125917 281.645599 27.930975
v 32.251549 281.645599 0.000000
v 6.319571 294.955078 -10.946012
v -6.320155 294.955078 -10.946012
v -12.639570 294.955078 -0.000002
v -6.320155 294.955078 10.946012
v 6.319571 294.955078 10.946012
v 12.639284 294.955078 -0.000000
v 6.319571 304.117188 -10.946012
v -6.320155 304.117188 -10.946012
v -0.000145 310.880493 -0.000000
v -12.639570 304.117188 -0.000002
v -6.320155 304.117188 10.946012
v 6.319571 304.117188 10.946012
v 12.639284 304.117188 -0.000000
v 4.459310 76.601318 -7.723927
v -4.459888 76.601318 -7.723928
v -8.918905 76.601318 -0.000002
v -4.459888 76.601318 7.723928
v 4.459310 76.601318 7.723928
v 8.918476 76.601318 -0.000000
v 4.459310 7.160282 -7.723927
v -4.459888 7.160282 -7.723928
v -8.918905 7.160282 -0.000002
v -4.459888 7.160282 7.723928
v 4.459310 7.160282 7.723928
v 8.918476 7.160282 -0.000000
v 6.005335 7.160282 -10.401773
v -6.005907 7.160282 -10.401773
v -12.011099 7.160282 -0.000002
v -6.005907 7.160282 10.401773
v 6.005335 7.160282 10.401773
v 12.010670 7.160282 -0.000000
v 6.005335 0.000000 -10.401773
v -6.005907 0.000000 -10.401773
v 0.000000 0.000000 0.000000
v -12.011099 0.000000 -0.000002
v -6.005907 0.000000 10.401773
v 6.005335 0.000000 10.401773
v 12.010670 0.000000 -0.000000
vt 0.089579 0.274179
vt 0.089580 0.274179
vt 0.089580 0.274179
vt 0.089580 0.274179
vt 0.089580 0.274179
vt 0.089580 0.274179
vt 0.090577 0.304088
vt 0.090577 0.304088
vt 0.090576 0.304088
vt 0.090577 0.304088
vt 0.090576 0.304088
vt 0.090576 0.304088
vt 0.090576 0.304088
vt 0.090577 0.304088
vt 0.090577 0.304088
vt 0.090576 0.304088
vt 0.090577 0.304088
vt 0.090576 0.304088
vt 0.090576 0.304088
vt 0.090576 0.304088
vt 0.089579 0.274179
vt 0.089580 0.274179
vt 0.089580 0.274179
vt 0.089580 0.274179
vt 0.089580 0.274179
vt 0.089580 0.274179
vt 0.081604 0.253242
vt 0.089580 0.274179
vt 0.089580 0.274179
vt 0.089580 0.274179
vt 0.089580 0.274179
vt 0.089580 0.274179
vt 0.089579 0.274179
vt 0.089580 0.274179
vt 0.089580 0.274179
vt 0.089580 0.274179
vt 0.089580 0.274179
vt 0.089580 0.274179
vt 0.089579 0.274179
vt 0.089580 0.274179
vt 0.089580 0.274179
vt 0.089580 0.274179
vt 0.089580 0.274179
vt 0.089580 0.274179
vt 0.089579 0.274179
vt 0.089580 0.274179
vt 0.089580 0.274179
vt 0.089580 0.274179
vt 0.089580 0.274179
vt 0.089580 0.274179
vt 0.089579 0.274179
vt 0.089580 0.274179
vt 0.089580 0.274179
vt 0.089580 0.274179
vt 0.089580 0.274179
vt 0.089580 0.274179
vt 0.089579 0.274179
vt 0.089580 0.274179
vt 0.089580 0.274179
vt 0.089580 0.274179
vt 0.089580 0.274179
vt 0.089580 0.274179
vt 0.089579 0.274179
vt 0.089580 0.274179
vt 0.089580 0.274179
vt 0.089579 0.274179
vt 0.089580 0.274179
vt 0.089580 0.274179
vt 0.089580 0.274179
vt 0.089580 0.274179
vt 0.081604 0.253242
vt 0.081604 0.253242
vt 0.081604 0.253242
vt 0.081604 0.253242
vt 0.081604 0.253242
vt 0.081604 0.253242
vt 0.081604 0.253242
vt 0.081604 0.253242
vt 0.081604 0.253242
vt 0.081604 0.253242
vt 0.081604 0.253242
vt 0.081604 0.253242
vt 0.081604 0.253242
vt 0.081604 0.253242
vt 0.081604 0.253242
vt 0.081604 0.253242
vt 0.081604 0.253242
vt 0.081604 0.253242
vt 0.547195 0.038891
vt 0.547195 0.038891
vt 0.547195 0.038891
vt 0.547195 0.038891
vt 0.547195 0.038891
vt 0.547195 0.038891
vt 0.547195 0.038891
vt 0.547195 0.038891
vt 0.547195 0.038891
vt 0.547195 0.038891
vt 0.547195 0.038891
vt 0.547195 0.038891
vt 0.090576 0.304088
vt 0.090576 0.304088
vt 0.090576 0.304088
vt 0.090576 0.304088
vt 0.090577 0.304088
vt 0.090577 0.304088
vt 0.090576 0.304088
vt 0.090576 0.304088
vt 0.090577 0.304088
vt 0.090577 0.304088
vt 0.081604 0.253242
vt 0.081604 0.253242
vt 0.081604 0.253242
vt 0.081604 0.253242
vt 0.081604 0.253242
vt 0.081604 0.253242
vt 0.081604 0.253242
vt 0.081604 0.253242
vt 0.081604 0.253242
vt 0.081604 0.253242
vt 0.081604 0.253242
vt 0.081604 0.253242
vt 0.081604 0.253242
vt 0.081604 0.253242
vt 0.081604 0.253242
vt 0.081604 0.253242
vt 0.081604 0.253242
vt 0.081604 0.253242
vt 0.081604 0.253242
vt 0.081604 0.253242
vt 0.081604 0.253242
vt 0.081604 0.253242
vt 0.081604 0.253242
vt 0.081604 0.253242
vt 0.081604 0.253242
vt 0.081604 0.253242
vt 0.081604 0.253242
vt 0.081604 0.253242
vt 0.081604 0.253242
vt 0.081604 0.253242
vt 0.081604 0.253242
vt 0.081604 0.253242
vt 0.081604 0.253242
vt 0.081604 0.253242
vt 0.081604 0.253242
vt 0.081604 0.253242
vt 0.081604 0.253242
vt 0.081604 0.253242
vt 0.081604 0.253242
vt 0.081604 0.253242
vt 0.081604 0.253242
vt 0.089580 0.274179
vt 0.081604 0.253242
vt 0.089580 0.274179
vt 0.081604 0.253242
vt 0.089580 0.274179
vt 0.081604 0.253242
vt 0.089580 0.274179
vt 0.081604 0.253242
vt 0.089580 0.274179
vt 0.081604 0.253242
vt 0.089579 0.274179
vt 0.081604 0.253242
vn 0.000000 0.000000 -1.000000
vn 0.000000 0.000000 -1.000000
vn 0.000000 0.000000 -1.000000
vn 0.000000 0.000000 -1.000000
vn -0.866025 0.000000 -0.500000
vn -0.866025 0.000000 -0.500000
vn -0.866025 0.000000 -0.500000
vn -0.866025 0.000000 -0.500000
vn -0.866025 0.000000 0.500000
vn -0.866025 0.000000 0.500000
vn -0.866025 0.000000 0.500000
vn -0.866025 0.000000 0.500000
vn 0.000000 0.000000 1.000000
vn 0.000000 0.000000 1.000000
vn 0.000000 0.000000 1.000000
vn 0.000000 0.000000 1.000000
vn 0.866025 0.000000 0.500000
vn 0.866025 0.000000 0.500000
vn 0.866025 0.000000 0.500000
vn 0.866025 0.000000 0.500000
vn 0.866025 0.000000 -0.500000
vn 0.866025 0.000000 -0.500000
vn 0.866025 0.000000 -0.500000
vn 0.866025 0.000000 -0.500000
vn 0.000000 -1.000000 0.000000
vn 0.000000 -1.000000 0.000000
vn 0.000000 -1.000000 0.000000
vn 0.000000 -1.000000 0.000000
vn 0.000000 -1.000000 0.000000
vn 0.000000 -1.000000 0.000000
vn 0.000000 -1.000000 0.000000
vn 0.000000 -1.000000 0.000000
vn 0.000000 -1.000000 0.000000
vn 0.000000 -1.000000 0.000000
vn 0.000000 -1.000000 0.000000
vn 0.000000 -1.000000 0.000000
vn 0.000000 -1.000000 0.000000
vn 0.000000 -1.000000 0.000000
vn 0.000000 -1.000000 0.000000
vn 0.000000 -1.000000 0.000000
vn 0.000000 -1.000000 0.000000
vn 0.000000 -1.000000 0.000000
vn 0.000000 0.850709 -0.525636
vn 0.000000 0.850709 -0.525636
vn 0.000000 0.850709 -0.525637
vn -0.455213 0.850713 -0.262807
vn -0.455213 0.850713 -0.262807
vn -0.455213 0.850713 -0.262807
vn -0.455213 0.850713 0.262807
vn -0.455213 0.850713 0.262807
vn -0.455213 0.850713 0.262807
vn 0.000000 0.850709 0.525636
vn 0.000000 0.850709 0.525636
vn 0.000000 0.850709 0.525637
vn 0.455212 0.850711 0.262820
vn 0.455212 0.850711 0.262820
vn 0.455212 0.850711 0.262820
vn 0.455212 0.850711 -0.262818
vn 0.455212 0.850711 -0.262818
vn 0.455212 0.850711 -0.262818
vn 0.000000 -0.809411 -0.587242
vn 0.000000 -0.809411 -0.587242
vn 0.000000 -0.809411 -0.587242
vn 0.000000 -0.809411 -0.587242
vn -0.508559 -0.809422 -0.293606
vn -0.508559 -0.809422 -0.293606
vn -0.508559 -0.809422 -0.293606
vn -0.508559 -0.809422 -0.293606
vn -0.508560 -0.809422 0.293604
vn -0.508559 -0.809422 0.293604
vn -0.508560 -0.809422 0.293604
vn -0.508559 -0.809422 0.293604
vn 0.000000 -0.809412 0.587241
vn 0.000000 -0.809412 0.587241
vn 0.000000 -0.809412 0.587241
vn 0.000000 -0.809412 0.587241
vn 0.508563 -0.809413 0.293623
vn 0.508563 -0.809413 0.293623
vn 0.508563 -0.809413 0.293623
vn 0.508563 -0.809413 0.293623
vn 0.508563 -0.809413 -0.293622
vn 0.508563 -0.809413 -0.293622
vn 0.508563 -0.809413 -0.293622
vn 0.508563 -0.809413 -0.293622
vn 0.000000 0.000000 -1.000000
vn 0.000000 0.000000 -1.000000
vn 0.000000 0.000000 -1.000000
vn 0.000000 0.000000 -1.000000
vn -0.866037 0.000000 -0.499980
vn -0.866037 0.000000 -0.499980
vn -0.866037 0.000000 -0.499980
vn -0.866037 0.000000 -0.499980
vn -0.866037 0.000000 0.499980
vn -0.866037 0.000000 0.499980
vn -0.866037 0.000000 0.499980
vn -0.866037 0.000000 0.499980
vn 0.000000 0.000000 1.000000
vn 0.000000 0.000000 1.000000
vn 0.000000 0.000000 1.000000
vn 0.000000 0.000000 1.000000
vn 0.866021 0.000000 0.500008
vn 0.866021 0.000000 0.500008
vn 0.866021 0.000000 0.500008
vn 0.866021 0.000000 0.500008
vn 0.866021 0.000000 -0.500008
vn 0.866021 0.000000 -0.500008
vn 0.866021 0.000000 -0.500008
vn 0.866021 0.000000 -0.500008
vn -0.000000 -0.907782 0.419442
vn -0.000000 -0.907782 0.419442
vn -0.000000 -0.907782 0.419442
vn -0.000000 -0.907782 0.419442
vn 0.363241 -0.907789 0.209700
vn 0.363241 -0.907789 0.209700
vn 0.363241 -0.907790 0.209700
vn 0.363241 -0.907789 0.209700
vn 0.363241 -0.907789 -0.209700
vn 0.363241 -0.907790 -0.209700
vn 0.363241 -0.907789 -0.209700
vn 0.363241 -0.907789 -0.209700
vn 0.000000 -0.907782 -0.419442
vn 0.000000 -0.907782 -0.419442
vn 0.000000 -0.907782 -0.419442
vn 0.000000 -0.907782 -0.419442
vn -0.363251 -0.907781 -0.209720
vn -0.363251 -0.907781 -0.209720
vn -0.363251 -0.907781 -0.209720
vn -0.363251 -0.907781 -0.209720
vn -0.363251 -0.907781 0.209719
vn -0.363251 -0.907781 0.209719
vn -0.363251 -0.907781 0.209719
vn -0.363251 -0.907781 0.209719
vn 0.000000 -0.175208 -0.984532
vn 0.000000 -0.175208 -0.984532
vn 0.000000 -0.175208 -0.984532
vn 0.000000 -0.175208 -0.984532
vn -0.852650 -0.175210 -0.492229
vn -0.852650 -0.175210 -0.492229
vn -0.852650 -0.175210 -0.492229
vn -0.852650 -0.175210 -0.492229
vn -0.852651 -0.175210 0.492228
vn -0.852651 -0.175210 0.492228
vn -0.852651 -0.175210 0.492228
vn -0.852651 -0.175210 0.492228
vn 0.000000 -0.175207 0.984532
vn 0.000000 -0.175207 0.984532
vn 0.000000 -0.175207 0.984532
vn 0.000000 -0.175207 0.984532
vn 0.852635 -0.175206 0.492256
vn 0.852635 -0.175206 0.492256
vn 0.852635 -0.175206 0.492256
vn 0.852635 -0.175206 0.492256
vn 0.852635 -0.175206 -0.492256
vn 0.852635 -0.175206 -0.492256
vn 0.852635 -0.175206 -0.492256
vn 0.852635 -0.175206 -0.492256
vn 0.000000 0.787124 -0.616795
vn 0.000000 0.787124 -0.616795
vn 0.000000 0.787124 -0.616795
vn 0.000000 0.787124 -0.616795
vn -0.534157 0.787136 -0.308372
vn -0.534157 0.787136 -0.308372
vn -0.534157 0.787136 -0.308372
vn -0.534157 0.787136 -0.308372
vn -0.534157 0.787136 0.308372
vn -0.534157 0.787136 0.308372
vn -0.534157 0.787136 0.308372
vn -0.534157 0.787136 0.308372
vn 0.000000 0.787124 0.616795
vn 0.000000 0.787124 0.616795
vn 0.000000 0.787124 0.616795
vn 0.000000 0.787124 0.616795
vn 0.534163 0.787123 0.308395
vn 0.534163 0.787123 0.308395
vn 0.534163 0.787123 0.308395
vn 0.534163 0.787123 0.308395
vn 0.534163 0.787123 -0.308395
vn 0.534163 0.787123 -0.308395
vn 0.534163 0.787123 -0.308395
vn 0.534163 0.787123 -0.308395
vn 0.000000 0.000000 -1.000000
vn 0.000000 0.000000 -1.000000
vn 0.000000 0.000000 -1.000000
vn 0.000000 0.000000 -1.000000
vn -0.866035 0.000000 -0.499984
vn -0.866035 0.000000 -0.499984
vn -0.866035 0.000000 -0.499984
vn -0.866035 0.000000 -0.499984
vn -0.866035 0.000000 0.499984
vn -0.866035 0.000000 0.499984
vn -0.866035 0.000000 0.499984
vn -0.866035 0.000000 0.499984
vn 0.000000 0.000000 1.000000
vn 0.000000 0.000000 1.000000
vn 0.000000 0.000000 1.000000
vn 0.000000 0.000000 1.000000
vn 0.866025 0.000000 0.500002
vn 0.866025 0.000000 0.500002
vn 0.866025 0.000000 0.500002
vn 0.866025 0.000000 0.500002
vn 0.866025 0.000000 -0.500002
vn 0.866025 0.000000 -0.500002
vn 0.866025 0.000000 -0.500002
vn 0.866025 0.000000 -0.500002
vn 0.000000 0.499672 -0.866215
vn 0.000000 0.499672 -0.866215
vn 0.000000 0.499672 -0.866215
vn 0.000000 0.499672 -0.866215
vn -0.750162 0.499697 -0.433081
vn -0.750162 0.499697 -0.433081
vn -0.750162 0.499697 -0.433081
vn -0.750162 0.499697 -0.433081
vn -0.750163 0.499697 0.433082
vn -0.750163 0.499697 0.433082
vn -0.750162 0.499697 0.433082
vn -0.750162 0.499697 0.433082
vn 0.000000 0.499672 0.866215
vn 0.000000 0.499672 0.866215
vn 0.000000 0.499672 0.866215
vn 0.000000 0.499672 0.866215
vn 0.750181 0.499651 0.433102
vn 0.750181 0.499651 0.433102
vn 0.750181 0.499651 0.433102
vn 0.750181 0.499651 0.433102
vn 0.750181 0.499651 -0.433102
vn 0.750181 0.499651 -0.433102
vn 0.750181 0.499651 -0.433102
vn 0.750181 0.499651 -0.433102
vn 0.000000 0.000000 -1.000000
vn 0.000000 0.000000 -1.000000
vn 0.000000 0.000000 -1.000000
vn 0.000000 0.000000 -1.000000
vn -0.866044 0.000000 -0.499967
vn -0.866044 0.000000 -0.499967
vn -0.866044 0.000000 -0.499967
vn -0.866044 0.000000 -0.499967
vn -0.866045 0.000000 0.499967
vn -0.866045 0.000000 0.499967
vn -0.866045 0.000000 0.499967
vn -0.866045 0.000000 0.499967
vn 0.000000 0.000000 1.000000
vn 0.000000 0.000000 1.000000
vn 0.000000 0.000000 1.000000
vn 0.000000 0.000000 1.000000
vn 0.866037 0.000000 0.499979
vn 0.866037 0.000000 0.499979
vn 0.866037 0.000000 0.499979
vn 0.866037 0.000000 0.499979
vn 0.866037 0.000000 -0.499979
vn 0.866037 0.000000 -0.499979
vn 0.866037 0.000000 -0.499979
vn 0.866037 0.000000 -0.499979
vn 0.000000 1.000000 0.000000
vn 0.000000 1.000000 0.000000
vn 0.000000 1.000000 0.000000
vn 0.000000 1.000000 0.000000
vn 0.000000 1.000000 -0.000000
vn 0.000000 1.000000 -0.000000
vn 0.000000 1.000000 -0.000000
vn 0.000000 1.000000 -0.000000
vn 0.000000 1.000000 -0.000000
vn 0.000000 1.000000 -0.000000
vn 0.000000 1.000000 -0.000000
vn 0.000000 1.000000 -0.000000
vn 0.000000 1.000000 0.000000
vn 0.000000 1.000000 0.000000
vn 0.000000 1.000000 0.000000
vn 0.000000 1.000000 0.000000
vn 0.000000 1.000000 -0.000000
vn 0.000000 1.000000 -0.000000
vn 0.000000 1.000000 -0.000000
vn 0.000000 1.000000 -0.000000
vn 0.000000 1.000000 0.000000
vn 0.000000 1.000000 0.000000
vn 0.000000 1.000000 0.000000
vn 0.000000 1.000000 0.000000
vn 0.000000 0.000000 -1.000000
vn 0.000000 0.000000 -1.000000
vn 0.000000 0.000000 -1.000000
vn 0.000000 0.000000 -1.000000
vn -0.866035 0.000000 -0.499983
vn -0.866035 0.000000 -0.499983
vn -0.866035 0.000000 -0.499983
vn -0.866035 0.000000 -0.499983
vn -0.866035 0.000000 0.499983
vn -0.866035 0.000000 0.499983
vn -0.866035 0.000000 0.499983
vn -0.866035 0.000000 0.499983
vn 0.000000 0.000000 1.000000
vn 0.000000 0.000000 1.000000
vn 0.000000 0.000000 1.000000
vn 0.000000 0.000000 1.000000
vn 0.866030 0.000000 0.499992
vn 0.866030 0.000000 0.499992
vn 0.866030 0.000000 0.499992
vn 0.866030 0.000000 0.499992
vn 0.866030 0.000000 -0.499992
vn 0.866030 0.000000 -0.499992
vn 0.866030 0.000000 -0.499992
vn 0.866030 0.000000 -0.499992
s off
f 1/7/1 2/8/2 8/110/3 7/14/4
f 2/109/5 3/9/6 9/108/7 8/15/8
f 3/107/9 4/10/10 10/106/11 9/16/12
f 4/105/13 5/11/14 11/104/15 10/17/16
f 5/103/17 6/12/18 12/102/19 11/18/20
f 6/101/21 1/13/22 7/20/23 12/19/24
f 69/140/25 68/115/26 70/117/27
f 71/134/28 69/83/29 70/118/30
f 72/128/31 71/85/32 70/119/33
f 73/122/34 72/86/35 70/120/36
f 74/111/37 73/87/38 70/121/39
f 68/116/40 74/88/41 70/27/42
f 43/59/43 44/60/44 45/28/45
f 44/60/46 46/61/47 45/28/48
f 46/61/49 47/62/50 45/28/51
f 47/62/52 48/63/53 45/28/54
f 48/63/55 49/64/56 45/28/57
f 49/64/58 43/59/59 45/28/60
f 7/25/61 8/24/62 14/30/63 13/29/64
f 8/24/65 9/23/66 15/31/67 14/30/68
f 9/23/69 10/22/70 16/32/71 15/31/72
f 10/22/73 11/21/74 17/33/75 16/32/76
f 11/21/77 12/26/78 18/34/79 17/33/80
f 12/26/81 7/25/82 13/29/83 18/34/84
f 13/89/85 14/90/86 20/91/87 19/92/88
f 14/90/89 15/93/90 21/94/91 20/91/92
f 15/93/93 16/95/94 22/96/95 21/94/96
f 16/95/97 17/97/98 23/98/99 22/96/100
f 17/97/101 18/99/102 24/100/103 23/98/104
f 18/99/105 13/89/106 19/92/107 24/100/108
f 19/35/109 20/36/110 26/42/111 25/41/112
f 20/36/113 21/37/114 27/43/115 26/42/116
f 21/37/117 22/38/118 28/44/119 27/43/120
f 22/38/121 23/39/122 29/45/123 28/44/124
f 23/39/125 24/40/126 30/46/127 29/45/128
f 24/40/129 19/35/130 25/41/131 30/46/132
f 25/41/133 26/42/134 32/48/135 31/47/136
f 26/42/137 27/43/138 33/49/139 32/48/140
f 27/43/141 28/44/142 34/50/143 33/49/144
f 28/44/145 29/45/146 35/51/147 34/50/148
f 29/45/149 30/46/150 36/52/151 35/51/152
f 30/46/153 25/41/154 31/47/155 36/52/156
f 31/47/157 32/48/158 38/54/159 37/53/160
f 32/48/161 33/49/162 39/55/163 38/54/164
f 33/49/165 34/50/166 40/56/167 39/55/168
f 34/50/169 35/51/170 41/57/171 40/56/172
f 35/51/173 36/52/174 42/58/175 41/57/176
f 36/52/177 31/47/178 37/53/179 42/58/180
f 37/53/181 38/54/182 44/60/183 43/59/184
f 38/54/185 39/55/186 46/61/187 44/60/188
f 39/55/189 40/56/190 47/62/191 46/61/192
f 40/56/193 41/57/194 48/63/195 47/62/196
f 41/57/197 42/58/198 49/64/199 48/63/200
f 42/58/201 37/53/202 43/59/203 49/64/204
f 2/2/205 1/1/206 50/66/207 51/65/208
f 3/3/209 2/2/210 51/65/211 52/67/212
f 4/4/213 3/3/214 52/67/215 53/68/216
f 5/5/217 4/4/218 53/68/219 54/69/220
f 6/6/221 5/5/222 54/69/223 55/70/224
f 1/1/225 6/6/226 55/70/227 50/66/228
f 51/65/229 50/66/230 56/162/231 57/160/232
f 52/67/233 51/65/234 57/160/235 58/158/236
f 53/68/237 52/67/238 58/158/239 59/156/240
f 54/69/241 53/68/242 59/156/243 60/154/244
f 55/70/245 54/69/246 60/154/247 61/152/248
f 50/66/249 55/70/250 61/152/251 56/162/252
f 57/71/253 56/163/254 62/150/255 63/146/256
f 58/73/257 57/161/258 63/147/259 64/143/260
f 59/74/261 58/159/262 64/144/263 65/137/264
f 60/75/265 59/157/266 65/138/267 66/131/268
f 61/76/269 60/155/270 66/132/271 67/125/272
f 56/72/273 61/153/274 67/126/275 62/149/276
f 63/77/277 62/151/278 68/114/279 69/141/280
f 64/79/281 63/148/282 69/142/283 71/135/284
f 65/80/285 64/145/286 71/136/287 72/129/288
f 66/81/289 65/139/290 72/130/291 73/123/292
f 67/82/293 66/133/294 73/124/295 74/112/296
f 62/78/297 67/127/298 74/113/299 68/84/300
