# This file uses meters as units for non-parametric coordinates.

v 0.000000 0.000000 0.000000
v 18.138062 9.334167 10.471863
v 18.138062 9.334167 -10.471985
v 0.000122 9.334167 -20.943909
v -18.137817 9.334167 -10.471985
v -18.137817 9.334167 10.471863
v 0.000122 9.334167 20.943909
v 15.604980 9.334167 9.009277
v 15.604980 9.334167 -9.009521
v 0.000122 9.334167 -18.018860
v -15.604492 9.334167 -9.009521
v -15.604492 9.334167 9.009277
v 0.000122 9.334167 18.018738
v 12.810547 4.054169 7.395935
v 12.810547 4.054169 -7.396179
v 0.000122 4.054169 -0.000061
v 0.000183 4.054169 -14.792175
v -12.810120 4.054169 -7.396179
v -12.810120 4.054169 7.395935
v 0.000183 4.054169 14.792053
v -20.724731 1.863538 11.965393
v 0.000122 1.863538 23.930847
v 20.724854 1.863538 11.965393
v 20.724854 1.863538 -11.965637
v 0.000122 1.863538 -23.931091
v -20.724731 1.863538 -11.965637
v -22.975830 0.000000 13.265076
v 0.000122 0.000000 26.530212
v 0.000122 1.863538 25.729065
v -22.282104 1.863538 12.864563
v 22.975952 0.000000 13.265076
v 22.282227 1.863538 12.864563
v 22.975952 0.000000 -13.265198
v 22.282227 1.863538 -12.864807
v 0.000122 0.000000 -26.530457
v 0.000122 1.863538 -25.729431
v -22.975830 0.000000 -13.265198
v -22.282104 1.863538 -12.864807
vt 0.103394 0.228403
vt 0.103394 0.228403
vt 0.103394 0.228403
vt 0.103394 0.228403
vt 0.103394 0.228403
vt 0.103394 0.228403
vt 0.103394 0.228403
vt 0.132227 0.303839
vt 0.132227 0.303839
vt 0.132227 0.303839
vt 0.132227 0.303839
vt 0.132227 0.303839
vt 0.132227 0.303839
vt 0.132227 0.303839
vt 0.132227 0.303839
vt 0.132227 0.303839
vt 0.132227 0.303839
vt 0.132227 0.303839
vt 0.132227 0.303839
vt 0.132227 0.303839
vt 0.132227 0.303839
vt 0.132227 0.303839
vt 0.132227 0.303839
vt 0.132227 0.303839
vt 0.132227 0.303839
vt 0.132227 0.303839
vt 0.132227 0.303839
vt 0.132227 0.303839
vt 0.132227 0.303839
vt 0.132227 0.303839
vt 0.132227 0.303839
vt 0.132227 0.303839
vt 0.132227 0.303839
vt 0.132227 0.303839
vt 0.132227 0.303839
vt 0.132227 0.303839
vt 0.132227 0.303839
vt 0.132227 0.303839
vt 0.132227 0.303839
vt 0.132227 0.303839
vt 0.103394 0.228403
vt 0.103394 0.228403
vt 0.103394 0.228403
vt 0.103394 0.228403
vt 0.103394 0.228403
vt 0.103394 0.228403
vt 0.103394 0.228403
vt 0.103394 0.228403
vt 0.103394 0.228403
vt 0.103394 0.228403
vt 0.103394 0.228403
vt 0.103394 0.228403
vn 0.944955 0.327202 0.000000
vn 0.944955 0.327202 0.000000
vn 0.944955 0.327202 0.000000
vn 0.944955 0.327202 0.000000
vn 0.472474 0.327220 -0.818349
vn 0.472474 0.327220 -0.818349
vn 0.472474 0.327220 -0.818349
vn 0.472474 0.327220 -0.818349
vn -0.472472 0.327224 -0.818349
vn -0.472472 0.327223 -0.818349
vn -0.472472 0.327223 -0.818349
vn -0.472472 0.327223 -0.818349
vn -0.944950 0.327215 0.000000
vn -0.944950 0.327215 0.000000
vn -0.944950 0.327215 0.000000
vn -0.944950 0.327215 0.000000
vn -0.472477 0.327206 0.818353
vn -0.472477 0.327206 0.818353
vn -0.472478 0.327206 0.818353
vn -0.472478 0.327206 0.818353
vn 0.472479 0.327202 0.818353
vn 0.472479 0.327202 0.818353
vn 0.472479 0.327202 0.818353
vn 0.472479 0.327202 0.818353
vn 0.000000 1.000000 0.000000
vn 0.000000 1.000000 0.000000
vn 0.000000 1.000000 0.000000
vn 0.000000 1.000000 0.000000
vn 0.000000 1.000000 0.000000
vn 0.000000 1.000000 0.000000
vn 0.000000 1.000000 0.000000
vn 0.000000 1.000000 0.000000
vn 0.000000 1.000000 0.000000
vn 0.000000 1.000000 0.000000
vn 0.000000 1.000000 0.000000
vn 0.000000 1.000000 0.000000
vn 0.000000 1.000000 0.000000
vn 0.000000 1.000000 0.000000
vn 0.000000 1.000000 0.000000
vn 0.000000 1.000000 0.000000
vn 0.000000 1.000000 0.000000
vn 0.000000 1.000000 0.000000
vn 0.000000 1.000000 0.000000
vn 0.000000 1.000000 0.000000
vn 0.000000 1.000000 0.000000
vn 0.000000 1.000000 0.000000
vn 0.000000 1.000000 0.000000
vn 0.000000 1.000000 0.000000
vn 0.000000 1.000000 0.000000
vn 0.000000 1.000000 0.000000
vn 0.000000 1.000000 0.000000
vn 0.000000 1.000000 0.000000
vn 0.000000 1.000000 0.000000
vn 0.000000 1.000000 0.000000
vn 0.000000 1.000000 0.000000
vn 0.000000 1.000000 0.000000
vn 0.000000 1.000000 0.000000
vn 0.000000 1.000000 0.000000
vn 0.000000 1.000000 -0.000000
vn 0.000000 1.000000 -0.000000
vn 0.000000 1.000000 -0.000000
vn 0.000000 1.000000 -0.000000
vn 0.000000 1.000000 0.000000
vn 0.000000 1.000000 0.000000
vn 0.000000 1.000000 0.000000
vn 0.000000 1.000000 0.000000
vn -0.883847 0.467775 0.000000
vn -0.883847 0.467775 0.000000
vn -0.883847 0.467775 0.000000
vn -0.883847 0.467775 0.000000
vn -0.441921 0.467769 0.765439
vn -0.441921 0.467769 0.765440
vn -0.441921 0.467769 0.765440
vn -0.441921 0.467769 0.765440
vn 0.441924 0.467771 0.765437
vn 0.441924 0.467771 0.765437
vn 0.441924 0.467771 0.765437
vn 0.441924 0.467771 0.765437
vn 0.883852 0.467767 0.000000
vn 0.883852 0.467767 0.000000
vn 0.883852 0.467767 0.000000
vn 0.883852 0.467767 0.000000
vn 0.441929 0.467771 -0.765434
vn 0.441929 0.467771 -0.765434
vn 0.441929 0.467771 -0.765434
vn 0.441929 0.467771 -0.765434
vn -0.441926 0.467769 -0.765437
vn -0.441926 0.467769 -0.765437
vn -0.441926 0.467769 -0.765437
vn -0.441926 0.467769 -0.765437
vn -0.468579 0.348891 0.811609
vn -0.468579 0.348891 0.811609
vn -0.468579 0.348891 0.811609
vn -0.468579 0.348891 0.811609
vn 0.468581 0.348891 0.811608
vn 0.468581 0.348891 0.811608
vn 0.468581 0.348891 0.811608
vn 0.468581 0.348891 0.811608
vn 0.937170 0.348873 0.000000
vn 0.937170 0.348873 0.000000
vn 0.937170 0.348873 0.000000
vn 0.937170 0.348873 0.000000
vn 0.468593 0.348844 -0.811621
vn 0.468593 0.348844 -0.811621
vn 0.468593 0.348844 -0.811621
vn 0.468593 0.348844 -0.811621
vn -0.468591 0.348844 -0.811622
vn -0.468591 0.348844 -0.811622
vn -0.468591 0.348844 -0.811622
vn -0.468591 0.348844 -0.811622
vn -0.937170 0.348874 0.000000
vn -0.937170 0.348874 0.000000
vn -0.937170 0.348874 0.000000
vn -0.937170 0.348874 0.000000
vn 0.000000 -1.000000 0.000000
vn 0.000000 -1.000000 0.000000
vn 0.000000 -1.000000 0.000000
vn 0.000000 1.000000 0.000000
vn 0.000000 1.000000 0.000000
vn 0.000000 1.000000 0.000000
vn 0.000000 1.000000 0.000000
vn 0.000000 -1.000000 0.000000
vn 0.000000 -1.000000 0.000000
vn 0.000000 -1.000000 0.000000
vn 0.000000 1.000000 -0.000000
vn 0.000000 1.000000 -0.000000
vn 0.000000 1.000000 -0.000000
vn 0.000000 1.000000 -0.000000
vn 0.000000 -1.000000 0.000000
vn 0.000000 -1.000000 0.000000
vn 0.000000 -1.000000 0.000000
vn 0.000000 1.000000 0.000000
vn 0.000000 1.000000 0.000000
vn 0.000000 1.000000 0.000000
vn 0.000000 1.000000 0.000000
vn 0.000000 -1.000000 0.000000
vn 0.000000 -1.000000 0.000000
vn 0.000000 -1.000000 0.000000
vn 0.000000 1.000000 0.000000
vn 0.000000 1.000000 0.000000
vn 0.000000 1.000000 0.000000
vn 0.000000 1.000000 0.000000
vn 0.000000 -1.000000 0.000000
vn 0.000000 -1.000000 0.000000
vn 0.000000 -1.000000 0.000000
vn 0.000000 1.000000 -0.000000
vn 0.000000 1.000000 -0.000000
vn 0.000000 1.000000 -0.000000
vn 0.000000 1.000000 -0.000000
vn 0.000000 -1.000000 0.000000
vn 0.000000 -1.000000 0.000000
vn 0.000000 -1.000000 0.000000
vn 0.000000 1.000000 0.000000
vn 0.000000 1.000000 0.000000
vn 0.000000 1.000000 0.000000
vn 0.000000 1.000000 0.000000
s off
f 23/37/1 24/38/2 3/9/3 2/8/4
f 24/38/5 25/39/6 4/10/7 3/9/8
f 25/39/9 26/40/10 5/11/11 4/10/12
f 26/40/13 21/34/14 6/12/15 5/11/16
f 21/34/17 22/35/18 7/13/19 6/12/20
f 22/35/21 23/36/22 2/14/23 7/13/24
f 14/28/25 15/29/26 16/21/27
f 15/29/28 17/30/29 16/21/30
f 17/30/31 18/31/32 16/21/33
f 18/31/34 19/32/35 16/21/36
f 19/32/37 20/33/38 16/21/39
f 20/33/40 14/28/41 16/21/42
f 2/19/43 3/18/44 9/23/45 8/22/46
f 3/18/47 4/17/48 10/24/49 9/23/50
f 4/17/51 5/16/52 11/25/53 10/24/54
f 5/16/55 6/15/56 12/26/57 11/25/58
f 6/15/59 7/20/60 13/27/61 12/26/62
f 7/20/63 2/19/64 8/22/65 13/27/66
f 8/22/67 9/23/68 15/29/69 14/28/70
f 9/23/71 10/24/72 17/30/73 15/29/74
f 10/24/75 11/25/76 18/31/77 17/30/78
f 11/25/79 12/26/80 19/32/81 18/31/82
f 12/26/83 13/27/84 20/33/85 19/32/86
f 13/27/87 8/22/88 14/28/89 20/33/90
f 27/1/91 28/2/92 29/3/93 30/4/94
f 28/2/95 31/5/96 32/6/97 29/3/98
f 31/5/99 33/7/100 34/41/101 32/6/102
f 33/7/103 35/42/104 36/43/105 34/41/106
f 35/42/107 37/44/108 38/45/109 36/43/110
f 37/44/111 27/1/112 30/4/113 38/45/114
f 1/46/115 28/2/116 27/1/117
f 22/47/118 21/48/119 30/4/120 29/3/121
f 1/46/122 31/5/123 28/2/124
f 23/49/125 22/47/126 29/3/127 32/6/128
f 1/46/129 33/7/130 31/5/131
f 24/50/132 23/49/133 32/6/134 34/41/135
f 1/46/136 35/42/137 33/7/138
f 25/51/139 24/50/140 34/41/141 36/43/142
f 1/46/143 37/44/144 35/42/145
f 26/52/146 25/51/147 36/43/148 38/45/149
f 1/46/150 27/1/151 37/44/152
f 21/48/153 26/52/154 38/45/155 30/4/156
v -11.034973 14.453508 6.592529
v 7.875366 13.779230 -6.789185
v 0.000183 7.582550 17.513672
v 1.997864 15.093195 13.401611
v 0.000183 7.582550 17.513672
v -0.011475 7.582550 -17.514038
v 15.167725 7.582550 8.756714
v 4.325439 20.259571 6.399902
v -1.963745 20.075413 5.415405
v -15.167175 7.582550 8.756714
v -1.245483 20.075413 -3.659790
v -15.167175 7.582550 -8.757202
v 15.167725 7.582550 -8.757202
v 6.233032 20.259571 -1.435059
v 15.167725 7.582550 8.756714
v -1.525330 13.518911 -8.648438
v 9.238586 14.897109 2.294678
vt 0.036986 0.306308
vt 0.036986 0.306308
vt 0.036986 0.306308
vt 0.036986 0.306308
vt 0.036986 0.306308
vt 0.036986 0.306308
vt 0.036986 0.306308
vt 0.036986 0.306308
vt 0.036986 0.306308
vt 0.036986 0.306308
vt 0.036986 0.306308
vt 0.036986 0.306308
vt 0.036986 0.306308
vt 0.036986 0.306308
vt 0.036986 0.306308
vt 0.036986 0.306308
vt 0.036986 0.306308
vt 0.036986 0.306308
vt 0.036986 0.306308
vt 0.036986 0.306308
vt 0.036986 0.306308
vn 0.378278 0.653413 -0.655711
vn 0.378278 0.653413 -0.655711
vn 0.378278 0.653413 -0.655711
vn -0.112447 0.817048 0.565498
vn -0.112447 0.817048 0.565498
vn -0.112447 0.817048 0.565498
vn 0.000000 0.000000 0.000000
vn 0.000000 0.000000 0.000000
vn 0.000000 0.000000 0.000000
vn -0.425032 0.508088 0.749129
vn -0.425032 0.508088 0.749129
vn -0.425032 0.508088 0.749129
vn -0.425032 0.508088 0.749129
vn 0.724052 0.686584 -0.065966
vn 0.724052 0.686584 -0.065966
vn 0.724052 0.686584 -0.065966
vn 0.724052 0.686584 -0.065966
vn -0.761048 0.413061 -0.500187
vn -0.761048 0.413061 -0.500187
vn -0.761048 0.413061 -0.500187
vn -0.856963 0.515378 0.000000
vn -0.856963 0.515378 0.000000
vn -0.856963 0.515378 0.000000
vn -0.025809 0.999659 -0.004008
vn -0.025809 0.999659 -0.004008
vn -0.025809 0.999659 -0.004008
vn -0.025809 0.999659 -0.004008
vn 0.000000 0.000000 0.000000
vn 0.754615 0.654386 0.048333
vn 0.754615 0.654386 0.048333
vn 0.000000 0.000000 0.000000
vn 0.168336 0.623381 -0.763583
vn 0.168336 0.623381 -0.763583
vn 0.168336 0.623381 -0.763583
vn 0.168336 0.623381 -0.763583
vn -0.204307 0.912812 -0.353600
vn -0.204307 0.912812 -0.353600
vn -0.204307 0.912812 -0.353600
vn -0.530252 0.846801 -0.041967
vn -0.530252 0.846801 -0.041967
vn -0.530252 0.846801 -0.041967
vn 0.544192 0.578410 0.607699
vn 0.544192 0.578410 0.607699
vn 0.544192 0.578410 0.607699
vn 0.473218 0.322885 0.819640
vn 0.473218 0.322885 0.819640
vn 0.473218 0.322885 0.819640
vn 0.084557 0.834565 -0.544382
vn 0.084557 0.834565 -0.544382
vn 0.084557 0.834565 -0.544382
vn -0.706485 0.526369 -0.473091
vn -0.706485 0.526369 -0.473091
vn -0.706485 0.526369 -0.473091
vn 0.906387 0.380810 -0.182885
vn 0.906387 0.380810 -0.182885
vn 0.906387 0.380810 -0.182885
vn 0.792574 0.578437 0.192970
vn 0.792574 0.578437 0.192970
vn 0.792574 0.578437 0.192970
vn -0.356010 0.703282 0.615346
vn -0.356010 0.703282 0.615346
vn -0.356010 0.703282 0.615346
s off
f 40/54/157 51/69/158 44/61/159
f 42/58/160 46/63/161 47/64/162
f 42/59/163 43/60/164 41/56/165
f 48/65/166 43/60/167 42/59/168 39/53/169
f 40/55/170 55/73/171 45/62/172 51/70/173
f 54/72/174 39/53/175 49/67/176
f 50/68/177 48/65/178 39/53/179
f 46/63/180 52/66/181 49/67/182 47/64/183
f 45/62/184 55/73/185 46/63/186 53/71/187
f 49/67/188 52/66/189 40/55/190 54/72/191
f 39/53/192 44/57/193 50/68/194
f 39/53/195 47/64/196 49/67/197
f 42/59/198 53/71/199 46/63/200
f 42/59/201 41/56/202 53/71/203
f 54/72/204 40/55/205 44/57/206
f 44/57/207 39/53/208 54/72/209
f 52/66/210 55/73/211 40/55/212
f 46/63/213 55/73/214 52/66/215
f 42/58/216 47/64/217 39/53/218
