# This file uses meters as units for non-parametric coordinates.

v 93.545227 -32.053314 0.000000
v 93.545227 -32.053314 2.169434
v 93.545227 -96.159943 0.000000
v 93.545227 -96.159943 2.280762
v 93.545227 -64.106613 2.354248
v 93.545227 -64.106628 0.000000
v 62.363464 -96.159943 0.000000
v 62.363464 -96.159943 4.092041
v 62.363464 -64.106628 4.092041
v 62.363464 -32.053314 4.092041
v 62.363464 0.000000 0.000000
v 93.545227 0.000000 0.000000
v 93.545227 0.000000 4.092041
v 62.363464 0.000000 4.092041
v 0.000000 -96.159943 0.000000
v 31.181732 -96.159943 4.092041
v 31.181732 -64.106628 3.673096
v 31.181732 -32.053314 4.092041
v 0.000000 0.000000 0.000000
v 31.181732 0.000000 4.092041
v -93.545410 -96.159943 0.000000
v -93.545410 -96.159943 4.092041
v -93.545410 -32.053314 0.000000
v -93.545410 -32.053314 4.092041
v -93.545410 -64.106628 0.000000
v -93.545410 -64.106628 2.216309
v -31.181549 -32.053314 3.673096
v -31.181549 -64.106628 4.092041
v -31.181549 -96.159943 4.092041
v -62.363586 -96.159943 0.000000
v -62.363586 0.000000 0.000000
v -62.363586 -32.053314 4.092041
v -62.363586 -64.106628 4.092041
v -62.363586 -94.320816 4.092041
v 0.000000 -96.159943 4.092041
v 0.000000 -64.106628 4.092041
v 0.000000 -32.053314 4.092041
v -93.545410 0.000000 0.000000
v -93.545410 0.000000 2.091309
v -31.181549 0.000000 4.092041
v -62.363586 0.000000 1.639893
v 0.000000 0.000000 2.254395
v -72.286102 0.000000 4.092041
v -62.363586 -2.509857 4.091797
v -51.766449 0.000000 4.092041
v -90.193787 0.000000 4.092041
v -93.545410 -4.221039 4.092041
v -5.792603 0.000000 4.092041
v 6.301208 0.000000 4.092041
v 0.000000 -1.597839 4.092041
v 93.545227 -24.352753 4.092041
v 90.711487 -32.053314 4.092041
v 93.545227 -40.610275 4.092041
v 93.545227 -61.541229 4.092041
v 91.391998 -64.106628 4.092041
v 93.545227 -71.745667 4.092041
v -71.917908 -96.159943 4.092041
v -56.880707 -96.159943 4.092041
v -62.363586 -96.159943 2.295410
v 93.545227 -93.896729 4.092041
v 90.081390 -96.159943 4.092041
v -93.545410 -59.258499 4.092041
v -92.194824 -64.106628 4.092041
v -93.545410 -71.205917 4.092041
v -33.173065 -32.053314 4.092041
v -31.181549 -25.919006 4.092041
v -28.782471 -32.053314 4.092041
v -31.181519 -34.140808 4.092041
v 23.416199 -64.106628 4.092041
v 31.181732 -61.410934 4.091797
v 33.744324 -64.106628 4.092041
v 31.181732 -66.617844 4.092285
vt 0.038313 0.354071
vt 0.038313 0.354071
vt 0.038313 0.354071
vt 0.038313 0.354071
vt 0.239579 0.387463
vt 0.239579 0.387463
vt 0.038313 0.354071
vt 0.038313 0.354071
vt 0.038313 0.354071
vt 0.239579 0.296505
vt 0.038313 0.354071
vt 0.038313 0.354071
vt 0.038313 0.354071
vt 0.038313 0.354071
vt 0.038313 0.354071
vt 0.330537 0.296505
vt 0.330537 0.387463
vt 0.239579 0.296505
vt 0.038313 0.354071
vt 0.330537 0.296505
vt 0.330537 0.387463
vt 0.038313 0.354071
vt 0.038313 0.354071
vt 0.038313 0.354071
vt 0.038313 0.354071
vt 0.038313 0.354071
vt 0.038313 0.354071
vt 0.038313 0.354071
vt 0.239579 0.387463
vt 0.239579 0.296505
vt 0.330537 0.296505
vt 0.330537 0.387463
vt 0.038313 0.354071
vt 0.038313 0.354071
vt 0.038313 0.354071
vt 0.038313 0.354071
vt 0.038313 0.354071
vt 0.038313 0.354071
vt 0.038313 0.354071
vt 0.038313 0.354071
vt 0.239579 0.387463
vt 0.239579 0.296505
vt 0.330537 0.296505
vt 0.330537 0.387463
vt 0.239579 0.387463
vt 0.239579 0.296505
vt 0.330537 0.296505
vt 0.330537 0.387463
vt 0.038313 0.354071
vt 0.038313 0.354071
vt 0.239579 0.387463
vt 0.239579 0.296505
vt 0.330537 0.296505
vt 0.330537 0.387463
vt 0.038313 0.354071
vt 0.038313 0.354071
vt 0.038313 0.354071
vt 0.038313 0.354071
vt 0.038313 0.354071
vt 0.038313 0.354071
vt 0.038313 0.354071
vt 0.038313 0.354071
vt 0.038313 0.354071
vt 0.038313 0.354071
vt 0.038313 0.354071
vt 0.239579 0.387463
vt 0.239579 0.296505
vt 0.330537 0.296505
vt 0.330537 0.387463
vt 0.038313 0.354071
vt 0.038313 0.354071
vt 0.038313 0.354071
vt 0.038313 0.354071
vt 0.239579 0.387463
vt 0.239579 0.296505
vt 0.330537 0.296505
vt 0.330537 0.387463
vt 0.038313 0.354071
vt 0.038313 0.354071
vt 0.239579 0.387463
vt 0.239579 0.296505
vt 0.330537 0.296505
vt 0.330537 0.387463
vt 0.239579 0.387463
vt 0.239579 0.299114
vt 0.330537 0.296505
vt 0.330537 0.387463
vt 0.038313 0.354071
vt 0.038313 0.354071
vt 0.239579 0.296505
vt 0.330537 0.296505
vt 0.330537 0.387463
vt 0.239579 0.387463
vt 0.239579 0.296505
vt 0.330537 0.299114
vt 0.330537 0.387463
vt 0.239579 0.387463
vt 0.038313 0.354071
vt 0.038313 0.354071
vt 0.038313 0.354071
vt 0.239579 0.387463
vt 0.239579 0.296505
vt 0.330537 0.296505
vt 0.330537 0.387463
vt 0.239579 0.387463
vt 0.239579 0.296505
vt 0.330537 0.296505
vt 0.330537 0.387463
vt 0.038313 0.354071
vt 0.038313 0.354071
vt 0.038313 0.354071
vt 0.038313 0.354071
vt 0.038313 0.354071
vt 0.038313 0.354071
vt 0.038313 0.354071
vt 0.239579 0.387463
vt 0.239579 0.296505
vt 0.330537 0.296505
vt 0.330537 0.387463
vt 0.038313 0.354071
vt 0.038313 0.354071
vt 0.038313 0.354071
vt 0.239579 0.387463
vt 0.239579 0.296505
vt 0.330537 0.296505
vt 0.330537 0.387463
vt 0.239579 0.296505
vt 0.330537 0.296505
vt 0.330537 0.387463
vt 0.239579 0.387463
vt 0.239579 0.387463
vt 0.239579 0.296505
vt 0.330537 0.296505
vt 0.330537 0.387463
vt 0.038313 0.354071
vt 0.038313 0.354071
vt 0.301593 0.387463
vt 0.239579 0.380340
vt 0.330537 0.380340
vt 0.038313 0.354071
vt 0.270491 0.387463
vt 0.038313 0.354071
vt 0.249356 0.387463
vt 0.038313 0.354071
vt 0.239579 0.375485
vt 0.038313 0.354071
vt 0.313640 0.387463
vt 0.038313 0.354071
vt 0.257960 0.387463
vt 0.330537 0.382928
vt 0.239579 0.382928
vt 0.038313 0.354071
vt 0.330537 0.318357
vt 0.322271 0.296505
vt 0.322271 0.387463
vt 0.038313 0.354071
vt 0.330537 0.363180
vt 0.038313 0.354071
vt 0.330537 0.303784
vt 0.324256 0.296505
vt 0.324256 0.387463
vt 0.038313 0.354071
vt 0.330537 0.365785
vt 0.038313 0.354071
vt 0.302667 0.296505
vt 0.038313 0.354071
vt 0.255573 0.296505
vt 0.038313 0.354071
vt 0.038313 0.354071
vt 0.330537 0.302927
vt 0.038313 0.354071
vt 0.320433 0.296505
vt 0.038313 0.354071
vt 0.239579 0.310262
vt 0.243519 0.296505
vt 0.243519 0.387463
vt 0.038313 0.354071
vt 0.239579 0.367317
vt 0.324728 0.296505
vt 0.324728 0.387463
vt 0.239579 0.313912
vt 0.330537 0.313912
vt 0.246578 0.296505
vt 0.246578 0.387463
vt 0.239579 0.381539
vt 0.330537 0.381539
vt 0.307885 0.296505
vt 0.307885 0.387463
vt 0.330537 0.304154
vt 0.239579 0.304154
vt 0.247055 0.296505
vt 0.247055 0.387463
vt 0.330537 0.380336
vt 0.239579 0.380336
vn 0.000000 0.000000 -1.000000
vn 0.000000 0.000000 -1.000000
vn 0.000000 0.000000 -1.000000
vn 0.618425 0.174317 0.766266
vn 0.618425 0.174317 0.766266
vn 0.618425 0.174317 0.766266
vn 0.551984 0.182796 0.813572
vn 0.551984 0.182796 0.813572
vn 0.551984 0.182796 0.813572
vn 0.000000 0.000000 -1.000000
vn 0.000000 0.000000 -1.000000
vn 0.000000 0.000000 -1.000000
vn 0.000000 0.000000 -1.000000
vn 0.549831 -0.202334 0.810399
vn 0.549831 -0.202334 0.810399
vn 0.549831 -0.202334 0.810399
vn 0.000000 1.000000 0.000000
vn 0.000000 1.000000 0.000000
vn 0.000000 1.000000 0.000000
vn 0.000000 1.000000 0.000000
vn 0.000000 0.000000 -1.000000
vn 0.000000 0.000000 -1.000000
vn 0.000000 0.000000 -1.000000
vn 0.000000 -1.000000 0.000000
vn 0.000000 -1.000000 0.000000
vn 0.000000 -1.000000 0.000000
vn 0.000000 -1.000000 0.000000
vn 0.000004 -0.000000 1.000000
vn 0.000004 -0.000000 1.000000
vn 0.000004 -0.000000 1.000000
vn 0.000004 -0.000000 1.000000
vn 0.000004 -0.000000 1.000000
vn -0.000004 -0.000000 1.000000
vn -0.000004 -0.000000 1.000000
vn -0.000004 -0.000000 1.000000
vn -0.000004 -0.000000 1.000000
vn -0.000004 -0.000000 1.000000
vn 0.000000 0.000000 -1.000000
vn 0.000000 0.000000 -1.000000
vn 0.000000 0.000000 -1.000000
vn 0.000000 0.000000 -1.000000
vn 0.000000 0.000000 1.000000
vn 0.000000 0.000000 1.000000
vn 0.000000 0.000000 1.000000
vn 0.000000 0.000000 1.000000
vn 0.000000 1.000000 0.000000
vn 0.000000 1.000000 0.000000
vn 0.000000 1.000000 0.000000
vn 0.000000 1.000000 0.000000
vn -1.000000 0.000000 0.000000
vn -1.000000 0.000000 0.000000
vn -1.000000 0.000000 0.000000
vn -1.000000 0.000000 0.000000
vn -1.000000 0.000000 0.000000
vn 0.000000 -1.000000 0.000000
vn 0.000000 -1.000000 0.000000
vn 0.000000 -1.000000 0.000000
vn 0.000000 0.000000 1.000000
vn 0.000000 0.000000 1.000000
vn 0.000000 0.000000 1.000000
vn 0.000000 0.000000 1.000000
vn 0.000000 0.000000 1.000000
vn -1.000000 0.000000 0.000000
vn -1.000000 0.000000 0.000000
vn -1.000000 0.000000 0.000000
vn -1.000000 0.000000 0.000000
vn -1.000000 0.000000 0.000000
vn 0.000000 0.000000 1.000000
vn 0.000000 0.000000 1.000000
vn 0.000000 0.000000 1.000000
vn 0.000000 0.000000 1.000000
vn 0.000000 0.000000 -1.000000
vn 0.000000 0.000000 -1.000000
vn 0.000000 0.000000 -1.000000
vn 0.000000 0.000000 -1.000000
vn 0.000000 0.000000 1.000000
vn 0.000000 0.000000 1.000000
vn 0.000000 0.000000 1.000000
vn 0.000000 0.000000 1.000000
vn 0.000000 0.000000 1.000000
vn 0.000000 0.000000 1.000000
vn 0.000000 0.000000 1.000000
vn 0.000000 0.000000 1.000000
vn 0.000000 0.000000 1.000000
vn 0.000000 0.000000 1.000000
vn 0.000000 -1.000000 0.000000
vn 0.000000 -1.000000 0.000000
vn 0.000000 -1.000000 0.000000
vn 0.000000 -1.000000 0.000000
vn 0.000000 -1.000000 0.000000
vn 0.000000 0.000000 -1.000000
vn 0.000000 0.000000 -1.000000
vn 0.000000 0.000000 -1.000000
vn 0.000000 0.000000 -1.000000
vn -0.000000 0.000000 1.000000
vn -0.000000 0.000000 1.000000
vn -0.000000 0.000000 1.000000
vn -0.000000 0.000000 1.000000
vn -0.000000 0.000000 1.000000
vn -0.000000 0.000000 1.000000
vn -0.000000 0.000000 1.000000
vn -0.000000 0.000000 1.000000
vn -0.000000 0.000000 1.000000
vn -0.000000 0.000000 1.000000
vn -0.000000 0.000000 1.000000
vn 0.000000 -1.000000 0.000000
vn 0.000000 -1.000000 0.000000
vn 0.000000 -1.000000 0.000000
vn 0.000000 -1.000000 0.000000
vn 0.000000 -1.000000 0.000000
vn 0.000000 0.000000 -1.000000
vn 0.000000 0.000000 -1.000000
vn 0.000000 0.000000 -1.000000
vn 0.000000 -1.000000 0.000000
vn 0.000000 -1.000000 0.000000
vn 0.000000 -1.000000 0.000000
vn -0.000004 -0.000001 1.000000
vn -0.000004 -0.000001 1.000000
vn -0.000004 -0.000001 1.000000
vn -0.000004 -0.000001 1.000000
vn -0.000004 -0.000001 1.000000
vn 0.000004 -0.000001 1.000000
vn 0.000004 -0.000001 1.000000
vn 0.000004 -0.000001 1.000000
vn 0.000004 -0.000001 1.000000
vn 0.000004 -0.000001 1.000000
vn -1.000000 0.000000 0.000000
vn -1.000000 0.000000 0.000000
vn -1.000000 0.000000 0.000000
vn -1.000000 0.000000 0.000000
vn -1.000000 0.000000 0.000000
vn 0.000000 1.000000 0.000000
vn 0.000000 1.000000 0.000000
vn 0.000000 1.000000 0.000000
vn 0.000000 1.000000 0.000000
vn 0.000000 0.000000 1.000000
vn 0.000000 0.000000 1.000000
vn 0.000000 0.000000 1.000000
vn 0.000000 0.000000 1.000000
vn 0.000000 0.000000 1.000000
vn 0.000000 0.000000 1.000000
vn -0.163300 0.689420 0.705715
vn -0.163300 0.689420 0.705715
vn -0.163300 0.689420 0.705715
vn 0.000000 0.000000 -1.000000
vn 0.000000 0.000000 -1.000000
vn 0.000000 0.000000 -1.000000
vn 0.174077 0.688131 0.704395
vn 0.174077 0.688131 0.704395
vn 0.174077 0.688131 0.704395
vn 0.000000 0.000000 1.000000
vn 0.000000 0.000000 1.000000
vn 0.000000 0.000000 1.000000
vn 0.000000 0.000000 1.000000
vn 0.000000 0.000000 1.000000
vn 0.000000 1.000000 0.000000
vn 0.000000 1.000000 0.000000
vn 0.000000 1.000000 0.000000
vn 0.000000 1.000000 0.000000
vn 0.000004 0.000001 1.000000
vn 0.000004 0.000001 1.000000
vn 0.000004 0.000001 1.000000
vn 0.000004 0.000001 1.000000
vn 0.000004 0.000001 1.000000
vn 0.000004 0.000001 1.000000
vn -0.000004 0.000001 1.000000
vn -0.000004 0.000001 1.000000
vn -0.000004 0.000001 1.000000
vn -0.000004 0.000001 1.000000
vn -0.000004 0.000001 1.000000
vn -0.000004 0.000001 1.000000
vn 0.000000 1.000000 0.000000
vn 0.000000 1.000000 0.000000
vn 0.000000 1.000000 0.000000
vn 0.000000 1.000000 0.000000
vn 0.000000 1.000000 0.000000
vn 0.000000 1.000000 0.000000
vn 0.000000 1.000000 0.000000
vn 0.000000 1.000000 0.000000
vn 0.000000 1.000000 0.000000
vn 0.000000 1.000000 0.000000
vn 0.000000 1.000000 0.000000
vn -0.474752 0.376966 0.795304
vn -0.474752 0.376966 0.795304
vn -0.474752 0.376966 0.795304
vn -0.187946 0.741181 0.644459
vn -0.187946 0.741181 0.644459
vn -0.187946 0.741181 0.644459
vn 0.203789 0.738793 0.642382
vn 0.203790 0.738793 0.642383
vn 0.203789 0.738793 0.642383
vn 0.000000 0.000000 1.000000
vn 0.000000 0.000000 1.000000
vn 0.000000 0.000000 1.000000
vn 0.000000 0.000000 1.000000
vn 0.000000 0.000000 1.000000
vn 0.555578 -0.466318 0.688390
vn 0.555578 -0.466318 0.688390
vn 0.555578 -0.466318 0.688390
vn 1.000000 0.000000 0.000000
vn 1.000000 0.000000 0.000000
vn 1.000000 0.000000 0.000000
vn 1.000000 0.000000 0.000000
vn 1.000000 0.000000 0.000000
vn 0.000000 0.000000 1.000000
vn 0.000000 0.000000 1.000000
vn 0.000000 0.000000 1.000000
vn 0.000000 0.000000 1.000000
vn 0.000000 0.000000 1.000000
vn 0.000000 0.000000 1.000000
vn 0.377975 -0.578490 0.722830
vn 0.377975 -0.578490 0.722830
vn 0.377975 -0.578490 0.722830
vn 1.000000 0.000000 0.000000
vn 1.000000 0.000000 0.000000
vn 1.000000 0.000000 0.000000
vn 1.000000 0.000000 0.000000
vn 1.000000 0.000000 0.000000
vn 1.000000 0.000000 0.000000
vn -0.228211 -0.680353 0.696448
vn -0.228211 -0.680353 0.696448
vn -0.228211 -0.680353 0.696448
vn 0.133312 -0.692558 0.708937
vn 0.133312 -0.692558 0.708937
vn 0.133312 -0.692558 0.708937
vn 0.000000 0.000000 1.000000
vn 0.000000 0.000000 1.000000
vn 0.000000 0.000000 1.000000
vn 0.000000 0.000000 1.000000
vn 0.000000 0.000000 1.000000
vn 0.000000 0.000000 1.000000
vn 0.000000 -1.000000 0.000000
vn 0.000000 -1.000000 0.000000
vn 0.000000 -1.000000 0.000000
vn 0.000000 -1.000000 0.000000
vn 0.000000 -1.000000 0.000000
vn 1.000000 0.000000 0.000000
vn 1.000000 0.000000 0.000000
vn 1.000000 0.000000 0.000000
vn 1.000000 0.000000 0.000000
vn 1.000000 0.000000 0.000000
vn 1.000000 0.000000 0.000000
vn -0.791547 -0.220507 0.569939
vn -0.791547 -0.220507 0.569939
vn -0.791547 -0.220507 0.569939
vn -0.802021 0.152578 0.577480
vn -0.802021 0.152578 0.577480
vn -0.802021 0.152578 0.577480
vn 0.205401 -0.066684 0.976403
vn 0.205401 -0.066684 0.976403
vn 0.205401 -0.066684 0.976403
vn -0.171636 -0.067126 0.982871
vn -0.171636 -0.067126 0.982871
vn -0.171636 -0.067126 0.982871
vn -0.168758 0.193945 0.966388
vn -0.168758 0.193945 0.966388
vn -0.168758 0.193945 0.966388
vn 0.202000 0.192716 0.960238
vn 0.202000 0.192716 0.960238
vn 0.202000 0.192716 0.960238
vn 0.053234 -0.153264 0.986750
vn 0.053234 -0.153264 0.986750
vn 0.053234 -0.153264 0.986750
vn -0.159480 -0.151517 0.975504
vn -0.159480 -0.151517 0.975504
vn -0.159480 -0.151517 0.975504
vn -0.159197 0.162548 0.973773
vn -0.159197 0.162548 0.973773
vn -0.159197 0.162548 0.973773
vn 0.053138 0.164416 0.984959
vn 0.053138 0.164416 0.984959
vn 0.053138 0.164416 0.984959
s off
f 3/7/1 7/13/2 6/11/3
f 55/161/4 56/163/5 5/17/6
f 52/155/7 53/157/8 2/21/9
f 6/11/10 7/13/11 11/19/12 1/8/13
f 51/153/14 52/154/15 2/31/16
f 11/23/17 14/22/18 13/25/19 12/24/20
f 1/33/21 11/28/22 12/34/23
f 7/37/24 8/38/25 16/39/26 15/40/27
f 71/192/28 72/194/29 16/42/30 8/43/31 9/44/32
f 18/45/33 70/190/34 71/191/35 9/47/36 10/48/37
f 7/35/38 15/36/39 19/49/40 11/50/41
f 20/51/42 18/52/43 10/53/44 14/54/45
f 19/55/46 20/56/47 14/57/48 11/58/49
f 25/59/50 26/60/51 62/173/52 24/61/53 23/62/54
f 15/63/55 35/64/56 29/65/57
f 67/184/58 68/185/59 28/67/60 36/68/61 37/69/62
f 21/72/63 22/73/64 64/177/65 26/60/66 25/59/67
f 28/74/68 29/75/69 35/76/70 36/77/71
f 19/70/72 15/71/73 30/78/74 31/79/75
f 32/80/76 33/81/77 28/82/78 68/186/79 65/180/80
f 33/84/81 34/85/82 58/167/83 29/86/84 28/87/85
f 15/63/86 29/65/87 58/166/88 59/168/89 30/89/90
f 31/79/91 30/78/92 25/59/93 23/62/94
f 62/174/95 63/175/96 33/91/97 32/92/98 24/93/99
f 22/94/100 57/165/101 34/95/102 33/96/103 63/176/104 64/178/105
f 30/89/106 59/168/107 57/164/108 22/98/109 21/99/110
f 30/78/111 21/72/112 25/59/113
f 15/63/114 16/100/115 35/64/116
f 36/101/117 35/102/118 16/103/119 72/193/120 69/188/121
f 37/105/122 36/106/123 69/187/124 70/189/125 18/108/126
f 23/109/127 24/110/128 47/144/129 39/111/130 38/112/131
f 19/113/132 40/114/133 48/146/134 42/115/135
f 40/116/136 66/181/137 67/183/138 37/118/139 50/150/140 48/147/141
f 41/123/142 44/138/143 45/141/144
f 31/120/145 23/109/146 38/112/147
f 43/137/148 44/139/149 41/129/150
f 49/149/151 50/151/152 37/132/153 18/133/154 20/134/155
f 19/113/156 42/115/157 49/148/158 20/135/159
f 24/127/160 32/128/161 44/139/162 43/137/163 46/143/164 47/145/165
f 45/141/166 44/138/167 32/124/168 65/179/169 66/182/170 40/126/171
f 31/121/172 41/122/173 45/140/174 40/114/175 19/113/176
f 38/112/177 39/111/178 46/142/179 43/136/180 41/122/181 31/121/182
f 47/145/183 46/143/184 39/130/185
f 42/131/186 50/151/187 49/149/188
f 48/147/189 50/150/190 42/119/191
f 14/29/192 10/30/193 52/154/194 51/153/195 13/32/196
f 54/159/197 55/160/198 5/20/199
f 12/24/200 13/25/201 51/152/202 2/26/203 1/27/204
f 10/6/205 9/18/206 55/160/207 54/159/208 53/157/209 52/155/210
f 60/170/211 61/172/212 4/16/213
f 1/1/214 2/2/215 53/156/216 54/158/217 5/9/218 6/12/219
f 59/168/220 58/166/221 34/88/222
f 57/164/223 59/168/224 34/88/225
f 9/5/226 8/10/227 61/172/228 60/170/229 56/163/230 55/161/231
f 3/3/232 4/4/233 61/171/234 8/15/235 7/14/236
f 6/12/237 5/9/238 56/162/239 60/169/240 4/4/241 3/3/242
f 26/90/243 63/175/244 62/174/245
f 64/178/246 63/176/247 26/97/248
f 66/182/249 65/179/250 27/125/251
f 67/183/252 66/181/253 27/117/254
f 27/66/255 68/185/256 67/184/257
f 65/180/258 68/186/259 27/83/260
f 70/189/261 69/187/262 17/107/263
f 71/191/264 70/190/265 17/46/266
f 17/41/267 72/194/268 71/192/269
f 69/188/270 72/193/271 17/104/272
