# This file uses meters as units for non-parametric coordinates.

v -41.835693 67.034317 -15.652344
v -41.835693 67.034317 17.199219
v -41.835693 72.831268 -15.652344
v -41.835693 72.831268 17.199219
v 41.836670 72.831268 -15.652344
v 41.836670 72.831268 17.199219
v 41.836670 67.034317 -15.652344
v 41.836670 67.034317 17.199219
v -42.027344 0.000000 -20.324707
v -42.027344 0.000000 20.324219
v -42.027344 14.326952 -20.324707
v -42.027344 14.326952 20.324219
v 42.028809 14.326952 -20.324707
v 42.028809 14.326952 20.324219
v 42.028809 0.000000 -20.324707
v 42.028809 0.000000 20.324219
v -45.914063 14.326952 -22.204102
v -45.914063 14.326952 22.203613
v 45.914551 14.326952 22.203613
v 45.914551 14.326952 -22.204102
v -45.914063 211.006668 -22.204102
v -45.914063 211.006668 22.203613
v 45.914551 211.006668 19.815430
v 45.914551 211.006668 -22.204102
v -41.835693 20.154377 22.203857
v 41.836670 20.154377 22.203857
v 41.836670 205.179260 22.203857
v -41.835693 205.179260 22.203857
v -41.835693 20.154377 -15.652344
v 41.836670 20.154377 -15.652344
v 41.836670 205.179260 -15.652344
v -41.835693 205.179260 -15.652344
v 41.371826 211.006668 22.203857
v 43.728271 208.050903 22.203857
v 45.914551 203.914993 22.203613
v 5.611572 211.006668 22.203857
v 30.874268 211.006668 22.203857
v 20.981201 211.006668 21.485596
v 20.555908 208.178146 22.203857
v -36.915283 205.179260 22.203857
v -9.355225 205.179260 22.203857
v -18.293213 207.133209 22.203857
v -18.711182 205.179260 21.040283
v 45.914551 53.564659 22.203613
v 45.914551 112.550049 22.203613
v 44.194824 92.853416 22.203613
v 45.914551 101.148331 15.295898
v 45.914551 76.276070 15.697998
v -45.914063 34.388840 -22.204102
v -45.914063 98.433311 -22.204102
v -43.312500 57.777702 -22.204102
v -45.914063 57.935371 -19.056885
vt 0.113256 0.355334
vt 0.113256 0.355334
vt 0.113256 0.355334
vt 0.113256 0.355334
vt 0.113256 0.355334
vt 0.113256 0.355334
vt 0.113256 0.355334
vt 0.113256 0.355334
vt 0.113256 0.355334
vt 0.113256 0.355334
vt 0.113256 0.355334
vt 0.101318 0.229569
vt 0.101318 0.229569
vt 0.113256 0.355334
vt 0.113256 0.355334
vt 0.113256 0.355334
vt 0.113256 0.355334
vt 0.101318 0.229570
vt 0.101318 0.229570
vt 0.101318 0.229570
vt 0.101318 0.229570
vt 0.101318 0.229569
vt 0.101318 0.229569
vt 0.113256 0.355334
vt 0.113256 0.355334
vt 0.113256 0.355334
vt 0.113256 0.355334
vt 0.113256 0.355334
vt 0.113256 0.355334
vt 0.113256 0.355334
vt 0.113256 0.355334
vt 0.113256 0.355334
vt 0.113256 0.355334
vt 0.113256 0.355334
vt 0.113256 0.355334
vt 0.113256 0.355334
vt 0.113256 0.355334
vt 0.113256 0.355334
vt 0.113256 0.355334
vt 0.113256 0.355334
vt 0.113256 0.355334
vt 0.113256 0.355334
vt 0.113256 0.355334
vt 0.113256 0.355334
vt 0.113256 0.355334
vt 0.113256 0.355334
vt 0.113256 0.355334
vt 0.113256 0.355334
vt 0.113256 0.355334
vt 0.113256 0.355334
vt 0.113256 0.355334
vt 0.113256 0.355334
vt 0.113256 0.355334
vt 0.113256 0.355334
vt 0.113256 0.355334
vt 0.113256 0.355334
vt 0.113256 0.355334
vt 0.113256 0.355334
vt 0.113256 0.355334
vn 0.000000 1.000000 0.000000
vn 0.000000 1.000000 0.000000
vn 0.000000 1.000000 0.000000
vn 0.000000 1.000000 0.000000
vn 0.000000 -1.000000 0.000000
vn 0.000000 -1.000000 0.000000
vn 0.000000 -1.000000 0.000000
vn 0.000000 -1.000000 0.000000
vn 0.000000 0.000000 1.000000
vn 0.000000 0.000000 1.000000
vn 0.000000 0.000000 1.000000
vn 0.000000 0.000000 1.000000
vn -1.000000 0.000000 0.000000
vn -1.000000 0.000000 0.000000
vn -1.000000 0.000000 0.000000
vn -1.000000 0.000000 0.000000
vn 1.000000 0.000000 0.000000
vn 1.000000 0.000000 0.000000
vn 1.000000 0.000000 0.000000
vn 1.000000 0.000000 0.000000
vn 0.000000 -1.000000 0.000000
vn 0.000000 -1.000000 0.000000
vn 0.000000 -1.000000 0.000000
vn 0.000000 -1.000000 0.000000
vn 0.000000 0.000000 1.000000
vn 0.000000 0.000000 1.000000
vn 0.000000 0.000000 1.000000
vn 0.000000 0.000000 1.000000
vn 0.000000 0.000000 -1.000000
vn 0.000000 0.000000 -1.000000
vn 0.000000 0.000000 -1.000000
vn 0.000000 0.000000 -1.000000
vn 0.000000 -1.000000 0.000000
vn 0.000000 -1.000000 0.000000
vn 0.000000 -1.000000 0.000000
vn 0.000000 -1.000000 0.000000
vn 0.000000 -1.000000 -0.000000
vn 0.000000 -1.000000 -0.000000
vn 0.000000 -1.000000 -0.000000
vn 0.000000 -1.000000 -0.000000
vn 0.000000 -1.000000 0.000000
vn 0.000000 -1.000000 0.000000
vn 0.000000 -1.000000 0.000000
vn 0.000000 -1.000000 0.000000
vn 0.000000 -1.000000 -0.000000
vn 0.000000 -1.000000 -0.000000
vn 0.000000 -1.000000 -0.000000
vn 0.000000 -1.000000 -0.000000
vn -1.000000 -0.000000 0.000000
vn -1.000000 -0.000000 0.000000
vn -1.000000 -0.000000 0.000000
vn -1.000000 -0.000000 0.000000
vn 0.000000 0.000000 1.000000
vn 0.000000 0.000000 1.000000
vn 0.000000 0.000000 1.000000
vn 0.000000 0.000000 1.000000
vn -0.000000 0.000000 -1.000000
vn -0.000000 0.000000 -1.000000
vn -0.000000 0.000000 -1.000000
vn -0.000000 0.000000 -1.000000
vn 0.000000 -0.000042 1.000000
vn 0.000000 -0.000042 1.000000
vn 0.000000 -0.000042 1.000000
vn 0.000000 -0.000042 1.000000
vn 0.516921 0.273200 0.811267
vn 0.516921 0.273200 0.811267
vn 0.516921 0.273200 0.811267
vn 0.436307 0.347840 0.829845
vn 0.436307 0.347840 0.829845
vn 0.436307 0.347840 0.829845
vn -0.000060 0.000000 1.000000
vn -0.000060 0.000000 1.000000
vn -0.000060 0.000000 1.000000
vn -0.000060 0.000000 1.000000
vn 0.000000 1.000000 0.000000
vn 0.000000 1.000000 0.000000
vn 0.000000 1.000000 0.000000
vn 0.000000 1.000000 0.000000
vn -1.000000 0.000000 0.000000
vn -1.000000 0.000000 0.000000
vn -1.000000 0.000000 0.000000
vn -1.000000 0.000000 0.000000
vn 0.000000 -1.000000 -0.000001
vn 0.000000 -1.000000 -0.000001
vn 0.000000 -1.000000 -0.000001
vn 0.000000 -1.000000 -0.000001
vn 1.000000 0.000000 0.000000
vn 1.000000 0.000000 0.000000
vn 1.000000 0.000000 0.000000
vn 1.000000 0.000000 0.000000
vn 0.000000 1.000000 0.000000
vn 0.000000 1.000000 0.000000
vn 0.000000 1.000000 0.000000
vn 0.000000 1.000000 0.000000
vn -0.000003 0.000018 1.000000
vn -0.000003 0.000018 1.000000
vn -0.000003 0.000018 1.000000
vn -0.000003 0.000018 1.000000
vn 0.000105 0.000000 1.000000
vn 0.000105 0.000000 1.000000
vn 0.000105 0.000000 1.000000
vn 1.000000 0.000000 0.000000
vn 1.000000 0.000000 0.000000
vn 1.000000 0.000000 0.000000
vn 1.000000 0.000000 0.000000
vn 0.045323 0.239462 0.969847
vn 0.045323 0.239462 0.969847
vn 0.045323 0.239462 0.969847
vn -0.070010 0.255395 0.964299
vn -0.070010 0.255395 0.964299
vn -0.070010 0.255395 0.964299
vn 0.054506 -0.519466 0.852751
vn 0.054506 -0.519466 0.852751
vn 0.054506 -0.519466 0.852751
vn -0.107472 -0.491610 0.864158
vn -0.107472 -0.491610 0.864158
vn -0.107472 -0.491610 0.864158
vn -0.000003 0.000037 1.000000
vn -0.000003 0.000037 1.000000
vn -0.000003 0.000037 1.000000
vn -0.000003 0.000037 1.000000
vn -0.000000 0.000000 1.000000
vn -0.000000 0.000000 1.000000
vn -0.000000 0.000000 1.000000
vn -0.000000 0.000000 1.000000
vn -0.000000 0.000000 1.000000
vn -0.000000 0.000000 1.000000
vn -0.000000 0.000000 1.000000
vn -0.000000 0.000000 1.000000
vn -0.000000 0.000000 1.000000
vn 0.000000 1.000000 -0.000000
vn 0.000000 1.000000 -0.000000
vn 0.000000 1.000000 -0.000000
vn 0.000000 1.000000 -0.000000
vn 0.000000 1.000000 -0.000000
vn 0.000000 1.000000 -0.000000
vn 0.000000 1.000000 -0.000000
vn 0.000000 1.000000 -0.000000
vn 0.000000 -1.000000 0.000000
vn 0.000000 -1.000000 0.000000
vn 0.000000 -1.000000 0.000000
vn 0.000000 -1.000000 0.000000
vn 0.000000 -1.000000 0.000000
vn 0.000000 -1.000000 0.000000
vn 0.000000 -1.000000 0.000000
vn 0.986099 -0.086097 0.142110
vn 0.986099 -0.086097 0.142110
vn 0.986099 -0.086097 0.142110
vn 1.000000 0.000000 0.000000
vn 1.000000 0.000000 0.000000
vn 1.000000 0.000000 0.000000
vn 1.000000 0.000000 0.000000
vn 1.000000 0.000000 0.000000
vn 1.000000 0.000000 0.000000
vn 1.000000 0.000000 0.000000
vn 1.000000 0.000000 0.000000
vn 1.000000 0.000000 0.000000
vn 0.000050 0.000001 1.000000
vn 0.000050 0.000001 1.000000
vn 0.000050 0.000001 1.000000
vn 0.000050 0.000001 1.000000
vn 0.000044 -0.000001 1.000000
vn 0.000044 -0.000001 1.000000
vn 0.000044 -0.000001 1.000000
vn 0.000044 -0.000001 1.000000
vn 0.000044 -0.000001 1.000000
vn 0.987601 0.043229 0.150914
vn 0.987601 0.043229 0.150914
vn 0.987601 0.043229 0.150914
vn 0.969242 0.003978 0.246077
vn 0.969242 0.003978 0.246077
vn 0.969242 0.003978 0.246077
vn -0.765857 0.085187 -0.637343
vn -0.765857 0.085187 -0.637343
vn -0.765857 0.085187 -0.637343
vn -0.771032 -0.049339 -0.634882
vn -0.771032 -0.049339 -0.634882
vn -0.771032 -0.049339 -0.634882
vn -1.000000 0.000000 0.000000
vn -1.000000 0.000000 0.000000
vn -1.000000 0.000000 0.000000
vn -1.000000 0.000000 0.000000
vn -1.000000 0.000000 0.000000
vn -1.000000 0.000000 0.000000
vn -1.000000 0.000000 0.000000
vn 0.000000 0.000000 -1.000000
vn 0.000000 0.000000 -1.000000
vn 0.000000 0.000000 -1.000000
vn 0.000000 0.000000 -1.000000
vn 0.000000 0.000000 -1.000000
vn 0.000000 0.000000 -1.000000
vn 0.000000 0.000000 -1.000000
s off
f 3/1/1 4/2/2 6/3/3 5/4/4
f 7/5/5 8/6/6 2/7/7 1/8/8
f 2/9/9 8/10/10 6/11/11 4/2/12
f 9/12/13 10/13/14 12/18/15 11/19/16
f 13/20/17 14/21/18 16/22/19 15/23/20
f 15/23/21 16/22/22 10/13/23 9/12/24
f 10/13/25 16/22/26 14/21/27 12/18/28
f 15/23/29 9/12/30 11/19/31 13/20/32
f 11/15/33 12/14/34 18/26/35 17/27/36
f 12/14/37 14/17/38 19/28/39 18/26/40
f 14/17/41 13/16/42 20/29/43 19/28/44
f 13/16/45 11/15/46 17/27/47 20/29/48
f 17/27/49 18/26/50 52/30/51 49/31/52
f 29/32/53 30/33/54 31/34/55 32/35/56
f 24/36/57 51/37/58 50/38/59 21/39/60
f 18/26/61 19/28/62 26/40/63 25/41/64
f 34/42/65 35/43/66 23/44/67
f 23/44/68 33/45/69 34/42/70
f 22/46/71 18/26/72 25/41/73 28/47/74
f 25/41/75 26/40/76 30/33/77 29/32/78
f 26/40/79 27/48/80 31/34/81 30/33/82
f 32/35/83 43/49/84 40/50/85 28/47/86
f 28/47/87 25/41/88 29/32/89 32/35/90
f 23/44/91 38/51/92 37/52/93 33/45/94
f 42/53/95 39/54/96 36/55/97 22/46/98
f 26/40/99 46/56/100 27/48/101
f 48/57/102 20/29/103 24/36/104 47/58/105
f 36/55/106 39/54/107 38/51/108
f 38/51/109 39/54/110 37/52/111
f 40/50/112 43/49/113 42/53/114
f 42/53/115 43/49/116 41/59/117
f 42/53/118 22/46/119 28/47/120 40/50/121
f 34/42/122 33/45/123 37/52/124 39/54/125
f 34/42/126 39/54/127 42/53/128 41/59/129 27/48/130
f 38/51/131 21/39/132 22/46/133 36/55/134
f 24/36/135 21/39/136 38/51/137 23/44/138
f 27/48/139 41/59/140 43/49/141 31/34/142
f 31/34/143 43/49/144 32/35/145
f 46/56/146 47/58/147 45/25/148
f 47/58/149 24/36/150 23/44/151 35/43/152 45/25/153
f 19/28/154 20/29/155 48/57/156 44/24/157
f 19/28/158 44/24/159 46/56/160 26/40/161
f 27/48/162 46/56/163 45/25/164 35/43/165 34/42/166
f 44/24/167 48/57/168 46/56/169
f 46/56/170 48/57/171 47/58/172
f 52/30/173 51/37/174 49/31/175
f 50/38/176 51/37/177 52/30/178
f 52/30/179 22/46/180 21/39/181 50/38/182
f 52/30/183 18/26/184 22/46/185
f 20/29/186 17/27/187 49/31/188 51/37/189
f 20/29/190 51/37/191 24/36/192
v 0.000732 18.041470 20.628662
v -0.416504 18.041470 24.097900
v 0.000732 207.345657 20.628662
v -0.416504 207.345657 24.097900
v -43.721191 207.345657 20.628418
v -43.721191 207.345657 24.097900
v -43.721191 18.041470 20.628418
v -43.721191 18.041470 24.097900
v -10.065430 116.040283 24.097900
v -7.273926 116.040283 24.097900
v -10.065430 143.639664 24.097900
v -7.273926 143.639664 24.097900
v -9.842285 117.684677 27.118896
v -7.497070 117.684677 27.118896
v -9.842285 141.995270 27.118896
v -7.497070 141.995270 27.118896
vt 0.113256 0.355334
vt 0.113256 0.355334
vt 0.113256 0.355334
vt 0.113256 0.355334
vt 0.113256 0.355334
vt 0.113256 0.355334
vt 0.113256 0.355334
vt 0.113256 0.355334
vt 0.113256 0.355334
vt 0.113256 0.355334
vt 0.114258 0.276093
vt 0.114258 0.276108
vt 0.114258 0.276108
vt 0.114258 0.276093
vt 0.113256 0.355334
vt 0.113256 0.355334
vt 0.113256 0.355334
vt 0.113256 0.355334
vt 0.113256 0.355334
vt 0.113256 0.355334
vt 0.113256 0.355334
vt 0.113256 0.355334
vt 0.113256 0.355334
vt 0.113256 0.355334
vt 0.114258 0.276093
vt 0.114258 0.276093
vt 0.114258 0.276108
vt 0.114258 0.276108
vn 0.992845 0.000000 0.119407
vn 0.992845 0.000000 0.119407
vn 0.992845 0.000000 0.119407
vn 0.992845 0.000000 0.119407
vn 0.000000 1.000000 -0.000003
vn 0.000000 1.000000 -0.000003
vn 0.000000 1.000000 -0.000003
vn 0.000000 1.000000 -0.000003
vn -1.000000 0.000000 0.000000
vn -1.000000 0.000000 0.000000
vn -1.000000 0.000000 0.000000
vn -1.000000 0.000000 0.000000
vn 0.000000 -1.000000 0.000000
vn 0.000000 -1.000000 0.000000
vn 0.000000 -1.000000 0.000000
vn 0.000000 -1.000000 0.000000
vn 0.000000 0.000000 1.000000
vn 0.000000 0.000000 1.000000
vn 0.000000 0.000000 1.000000
vn 0.000000 0.000000 1.000000
vn 0.000006 0.000000 -1.000000
vn 0.000006 0.000000 -1.000000
vn 0.000006 0.000000 -1.000000
vn 0.000006 0.000000 -1.000000
vn 0.000000 0.000000 1.000000
vn 0.000000 0.000000 1.000000
vn 0.000000 0.000000 1.000000
vn 0.000000 0.000000 1.000000
vn 0.000000 0.000000 1.000000
vn 0.000000 0.000000 1.000000
vn 0.000000 0.000000 1.000000
vn 0.000000 0.000000 1.000000
vn 0.000000 0.000000 1.000000
vn 0.000000 0.000000 1.000000
vn 0.000000 0.000000 1.000000
vn 0.000000 0.000000 1.000000
vn 0.000000 0.000000 1.000000
vn 0.000000 0.000000 1.000000
vn 0.000000 0.000000 1.000000
vn 0.000000 0.000000 1.000000
vn 0.000000 -0.878315 0.478082
vn 0.000000 -0.878315 0.478082
vn 0.000000 -0.878315 0.478082
vn 0.000000 -0.878315 0.478082
vn -0.997283 0.000000 0.073664
vn -0.997283 0.000000 0.073664
vn -0.997283 0.000000 0.073664
vn -0.997283 0.000000 0.073664
vn 0.000000 0.878312 0.478087
vn 0.000000 0.878312 0.478087
vn 0.000000 0.878312 0.478087
vn 0.000000 0.878312 0.478087
vn 0.997283 0.000000 0.073664
vn 0.997283 0.000000 0.073664
vn 0.997283 0.000000 0.073664
vn 0.997283 0.000000 0.073664
s off
f 53/60/193 55/61/194 56/62/195 54/63/196
f 55/61/197 57/64/198 58/65/199 56/62/200
f 57/64/201 59/66/202 60/67/203 58/65/204
f 59/66/205 53/68/206 54/69/207 60/67/208
f 66/70/209 68/71/210 67/72/211 65/73/212
f 59/74/213 57/75/214 55/61/215 53/60/216
f 54/76/217 62/77/218 61/78/219 60/79/220
f 60/79/221 61/78/222 63/80/223 58/81/224
f 58/81/225 63/80/226 64/82/227 56/83/228
f 56/83/229 64/82/230 62/77/231 54/76/232
f 62/84/233 66/70/234 65/73/235 61/85/236
f 61/85/237 65/73/238 67/72/239 63/86/240
f 63/86/241 67/72/242 68/71/243 64/87/244
f 64/87/245 68/71/246 66/70/247 62/84/248
v 0.000732 18.041466 20.628540
v 0.417725 18.041466 24.097900
v 0.000732 207.345657 20.628540
v 0.417725 207.345657 24.097900
v 43.780762 207.345657 20.628540
v 43.780762 207.345657 24.097900
v 43.780762 18.041466 20.628540
v 43.780762 18.041466 24.097900
v 10.125488 116.040283 24.097900
v 7.333740 116.040283 24.097900
v 10.125488 143.639664 24.097900
v 7.333740 143.639664 24.097900
v 9.901855 117.684677 27.118896
v 7.557129 117.684677 27.118896
v 9.901855 141.995270 27.118896
v 7.557129 141.995270 27.118896
vt 0.113256 0.355334
vt 0.113256 0.355334
vt 0.113256 0.355334
vt 0.113256 0.355334
vt 0.113256 0.355334
vt 0.113256 0.355334
vt 0.113256 0.355334
vt 0.113256 0.355334
vt 0.113256 0.355334
vt 0.113256 0.355334
vt 0.114258 0.276093
vt 0.114258 0.276093
vt 0.114258 0.276108
vt 0.114258 0.276108
vt 0.113256 0.355334
vt 0.113256 0.355334
vt 0.113256 0.355334
vt 0.113256 0.355334
vt 0.113256 0.355334
vt 0.113256 0.355334
vt 0.113256 0.355334
vt 0.113256 0.355334
vt 0.113256 0.355334
vt 0.113256 0.355334
vt 0.114258 0.276093
vt 0.114258 0.276093
vt 0.114258 0.276108
vt 0.114258 0.276108
vn -0.992854 0.000000 0.119334
vn -0.992854 0.000000 0.119334
vn -0.992854 0.000000 0.119334
vn -0.992854 0.000000 0.119334
vn 0.000000 1.000000 -0.000006
vn 0.000000 1.000000 -0.000006
vn 0.000000 1.000000 -0.000006
vn 0.000000 1.000000 -0.000006
vn 1.000000 0.000000 0.000000
vn 1.000000 0.000000 0.000000
vn 1.000000 0.000000 0.000000
vn 1.000000 0.000000 0.000000
vn 0.000000 -1.000000 0.000000
vn 0.000000 -1.000000 0.000000
vn 0.000000 -1.000000 0.000000
vn 0.000000 -1.000000 0.000000
vn 0.000000 0.000000 1.000000
vn 0.000000 0.000000 1.000000
vn 0.000000 0.000000 1.000000
vn 0.000000 0.000000 1.000000
vn 0.000000 0.000000 -1.000000
vn 0.000000 0.000000 -1.000000
vn 0.000000 0.000000 -1.000000
vn 0.000000 0.000000 -1.000000
vn 0.000000 0.000000 1.000000
vn 0.000000 0.000000 1.000000
vn 0.000000 0.000000 1.000000
vn 0.000000 0.000000 1.000000
vn 0.000000 0.000000 1.000000
vn 0.000000 0.000000 1.000000
vn 0.000000 0.000000 1.000000
vn 0.000000 0.000000 1.000000
vn 0.000000 0.000000 1.000000
vn 0.000000 0.000000 1.000000
vn 0.000000 0.000000 1.000000
vn 0.000000 0.000000 1.000000
vn 0.000000 0.000000 1.000000
vn 0.000000 0.000000 1.000000
vn 0.000000 0.000000 1.000000
vn 0.000000 0.000000 1.000000
vn 0.000000 -0.878314 0.478085
vn 0.000000 -0.878314 0.478085
vn 0.000000 -0.878314 0.478085
vn 0.000000 -0.878314 0.478085
vn 0.997271 0.000000 0.073824
vn 0.997271 0.000000 0.073824
vn 0.997271 0.000000 0.073824
vn 0.997271 0.000000 0.073824
vn 0.000000 0.878315 0.478082
vn 0.000000 0.878315 0.478082
vn 0.000000 0.878315 0.478082
vn 0.000000 0.878315 0.478082
vn -0.997277 0.000000 0.073744
vn -0.997277 0.000000 0.073744
vn -0.997277 0.000000 0.073744
vn -0.997277 0.000000 0.073744
s off
f 69/88/249 70/89/250 72/90/251 71/91/252
f 71/91/253 72/90/254 74/92/255 73/93/256
f 73/93/257 74/92/258 76/94/259 75/95/260
f 75/95/261 76/94/262 70/96/263 69/97/264
f 82/98/265 81/99/266 83/100/267 84/101/268
f 75/102/269 69/88/270 71/91/271 73/103/272
f 70/104/273 76/105/274 77/106/275 78/107/276
f 76/105/277 74/108/278 79/109/279 77/106/280
f 74/108/281 72/110/282 80/111/283 79/109/284
f 72/110/285 70/104/286 78/107/287 80/111/288
f 78/112/289 77/113/290 81/99/291 82/98/292
f 77/113/293 79/114/294 83/100/295 81/99/296
f 79/114/297 80/115/298 84/101/299 83/100/300
f 80/115/301 78/112/302 82/98/303 84/101/304
