# This file uses meters as units for non-parametric coordinates.

v -28.492920 0.000000 -21.788086
v -28.492920 0.000000 21.788574
v -28.492920 28.506844 -21.788086
v -28.492920 28.506844 21.788574
v 28.492981 28.506844 -21.788086
v 28.492981 28.506844 25.311523
v 28.492981 0.000000 -21.788086
v 28.492981 0.000000 25.311523
v 14.093750 2.910179 21.788574
v -25.076172 2.910179 21.788574
v 14.093750 25.596672 21.788574
v -25.076172 25.596672 21.788574
v 14.093750 2.910179 -16.983398
v -25.076172 2.910179 -16.983398
v 14.093750 25.596672 -16.983398
v -25.076172 25.596672 -16.983398
v 14.093750 28.506844 21.788574
v 14.093750 0.000000 21.788574
v 14.356995 0.000000 25.311523
v 14.356995 28.506844 25.311523
v 14.356995 25.825035 25.311523
v 28.492981 28.506844 25.311523
v 14.356995 5.116440 25.311523
v 28.492981 0.000000 25.311523
v 25.213501 24.985115 25.311523
v 25.213501 5.994499 25.311523
v 15.117920 7.923027 25.311523
v 24.189331 7.923027 25.311523
v 24.189331 23.033989 25.311523
v 15.117920 23.033989 25.311523
v -13.959595 2.910179 15.793701
v 2.980530 2.910179 15.793701
v 11.450623 2.910179 1.123291
v 2.980530 2.910179 -13.547363
v -13.959534 2.910179 -13.547363
v -22.429688 2.910179 1.123291
v 2.585999 4.502434 -12.864014
v -13.565063 4.502434 -12.864014
v -21.640625 4.502434 1.123291
v -13.565063 4.502434 15.110352
v 2.585999 4.502434 15.110352
v 10.661560 4.502434 1.123291
v 23.744263 1.690948 -21.788086
v -11.392212 1.690948 -21.788086
v -11.392212 19.267815 -21.788086
v 23.744263 19.267815 -21.788086
v 23.124573 2.229645 -20.727051
v -10.772583 2.229645 -20.727051
v -10.772583 18.729118 -20.727051
v 23.124573 18.729118 -20.727051
vt 0.135652 0.375655
vt 0.135652 0.375655
vt 0.135652 0.375655
vt 0.135652 0.375655
vt 0.135652 0.375655
vt 0.135652 0.375655
vt 0.135652 0.375655
vt 0.135652 0.375655
vt 0.135652 0.375655
vt 0.135652 0.375655
vt 0.135652 0.375655
vt 0.135652 0.375655
vt 0.135652 0.375655
vt 0.135652 0.375655
vt 0.112549 0.375511
vt 0.112549 0.375511
vt 0.112549 0.375519
vt 0.112549 0.375519
vt 0.112549 0.375519
vt 0.112549 0.375519
vt 0.112549 0.375519
vt 0.112549 0.375519
vt 0.135652 0.375655
vt 0.135652 0.375655
vt 0.135652 0.375655
vt 0.135652 0.375655
vt 0.135652 0.375655
vt 0.135652 0.375655
vt 0.135652 0.375655
vt 0.135652 0.375655
vt 0.135652 0.375655
vt 0.135652 0.375655
vt 0.135652 0.375655
vt 0.135652 0.375655
vt 0.135652 0.375655
vt 0.135652 0.375655
vt 0.103516 0.231133
vt 0.103516 0.231133
vt 0.103516 0.231140
vt 0.103516 0.231140
vt 0.103516 0.231133
vt 0.103516 0.231133
vt 0.103516 0.231140
vt 0.103516 0.231140
vt 0.444691 0.312272
vt 0.497252 0.312272
vt 0.497252 0.388619
vt 0.444691 0.388619
vt 0.112549 0.375511
vt 0.112549 0.375511
vt 0.112549 0.375511
vt 0.112549 0.375511
vt 0.112549 0.375511
vt 0.112549 0.375511
vt 0.112549 0.375519
vt 0.112549 0.375519
vt 0.112549 0.375511
vt 0.112549 0.375511
vt 0.112549 0.375511
vt 0.112549 0.375511
vt 0.112549 0.375511
vt 0.112549 0.375511
vt 0.113037 0.357346
vt 0.113037 0.357346
vt 0.113037 0.357346
vt 0.113037 0.357346
vt 0.113037 0.357346
vt 0.113037 0.357346
vt 0.113037 0.357346
vt 0.113037 0.357346
vt 0.113037 0.357346
vt 0.113037 0.357346
vt 0.113037 0.357346
vt 0.113037 0.357346
vt 0.135652 0.375655
vt 0.135652 0.375655
vt 0.135652 0.375655
vt 0.135652 0.375655
vt 0.135652 0.375655
vt 0.135652 0.375655
vt 0.135652 0.375655
vt 0.135652 0.375655
vt 0.100586 0.302124
vt 0.100586 0.302124
vt 0.100586 0.302124
vt 0.100586 0.302124
vn -1.000000 0.000000 0.000000
vn -1.000000 0.000000 0.000000
vn -1.000000 0.000000 0.000000
vn -1.000000 0.000000 0.000000
vn 0.000000 1.000000 -0.000000
vn 0.000000 1.000000 -0.000000
vn 0.000000 1.000000 -0.000000
vn 0.000000 1.000000 -0.000000
vn 1.000000 0.000000 0.000000
vn 0.000000 0.000000 0.000000
vn 0.000000 0.000000 0.000000
vn 0.000000 0.000000 0.000000
vn 0.000000 0.000000 0.000000
vn 1.000000 0.000000 0.000000
vn 0.000000 -1.000000 0.000000
vn 0.000000 -1.000000 0.000000
vn 0.000000 -1.000000 0.000000
vn 0.000000 0.000000 1.000000
vn 0.000000 0.000000 1.000000
vn 0.000000 0.000000 1.000000
vn 0.000000 0.000000 1.000000
vn 0.000000 0.000000 -1.000000
vn 0.000000 0.000000 -1.000000
vn 0.000000 0.000000 -1.000000
vn 0.000000 0.000000 -1.000000
vn 0.000000 0.000000 1.000000
vn -0.000000 0.000000 1.000000
vn -0.000000 0.000000 1.000000
vn 0.000000 0.000000 0.000000
vn 0.000000 0.000000 1.000000
vn 0.000000 0.000000 1.000000
vn 0.000000 0.000000 1.000000
vn 0.000000 0.000000 1.000000
vn 0.000000 0.000000 1.000000
vn 0.000000 0.000000 1.000000
vn 0.000000 0.000000 1.000000
vn 0.000000 0.000000 1.000000
vn 0.000000 0.000000 1.000000
vn 0.000000 1.000000 0.000000
vn 0.000000 1.000000 0.000000
vn 0.000000 1.000000 0.000000
vn 0.000000 1.000000 0.000000
vn 0.000000 1.000000 0.000000
vn 0.000000 1.000000 0.000000
vn -1.000000 0.000000 0.000000
vn -1.000000 0.000000 0.000000
vn -1.000000 0.000000 0.000000
vn -1.000000 0.000000 0.000000
vn 0.000000 -1.000000 0.000000
vn 0.000000 -1.000000 0.000000
vn 0.000000 -1.000000 0.000000
vn 0.000000 -1.000000 0.000000
vn 1.000000 0.000000 0.000000
vn 1.000000 0.000000 0.000000
vn 1.000000 0.000000 0.000000
vn 1.000000 0.000000 0.000000
vn 0.000000 1.000000 0.000000
vn 0.000000 1.000000 0.000000
vn 0.000000 1.000000 0.000000
vn 0.000000 0.000000 1.000000
vn 0.000000 0.000000 1.000000
vn 0.000000 0.000000 1.000000
vn 0.000000 0.000000 1.000000
vn 0.000000 -1.000000 0.000000
vn 0.000000 -1.000000 0.000000
vn 0.000000 -1.000000 0.000000
vn 0.000000 -1.000000 0.000000
vn -0.997220 0.000000 0.074515
vn -0.997220 0.000000 0.074515
vn -0.997220 0.000000 0.074515
vn 0.000000 -1.000000 0.000000
vn 0.000000 -1.000000 0.000000
vn 0.000000 -1.000000 0.000000
vn -0.997220 0.000000 0.074515
vn -0.997220 0.000000 0.074515
vn -0.997220 0.000000 0.074515
vn -0.997220 0.000000 0.074515
vn -0.997220 0.000000 0.074515
vn -0.997220 0.000000 0.074515
vn 0.000000 1.000000 0.000000
vn 0.000000 1.000000 0.000000
vn 0.000000 1.000000 0.000000
vn -0.997220 0.000000 0.074515
vn -0.997220 0.000000 0.074515
vn -0.997220 0.000000 0.074515
vn -0.000000 0.000000 1.000000
vn -0.000000 0.000000 1.000000
vn -0.000000 0.000000 1.000000
vn -0.000000 0.000000 1.000000
vn 0.000000 0.000000 0.000000
vn -0.000000 0.000000 1.000000
vn -0.000000 0.000000 1.000000
vn 0.000000 0.000000 1.000000
vn 0.000000 0.000000 1.000000
vn 0.000000 0.000000 1.000000
vn 0.000000 0.000000 1.000000
vn 0.000000 0.000000 1.000000
vn 0.000000 0.000000 1.000000
vn 0.000000 0.000000 1.000000
vn 0.000000 0.000000 1.000000
vn 0.000000 0.000000 1.000000
vn 0.000000 0.000000 1.000000
vn 0.000001 0.000000 1.000000
vn 0.000001 0.000000 1.000000
vn 0.000001 0.000000 1.000000
vn 0.000001 0.000000 1.000000
vn 0.000000 0.000000 1.000000
vn 0.000000 0.000000 1.000000
vn 0.000000 0.000000 1.000000
vn 0.000000 0.000000 1.000000
vn -0.000002 0.000000 1.000000
vn -0.000002 0.000000 1.000000
vn -0.000002 0.000000 1.000000
vn -0.000002 0.000000 1.000000
vn 0.000000 1.000000 -0.000000
vn 0.000000 1.000000 -0.000000
vn 0.000000 1.000000 -0.000000
vn 0.000000 1.000000 -0.000000
vn 0.000000 1.000000 0.000000
vn 0.000000 1.000000 0.000000
vn 0.000000 1.000000 0.000000
vn 0.000000 1.000000 0.000000
vn 0.000000 1.000000 0.000000
vn 0.000000 1.000000 0.000000
vn 0.000000 1.000000 -0.000000
vn 0.000000 1.000000 -0.000000
vn 0.000000 1.000000 -0.000000
vn 0.000000 1.000000 0.000000
vn 0.000000 1.000000 0.000000
vn 0.000000 1.000000 0.000000
vn 0.000000 1.000000 0.000000
vn 0.000000 1.000000 0.000000
vn 0.000000 1.000000 0.000000
vn 0.000000 1.000000 0.000000
vn 0.000000 1.000000 0.000000
vn 0.000000 1.000000 0.000000
vn 0.000000 1.000000 0.000000
vn 0.000000 1.000000 0.000000
vn 0.000000 1.000000 0.000000
vn 0.000000 1.000000 0.000000
vn 0.000000 0.394385 -0.918945
vn 0.000000 0.394385 -0.918945
vn 0.000000 0.394385 -0.918945
vn 0.000000 0.394385 -0.918945
vn -0.795834 0.394372 -0.459476
vn -0.795834 0.394372 -0.459476
vn -0.795834 0.394372 -0.459476
vn -0.795834 0.394372 -0.459476
vn -0.795827 0.394384 0.459478
vn -0.795827 0.394384 0.459478
vn -0.795827 0.394384 0.459478
vn -0.795827 0.394384 0.459478
vn 0.000000 0.394385 0.918945
vn 0.000000 0.394385 0.918945
vn 0.000000 0.394385 0.918945
vn 0.000000 0.394385 0.918945
vn 0.795827 0.394384 0.459478
vn 0.795827 0.394384 0.459478
vn 0.795827 0.394384 0.459478
vn 0.795827 0.394384 0.459478
vn 0.795831 0.394384 -0.459472
vn 0.795831 0.394384 -0.459472
vn 0.795831 0.394384 -0.459472
vn 0.795831 0.394384 -0.459472
vn 0.000000 0.000000 -1.000000
vn 0.000000 0.000000 -1.000000
vn 0.000000 0.000000 -1.000000
vn 0.000000 0.000000 -1.000000
vn 0.000000 0.000000 -1.000000
vn 0.000000 0.000000 -1.000000
vn 0.000000 0.000000 -1.000000
vn 0.000000 0.000000 -1.000000
vn 0.000000 0.000000 -1.000000
vn 0.000000 0.000000 -1.000000
vn 0.000000 0.000000 -1.000000
vn 0.000000 0.000000 -1.000000
vn 0.000000 0.000000 -1.000000
vn 0.000000 0.000000 -1.000000
vn 0.000000 0.000000 -1.000000
vn 0.000000 0.000000 -1.000000
vn 0.000000 0.891661 -0.452704
vn 0.000000 0.891661 -0.452704
vn 0.000000 0.891661 -0.452704
vn 0.000000 0.891661 -0.452704
vn 0.863534 0.000000 -0.504291
vn 0.863534 0.000000 -0.504291
vn 0.863534 0.000000 -0.504291
vn 0.863534 0.000000 -0.504291
vn 0.000000 -0.891661 -0.452704
vn 0.000000 -0.891661 -0.452704
vn 0.000000 -0.891661 -0.452704
vn 0.000000 -0.891661 -0.452704
vn -0.863512 0.000000 -0.504328
vn -0.863512 0.000000 -0.504328
vn -0.863512 0.000000 -0.504328
vn -0.863512 0.000000 -0.504328
s off
f 1/1/1 2/2/2 4/4/3 3/3/4
f 3/3/5 4/4/6 17/23/7 5/5/8
f 5/5/9 6/6/10 22/30/11 24/33/12 8/8/13 7/7/14
f 7/7/15 8/8/16 18/25/17
f 14/15/18 13/16/19 15/17/20 16/18/21
f 47/83/22 48/84/23 49/85/24 50/86/25
f 21/29/26 25/35/27 22/31/28 6/12/29 20/28/30
f 11/19/31 17/20/32 4/21/33 12/22/34
f 4/21/35 2/49/36 10/50/37 12/22/38
f 37/63/39 38/64/40 39/65/41 40/66/42 41/67/43 42/68/44
f 9/51/45 11/19/46 15/17/47 13/16/48
f 11/19/49 12/22/50 16/18/51 15/17/52
f 12/22/53 10/50/54 14/15/55 16/18/56
f 5/5/57 17/23/58 6/6/59
f 2/49/60 18/52/61 9/51/62 10/50/63
f 7/7/64 18/25/65 2/10/66 1/9/67
f 9/51/68 18/52/69 19/53/70
f 18/26/71 8/11/72 19/27/73
f 11/19/74 9/51/75 19/53/76 23/54/77 21/55/78 20/56/79
f 6/12/80 17/24/81 20/28/82
f 17/20/83 11/19/84 20/56/85
f 25/35/86 26/36/87 24/34/88 22/31/89
f 8/11/90 24/34/91 26/36/92 23/32/93 19/27/94
f 27/45/95 28/46/96 29/47/97 30/48/98
f 23/37/99 26/38/100 28/42/101 27/41/102
f 26/38/103 25/39/104 29/43/105 28/42/106
f 25/39/107 21/40/108 30/44/109 29/43/110
f 21/40/111 23/37/112 27/41/113 30/44/114
f 10/50/115 9/51/116 32/58/117 31/57/118
f 13/16/119 33/59/120 9/51/121
f 10/50/122 36/62/123 14/15/124
f 10/50/125 31/57/126 36/62/127
f 14/15/128 35/61/129 34/60/130 13/16/131
f 14/15/132 36/62/133 35/61/134
f 13/16/135 34/60/136 33/59/137
f 9/51/138 33/59/139 32/58/140
f 34/69/141 35/70/142 38/64/143 37/63/144
f 35/70/145 36/71/146 39/65/147 38/64/148
f 36/71/149 31/72/150 40/66/151 39/65/152
f 31/72/153 32/73/154 41/67/155 40/66/156
f 32/73/157 33/74/158 42/68/159 41/67/160
f 33/74/161 34/69/162 37/63/163 42/68/164
f 7/13/165 1/1/166 44/76/167 43/75/168
f 1/1/169 3/3/170 45/77/171 44/76/172
f 45/77/173 3/3/174 5/14/175 46/78/176
f 5/14/177 7/13/178 43/75/179 46/78/180
f 43/75/181 44/76/182 48/80/183 47/79/184
f 44/76/185 45/77/186 49/81/187 48/80/188
f 45/77/189 46/78/190 50/82/191 49/81/192
f 46/78/193 43/75/194 47/79/195 50/82/196
v -21.139893 7.371773 24.168457
v -21.139893 21.780113 24.168457
v 7.184570 21.780113 24.168457
v 7.184570 7.371773 24.168457
v -27.599731 0.767281 21.788818
v -28.492920 -0.000008 25.312500
v -27.599731 27.739555 21.788818
v -28.492920 28.506844 25.312500
v 13.200500 27.739555 21.788574
v 13.807434 28.506844 25.312256
v 13.200500 0.767281 21.788574
v 13.807434 -0.000008 25.312256
v -21.139771 21.780128 21.788574
v 13.807434 25.825035 25.312256
v -25.213379 24.985115 25.312256
v -21.139771 7.371773 21.788574
v -25.213379 5.994507 25.312256
v 13.807434 5.116447 25.312256
v -0.302002 27.739555 21.788574
v 0.000000 28.506844 25.312256
v 0.000000 26.971199 25.312256
v 0.000000 4.008415 25.312256
v 0.000000 -0.000008 25.312256
v -0.302002 0.767281 21.788574
v 7.184570 7.371773 21.788574
v 7.184570 21.780128 21.788574
v 0.000000 3.436691 25.312256
v 0.000000 0.765190 25.312256
v -2.285278 1.181519 25.312256
v -2.285278 3.020363 25.312256
v 2.285400 3.020363 25.312256
v 2.285400 1.181519 25.312256
v 7.184570 21.780128 25.312500
v 7.184570 7.371773 25.312500
v -21.139893 21.780128 25.312500
v -21.139893 7.371773 25.312500
v 14.036438 28.506844 22.493408
v 0.000000 28.506844 22.493408
v -28.492920 28.506844 22.493408
v -28.492920 0.000000 22.493408
v 0.000000 -0.000008 22.493408
v 14.036438 0.000000 22.493408
vt 0.302002 0.265205
vt 0.302002 0.265205
vt 0.302002 0.265205
vt 0.302002 0.265205
vt 0.135652 0.375655
vt 0.135652 0.375655
vt 0.135652 0.375655
vt 0.135652 0.375655
vt 0.135652 0.375655
vt 0.135652 0.375655
vt 0.135652 0.375655
vt 0.135652 0.375655
vt 0.112793 0.378815
vt 0.112793 0.378815
vt 0.112793 0.378807
vt 0.112793 0.378807
vt 0.135652 0.375655
vt 0.135652 0.375655
vt 0.135652 0.375655
vt 0.135652 0.375655
vt 0.112793 0.378807
vt 0.112793 0.378807
vt 0.135652 0.375655
vt 0.135652 0.375655
vt 0.112793 0.378815
vt 0.112793 0.378807
vt 0.112793 0.378807
vt 0.112793 0.378807
vt 0.112793 0.378815
vt 0.135652 0.375655
vt 0.135652 0.375655
vt 0.135652 0.375655
vt 0.135652 0.375655
vt 0.135652 0.375655
vt 0.135652 0.375655
vt 0.135652 0.375655
vt 0.135652 0.375655
vt 0.112793 0.378807
vt 0.135652 0.375655
vt 0.135652 0.375655
vt 0.135652 0.375655
vt 0.135652 0.375655
vt 0.135652 0.375655
vt 0.135010 0.300746
vt 0.135010 0.300746
vt 0.135010 0.300746
vt 0.135010 0.300746
vt 0.135010 0.300746
vt 0.135010 0.300746
vt 0.135652 0.375655
vt 0.135652 0.375655
vt 0.135652 0.375655
vt 0.101318 0.222244
vt 0.101318 0.222244
vt 0.101318 0.222244
vt 0.101318 0.222244
vt 0.101318 0.222244
vt 0.101318 0.222244
vt 0.101318 0.222244
vt 0.101318 0.222244
vt 0.101318 0.222244
vt 0.101318 0.222244
vt 0.101074 0.228989
vt 0.101074 0.228989
vt 0.101074 0.228989
vt 0.101074 0.228989
vt 0.101074 0.228989
vt 0.101074 0.228989
vt 0.101074 0.228989
vt 0.101074 0.228989
vt 0.135652 0.375655
vt 0.135652 0.375655
vt 0.135652 0.375655
vt 0.135652 0.375655
vt 0.135652 0.375655
vt 0.135652 0.375655
vt 0.135652 0.375655
vt 0.112793 0.378815
vt 0.112793 0.378815
vt 0.112793 0.378807
vt 0.112793 0.378807
vn 0.000000 0.000000 1.000000
vn 0.000000 0.000000 1.000000
vn 0.000000 0.000000 1.000000
vn 0.000000 0.000000 1.000000
vn -1.000000 0.000000 0.000000
vn -1.000000 0.000000 0.000000
vn -1.000000 0.000000 0.000000
vn -1.000000 0.000000 0.000000
vn 0.000000 1.000000 0.000000
vn 0.000000 1.000000 0.000000
vn 0.000000 1.000000 0.000000
vn 0.000000 1.000000 0.000000
vn 0.644610 0.000000 -0.764512
vn 0.644610 0.000000 -0.764512
vn 0.644610 0.000000 -0.764512
vn 0.644610 0.000000 -0.764512
vn 0.000000 -1.000000 -0.000001
vn 0.000000 -1.000000 -0.000001
vn 0.000000 -1.000000 -0.000001
vn 0.000000 -1.000000 -0.000001
vn 0.000000 0.000000 -1.000000
vn 0.000000 0.000000 -1.000000
vn 0.000000 0.000000 -1.000000
vn 0.000000 0.000000 -1.000000
vn 0.000074 0.000000 1.000000
vn 0.000074 0.000000 1.000000
vn 0.000074 0.000000 1.000000
vn 0.000074 0.000000 1.000000
vn -0.000037 0.000000 -1.000000
vn -0.000037 0.000000 -1.000000
vn -0.000037 0.000000 -1.000000
vn -0.000037 0.000000 -1.000000
vn 0.000000 0.000000 -1.000000
vn 0.000000 0.000000 -1.000000
vn 0.000000 0.000000 -1.000000
vn 0.000000 0.000000 1.000000
vn 0.000000 0.000000 1.000000
vn 0.000000 0.000000 1.000000
vn 0.000000 0.000000 1.000000
vn 0.000000 0.000000 1.000000
vn 0.000000 0.000000 1.000000
vn 0.000000 0.000000 1.000000
vn 0.000000 0.000000 1.000000
vn 0.000000 0.000000 -1.000000
vn 0.000000 0.000000 -1.000000
vn 0.000000 0.000000 -1.000000
vn 0.000000 1.000000 0.000000
vn 0.000000 1.000000 0.000000
vn 0.000000 1.000000 0.000000
vn 0.000000 1.000000 0.000000
vn 0.000006 -0.000044 1.000000
vn 0.000006 -0.000044 1.000000
vn 0.000006 -0.000044 1.000000
vn 0.000006 -0.000044 1.000000
vn -0.000000 0.000000 1.000000
vn -0.000000 0.000000 1.000000
vn -0.000000 0.000000 1.000000
vn -0.000000 0.000000 1.000000
vn -0.000000 -1.000000 -0.000001
vn -0.000000 -1.000000 -0.000001
vn -0.000000 -1.000000 -0.000001
vn -0.000000 -1.000000 -0.000001
vn -0.000004 -0.000014 -1.000000
vn -0.000004 -0.000014 -1.000000
vn -0.000004 -0.000014 -1.000000
vn -0.000004 -0.000014 -1.000000
vn -0.000004 0.000015 -1.000000
vn -0.000004 0.000015 -1.000000
vn -0.000004 0.000015 -1.000000
vn -0.000004 0.000015 -1.000000
vn 0.000000 0.000000 1.000000
vn 0.000000 0.000000 1.000000
vn 0.000000 0.000000 1.000000
vn 0.000000 0.000000 1.000000
vn 0.000000 0.000000 1.000000
vn 0.000000 0.000000 1.000000
vn 0.000000 0.000000 1.000000
vn 0.000000 0.000000 1.000000
vn 0.000008 0.000016 1.000000
vn 0.000008 0.000016 1.000000
vn 0.000008 0.000016 1.000000
vn 0.000008 0.000016 1.000000
vn 0.000006 0.000029 1.000000
vn 0.000006 0.000029 1.000000
vn 0.000006 0.000029 1.000000
vn 0.000006 0.000029 1.000000
vn 0.000000 0.000000 1.000000
vn 0.000000 0.000000 1.000000
vn 0.000000 0.000000 1.000000
vn 0.000000 0.000000 1.000000
vn 0.000000 0.000000 1.000000
vn 0.000000 0.000000 1.000000
vn 0.000000 0.000000 1.000000
vn 0.000000 0.000000 1.000000
vn 0.000005 0.000053 1.000000
vn 0.000005 0.000053 1.000000
vn 0.000005 0.000053 1.000000
vn 0.000007 -0.000088 1.000000
vn 0.000007 -0.000088 1.000000
vn 0.000007 -0.000088 1.000000
vn 0.000037 0.000000 1.000000
vn 0.000037 0.000000 1.000000
vn 0.000037 0.000000 1.000000
vn 0.000037 0.000000 1.000000
vn -0.000002 0.000055 1.000000
vn -0.000002 0.000055 1.000000
vn -0.000002 0.000055 1.000000
vn -0.000002 0.000055 1.000000
vn -0.000060 0.000000 1.000000
vn -0.000060 0.000000 1.000000
vn -0.000060 0.000000 1.000000
vn -0.000060 0.000000 1.000000
vn -0.000003 -0.000095 1.000000
vn -0.000003 -0.000095 1.000000
vn -0.000003 -0.000095 1.000000
vn -0.000003 -0.000095 1.000000
vn -1.000000 0.000000 0.000000
vn -1.000000 0.000000 0.000000
vn -1.000000 0.000000 0.000000
vn -1.000000 0.000000 0.000000
vn 0.000000 1.000000 0.000000
vn 0.000000 1.000000 0.000000
vn 0.000000 1.000000 0.000000
vn 0.000000 1.000000 0.000000
vn 1.000000 0.000000 0.000035
vn 1.000000 0.000000 0.000035
vn 1.000000 0.000000 0.000035
vn 1.000000 0.000000 0.000035
vn 0.000000 -1.000000 0.000000
vn 0.000000 -1.000000 0.000000
vn 0.000000 -1.000000 0.000000
vn 0.000000 -1.000000 0.000000
vn 0.000000 0.676499 -0.736443
vn 0.000000 0.676499 -0.736443
vn 0.000000 0.676499 -0.736443
vn 0.000000 0.676499 -0.736443
vn -0.000003 0.676435 -0.736502
vn -0.000003 0.676435 -0.736502
vn -0.000003 0.676435 -0.736502
vn -0.000003 0.676435 -0.736502
vn -0.619342 0.000000 -0.785121
vn -0.619342 0.000000 -0.785121
vn -0.619342 0.000000 -0.785121
vn -0.619342 0.000000 -0.785121
vn -0.000003 -0.676437 -0.736500
vn -0.000003 -0.676437 -0.736500
vn -0.000003 -0.676437 -0.736500
vn -0.000003 -0.676437 -0.736500
vn 0.000000 -0.676501 -0.736441
vn 0.000000 -0.676501 -0.736441
vn 0.000000 -0.676501 -0.736441
vn 0.000000 -0.676501 -0.736441
vn 0.996716 0.000000 0.080973
vn 0.996716 0.000000 0.080974
vn 0.996716 0.000000 0.080974
vn 0.996716 0.000000 0.080973
vn 0.996716 0.000000 0.080973
vn 0.996716 0.000000 0.080973
vn 0.996716 0.000000 0.080973
vn 0.996716 0.000000 0.080974
vn 0.996716 0.000000 0.080974
vn 0.996716 0.000000 0.080974
s off
f 51/87/197 54/88/198 53/89/199 52/90/200
f 89/91/201 90/92/202 56/93/203 58/94/204
f 87/95/205 88/96/206 70/97/207 60/98/208
f 59/99/209 87/100/210 92/101/211 61/102/212
f 91/103/213 92/104/214 62/105/215 73/106/216
f 61/102/217 75/107/218 76/108/219 59/99/220
f 56/93/221 67/109/222 65/110/223 58/94/224
f 57/111/225 63/112/226 66/113/227 55/114/228
f 59/99/229 76/108/230 69/115/231
f 70/116/232 71/117/233 64/118/234 60/119/235
f 68/120/236 81/121/237 82/122/238 62/123/239
f 61/102/240 74/124/241 75/107/242
f 88/96/243 89/91/244 58/94/245 70/97/246
f 58/94/247 65/110/248 71/117/249 70/116/250
f 67/109/251 80/125/252 77/126/253 72/127/254
f 90/128/255 91/103/256 73/106/257 56/129/258
f 75/107/259 74/124/260 55/114/261 66/113/262
f 69/115/263 76/108/264 63/112/265 57/111/266
f 77/130/267 80/131/268 79/132/269 78/133/270
f 78/133/271 82/134/272 81/135/273 77/130/274
f 73/136/275 78/137/276 79/138/277 56/93/278
f 56/93/279 79/138/280 80/125/281 67/109/282
f 68/120/283 72/127/284 77/126/285 81/121/286
f 62/123/287 82/122/288 78/137/289 73/136/290
f 64/139/291 71/140/292 83/141/293
f 72/142/294 68/143/295 84/144/296
f 68/143/297 64/139/298 83/141/299 84/144/300
f 71/140/301 65/145/302 85/146/303 83/141/304
f 65/145/305 67/147/306 86/148/307 85/146/308
f 67/147/309 72/142/310 84/144/311 86/148/312
f 76/149/313 75/150/314 84/151/315 83/152/316
f 75/150/317 66/153/318 86/154/319 84/151/320
f 66/153/321 63/155/322 85/156/323 86/154/324
f 63/155/325 76/149/326 83/152/327 85/156/328
f 69/157/329 88/96/330 87/95/331 59/158/332
f 57/159/333 89/91/334 88/96/335 69/157/336
f 55/160/337 90/92/338 89/91/339 57/159/340
f 74/161/341 91/103/342 90/128/343 55/162/344
f 61/163/345 92/104/346 91/103/347 74/161/348
f 87/100/349 60/164/350 64/165/351
f 92/101/352 87/100/353 64/165/354 68/166/355
f 92/101/356 68/166/357 62/167/358
