# This file uses meters as units for non-parametric coordinates.

v -58.226078 0.000000 -72.979385
v -58.226082 0.000000 81.103203
v -57.068829 3.136459 -71.884109
v -57.068832 3.136459 80.007858
v 138.585968 3.136459 -71.884117
v 138.585968 3.136459 80.007858
v 139.743530 0.000000 -72.979378
v 139.743546 0.000000 81.103195
v -45.250065 3.136459 -60.804897
v -45.250061 3.136459 68.928436
v 126.767471 3.136459 68.928436
v 126.767471 3.136459 -60.804901
v -20.396111 3.136459 -34.099991
v -20.396111 3.136459 42.223679
v 101.913651 3.136459 42.223679
v 101.913651 3.136459 -34.099991
v -14.574274 3.136459 -27.668203
v -14.574272 3.136459 35.791748
v 96.091736 3.136459 35.791748
v 96.091736 3.136459 -27.668205
v -8.588528 3.136459 -20.461605
v -8.588528 3.136459 28.585217
v 90.105995 3.136459 28.585213
v 90.105988 3.136459 -20.461609
v 115.152542 3.136459 -48.238167
v -33.635075 3.136459 -48.238163
v -33.635075 3.136459 56.361706
v 115.152542 3.136459 56.361710
v -27.827576 3.136459 50.078232
v -27.827576 3.136459 -41.954689
v 109.345116 3.136459 -41.954689
v 109.345108 3.136459 50.078232
v -2.088588 3.136459 -10.558998
v -2.088587 3.136459 18.682545
v 83.606003 3.136459 18.682541
v 83.605995 3.136459 -10.558998
v 157.608032 3.136459 -50.291801
v 144.167343 3.136459 -42.540550
v 130.958176 3.136459 -33.748566
v 124.353622 3.136459 -29.352509
v 115.902130 3.136459 -23.857178
v 109.281113 3.136459 -19.357361
v 99.430191 3.136459 -12.911980
v 89.619461 3.136459 -5.975372
v -8.102069 3.136459 -5.975375
v -17.912714 3.136459 -12.911980
v -27.763657 3.136459 -19.357357
v -34.384598 3.136459 -23.857174
v -42.836082 3.136459 -29.352509
v -49.440704 3.136459 -33.748566
v -62.649952 3.136459 -42.540546
v -76.090942 3.136459 -50.291801
v -77.407028 0.000000 -51.058060
v 158.924500 0.000000 -51.058067
v -77.407028 0.000000 59.181889
v -76.090935 3.136459 58.415565
v -62.649948 3.136459 50.664131
v -49.440704 3.136459 41.872154
v -42.836082 3.136459 37.476089
v -34.384598 3.136459 31.980879
v -27.763657 3.136459 27.480942
v -17.912712 3.136459 21.035622
v -8.102068 3.136459 14.098959
v 89.619461 3.136459 14.098961
v 99.430191 3.136459 21.035622
v 109.281113 3.136459 27.480942
v 115.902130 3.136459 31.980881
v 124.353622 3.136459 37.476089
v 130.958176 3.136459 41.872147
v 144.167343 3.136459 50.664124
v 157.608017 3.136459 58.415558
v 158.924500 0.000000 59.181885
vt 0.102451 0.327609
vt 0.102451 0.327609
vt 0.102451 0.327609
vt 0.102451 0.327609
vt 0.102451 0.327609
vt 0.102451 0.327609
vt 0.102451 0.327609
vt 0.102451 0.327609
vt 0.102451 0.327609
vt 0.102451 0.327609
vt 0.102451 0.327609
vt 0.102451 0.327609
vt 0.102451 0.327609
vt 0.102451 0.327609
vt 0.102365 0.377576
vt 0.102451 0.327609
vt 0.102451 0.327609
vt 0.102451 0.327609
vt 0.102451 0.327609
vt 0.102365 0.377576
vt 0.102365 0.377576
vt 0.102365 0.377576
vt 0.102365 0.280930
vt 0.102365 0.280930
vt 0.102365 0.280930
vt 0.102365 0.280930
vt 0.102365 0.377576
vt 0.102365 0.377576
vt 0.102365 0.377576
vt 0.102365 0.377576
vt 0.102451 0.327200
vt 0.102365 0.377576
vt 0.102365 0.377576
vt 0.102365 0.377576
vt 0.102365 0.377576
vt 0.102451 0.327200
vt 0.102451 0.327200
vt 0.102451 0.327200
vt 0.102365 0.280930
vt 0.102365 0.280930
vt 0.102365 0.280930
vt 0.102365 0.280930
vt 0.102365 0.280930
vt 0.102365 0.280930
vt 0.102365 0.377576
vt 0.102365 0.280930
vt 0.102365 0.280930
vt 0.102365 0.280930
vt 0.102365 0.377576
vt 0.102365 0.280930
vt 0.102365 0.377576
vt 0.102365 0.280930
vt 0.102365 0.377576
vt 0.102365 0.280930
vt 0.102365 0.377576
vt 0.102365 0.377576
vt 0.102365 0.377576
vt 0.102365 0.377576
vt 0.102365 0.377576
vt 0.102365 0.377576
vt 0.102365 0.377576
vt 0.102365 0.377576
vt 0.102466 0.327545
vt 0.102466 0.327545
vt 0.102466 0.327545
vt 0.102466 0.327545
vt 0.102466 0.327545
vt 0.102466 0.327545
vt 0.102466 0.327545
vt 0.102466 0.327545
vt 0.102451 0.327200
vt 0.102451 0.327200
vt 0.102451 0.327200
vt 0.102451 0.327200
vt 0.102380 0.378721
vt 0.102380 0.378721
vt 0.102380 0.378721
vt 0.102380 0.378721
vt 0.102451 0.327609
vt 0.102451 0.327609
vt 0.102365 0.377576
vt 0.102466 0.327545
vt 0.102365 0.377576
vt 0.102466 0.327545
vt 0.102365 0.377576
vt 0.102365 0.377576
vt 0.102365 0.280930
vt 0.102365 0.280930
vt 0.102365 0.377576
vt 0.102365 0.377576
vt 0.102451 0.327200
vt 0.102451 0.327200
vt 0.102380 0.378721
vt 0.102380 0.378721
vt 0.102451 0.327200
vt 0.102451 0.327200
vt 0.102365 0.377576
vt 0.102365 0.377576
vt 0.102365 0.280930
vt 0.102365 0.280930
vt 0.102365 0.377576
vt 0.102466 0.327545
vt 0.102365 0.377576
vt 0.102466 0.327545
vt 0.102365 0.377576
vt 0.102365 0.377576
vt 0.102451 0.327609
vt 0.102451 0.327609
vt 0.102451 0.327609
vt 0.102451 0.327609
vt 0.102451 0.327609
vt 0.102451 0.327609
vt 0.102451 0.327609
vt 0.102451 0.327609
vt 0.102365 0.377576
vt 0.102451 0.327609
vt 0.102466 0.327545
vt 0.102365 0.377576
vt 0.102466 0.327545
vt 0.102365 0.377576
vt 0.102365 0.280930
vt 0.102365 0.377576
vt 0.102365 0.377576
vt 0.102365 0.280930
vt 0.102451 0.327200
vt 0.102365 0.377576
vt 0.102380 0.378721
vt 0.102451 0.327200
vt 0.102451 0.327200
vt 0.102380 0.378721
vt 0.102365 0.377576
vt 0.102451 0.327200
vt 0.102365 0.280930
vt 0.102365 0.377576
vt 0.102365 0.377576
vt 0.102365 0.280930
vt 0.102466 0.327545
vt 0.102365 0.377576
vt 0.102466 0.327545
vt 0.102365 0.377576
vt 0.102451 0.327609
vt 0.102365 0.377576
vt 0.102451 0.327609
vt 0.102451 0.327609
vn -0.922110 0.386927 0.000000
vn -0.922110 0.386927 0.000000
vn -0.922110 0.386927 0.000000
vn -0.922110 0.386927 0.000000
vn 0.000000 1.000000 -0.000000
vn 0.000000 1.000000 -0.000000
vn 0.000000 1.000000 -0.000000
vn 0.000000 1.000000 -0.000000
vn 0.922068 0.387027 0.000000
vn 0.922068 0.387027 0.000000
vn 0.922068 0.387027 0.000000
vn 0.922068 0.387027 0.000000
vn 0.000000 -1.000000 0.000000
vn 0.000000 -1.000000 0.000000
vn 0.000000 -1.000000 0.000000
vn 0.000000 -1.000000 0.000000
vn 0.000000 0.329701 0.944085
vn 0.000000 0.329701 0.944085
vn 0.000000 0.329701 0.944085
vn 0.000000 0.329701 0.944085
vn 0.000000 0.329682 -0.944092
vn 0.000000 0.329682 -0.944092
vn 0.000000 0.329682 -0.944092
vn 0.000000 0.329682 -0.944092
vn 0.000000 1.000000 -0.000000
vn 0.000000 1.000000 -0.000000
vn 0.000000 1.000000 -0.000000
vn 0.000000 1.000000 -0.000000
vn 0.000000 1.000000 0.000000
vn 0.000000 1.000000 0.000000
vn 0.000000 1.000000 0.000000
vn 0.000000 1.000000 0.000000
vn 0.000000 1.000000 -0.000000
vn 0.000000 1.000000 -0.000000
vn 0.000000 1.000000 -0.000000
vn 0.000000 1.000000 -0.000000
vn 0.000000 1.000000 0.000000
vn 0.000000 1.000000 0.000000
vn 0.000000 1.000000 0.000000
vn 0.000000 1.000000 0.000000
vn 0.000000 1.000000 0.000000
vn 0.000000 1.000000 0.000000
vn 0.000000 1.000000 0.000000
vn 0.000000 1.000000 0.000000
vn 0.000000 1.000000 0.000000
vn 0.000000 1.000000 0.000000
vn 0.000000 1.000000 0.000000
vn 0.000000 1.000000 0.000000
vn 0.000000 1.000000 0.000000
vn 0.000000 1.000000 0.000000
vn 0.000000 1.000000 0.000000
vn 0.000000 1.000000 0.000000
vn 0.000000 1.000000 -0.000000
vn 0.000000 1.000000 -0.000000
vn 0.000000 1.000000 -0.000000
vn 0.000000 1.000000 -0.000000
vn 0.000000 1.000000 0.000000
vn 0.000000 1.000000 0.000000
vn 0.000000 1.000000 0.000000
vn 0.000000 1.000000 0.000000
vn 0.000000 1.000000 -0.000000
vn 0.000000 1.000000 -0.000000
vn 0.000000 1.000000 -0.000000
vn 0.000000 1.000000 -0.000000
vn 0.000000 1.000000 0.000000
vn 0.000000 1.000000 0.000000
vn 0.000000 1.000000 0.000000
vn 0.000000 1.000000 0.000000
vn 0.000000 1.000000 0.000000
vn 0.000000 1.000000 0.000000
vn 0.000000 1.000000 0.000000
vn 0.000000 1.000000 0.000000
vn 0.000000 1.000000 0.000000
vn 0.000000 1.000000 0.000000
vn 0.000000 1.000000 0.000000
vn 0.000000 1.000000 0.000000
vn 0.000000 1.000000 0.000000
vn 0.000000 1.000000 0.000000
vn 0.000000 1.000000 0.000000
vn 0.000000 1.000000 0.000000
vn 0.000000 1.000000 0.000000
vn 0.000000 1.000000 0.000000
vn 0.000000 1.000000 0.000000
vn 0.000000 1.000000 0.000000
vn 0.000000 1.000000 -0.000000
vn 0.000000 1.000000 -0.000000
vn 0.000000 1.000000 -0.000000
vn 0.000000 1.000000 -0.000000
vn 0.000000 1.000000 0.000000
vn 0.000000 1.000000 0.000000
vn 0.000000 1.000000 0.000000
vn 0.000000 1.000000 0.000000
vn 0.000000 1.000000 -0.000000
vn 0.000000 1.000000 -0.000000
vn 0.000000 1.000000 -0.000000
vn 0.000000 1.000000 -0.000000
vn 0.000000 1.000000 -0.000000
vn 0.000000 1.000000 -0.000000
vn 0.000000 1.000000 -0.000000
vn 0.000000 1.000000 -0.000000
vn 0.000000 1.000000 0.000000
vn 0.000000 1.000000 0.000000
vn 0.000000 1.000000 0.000000
vn 0.000000 1.000000 0.000000
vn 0.000000 1.000000 0.000000
vn 0.000000 1.000000 0.000000
vn 0.000000 1.000000 0.000000
vn 0.000000 1.000000 0.000000
vn 0.000000 1.000000 0.000000
vn 0.000000 1.000000 0.000000
vn 0.000000 1.000000 0.000000
vn 0.000000 1.000000 0.000000
vn 0.000000 1.000000 0.000000
vn 0.000000 1.000000 0.000000
vn 0.000000 1.000000 0.000000
vn 0.000000 1.000000 0.000000
vn 0.000000 1.000000 0.000000
vn 0.000000 1.000000 0.000000
vn 0.000000 1.000000 0.000000
vn 0.000000 1.000000 0.000000
vn 0.000000 1.000000 -0.000000
vn 0.000000 1.000000 -0.000000
vn 0.000000 1.000000 -0.000000
vn 0.000000 1.000000 -0.000000
vn 0.000000 1.000000 -0.000000
vn 0.000000 1.000000 -0.000000
vn 0.000000 1.000000 -0.000000
vn 0.000000 1.000000 -0.000000
vn 0.000000 1.000000 0.000000
vn 0.000000 1.000000 0.000000
vn 0.000000 1.000000 0.000000
vn 0.000000 1.000000 0.000000
vn 0.000000 1.000000 0.000000
vn 0.000000 1.000000 0.000000
vn 0.000000 1.000000 0.000000
vn 0.000000 1.000000 0.000000
vn 0.000000 1.000000 0.000000
vn 0.000000 1.000000 0.000000
vn 0.000000 1.000000 0.000000
vn 0.000000 1.000000 0.000000
vn 0.000000 1.000000 0.000000
vn 0.000000 1.000000 0.000000
vn 0.000000 1.000000 0.000000
vn 0.000000 1.000000 0.000000
vn 0.000000 1.000000 0.000000
vn 0.000000 1.000000 0.000000
vn 0.000000 1.000000 0.000000
vn 0.000000 1.000000 0.000000
vn 0.000000 1.000000 0.000000
vn 0.000000 1.000000 0.000000
vn 0.000000 1.000000 0.000000
vn 0.000000 1.000000 0.000000
vn 0.000000 1.000000 0.000000
vn 0.000000 1.000000 0.000000
vn 0.000000 1.000000 0.000000
vn 0.000000 1.000000 0.000000
vn 0.000000 1.000000 -0.000000
vn 0.000000 1.000000 -0.000000
vn 0.000000 1.000000 -0.000000
vn 0.000000 1.000000 -0.000000
vn 0.000000 1.000000 0.000000
vn 0.000000 1.000000 0.000000
vn 0.000000 1.000000 0.000000
vn 0.000000 1.000000 0.000000
vn 0.000000 1.000000 0.000000
vn 0.000000 1.000000 0.000000
vn 0.000000 1.000000 0.000000
vn 0.000000 1.000000 0.000000
vn 0.000000 1.000000 0.000000
vn 0.000000 1.000000 0.000000
vn 0.000000 1.000000 0.000000
vn 0.000000 1.000000 0.000000
vn 0.000000 1.000000 -0.000000
vn 0.000000 1.000000 -0.000000
vn 0.000000 1.000000 -0.000000
vn 0.000000 1.000000 -0.000000
vn 0.000000 1.000000 -0.000000
vn 0.000000 1.000000 -0.000000
vn 0.000000 1.000000 -0.000000
vn 0.000000 1.000000 -0.000000
vn 0.000000 1.000000 0.000000
vn 0.000000 1.000000 0.000000
vn 0.000000 1.000000 0.000000
vn 0.000000 1.000000 0.000000
vn 0.000000 1.000000 0.000000
vn 0.000000 1.000000 0.000000
vn 0.000000 1.000000 0.000000
vn 0.000000 1.000000 0.000000
vn 0.000000 1.000000 0.000000
vn 0.000000 1.000000 0.000000
vn 0.000000 1.000000 0.000000
vn 0.000000 1.000000 0.000000
vn 0.000000 1.000000 0.000000
vn 0.000000 1.000000 0.000000
vn 0.000000 1.000000 0.000000
vn 0.000000 1.000000 0.000000
vn -0.674260 0.441524 -0.591971
vn -0.674260 0.441524 -0.591971
vn -0.674260 0.441524 -0.591971
vn -0.674260 0.441524 -0.591971
vn 0.000000 -1.000000 0.000000
vn 0.000000 -1.000000 0.000000
vn 0.000000 -1.000000 0.000000
vn 0.000000 -1.000000 0.000000
vn 0.674238 0.441584 -0.591951
vn 0.674238 0.441584 -0.591951
vn 0.674238 0.441584 -0.591951
vn 0.674238 0.441584 -0.591951
vn -0.674256 0.441536 0.591967
vn -0.674256 0.441536 0.591967
vn -0.674255 0.441536 0.591967
vn -0.674256 0.441536 0.591967
vn 0.000000 1.000000 0.000000
vn 0.000000 1.000000 0.000000
vn 0.000000 1.000000 0.000000
vn 0.000000 1.000000 0.000000
vn 0.000000 1.000000 0.000000
vn 0.000000 1.000000 0.000000
vn 0.000000 1.000000 0.000000
vn 0.000000 1.000000 0.000000
vn 0.000000 1.000000 0.000000
vn 0.000000 1.000000 0.000000
vn 0.000000 1.000000 0.000000
vn 0.000000 1.000000 0.000000
vn 0.000000 1.000000 0.000000
vn 0.000000 1.000000 0.000000
vn 0.000000 1.000000 0.000000
vn 0.000000 1.000000 0.000000
vn 0.000000 1.000000 0.000000
vn 0.000000 1.000000 0.000000
vn 0.000000 1.000000 0.000000
vn 0.000000 1.000000 0.000000
vn 0.000000 1.000000 -0.000000
vn 0.000000 1.000000 -0.000000
vn 0.000000 1.000000 -0.000000
vn 0.000000 1.000000 -0.000000
vn 0.000000 1.000000 0.000000
vn 0.000000 1.000000 0.000000
vn 0.000000 1.000000 0.000000
vn 0.000000 1.000000 0.000000
vn 0.000000 1.000000 -0.000000
vn 0.000000 1.000000 -0.000000
vn 0.000000 1.000000 -0.000000
vn 0.000000 1.000000 -0.000000
vn 0.000000 1.000000 0.000000
vn 0.000000 1.000000 0.000000
vn 0.000000 1.000000 0.000000
vn 0.000000 1.000000 0.000000
vn 0.000000 1.000000 0.000000
vn 0.000000 1.000000 0.000000
vn 0.000000 1.000000 0.000000
vn 0.000000 1.000000 0.000000
vn 0.000000 1.000000 -0.000000
vn 0.000000 1.000000 -0.000000
vn 0.000000 1.000000 -0.000000
vn 0.000000 1.000000 -0.000000
vn 0.000000 1.000000 0.000000
vn 0.000000 1.000000 0.000000
vn 0.000000 1.000000 0.000000
vn 0.000000 1.000000 0.000000
vn 0.000000 1.000000 0.000000
vn 0.000000 1.000000 0.000000
vn 0.000000 1.000000 0.000000
vn 0.000000 1.000000 0.000000
vn 0.000000 1.000000 0.000000
vn 0.000000 1.000000 0.000000
vn 0.000000 1.000000 0.000000
vn 0.000000 1.000000 0.000000
vn 0.000000 1.000000 0.000000
vn 0.000000 1.000000 0.000000
vn 0.000000 1.000000 0.000000
vn 0.000000 1.000000 0.000000
vn 0.674234 0.441597 0.591947
vn 0.674234 0.441597 0.591947
vn 0.674234 0.441597 0.591947
vn 0.674234 0.441597 0.591947
vn 0.000000 -1.000000 0.000000
vn 0.000000 -1.000000 0.000000
vn 0.000000 -1.000000 0.000000
vn 0.000000 -1.000000 0.000000
s off
f 55/112/1 56/114/2 52/108/3 53/109/4
f 63/127/5 64/130/6 44/93/7 45/94/8
f 71/143/9 72/144/10 54/111/11 37/79/12
f 72/144/13 55/113/14 53/110/15 54/111/16
f 2/2/17 8/11/18 6/12/19 4/4/20
f 7/13/21 1/1/22 3/3/23 5/14/24
f 56/114/25 57/116/26 51/107/27 52/108/28
f 4/4/29 6/6/30 11/17/31 10/16/32
f 70/141/33 71/143/34 37/79/35 38/80/36
f 5/5/37 3/3/38 9/19/39 12/18/40
f 58/117/41 59/119/42 49/102/43 50/104/44
f 27/64/45 28/67/46 32/68/47 29/65/48
f 68/137/49 69/139/50 39/82/51 40/84/52
f 25/69/53 26/63/54 30/66/55 31/70/56
f 60/121/57 61/124/58 47/99/59 48/100/60
f 14/24/61 15/50/62 19/44/63 18/47/64
f 66/133/65 67/136/66 41/87/67 42/88/68
f 16/26/69 13/54/70 17/40/71 20/41/72
f 61/123/73 62/126/74 46/97/75 47/98/76
f 18/28/77 19/29/78 23/33/79 22/32/80
f 65/131/81 66/134/82 42/89/83 43/90/84
f 20/30/85 17/27/86 21/35/87 24/34/88
f 12/20/89 9/15/90 26/56/91 25/55/92
f 57/115/93 58/118/94 50/105/95 51/106/96
f 10/22/97 11/21/98 28/58/99 27/57/100
f 39/83/101 69/140/102 70/142/103 38/81/104
f 49/103/105 59/120/106 60/122/107 48/101/108
f 31/61/109 30/60/110 13/53/111 16/45/112
f 67/135/113 68/138/114 40/85/115 41/86/116
f 29/59/117 32/62/118 15/49/119 14/51/120
f 62/125/121 63/128/122 45/95/123 46/96/124
f 22/38/125 23/37/126 35/73/127 34/72/128
f 64/129/129 65/132/130 43/91/131 44/92/132
f 24/36/133 21/31/134 33/71/135 36/74/136
f 38/80/137 37/79/138 5/5/139 12/18/140
f 39/83/141 38/81/142 12/20/143 25/55/144
f 40/84/145 39/82/146 25/69/147 31/70/148
f 41/86/149 40/85/150 31/61/151 16/45/152
f 42/88/153 41/87/154 16/46/155 20/42/156
f 43/90/157 42/89/158 20/30/159 24/34/160
f 44/92/161 43/91/162 24/36/163 36/74/164
f 33/75/165 45/94/166 44/93/167 36/78/168
f 21/31/169 46/96/170 45/95/171 33/71/172
f 17/27/173 47/98/174 46/97/175 21/35/176
f 13/23/177 48/100/178 47/99/179 17/39/180
f 30/60/181 49/103/182 48/101/183 13/53/184
f 26/63/185 50/104/186 49/102/187 30/66/188
f 9/15/189 51/106/190 50/105/191 26/56/192
f 3/3/193 52/108/194 51/107/195 9/19/196
f 1/1/197 53/109/198 52/108/199 3/3/200
f 7/7/201 54/111/202 53/110/203 1/9/204
f 5/5/205 37/79/206 54/111/207 7/7/208
f 56/114/209 55/112/210 2/2/211 4/4/212
f 57/116/213 56/114/214 4/4/215 10/16/216
f 58/118/217 57/115/218 10/22/219 27/57/220
f 59/119/221 58/117/222 27/64/223 29/65/224
f 60/122/225 59/120/226 29/59/227 14/51/228
f 61/124/229 60/121/230 14/52/231 18/48/232
f 62/126/233 61/123/234 18/28/235 22/32/236
f 63/128/237 62/125/238 22/38/239 34/72/240
f 64/130/241 63/127/242 34/76/243 35/77/244
f 23/37/245 65/132/246 64/129/247 35/73/248
f 19/29/249 66/134/250 65/131/251 23/33/252
f 15/25/253 67/136/254 66/133/255 19/43/256
f 32/62/257 68/138/258 67/135/259 15/49/260
f 28/67/261 69/139/262 68/137/263 32/68/264
f 11/21/265 70/142/266 69/140/267 28/58/268
f 6/6/269 71/143/270 70/141/271 11/17/272
f 72/144/273 71/143/274 6/6/275 8/8/276
f 55/113/277 72/144/278 8/8/279 2/10/280
