# This file uses meters as units for non-parametric coordinates.

v -99.821136 0.000007 53.767273
v -99.821136 0.000007 61.354736
v -100.719330 80.234314 52.874023
v -100.719330 80.234314 62.247864
v -91.293213 80.234314 52.874023
v -91.293213 80.234314 62.247864
v -92.191437 0.000007 53.767273
v -92.191437 0.000007 61.354736
v -99.821136 0.000007 -61.354187
v -99.821136 0.000007 -53.766724
v -100.719330 80.234314 -62.247437
v -100.719330 80.234314 -52.873474
v -91.293213 80.234314 -62.247437
v -91.293213 80.234314 -52.873474
v -92.191437 0.000007 -61.354187
v -92.191437 0.000007 -53.766724
v 92.191238 0.000007 53.767273
v 92.191238 0.000007 61.354736
v 91.293060 80.234314 52.874023
v 91.293060 80.234314 62.247864
v 100.719177 80.234314 52.874023
v 100.719177 80.234314 62.247864
v 99.820999 0.000007 53.767273
v 99.820999 0.000007 61.354736
v 92.191238 0.000007 -61.354187
v 92.191238 0.000007 -53.766724
v 91.293060 80.234314 -62.247437
v 91.293060 80.234314 -52.873474
v 100.719177 80.234314 -62.247437
v 100.719177 80.234314 -52.873474
v 99.820999 0.000007 -61.354187
v 99.820999 0.000007 -53.766724
v -97.796875 72.600006 -59.746582
v -97.796875 72.600006 59.746948
v -97.796875 80.234299 -59.746582
v -97.796875 80.234299 59.746948
v 97.796432 80.234299 -59.746582
v 97.796432 80.234299 59.746948
v 97.796432 72.600006 -59.746582
v 97.796432 72.600006 59.746948
v -105.249115 80.234299 -64.966187
v -105.249115 80.234299 64.966309
v 105.249130 80.234299 64.966309
v 105.249130 80.234299 -64.966187
v -98.944366 85.283653 -64.966187
v -105.249115 85.283653 64.966309
v 105.249130 85.283653 64.966309
v 105.249130 85.283653 -64.966187
v -87.266235 85.283653 -50.638794
v -87.266235 85.283653 50.953369
v 86.993088 85.283653 50.953369
v 86.993088 85.283653 -50.638794
v 61.974426 85.283653 64.966309
v 92.266861 85.283653 64.966309
v 82.405045 85.283653 59.542114
v 77.964340 83.355980 64.966309
v 16.421524 80.234299 64.966309
v 39.959259 80.234299 64.966309
v 27.928223 82.514076 64.966309
v 27.441879 80.234299 62.270630
v -8.642120 85.283653 64.966309
v 8.745453 85.283653 64.966309
v -0.645493 85.283653 62.750610
v -1.105591 84.290016 64.966309
v -105.249115 82.235764 -64.966187
v -97.438202 85.283653 -57.926392
v -105.249115 85.283653 -55.527100
v -105.249115 85.283653 -3.908813
v -105.249115 85.283653 33.423828
v -101.749023 85.283653 11.047607
v -105.249115 82.538376 10.428101
v 2.619568 85.283653 -64.966187
v 38.128204 85.283653 -64.966187
v 18.614471 85.283653 -62.167847
v 19.006866 83.199127 -64.966187
v -10.826019 85.283653 -64.966187
v -4.147766 85.283653 -64.966187
v -8.006317 85.283653 -63.257141
v -7.545715 83.861298 -64.966187
v 105.249130 85.283653 -35.889587
v 105.249130 85.283653 -11.485229
v 102.364090 85.283653 -20.138672
v 102.430450 85.283653 -27.580383
v 105.249130 83.481972 -23.499573
v -89.798767 85.283653 3.965088
v 0.000000 85.283653 -52.263184
v 87.499588 85.283653 0.000122
v 0.000000 85.283653 52.364990
v -91.857025 85.283653 15.187073
v -20.237549 85.283653 53.694641
v 89.570511 85.283653 -26.207947
v 17.725510 85.283653 -53.566101
vt 0.003973 0.329431
vt 0.003973 0.329431
vt 0.003973 0.329431
vt 0.003973 0.329431
vt 0.003973 0.329431
vt 0.003973 0.329431
vt 0.003973 0.329431
vt 0.003973 0.329431
vt 0.003973 0.329431
vt 0.003973 0.329431
vt 0.003973 0.329431
vt 0.003973 0.329431
vt 0.003973 0.329431
vt 0.003973 0.329431
vt 0.003973 0.329431
vt 0.003973 0.329431
vt 0.003973 0.329431
vt 0.003973 0.329431
vt 0.003973 0.329431
vt 0.003973 0.329431
vt 0.003973 0.329431
vt 0.003973 0.329431
vt 0.003973 0.329431
vt 0.003973 0.329431
vt 0.003973 0.329431
vt 0.003973 0.329431
vt 0.003973 0.329431
vt 0.003973 0.329431
vt 0.003973 0.329431
vt 0.003973 0.329431
vt 0.003973 0.329431
vt 0.003973 0.329431
vt 0.003973 0.329431
vt 0.003973 0.329431
vt 0.003973 0.329431
vt 0.003973 0.329431
vt 0.003973 0.329431
vt 0.003973 0.329431
vt 0.003973 0.329431
vt 0.003973 0.329431
vt 0.003973 0.329431
vt 0.003973 0.329431
vt 0.003973 0.329431
vt 0.003973 0.329431
vt 0.003973 0.329431
vt 0.003973 0.329431
vt 0.003973 0.329431
vt 0.003973 0.329431
vt 0.003973 0.329431
vt 0.003973 0.329431
vt 0.003973 0.329431
vt 0.003973 0.329431
vt 0.003973 0.329431
vt 0.003973 0.329431
vt 0.003973 0.329431
vt 0.003973 0.329431
vt 0.003973 0.302065
vt 0.003973 0.302065
vt 0.003973 0.325351
vt 0.003973 0.325351
vt 0.003973 0.325351
vt 0.003973 0.325351
vt 0.003973 0.325351
vt 0.003973 0.325351
vt 0.003973 0.325351
vt 0.003973 0.325351
vt 0.003973 0.302065
vt 0.003973 0.302065
vt 0.003973 0.302065
vt 0.003973 0.302065
vt 0.003973 0.302065
vt 0.003973 0.302065
vt 0.003973 0.302065
vt 0.003973 0.302065
vt 0.003973 0.325351
vt 0.003973 0.325351
vt 0.003973 0.325351
vt 0.003973 0.325351
vt 0.003973 0.325351
vt 0.003973 0.325351
vt 0.003973 0.325351
vt 0.003973 0.325351
vt 0.003913 0.350843
vt 0.003913 0.350843
vt 0.003913 0.350843
vt 0.003913 0.350843
vt 0.003973 0.325351
vt 0.003973 0.325351
vt 0.003973 0.325351
vt 0.003973 0.325351
vt 0.003973 0.325351
vt 0.003973 0.325351
vt 0.003973 0.325351
vt 0.003973 0.325351
vt 0.003973 0.325351
vt 0.003973 0.325351
vt 0.003973 0.325351
vt 0.003973 0.325351
vt 0.003973 0.325351
vt 0.003973 0.325351
vt 0.003973 0.325351
vt 0.003973 0.325351
vt 0.003973 0.325351
vt 0.003973 0.325351
vt 0.003973 0.325351
vt 0.003973 0.325351
vt 0.003973 0.325351
vt 0.003973 0.325351
vt 0.003973 0.325351
vt 0.003973 0.325351
vt 0.003973 0.325351
vt 0.003973 0.325351
vt 0.003973 0.325351
vt 0.003973 0.325351
vt 0.003973 0.325351
vt 0.003973 0.325351
vt 0.003973 0.325351
vt 0.003973 0.325351
vt 0.003913 0.350843
vt 0.003973 0.325351
vt 0.003973 0.325351
vt 0.003913 0.350843
vt 0.003973 0.325351
vt 0.003913 0.350843
vt 0.003913 0.350843
vt 0.003973 0.325351
vt 0.003913 0.350843
vt 0.003973 0.325351
vt 0.003913 0.350843
vt 0.003973 0.325351
vt 0.003973 0.325351
vt 0.003913 0.350843
vt 0.003973 0.325351
vt 0.003913 0.350843
vt 0.003973 0.329431
vt 0.003973 0.329431
vt 0.003973 0.329431
vt 0.003973 0.329431
vt 0.003973 0.329431
vt 0.003973 0.329431
vt 0.003973 0.329431
vt 0.003973 0.329431
vt 0.003973 0.329431
vt 0.003973 0.329431
vt 0.003973 0.329431
vt 0.003973 0.329431
vt 0.003973 0.329431
vt 0.003973 0.329431
vt 0.003973 0.329431
vt 0.003973 0.329431
vt 0.003973 0.329431
vt 0.003973 0.329431
vt 0.003973 0.329431
vt 0.003973 0.329431
vt 0.003973 0.329431
vt 0.003973 0.329431
vt 0.003973 0.329431
vt 0.003973 0.329431
vt 0.003973 0.302065
vt 0.003973 0.302065
vt 0.003973 0.302065
vt 0.003973 0.302065
vt 0.003973 0.302065
vt 0.003973 0.302065
vt 0.003973 0.302065
vt 0.003973 0.302065
vt 0.003973 0.302065
vt 0.003973 0.302065
vn -0.999937 -0.011194 0.000000
vn -0.999937 -0.011194 0.000000
vn -0.999937 -0.011194 0.000000
vn -0.999937 -0.011194 0.000000
vn 0.999937 -0.011194 0.000000
vn 0.999937 -0.011194 0.000000
vn 0.999937 -0.011194 0.000000
vn 0.999937 -0.011194 0.000000
vn 0.000000 -1.000000 0.000000
vn 0.000000 -1.000000 0.000000
vn 0.000000 -1.000000 0.000000
vn 0.000000 -1.000000 0.000000
vn 0.000000 -0.011131 0.999938
vn 0.000000 -0.011131 0.999938
vn 0.000000 -0.011131 0.999938
vn 0.000000 -0.011131 0.999938
vn 0.000000 -0.011132 -0.999938
vn 0.000000 -0.011132 -0.999938
vn 0.000000 -0.011132 -0.999938
vn 0.000000 -0.011132 -0.999938
vn -0.999937 -0.011194 0.000000
vn -0.999937 -0.011194 0.000000
vn -0.999937 -0.011194 0.000000
vn -0.999937 -0.011194 0.000000
vn 0.999937 -0.011194 0.000000
vn 0.999937 -0.011194 0.000000
vn 0.999937 -0.011194 0.000000
vn 0.999937 -0.011194 0.000000
vn 0.000000 -1.000000 0.000000
vn 0.000000 -1.000000 0.000000
vn 0.000000 -1.000000 0.000000
vn 0.000000 -1.000000 0.000000
vn 0.000000 -0.011132 0.999938
vn 0.000000 -0.011132 0.999938
vn 0.000000 -0.011132 0.999938
vn 0.000000 -0.011132 0.999938
vn 0.000000 -0.011132 -0.999938
vn 0.000000 -0.011132 -0.999938
vn 0.000000 -0.011132 -0.999938
vn 0.000000 -0.011132 -0.999938
vn -0.999937 -0.011194 0.000000
vn -0.999937 -0.011194 0.000000
vn -0.999937 -0.011194 0.000000
vn -0.999937 -0.011194 0.000000
vn 0.999937 -0.011194 0.000000
vn 0.999937 -0.011194 0.000000
vn 0.999937 -0.011194 0.000000
vn 0.999937 -0.011194 0.000000
vn 0.000000 -1.000000 0.000000
vn 0.000000 -1.000000 0.000000
vn 0.000000 -1.000000 0.000000
vn 0.000000 -1.000000 0.000000
vn 0.000000 -0.011131 0.999938
vn 0.000000 -0.011131 0.999938
vn 0.000000 -0.011131 0.999938
vn 0.000000 -0.011131 0.999938
vn 0.000000 -0.011132 -0.999938
vn 0.000000 -0.011132 -0.999938
vn 0.000000 -0.011132 -0.999938
vn 0.000000 -0.011132 -0.999938
vn -0.999937 -0.011194 0.000000
vn -0.999937 -0.011194 0.000000
vn -0.999937 -0.011194 0.000000
vn -0.999937 -0.011194 0.000000
vn 0.999937 -0.011194 0.000000
vn 0.999937 -0.011194 0.000000
vn 0.999937 -0.011194 0.000000
vn 0.999937 -0.011194 0.000000
vn 0.000000 -1.000000 0.000000
vn 0.000000 -1.000000 0.000000
vn 0.000000 -1.000000 0.000000
vn 0.000000 -1.000000 0.000000
vn 0.000000 -0.011132 0.999938
vn 0.000000 -0.011132 0.999938
vn 0.000000 -0.011132 0.999938
vn 0.000000 -0.011132 0.999938
vn 0.000000 -0.011132 -0.999938
vn 0.000000 -0.011132 -0.999938
vn 0.000000 -0.011132 -0.999938
vn 0.000000 -0.011132 -0.999938
vn -1.000000 0.000000 0.000000
vn -1.000000 0.000000 0.000000
vn -1.000000 0.000000 0.000000
vn -1.000000 0.000000 0.000000
vn 0.000000 1.000000 0.000000
vn 0.000000 1.000000 0.000000
vn 0.000000 1.000000 0.000000
vn 1.000000 0.000000 0.000000
vn 1.000000 0.000000 0.000000
vn 1.000000 0.000000 0.000000
vn 1.000000 0.000000 0.000000
vn 0.000000 -1.000000 0.000000
vn 0.000000 -1.000000 0.000000
vn 0.000000 -1.000000 0.000000
vn 0.000000 -1.000000 0.000000
vn 0.000000 0.000000 1.000000
vn 0.000000 0.000000 1.000000
vn 0.000000 0.000000 1.000000
vn 0.000000 0.000000 1.000000
vn 0.000000 0.000000 -1.000000
vn 0.000000 0.000000 -1.000000
vn 0.000000 0.000000 -1.000000
vn 0.000000 0.000000 -1.000000
vn 0.000000 -1.000000 0.000000
vn 0.000000 -1.000000 0.000000
vn 0.000000 -1.000000 0.000000
vn 0.000000 -1.000000 0.000000
vn 0.000000 -1.000000 0.000001
vn 0.000000 -1.000000 0.000001
vn 0.000000 -1.000000 0.000001
vn 0.000000 -1.000000 0.000001
vn 0.000000 -1.000000 0.000000
vn 0.000000 -1.000000 0.000000
vn 0.000000 -1.000000 0.000000
vn 0.000000 -1.000000 0.000000
vn 0.000000 -1.000000 -0.000001
vn 0.000000 -1.000000 -0.000001
vn 0.000000 -1.000000 -0.000001
vn 0.000000 -1.000000 -0.000001
vn -1.000000 0.000000 0.000000
vn -1.000000 0.000000 0.000000
vn -1.000000 0.000000 0.000000
vn -1.000000 0.000000 0.000000
vn 0.000000 0.000000 1.000000
vn 0.000000 0.000000 1.000000
vn 0.000000 0.000000 1.000000
vn 0.000000 0.000000 1.000000
vn 1.000000 0.000000 0.000000
vn 1.000000 0.000000 0.000000
vn 1.000000 0.000000 0.000000
vn 1.000000 0.000000 0.000000
vn -0.000000 0.000000 -1.000000
vn -0.000000 0.000000 -1.000000
vn -0.000000 0.000000 -1.000000
vn -0.000000 0.000000 -1.000000
vn 0.000000 1.000000 0.000000
vn 0.000000 1.000000 0.000000
vn 0.000000 1.000000 0.000000
vn 0.000000 1.000000 0.000000
vn 0.000000 1.000000 0.000001
vn 0.000000 1.000000 0.000001
vn 0.000000 1.000000 0.000001
vn 0.000000 1.000000 0.000000
vn 0.000000 1.000000 0.000000
vn 0.000000 1.000000 0.000000
vn 0.000000 1.000000 0.000000
vn 0.000000 1.000000 0.000000
vn 0.000000 1.000000 0.000000
vn 0.000000 1.000000 0.000000
vn 0.000000 1.000000 0.000000
vn 0.109114 0.905089 0.410984
vn 0.109114 0.905089 0.410984
vn 0.109114 0.905089 0.410984
vn -0.129798 0.963049 0.235987
vn -0.129798 0.963049 0.235987
vn -0.129798 0.963049 0.235987
vn 0.152166 -0.768025 0.622079
vn 0.152166 -0.768025 0.622079
vn 0.152166 -0.768025 0.622079
vn -0.140843 -0.743265 0.654004
vn -0.140843 -0.743265 0.654004
vn -0.140843 -0.743265 0.654004
vn 0.118217 0.896653 0.426658
vn 0.118217 0.896653 0.426658
vn 0.118217 0.896653 0.426658
vn -0.092350 0.915571 0.391408
vn -0.092350 0.915571 0.391408
vn -0.092350 0.915571 0.391408
vn -0.000000 0.000000 1.000000
vn -0.000000 0.000000 1.000000
vn -0.000000 0.000000 1.000000
vn -0.000000 0.000000 1.000000
vn 0.000000 0.000000 1.000000
vn 0.000000 0.000000 1.000000
vn 0.000000 0.000000 1.000000
vn 0.000000 0.000000 1.000000
vn 0.000000 0.000000 1.000000
vn 0.000000 0.000000 1.000000
vn 0.000000 0.000000 1.000000
vn 0.000000 0.000000 1.000000
vn 0.000000 0.000000 1.000000
vn 0.000000 0.000000 1.000000
vn 0.000000 0.000000 1.000000
vn 0.000000 0.000000 1.000000
vn 0.000000 0.000000 1.000000
vn 0.000000 1.000000 0.000001
vn 0.000000 1.000000 0.000001
vn 0.000000 1.000000 0.000001
vn 0.000000 1.000000 0.000001
vn 0.000000 1.000000 -0.000001
vn 0.000000 1.000000 -0.000001
vn 0.000000 1.000000 -0.000001
vn 0.000000 1.000000 -0.000001
vn 0.000000 1.000000 0.000001
vn 0.000000 1.000000 0.000001
vn 0.000000 1.000000 0.000001
vn 0.000000 1.000000 0.000001
vn 0.000000 -1.000000 -0.000000
vn 0.000000 -1.000000 -0.000000
vn 0.000000 -1.000000 -0.000000
vn 0.000000 -1.000000 -0.000000
vn 0.000000 -1.000000 0.000000
vn 0.000000 -1.000000 0.000000
vn 0.000000 -1.000000 0.000000
vn 0.000000 1.000000 0.000002
vn 0.000000 1.000000 0.000002
vn 0.000000 1.000000 0.000002
vn -0.417935 0.864524 -0.279157
vn -0.417934 0.864524 -0.279157
vn -0.417934 0.864524 -0.279157
vn -0.626421 0.765576 0.146594
vn -0.626421 0.765576 0.146594
vn -0.626421 0.765576 0.146594
vn -0.603987 0.791375 -0.094476
vn -0.603987 0.791375 -0.094476
vn -0.603987 0.791375 -0.094476
vn 0.000000 1.000000 0.000000
vn 0.000000 1.000000 0.000000
vn 0.000000 1.000000 0.000000
vn 0.000000 1.000000 0.000000
vn 0.000000 1.000000 0.000000
vn 0.000000 1.000000 0.000000
vn 0.000000 1.000000 0.000000
vn 0.000000 1.000000 0.000000
vn -1.000000 0.000000 0.000000
vn -1.000000 0.000000 0.000000
vn -1.000000 0.000000 0.000000
vn -1.000000 0.000000 0.000000
vn -1.000000 0.000000 0.000000
vn -1.000000 0.000000 0.000000
vn -1.000000 0.000000 0.000000
vn -1.000000 0.000000 0.000000
vn -0.086461 0.793105 -0.602918
vn -0.086461 0.793105 -0.602918
vn -0.086461 0.793104 -0.602918
vn -0.291056 0.695323 -0.657124
vn -0.291056 0.695323 -0.657124
vn -0.291056 0.695323 -0.657124
vn 0.332579 0.767011 -0.548713
vn 0.332579 0.767011 -0.548713
vn 0.332579 0.767011 -0.548713
vn 0.102344 0.804566 -0.584978
vn 0.102344 0.804566 -0.584978
vn 0.102344 0.804566 -0.584978
vn 0.000000 1.000000 0.000001
vn 0.000000 1.000000 0.000001
vn 0.000000 1.000000 0.000001
vn 0.000000 1.000000 0.000001
vn 0.000000 1.000000 -0.000003
vn 0.000000 1.000000 -0.000003
vn 0.000000 1.000000 -0.000003
vn 0.000000 1.000000 -0.000003
vn 0.000000 1.000000 0.000001
vn 0.000000 1.000000 0.000001
vn 0.000000 1.000000 0.000001
vn 0.000000 1.000000 0.000001
vn 0.000000 1.000000 0.000001
vn 0.000000 0.000000 -1.000000
vn 0.000000 0.000000 -1.000000
vn 0.000000 0.000000 -1.000000
vn 0.000000 0.000000 -1.000000
vn -0.000000 0.000000 -1.000000
vn -0.000000 0.000000 -1.000000
vn -0.000000 0.000000 -1.000000
vn -0.000000 0.000000 -1.000000
vn -0.000000 0.000000 -1.000000
vn 0.000000 0.000000 -1.000000
vn 0.000000 0.000000 -1.000000
vn 0.000000 0.000000 -1.000000
vn 0.000000 0.000000 -1.000000
vn 0.533665 0.845683 0.004759
vn 0.533665 0.845683 0.004759
vn 0.533664 0.845683 0.004759
vn 0.406426 0.903580 -0.135501
vn 0.406426 0.903580 -0.135501
vn 0.406426 0.903580 -0.135501
vn 0.390522 0.911012 0.132475
vn 0.390522 0.911012 0.132475
vn 0.390522 0.911012 0.132475
vn 1.000000 0.000001 0.000000
vn 1.000000 0.000001 0.000000
vn 1.000000 0.000001 0.000000
vn 1.000000 0.000001 0.000000
vn 1.000000 0.000000 0.000000
vn 1.000000 0.000000 0.000000
vn 1.000000 0.000000 0.000000
vn 0.000000 1.000000 0.000000
vn 0.000000 1.000000 0.000000
vn 0.000000 1.000000 0.000000
vn 0.000000 1.000000 0.000000
vn 0.000000 1.000000 -0.000000
vn 0.000000 1.000000 -0.000000
vn 0.000000 1.000000 -0.000000
vn 0.000000 1.000000 -0.000000
vn 0.000000 1.000000 -0.000000
vn 0.000000 1.000000 -0.000000
vn 0.000000 1.000000 -0.000000
vn 0.000000 1.000000 0.000000
vn 0.000000 1.000000 0.000000
vn 0.000000 1.000000 0.000000
vn 0.000000 1.000000 -0.000000
vn 0.000000 1.000000 -0.000000
vn 0.000000 1.000000 -0.000000
vn 0.000000 1.000000 -0.000000
vn 0.000000 1.000000 0.000000
vn 0.000000 1.000000 0.000000
vn 0.000000 1.000000 0.000000
vn 0.000000 1.000000 0.000000
vn 0.000000 1.000000 0.000000
vn 0.000000 1.000000 0.000000
vn 0.000000 1.000000 0.000000
vn 0.000000 1.000000 0.000000
vn 0.000000 1.000000 0.000001
vn 0.000000 1.000000 0.000001
vn 0.000000 1.000000 0.000001
vn 0.000000 1.000000 0.000001
vn 0.000000 1.000000 0.000000
vn 0.000000 1.000000 0.000000
vn 0.000000 1.000000 0.000000
vn 0.000000 1.000000 0.000000
vn 0.000000 1.000000 0.000000
vn 0.000000 1.000000 0.000000
vn 0.000000 1.000000 0.000000
vn 0.000000 1.000000 0.000000
vn 0.000000 1.000000 0.000000
vn 0.000000 1.000000 0.000000
vn 0.000000 1.000000 0.000000
vn 0.000000 1.000000 0.000000
vn 0.000000 1.000000 0.000000
vn 0.000000 1.000000 0.000000
vn 0.000000 1.000000 0.000000
vn 0.000000 1.000000 -0.000000
vn 0.000000 1.000000 -0.000000
vn 0.000000 1.000000 -0.000000
vn 0.000000 1.000000 0.000000
vn 0.000000 1.000000 0.000000
vn 0.000000 1.000000 0.000000
vn 0.000000 1.000000 0.000000
vn 0.000000 1.000000 0.000000
vn 0.000000 1.000000 0.000000
s off
f 1/156/1 2/2/2 4/157/3 3/3/4
f 5/5/5 6/6/6 8/8/7 7/155/8
f 7/7/9 8/153/10 2/10/11 1/9/12
f 2/154/13 8/11/14 6/12/15 4/4/16
f 7/13/17 1/1/18 3/158/19 5/14/20
f 9/150/21 10/16/22 12/151/23 11/18/24
f 13/20/25 14/19/26 16/21/27 15/149/28
f 15/22/29 16/147/30 10/23/31 9/24/32
f 10/148/33 16/25/34 14/26/35 12/17/36
f 15/27/37 9/15/38 11/152/39 13/28/40
f 17/144/41 18/30/42 20/145/43 19/32/44
f 21/34/45 22/33/46 24/35/47 23/143/48
f 23/36/49 24/141/50 18/37/51 17/38/52
f 18/142/53 24/39/54 22/40/55 20/31/56
f 23/41/57 17/29/58 19/146/59 21/42/60
f 25/138/61 26/44/62 28/139/63 27/46/64
f 29/48/65 30/47/66 32/49/67 31/137/68
f 31/50/69 32/135/70 26/51/71 25/52/72
f 26/136/73 32/53/74 30/54/75 28/45/76
f 31/55/77 25/43/78 27/140/79 29/56/80
f 33/162/81 34/58/82 36/166/83 35/167/84
f 49/83/85 85/119/86 86/122/87
f 37/164/88 38/163/89 40/67/90 39/161/91
f 39/68/92 40/159/93 34/69/94 33/70/95
f 34/160/96 40/71/97 38/72/98 36/165/99
f 39/73/100 33/57/101 35/168/102 37/74/103
f 35/60/104 36/59/105 42/75/106 41/76/107
f 36/59/108 60/94/109 57/91/110 42/75/111
f 38/66/112 37/65/113 44/78/114 43/77/115
f 37/65/116 35/60/117 41/76/118 44/78/119
f 65/99/120 71/105/121 68/102/122 67/101/123
f 56/90/124 59/93/125 58/92/126 43/77/127
f 43/77/128 84/118/129 81/115/130 47/63/131
f 44/78/132 75/109/133 73/107/134 48/64/135
f 66/100/136 70/104/137 85/120/138 49/79/139
f 90/130/140 63/97/141 88/126/142
f 52/82/143 83/117/144 80/114/145 48/64/146
f 86/121/147 74/108/148 78/112/149 49/79/150
f 53/87/151 56/90/152 55/89/153
f 55/89/154 56/90/155 54/88/156
f 57/91/157 60/94/158 59/93/159
f 59/93/160 60/94/161 58/92/162
f 61/95/163 64/98/164 63/97/165
f 63/97/166 64/98/167 62/96/168
f 56/90/169 43/77/170 47/63/171 54/88/172
f 42/75/173 57/91/174 59/93/175 64/98/176
f 64/98/177 59/93/178 56/90/179 53/87/180 62/96/181
f 42/75/182 64/98/183 61/95/184 46/62/185
f 46/62/186 61/95/187 63/97/188 50/80/189
f 55/89/190 63/97/191 62/96/192 53/87/193
f 51/81/194 55/89/195 54/88/196 47/63/197
f 60/94/198 38/66/199 43/77/200 58/92/201
f 36/59/202 38/66/203 60/94/204
f 45/61/205 67/101/206 66/100/207
f 65/99/208 67/101/209 45/61/210
f 68/102/211 71/105/212 70/104/213
f 70/104/214 71/105/215 69/103/216
f 66/100/217 67/101/218 68/102/219 70/104/220
f 50/80/221 70/104/222 69/103/223 46/62/224
f 71/105/225 42/75/226 46/62/227 69/103/228
f 41/76/229 42/75/230 71/105/231 65/99/232
f 73/107/233 75/109/234 74/108/235
f 77/111/236 79/113/237 78/112/238
f 78/112/239 79/113/240 76/110/241
f 74/108/242 75/109/243 72/106/244
f 48/64/245 73/107/246 74/108/247 52/82/248
f 78/112/249 74/108/250 72/106/251 77/111/252
f 49/79/253 78/112/254 76/110/255 45/61/256 66/100/257
f 75/109/258 79/113/259 77/111/260 72/106/261
f 79/113/262 41/76/263 65/99/264 45/61/265 76/110/266
f 44/78/267 41/76/268 79/113/269 75/109/270
f 84/118/271 83/117/272 82/116/273
f 84/118/274 82/116/275 81/115/276
f 80/114/277 83/117/278 84/118/279
f 84/118/280 44/78/281 48/64/282 80/114/283
f 43/77/284 44/78/285 84/118/286
f 47/63/287 81/115/288 82/116/289 51/81/290
f 51/81/291 82/116/292 87/123/293
f 86/122/294 87/124/295 91/132/296 92/134/297
f 87/124/298 88/125/299 51/85/300
f 88/125/301 85/119/302 89/127/303 90/129/304
f 86/122/305 85/119/306 88/125/307 87/124/308
f 88/126/309 63/97/310 55/89/311 51/81/312
f 87/123/313 82/116/314 83/117/315 91/131/316
f 92/133/317 74/108/318 86/121/319
f 85/120/320 70/104/321 89/128/322
f 89/128/323 70/104/324 50/80/325
f 90/129/326 89/127/327 50/84/328
f 50/80/329 63/97/330 90/130/331
f 91/131/332 83/117/333 52/82/334
f 92/134/335 91/132/336 52/86/337
f 52/82/338 74/108/339 92/133/340
