# This file uses meters as units for non-parametric coordinates.

v -25.215759 6.259073 -25.215759
v -25.215759 6.259073 25.215759
v 25.215759 6.259073 -25.215759
v 25.215759 6.259073 25.215759
v 0.000000 9.617540 -21.283691
v 0.000000 9.617540 21.283691
v 0.000000 2.900608 21.283691
v 0.000000 2.900610 -21.283691
v 0.000000 -4.450674 0.000000
v 21.283691 2.900610 0.000000
v 21.283691 9.617540 0.000000
v 0.000000 16.968822 0.000000
v -21.283691 9.617540 0.000000
v -21.283691 2.900610 0.000000
v 0.000000 -3.423449 -15.242737
v 24.435608 2.900610 -17.104919
v 24.435608 9.617540 -17.104919
v 0.000000 15.941597 -15.242737
v -24.435608 9.617540 -17.104919
v -24.435608 2.900610 -17.104919
v 0.000000 -3.423449 13.065186
v -24.435608 2.900610 14.661377
v -24.435608 9.617540 14.661377
v 0.000000 15.941597 13.065186
v 24.435608 9.617540 14.661377
v 24.435608 2.900610 14.661377
v -17.104919 2.900610 -24.435608
v -17.104919 9.617540 -24.435608
v -17.500000 14.960743 -17.500000
v -15.242737 15.941597 0.000000
v -17.500000 14.960743 15.000000
v -17.104919 9.617540 24.435608
v -17.104919 2.900608 24.435608
v -17.500000 -2.442597 15.000000
v -15.242737 -3.423449 0.000000
v -17.500000 -2.442597 -17.500000
v 17.104919 2.900610 -24.435608
v 17.104919 9.617540 -24.435608
v 17.500000 14.960743 -17.500000
v 15.242737 15.941597 0.000000
v 17.500000 14.960743 15.000000
v 17.104919 9.617540 24.435608
v 17.104919 2.900608 24.435608
v 17.500000 -2.442597 15.000000
v 15.242737 -3.423449 0.000000
v 17.500000 -2.442597 -17.500000
v 0.000000 6.259073 -23.500549
v 18.886475 6.259073 -26.980652
v 26.980652 6.259073 -18.886475
v 23.500549 6.259073 0.000000
v 26.980652 6.259073 16.188416
v 18.886475 6.259073 26.980652
v 0.000000 6.259073 23.500549
v -18.886475 6.259073 26.980652
v -26.980652 6.259073 16.188416
v -23.500549 6.259073 0.000000
v -26.980652 6.259073 -18.886475
v -18.886475 6.259073 -26.980652
vt 0.341381 0.472676
vt 0.341381 0.472676
vt 0.341381 0.472676
vt 0.341381 0.472676
vt 0.341381 0.472676
vt 0.341381 0.472676
vt 0.341381 0.472676
vt 0.341381 0.472676
vt 0.341381 0.472676
vt 0.341381 0.472676
vt 0.341381 0.472676
vt 0.341381 0.472676
vt 0.341381 0.472676
vt 0.341381 0.472676
vt 0.341381 0.472676
vt 0.341381 0.472676
vt 0.341381 0.472676
vt 0.341381 0.472676
vt 0.341381 0.472676
vt 0.341381 0.472676
vt 0.341381 0.472676
vt 0.341381 0.472676
vt 0.341381 0.472676
vt 0.341381 0.472676
vt 0.341381 0.472676
vt 0.341381 0.472676
vt 0.341381 0.472676
vt 0.341381 0.472676
vt 0.341381 0.472676
vt 0.341381 0.472676
vt 0.341381 0.472676
vt 0.341381 0.472676
vt 0.341381 0.472676
vt 0.341381 0.472676
vt 0.341381 0.472676
vt 0.341381 0.472676
vt 0.341381 0.472676
vt 0.341381 0.472676
vt 0.341381 0.472676
vt 0.341381 0.472676
vt 0.341381 0.472676
vt 0.341381 0.472676
vt 0.341381 0.472676
vt 0.341381 0.472676
vt 0.341381 0.472676
vt 0.341381 0.472676
vt 0.341381 0.472676
vt 0.341381 0.472676
vt 0.341381 0.472676
vt 0.341381 0.472676
vt 0.341381 0.472676
vt 0.341381 0.472676
vt 0.341381 0.472676
vt 0.341381 0.472676
vt 0.341381 0.472676
vt 0.341381 0.472676
vt 0.341381 0.472676
vt 0.341381 0.472676
vt 0.341381 0.472676
vt 0.341381 0.472676
vt 0.341381 0.472676
vt 0.341381 0.472676
vt 0.341381 0.472676
vt 0.341381 0.472676
vt 0.341381 0.472676
vt 0.341381 0.472676
vt 0.341381 0.472676
vt 0.341381 0.472676
vt 0.341381 0.472676
vt 0.341381 0.472676
vt 0.341381 0.472676
vt 0.341381 0.472676
vt 0.341381 0.472676
vt 0.341381 0.472676
vt 0.341381 0.472676
vt 0.341381 0.472676
vt 0.341381 0.472676
vt 0.341381 0.472676
vt 0.341381 0.472676
vt 0.341381 0.472676
vn -0.821467 -0.542223 -0.176597
vn -0.821467 -0.542223 -0.176597
vn -0.821467 -0.542223 -0.176597
vn -0.821467 -0.542223 -0.176597
vn 0.664075 0.741401 -0.096587
vn 0.664075 0.741401 -0.096587
vn 0.664075 0.741401 -0.096587
vn 0.664075 0.741401 -0.096587
vn 0.821467 -0.542223 -0.176597
vn 0.821467 -0.542223 -0.176597
vn 0.821467 -0.542223 -0.176597
vn 0.821467 -0.542223 -0.176597
vn 0.664075 -0.741401 -0.096587
vn 0.664075 -0.741401 -0.096587
vn 0.664075 -0.741401 -0.096587
vn 0.664075 -0.741401 -0.096587
vn 0.202398 -0.657409 0.725843
vn 0.202398 -0.657409 0.725843
vn 0.202398 -0.657409 0.725843
vn 0.202398 -0.657409 -0.725843
vn 0.202398 -0.657410 -0.725843
vn 0.202398 -0.657409 -0.725843
vn -0.057152 0.996136 0.066677
vn -0.057152 0.996136 0.066677
vn -0.057152 0.996136 0.066677
vn -0.057152 0.996136 0.066677
vn 0.151999 -0.544480 0.824887
vn 0.151999 -0.544480 0.824887
vn 0.151999 -0.544480 0.824887
vn 0.151999 -0.544480 0.824887
vn -0.057152 -0.996136 0.066677
vn -0.057152 -0.996136 0.066677
vn -0.057152 -0.996136 0.066677
vn -0.057152 -0.996136 0.066677
vn 0.151999 -0.544480 -0.824886
vn 0.151999 -0.544480 -0.824886
vn 0.151999 -0.544480 -0.824886
vn 0.151999 -0.544480 -0.824886
vn 0.664899 -0.742320 0.082891
vn 0.664899 -0.742320 0.082891
vn 0.664899 -0.742320 0.082891
vn 0.664899 -0.742320 0.082891
vn 0.824886 -0.544480 0.151999
vn 0.824886 -0.544480 0.151999
vn 0.824886 -0.544480 0.151999
vn 0.824886 -0.544480 0.151999
vn 0.664898 0.742320 0.082891
vn 0.664898 0.742320 0.082891
vn 0.664898 0.742320 0.082891
vn 0.664898 0.742320 0.082891
vn -0.057186 0.996724 -0.057186
vn -0.057186 0.996724 -0.057186
vn -0.057186 0.996724 -0.057186
vn -0.057186 0.996724 -0.057186
vn -0.824886 -0.544480 0.151999
vn -0.824886 -0.544480 0.151999
vn -0.824886 -0.544480 0.151999
vn -0.824886 -0.544480 0.151999
vn -0.057186 -0.996724 -0.057186
vn -0.057186 -0.996724 -0.057186
vn -0.057186 -0.996724 -0.057186
vn -0.057186 -0.996724 -0.057186
vn 0.440869 -0.781837 -0.440869
vn 0.440869 -0.781837 -0.440869
vn 0.440869 -0.781837 -0.440869
vn 0.440869 -0.781837 -0.440869
vn 0.725843 -0.657409 -0.202398
vn 0.725843 -0.657409 -0.202398
vn 0.725843 -0.657409 -0.202398
vn 0.440869 0.781837 -0.440869
vn 0.440869 0.781837 -0.440869
vn 0.440869 0.781837 -0.440869
vn 0.440869 0.781837 -0.440869
vn 0.082891 0.742320 -0.664898
vn 0.082891 0.742320 -0.664898
vn 0.082891 0.742320 -0.664898
vn 0.082891 0.742320 -0.664898
vn -0.725843 -0.657409 -0.202398
vn -0.725843 -0.657409 -0.202398
vn -0.725843 -0.657409 -0.202398
vn 0.082891 -0.742320 -0.664899
vn 0.082891 -0.742320 -0.664899
vn 0.082891 -0.742320 -0.664899
vn 0.082891 -0.742320 -0.664899
vn 0.057158 -0.833495 0.549562
vn 0.057158 -0.833496 0.549562
vn 0.057158 -0.833496 0.549562
vn 0.057158 -0.833495 0.549562
vn -0.754827 -0.639107 0.147573
vn -0.754827 -0.639107 0.147573
vn -0.754827 -0.639107 0.147573
vn 0.057158 0.833496 0.549562
vn 0.057158 0.833495 0.549562
vn 0.057158 0.833495 0.549562
vn 0.057158 0.833495 0.549562
vn 0.461979 0.816409 0.346485
vn 0.461979 0.816409 0.346485
vn 0.461979 0.816409 0.346485
vn 0.461979 0.816409 0.346485
vn 0.754827 -0.639107 0.147573
vn 0.754827 -0.639107 0.147573
vn 0.754827 -0.639107 0.147573
vn 0.461979 -0.816409 0.346485
vn 0.461979 -0.816409 0.346485
vn 0.461979 -0.816409 0.346485
vn 0.461979 -0.816409 0.346485
vn -0.202398 -0.657409 -0.725843
vn -0.202398 -0.657409 -0.725843
vn -0.202398 -0.657410 -0.725843
vn -0.440869 0.781837 -0.440869
vn -0.440869 0.781837 -0.440869
vn -0.440869 0.781837 -0.440869
vn -0.440869 0.781837 -0.440869
vn -0.664898 0.742320 0.082891
vn -0.664898 0.742320 0.082891
vn -0.664898 0.742320 0.082891
vn -0.664898 0.742320 0.082891
vn -0.664075 0.741401 -0.096587
vn -0.664075 0.741401 -0.096587
vn -0.664075 0.741401 -0.096587
vn -0.664075 0.741401 -0.096587
vn -0.461979 0.816409 0.346485
vn -0.461979 0.816409 0.346485
vn -0.461979 0.816409 0.346485
vn -0.461979 0.816409 0.346485
vn -0.202398 -0.657409 0.725843
vn -0.202398 -0.657409 0.725843
vn -0.202398 -0.657409 0.725843
vn -0.461979 -0.816409 0.346485
vn -0.461979 -0.816409 0.346485
vn -0.461979 -0.816409 0.346485
vn -0.461979 -0.816409 0.346485
vn -0.664075 -0.741401 -0.096587
vn -0.664075 -0.741401 -0.096587
vn -0.664075 -0.741401 -0.096587
vn -0.664075 -0.741401 -0.096587
vn -0.664899 -0.742320 0.082891
vn -0.664899 -0.742320 0.082891
vn -0.664899 -0.742320 0.082891
vn -0.664899 -0.742320 0.082891
vn -0.440869 -0.781837 -0.440869
vn -0.440869 -0.781837 -0.440869
vn -0.440869 -0.781837 -0.440869
vn -0.440869 -0.781837 -0.440869
vn -0.151999 -0.544480 -0.824886
vn -0.151999 -0.544480 -0.824886
vn -0.151999 -0.544480 -0.824886
vn -0.151999 -0.544480 -0.824886
vn -0.082891 0.742320 -0.664898
vn -0.082891 0.742320 -0.664898
vn -0.082891 0.742320 -0.664898
vn -0.082891 0.742320 -0.664898
vn 0.057186 0.996724 -0.057186
vn 0.057186 0.996724 -0.057186
vn 0.057186 0.996724 -0.057186
vn 0.057186 0.996724 -0.057186
vn 0.057152 0.996136 0.066677
vn 0.057152 0.996136 0.066677
vn 0.057152 0.996136 0.066677
vn 0.057152 0.996136 0.066677
vn -0.057158 0.833495 0.549562
vn -0.057158 0.833495 0.549562
vn -0.057158 0.833496 0.549562
vn -0.057158 0.833495 0.549562
vn -0.151999 -0.544480 0.824887
vn -0.151999 -0.544480 0.824887
vn -0.151999 -0.544480 0.824887
vn -0.151999 -0.544480 0.824887
vn -0.057158 -0.833496 0.549562
vn -0.057158 -0.833496 0.549562
vn -0.057158 -0.833495 0.549562
vn -0.057158 -0.833495 0.549562
vn 0.057152 -0.996136 0.066677
vn 0.057152 -0.996136 0.066677
vn 0.057152 -0.996136 0.066677
vn 0.057152 -0.996136 0.066677
vn 0.057186 -0.996724 -0.057186
vn 0.057186 -0.996724 -0.057186
vn 0.057186 -0.996724 -0.057186
vn 0.057186 -0.996724 -0.057186
vn -0.082891 -0.742320 -0.664899
vn -0.082891 -0.742320 -0.664899
vn -0.082891 -0.742320 -0.664899
vn -0.082891 -0.742320 -0.664899
vn -0.151999 0.544480 -0.824887
vn -0.151999 0.544480 -0.824887
vn -0.151999 0.544480 -0.824887
vn -0.151999 0.544480 -0.824887
vn 0.202398 0.657409 -0.725843
vn 0.202398 0.657409 -0.725843
vn 0.202398 0.657409 -0.725843
vn 0.725844 0.657408 -0.202398
vn 0.725844 0.657408 -0.202398
vn 0.725844 0.657408 -0.202398
vn 0.824887 0.544480 0.151999
vn 0.824887 0.544480 0.151999
vn 0.824887 0.544480 0.151999
vn 0.824887 0.544480 0.151999
vn 0.821467 0.542223 -0.176597
vn 0.821467 0.542223 -0.176597
vn 0.821467 0.542223 -0.176597
vn 0.821467 0.542223 -0.176597
vn 0.754828 0.639107 0.147573
vn 0.754828 0.639107 0.147573
vn 0.754828 0.639107 0.147573
vn 0.202398 0.657409 0.725843
vn 0.202398 0.657409 0.725843
vn 0.202398 0.657409 0.725843
vn -0.151999 0.544480 0.824887
vn -0.151999 0.544480 0.824887
vn -0.151999 0.544480 0.824887
vn -0.151999 0.544480 0.824887
vn 0.151999 0.544480 0.824887
vn 0.151999 0.544480 0.824887
vn 0.151999 0.544480 0.824887
vn 0.151999 0.544480 0.824887
vn -0.202398 0.657409 0.725843
vn -0.202398 0.657409 0.725843
vn -0.202398 0.657409 0.725843
vn -0.754828 0.639107 0.147573
vn -0.754828 0.639107 0.147573
vn -0.754828 0.639107 0.147573
vn -0.821467 0.542223 -0.176597
vn -0.821467 0.542223 -0.176597
vn -0.821467 0.542223 -0.176597
vn -0.821467 0.542223 -0.176597
vn -0.824887 0.544480 0.151999
vn -0.824887 0.544480 0.151999
vn -0.824887 0.544480 0.151999
vn -0.824887 0.544480 0.151999
vn -0.725843 0.657409 -0.202398
vn -0.725843 0.657409 -0.202398
vn -0.725843 0.657409 -0.202398
vn -0.202398 0.657409 -0.725843
vn -0.202398 0.657409 -0.725843
vn -0.202398 0.657409 -0.725843
vn 0.151999 0.544480 -0.824887
vn 0.151999 0.544480 -0.824887
vn 0.151999 0.544480 -0.824887
vn 0.151999 0.544480 -0.824887
s off
f 55/77/1 56/78/2 14/25/3 22/35/4
f 11/22/5 40/60/6 41/61/7 25/39/8
f 10/21/9 50/72/10 51/73/11 26/40/12
f 44/66/13 45/67/14 10/21/15 26/40/16
f 4/10/17 52/74/18 43/65/19
f 3/11/20 37/55/21 48/70/22
f 12/23/23 30/46/24 31/47/25 24/38/26
f 53/75/27 54/76/28 33/51/29 7/17/30
f 34/52/31 35/53/32 9/20/33 21/34/34
f 58/80/35 47/69/36 8/18/37 27/41/38
f 45/67/39 46/68/40 16/28/41 10/21/42
f 16/28/43 49/71/44 50/72/45 10/21/46
f 17/29/47 39/59/48 40/60/49 11/22/50
f 18/30/51 29/45/52 30/46/53 12/23/54
f 56/78/55 57/79/56 20/32/57 14/25/58
f 35/53/59 36/54/60 15/27/61 9/20/62
f 3/7/63 16/28/64 46/68/65 37/56/66
f 3/7/67 49/71/68 16/28/69
f 38/58/70 39/59/71 17/29/72 3/5/73
f 28/44/74 29/45/75 18/30/76 5/13/77
f 1/1/78 20/32/79 57/79/80
f 8/19/81 15/27/82 36/54/83 27/42/84
f 33/50/85 34/52/86 21/34/87 7/16/88
f 2/2/89 55/77/90 22/35/91
f 24/38/92 31/47/93 32/48/94 6/14/95
f 25/39/96 41/61/97 42/62/98 4/6/99
f 26/40/100 51/73/101 4/6/102
f 43/64/103 44/66/104 26/40/105 4/6/106
f 1/1/107 58/80/108 27/41/109
f 1/3/110 19/31/111 29/45/112 28/44/113
f 30/46/114 29/45/115 19/31/116 13/24/117
f 31/47/118 30/46/119 13/24/120 23/37/121
f 32/48/122 31/47/123 23/37/124 2/4/125
f 2/2/126 33/51/127 54/76/128
f 22/36/129 34/52/130 33/50/131 2/9/132
f 14/26/133 35/53/134 34/52/135 22/36/136
f 20/33/137 36/54/138 35/53/139 14/26/140
f 27/42/141 36/54/142 20/33/143 1/8/144
f 47/69/145 48/70/146 37/55/147 8/18/148
f 5/13/149 18/30/150 39/59/151 38/58/152
f 40/60/153 39/59/154 18/30/155 12/23/156
f 41/61/157 40/60/158 12/23/159 24/38/160
f 42/62/161 41/61/162 24/38/163 6/14/164
f 52/74/165 53/75/166 7/17/167 43/65/168
f 21/34/169 44/66/170 43/64/171 7/16/172
f 9/20/173 45/67/174 44/66/175 21/34/176
f 15/27/177 46/68/178 45/67/179 9/20/180
f 37/56/181 46/68/182 15/27/183 8/19/184
f 38/57/185 48/70/186 47/69/187 5/12/188
f 3/11/189 48/70/190 38/57/191
f 3/5/192 17/29/193 49/71/194
f 50/72/195 49/71/196 17/29/197 11/22/198
f 51/73/199 50/72/200 11/22/201 25/39/202
f 4/6/203 51/73/204 25/39/205
f 42/63/206 52/74/207 4/10/208
f 6/15/209 53/75/210 52/74/211 42/63/212
f 32/49/213 54/76/214 53/75/215 6/15/216
f 2/2/217 54/76/218 32/49/219
f 23/37/220 55/77/221 2/2/222
f 13/24/223 56/78/224 55/77/225 23/37/226
f 19/31/227 57/79/228 56/78/229 13/24/230
f 1/1/231 57/79/232 19/31/233
f 28/43/234 58/80/235 1/1/236
f 5/12/237 47/69/238 58/80/239 28/43/240
