# This file uses meters as units for non-parametric coordinates.

v -3.390625 0.000000 -15.224365
v -3.390625 0.000000 14.054077
v -3.390625 30.799149 -15.224365
v -3.390625 30.799149 14.054077
v -10.337402 30.799149 -15.224365
v -10.337402 30.799149 14.054077
v -10.337402 0.000000 -15.224365
v -10.337402 0.000000 14.054077
v -4.429199 30.799149 -15.224365
v -9.299194 30.799149 -15.224365
v -9.299194 30.799149 12.357544
v -4.429199 30.799149 12.357666
v 2.859619 0.316254 -13.452881
v 2.859619 0.316254 15.224365
v 2.859619 33.594604 -13.452881
v 2.859619 33.594604 15.224365
v -3.113892 33.594604 -13.452881
v -3.113892 33.594604 15.224365
v -3.113892 0.316254 -13.452881
v -3.113892 0.316254 15.224365
v 1.966431 33.594604 -13.452881
v -2.221191 33.594604 -13.452881
v -2.221191 33.594604 13.562744
v 1.966431 33.594604 13.562744
v 2.859619 3.644089 15.224365
v -3.113892 3.644089 15.224365
v 2.859619 7.931686 15.224365
v -3.113892 7.931686 15.224365
v 2.859619 28.845520 15.224365
v -3.113892 28.845520 15.224365
v 10.337524 0.316254 -14.923706
v 10.337524 0.316254 13.753418
v 10.337524 35.409210 -14.923706
v 10.337524 35.409210 13.753418
v 3.533569 35.409210 -14.923706
v 3.533569 35.409210 13.753418
v 3.533569 0.316254 -14.923706
v 3.533569 0.316254 13.753418
v 9.320435 35.409210 -14.923706
v 4.550415 35.409210 -14.923706
v 4.550415 35.409210 12.091797
v 9.320435 35.409210 12.091919
vt 0.208092 0.446032
vt 0.208092 0.446032
vt 0.208092 0.446032
vt 0.208092 0.446032
vt 0.208092 0.446032
vt 0.208092 0.446032
vt 0.208092 0.446032
vt 0.208092 0.446032
vt 0.208092 0.446032
vt 0.208092 0.446032
vt 0.037598 0.374821
vt 0.037598 0.374821
vt 0.037598 0.374821
vt 0.037598 0.374821
vt 0.208092 0.446032
vt 0.208092 0.446032
vt 0.037598 0.374821
vt 0.037598 0.374821
vt 0.208092 0.446032
vt 0.208092 0.446032
vt 0.208092 0.446032
vt 0.208092 0.446032
vt 0.208092 0.446032
vt 0.208092 0.446032
vt 0.039307 0.372169
vt 0.039307 0.372169
vt 0.039307 0.372169
vt 0.039307 0.372169
vt 0.295300 0.444952
vt 0.295300 0.444952
vt 0.295300 0.444952
vt 0.295300 0.444952
vt 0.295300 0.444952
vt 0.295300 0.444952
vt 0.295300 0.444952
vt 0.295300 0.444952
vt 0.295300 0.444952
vt 0.295300 0.444952
vt 0.295300 0.444952
vt 0.295300 0.444952
vt 0.037598 0.374821
vt 0.037598 0.374821
vt 0.037598 0.374821
vt 0.037598 0.374821
vt 0.295300 0.444952
vt 0.295300 0.444952
vt 0.037598 0.374821
vt 0.037598 0.374821
vt 0.295300 0.444952
vt 0.295300 0.444952
vt 0.295300 0.444952
vt 0.295300 0.444952
vt 0.295300 0.444952
vt 0.295300 0.444952
vt 0.039307 0.372169
vt 0.039307 0.372169
vt 0.039307 0.372169
vt 0.039307 0.372169
vt 0.023467 0.353606
vt 0.023467 0.353606
vt 0.023467 0.353606
vt 0.023467 0.353606
vt 0.295300 0.444952
vt 0.295300 0.444952
vt 0.295300 0.444952
vt 0.174468 0.471749
vt 0.174468 0.471745
vt 0.174468 0.471745
vt 0.174468 0.471749
vt 0.295300 0.444952
vt 0.295300 0.444952
vt 0.295300 0.444952
vt 0.070234 0.310536
vt 0.070234 0.310536
vt 0.070234 0.310536
vt 0.070234 0.310536
vt 0.070234 0.310536
vt 0.070234 0.310536
vt 0.070234 0.310536
vt 0.070234 0.310536
vt 0.070234 0.310536
vt 0.070234 0.310536
vt 0.037598 0.374821
vt 0.037598 0.374821
vt 0.037598 0.374821
vt 0.037598 0.374821
vt 0.070234 0.310536
vt 0.070234 0.310536
vt 0.037598 0.374821
vt 0.037598 0.374821
vt 0.070234 0.310536
vt 0.070234 0.310536
vt 0.070234 0.310536
vt 0.070234 0.310536
vt 0.070234 0.310536
vt 0.070234 0.310536
vt 0.039307 0.372169
vt 0.039307 0.372169
vt 0.039307 0.372169
vt 0.039307 0.372169
vn 1.000000 0.000000 0.000000
vn 1.000000 0.000000 0.000000
vn 1.000000 0.000000 0.000000
vn 1.000000 0.000000 0.000000
vn 0.000000 1.000000 -0.000002
vn 0.000000 1.000000 -0.000002
vn 0.000000 1.000000 -0.000002
vn 0.000000 1.000000 -0.000002
vn -1.000000 0.000000 0.000000
vn -1.000000 0.000000 0.000000
vn -1.000000 0.000000 0.000000
vn -1.000000 0.000000 0.000000
vn 0.000000 -1.000000 0.000000
vn 0.000000 -1.000000 0.000000
vn 0.000000 -1.000000 0.000000
vn 0.000000 -1.000000 0.000000
vn 0.000000 0.000000 1.000000
vn 0.000000 0.000000 1.000000
vn 0.000000 0.000000 1.000000
vn 0.000000 0.000000 1.000000
vn 0.000000 0.000000 -1.000000
vn 0.000000 0.000000 -1.000000
vn 0.000000 0.000000 -1.000000
vn 0.000000 0.000000 -1.000000
vn 0.000000 1.000000 0.000000
vn 0.000000 1.000000 0.000000
vn 0.000000 1.000000 0.000000
vn 0.000000 1.000000 0.000000
vn 0.000000 1.000000 0.000000
vn 0.000000 1.000000 0.000000
vn 0.000000 1.000000 0.000000
vn 0.000000 1.000000 0.000000
vn 0.000000 0.000000 -1.000000
vn 0.000000 0.000000 -1.000000
vn 0.000000 0.000000 -1.000000
vn 0.000000 0.000000 -1.000000
vn 0.000000 0.000000 -1.000000
vn 0.000000 0.000000 -1.000000
vn 0.000000 1.000000 0.000000
vn 0.000000 1.000000 0.000000
vn 0.000000 1.000000 0.000000
vn 0.000000 1.000000 0.000000
vn 1.000000 0.000000 0.000000
vn 1.000000 0.000000 0.000000
vn 1.000000 0.000000 0.000000
vn 1.000000 0.000000 0.000000
vn 0.000000 1.000000 0.000000
vn 0.000000 1.000000 0.000000
vn 0.000000 1.000000 0.000000
vn 0.000000 1.000000 0.000000
vn -1.000000 0.000000 0.000000
vn -1.000000 0.000000 0.000000
vn -1.000000 0.000000 0.000000
vn -1.000000 0.000000 0.000000
vn 0.000000 -1.000000 0.000000
vn 0.000000 -1.000000 0.000000
vn 0.000000 -1.000000 0.000000
vn 0.000000 -1.000000 0.000000
vn 0.000000 0.000000 1.000000
vn 0.000000 0.000000 1.000000
vn 0.000000 0.000000 1.000000
vn 0.000000 0.000000 1.000000
vn 0.000000 0.000000 -1.000000
vn 0.000000 0.000000 -1.000000
vn 0.000000 0.000000 -1.000000
vn 0.000000 0.000000 -1.000000
vn 0.000000 1.000000 0.000000
vn 0.000000 1.000000 0.000000
vn 0.000000 1.000000 0.000000
vn 0.000000 1.000000 0.000000
vn 0.000000 1.000000 0.000000
vn 0.000000 1.000000 0.000000
vn 0.000000 1.000000 0.000000
vn 0.000000 1.000000 0.000000
vn 0.000000 0.000000 -1.000000
vn 0.000000 0.000000 -1.000000
vn 0.000000 0.000000 -1.000000
vn 0.000000 0.000000 -1.000000
vn 0.000000 0.000000 -1.000000
vn 0.000000 0.000000 -1.000000
vn 0.000000 1.000000 0.000000
vn 0.000000 1.000000 0.000000
vn 0.000000 1.000000 0.000000
vn 0.000000 1.000000 0.000000
vn 0.000000 0.000000 1.000000
vn 0.000000 0.000000 1.000000
vn 0.000000 0.000000 1.000000
vn 0.000000 0.000000 1.000000
vn 0.000000 0.000000 1.000000
vn 0.000000 0.000000 1.000000
vn 0.000000 0.000000 1.000000
vn 0.000000 0.000000 1.000000
vn 0.000000 0.000000 1.000000
vn 0.000000 0.000000 1.000000
vn 0.000000 0.000000 1.000000
vn 0.000000 0.000000 1.000000
vn 1.000000 0.000000 0.000000
vn 1.000000 0.000000 0.000000
vn 1.000000 0.000000 0.000000
vn 1.000000 0.000000 0.000000
vn 1.000000 0.000000 0.000000
vn 1.000000 0.000000 0.000000
vn 1.000000 0.000000 0.000000
vn -1.000000 0.000000 0.000000
vn -1.000000 0.000000 0.000000
vn -1.000000 0.000000 0.000000
vn -1.000000 0.000000 0.000000
vn -1.000000 0.000000 0.000000
vn -1.000000 0.000000 0.000000
vn -1.000000 0.000000 0.000000
vn 1.000000 0.000000 0.000000
vn 1.000000 0.000000 0.000000
vn 1.000000 0.000000 0.000000
vn 1.000000 0.000000 0.000000
vn 0.000000 1.000000 0.000000
vn 0.000000 1.000000 0.000000
vn 0.000000 1.000000 0.000000
vn 0.000000 1.000000 0.000000
vn -1.000000 0.000000 0.000000
vn -1.000000 0.000000 0.000000
vn -1.000000 0.000000 0.000000
vn -1.000000 0.000000 0.000000
vn 0.000000 -1.000000 0.000000
vn 0.000000 -1.000000 0.000000
vn 0.000000 -1.000000 0.000000
vn 0.000000 -1.000000 0.000000
vn 0.000000 0.000000 1.000000
vn 0.000000 0.000000 1.000000
vn 0.000000 0.000000 1.000000
vn 0.000000 0.000000 1.000000
vn 0.000000 0.000000 -1.000000
vn 0.000000 0.000000 -1.000000
vn 0.000000 0.000000 -1.000000
vn 0.000000 0.000000 -1.000000
vn 0.000000 1.000000 0.000000
vn 0.000000 1.000000 0.000000
vn 0.000000 1.000000 0.000000
vn 0.000000 1.000000 0.000000
vn 0.000000 1.000000 0.000000
vn 0.000000 1.000000 0.000000
vn 0.000000 1.000000 0.000000
vn 0.000000 1.000000 0.000000
vn 0.000000 0.000000 -1.000000
vn 0.000000 0.000000 -1.000000
vn 0.000000 0.000000 -1.000000
vn 0.000000 0.000000 -1.000000
vn 0.000000 0.000000 -1.000000
vn 0.000000 0.000000 -1.000000
vn 0.000000 1.000000 0.000000
vn 0.000000 1.000000 0.000000
vn 0.000000 1.000000 0.000000
vn 0.000000 1.000000 0.000000
s off
f 1/1/1 3/2/2 4/3/3 2/4/4
f 11/5/5 6/6/6 4/3/7 12/7/8
f 5/8/9 7/9/10 8/10/11 6/6/12
f 7/11/13 1/12/14 2/13/15 8/14/16
f 2/4/17 4/3/18 6/15/19 8/16/20
f 7/11/21 10/17/22 9/18/23 1/12/24
f 3/2/25 9/19/26 12/7/27 4/3/28
f 10/20/29 5/8/30 6/6/31 11/5/32
f 7/21/33 5/22/34 10/23/35
f 9/24/36 3/2/37 1/1/38
f 9/25/39 10/26/40 11/27/41 12/28/42
f 13/29/43 15/30/44 29/31/45 27/32/46
f 23/33/47 18/34/48 16/35/49 24/36/50
f 17/37/51 19/38/52 28/39/53 30/40/54
f 19/41/55 13/42/56 14/43/57 20/44/58
f 29/31/59 16/35/60 18/45/61 30/46/62
f 19/41/63 22/47/64 21/48/65 13/42/66
f 15/30/67 21/49/68 24/36/69 16/35/70
f 22/50/71 17/37/72 18/34/73 23/33/74
f 19/51/75 17/52/76 22/53/77
f 21/54/78 15/30/79 13/29/80
f 21/55/81 22/56/82 23/57/83 24/58/84
f 14/59/85 25/60/86 26/61/87 20/62/88
f 25/63/89 27/32/90 28/64/91 26/65/92
f 27/66/93 29/67/94 30/68/95 28/69/96
f 13/29/97 27/32/98 25/63/99 14/70/100
f 15/30/101 16/35/102 29/31/103
f 17/37/104 30/40/105 18/34/106
f 19/38/107 20/71/108 26/72/109 28/39/110
f 31/73/111 33/74/112 34/75/113 32/76/114
f 41/77/115 36/78/116 34/75/117 42/79/118
f 35/80/119 37/81/120 38/82/121 36/78/122
f 37/83/123 31/84/124 32/85/125 38/86/126
f 32/76/127 34/75/128 36/87/129 38/88/130
f 37/83/131 40/89/132 39/90/133 31/84/134
f 33/74/135 39/91/136 42/79/137 34/75/138
f 40/92/139 35/80/140 36/78/141 41/77/142
f 37/93/143 35/94/144 40/95/145
f 39/96/146 33/74/147 31/73/148
f 39/97/149 40/98/150 41/99/151 42/100/152
