# This file uses meters as units for non-parametric coordinates.

v 13.607422 50.930908 0.819580
v -13.607422 50.930908 0.819580
v 13.607422 11.216248 0.819580
v -13.607422 11.216248 0.819580
v 9.964233 11.216248 0.819580
v -9.898804 11.216248 0.819580
v -9.250610 27.936005 0.819580
v -7.276978 31.233398 0.819580
v -3.922913 31.803406 0.819580
v -2.757568 33.060791 0.819580
v -1.454834 28.883942 0.819580
v -0.016113 26.506958 0.819580
v 1.997437 29.229126 0.819580
v 2.829590 33.172577 0.819580
v 4.452148 31.098877 0.819580
v 7.312622 30.954193 0.819580
v 9.258423 27.936005 0.819580
v -3.556519 36.384369 0.819580
v -3.515137 38.741272 0.819580
v -0.144287 39.663147 0.819580
v 3.701050 38.569916 0.819580
v 3.603638 36.151917 0.819580
v -4.637207 39.278198 0.819580
v -3.636353 39.887604 0.819580
v -3.440186 43.003418 0.819580
v -1.832397 44.161804 0.819580
v 3.468811 43.986328 0.819580
v 4.413391 42.284119 0.819580
v 4.225464 39.907745 0.819580
v 5.037292 39.132965 0.819580
v 0.072144 32.128265 0.819580
v -0.741394 32.396393 0.819580
v 0.972900 32.469421 0.819580
v -13.607422 27.936005 0.819580
v 13.607422 27.936005 0.819580
v -13.607422 24.592041 0.819580
v -9.380188 24.592041 0.819580
v 13.607422 24.592041 0.819580
v 9.399414 24.592041 0.819580
v 0.000000 50.930908 0.819580
v 13.607422 39.433472 0.819580
v -13.607422 39.433472 0.819580
v 0.023560 36.268127 0.819580
v 24.999939 0.000000 -3.023682
v -24.999878 0.000000 -3.023682
v 24.999939 62.147095 -3.023682
v -24.999878 62.147095 -3.023682
v 24.999939 62.147095 3.023743
v -24.999878 62.147095 3.023743
v 24.999939 0.000000 3.023743
v -24.999878 0.000000 3.023743
v 20.385742 57.282776 3.023743
v -20.385620 57.282776 3.023743
v -20.385620 4.864471 3.023743
v 20.385742 4.864471 3.023743
v 19.287720 56.197998 0.819580
v -19.287598 56.197998 0.819580
v -19.287598 5.949158 0.819580
v 19.287720 5.949158 0.819580
v 13.607483 50.930908 0.819580
v -13.607422 50.930908 0.819580
v -13.607422 11.216248 0.819580
v 13.607483 11.216248 0.819580
vt 0.069458 0.327393
vt 0.069458 0.327393
vt 0.060303 0.356941
vt 0.060303 0.356941
vt 0.060303 0.356941
vt 0.060303 0.356941
vt 0.058228 0.298843
vt 0.069458 0.327377
vt 0.069458 0.327377
vt 0.069458 0.327377
vt 0.139771 0.447647
vt 0.069458 0.327377
vt 0.069458 0.327377
vt 0.069458 0.327377
vt 0.058228 0.298843
vt 0.069458 0.327377
vt 0.069458 0.327377
vt 0.069458 0.327377
vt 0.069458 0.327377
vt 0.069458 0.327377
vt 0.069458 0.327377
vt 0.069458 0.327377
vt 0.069458 0.327377
vt 0.069458 0.327377
vt 0.069458 0.327377
vt 0.069458 0.327377
vt 0.069458 0.327377
vt 0.039429 0.357849
vt 0.058228 0.298843
vt 0.058228 0.298843
vt 0.086792 0.227493
vt 0.086792 0.227493
vt 0.086792 0.227493
vt 0.086792 0.227493
vt 0.086792 0.227493
vt 0.086792 0.227493
vt 0.086792 0.227493
vt 0.086792 0.227493
vt 0.086792 0.227493
vt 0.086792 0.227493
vt 0.086792 0.227493
vt 0.086792 0.227493
vt 0.086792 0.227493
vt 0.086792 0.227493
vt 0.086792 0.227493
vt 0.086792 0.227493
vt 0.086792 0.227493
vt 0.086792 0.227493
vt 0.086792 0.227493
vt 0.086792 0.227493
vt 0.086792 0.227493
vt 0.086792 0.227493
vt 0.086792 0.227493
vt 0.086792 0.227493
vt 0.139771 0.447647
vt 0.139771 0.447647
vt 0.139771 0.447647
vt 0.139771 0.447647
vt 0.139771 0.447647
vt 0.039429 0.357849
vt 0.039429 0.357849
vt 0.039429 0.357849
vt 0.039429 0.357849
vt 0.039429 0.357849
vt 0.039429 0.357849
vt 0.039429 0.357849
vt 0.039429 0.357849
vt 0.039429 0.357849
vt 0.136719 0.379364
vt 0.136719 0.379364
vt 0.136719 0.379364
vt 0.136719 0.379364
vt 0.136719 0.379364
vt 0.136719 0.379364
vt 0.069458 0.327377
vt 0.069458 0.327377
vt 0.069458 0.327377
vt 0.069458 0.327377
vt 0.060303 0.356941
vt 0.060303 0.356941
vt 0.086792 0.227493
vt 0.060303 0.356941
vt 0.060303 0.356941
vt 0.086792 0.227493
vt 0.058228 0.298843
vt 0.058228 0.298843
vt 0.058228 0.298843
vt 0.058228 0.298843
vt 0.069458 0.327393
vt 0.069458 0.327385
vt 0.069458 0.327385
vt 0.039429 0.357849
vt 0.091630 0.229937
vt 0.091630 0.229937
vt 0.091630 0.229937
vt 0.091630 0.229937
vt 0.091630 0.229937
vt 0.091630 0.229937
vt 0.091630 0.229937
vt 0.091630 0.229937
vt 0.091630 0.229937
vt 0.091630 0.229937
vt 0.091630 0.229937
vt 0.091630 0.229937
vt 0.091630 0.229937
vt 0.091630 0.229937
vt 0.091630 0.229937
vt 0.091630 0.229937
vt 0.091630 0.229937
vt 0.091630 0.229937
vt 0.091630 0.229937
vt 0.091630 0.229937
vt 0.091630 0.229937
vt 0.091630 0.229937
vt 0.070068 0.379517
vt 0.070068 0.379517
vt 0.070068 0.379517
vt 0.070068 0.379517
vt 0.070068 0.379517
vt 0.070068 0.379517
vt 0.070068 0.379517
vt 0.070068 0.379517
vn -0.000000 0.000000 1.000000
vn -0.000000 0.000000 1.000000
vn -0.000000 0.000000 1.000000
vn -0.000000 0.000000 1.000000
vn -0.000000 0.000000 1.000000
vn -0.000000 0.000000 1.000000
vn -0.000000 0.000000 1.000000
vn -0.000000 0.000000 1.000000
vn -0.000000 0.000000 1.000000
vn -0.000000 0.000000 1.000000
vn 0.000000 0.000000 1.000000
vn 0.000000 0.000000 1.000000
vn 0.000000 0.000000 1.000000
vn 0.000000 0.000000 1.000000
vn 0.000000 0.000000 1.000000
vn 0.000000 0.000000 1.000000
vn 0.000000 0.000000 1.000000
vn 0.000000 0.000000 1.000000
vn 0.000000 0.000000 1.000000
vn 0.000000 0.000000 1.000000
vn 0.000000 0.000000 1.000000
vn 0.000000 0.000000 1.000000
vn 0.000000 0.000000 1.000000
vn 0.000000 0.000000 1.000000
vn 0.000000 0.000000 1.000000
vn 0.000000 0.000000 1.000000
vn 0.000000 0.000000 1.000000
vn 0.000000 0.000000 1.000000
vn 0.000000 0.000000 1.000000
vn 0.000000 0.000000 1.000000
vn 0.000000 0.000000 1.000000
vn 0.000000 0.000000 1.000000
vn 0.000000 0.000000 1.000000
vn 0.000000 0.000000 1.000000
vn 0.000000 0.000000 1.000000
vn 0.000000 0.000000 1.000000
vn 0.000000 0.000000 1.000000
vn 0.000000 0.000000 1.000000
vn -0.000000 0.000000 1.000000
vn -0.000000 0.000000 1.000000
vn -0.000000 0.000000 1.000000
vn 0.000000 0.000000 1.000000
vn 0.000000 0.000000 1.000000
vn 0.000000 0.000000 1.000000
vn 0.000000 0.000000 1.000000
vn 0.000000 0.000000 1.000000
vn 0.000000 0.000000 1.000000
vn 0.000000 0.000000 1.000000
vn 0.000000 0.000000 1.000000
vn 0.000000 0.000000 1.000000
vn 0.000000 0.000000 1.000000
vn 0.000000 0.000000 1.000000
vn 0.000000 0.000000 1.000000
vn 0.000000 0.000000 1.000000
vn 0.000000 0.000000 1.000000
vn 0.000000 0.000000 1.000000
vn 0.000000 0.000000 1.000000
vn 0.000000 0.000000 1.000000
vn 0.000000 0.000000 1.000000
vn 0.000000 0.000000 1.000000
vn 0.000000 0.000000 1.000000
vn 0.000000 0.000000 1.000000
vn 0.000000 0.000000 1.000000
vn 0.000000 0.000000 1.000000
vn 0.000000 0.000000 1.000000
vn 0.000000 0.000000 1.000000
vn 0.000000 0.000000 1.000000
vn 0.000000 0.000000 1.000000
vn 0.000000 0.000000 1.000000
vn 0.000000 0.000000 1.000000
vn 0.000000 0.000000 1.000000
vn 0.000000 0.000000 1.000000
vn 0.000000 0.000000 1.000000
vn 0.000000 0.000000 1.000000
vn 0.000000 0.000000 1.000000
vn 0.000000 0.000000 1.000000
vn 0.000000 0.000000 1.000000
vn 0.000000 0.000000 1.000000
vn -0.000000 0.000000 1.000000
vn -0.000000 0.000000 1.000000
vn -0.000000 0.000000 1.000000
vn -0.000000 0.000000 1.000000
vn -0.000000 0.000000 1.000000
vn 0.000000 0.000000 1.000000
vn 0.000000 0.000000 1.000000
vn 0.000000 0.000000 1.000000
vn 0.000000 0.000000 1.000000
vn 0.000000 0.000000 1.000000
vn 0.000000 0.000000 1.000000
vn 0.000000 0.000000 1.000000
vn 0.000000 0.000000 1.000000
vn 0.000000 0.000000 1.000000
vn 0.000000 0.000000 1.000000
vn 0.000000 0.000000 1.000000
vn 0.000000 0.000000 1.000000
vn 0.000000 0.000000 1.000000
vn 0.000000 0.000000 1.000000
vn 0.000000 0.000000 1.000000
vn 0.000000 0.000000 1.000000
vn 0.000000 0.000000 1.000000
vn -0.000000 0.000000 1.000000
vn -0.000000 0.000000 1.000000
vn -0.000000 0.000000 1.000000
vn 0.000000 0.000000 1.000000
vn 0.000000 0.000000 1.000000
vn 0.000000 0.000000 1.000000
vn -0.000000 0.000000 1.000000
vn -0.000000 0.000000 1.000000
vn -0.000000 0.000000 1.000000
vn -0.000000 0.000000 1.000000
vn 0.000000 0.000000 1.000000
vn 0.000000 0.000000 1.000000
vn 0.000000 0.000000 1.000000
vn 0.000000 0.000000 1.000000
vn 0.000000 0.000000 1.000000
vn 0.000000 0.000000 1.000000
vn 0.000000 0.000000 1.000000
vn 0.000000 0.000000 1.000000
vn 0.000000 0.000000 1.000000
vn 0.000000 0.000000 1.000000
vn 0.000000 0.000000 1.000000
vn 0.000000 0.000000 1.000000
vn 0.000000 0.000000 1.000000
vn 0.000000 0.000000 1.000000
vn 0.000000 0.000000 1.000000
vn 0.000000 0.000000 1.000000
vn 0.000000 0.000000 1.000000
vn 0.000000 0.000000 1.000000
vn 0.000000 0.000000 1.000000
vn 0.000000 0.000000 1.000000
vn 0.000000 0.000000 1.000000
vn 0.000000 0.000000 1.000000
vn 0.000000 0.000000 1.000000
vn 0.000000 0.000000 1.000000
vn 0.000000 0.000000 1.000000
vn 0.000000 0.000000 1.000000
vn 0.000000 0.000000 1.000000
vn 0.000000 0.000000 1.000000
vn 0.000000 0.000000 1.000000
vn 0.000000 0.000000 1.000000
vn -0.000000 0.000000 1.000000
vn -0.000000 0.000000 1.000000
vn -0.000000 0.000000 1.000000
vn -0.000000 0.000000 1.000000
vn 0.000000 0.000000 1.000000
vn 0.000000 0.000000 1.000000
vn 0.000000 0.000000 1.000000
vn 0.000000 0.000000 1.000000
vn 0.000000 0.000000 1.000000
vn 0.000000 0.000000 1.000000
vn 0.000000 0.000000 1.000000
vn 0.000000 0.000000 1.000000
vn 0.000000 0.000000 1.000000
vn 0.000000 0.000000 1.000000
vn 0.000000 0.000000 1.000000
vn 0.000000 0.000000 1.000000
vn 0.000000 0.000000 1.000000
vn 0.000000 0.000000 1.000000
vn 0.000000 0.000000 1.000000
vn 0.000000 0.000000 1.000000
vn -0.000000 0.000000 1.000000
vn -0.000000 0.000000 1.000000
vn -0.000000 0.000000 1.000000
vn 0.000000 0.000000 1.000000
vn 0.000000 0.000000 1.000000
vn 0.000000 0.000000 1.000000
vn 0.000000 0.000000 1.000000
vn 0.000000 0.000000 1.000000
vn 0.000000 0.000000 1.000000
vn 0.000000 0.000000 1.000000
vn 0.000000 0.000000 1.000000
vn 0.000000 0.000000 1.000000
vn 0.000000 0.000000 1.000000
vn 0.000000 0.000000 1.000000
vn 0.000000 0.000000 1.000000
vn 0.000000 0.000000 -1.000000
vn 0.000000 0.000000 -1.000000
vn 0.000000 0.000000 -1.000000
vn 0.000000 0.000000 -1.000000
vn 0.000000 1.000000 0.000000
vn 0.000000 1.000000 0.000000
vn 0.000000 1.000000 0.000000
vn 0.000000 1.000000 0.000000
vn 0.000000 -1.000000 0.000000
vn 0.000000 -1.000000 0.000000
vn 0.000000 -1.000000 0.000000
vn 0.000000 -1.000000 0.000000
vn -1.000000 0.000000 0.000000
vn -1.000000 0.000000 0.000000
vn -1.000000 0.000000 0.000000
vn -1.000000 0.000000 0.000000
vn 1.000000 0.000000 0.000000
vn 1.000000 0.000000 0.000000
vn 1.000000 0.000000 0.000000
vn 1.000000 0.000000 0.000000
vn 0.000000 0.000000 1.000000
vn 0.000000 0.000000 1.000000
vn 0.000000 0.000000 1.000000
vn 0.000000 0.000000 1.000000
vn 0.000000 0.000000 1.000000
vn 0.000000 0.000000 1.000000
vn 0.000000 0.000000 1.000000
vn 0.000000 0.000000 1.000000
vn 0.000000 0.000000 1.000000
vn 0.000000 0.000000 1.000000
vn 0.000000 0.000000 1.000000
vn 0.000000 0.000000 1.000000
vn 0.000000 0.000000 1.000000
vn 0.000000 0.000000 1.000000
vn 0.000000 0.000000 1.000000
vn 0.000000 0.000000 1.000000
vn 0.000000 -0.897227 0.441569
vn 0.000000 -0.897227 0.441569
vn 0.000000 -0.897227 0.441569
vn 0.000000 -0.897227 0.441569
vn 0.895086 0.000000 0.445895
vn 0.895086 0.000000 0.445895
vn 0.895086 0.000000 0.445895
vn 0.895086 0.000000 0.445895
vn 0.000000 0.897242 0.441540
vn 0.000000 0.897242 0.441540
vn 0.000000 0.897242 0.441540
vn 0.000000 0.897242 0.441540
vn -0.895086 0.000000 0.445895
vn -0.895086 0.000000 0.445895
vn -0.895086 0.000000 0.445895
vn -0.895086 0.000000 0.445895
vn 0.000000 0.000000 1.000000
vn 0.000000 0.000000 1.000000
vn 0.000000 0.000000 1.000000
vn 0.000000 0.000000 1.000000
vn 0.000000 0.000000 1.000000
vn 0.000000 0.000000 1.000000
vn 0.000000 0.000000 1.000000
vn 0.000000 0.000000 1.000000
vn 0.000000 0.000000 1.000000
vn 0.000000 0.000000 1.000000
vn 0.000000 0.000000 1.000000
vn 0.000000 0.000000 1.000000
vn -0.000000 0.000000 1.000000
vn -0.000000 0.000000 1.000000
vn -0.000000 0.000000 1.000000
vn -0.000000 0.000000 1.000000
s off
f 26/20/1 2/2/2 25/19/3
f 9/40/4 11/38/5 10/39/6
f 25/50/7 28/47/8 27/48/9 26/49/10
f 11/69/11 32/70/12 10/71/13
f 21/28/14 43/60/15 22/61/16
f 14/72/17 33/73/18 13/74/19
f 13/11/20 33/55/21 31/56/22
f 7/7/23 34/15/24 36/29/25 37/30/26
f 38/3/27 39/4/28 5/5/29 3/6/30
f 37/79/31 36/80/32 4/82/33 6/83/34
f 35/85/35 17/86/36 39/87/37 38/88/38
f 10/13/39 42/91/40 9/12/41
f 1/1/42 40/89/43 27/21/44
f 27/21/45 40/89/46 26/20/47
f 1/1/48 28/22/49 41/90/50
f 41/90/51 14/27/52 15/75/53
f 25/19/54 2/2/55 42/91/56
f 25/19/57 42/91/58 23/17/59 24/18/60
f 41/90/61 28/22/62 29/23/63 30/24/64
f 1/1/65 27/21/66 28/22/67
f 26/20/68 40/89/69 2/2/70
f 21/44/71 30/45/72 29/46/73 20/54/74
f 20/54/75 24/51/76 23/52/77 19/53/78
f 20/54/79 29/46/80 28/47/81 25/50/82 24/51/83
f 14/62/84 22/61/85 43/60/86
f 18/63/87 43/60/88 19/64/89
f 10/65/90 43/60/91 18/63/92
f 31/66/93 43/60/94 10/65/95 32/67/96
f 14/62/97 43/60/98 31/66/99 33/68/100
f 20/92/101 43/60/102 21/28/103
f 19/64/104 43/60/105 20/92/106
f 8/10/107 42/91/108 34/8/109 7/9/110
f 41/90/111 16/76/112 17/77/113 35/78/114
f 41/90/115 30/24/116 21/25/117 22/26/118
f 18/14/119 42/91/120 10/13/121
f 23/17/122 42/91/123 18/14/124 19/16/125
f 41/90/126 22/26/127 14/27/128
f 13/36/129 16/33/130 15/34/131
f 37/81/132 12/37/133 7/42/134
f 12/37/135 39/84/136 17/32/137
f 6/43/138 12/37/139 37/81/140
f 7/42/141 12/37/142 11/38/143 8/41/144
f 13/11/145 11/58/146 12/59/147
f 12/37/148 17/32/149 16/33/150 13/36/151
f 8/41/152 11/38/153 9/40/154
f 13/36/155 15/34/156 14/35/157
f 11/58/158 31/56/159 32/57/160
f 13/11/161 31/56/162 11/58/163
f 9/12/164 42/91/165 8/10/166
f 41/90/167 15/75/168 16/76/169
f 5/31/170 39/84/171 12/37/172
f 5/31/173 12/37/174 6/43/175
f 44/93/176 45/94/177 47/95/178 46/96/179
f 46/96/180 47/95/181 49/97/182 48/98/183
f 50/99/184 51/100/185 45/101/186 44/102/187
f 45/94/188 51/103/189 49/104/190 47/95/191
f 50/105/192 44/93/193 46/96/194 48/106/195
f 48/98/196 49/97/197 53/107/198 52/108/199
f 49/97/200 51/100/201 54/109/202 53/107/203
f 51/100/204 50/99/205 55/110/206 54/109/207
f 50/99/208 48/98/209 52/108/210 55/110/211
f 52/108/212 53/107/213 57/111/214 56/112/215
f 53/107/216 54/109/217 58/113/218 57/111/219
f 54/109/220 55/110/221 59/114/222 58/113/223
f 55/110/224 52/108/225 56/112/226 59/114/227
f 56/115/228 57/116/229 61/117/230 60/118/231
f 57/116/232 58/119/233 62/120/234 61/117/235
f 58/119/236 59/121/237 63/122/238 62/120/239
f 59/121/240 56/115/241 60/118/242 63/122/243
