# This file uses meters as units for non-parametric coordinates.

v -35.555176 6.118889 -21.447632
v -35.555176 3.982941 21.447388
v 35.555176 3.041748 -21.447632
v 35.555176 3.837845 21.447388
v -0.000122 6.502098 -20.462402
v -0.000122 5.808357 21.972290
v -0.000122 0.075714 21.532959
v -0.000122 1.382782 -20.901733
v -0.000122 -2.444870 -0.470215
v 35.905396 -0.972687 0.099976
v 35.905396 9.559708 0.970703
v -0.000122 16.351807 1.279785
v -35.905396 9.653648 0.970703
v -35.905396 0.184189 0.099976
v -0.000122 -2.880020 -13.875488
v 34.455078 -2.465530 -14.812012
v 34.455078 8.400940 -13.941162
v -0.000122 14.457436 -12.293579
v -34.455200 10.671776 -13.941162
v -34.455200 0.538170 -14.812012
v -0.000122 -2.497604 11.176025
v -34.455200 0.021896 12.881592
v -34.455200 9.285889 13.752319
v -0.000122 14.833954 12.757935
v 34.455078 10.077087 13.752319
v 34.455078 -0.139481 12.881592
v -30.612427 2.793777 -22.414429
v -30.612427 8.143257 -21.975098
v -27.803223 13.554062 -13.335205
v -28.973022 14.150505 1.195679
v -27.803223 12.995522 13.502197
v -30.612427 6.622749 23.485107
v -30.612427 0.679886 23.045776
v -27.803223 -1.756554 12.080322
v -28.973022 -2.302338 -0.386230
v -27.803223 -2.073044 -14.757080
v 30.612427 -0.080750 -22.414429
v 30.612427 5.475945 -21.975098
v 27.803101 12.136505 -13.335205
v 28.973022 14.398781 1.195679
v 27.803101 13.624428 13.502197
v 30.612427 6.713989 23.485107
v 30.612427 0.795235 23.045776
v 27.803101 -1.730240 12.080322
v 28.973022 -3.162285 -0.386230
v 27.803101 -4.450676 -14.757080
v -0.000122 4.067787 -22.891968
v 32.103882 3.124016 -24.562256
v 38.043823 2.976906 -15.929688
v 39.645142 3.918259 0.535400
v 38.043823 4.201462 14.648193
v 32.103882 3.518410 24.562134
v -0.000122 2.568512 22.891846
v -32.103882 3.098129 24.562134
v -38.043823 4.114479 14.648193
v -39.645142 4.650322 0.535400
v -38.043823 5.915817 -15.929688
v -32.103882 5.941902 -24.562256
v -14.984985 -2.865631 -14.350708
v -15.615479 -2.442856 -0.424927
v -14.984863 -2.054428 11.663452
v -16.499023 0.060898 22.348267
v -17.302856 2.555244 23.792114
v -16.499023 6.237175 22.787720
v -14.984985 13.808052 13.159180
v -15.615479 14.838844 1.234497
v -14.984863 13.286003 -12.854980
v -16.499023 6.666344 -21.277710
v -17.302856 4.291405 -23.792114
v -16.499023 1.457809 -21.717041
v 16.387085 0.535675 -21.711548
v 14.883179 -3.530449 -14.347412
v 15.509399 -2.564102 -0.425293
v 14.883179 -2.178642 11.660034
v 16.387085 -0.636040 22.342773
v 17.185425 1.838318 23.786011
v 16.387085 5.177521 22.782104
v 14.883179 14.138321 13.156372
v 15.509399 15.338028 1.234741
v 14.883179 13.239029 -12.851196
v 16.387085 5.873802 -21.272217
v 17.185425 3.335274 -23.786133
vt 0.068584 0.383901
vt 0.068584 0.383901
vt 0.068584 0.383901
vt 0.068584 0.383901
vt 0.068584 0.383901
vt 0.068584 0.383901
vt 0.068584 0.383901
vt 0.068584 0.383901
vt 0.068584 0.383901
vt 0.068584 0.383901
vt 0.068584 0.383901
vt 0.068584 0.383901
vt 0.068584 0.383901
vt 0.068584 0.383901
vt 0.068584 0.383901
vt 0.068584 0.383901
vt 0.068584 0.383901
vt 0.068584 0.383901
vt 0.068584 0.383901
vt 0.068584 0.383901
vt 0.068584 0.383901
vt 0.068584 0.383901
vt 0.068584 0.383901
vt 0.068584 0.383901
vt 0.068584 0.383901
vt 0.068584 0.383901
vt 0.068584 0.383901
vt 0.068584 0.383901
vt 0.068584 0.383901
vt 0.068584 0.383901
vt 0.068584 0.383901
vt 0.068584 0.383901
vt 0.068584 0.383901
vt 0.068584 0.383901
vt 0.068584 0.383901
vt 0.068584 0.383901
vt 0.068584 0.383901
vt 0.068584 0.383901
vt 0.068584 0.383901
vt 0.068584 0.383901
vt 0.068584 0.383901
vt 0.068584 0.383901
vt 0.068584 0.383901
vt 0.068584 0.383901
vt 0.068584 0.383901
vt 0.068584 0.383901
vt 0.068584 0.383901
vt 0.068584 0.383901
vt 0.068584 0.383901
vt 0.068584 0.383901
vt 0.068584 0.383901
vt 0.068584 0.383901
vt 0.068584 0.383901
vt 0.068584 0.383901
vt 0.068584 0.383901
vt 0.068584 0.383901
vt 0.068584 0.383901
vt 0.068584 0.383901
vt 0.068584 0.383901
vt 0.068584 0.383901
vt 0.068584 0.383901
vt 0.068584 0.383901
vt 0.068584 0.383901
vt 0.068584 0.383901
vt 0.068584 0.383901
vt 0.068584 0.383901
vt 0.068584 0.383901
vt 0.068584 0.383901
vt 0.068584 0.383901
vt 0.068584 0.383901
vt 0.068584 0.383901
vt 0.068584 0.383901
vt 0.068584 0.383901
vt 0.068584 0.383901
vt 0.068584 0.383901
vt 0.068584 0.383901
vt 0.068584 0.383901
vt 0.068584 0.383901
vt 0.068584 0.383901
vt 0.068584 0.383901
vt 0.068584 0.383901
vt 0.068584 0.383901
vt 0.068584 0.383901
vt 0.068584 0.383901
vt 0.068584 0.383901
vt 0.068584 0.383901
vt 0.068584 0.383901
vt 0.068584 0.383901
vt 0.068584 0.383901
vt 0.068584 0.383901
vt 0.068584 0.383901
vt 0.068584 0.383901
vt 0.068584 0.383901
vt 0.068584 0.383901
vt 0.068584 0.383901
vt 0.068584 0.383901
vt 0.068584 0.383901
vt 0.068584 0.383901
vt 0.068584 0.383901
vt 0.068584 0.383901
vt 0.068584 0.383901
vt 0.068584 0.383901
vt 0.068584 0.383901
vt 0.068584 0.383901
vt 0.068584 0.383901
vt 0.068584 0.383901
vt 0.068584 0.383901
vt 0.068584 0.383901
vt 0.068584 0.383901
vt 0.068584 0.383901
vt 0.068584 0.383901
vt 0.068584 0.383901
vn -0.749143 -0.658920 0.067895
vn -0.749143 -0.658920 0.067895
vn -0.749143 -0.658920 0.067895
vn -0.749143 -0.658920 0.067895
vn 0.524172 0.849246 0.063444
vn 0.524172 0.849246 0.063444
vn 0.524172 0.849246 0.063444
vn 0.524172 0.849246 0.063444
vn 0.764882 -0.634162 0.113114
vn 0.764882 -0.634162 0.113114
vn 0.764882 -0.634162 0.113114
vn 0.764882 -0.634162 0.113114
vn 0.256459 -0.959957 0.112742
vn 0.256459 -0.959957 0.112742
vn 0.256459 -0.959957 0.112742
vn 0.256459 -0.959957 0.112742
vn 0.558664 -0.615521 0.555903
vn 0.558664 -0.615521 0.555903
vn 0.558664 -0.615521 0.555903
vn 0.512092 -0.629771 -0.584081
vn 0.512093 -0.629771 -0.584081
vn 0.512093 -0.629771 -0.584081
vn -0.055905 0.994018 0.093819
vn -0.055905 0.994018 0.093819
vn -0.055905 0.994018 0.093819
vn -0.055905 0.994018 0.093819
vn 0.023290 -0.507971 0.861059
vn 0.023290 -0.507971 0.861059
vn 0.023290 -0.507971 0.861059
vn 0.023290 -0.507971 0.861059
vn -0.016051 -0.999103 0.039189
vn -0.016051 -0.999103 0.039189
vn -0.016051 -0.999103 0.039189
vn -0.016051 -0.999103 0.039189
vn -0.018771 -0.581425 -0.813383
vn -0.018771 -0.581425 -0.813384
vn -0.018771 -0.581425 -0.813383
vn -0.018771 -0.581425 -0.813384
vn 0.291273 -0.954457 0.064590
vn 0.291273 -0.954457 0.064590
vn 0.291273 -0.954457 0.064590
vn 0.291273 -0.954457 0.064590
vn 0.814144 -0.579654 -0.034212
vn 0.814144 -0.579654 -0.034212
vn 0.814144 -0.579654 -0.034212
vn 0.814144 -0.579654 -0.034212
vn 0.521880 0.840754 -0.144134
vn 0.521879 0.840754 -0.144134
vn 0.521879 0.840754 -0.144134
vn 0.521879 0.840754 -0.144134
vn -0.014505 0.997019 -0.075785
vn -0.014505 0.997019 -0.075785
vn -0.014505 0.997019 -0.075785
vn -0.014505 0.997019 -0.075785
vn -0.793823 -0.598466 -0.108090
vn -0.793823 -0.598466 -0.108090
vn -0.793823 -0.598466 -0.108090
vn -0.793823 -0.598466 -0.108090
vn -0.035689 -0.999353 0.004563
vn -0.035689 -0.999353 0.004563
vn -0.035689 -0.999353 0.004563
vn -0.035689 -0.999353 0.004563
vn 0.389532 -0.804086 -0.449121
vn 0.389532 -0.804086 -0.449121
vn 0.389532 -0.804086 -0.449121
vn 0.389532 -0.804086 -0.449121
vn 0.749583 -0.565066 -0.344710
vn 0.749584 -0.565066 -0.344710
vn 0.749584 -0.565066 -0.344710
vn 0.409898 0.776404 -0.478728
vn 0.409898 0.776404 -0.478728
vn 0.409898 0.776404 -0.478728
vn 0.409898 0.776404 -0.478728
vn 0.077877 0.805396 -0.587599
vn 0.077877 0.805396 -0.587599
vn 0.077877 0.805396 -0.587599
vn 0.077877 0.805396 -0.587599
vn -0.741690 -0.568820 -0.355443
vn -0.741690 -0.568820 -0.355443
vn -0.741690 -0.568820 -0.355443
vn -0.046858 -0.858060 -0.511407
vn -0.046858 -0.858060 -0.511407
vn -0.046858 -0.858060 -0.511407
vn -0.046858 -0.858060 -0.511407
vn -0.025027 -0.979294 0.200890
vn -0.025027 -0.979294 0.200890
vn -0.025027 -0.979294 0.200890
vn -0.025027 -0.979294 0.200890
vn -0.678361 -0.696192 0.234826
vn -0.678361 -0.696192 0.234826
vn -0.678361 -0.696192 0.234826
vn 0.009534 0.813969 0.580830
vn 0.009534 0.813969 0.580830
vn 0.009534 0.813969 0.580830
vn 0.009534 0.813969 0.580830
vn 0.484789 0.749711 0.450459
vn 0.484789 0.749711 0.450459
vn 0.484789 0.749711 0.450459
vn 0.484789 0.749711 0.450459
vn 0.705166 -0.673361 0.222095
vn 0.705166 -0.673360 0.222095
vn 0.705166 -0.673361 0.222095
vn 0.374878 -0.899495 0.224445
vn 0.374878 -0.899495 0.224445
vn 0.374878 -0.899495 0.224445
vn 0.374878 -0.899495 0.224445
vn -0.535683 -0.634177 -0.557550
vn -0.535684 -0.634177 -0.557550
vn -0.535684 -0.634177 -0.557550
vn -0.349517 0.832797 -0.429286
vn -0.349517 0.832797 -0.429286
vn -0.349517 0.832797 -0.429286
vn -0.349517 0.832797 -0.429286
vn -0.475714 0.879097 -0.029741
vn -0.475714 0.879097 -0.029741
vn -0.475714 0.879097 -0.029741
vn -0.475714 0.879097 -0.029741
vn -0.514062 0.851259 0.105352
vn -0.514062 0.851259 0.105352
vn -0.514062 0.851259 0.105352
vn -0.514062 0.851259 0.105352
vn -0.486498 0.774641 0.404044
vn -0.486498 0.774641 0.404044
vn -0.486498 0.774641 0.404044
vn -0.486498 0.774641 0.404044
vn -0.590663 -0.657558 0.467691
vn -0.590663 -0.657558 0.467691
vn -0.590663 -0.657558 0.467691
vn -0.404512 -0.889967 0.210547
vn -0.404512 -0.889967 0.210547
vn -0.404512 -0.889967 0.210547
vn -0.404512 -0.889967 0.210547
vn -0.295344 -0.954324 0.045143
vn -0.295344 -0.954324 0.045143
vn -0.295344 -0.954324 0.045143
vn -0.295344 -0.954324 0.045143
vn -0.352294 -0.934545 -0.050135
vn -0.352294 -0.934545 -0.050135
vn -0.352294 -0.934545 -0.050135
vn -0.352294 -0.934545 -0.050135
vn -0.434600 -0.779580 -0.450974
vn -0.434600 -0.779580 -0.450975
vn -0.434600 -0.779580 -0.450974
vn -0.434600 -0.779580 -0.450974
vn -0.068567 -0.587568 -0.806264
vn -0.068567 -0.587568 -0.806264
vn -0.068567 -0.587568 -0.806264
vn -0.068567 -0.587568 -0.806264
vn 0.013783 0.735205 -0.677705
vn 0.013783 0.735205 -0.677705
vn 0.013783 0.735205 -0.677705
vn 0.013783 0.735205 -0.677705
vn 0.069641 0.987111 -0.144093
vn 0.069641 0.987111 -0.144093
vn 0.069641 0.987111 -0.144093
vn 0.069641 0.987111 -0.144093
vn 0.054420 0.991684 0.116627
vn 0.054420 0.991684 0.116627
vn 0.054420 0.991684 0.116627
vn 0.054420 0.991684 0.116627
vn 0.004014 0.723458 0.690356
vn 0.004014 0.723458 0.690356
vn 0.004014 0.723458 0.690356
vn 0.004014 0.723458 0.690356
vn -0.065054 -0.482347 0.873561
vn -0.065054 -0.482347 0.873561
vn -0.065054 -0.482347 0.873561
vn -0.065054 -0.482347 0.873561
vn -0.020321 -0.980920 0.193347
vn -0.020321 -0.980920 0.193347
vn -0.020321 -0.980920 0.193347
vn -0.020321 -0.980920 0.193347
vn 0.006324 -0.999879 0.014186
vn 0.006324 -0.999879 0.014186
vn 0.006324 -0.999879 0.014186
vn 0.006324 -0.999879 0.014186
vn -0.024555 -0.998357 0.051764
vn -0.024555 -0.998357 0.051764
vn -0.024555 -0.998357 0.051764
vn -0.024555 -0.998357 0.051764
vn -0.061925 -0.861007 -0.504809
vn -0.061925 -0.861007 -0.504809
vn -0.061925 -0.861007 -0.504809
vn -0.061925 -0.861007 -0.504809
vn -0.007474 0.704387 -0.709777
vn -0.007474 0.704387 -0.709777
vn -0.007474 0.704387 -0.709777
vn -0.007474 0.704387 -0.709777
vn 0.431637 0.777266 -0.457764
vn 0.431637 0.777266 -0.457764
vn 0.431637 0.777266 -0.457764
vn 0.730721 0.601702 -0.322492
vn 0.730721 0.601702 -0.322492
vn 0.730721 0.601702 -0.322492
vn 0.815967 0.566084 -0.117248
vn 0.815967 0.566084 -0.117248
vn 0.815967 0.566084 -0.117248
vn 0.815967 0.566084 -0.117248
vn 0.839586 0.537412 0.079268
vn 0.839586 0.537412 0.079268
vn 0.839586 0.537412 0.079268
vn 0.839586 0.537412 0.079268
vn 0.787315 0.529133 0.316471
vn 0.787315 0.529133 0.316471
vn 0.787315 0.529133 0.316471
vn 0.559816 0.487184 0.670267
vn 0.559816 0.487184 0.670267
vn 0.559816 0.487184 0.670267
vn -0.037545 0.276217 0.960362
vn -0.037545 0.276217 0.960362
vn -0.037545 0.276217 0.960362
vn -0.037545 0.276217 0.960362
vn 0.057270 0.260148 0.963869
vn 0.057270 0.260148 0.963869
vn 0.057270 0.260147 0.963869
vn 0.057270 0.260147 0.963869
vn -0.534152 0.445563 0.718439
vn -0.534152 0.445563 0.718439
vn -0.534152 0.445564 0.718439
vn -0.761965 0.579010 0.290097
vn -0.761965 0.579010 0.290097
vn -0.761965 0.579010 0.290097
vn -0.804050 0.584136 0.110856
vn -0.804050 0.584136 0.110856
vn -0.804050 0.584136 0.110856
vn -0.804050 0.584136 0.110856
vn -0.795221 0.605406 -0.033276
vn -0.795221 0.605406 -0.033276
vn -0.795221 0.605406 -0.033276
vn -0.795221 0.605406 -0.033276
vn -0.700746 0.650876 -0.292090
vn -0.700746 0.650876 -0.292090
vn -0.700746 0.650876 -0.292090
vn -0.377687 0.801259 -0.464043
vn -0.377687 0.801259 -0.464043
vn -0.377687 0.801259 -0.464043
vn 0.112304 0.714035 -0.691044
vn 0.112304 0.714035 -0.691044
vn 0.112304 0.714035 -0.691044
vn 0.112304 0.714035 -0.691044
vn -0.000976 -0.999508 0.031352
vn -0.000976 -0.999508 0.031352
vn -0.000976 -0.999508 0.031352
vn -0.000976 -0.999508 0.031352
vn -0.014293 -0.999792 0.014520
vn -0.014293 -0.999792 0.014520
vn -0.014293 -0.999792 0.014520
vn -0.014293 -0.999792 0.014520
vn -0.004294 -0.976119 0.217195
vn -0.004294 -0.976119 0.217195
vn -0.004294 -0.976119 0.217195
vn -0.004294 -0.976119 0.217195
vn 0.044759 -0.483941 0.873955
vn 0.044759 -0.483941 0.873955
vn 0.044759 -0.483941 0.873955
vn 0.044759 -0.483941 0.873955
vn 0.052134 0.261814 0.963709
vn 0.052134 0.261814 0.963709
vn 0.052134 0.261814 0.963709
vn 0.052134 0.261814 0.963709
vn 0.011338 0.749922 0.661429
vn 0.011338 0.749922 0.661429
vn 0.011338 0.749922 0.661429
vn 0.011338 0.749922 0.661429
vn -0.080911 0.990626 0.110062
vn -0.080911 0.990626 0.110062
vn -0.080911 0.990626 0.110062
vn -0.080911 0.990626 0.110062
vn -0.084241 0.988560 -0.125110
vn -0.084241 0.988560 -0.125110
vn -0.084241 0.988560 -0.125110
vn -0.084241 0.988560 -0.125110
vn 0.004843 0.751059 -0.660217
vn 0.004843 0.751060 -0.660217
vn 0.004843 0.751059 -0.660217
vn 0.004843 0.751060 -0.660217
vn 0.043714 0.712559 -0.700249
vn 0.043714 0.712559 -0.700249
vn 0.043714 0.712559 -0.700249
vn 0.043714 0.712559 -0.700249
vn 0.035754 -0.589341 -0.807093
vn 0.035754 -0.589341 -0.807093
vn 0.035754 -0.589341 -0.807092
vn 0.035754 -0.589341 -0.807093
vn 0.018620 -0.857776 -0.513686
vn 0.018620 -0.857776 -0.513686
vn 0.018620 -0.857776 -0.513686
vn 0.018620 -0.857776 -0.513686
vn -0.069388 -0.861171 -0.503557
vn -0.069388 -0.861171 -0.503557
vn -0.069388 -0.861171 -0.503557
vn -0.069388 -0.861171 -0.503557
vn -0.056099 -0.994981 0.082854
vn -0.056099 -0.994982 0.082854
vn -0.056099 -0.994981 0.082854
vn -0.056099 -0.994982 0.082854
vn -0.006938 -0.997284 0.073319
vn -0.006938 -0.997284 0.073319
vn -0.006938 -0.997284 0.073318
vn -0.006938 -0.997284 0.073318
vn 0.060933 -0.983105 0.172602
vn 0.060933 -0.983105 0.172602
vn 0.060933 -0.983105 0.172602
vn 0.060933 -0.983105 0.172602
vn 0.009135 -0.497840 0.867221
vn 0.009135 -0.497840 0.867221
vn 0.009135 -0.497840 0.867221
vn 0.009135 -0.497840 0.867221
vn -0.079190 0.277174 0.957551
vn -0.079190 0.277174 0.957551
vn -0.079190 0.277174 0.957551
vn -0.079190 0.277174 0.957551
vn -0.053568 0.770381 0.635330
vn -0.053568 0.770381 0.635330
vn -0.053568 0.770381 0.635330
vn -0.053568 0.770381 0.635330
vn 0.053809 0.994922 0.085053
vn 0.053809 0.994922 0.085053
vn 0.053809 0.994922 0.085053
vn 0.053809 0.994922 0.085053
vn 0.073178 0.985240 -0.154746
vn 0.073178 0.985240 -0.154746
vn 0.073178 0.985240 -0.154746
vn 0.073178 0.985240 -0.154746
vn 0.015131 0.774256 -0.632691
vn 0.015131 0.774256 -0.632691
vn 0.015131 0.774256 -0.632691
vn 0.015131 0.774256 -0.632691
vn -0.020366 0.717120 -0.696652
vn -0.020366 0.717120 -0.696652
vn -0.020366 0.717120 -0.696652
vn -0.020366 0.717120 -0.696652
vn -0.057850 -0.559412 -0.826868
vn -0.057850 -0.559412 -0.826868
vn -0.057850 -0.559412 -0.826868
vn -0.057850 -0.559412 -0.826868
s off
f 55/1/1 56/2/2 14/3/3 22/4/4
f 11/5/5 40/6/6 41/7/7 25/8/8
f 10/9/9 50/10/10 51/11/11 26/12/12
f 44/13/13 45/14/14 10/9/15 26/12/16
f 4/15/17 52/16/18 43/17/19
f 3/18/20 37/19/21 48/20/22
f 65/21/23 66/22/24 30/23/25 31/24/26
f 62/25/27 63/26/28 54/27/29 33/28/30
f 34/29/31 35/30/32 60/31/33 61/32/34
f 58/33/35 69/34/36 70/35/37 27/36/38
f 45/14/39 46/37/40 16/38/41 10/9/42
f 16/38/43 49/39/44 50/10/45 10/9/46
f 17/40/47 39/41/48 40/6/49 11/5/50
f 66/22/51 67/42/52 29/43/53 30/23/54
f 56/2/55 57/44/56 20/45/57 14/3/58
f 35/30/59 36/46/60 59/47/61 60/31/62
f 3/48/63 16/38/64 46/37/65 37/49/66
f 3/48/67 49/39/68 16/38/69
f 38/50/70 39/41/71 17/40/72 3/51/73
f 28/52/74 29/43/75 67/42/76 68/53/77
f 1/54/78 20/45/79 57/44/80
f 70/55/81 59/47/82 36/46/83 27/56/84
f 33/57/85 34/29/86 61/32/87 62/58/88
f 2/59/89 55/1/90 22/4/91
f 64/60/92 65/21/93 31/24/94 32/61/95
f 25/8/96 41/7/97 42/62/98 4/63/99
f 26/12/100 51/11/101 4/63/102
f 43/64/103 44/13/104 26/12/105 4/63/106
f 1/54/107 58/33/108 27/36/109
f 1/65/110 19/66/111 29/43/112 28/52/113
f 30/23/114 29/43/115 19/66/116 13/67/117
f 31/24/118 30/23/119 13/67/120 23/68/121
f 32/61/122 31/24/123 23/68/124 2/69/125
f 2/59/126 33/28/127 54/27/128
f 22/70/129 34/29/130 33/57/131 2/71/132
f 14/72/133 35/30/134 34/29/135 22/70/136
f 20/73/137 36/46/138 35/30/139 14/72/140
f 27/56/141 36/46/142 20/73/143 1/74/144
f 47/75/145 82/76/146 71/77/147 8/78/148
f 5/79/149 18/80/150 80/81/151 81/82/152
f 79/83/153 80/81/154 18/80/155 12/84/156
f 78/85/157 79/83/158 12/84/159 24/86/160
f 77/87/161 78/85/162 24/86/163 6/88/164
f 75/89/165 76/90/166 53/91/167 7/92/168
f 21/93/169 74/94/170 75/95/171 7/96/172
f 9/97/173 73/98/174 74/94/175 21/93/176
f 15/99/177 72/100/178 73/98/179 9/97/180
f 71/101/181 72/100/182 15/99/183 8/102/184
f 81/103/185 82/76/186 47/75/187 5/104/188
f 3/18/189 48/20/190 38/105/191
f 3/51/192 17/40/193 49/39/194
f 50/10/195 49/39/196 17/40/197 11/5/198
f 51/11/199 50/10/200 11/5/201 25/8/202
f 4/63/203 51/11/204 25/8/205
f 42/106/206 52/16/207 4/15/208
f 6/107/209 53/91/210 76/90/211 77/108/212
f 32/109/213 54/27/214 63/26/215 64/110/216
f 2/59/217 54/27/218 32/109/219
f 23/68/220 55/1/221 2/59/222
f 13/67/223 56/2/224 55/1/225 23/68/226
f 19/66/227 57/44/228 56/2/229 13/67/230
f 1/54/231 57/44/232 19/66/233
f 28/111/234 58/33/235 1/54/236
f 68/112/237 69/34/238 58/33/239 28/111/240
f 60/31/241 59/47/242 15/99/243 9/97/244
f 61/32/245 60/31/246 9/97/247 21/93/248
f 62/58/249 61/32/250 21/93/251 7/96/252
f 53/91/253 63/26/254 62/25/255 7/92/256
f 64/110/257 63/26/258 53/91/259 6/107/260
f 24/86/261 65/21/262 64/60/263 6/88/264
f 12/84/265 66/22/266 65/21/267 24/86/268
f 18/80/269 67/42/270 66/22/271 12/84/272
f 68/53/273 67/42/274 18/80/275 5/79/276
f 5/104/277 47/75/278 69/34/279 68/112/280
f 70/35/281 69/34/282 47/75/283 8/78/284
f 8/102/285 15/99/286 59/47/287 70/55/288
f 37/49/289 46/37/290 72/100/291 71/101/292
f 73/98/293 72/100/294 46/37/295 45/14/296
f 74/94/297 73/98/298 45/14/299 44/13/300
f 75/95/301 74/94/302 44/13/303 43/64/304
f 52/16/305 76/90/306 75/89/307 43/17/308
f 77/108/309 76/90/310 52/16/311 42/106/312
f 42/62/313 41/7/314 78/85/315 77/87/316
f 41/7/317 40/6/318 79/83/319 78/85/320
f 40/6/321 39/41/322 80/81/323 79/83/324
f 81/82/325 80/81/326 39/41/327 38/50/328
f 38/105/329 48/20/330 82/76/331 81/103/332
f 71/77/333 82/76/334 48/20/335 37/19/336
