# This file uses meters as units for non-parametric coordinates.

v 13.657654 0.000000 5.656982
v 13.657776 0.000000 -5.657227
v 5.657227 0.000000 -13.657715
v -5.657166 0.000000 -13.657715
v -13.657654 0.000000 -5.657227
v -13.657715 0.000000 5.657227
v -5.657227 0.000000 13.657471
v 5.657288 0.000000 13.657715
v 11.092224 1.336395 4.594727
v 11.092224 1.336395 -4.594482
v 4.594482 1.336395 -11.092285
v -4.594482 1.336395 -11.092285
v -11.092163 1.336395 -4.594727
v -11.092163 1.336395 4.594482
v -4.594421 1.336395 11.092285
v 4.594604 1.336395 11.092285
v 0.000061 0.000000 0.000000
v 0.000061 1.336395 0.000000
v 20.081665 2.557854 8.317871
v 20.081848 2.557854 -8.318359
v 19.566650 3.324806 -8.104736
v 19.566711 3.324806 8.104980
v 8.318115 2.557854 -20.081787
v 8.104675 3.324806 -19.566895
v -8.318054 2.557854 -20.081787
v -8.104736 3.324806 -19.566650
v -20.081726 2.557854 -8.318359
v -19.566650 3.324806 -8.104980
v -20.081787 2.557854 8.318359
v -19.566589 3.324806 8.104736
v -8.318176 2.557854 20.081543
v -8.104614 3.324806 19.566895
v 8.318176 2.557854 20.081787
v 8.104858 3.324806 19.566650
vt 0.068940 0.380780
vt 0.068940 0.380780
vt 0.068940 0.380780
vt 0.068940 0.380780
vt 0.068940 0.380780
vt 0.068940 0.380780
vt 0.068940 0.380780
vt 0.068940 0.380780
vt 0.068940 0.380780
vt 0.068940 0.380780
vt 0.068940 0.380780
vt 0.068940 0.380780
vt 0.068940 0.380780
vt 0.068940 0.380780
vt 0.068940 0.380780
vt 0.068940 0.380780
vt 0.068940 0.380780
vt 0.068940 0.380780
vt 0.068940 0.380780
vt 0.068940 0.380780
vt 0.068940 0.380780
vt 0.068940 0.380780
vt 0.068940 0.380780
vt 0.068940 0.380780
vt 0.068940 0.380780
vt 0.068940 0.380780
vt 0.068940 0.380780
vt 0.068940 0.380780
vt 0.068940 0.380780
vt 0.068940 0.380780
vt 0.068940 0.380780
vt 0.068940 0.380780
vt 0.068940 0.380780
vt 0.068940 0.380780
vt 0.068940 0.380780
vt 0.068940 0.380780
vt 0.068940 0.380780
vt 0.068940 0.380780
vt 0.068940 0.380780
vt 0.068940 0.380780
vt 0.068940 0.380780
vt 0.068940 0.380780
vt 0.068940 0.380780
vt 0.068940 0.380780
vt 0.068940 0.380780
vt 0.068940 0.380780
vt 0.068940 0.380780
vt 0.068940 0.380780
vt 0.068940 0.380780
vt 0.068940 0.380780
vt 0.068940 0.380780
vt 0.068940 0.380780
vt 0.068940 0.380780
vt 0.068940 0.380780
vn 0.830161 0.557524 0.000003
vn 0.830160 0.557524 0.000003
vn 0.830160 0.557524 0.000003
vn 0.830161 0.557524 0.000003
vn 0.586973 0.557604 -0.586976
vn 0.586973 0.557604 -0.586976
vn 0.586973 0.557604 -0.586976
vn 0.586973 0.557604 -0.586976
vn -0.000006 0.557480 -0.830191
vn -0.000006 0.557480 -0.830191
vn -0.000006 0.557480 -0.830191
vn -0.000006 0.557480 -0.830191
vn -0.586999 0.557539 -0.587011
vn -0.586999 0.557539 -0.587011
vn -0.586999 0.557539 -0.587011
vn -0.586999 0.557539 -0.587011
vn -0.830129 0.557571 0.000000
vn -0.830129 0.557571 0.000000
vn -0.830129 0.557571 0.000000
vn -0.830129 0.557571 0.000000
vn -0.586987 0.557571 0.586993
vn -0.586987 0.557571 0.586993
vn -0.586987 0.557571 0.586993
vn -0.586987 0.557571 0.586993
vn 0.000000 0.557388 0.830252
vn 0.000000 0.557388 0.830252
vn 0.000000 0.557388 0.830252
vn 0.000000 0.557388 0.830252
vn 0.587085 0.557378 0.587078
vn 0.587085 0.557378 0.587078
vn 0.587085 0.557378 0.587078
vn 0.587084 0.557378 0.587078
vn 0.000000 -1.000000 0.000000
vn 0.000000 -1.000000 0.000000
vn 0.000000 -1.000000 0.000000
vn 0.000000 -1.000000 0.000000
vn 0.000000 -1.000000 0.000000
vn 0.000000 -1.000000 0.000000
vn 0.000000 -1.000000 0.000000
vn 0.000000 -1.000000 0.000000
vn 0.000000 -1.000000 0.000000
vn 0.000000 -1.000000 0.000000
vn 0.000000 -1.000000 0.000000
vn 0.000000 -1.000000 0.000000
vn 0.000000 -1.000000 0.000000
vn 0.000000 -1.000000 0.000000
vn 0.000000 -1.000000 0.000000
vn 0.000000 -1.000000 0.000000
vn 0.000000 -1.000000 0.000000
vn 0.000000 -1.000000 0.000000
vn 0.000000 -1.000000 0.000000
vn 0.000000 -1.000000 0.000000
vn 0.000000 -1.000000 0.000000
vn 0.000000 -1.000000 0.000000
vn 0.000000 -1.000000 0.000000
vn 0.000000 -1.000000 0.000000
vn 0.000000 1.000000 0.000000
vn 0.000000 1.000000 0.000000
vn 0.000000 1.000000 0.000000
vn 0.000000 1.000000 0.000000
vn 0.000000 1.000000 0.000000
vn 0.000000 1.000000 0.000000
vn 0.000000 1.000000 0.000000
vn 0.000000 1.000000 0.000000
vn 0.000000 1.000000 0.000000
vn 0.000000 1.000000 0.000000
vn 0.000000 1.000000 0.000000
vn 0.000000 1.000000 0.000000
vn 0.000000 1.000000 0.000000
vn 0.000000 1.000000 0.000000
vn 0.000000 1.000000 0.000000
vn 0.000000 1.000000 0.000000
vn 0.000000 1.000000 0.000000
vn 0.000000 1.000000 0.000000
vn 0.000000 1.000000 0.000000
vn 0.000000 1.000000 0.000000
vn 0.000000 1.000000 0.000000
vn 0.000000 1.000000 0.000000
vn 0.000000 1.000000 0.000000
vn 0.000000 1.000000 0.000000
vn 0.369924 -0.929062 0.000004
vn 0.369924 -0.929062 0.000004
vn 0.369924 -0.929062 0.000004
vn 0.369924 -0.929062 0.000004
vn -0.228432 0.973560 0.000001
vn -0.228432 0.973560 0.000001
vn -0.228432 0.973560 0.000001
vn -0.228432 0.973560 0.000001
vn 0.261570 -0.929064 -0.261575
vn 0.261570 -0.929064 -0.261575
vn 0.261570 -0.929064 -0.261575
vn 0.261570 -0.929064 -0.261575
vn -0.161526 0.973560 0.161524
vn -0.161526 0.973560 0.161524
vn -0.161526 0.973560 0.161524
vn -0.161526 0.973560 0.161524
vn 0.000000 -0.929063 -0.369922
vn 0.000000 -0.929063 -0.369922
vn 0.000000 -0.929063 -0.369922
vn 0.000000 -0.929063 -0.369922
vn 0.000002 0.973560 0.228431
vn 0.000002 0.973560 0.228431
vn 0.000002 0.973560 0.228431
vn 0.000002 0.973560 0.228431
vn -0.261571 -0.929064 -0.261574
vn -0.261571 -0.929064 -0.261574
vn -0.261571 -0.929064 -0.261574
vn -0.261571 -0.929064 -0.261574
vn 0.161524 0.973560 0.161528
vn 0.161524 0.973560 0.161528
vn 0.161524 0.973560 0.161528
vn 0.161524 0.973560 0.161528
vn -0.369922 -0.929063 -0.000002
vn -0.369922 -0.929063 -0.000002
vn -0.369922 -0.929063 -0.000002
vn -0.369922 -0.929063 -0.000002
vn 0.228432 0.973560 -0.000001
vn 0.228432 0.973560 -0.000001
vn 0.228432 0.973560 -0.000001
vn 0.228432 0.973560 -0.000001
vn -0.261567 -0.929064 0.261576
vn -0.261568 -0.929064 0.261576
vn -0.261567 -0.929064 0.261576
vn -0.261568 -0.929064 0.261576
vn 0.161526 0.973560 -0.161524
vn 0.161526 0.973560 -0.161524
vn 0.161526 0.973560 -0.161524
vn 0.161526 0.973560 -0.161524
vn -0.000006 -0.929063 0.369922
vn -0.000006 -0.929063 0.369922
vn -0.000006 -0.929063 0.369922
vn -0.000006 -0.929063 0.369922
vn -0.000002 0.973560 -0.228431
vn -0.000002 0.973560 -0.228431
vn -0.000002 0.973560 -0.228431
vn -0.000002 0.973560 -0.228431
vn 0.261582 -0.929062 0.261571
vn 0.261582 -0.929062 0.261571
vn 0.261582 -0.929062 0.261571
vn 0.261582 -0.929062 0.261571
vn -0.161525 0.973560 -0.161527
vn -0.161525 0.973560 -0.161527
vn -0.161525 0.973560 -0.161527
vn -0.161525 0.973560 -0.161527
s off
f 19/37/1 20/38/2 21/39/3 22/40/4
f 20/38/5 23/41/6 24/42/7 21/39/8
f 23/41/9 25/43/10 26/44/11 24/42/12
f 25/43/13 27/45/14 28/46/15 26/44/16
f 27/45/17 29/47/18 30/48/19 28/46/20
f 29/47/21 31/49/22 32/50/23 30/48/24
f 31/49/25 33/51/26 34/52/27 32/50/28
f 33/51/29 19/53/30 22/54/31 34/52/32
f 2/2/33 1/1/34 17/35/35
f 3/3/36 2/2/37 17/35/38
f 4/4/39 3/3/40 17/35/41
f 5/5/42 4/4/43 17/35/44
f 6/6/45 5/5/46 17/35/47
f 7/7/48 6/6/49 17/35/50
f 8/8/51 7/7/52 17/35/53
f 1/1/54 8/8/55 17/35/56
f 9/33/57 10/32/58 18/36/59
f 10/32/60 11/31/61 18/36/62
f 11/31/63 12/30/64 18/36/65
f 12/30/66 13/29/67 18/36/68
f 13/29/69 14/28/70 18/36/71
f 14/28/72 15/27/73 18/36/74
f 15/27/75 16/34/76 18/36/77
f 16/34/78 9/33/79 18/36/80
f 1/9/81 2/10/82 20/38/83 19/37/84
f 10/19/85 9/18/86 22/40/87 21/39/88
f 2/10/89 3/11/90 23/41/91 20/38/92
f 11/20/93 10/19/94 21/39/95 24/42/96
f 3/11/97 4/12/98 25/43/99 23/41/100
f 12/21/101 11/20/102 24/42/103 26/44/104
f 4/12/105 5/13/106 27/45/107 25/43/108
f 13/22/109 12/21/110 26/44/111 28/46/112
f 5/13/113 6/14/114 29/47/115 27/45/116
f 14/23/117 13/22/118 28/46/119 30/48/120
f 6/14/121 7/15/122 31/49/123 29/47/124
f 15/24/125 14/23/126 30/48/127 32/50/128
f 7/15/129 8/16/130 33/51/131 31/49/132
f 16/25/133 15/24/134 32/50/135 34/52/136
f 8/16/137 1/17/138 19/53/139 33/51/140
f 9/26/141 16/25/142 34/52/143 22/54/144
