# This file uses meters as units for non-parametric coordinates.

v -4.097900 0.000000 -14.338623
v -4.097900 0.000000 14.338623
v -4.097900 33.278351 -14.338623
v -4.097900 33.278351 14.338623
v 4.097900 33.278351 -14.338623
v 4.097900 33.278351 14.338623
v 4.097900 0.000000 -14.338623
v 4.097900 0.000000 14.338623
v -2.872559 33.278351 -14.338623
v 2.872803 33.278351 -14.338623
v 2.872803 33.278351 12.677002
v -2.872559 33.278351 12.677002
v -4.097900 23.267239 14.338623
v 4.097900 23.267239 14.338623
v -4.097900 28.529266 14.338623
v 4.097900 28.529266 14.338623
v 2.872803 0.000000 -14.338623
v -2.872559 0.000000 -14.338623
v 2.872803 0.000000 12.677002
v -2.872559 0.000000 12.677002
vt 0.177492 0.305994
vt 0.177492 0.305994
vt 0.177492 0.305994
vt 0.177492 0.305994
vt 0.177492 0.305994
vt 0.177492 0.305994
vt 0.177492 0.305994
vt 0.177492 0.305994
vt 0.177492 0.305994
vt 0.177492 0.305994
vt 0.177492 0.305994
vt 0.177492 0.305994
vt 0.177233 0.306120
vt 0.177233 0.306120
vt 0.177233 0.306120
vt 0.177492 0.305994
vt 0.177492 0.305994
vt 0.037598 0.374821
vt 0.037598 0.374821
vt 0.177492 0.305994
vt 0.177492 0.305994
vt 0.177233 0.306120
vt 0.177233 0.306120
vt 0.177233 0.306120
vt 0.039307 0.372169
vt 0.039307 0.372169
vt 0.039307 0.372169
vt 0.039307 0.372169
vt 0.177492 0.305994
vt 0.177492 0.305994
vt 0.177492 0.305994
vt 0.173950 0.473940
vt 0.173950 0.473940
vt 0.173950 0.473942
vt 0.173950 0.473942
vt 0.177492 0.305994
vt 0.037598 0.374821
vt 0.177233 0.306120
vt 0.037598 0.374821
vt 0.177233 0.306120
vt 0.037598 0.374821
vt 0.037598 0.374821
vt 0.177233 0.306120
vt 0.177233 0.306120
vt 0.177233 0.306120
vn -1.000000 0.000000 0.000000
vn -1.000000 0.000000 0.000000
vn -1.000000 0.000000 0.000000
vn -1.000000 0.000000 0.000000
vn 0.000000 1.000000 0.000000
vn 0.000000 1.000000 0.000000
vn 0.000000 1.000000 0.000000
vn 0.000000 1.000000 0.000000
vn 1.000000 0.000000 0.000000
vn 1.000000 0.000000 0.000000
vn 1.000000 0.000000 0.000000
vn 1.000000 0.000000 0.000000
vn 0.000000 -1.000000 0.000000
vn 0.000000 -1.000000 0.000000
vn 0.000000 -1.000000 0.000000
vn 0.000000 -1.000000 0.000000
vn 0.000000 0.000000 1.000000
vn 0.000000 0.000000 1.000000
vn 0.000000 0.000000 1.000000
vn 0.000000 0.000000 1.000000
vn 0.000000 0.000000 -1.000000
vn 0.000000 0.000000 -1.000000
vn 0.000000 0.000000 -1.000000
vn 0.000000 0.000000 -1.000000
vn 0.000000 1.000000 0.000000
vn 0.000000 1.000000 0.000000
vn 0.000000 1.000000 0.000000
vn 0.000000 1.000000 0.000000
vn 0.000000 1.000000 0.000000
vn 0.000000 1.000000 0.000000
vn 0.000000 1.000000 0.000000
vn 0.000000 1.000000 0.000000
vn 0.000000 1.000000 0.000000
vn 0.000000 1.000000 0.000000
vn 0.000000 1.000000 0.000000
vn 0.000000 1.000000 0.000000
vn 0.000000 0.000000 1.000000
vn 0.000000 0.000000 1.000000
vn 0.000000 0.000000 1.000000
vn 0.000000 0.000000 1.000000
vn 0.000000 0.000000 1.000000
vn 0.000000 0.000000 1.000000
vn 0.000000 0.000000 1.000000
vn 0.000000 0.000000 1.000000
vn -1.000000 0.000000 0.000000
vn -1.000000 0.000000 0.000000
vn -1.000000 0.000000 0.000000
vn -1.000000 0.000000 0.000000
vn -1.000000 0.000000 0.000000
vn -1.000000 0.000000 0.000000
vn 1.000000 0.000000 0.000000
vn 1.000000 0.000000 0.000000
vn 1.000000 0.000000 0.000000
vn 1.000000 0.000000 0.000000
vn 1.000000 0.000000 0.000000
vn 1.000000 0.000000 0.000000
vn 0.000000 -1.000000 0.000000
vn 0.000000 -1.000000 0.000000
vn 0.000000 -1.000000 0.000000
vn 0.000000 -1.000000 0.000000
vn 0.000000 -1.000000 0.000000
vn 0.000000 -1.000000 0.000000
vn 0.000000 -1.000000 0.000000
vn 0.000000 -1.000000 0.000000
vn 0.000000 -1.000000 0.000000
vn 0.000000 -1.000000 0.000000
vn 0.000000 -1.000000 0.000000
vn 0.000000 -1.000000 0.000000
vn 0.000000 0.000000 -1.000000
vn 0.000000 0.000000 -1.000000
vn 0.000000 0.000000 -1.000000
vn 0.000000 0.000000 -1.000000
vn 0.000000 0.000000 -1.000000
vn 0.000000 0.000000 -1.000000
vn 0.000000 0.000000 -1.000000
vn 0.000000 0.000000 -1.000000
s off
f 1/1/1 13/2/2 15/3/3 3/4/4
f 11/5/5 12/6/6 4/7/7 6/8/8
f 5/9/9 16/10/10 14/11/11 7/12/12
f 18/13/13 20/14/14 2/15/15 1/22/16
f 15/3/17 16/16/18 6/17/19 4/7/20
f 7/23/21 17/24/22 10/38/23 5/40/24
f 3/4/25 4/7/26 12/6/27 9/20/28
f 10/21/29 11/5/30 6/8/31 5/9/32
f 9/25/33 12/26/34 11/27/35 10/28/36
f 2/29/37 8/30/38 14/31/39 13/2/40
f 13/32/41 14/33/42 16/34/43 15/35/44
f 1/1/45 2/29/46 13/2/47
f 3/4/48 15/3/49 4/7/50
f 5/9/51 6/8/52 16/10/53
f 7/12/54 14/11/55 8/36/56
f 7/23/57 8/43/58 19/44/59 17/24/60
f 17/37/61 19/41/62 20/42/63 18/39/64
f 20/14/65 19/44/66 8/43/67 2/15/68
f 9/45/69 18/13/70 1/1/71 3/4/72
f 10/19/73 17/37/74 18/39/75 9/18/76
