# This file uses meters as units for non-parametric coordinates.

v 19.662842 1.738083 81.693848
v 23.749756 1.738083 81.693848
v 25.793213 5.277481 81.693848
v 23.749756 8.816879 81.693848
v 19.662842 8.816879 81.693848
v 17.619385 5.277481 81.693848
v 19.996033 2.315247 84.272217
v 23.416504 2.315247 84.272217
v 25.126709 5.277481 84.272217
v 23.416504 8.239716 84.272217
v 19.996033 8.239716 84.272217
v 18.285767 5.277481 84.272217
v 21.706299 5.277481 84.272217
v 8.881836 1.738083 81.693848
v 12.968750 1.738083 81.693848
v 15.012207 5.277481 81.693848
v 12.968750 8.816879 81.693848
v 8.881836 8.816879 81.693848
v 6.838379 5.277481 81.693848
v 9.215027 2.315247 84.272217
v 12.635498 2.315247 84.272217
v 14.345703 5.277481 84.272217
v 12.635498 8.239716 84.272217
v 9.215027 8.239716 84.272217
v 7.504761 5.277481 84.272217
v 10.925293 5.277481 84.272217
v -12.968750 1.738083 81.693848
v -8.881836 1.738083 81.693848
v -6.838379 5.277481 81.693848
v -8.881836 8.816879 81.693848
v -12.968750 8.816879 81.693848
v -15.012207 5.277481 81.693848
v -12.635498 2.315247 84.272217
v -9.215088 2.315247 84.272217
v -7.504883 5.277481 84.272217
v -9.215088 8.239716 84.272217
v -12.635498 8.239716 84.272217
v -14.345825 5.277481 84.272217
v -10.925293 5.277481 84.272217
v -23.749756 1.738083 81.693848
v -19.662842 1.738083 81.693848
v -17.619385 5.277481 81.693848
v -19.662842 8.816879 81.693848
v -23.749756 8.816879 81.693848
v -25.793213 5.277481 81.693848
v -23.416504 2.315247 84.272217
v -19.996094 2.315247 84.272217
v -18.285889 5.277481 84.272217
v -19.996094 8.239716 84.272217
v -23.416504 8.239716 84.272217
v -25.126831 5.277481 84.272217
v -21.706299 5.277481 84.272217
v -50.000000 0.000000 0.000000
v -50.000000 0.000000 81.693848
v -21.698608 107.345383 0.000000
v -21.698608 107.345383 43.397217
v 21.698608 107.345383 0.000000
v 21.698608 107.345383 43.397217
v 50.000000 0.000000 0.000000
v 50.000000 0.000000 81.693848
v -50.000000 11.079163 0.000000
v -50.000000 11.079163 81.693848
v 50.000000 11.079224 81.693848
v 50.000000 11.079224 0.000000
v 21.698608 38.512207 43.397217
v -21.698608 38.512161 43.397217
v -21.698608 38.512161 0.000000
v 21.698608 38.512207 0.000000
v 46.039795 0.000000 3.960205
v 46.039795 0.000000 77.733643
v -46.039795 0.000000 77.733643
v -46.039795 0.000000 3.960205
v 37.436829 3.828873 12.563232
v 37.436829 3.828873 69.130615
v -37.436890 3.828873 69.130615
v -37.436890 3.828873 12.563232
v -16.381958 107.345383 5.316650
v -16.381958 107.345383 38.080566
v 16.381897 107.345383 38.080566
v 16.381897 107.345383 5.316650
vt 0.113881 0.303394
vt 0.113881 0.303394
vt 0.113881 0.303394
vt 0.113881 0.303394
vt 0.113881 0.303394
vt 0.113881 0.303394
vt 0.113881 0.303394
vt 0.113881 0.303394
vt 0.113881 0.303394
vt 0.113881 0.303394
vt 0.113881 0.303394
vt 0.113881 0.303394
vt 0.113881 0.303394
vt 0.113881 0.303394
vt 0.113881 0.303394
vt 0.113881 0.303394
vt 0.113881 0.303394
vt 0.113881 0.303394
vt 0.113881 0.303394
vt 0.113881 0.303394
vt 0.113881 0.303394
vt 0.113881 0.303394
vt 0.113881 0.303394
vt 0.113881 0.303394
vt 0.113881 0.303394
vt 0.113881 0.303394
vt 0.113881 0.303394
vt 0.113881 0.303394
vt 0.113881 0.303394
vt 0.113881 0.303394
vt 0.113881 0.303394
vt 0.113881 0.303394
vt 0.113881 0.303394
vt 0.113881 0.303394
vt 0.113881 0.303394
vt 0.113881 0.303394
vt 0.113881 0.303394
vt 0.113881 0.303394
vt 0.113881 0.303394
vt 0.113881 0.303394
vt 0.113881 0.303394
vt 0.113881 0.303394
vt 0.113881 0.303394
vt 0.113881 0.303394
vt 0.113881 0.303394
vt 0.113881 0.303394
vt 0.113881 0.303394
vt 0.113881 0.303394
vt 0.113881 0.303394
vt 0.113881 0.303394
vt 0.113881 0.303394
vt 0.113881 0.303394
vt 0.113881 0.303394
vt 0.113881 0.303394
vt 0.113881 0.303394
vt 0.113881 0.303394
vt 0.113881 0.303394
vt 0.113881 0.303394
vt 0.113881 0.303394
vt 0.113881 0.303394
vt 0.113881 0.303394
vt 0.113881 0.303394
vt 0.113881 0.303394
vt 0.113881 0.303394
vt 0.113881 0.303394
vt 0.113881 0.303394
vt 0.113881 0.303394
vt 0.113881 0.303394
vt 0.113881 0.303394
vt 0.113881 0.303394
vt 0.113881 0.303394
vt 0.113881 0.303394
vt 0.113881 0.303394
vt 0.113881 0.303394
vt 0.113881 0.303394
vt 0.113881 0.303394
vt 0.113881 0.303394
vt 0.113881 0.303394
vt 0.113881 0.303394
vt 0.113881 0.303394
vt 0.113881 0.303394
vt 0.113881 0.303394
vt 0.113881 0.303394
vt 0.113881 0.303394
vt 0.113161 0.352389
vt 0.113161 0.352389
vt 0.113161 0.352389
vt 0.113161 0.352389
vt 0.113161 0.352389
vt 0.113161 0.352389
vt 0.113161 0.352389
vt 0.113161 0.352389
vt 0.113161 0.352389
vt 0.113161 0.352389
vt 0.113161 0.352389
vt 0.113161 0.352389
vt 0.113161 0.352389
vt 0.113161 0.352389
vt 0.113161 0.352389
vt 0.113161 0.352389
vt 0.113161 0.352389
vt 0.113161 0.352389
vt 0.113161 0.352389
vt 0.113161 0.352389
vt 0.113161 0.352389
vt 0.113161 0.352389
vt 0.113161 0.352389
vt 0.113161 0.352389
vt 0.113161 0.352389
vt 0.113161 0.352389
vt 0.113161 0.352389
vt 0.113161 0.352389
vt 0.113161 0.352389
vt 0.113161 0.352389
vt 0.113161 0.352389
vt 0.113161 0.352389
vt 0.113161 0.352389
vt 0.113161 0.352389
vt 0.112549 0.299805
vt 0.112549 0.299805
vt 0.112549 0.299805
vt 0.112549 0.299805
vt 0.113161 0.352389
vt 0.113161 0.352389
vt 0.113161 0.352389
vt 0.113161 0.352389
vt 0.101807 0.229858
vt 0.101807 0.229858
vt 0.101807 0.229858
vt 0.101807 0.229858
vn 0.000000 -0.975850 0.218442
vn 0.000000 -0.975850 0.218442
vn 0.000000 -0.975850 0.218442
vn 0.000000 -0.975850 0.218442
vn 0.845111 -0.487919 0.218455
vn 0.845111 -0.487918 0.218455
vn 0.845111 -0.487919 0.218455
vn 0.845111 -0.487919 0.218455
vn 0.845111 0.487919 0.218455
vn 0.845111 0.487919 0.218455
vn 0.845111 0.487919 0.218455
vn 0.845111 0.487919 0.218455
vn 0.000000 0.975850 0.218442
vn 0.000000 0.975850 0.218442
vn 0.000000 0.975850 0.218442
vn 0.000000 0.975850 0.218442
vn -0.845113 0.487927 0.218426
vn -0.845113 0.487927 0.218426
vn -0.845113 0.487928 0.218426
vn -0.845114 0.487927 0.218426
vn -0.845113 -0.487928 0.218426
vn -0.845113 -0.487928 0.218426
vn -0.845113 -0.487928 0.218426
vn -0.845113 -0.487928 0.218426
vn 0.000000 0.000000 1.000000
vn 0.000000 0.000000 1.000000
vn 0.000000 0.000000 1.000000
vn 0.000000 0.000000 1.000000
vn 0.000000 0.000000 1.000000
vn 0.000000 0.000000 1.000000
vn 0.000000 0.000000 1.000000
vn 0.000000 0.000000 1.000000
vn 0.000000 0.000000 1.000000
vn 0.000000 0.000000 1.000000
vn 0.000000 0.000000 1.000000
vn 0.000000 0.000000 1.000000
vn 0.000000 0.000000 1.000000
vn 0.000000 0.000000 1.000000
vn 0.000000 0.000000 1.000000
vn 0.000000 0.000000 1.000000
vn 0.000000 0.000000 1.000000
vn 0.000000 0.000000 1.000000
vn 0.000000 -0.975850 0.218442
vn 0.000000 -0.975850 0.218442
vn 0.000000 -0.975850 0.218442
vn 0.000000 -0.975850 0.218442
vn 0.845111 -0.487918 0.218455
vn 0.845111 -0.487918 0.218455
vn 0.845111 -0.487918 0.218455
vn 0.845111 -0.487918 0.218455
vn 0.845111 0.487918 0.218455
vn 0.845111 0.487918 0.218455
vn 0.845111 0.487918 0.218455
vn 0.845111 0.487918 0.218455
vn 0.000000 0.975850 0.218442
vn 0.000000 0.975850 0.218442
vn 0.000000 0.975850 0.218442
vn 0.000000 0.975850 0.218442
vn -0.845113 0.487928 0.218426
vn -0.845113 0.487928 0.218426
vn -0.845113 0.487928 0.218426
vn -0.845113 0.487928 0.218426
vn -0.845113 -0.487928 0.218426
vn -0.845113 -0.487928 0.218426
vn -0.845113 -0.487928 0.218426
vn -0.845113 -0.487928 0.218426
vn 0.000000 0.000000 1.000000
vn 0.000000 0.000000 1.000000
vn 0.000000 0.000000 1.000000
vn 0.000000 0.000000 1.000000
vn 0.000000 0.000000 1.000000
vn 0.000000 0.000000 1.000000
vn 0.000000 0.000000 1.000000
vn 0.000000 0.000000 1.000000
vn 0.000000 0.000000 1.000000
vn 0.000000 0.000000 1.000000
vn 0.000000 0.000000 1.000000
vn 0.000000 0.000000 1.000000
vn 0.000000 0.000000 1.000000
vn 0.000000 0.000000 1.000000
vn 0.000000 0.000000 1.000000
vn 0.000000 0.000000 1.000000
vn 0.000000 0.000000 1.000000
vn 0.000000 0.000000 1.000000
vn 0.000000 -0.975850 0.218442
vn 0.000000 -0.975850 0.218442
vn 0.000000 -0.975850 0.218442
vn 0.000000 -0.975850 0.218442
vn 0.845111 -0.487918 0.218455
vn 0.845111 -0.487918 0.218455
vn 0.845111 -0.487918 0.218455
vn 0.845111 -0.487918 0.218455
vn 0.845111 0.487919 0.218455
vn 0.845111 0.487919 0.218455
vn 0.845111 0.487919 0.218455
vn 0.845111 0.487919 0.218455
vn 0.000000 0.975850 0.218442
vn 0.000000 0.975850 0.218442
vn 0.000000 0.975850 0.218442
vn 0.000000 0.975850 0.218442
vn -0.845108 0.487933 0.218436
vn -0.845108 0.487932 0.218436
vn -0.845108 0.487932 0.218436
vn -0.845108 0.487932 0.218436
vn -0.845108 -0.487933 0.218436
vn -0.845108 -0.487933 0.218436
vn -0.845108 -0.487933 0.218436
vn -0.845108 -0.487933 0.218436
vn 0.000000 0.000000 1.000000
vn 0.000000 0.000000 1.000000
vn 0.000000 0.000000 1.000000
vn 0.000000 0.000000 1.000000
vn 0.000000 0.000000 1.000000
vn 0.000000 0.000000 1.000000
vn 0.000000 0.000000 1.000000
vn 0.000000 0.000000 1.000000
vn 0.000000 0.000000 1.000000
vn 0.000000 0.000000 1.000000
vn 0.000000 0.000000 1.000000
vn 0.000000 0.000000 1.000000
vn 0.000000 0.000000 1.000000
vn 0.000000 0.000000 1.000000
vn 0.000000 0.000000 1.000000
vn 0.000000 0.000000 1.000000
vn 0.000000 0.000000 1.000000
vn 0.000000 0.000000 1.000000
vn 0.000000 -0.975850 0.218442
vn 0.000000 -0.975850 0.218442
vn 0.000000 -0.975850 0.218442
vn 0.000000 -0.975850 0.218442
vn 0.845111 -0.487919 0.218455
vn 0.845111 -0.487918 0.218455
vn 0.845111 -0.487919 0.218455
vn 0.845111 -0.487919 0.218455
vn 0.845111 0.487919 0.218455
vn 0.845111 0.487919 0.218455
vn 0.845111 0.487919 0.218455
vn 0.845111 0.487919 0.218455
vn 0.000000 0.975850 0.218443
vn 0.000000 0.975850 0.218443
vn 0.000000 0.975850 0.218443
vn 0.000000 0.975850 0.218443
vn -0.845108 0.487932 0.218436
vn -0.845108 0.487932 0.218436
vn -0.845108 0.487932 0.218436
vn -0.845108 0.487932 0.218436
vn -0.845108 -0.487932 0.218436
vn -0.845108 -0.487932 0.218436
vn -0.845108 -0.487932 0.218436
vn -0.845108 -0.487932 0.218436
vn 0.000000 0.000000 1.000000
vn 0.000000 0.000000 1.000000
vn 0.000000 0.000000 1.000000
vn 0.000000 0.000000 1.000000
vn 0.000000 0.000000 1.000000
vn 0.000000 0.000000 1.000000
vn 0.000000 0.000000 1.000000
vn 0.000000 0.000000 1.000000
vn 0.000000 0.000000 1.000000
vn 0.000000 0.000000 1.000000
vn 0.000000 0.000000 1.000000
vn 0.000000 0.000000 1.000000
vn 0.000000 0.000000 1.000000
vn 0.000000 0.000000 1.000000
vn 0.000000 0.000000 1.000000
vn 0.000000 0.000000 1.000000
vn 0.000000 0.000000 1.000000
vn 0.000000 0.000000 1.000000
vn -0.696005 0.718037 0.000000
vn -0.696005 0.718037 0.000000
vn -0.696005 0.718037 0.000000
vn -0.696005 0.718037 0.000000
vn 0.000000 1.000000 0.000000
vn 0.000000 1.000000 0.000000
vn 0.000000 1.000000 0.000000
vn 0.000000 1.000000 0.000000
vn 0.696005 0.718037 0.000000
vn 0.696005 0.718037 0.000000
vn 0.696005 0.718037 0.000000
vn 0.696005 0.718037 0.000000
vn 0.000000 -1.000000 0.000000
vn 0.000000 -1.000000 0.000000
vn 0.000000 -1.000000 0.000000
vn 0.000000 -1.000000 0.000000
vn -0.000001 0.812947 0.582338
vn -0.000001 0.812947 0.582338
vn -0.000001 0.812947 0.582338
vn -0.000001 0.812947 0.582338
vn 0.000000 0.000000 -1.000000
vn 0.000000 0.000000 -1.000000
vn 0.000000 0.000000 -1.000000
vn 0.000000 0.000000 -1.000000
vn -1.000000 0.000000 0.000000
vn -1.000000 0.000000 0.000000
vn -1.000000 0.000000 0.000000
vn -1.000000 0.000000 0.000000
vn 0.000000 0.000000 1.000000
vn 0.000000 0.000000 1.000000
vn 0.000000 0.000000 1.000000
vn 0.000000 0.000000 1.000000
vn 1.000000 0.000000 0.000000
vn 1.000000 0.000000 0.000000
vn 1.000000 0.000000 0.000000
vn 1.000000 0.000000 0.000000
vn 0.000000 0.000000 -1.000000
vn 0.000000 0.000000 -1.000000
vn 0.000000 0.000000 -1.000000
vn 0.000000 0.000000 -1.000000
vn 0.000000 0.000000 1.000000
vn 0.000000 0.000000 1.000000
vn 0.000000 0.000000 1.000000
vn 0.000000 0.000000 1.000000
vn -1.000000 0.000000 0.000000
vn -1.000000 0.000000 0.000000
vn -1.000000 0.000000 0.000000
vn -1.000000 0.000000 0.000000
vn 0.000000 0.000000 -1.000000
vn 0.000000 0.000000 -1.000000
vn 0.000000 0.000000 -1.000000
vn 0.000000 0.000000 -1.000000
vn 1.000000 0.000000 0.000000
vn 1.000000 0.000000 0.000000
vn 1.000000 0.000000 0.000000
vn 1.000000 0.000000 0.000000
vn 0.000000 -1.000000 0.000000
vn 0.000000 -1.000000 0.000000
vn 0.000000 -1.000000 0.000000
vn 0.000000 -1.000000 0.000000
vn 0.000000 -1.000000 0.000000
vn 0.000000 -1.000000 0.000000
vn 0.000000 -1.000000 0.000000
vn 0.000000 -1.000000 0.000000
vn 0.000000 -1.000000 0.000000
vn 0.000000 -1.000000 0.000000
vn 0.000000 -1.000000 0.000000
vn 0.000000 -1.000000 0.000000
vn 0.000000 -1.000000 0.000000
vn 0.000000 -1.000000 0.000000
vn 0.000000 -1.000000 0.000000
vn 0.000000 -1.000000 0.000000
vn -0.406611 -0.913601 0.000000
vn -0.406611 -0.913601 0.000000
vn -0.406611 -0.913601 0.000000
vn -0.406611 -0.913601 0.000000
vn 0.000000 -0.913602 -0.406609
vn 0.000000 -0.913602 -0.406609
vn 0.000000 -0.913602 -0.406609
vn 0.000000 -0.913602 -0.406609
vn 0.406614 -0.913600 0.000000
vn 0.406614 -0.913600 0.000000
vn 0.406614 -0.913600 0.000000
vn 0.406614 -0.913600 0.000000
vn 0.000000 -0.913602 0.406609
vn 0.000000 -0.913602 0.406609
vn 0.000000 -0.913602 0.406609
vn 0.000000 -0.913602 0.406609
vn 0.000000 1.000000 0.000000
vn 0.000000 1.000000 0.000000
vn 0.000000 1.000000 0.000000
vn 0.000000 1.000000 0.000000
vn 0.000000 1.000000 0.000001
vn 0.000000 1.000000 0.000001
vn 0.000000 1.000000 0.000001
vn 0.000000 1.000000 0.000001
vn 0.000000 1.000000 0.000000
vn 0.000000 1.000000 0.000000
vn 0.000000 1.000000 0.000000
vn 0.000000 1.000000 0.000000
vn 0.000000 1.000000 -0.000000
vn 0.000000 1.000000 -0.000000
vn 0.000000 1.000000 -0.000000
vn 0.000000 1.000000 -0.000000
s off
f 1/1/1 2/2/2 8/9/3 7/8/4
f 2/2/5 3/3/6 9/10/7 8/9/8
f 3/3/9 4/4/10 10/11/11 9/10/12
f 4/4/13 5/5/14 11/12/15 10/11/16
f 5/5/17 6/6/18 12/13/19 11/12/20
f 6/6/21 1/7/22 7/14/23 12/13/24
f 7/19/25 8/18/26 13/21/27
f 8/18/28 9/17/29 13/21/30
f 9/17/31 10/16/32 13/21/33
f 10/16/34 11/15/35 13/21/36
f 11/15/37 12/20/38 13/21/39
f 12/20/40 7/19/41 13/21/42
f 14/22/43 15/23/44 21/24/45 20/25/46
f 15/23/47 16/26/48 22/27/49 21/24/50
f 16/26/51 17/28/52 23/29/53 22/27/54
f 17/28/55 18/30/56 24/31/57 23/29/58
f 18/30/59 19/32/60 25/33/61 24/31/62
f 19/32/63 14/34/64 20/35/65 25/33/66
f 20/36/67 21/37/68 26/38/69
f 21/37/70 22/39/71 26/38/72
f 22/39/73 23/40/74 26/38/75
f 23/40/76 24/41/77 26/38/78
f 24/41/79 25/42/80 26/38/81
f 25/42/82 20/36/83 26/38/84
f 27/43/85 28/44/86 34/45/87 33/46/88
f 28/44/89 29/47/90 35/48/91 34/45/92
f 29/47/93 30/49/94 36/50/95 35/48/96
f 30/49/97 31/51/98 37/52/99 36/50/100
f 31/51/101 32/53/102 38/54/103 37/52/104
f 32/53/105 27/55/106 33/56/107 38/54/108
f 33/57/109 34/58/110 39/59/111
f 34/58/112 35/60/113 39/59/114
f 35/60/115 36/61/116 39/59/117
f 36/61/118 37/62/119 39/59/120
f 37/62/121 38/63/122 39/59/123
f 38/63/124 33/57/125 39/59/126
f 40/64/127 41/65/128 47/66/129 46/67/130
f 41/65/131 42/68/132 48/69/133 47/66/134
f 42/68/135 43/70/136 49/71/137 48/69/138
f 43/70/139 44/72/140 50/73/141 49/71/142
f 44/72/143 45/74/144 51/75/145 50/73/146
f 45/74/147 40/76/148 46/77/149 51/75/150
f 46/78/151 47/79/152 52/80/153
f 47/79/154 48/81/155 52/80/156
f 48/81/157 49/82/158 52/80/159
f 49/82/160 50/83/161 52/80/162
f 50/83/163 51/84/164 52/80/165
f 51/84/166 46/78/167 52/80/168
f 61/85/169 62/86/170 66/87/171 67/88/172
f 77/127/173 78/128/174 79/129/175 80/130/176
f 68/93/177 65/94/178 63/95/179 64/96/180
f 73/119/181 74/120/182 75/121/183 76/122/184
f 62/86/185 63/101/186 65/102/187 66/87/188
f 64/103/189 61/85/190 67/88/191 68/104/192
f 53/105/193 54/106/194 62/86/195 61/85/196
f 54/106/197 60/107/198 63/101/199 62/86/200
f 64/96/201 63/95/202 60/98/203 59/97/204
f 59/108/205 53/105/206 61/85/207 64/103/208
f 66/87/209 65/102/210 58/109/211 56/90/212
f 67/88/213 66/87/214 56/90/215 55/89/216
f 68/104/217 67/88/218 55/89/219 57/110/220
f 57/92/221 58/91/222 65/94/223 68/93/224
f 59/97/225 60/98/226 70/112/227 69/111/228
f 60/98/229 54/99/230 71/113/231 70/112/232
f 54/99/233 53/100/234 72/114/235 71/113/236
f 53/100/237 59/97/238 69/111/239 72/114/240
f 69/111/241 70/112/242 74/116/243 73/115/244
f 70/112/245 71/113/246 75/117/247 74/116/248
f 71/113/249 72/114/250 76/118/251 75/117/252
f 72/114/253 69/111/254 73/115/255 76/118/256
f 55/89/257 56/90/258 78/124/259 77/123/260
f 56/90/261 58/91/262 79/125/263 78/124/264
f 58/91/265 57/92/266 80/126/267 79/125/268
f 57/92/269 55/89/270 77/123/271 80/126/272
