# This file uses meters as units for non-parametric coordinates.

v -0.000061 0.000000 0.000000
v -100.000061 0.000000 0.000000
v -0.000061 90.000000 0.000000
v -100.000061 90.000000 0.000000
v -0.000061 90.000000 100.000000
v -100.000061 90.000000 100.000000
v -0.000061 0.000000 100.000000
v -89.492126 0.000000 89.492432
v -0.000061 94.957298 0.000000
v -100.000061 94.957298 0.000000
v -100.000061 94.957298 100.000000
v -0.000061 94.957298 100.000000
v -0.000061 90.000000 100.000000
v -100.000061 9.626833 100.000000
v -100.000061 90.000000 0.000000
v -0.000061 90.000000 0.000000
v -89.492126 9.626835 89.492432
v -100.000061 9.626835 89.492432
v -100.000000 0.000000 89.492432
v -89.492126 9.626835 100.000000
v -89.492126 0.000000 100.000000
vt 0.069775 0.378683
vt 0.069775 0.378683
vt 0.069775 0.378683
vt 0.069775 0.378683
vt 0.069775 0.378683
vt 0.069775 0.378683
vt 0.069775 0.378683
vt 0.069775 0.378683
vt 0.069775 0.378683
vt 0.069775 0.378683
vt 0.069775 0.378683
vt 0.069775 0.378683
vt 0.069775 0.378683
vt 0.069775 0.378683
vt 0.101074 0.227112
vt 0.101074 0.227112
vt 0.101074 0.227112
vt 0.101074 0.227112
vt 0.101074 0.227112
vt 0.101074 0.227112
vt 0.101074 0.227112
vt 0.101074 0.227112
vt 0.069775 0.378683
vt 0.069775 0.378683
vt 0.069775 0.378683
vt 0.069775 0.378683
vt 0.069775 0.378683
vt 0.069775 0.378683
vt 0.069775 0.378683
vt 0.069775 0.378683
vt 0.069775 0.378683
vt 0.069775 0.378683
vt 0.069775 0.378683
vt 0.069775 0.378683
vt 0.069775 0.378683
vn 0.000000 1.000000 0.000000
vn 0.000000 1.000000 0.000000
vn 0.000000 1.000000 0.000000
vn 0.000000 1.000000 0.000000
vn 0.000000 0.000000 1.000000
vn 0.000000 0.000000 1.000000
vn 0.000000 0.000000 0.000000
vn 0.000000 0.000000 0.000000
vn 0.000000 0.000000 1.000000
vn -0.000000 0.000000 0.000000
vn -1.000000 0.000000 0.000000
vn -1.000000 0.000000 0.000000
vn -1.000000 0.000000 0.000000
vn -0.000000 0.000000 0.000000
vn -0.000000 -1.000000 0.000000
vn -0.000000 -1.000000 0.000000
vn -0.000000 -1.000000 0.000000
vn -0.000000 -1.000000 0.000000
vn -0.000000 -1.000000 0.000000
vn -0.000000 -1.000000 0.000000
vn 0.000000 0.000000 -1.000000
vn 0.000000 0.000000 -1.000000
vn 0.000000 0.000000 -1.000000
vn 0.000000 0.000000 -1.000000
vn 0.000000 0.000000 1.000000
vn 0.000000 0.000000 1.000000
vn 0.000000 0.000000 1.000000
vn 0.000000 0.000000 1.000000
vn 1.000000 0.000000 0.000000
vn 1.000000 0.000000 0.000000
vn 1.000000 0.000000 0.000000
vn 1.000000 0.000000 0.000000
vn -1.000000 0.000000 0.000000
vn -1.000000 0.000000 0.000000
vn -1.000000 0.000000 0.000000
vn -1.000000 0.000000 0.000000
vn 0.000000 0.000000 0.000000
vn 0.000000 0.000000 0.000000
vn 0.000000 0.000000 0.000000
vn 0.000000 0.000000 0.000000
vn 0.000000 0.000000 0.000000
vn 0.000000 0.000000 0.000000
vn 0.000000 0.000000 0.000000
vn 0.000000 0.000000 0.000000
vn 0.000000 0.000000 1.000000
vn 0.000000 0.000000 1.000000
vn 0.000000 0.000000 1.000000
vn 0.000000 0.000000 1.000000
vn 0.000000 0.000000 1.000000
vn 0.000000 0.000000 1.000000
vn 0.000000 0.000000 1.000000
vn 0.000000 0.000000 1.000000
vn 1.000000 0.000000 0.000000
vn 1.000000 0.000000 0.000000
vn 1.000000 0.000000 0.000000
vn 1.000000 0.000000 0.000000
vn 0.000000 0.000000 -1.000000
vn 0.000000 0.000000 -1.000000
vn 0.000000 0.000000 -1.000000
vn 0.000000 0.000000 -1.000000
vn -1.000000 -0.000001 0.000000
vn -1.000000 -0.000001 0.000000
vn -1.000000 -0.000001 0.000000
vn -1.000000 -0.000001 0.000000
vn -1.000000 0.000000 0.000000
vn -1.000000 0.000000 0.000000
vn -1.000000 0.000000 0.000000
vn -1.000000 0.000000 0.000000
vn 0.000000 -1.000000 -0.000000
vn 0.000000 -1.000000 -0.000000
vn 0.000000 -1.000000 -0.000000
vn 0.000000 -1.000000 0.000000
vn 0.000000 -1.000000 0.000000
vn 0.000000 -1.000000 0.000000
s off
f 12/18/1 9/15/2 10/16/3 11/17/4
f 14/25/5 20/34/6 13/24/7 5/5/8 6/6/9
f 15/27/10 18/31/11 14/26/12 6/12/13 4/4/14
f 2/10/15 1/9/16 7/7/17 21/35/18 8/8/19 19/32/20
f 3/19/21 4/20/22 10/16/23 9/15/24
f 6/21/25 5/22/26 12/18/27 11/17/28
f 5/22/29 3/19/30 9/15/31 12/18/32
f 6/21/33 11/17/34 10/16/35 4/20/36
f 16/28/37 15/27/38 4/4/39 3/3/40
f 13/23/41 16/28/42 3/3/43 5/14/44
f 17/30/45 18/31/46 19/33/47 8/11/48
f 13/24/49 20/34/50 21/35/51 7/7/52
f 1/1/53 16/28/54 13/23/55 7/13/56
f 2/2/57 15/27/58 16/28/59 1/1/60
f 19/33/61 18/31/62 15/27/63 2/2/64
f 21/35/65 20/34/66 17/29/67 8/8/68
f 14/26/69 18/31/70 17/30/71
f 20/34/72 14/25/73 17/29/74
