# This file uses meters as units for non-parametric coordinates.

v 1.790009 0.000000 -3.100410
v -1.790039 0.000000 -3.100410
v -3.580063 0.000000 0.000000
v -1.790039 0.000000 3.100410
v 1.790009 0.000000 3.100410
v 3.580032 0.000000 0.000000
v 1.589645 256.350739 -2.753365
v -1.589676 256.350739 -2.753365
v -3.179321 256.350739 0.000000
v -1.589676 256.350739 2.753349
v 1.589645 256.350739 2.753349
v 3.179306 256.350739 0.000000
v -0.000015 0.000000 0.000000
v -0.000015 256.350739 0.000000
v -3.580063 183.374222 0.000000
v -1.790039 183.374222 3.100410
v 1.790009 183.374222 3.100410
v 3.580032 183.374222 0.000000
v 1.790009 183.374222 -3.100410
v -1.790039 183.374222 -3.100410
v -3.010422 159.435516 -0.755371
v -1.332916 159.435516 2.150124
v 2.022049 159.435516 2.150124
v 3.699554 159.435516 -0.755371
v 2.022049 159.435516 -3.660866
v -1.332916 159.435516 -3.660866
v 3.580032 36.762657 0.000000
v 1.790009 36.762657 -3.100410
v -1.790039 36.762657 -3.100410
v -3.580063 36.762657 0.000000
v -1.790039 36.762657 3.100410
v 1.790009 36.762657 3.100410
v -2.754211 54.271267 2.759399
v -4.294083 54.271267 0.092239
v -2.754211 54.271267 -2.574913
v 0.325562 54.271267 -2.574913
v 1.865448 54.271267 0.092239
v 0.325562 54.271267 2.759399
v -1.656219 242.854416 -2.868622
v 1.656174 242.854416 -2.868622
v 3.312378 242.854416 0.000000
v 1.656174 242.854416 2.868599
v -1.656219 242.854416 2.868599
v -3.312408 242.854416 0.000000
v -1.676849 238.670319 2.904350
v 1.676834 238.670319 2.904350
v 3.353638 238.670319 0.000000
v 1.676834 238.670319 -2.904350
v -1.676849 238.670319 -2.904350
v -3.353653 238.670319 0.000000
v 2.745575 238.807983 -4.755470
v -2.745590 238.807983 -4.755470
v -2.711807 242.716766 -4.696960
v 2.711761 242.716766 -4.696960
v -5.491135 238.807983 0.000000
v -5.423599 242.716766 0.000000
v -2.745590 238.807983 4.755463
v -2.711807 242.716766 4.696938
v 2.745575 238.807983 4.755463
v 2.711761 242.716766 4.696938
v 5.491119 238.807983 0.000000
v 5.423569 242.716766 0.000000
vt 0.112099 0.381218
vt 0.112099 0.381218
vt 0.112099 0.381218
vt 0.112099 0.381218
vt 0.112099 0.381218
vt 0.112099 0.381218
vt 0.112099 0.381218
vt 0.112099 0.381218
vt 0.112099 0.381218
vt 0.112099 0.381218
vt 0.112099 0.381218
vt 0.112099 0.381218
vt 0.112099 0.381218
vt 0.112099 0.381218
vt 0.112099 0.381218
vt 0.112099 0.381218
vt 0.112099 0.381218
vt 0.112099 0.381218
vt 0.112099 0.381218
vt 0.112099 0.381218
vt 0.112099 0.381218
vt 0.112099 0.381218
vt 0.112099 0.381218
vt 0.112099 0.381218
vt 0.112099 0.381218
vt 0.112099 0.381218
vt 0.112099 0.381218
vt 0.112099 0.381218
vt 0.112099 0.381218
vt 0.112099 0.381218
vt 0.112099 0.381218
vt 0.112099 0.381218
vt 0.112099 0.381218
vt 0.112099 0.381218
vt 0.112099 0.381218
vt 0.112099 0.381218
vt 0.112099 0.381218
vt 0.112099 0.381218
vt 0.112099 0.381218
vt 0.112099 0.381218
vt 0.112099 0.381218
vt 0.112099 0.381218
vt 0.112099 0.381218
vt 0.112099 0.381218
vt 0.112099 0.381218
vt 0.112099 0.381218
vt 0.112099 0.381218
vt 0.112099 0.381218
vt 0.112099 0.381218
vt 0.112099 0.381218
vt 0.112099 0.381218
vt 0.112099 0.381218
vt 0.112099 0.381218
vt 0.112099 0.381218
vt 0.112099 0.381218
vt 0.112099 0.381218
vt 0.112099 0.381218
vt 0.112099 0.381218
vt 0.112099 0.381218
vt 0.112099 0.381218
vt 0.112099 0.381218
vt 0.112099 0.381218
vt 0.112099 0.381218
vt 0.112099 0.381218
vt 0.112099 0.381218
vt 0.112099 0.381218
vt 0.112099 0.381218
vt 0.112099 0.381218
vt 0.112099 0.381218
vt 0.112099 0.381218
vt 0.112759 0.327175
vt 0.112759 0.327175
vt 0.112759 0.327175
vt 0.112759 0.327175
vt 0.112759 0.327175
vt 0.112759 0.327175
vt 0.112759 0.327175
vt 0.112759 0.327175
vt 0.112759 0.327175
vt 0.112759 0.327175
vt 0.112759 0.327175
vt 0.112759 0.327175
vt 0.112759 0.327175
vt 0.112758 0.327175
vt 0.112758 0.327175
vt 0.112759 0.327175
vt 0.112759 0.327175
vt 0.112759 0.327175
vt 0.112758 0.327175
vt 0.112758 0.327175
vt 0.112759 0.327175
vt 0.112759 0.327175
vt 0.112759 0.327175
vt 0.112759 0.327175
vt 0.112759 0.327175
vt 0.112759 0.327175
vt 0.112759 0.327175
vt 0.112759 0.327175
vt 0.112759 0.327175
vt 0.112759 0.327175
vt 0.112759 0.327175
vt 0.112759 0.327175
vt 0.112759 0.327175
vt 0.112759 0.327175
vt 0.112759 0.327175
vt 0.112759 0.327175
vt 0.112759 0.327175
vt 0.112759 0.327175
vt 0.112759 0.327175
vt 0.112759 0.327175
vt 0.112759 0.327175
vt 0.112759 0.327175
vt 0.112759 0.327175
vt 0.112759 0.327175
vt 0.112759 0.327175
vt 0.112759 0.327175
vt 0.112759 0.327175
vt 0.112759 0.327175
vt 0.112759 0.327175
vt 0.112759 0.327175
vt 0.112759 0.327175
vt 0.112759 0.327175
vt 0.112759 0.327175
vt 0.112759 0.327175
vt 0.112759 0.327175
vt 0.112758 0.327175
vt 0.112759 0.327175
vt 0.112759 0.327175
vt 0.112759 0.327175
vt 0.112758 0.327175
vt 0.112759 0.327175
vt 0.112759 0.327175
vt 0.112759 0.327175
vt 0.112759 0.327175
vt 0.112759 0.327175
vt 0.112759 0.327175
vt 0.112759 0.327175
vt 0.112759 0.327175
vt 0.112759 0.327175
vt 0.112758 0.327175
vt 0.112758 0.327175
vt 0.112759 0.327175
vn 0.000000 0.014967 -0.999888
vn 0.000000 0.014967 -0.999888
vn 0.000000 0.014967 -0.999888
vn 0.000000 0.014967 -0.999888
vn -0.865929 0.014965 -0.499942
vn -0.865929 0.014965 -0.499942
vn -0.865929 0.014965 -0.499942
vn -0.865929 0.014965 -0.499942
vn -0.865929 0.014966 0.499942
vn -0.865929 0.014966 0.499942
vn -0.865929 0.014966 0.499942
vn -0.865929 0.014966 0.499942
vn 0.000000 0.014971 0.999888
vn 0.000000 0.014971 0.999888
vn 0.000000 0.014971 0.999888
vn 0.000000 0.014971 0.999888
vn 0.865928 0.014971 0.499945
vn 0.865928 0.014971 0.499945
vn 0.865928 0.014971 0.499945
vn 0.865928 0.014971 0.499945
vn 0.865929 0.014970 -0.499944
vn 0.865928 0.014970 -0.499944
vn 0.865928 0.014970 -0.499944
vn 0.865928 0.014970 -0.499944
vn 0.000000 -1.000000 0.000000
vn 0.000000 -1.000000 0.000000
vn 0.000000 -1.000000 0.000000
vn 0.000000 -1.000000 0.000000
vn 0.000000 -1.000000 0.000000
vn 0.000000 -1.000000 0.000000
vn 0.000000 -1.000000 0.000000
vn 0.000000 -1.000000 0.000000
vn 0.000000 -1.000000 0.000000
vn 0.000000 -1.000000 0.000000
vn 0.000000 -1.000000 0.000000
vn 0.000000 -1.000000 0.000000
vn 0.000000 -1.000000 0.000000
vn 0.000000 -1.000000 0.000000
vn 0.000000 -1.000000 0.000000
vn 0.000000 -1.000000 0.000000
vn 0.000000 -1.000000 0.000000
vn 0.000000 -1.000000 0.000000
vn 0.000000 1.000000 0.000000
vn 0.000000 1.000000 0.000000
vn 0.000000 1.000000 0.000000
vn 0.000000 1.000000 0.000000
vn 0.000000 1.000000 0.000000
vn 0.000000 1.000000 0.000000
vn 0.000000 1.000000 0.000000
vn 0.000000 1.000000 0.000000
vn 0.000000 1.000000 0.000000
vn 0.000000 1.000000 0.000000
vn 0.000000 1.000000 0.000000
vn 0.000000 1.000000 0.000000
vn 0.000000 1.000000 0.000000
vn 0.000000 1.000000 0.000000
vn 0.000000 1.000000 0.000000
vn 0.000000 1.000000 0.000000
vn 0.000000 1.000000 0.000000
vn 0.000000 1.000000 0.000000
vn -0.866016 0.004631 0.499995
vn -0.866017 0.004421 0.499996
vn -0.865995 -0.008397 0.499981
vn -0.865994 -0.008613 0.499980
vn 0.000000 -0.003193 0.999995
vn 0.000000 -0.003198 0.999995
vn 0.000000 -0.009588 0.999954
vn 0.000000 -0.009421 0.999956
vn 0.865970 -0.011149 0.499971
vn 0.865970 -0.011147 0.499971
vn 0.866026 -0.001051 0.499999
vn 0.866026 -0.000911 0.499999
vn 0.865969 -0.011299 -0.499971
vn 0.865967 -0.011461 -0.499970
vn 0.865994 0.008586 -0.499981
vn 0.865995 0.008497 -0.499981
vn 0.000000 -0.003658 -0.999993
vn 0.000000 -0.003661 -0.999993
vn 0.000000 0.009502 -0.999955
vn 0.000000 0.009579 -0.999954
vn -0.866017 0.004317 -0.499996
vn -0.866017 0.004271 -0.499997
vn -0.866026 0.001057 -0.499999
vn -0.866026 0.000979 -0.499999
vn -0.865966 -0.011731 0.499965
vn -0.865969 -0.011420 0.499967
vn -0.866006 0.006699 0.499989
vn -0.866004 0.006946 0.499988
vn 0.000000 0.006123 0.999981
vn 0.000000 0.005755 0.999983
vn 0.000000 0.007877 0.999969
vn 0.000000 0.007759 0.999970
vn 0.865744 0.025494 0.499838
vn 0.865763 0.024620 0.499849
vn 0.866021 0.002908 0.500000
vn 0.866022 0.002544 0.500000
vn 0.865725 0.026307 -0.499827
vn 0.865709 0.027020 -0.499818
vn 0.866018 -0.003610 -0.499999
vn 0.866020 -0.003109 -0.500000
vn 0.000000 0.008869 -0.999961
vn 0.000000 0.009435 -0.999956
vn 0.000000 -0.004532 -0.999990
vn 0.000000 -0.004184 -0.999991
vn -0.865984 -0.009794 -0.499976
vn -0.865981 -0.010143 -0.499974
vn -0.866025 0.000813 -0.500000
vn -0.866025 0.000659 -0.500000
vn 0.866025 0.000000 -0.500000
vn 0.866025 0.000000 -0.500000
vn 0.865709 0.027020 -0.499818
vn 0.865725 0.026307 -0.499827
vn 0.000000 0.000000 -1.000000
vn 0.000000 0.000000 -1.000000
vn 0.000000 0.009435 -0.999956
vn 0.000000 0.008869 -0.999961
vn -0.866025 0.000000 -0.500000
vn -0.866025 0.000000 -0.500000
vn -0.865981 -0.010143 -0.499974
vn -0.865984 -0.009794 -0.499976
vn -0.866025 0.000000 0.500000
vn -0.866025 0.000000 0.500000
vn -0.865969 -0.011420 0.499967
vn -0.865966 -0.011731 0.499965
vn 0.000000 0.000000 1.000000
vn 0.000000 0.000000 1.000000
vn 0.000000 0.005755 0.999983
vn 0.000000 0.006123 0.999981
vn 0.866025 0.000000 0.500000
vn 0.866025 0.000000 0.500000
vn 0.865763 0.024620 0.499849
vn 0.865744 0.025494 0.499838
vn -0.866004 0.006946 0.499988
vn -0.866006 0.006699 0.499989
vn -0.866017 0.004421 0.499996
vn -0.866016 0.004631 0.499995
vn -0.866025 0.000659 -0.500000
vn -0.866025 0.000813 -0.500000
vn -0.866017 0.004271 -0.499997
vn -0.866017 0.004317 -0.499996
vn 0.000000 -0.004184 -0.999991
vn 0.000000 -0.004532 -0.999990
vn 0.000000 -0.003661 -0.999993
vn 0.000000 -0.003658 -0.999993
vn 0.866020 -0.003109 -0.500000
vn 0.866018 -0.003610 -0.499999
vn 0.865967 -0.011461 -0.499970
vn 0.865969 -0.011299 -0.499971
vn 0.866022 0.002544 0.500000
vn 0.866021 0.002908 0.500000
vn 0.865970 -0.011147 0.499971
vn 0.865970 -0.011149 0.499971
vn 0.000000 0.007759 0.999970
vn 0.000000 0.007877 0.999969
vn 0.000000 -0.003198 0.999995
vn 0.000000 -0.003193 0.999995
vn 0.000000 0.008540 -0.999964
vn 0.000000 0.008540 -0.999964
vn 0.000000 0.008540 -0.999964
vn 0.000000 0.008540 -0.999964
vn 0.865993 0.008539 -0.499982
vn 0.865993 0.008539 -0.499982
vn 0.865993 0.008539 -0.499982
vn 0.865993 0.008539 -0.499982
vn 0.865992 0.008538 0.499985
vn 0.865992 0.008538 0.499985
vn 0.865992 0.008538 0.499985
vn 0.865992 0.008538 0.499985
vn 0.000000 0.008539 0.999964
vn 0.000000 0.008539 0.999964
vn 0.000000 0.008539 0.999964
vn 0.000000 0.008539 0.999964
vn -0.865994 0.008539 0.499982
vn -0.865994 0.008539 0.499982
vn -0.865994 0.008539 0.499982
vn -0.865994 0.008539 0.499982
vn -0.865995 0.008540 -0.499980
vn -0.865995 0.008540 -0.499980
vn -0.865995 0.008540 -0.499980
vn -0.865995 0.008540 -0.499980
vn 0.000000 -0.009421 0.999956
vn 0.000000 -0.009588 0.999954
vn 0.000000 0.003546 0.999994
vn 0.000000 0.003546 0.999994
vn 0.866026 -0.000911 0.499999
vn 0.866026 -0.001051 0.499999
vn 0.866021 0.003545 0.499994
vn 0.866021 0.003545 0.499994
vn 0.865995 0.008497 -0.499981
vn 0.865994 0.008586 -0.499981
vn 0.866021 0.003545 -0.499994
vn 0.866021 0.003545 -0.499994
vn 0.000000 0.009579 -0.999954
vn 0.000000 0.009502 -0.999955
vn 0.000000 0.003546 -0.999994
vn 0.000000 0.003546 -0.999994
vn -0.866026 0.000979 -0.499999
vn -0.866026 0.001057 -0.499999
vn -0.866021 0.003546 -0.499994
vn -0.866021 0.003546 -0.499994
vn -0.865994 -0.008613 0.499980
vn -0.865995 -0.008397 0.499981
vn -0.866021 0.003546 0.499994
vn -0.866021 0.003546 0.499994
vn 0.000000 -0.997246 -0.074171
vn 0.000000 -0.997246 -0.074171
vn 0.000000 -0.997246 -0.074171
vn 0.000000 -0.997246 -0.074171
vn 0.000000 0.997178 -0.075067
vn 0.000000 0.997178 -0.075067
vn 0.000000 0.997178 -0.075067
vn 0.000000 0.997178 -0.075067
vn -0.064228 -0.997246 -0.037089
vn -0.064228 -0.997246 -0.037089
vn -0.064228 -0.997246 -0.037089
vn -0.064228 -0.997246 -0.037089
vn -0.065016 0.997178 -0.037534
vn -0.065016 0.997178 -0.037534
vn -0.065016 0.997178 -0.037534
vn -0.065016 0.997178 -0.037534
vn -0.064228 -0.997246 0.037083
vn -0.064228 -0.997246 0.037083
vn -0.064228 -0.997246 0.037083
vn -0.064228 -0.997246 0.037083
vn -0.065016 0.997178 0.037541
vn -0.065016 0.997178 0.037541
vn -0.065016 0.997178 0.037541
vn -0.065016 0.997178 0.037541
vn 0.000000 -0.997246 0.074171
vn 0.000000 -0.997246 0.074171
vn 0.000000 -0.997246 0.074171
vn 0.000000 -0.997246 0.074171
vn 0.000000 0.997178 0.075067
vn 0.000000 0.997178 0.075067
vn 0.000000 0.997178 0.075067
vn 0.000000 0.997178 0.075067
vn 0.064228 -0.997246 0.037089
vn 0.064228 -0.997246 0.037089
vn 0.064228 -0.997246 0.037089
vn 0.064228 -0.997246 0.037089
vn 0.065016 0.997178 0.037534
vn 0.065016 0.997178 0.037534
vn 0.065016 0.997178 0.037534
vn 0.065016 0.997178 0.037534
vn 0.064228 -0.997246 -0.037083
vn 0.064228 -0.997246 -0.037083
vn 0.064228 -0.997246 -0.037083
vn 0.064228 -0.997246 -0.037083
vn 0.065016 0.997178 -0.037534
vn 0.065016 0.997178 -0.037534
vn 0.065016 0.997178 -0.037534
vn 0.065016 0.997178 -0.037534
s off
f 51/104/1 52/136/2 53/131/3 54/96/4
f 52/137/5 55/128/6 56/123/7 53/73/8
f 55/129/9 57/120/10 58/115/11 56/76/12
f 57/121/13 59/112/14 60/107/15 58/78/16
f 59/113/17 61/102/18 62/98/19 60/80/20
f 61/103/21 51/71/22 54/97/23 62/82/24
f 2/2/25 1/1/26 13/27/27
f 3/3/28 2/2/29 13/27/30
f 4/4/31 3/3/32 13/27/33
f 5/5/34 4/4/35 13/27/36
f 6/6/37 5/5/38 13/27/39
f 1/1/40 6/6/41 13/27/42
f 7/25/43 8/24/44 14/28/45
f 8/24/46 9/23/47 14/28/48
f 9/23/49 10/22/50 14/28/51
f 10/22/52 11/21/53 14/28/54
f 11/21/55 12/26/56 14/28/57
f 12/26/58 7/25/59 14/28/60
f 21/36/61 22/37/62 16/30/63 15/29/64
f 22/37/65 23/38/66 17/31/67 16/30/68
f 23/38/69 24/39/70 18/32/71 17/31/72
f 24/39/73 25/40/74 19/33/75 18/32/76
f 25/41/77 26/42/78 20/35/79 19/34/80
f 26/42/81 21/36/82 15/29/83 20/35/84
f 30/47/85 31/48/86 33/50/87 34/51/88
f 31/48/89 32/49/90 38/56/91 33/50/92
f 32/49/93 27/43/94 37/55/95 38/56/96
f 27/43/97 28/44/98 36/53/99 37/55/100
f 28/45/101 29/46/102 35/52/103 36/54/104
f 29/46/105 30/47/106 34/51/107 35/52/108
f 6/12/109 1/13/110 28/44/111 27/43/112
f 1/7/113 2/8/114 29/46/115 28/45/116
f 2/8/117 3/9/118 30/47/119 29/46/120
f 3/9/121 4/10/122 31/48/123 30/47/124
f 4/10/125 5/11/126 32/49/127 31/48/128
f 5/11/129 6/12/130 27/43/131 32/49/132
f 34/51/133 33/50/134 22/37/135 21/36/136
f 35/52/137 34/51/138 21/36/139 26/42/140
f 36/54/141 35/52/142 26/42/143 25/41/144
f 37/55/145 36/53/146 25/40/147 24/39/148
f 38/56/149 37/55/150 24/39/151 23/38/152
f 33/50/153 38/56/154 23/38/155 22/37/156
f 40/59/157 39/57/158 8/15/159 7/14/160
f 41/60/161 40/58/162 7/20/163 12/19/164
f 42/61/165 41/60/166 12/19/167 11/18/168
f 43/62/169 42/61/170 11/18/171 10/17/172
f 44/63/173 43/62/174 10/17/175 9/16/176
f 39/57/177 44/63/178 9/16/179 8/15/180
f 16/30/181 17/31/182 46/65/183 45/64/184
f 17/31/185 18/32/186 47/66/187 46/65/188
f 18/32/189 19/33/190 48/67/191 47/66/192
f 19/34/193 20/35/194 49/69/195 48/68/196
f 20/35/197 15/29/198 50/70/199 49/69/200
f 15/29/201 16/30/202 45/64/203 50/70/204
f 48/83/205 49/141/206 52/135/207 51/105/208
f 39/85/209 40/139/210 54/95/211 53/132/212
f 49/84/213 50/138/214 55/127/215 52/72/216
f 44/88/217 39/140/218 53/133/219 56/124/220
f 50/87/221 45/130/222 57/119/223 55/75/224
f 43/90/225 44/134/226 56/125/227 58/116/228
f 45/89/229 46/122/230 59/111/231 57/77/232
f 42/92/233 43/126/234 58/117/235 60/108/236
f 46/91/237 47/114/238 61/101/239 59/79/240
f 41/94/241 42/118/242 60/109/243 62/99/244
f 47/93/245 48/142/246 51/106/247 61/81/248
f 40/86/249 41/110/250 62/100/251 54/74/252
