# This file uses meters as units for non-parametric coordinates.

v -18.793678 185.007263 2.709770
v 18.793678 185.007263 2.709770
v -18.793678 190.831650 2.709770
v 18.793678 190.831650 2.709770
v -18.793678 190.831650 0.894928
v 18.793678 190.831650 0.894928
v -18.793678 185.007263 0.894928
v 18.793678 185.007263 0.894928
v 1.970792 190.831650 -2.409172
v 2.643895 190.831650 -4.239845
v 2.643895 185.007263 -4.239845
v 1.970792 185.007263 -2.409172
v -1.970792 185.007263 -2.409172
v -2.643895 185.007263 -4.239845
v -2.643895 190.831650 -4.239845
v -1.970792 190.831650 -2.409172
v 4.187799 190.831650 2.709770
v 4.759026 190.831650 -0.233841
v 4.759026 185.007263 -0.233841
v 4.187799 185.007263 2.709770
v -4.187799 185.007263 2.709770
v -4.759026 185.007263 -0.233841
v -4.759026 190.831650 -0.233841
v -4.187799 190.831650 2.709770
v 2.348137 208.952560 2.113914
v 3.320694 208.952560 -0.234222
v 2.348137 208.952560 -2.582359
v 0.000000 208.952560 -3.554916
v -2.348137 208.952560 -2.582359
v -3.320694 208.952560 -0.234222
v -2.348137 208.952560 2.113914
v 0.000000 208.952560 3.086472
v 0.000000 34.123455 -3.554916
v -2.348328 34.123455 -2.582359
v -3.320885 34.123455 -0.234222
v -2.348328 34.123455 2.113914
v 0.000000 34.123455 3.086472
v 2.348137 34.123455 2.113914
v 3.320694 34.123455 -0.234222
v 2.348137 34.123455 -2.582359
v 0.000000 0.000000 -6.166458
v -4.194641 0.000000 -4.428864
v -4.194832 31.722832 -4.428864
v 0.000000 31.722832 -6.166458
v -5.932045 0.000000 -0.234222
v -5.932236 31.722832 -0.234222
v -4.194641 0.000000 3.960609
v -4.194832 31.722832 3.960419
v 0.000000 0.000000 5.698013
v 0.000000 31.722832 5.698013
v 4.194641 0.000000 3.960609
v 4.194641 31.722832 3.960419
v 5.932045 0.000000 -0.234222
v 5.932045 31.722832 -0.234222
v 4.194641 0.000000 -4.428864
v 4.194641 31.722832 -4.428864
v 0.000000 145.727448 6.570748
v -5.361843 147.807404 6.570748
v 5.361795 147.807404 6.570748
v 42.812870 215.159653 6.570748
v 43.232250 209.397186 6.570748
v 38.357380 218.117233 6.570748
v -42.812946 215.159653 6.570748
v -38.357403 218.117233 6.570748
v -43.232227 209.397186 6.570748
v 3.959179 158.312286 6.570748
v 31.923033 203.790665 6.570748
v 28.323460 210.229828 6.570748
v -28.323484 210.229828 6.570748
v -31.923033 203.790665 6.570748
v -3.959227 158.312286 6.570748
v 0.000000 156.776337 6.570748
v 31.613445 208.045731 6.570748
v -31.613445 208.045731 6.570748
v -5.361843 147.807404 2.709770
v -43.232250 209.397186 2.709770
v 5.361795 147.807404 2.709770
v 43.232250 209.397186 2.709770
v -38.357426 218.117233 2.709770
v 38.357380 218.117233 2.709770
v 0.000000 145.727448 2.709770
v 42.812870 215.159653 2.709770
v -42.812946 215.159653 2.709770
v -10.059762 177.083527 2.709770
v 16.466402 212.543106 6.570748
v 11.479425 168.337006 6.570748
v 4.866147 210.620728 6.570748
v 5.805898 162.905121 6.570748
vt 0.078832 0.328889
vt 0.078832 0.328889
vt 0.078832 0.328889
vt 0.078832 0.328889
vt 0.078832 0.328889
vt 0.078832 0.328889
vt 0.078832 0.328889
vt 0.078832 0.328889
vt 0.078832 0.328889
vt 0.078832 0.328889
vt 0.078832 0.328889
vt 0.078832 0.328889
vt 0.078832 0.328889
vt 0.078832 0.328889
vt 0.078832 0.328889
vt 0.078832 0.328889
vt 0.078832 0.328889
vt 0.078832 0.328889
vt 0.078832 0.328889
vt 0.078832 0.328889
vt 0.078832 0.328889
vt 0.078832 0.328889
vt 0.078832 0.328889
vt 0.078832 0.328889
vt 0.078832 0.328889
vt 0.078832 0.328889
vt 0.078832 0.328889
vt 0.078832 0.328889
vt 0.078832 0.328889
vt 0.078832 0.328889
vt 0.123541 0.277139
vt 0.123541 0.277139
vt 0.123541 0.277139
vt 0.123541 0.277139
vt 0.123541 0.277139
vt 0.123541 0.277139
vt 0.123541 0.277139
vt 0.123541 0.277139
vt 0.123541 0.277139
vt 0.123541 0.277139
vt 0.123541 0.277139
vt 0.123541 0.277139
vt 0.123541 0.277139
vt 0.123541 0.277139
vt 0.123541 0.277139
vt 0.123541 0.277139
vt 0.123541 0.277139
vt 0.123541 0.277139
vt 0.123541 0.277139
vt 0.123541 0.277139
vt 0.123541 0.277139
vt 0.123541 0.277139
vt 0.123541 0.277139
vt 0.123541 0.277139
vt 0.123541 0.277139
vt 0.123541 0.277139
vt 0.123541 0.277139
vt 0.123541 0.277139
vt 0.123541 0.277139
vt 0.123541 0.277139
vt 0.123541 0.277139
vt 0.123541 0.277139
vt 0.123541 0.277139
vt 0.123541 0.277139
vt 0.123541 0.277139
vt 0.123541 0.277139
vt 0.459483 0.011619
vt 0.459483 0.011619
vt 0.459483 0.011619
vt 0.459483 0.011619
vt 0.459483 0.011619
vt 0.459483 0.011619
vt 0.459483 0.011619
vt 0.459483 0.011619
vt 0.459484 0.011619
vt 0.459484 0.011619
vt 0.459484 0.011619
vt 0.706785 0.016700
vt 0.706785 0.016700
vt 0.706785 0.016700
vt 0.706785 0.016700
vt 0.706785 0.016700
vt 0.706785 0.016700
vt 0.706785 0.016700
vt 0.706785 0.016700
vt 0.706785 0.016700
vt 0.706785 0.016700
vt 0.706785 0.016700
vt 0.706785 0.016700
vt 0.706785 0.016700
vt 0.706785 0.016700
vt 0.706785 0.016700
vt 0.706785 0.016700
vt 0.706785 0.016700
vt 0.706785 0.016700
vt 0.706785 0.016700
vt 0.706785 0.016700
vt 0.706785 0.016700
vt 0.706785 0.016700
vt 0.706040 0.014512
vt 0.706040 0.014512
vt 0.706040 0.014512
vt 0.706040 0.014512
vt 0.706040 0.014512
vt 0.706040 0.014512
vt 0.706040 0.014512
vt 0.706040 0.014512
vt 0.706040 0.014512
vt 0.706040 0.014512
vt 0.706040 0.014512
vt 0.706040 0.014512
vt 0.706040 0.014512
vt 0.706040 0.014512
vt 0.706040 0.014512
vt 0.706040 0.014512
vt 0.706040 0.014512
vt 0.706040 0.014512
vt 0.080339 0.378542
vt 0.459484 0.011619
vt 0.459483 0.011619
vt 0.080339 0.378543
vt 0.080339 0.378543
vt 0.080339 0.378543
vt 0.080339 0.378542
vt 0.080339 0.378543
vt 0.080339 0.378543
vt 0.080339 0.378542
vt 0.080339 0.378543
vt 0.080339 0.378543
vn 0.000000 1.000000 0.000001
vn 0.000000 1.000000 0.000001
vn 0.000000 1.000000 0.000001
vn 0.000000 1.000000 0.000001
vn 0.000000 0.000000 -1.000000
vn 0.000000 0.000000 -1.000000
vn 0.000000 0.000000 -1.000000
vn 0.000000 0.000000 -1.000000
vn 0.000000 -1.000000 0.000000
vn 0.000000 -1.000000 0.000000
vn 0.000000 -1.000000 0.000000
vn 0.000000 -1.000000 0.000000
vn 1.000000 0.000000 0.000000
vn 1.000000 0.000000 0.000000
vn 1.000000 0.000000 0.000000
vn 1.000000 0.000000 0.000000
vn -1.000000 0.000000 0.000000
vn -1.000000 0.000000 0.000000
vn -1.000000 0.000000 0.000000
vn -1.000000 0.000000 0.000000
vn 0.000000 1.000000 0.000000
vn 0.000000 1.000000 0.000000
vn 0.000000 1.000000 0.000000
vn 0.000000 1.000000 0.000000
vn 0.884307 0.000000 -0.466905
vn 0.884307 0.000000 -0.466905
vn 0.884307 0.000000 -0.466905
vn 0.884307 0.000000 -0.466905
vn 0.000000 -1.000000 0.000000
vn 0.000000 -1.000000 0.000000
vn 0.000000 -1.000000 0.000000
vn 0.000000 -1.000000 0.000000
vn 0.000000 -1.000000 0.000000
vn 0.000000 -1.000000 0.000000
vn 0.000000 -1.000000 0.000000
vn 0.000000 -1.000000 0.000000
vn -0.884307 0.000000 -0.466905
vn -0.884307 0.000000 -0.466905
vn -0.884307 0.000000 -0.466905
vn -0.884307 0.000000 -0.466905
vn 0.000000 1.000000 0.000000
vn 0.000000 1.000000 0.000000
vn 0.000000 1.000000 0.000000
vn 0.000000 1.000000 0.000000
vn 0.000000 1.000000 0.000009
vn 0.000000 1.000000 0.000009
vn 0.000000 1.000000 0.000009
vn 0.000000 1.000000 0.000009
vn 0.080168 0.000000 -0.996781
vn 0.080168 0.000000 -0.996781
vn 0.080168 0.000000 -0.996781
vn 0.080168 0.000000 -0.996781
vn 0.000000 -1.000000 0.000009
vn 0.000000 -1.000000 0.000009
vn 0.000000 -1.000000 0.000009
vn 0.000000 -1.000000 0.000009
vn 0.000000 -1.000000 0.000009
vn 0.000000 -1.000000 0.000009
vn 0.000000 -1.000000 0.000009
vn 0.000000 -1.000000 0.000009
vn -0.080168 0.000000 -0.996781
vn -0.080168 0.000000 -0.996781
vn -0.080168 0.000000 -0.996781
vn -0.080168 0.000000 -0.996781
vn 0.000000 1.000000 0.000009
vn 0.000000 1.000000 0.000009
vn 0.000000 1.000000 0.000009
vn 0.000000 1.000000 0.000009
vn 0.923890 0.000000 0.382659
vn 0.923890 0.000000 0.382659
vn 0.923890 0.000000 0.382659
vn 0.923890 0.000000 0.382659
vn 0.923890 0.000000 -0.382659
vn 0.923890 0.000000 -0.382659
vn 0.923890 0.000000 -0.382659
vn 0.923890 0.000000 -0.382659
vn 0.382659 0.000000 -0.923890
vn 0.382659 0.000000 -0.923890
vn 0.382659 0.000000 -0.923890
vn 0.382659 0.000000 -0.923890
vn -0.382646 0.000000 -0.923895
vn -0.382646 0.000000 -0.923895
vn -0.382646 0.000000 -0.923895
vn -0.382646 0.000000 -0.923895
vn -0.923890 0.000001 -0.382659
vn -0.923890 0.000001 -0.382659
vn -0.923890 0.000001 -0.382659
vn -0.923890 0.000001 -0.382659
vn -0.923890 0.000001 0.382659
vn -0.923890 0.000001 0.382659
vn -0.923890 0.000001 0.382659
vn -0.923890 0.000001 0.382659
vn -0.382646 0.000000 0.923895
vn -0.382646 0.000000 0.923895
vn -0.382646 0.000000 0.923895
vn -0.382646 0.000000 0.923895
vn 0.382659 0.000000 0.923890
vn 0.382659 0.000000 0.923890
vn 0.382659 0.000000 0.923890
vn 0.382659 0.000000 0.923890
vn -0.382698 -0.000001 -0.923873
vn -0.382698 -0.000001 -0.923873
vn -0.382698 -0.000001 -0.923873
vn -0.382698 -0.000001 -0.923873
vn -0.923885 -0.000006 -0.382670
vn -0.923885 -0.000006 -0.382670
vn -0.923885 -0.000006 -0.382670
vn -0.923885 -0.000006 -0.382670
vn -0.923888 -0.000004 0.382662
vn -0.923888 -0.000004 0.382662
vn -0.923888 -0.000004 0.382662
vn -0.923888 -0.000004 0.382662
vn -0.382680 0.000002 0.923881
vn -0.382680 0.000002 0.923881
vn -0.382680 0.000002 0.923881
vn -0.382680 0.000002 0.923881
vn 0.382688 0.000003 0.923878
vn 0.382688 0.000003 0.923878
vn 0.382688 0.000003 0.923878
vn 0.382688 0.000003 0.923878
vn 0.923888 0.000001 0.382662
vn 0.923888 0.000001 0.382662
vn 0.923888 0.000001 0.382662
vn 0.923888 0.000001 0.382662
vn 0.923885 0.000000 -0.382670
vn 0.923885 0.000000 -0.382670
vn 0.923885 0.000000 -0.382670
vn 0.923885 0.000000 -0.382670
vn 0.382705 0.000000 -0.923870
vn 0.382705 0.000000 -0.923870
vn 0.382705 0.000000 -0.923870
vn 0.382705 0.000000 -0.923870
vn -0.269911 0.708873 -0.651650
vn -0.269911 0.708873 -0.651650
vn -0.269911 0.708873 -0.651650
vn -0.269911 0.708873 -0.651650
vn -0.651662 0.708861 -0.269913
vn -0.651662 0.708861 -0.269913
vn -0.651662 0.708861 -0.269913
vn -0.651662 0.708861 -0.269913
vn -0.651662 0.708860 0.269913
vn -0.651662 0.708860 0.269913
vn -0.651662 0.708860 0.269913
vn -0.651662 0.708860 0.269913
vn -0.269911 0.708873 0.651650
vn -0.269911 0.708873 0.651650
vn -0.269911 0.708873 0.651650
vn -0.269911 0.708873 0.651650
vn 0.269924 0.708873 0.651644
vn 0.269924 0.708873 0.651644
vn 0.269924 0.708873 0.651644
vn 0.269924 0.708873 0.651644
vn 0.651663 0.708861 0.269913
vn 0.651663 0.708861 0.269913
vn 0.651662 0.708861 0.269913
vn 0.651662 0.708861 0.269913
vn 0.651662 0.708860 -0.269913
vn 0.651662 0.708860 -0.269913
vn 0.651662 0.708860 -0.269913
vn 0.651662 0.708860 -0.269913
vn 0.269924 0.708873 -0.651644
vn 0.269924 0.708873 -0.651644
vn 0.269924 0.708873 -0.651644
vn 0.269924 0.708873 -0.651644
vn 0.000000 1.000000 -0.000001
vn 0.000000 1.000000 -0.000001
vn 0.000000 1.000000 -0.000001
vn 0.000000 1.000000 -0.000001
vn 0.000000 1.000000 -0.000001
vn 0.000000 1.000000 -0.000001
vn 0.000000 1.000000 -0.000001
vn 0.000000 1.000000 -0.000001
vn -0.000000 0.000000 1.000000
vn -0.000000 0.000000 1.000000
vn 0.000000 0.000000 1.000000
vn 0.000000 0.000000 1.000000
vn 0.000000 0.000000 1.000000
vn 0.000000 0.000000 1.000000
vn 0.000000 0.000000 1.000000
vn -0.000000 0.000000 1.000000
vn 0.000000 0.000000 1.000000
vn 0.000000 0.000000 1.000000
vn 0.000001 0.000000 1.000000
vn 0.000000 0.000000 1.000000
vn 0.000000 0.000000 1.000000
vn -0.000000 0.000000 1.000000
vn -0.000000 0.000000 1.000000
vn -0.000000 0.000000 1.000000
vn -0.000000 0.000000 1.000000
vn -0.000000 0.000000 1.000000
vn -0.000000 0.000000 1.000000
vn 0.000000 0.000000 1.000000
vn 0.000000 0.000000 1.000000
vn 0.000000 0.000000 1.000000
vn 0.000000 0.000000 1.000000
vn 0.000000 0.000000 1.000000
vn 0.000000 0.000000 1.000000
vn -0.000000 0.000000 1.000000
vn -0.000000 0.000000 1.000000
vn -0.000000 0.000000 1.000000
vn -0.000000 0.000000 1.000000
vn -0.000000 0.000000 1.000000
vn -0.000000 0.000000 1.000000
vn -0.000000 0.000000 1.000000
vn -0.000000 0.000000 1.000000
vn 0.000000 0.000000 1.000000
vn 0.000000 0.000000 1.000000
vn 0.000000 0.000000 1.000000
vn 0.000000 0.000000 1.000000
vn 0.000000 0.000000 1.000000
vn 0.000000 0.000000 1.000000
vn 0.000000 0.000000 1.000000
vn 0.000000 0.000000 1.000000
vn 0.000000 0.000000 1.000000
vn 0.000000 0.000000 1.000000
vn 0.000000 0.000000 1.000000
vn 0.000000 0.000000 1.000000
vn 0.000000 0.000000 1.000000
vn 0.000000 0.000000 1.000000
vn 0.000000 0.000000 1.000000
vn 0.000000 0.000000 1.000000
vn 0.000000 0.000000 1.000000
vn 0.000000 0.000000 1.000000
vn 0.000000 0.000000 1.000000
vn 0.000000 0.000000 1.000000
vn -0.851850 -0.523786 0.000002
vn -0.851850 -0.523786 0.000002
vn -0.851850 -0.523786 0.000002
vn -0.851850 -0.523786 0.000002
vn 0.851849 -0.523787 0.000000
vn 0.851849 -0.523787 0.000000
vn 0.851849 -0.523787 0.000000
vn 0.851849 -0.523787 0.000000
vn 0.000000 1.000000 -0.000001
vn 0.000000 1.000000 -0.000001
vn 0.000000 1.000000 -0.000001
vn 0.000000 1.000000 -0.000001
vn -0.361661 -0.932310 0.000000
vn -0.361661 -0.932310 0.000000
vn -0.361661 -0.932310 0.000000
vn -0.361661 -0.932310 0.000000
vn 0.361664 -0.932309 0.000000
vn 0.361664 -0.932309 0.000000
vn 0.361664 -0.932309 0.000000
vn 0.361664 -0.932309 0.000000
vn 0.997362 0.072585 0.000000
vn 0.997362 0.072585 0.000000
vn 0.997362 0.072585 0.000000
vn 0.997362 0.072585 0.000000
vn 0.553049 0.833149 0.000000
vn 0.553049 0.833149 0.000000
vn 0.553049 0.833149 0.000000
vn 0.553049 0.833149 0.000000
vn -0.553046 0.833151 0.000004
vn -0.553046 0.833151 0.000004
vn -0.553046 0.833151 0.000004
vn -0.553046 0.833151 0.000004
vn -0.997363 0.072571 0.000003
vn -0.997363 0.072571 0.000003
vn -0.997363 0.072571 0.000003
vn -0.997363 0.072571 0.000003
vn 0.000000 0.000000 -1.000000
vn 0.000000 0.000000 -1.000000
vn 0.000000 0.000000 -1.000000
vn -0.000000 0.000000 -1.000000
vn -0.000000 0.000000 -1.000000
vn -0.000000 0.000000 -1.000000
vn 0.000000 0.000000 -1.000000
vn 0.000000 0.000000 -1.000000
vn 0.000000 0.000000 -1.000000
vn 0.000000 0.000000 -1.000000
vn 0.000000 0.000000 -1.000000
vn 0.000000 0.000000 -1.000000
vn 0.000000 0.000000 -1.000000
vn 0.000000 0.000000 -1.000000
vn 0.000000 0.000000 -1.000000
vn 0.000000 0.000000 -1.000000
vn 0.000000 0.000000 -1.000000
vn 0.000000 0.000000 -1.000000
vn 0.000000 0.000000 -1.000000
vn 0.000000 0.000000 -1.000000
vn 0.000000 0.000000 -1.000000
vn 0.000000 0.000000 -1.000000
vn 0.000000 0.000000 -1.000000
vn 0.000000 0.000000 -1.000000
vn 0.000000 0.000000 -1.000000
vn 0.000000 0.000000 -1.000000
vn 0.000000 0.000000 -1.000000
vn 0.000000 0.000000 1.000000
vn 0.000000 0.000000 1.000000
vn -0.000000 0.000000 1.000000
vn -0.000000 0.000000 1.000000
vn 0.000000 0.000000 1.000000
vn 0.000000 0.000000 1.000000
vn 0.000000 0.000000 1.000000
vn 0.000000 0.000000 1.000000
vn 0.000000 0.000000 1.000000
vn 0.000000 0.000000 1.000000
s off
f 16/1/1 9/2/2 10/3/3 15/4/4
f 10/3/5 11/5/6 14/6/7 15/4/8
f 11/5/9 12/7/10 13/8/11 14/6/12
f 2/9/13 8/10/14 6/11/15 4/12/16
f 7/13/17 1/14/18 3/15/19 5/16/20
f 10/3/21 9/2/22 17/17/23 18/18/24
f 11/5/25 10/3/26 18/18/27 19/19/28
f 12/7/29 11/5/30 19/19/31 20/20/32
f 21/21/33 22/22/34 14/6/35 13/8/36
f 22/22/37 23/23/38 15/4/39 14/6/40
f 23/23/41 24/24/42 16/1/43 15/4/44
f 18/18/45 17/17/46 4/12/47 6/25/48
f 19/19/49 18/18/50 6/25/51 8/26/52
f 20/20/53 19/19/54 8/26/55 2/27/56
f 7/28/57 22/22/58 21/21/59 1/29/60
f 5/30/61 23/23/62 22/22/63 7/28/64
f 3/15/65 24/24/66 23/23/67 5/30/68
f 38/31/69 39/32/70 26/33/71 25/34/72
f 39/32/73 40/35/74 27/36/75 26/33/76
f 40/35/77 33/37/78 28/38/79 27/36/80
f 33/37/81 34/39/82 29/40/83 28/38/84
f 34/39/85 35/41/86 30/42/87 29/40/88
f 35/41/89 36/43/90 31/44/91 30/42/92
f 36/43/93 37/45/94 32/46/95 31/44/96
f 37/45/97 38/47/98 25/48/99 32/46/100
f 41/49/101 42/50/102 43/51/103 44/52/104
f 42/50/105 45/53/106 46/54/107 43/51/108
f 45/53/109 47/55/110 48/56/111 46/54/112
f 47/55/113 49/57/114 50/58/115 48/56/116
f 49/57/117 51/59/118 52/60/119 50/58/120
f 51/61/121 53/62/122 54/63/123 52/64/124
f 53/62/125 55/65/126 56/66/127 54/63/128
f 55/65/129 41/49/130 44/52/131 56/66/132
f 34/39/133 33/37/134 44/52/135 43/51/136
f 35/41/137 34/39/138 43/51/139 46/54/140
f 36/43/141 35/41/142 46/54/143 48/56/144
f 37/45/145 36/43/146 48/56/147 50/58/148
f 38/47/149 37/45/150 50/58/151 52/60/152
f 39/32/153 38/31/154 52/64/155 54/63/156
f 40/35/157 39/32/158 54/63/159 56/66/160
f 33/37/161 40/35/162 56/66/163 44/52/164
f 26/33/165 27/36/166 28/38/167 29/40/168 30/42/169 31/44/170 32/46/171 25/34/172
f 85/67/173 86/68/174 67/69/175 68/70/176
f 72/71/177 66/72/178 71/73/179
f 73/74/180 68/70/181 67/69/182
f 74/75/183 70/76/184 69/77/185
f 59/78/186 61/79/187 67/80/188 86/81/189 88/82/190 66/83/191
f 62/84/192 64/85/193 69/86/194 87/87/195 85/88/196 68/89/197
f 65/90/198 58/91/199 71/92/200 70/93/201
f 57/94/202 59/78/203 66/83/204 72/95/205
f 58/91/206 57/94/207 72/95/208 71/92/209
f 60/96/210 62/84/211 68/89/212 73/97/213
f 61/79/214 60/96/215 73/97/216 67/80/217
f 63/98/218 65/90/219 70/93/220 74/99/221
f 64/85/222 63/98/223 74/99/224 69/86/225
f 58/100/226 65/101/227 76/102/228 75/103/229
f 61/104/230 59/105/231 77/106/232 78/107/233
f 64/108/234 62/109/235 80/110/236 79/111/237
f 57/112/238 58/100/239 75/103/240 81/113/241
f 59/105/242 57/112/243 81/113/244 77/106/245
f 60/114/246 61/104/247 78/107/248 82/115/249
f 62/109/250 60/114/251 82/115/252 80/110/253
f 63/116/254 64/108/255 79/111/256 83/117/257
f 65/101/258 63/116/259 83/117/260 76/102/261
f 75/118/262 76/121/263 84/122/264
f 78/123/265 77/124/266 84/122/267
f 79/125/268 80/126/269 84/122/270
f 81/127/271 75/118/272 84/122/273
f 77/124/274 81/127/275 84/122/276
f 82/128/277 78/123/278 84/122/279
f 80/126/280 82/128/281 84/122/282
f 83/129/283 79/125/284 84/122/285
f 76/121/286 83/129/287 84/122/288
f 87/119/289 88/120/290 86/68/291 85/67/292
f 66/72/293 88/120/294 87/119/295 69/77/296 70/76/297 71/73/298
