# This file uses meters as units for non-parametric coordinates.

v -57.367371 -27.936275 0.000000
v -57.367371 -27.936279 8.129639
v -57.367371 12.253548 0.000000
v -57.367371 12.253548 8.129639
v 57.367615 12.253548 0.000000
v 57.367615 12.253548 8.129639
v 57.367615 -27.936275 0.000000
v 57.367615 -27.936279 8.129639
v -57.367371 0.000000 0.000000
v -57.367371 3.546272 14.691589
v 57.367615 3.546272 14.691589
v 57.367615 0.000000 0.000000
v -57.367371 -6.325945 14.691467
v 57.367615 -6.325945 14.691589
v -51.361816 17.158630 0.000000
v -51.361816 17.158630 13.792969
v -51.361816 6.325943 21.956604
v -51.361816 -5.956041 21.956299
v -51.361816 -32.841362 13.792969
v -51.361816 -32.841358 0.000000
v 51.361755 -32.841358 0.000000
v 51.361755 -32.841362 13.792969
v 51.361755 -5.956041 21.956604
v 51.361755 6.325943 21.956604
v 51.361755 17.158630 13.792969
v 51.361755 17.158630 0.000000
v 42.198181 -30.443039 14.521240
v -42.198181 -30.443039 14.521240
v 42.198181 -8.354364 21.228333
v -42.198181 -8.354364 21.228333
v 40.023254 -28.897966 15.132324
v -40.023010 -28.897966 15.132324
v 35.352478 -9.986155 12.125488
v -35.352173 -9.986155 12.125488
v 40.023254 -9.986155 20.874756
v -40.023010 -9.986155 20.874756
v 45.961670 10.050060 19.150085
v 45.961670 13.434361 16.599548
v 31.279053 13.434361 16.599548
v 31.279053 10.050060 19.150085
vt 0.132941 0.376206
vt 0.132941 0.376206
vt 0.132941 0.376206
vt 0.132941 0.376206
vt 0.132941 0.376206
vt 0.132941 0.376206
vt 0.132941 0.376206
vt 0.132941 0.376206
vt 0.132941 0.376206
vt 0.132941 0.376206
vt 0.132941 0.376206
vt 0.132941 0.376206
vt 0.132941 0.376206
vt 0.132941 0.376206
vt 0.132941 0.376206
vt 0.132941 0.376206
vt 0.132941 0.376206
vt 0.132941 0.376206
vt 0.132941 0.376206
vt 0.132941 0.376206
vt 0.132941 0.376206
vt 0.132941 0.376206
vt 0.132941 0.376206
vt 0.132941 0.376206
vt 0.132941 0.376206
vt 0.132941 0.376206
vt 0.132941 0.376206
vt 0.132941 0.376206
vt 0.132941 0.376206
vt 0.132941 0.376206
vt 0.132941 0.376206
vt 0.132941 0.376206
vt 0.132941 0.376206
vt 0.132941 0.376206
vt 0.132941 0.376206
vt 0.132941 0.376206
vt 0.132941 0.376206
vt 0.132941 0.376206
vt 0.132941 0.376206
vt 0.132941 0.376206
vt 0.132941 0.376206
vt 0.132941 0.376206
vt 0.132941 0.376206
vt 0.132941 0.376206
vt 0.132941 0.376206
vt 0.132941 0.376206
vt 0.132941 0.376206
vt 0.091553 0.305397
vt 0.091553 0.305397
vt 0.091553 0.305397
vt 0.091553 0.305397
vt 0.091553 0.305397
vt 0.091553 0.305397
vt 0.091553 0.305397
vt 0.091553 0.305397
vt 0.091553 0.305397
vt 0.091553 0.305397
vt 0.132941 0.376206
vt 0.132941 0.376206
vt 0.132941 0.376206
vt 0.132941 0.376206
vt 0.146118 0.449654
vt 0.146118 0.449654
vt 0.146118 0.449654
vt 0.146118 0.449654
vn -1.000000 0.000000 0.000000
vn -1.000000 0.000000 0.000000
vn -1.000000 0.000000 0.000000
vn -1.000000 0.000000 0.000000
vn 0.000000 1.000000 0.000000
vn 0.000000 1.000000 0.000000
vn 0.000000 1.000000 0.000000
vn 0.000000 1.000000 0.000000
vn 1.000000 0.000000 0.000000
vn 1.000000 0.000000 0.000000
vn 1.000000 0.000000 0.000000
vn 1.000000 0.000000 0.000000
vn 0.000000 -1.000000 -0.000000
vn 0.000000 -1.000000 -0.000000
vn 0.000000 -1.000000 -0.000000
vn 0.000000 -1.000000 -0.000000
vn 0.000000 0.601858 0.798603
vn 0.000000 0.601858 0.798603
vn 0.000000 0.601858 0.798603
vn 0.000000 0.601858 0.798603
vn 0.000000 0.000000 -1.000000
vn 0.000000 0.000000 -1.000000
vn 0.000000 0.000000 -1.000000
vn 0.000000 0.000000 -1.000000
vn -1.000000 0.000000 0.000000
vn -1.000000 0.000000 0.000000
vn -1.000000 0.000000 0.000000
vn -0.000001 -0.000012 1.000000
vn -0.000001 -0.000012 1.000000
vn -0.000001 -0.000012 1.000000
vn -0.000001 -0.000012 1.000000
vn 1.000000 0.000000 0.000000
vn 1.000000 0.000000 0.000000
vn 1.000000 0.000000 0.000000
vn -1.000000 0.000000 0.000000
vn -1.000000 0.000000 0.000000
vn -1.000000 0.000000 0.000000
vn -1.000000 0.000000 0.000000
vn 0.000000 0.157020 0.987595
vn 0.000000 0.157020 0.987595
vn 0.000000 0.157020 0.987595
vn 0.000000 0.157020 0.987595
vn 1.000000 0.000000 0.000000
vn 1.000000 0.000000 0.000000
vn 1.000000 0.000000 0.000000
vn 1.000000 0.000000 0.000000
vn 0.000000 0.000000 -1.000000
vn 0.000000 0.000000 -1.000000
vn 0.000000 0.000000 -1.000000
vn 0.000000 0.000000 -1.000000
vn -0.632577 0.774498 0.000000
vn -0.632577 0.774498 0.000000
vn -0.632577 0.774498 0.000000
vn -0.632577 0.774498 0.000000
vn -0.779563 0.376951 0.500191
vn -0.779562 0.376951 0.500191
vn -0.779562 0.376951 0.500191
vn -0.779562 0.376951 0.500191
vn -0.770747 -0.000012 0.637141
vn -0.770747 -0.000012 0.637141
vn -0.770747 -0.000012 0.637141
vn -0.770747 -0.000012 0.637141
vn -0.751651 -0.191629 0.631110
vn -0.751651 -0.191629 0.631110
vn -0.751651 -0.191629 0.631110
vn -0.751651 -0.191629 0.631110
vn -0.632577 -0.774498 -0.000000
vn -0.632577 -0.774498 -0.000000
vn -0.632577 -0.774498 -0.000000
vn -0.632577 -0.774498 -0.000000
vn 0.000000 0.000000 -1.000000
vn 0.000000 0.000000 -1.000000
vn 0.000000 0.000000 -1.000000
vn 0.000000 0.000000 -1.000000
vn 0.000000 0.000000 -1.000000
vn 0.000000 0.000000 -1.000000
vn 0.632557 -0.774514 -0.000000
vn 0.632557 -0.774514 -0.000000
vn 0.632557 -0.774514 -0.000000
vn 0.632557 -0.774514 -0.000000
vn 0.751638 -0.191638 0.631122
vn 0.751639 -0.191638 0.631122
vn 0.751638 -0.191638 0.631121
vn 0.751638 -0.191638 0.631122
vn 0.770736 0.000000 0.637154
vn 0.770736 0.000000 0.637154
vn 0.770736 0.000000 0.637154
vn 0.770736 0.000000 0.637154
vn 0.779547 0.376962 0.500206
vn 0.779547 0.376962 0.500206
vn 0.779547 0.376962 0.500206
vn 0.779547 0.376962 0.500206
vn 0.632558 0.774513 0.000000
vn 0.632558 0.774513 0.000000
vn 0.632558 0.774513 0.000000
vn 0.632558 0.774513 0.000000
vn 0.000000 0.000000 -1.000000
vn 0.000000 0.000000 -1.000000
vn 0.000000 0.000000 -1.000000
vn 0.000000 0.000000 -1.000000
vn 0.000000 0.000000 -1.000000
vn 0.000000 0.000000 -1.000000
vn 0.000000 -0.290558 0.956858
vn 0.000000 -0.290558 0.956858
vn 0.000000 -0.290558 0.956857
vn 0.000000 -0.290558 0.956857
vn 0.000000 -0.290546 0.956861
vn 0.000000 -0.290546 0.956861
vn 0.000000 -0.290546 0.956861
vn 0.000000 -0.290546 0.956861
vn -0.000002 -0.290502 0.956874
vn -0.000002 -0.290502 0.956874
vn -0.000002 -0.290502 0.956874
vn -0.000002 -0.290502 0.956874
vn -0.000016 -0.290541 0.956863
vn -0.000016 -0.290541 0.956863
vn -0.000016 -0.290541 0.956863
vn -0.000016 -0.290541 0.956863
vn -0.873281 -0.141558 0.466199
vn -0.873281 -0.141558 0.466199
vn -0.873281 -0.141558 0.466199
vn 0.000000 -1.000000 -0.000000
vn 0.000000 -1.000000 -0.000000
vn 0.000000 -1.000000 -0.000000
vn 0.000000 -1.000000 -0.000000
vn 0.873278 -0.141559 0.466204
vn 0.873278 -0.141559 0.466204
vn 0.873278 -0.141559 0.466204
vn 0.000000 -0.367785 0.929911
vn 0.000000 -0.367785 0.929911
vn 0.000000 -0.367785 0.929911
vn 0.000000 -0.367785 0.929911
vn 0.062316 -0.289980 0.955002
vn 0.062316 -0.289980 0.955002
vn 0.062316 -0.289980 0.955002
vn 0.062316 -0.289980 0.955002
vn 0.000000 -0.211766 0.977320
vn 0.000000 -0.211766 0.977320
vn 0.000000 -0.211766 0.977320
vn 0.000000 -0.211766 0.977320
vn -0.062309 -0.289980 0.955002
vn -0.062309 -0.289980 0.955002
vn -0.062309 -0.289980 0.955002
vn -0.062309 -0.289980 0.955002
vn -0.000004 0.601848 0.798611
vn -0.000004 0.601848 0.798611
vn -0.000004 0.601848 0.798611
vn -0.000004 0.601848 0.798611
vn 0.000000 0.601834 0.798621
vn 0.000000 0.601834 0.798621
vn 0.000000 0.601834 0.798621
vn 0.000000 0.601834 0.798621
vn 0.000000 0.601847 0.798611
vn 0.000000 0.601847 0.798611
vn 0.000000 0.601847 0.798611
vn 0.000000 0.601847 0.798611
vn 0.000000 0.601842 0.798615
vn 0.000000 0.601842 0.798615
vn 0.000000 0.601842 0.798615
vn 0.000000 0.601842 0.798615
s off
f 9/15/1 10/16/2 4/4/3 3/3/4
f 25/40/5 26/43/6 15/25/7 16/26/8
f 5/5/9 6/6/10 11/17/11 12/20/12
f 20/33/13 21/35/14 22/36/15 19/30/16
f 37/62/17 38/63/18 39/64/19 40/65/20
f 26/42/21 12/19/22 9/15/23 15/24/24
f 9/15/25 13/21/26 10/16/27
f 23/38/28 24/39/29 17/28/30 18/29/31
f 12/20/32 11/17/33 14/22/34
f 1/1/35 2/2/36 13/21/37 9/15/38
f 32/54/39 31/55/40 33/50/41 34/51/42
f 12/20/43 14/22/44 8/8/45 7/7/46
f 9/15/47 12/19/48 21/34/49 20/32/50
f 3/3/51 4/4/52 16/26/53 15/25/54
f 10/16/55 17/28/56 16/27/57 4/4/58
f 13/21/59 18/29/60 17/28/61 10/16/62
f 2/2/63 19/31/64 18/29/65 13/21/66
f 20/33/67 19/30/68 2/10/69 1/9/70
f 9/15/71 20/32/72 1/1/73
f 15/24/74 9/15/75 3/3/76
f 7/7/77 8/8/78 22/36/79 21/35/80
f 23/38/81 22/37/82 8/11/83 14/23/84
f 24/39/85 23/38/86 14/23/87 11/18/88
f 25/41/89 24/39/90 11/18/91 6/12/92
f 26/43/93 25/40/94 6/6/95 5/5/96
f 12/19/97 26/42/98 5/14/99
f 7/13/100 21/34/101 12/19/102
f 19/31/103 22/37/104 27/45/105 28/44/106
f 22/37/107 23/38/108 29/46/109 27/45/110
f 23/38/111 18/29/112 30/47/113 29/46/114
f 18/29/115 19/31/116 28/44/117 30/47/118
f 31/55/119 35/56/120 33/50/121
f 35/56/122 36/57/123 34/51/124 33/50/125
f 36/57/126 32/54/127 34/51/128
f 28/48/129 27/49/130 31/55/131 32/54/132
f 27/49/133 29/52/134 35/56/135 31/55/136
f 29/52/137 30/53/138 36/57/139 35/56/140
f 30/53/141 28/48/142 32/54/143 36/57/144
f 24/39/145 25/41/146 38/59/147 37/58/148
f 25/41/149 16/27/150 39/60/151 38/59/152
f 16/27/153 17/28/154 40/61/155 39/60/156
f 17/28/157 24/39/158 37/58/159 40/61/160
