# This file uses meters as units for non-parametric coordinates.

v 1.423218 0.000002 1.423157
v 2.012695 0.000002 0.000000
v 1.423218 0.000002 -1.423096
v 0.000061 0.000002 -2.012573
v -1.423096 0.000002 -1.423096
v -2.012634 0.000002 0.000000
v -1.423096 0.000002 1.423157
v 0.000061 0.000002 2.012634
v 5.932434 20.903614 5.932373
v 8.389648 20.903614 -0.000061
v 5.932434 20.903614 -5.932312
v 0.000122 20.903614 -8.389526
v -5.932373 20.903614 -5.932312
v -8.389587 20.903614 -0.000061
v -5.932373 20.903614 5.932373
v 0.000122 20.903614 8.389526
v 0.000061 0.000002 0.000000
v -7.886475 20.247887 -0.000061
v -5.576599 20.247887 5.576660
v 0.000122 20.247887 7.886475
v 5.576660 20.247887 5.576660
v 7.886597 20.247887 -0.000061
v 5.576660 20.247887 -5.576538
v 0.000122 20.247887 -7.886414
v -5.576599 20.247887 -5.576538
v -2.012634 14.783392 0.000000
v -1.423096 14.783392 1.423157
v 0.000061 14.783392 2.012634
v 1.423218 14.783392 1.423157
v 2.012695 14.783392 0.000000
v 1.423218 14.783392 -1.423096
v 0.000061 14.783392 -2.012573
v -1.423096 14.783392 -1.423096
v -1.538147 15.443234 0.000000
v -1.087646 15.443234 1.087708
v -1.087646 21.497446 1.087708
v -1.538147 21.497446 0.000000
v 0.000061 15.443234 1.538269
v 0.000061 21.497446 1.538269
v 1.087708 15.443234 1.087708
v 1.087708 21.497446 1.087708
v 1.538208 15.443234 0.000000
v 1.538208 21.497446 0.000000
v 1.087708 15.443234 -1.087646
v 1.087708 21.497446 -1.087646
v 0.000061 15.443234 -1.538147
v 0.000061 21.497446 -1.538147
v -1.087646 15.443234 -1.087646
v -1.087646 21.497446 -1.087646
v 2.423401 23.167070 2.423340
v 3.427185 23.167070 0.000000
v 0.000061 23.167070 0.000000
v 2.423401 23.167070 -2.423340
v 0.000122 23.167070 -3.427124
v -2.423340 23.167070 -2.423340
v -3.427124 23.167070 0.000000
v -2.423340 23.167070 2.423340
v 0.000122 23.167070 3.427124
vt 0.133051 0.229841
vt 0.133051 0.229841
vt 0.133051 0.229841
vt 0.133051 0.229841
vt 0.133051 0.229841
vt 0.133051 0.229841
vt 0.133051 0.229841
vt 0.133051 0.229841
vt 0.133051 0.229841
vt 0.133051 0.229841
vt 0.133051 0.229841
vt 0.133051 0.229841
vt 0.133051 0.229841
vt 0.133051 0.229841
vt 0.133051 0.229841
vt 0.133051 0.229841
vt 0.133051 0.229841
vt 0.133051 0.229841
vt 0.133051 0.229841
vt 0.133051 0.229841
vt 0.133051 0.229841
vt 0.133051 0.229841
vt 0.133051 0.229841
vt 0.133051 0.229841
vt 0.133051 0.229841
vt 0.133051 0.229841
vt 0.133051 0.229841
vt 0.133051 0.229841
vt 0.133051 0.229841
vt 0.133051 0.229841
vt 0.133051 0.229841
vt 0.133051 0.229841
vt 0.133051 0.229841
vt 0.133051 0.229841
vt 0.133051 0.229841
vt 0.133051 0.229841
vt 0.133051 0.229841
vt 0.133051 0.229841
vt 0.133051 0.229841
vt 0.133051 0.229841
vt 0.133051 0.229841
vt 0.133051 0.229841
vt 0.133051 0.229841
vt 0.133051 0.229841
vt 0.133051 0.229841
vt 0.133051 0.229841
vt 0.133051 0.229841
vt 0.133051 0.229841
vt 0.133051 0.229841
vt 0.133051 0.229841
vt 0.133051 0.229841
vt 0.133051 0.229841
vt 0.133051 0.229841
vt 0.133051 0.229841
vt 0.133051 0.229841
vt 0.133051 0.229841
vt 0.133051 0.229841
vt 0.133051 0.229841
vt 0.133051 0.229841
vt 0.133051 0.229841
vt 0.133051 0.229841
vt 0.133051 0.229841
vt 0.133051 0.229841
vt 0.133051 0.229841
vt 0.133051 0.229841
vt 0.133051 0.229841
vt 0.133051 0.229841
vt 0.133051 0.229841
vt 0.133051 0.229841
vt 0.133051 0.229841
vt 0.133051 0.229841
vt 0.133051 0.229841
vt 0.552248 0.039453
vt 0.552248 0.039453
vt 0.552248 0.039453
vt 0.552248 0.039453
vt 0.552248 0.039453
vt 0.552248 0.039453
vt 0.552248 0.039453
vt 0.552248 0.039453
vt 0.552248 0.039453
vt 0.552248 0.039453
vt 0.552248 0.039453
vt 0.552248 0.039453
vt 0.552248 0.039453
vt 0.552248 0.039453
vt 0.552248 0.039453
vt 0.552248 0.039453
vt 0.133051 0.229841
vt 0.133051 0.229841
vt 0.133051 0.229841
vt 0.133051 0.229841
vt 0.133051 0.229841
vt 0.133051 0.229841
vt 0.133051 0.229841
vt 0.133051 0.229841
vn 0.753740 -0.578278 0.312204
vn 0.753740 -0.578278 0.312204
vn 0.753740 -0.578278 0.312204
vn 0.753740 -0.578278 0.312204
vn 0.753729 -0.578288 -0.312211
vn 0.753729 -0.578288 -0.312211
vn 0.753729 -0.578288 -0.312211
vn 0.753729 -0.578288 -0.312211
vn 0.312198 -0.578311 -0.753717
vn 0.312198 -0.578311 -0.753717
vn 0.312198 -0.578311 -0.753717
vn 0.312198 -0.578311 -0.753717
vn -0.312189 -0.578311 -0.753721
vn -0.312189 -0.578311 -0.753721
vn -0.312189 -0.578311 -0.753721
vn -0.312189 -0.578311 -0.753721
vn -0.753715 -0.578311 -0.312201
vn -0.753715 -0.578311 -0.312201
vn -0.753715 -0.578311 -0.312201
vn -0.753715 -0.578311 -0.312201
vn -0.753726 -0.578302 0.312194
vn -0.753726 -0.578302 0.312194
vn -0.753726 -0.578301 0.312194
vn -0.753726 -0.578302 0.312194
vn -0.312195 -0.578264 0.753754
vn -0.312195 -0.578264 0.753754
vn -0.312195 -0.578264 0.753754
vn -0.312195 -0.578264 0.753754
vn 0.312203 -0.578264 0.753751
vn 0.312203 -0.578264 0.753751
vn 0.312203 -0.578264 0.753751
vn 0.312203 -0.578264 0.753751
vn 0.000000 -1.000000 0.000000
vn 0.000000 -1.000000 0.000000
vn 0.000000 -1.000000 0.000000
vn 0.000000 -1.000000 0.000000
vn 0.000000 -1.000000 0.000000
vn 0.000000 -1.000000 0.000000
vn 0.000000 -1.000000 0.000000
vn 0.000000 -1.000000 0.000000
vn 0.000000 -1.000000 0.000000
vn 0.000000 -1.000000 0.000000
vn 0.000000 -1.000000 0.000000
vn 0.000000 -1.000000 0.000000
vn 0.000000 -1.000000 0.000000
vn 0.000000 -1.000000 0.000000
vn 0.000000 -1.000000 0.000000
vn 0.000000 -1.000000 0.000000
vn 0.000000 -1.000000 0.000000
vn 0.000000 -1.000000 0.000000
vn 0.000000 -1.000000 0.000000
vn 0.000000 -1.000000 0.000000
vn 0.000000 -1.000000 0.000000
vn 0.000000 -1.000000 0.000000
vn 0.000000 -1.000000 0.000000
vn 0.000000 -1.000000 0.000000
vn 0.000000 1.000000 0.000000
vn 0.000000 1.000000 0.000000
vn 0.000000 1.000000 0.000000
vn 0.000000 1.000000 0.000000
vn 0.000000 1.000000 0.000000
vn 0.000000 1.000000 0.000000
vn 0.000000 1.000000 0.000000
vn 0.000000 1.000000 0.000000
vn 0.000000 1.000000 0.000000
vn 0.000000 1.000000 0.000000
vn 0.000000 1.000000 0.000000
vn 0.000000 1.000000 0.000000
vn 0.000000 1.000000 0.000000
vn 0.000000 1.000000 0.000000
vn 0.000000 1.000000 0.000000
vn 0.000000 1.000000 0.000000
vn 0.000000 1.000000 0.000000
vn 0.000000 1.000000 0.000000
vn 0.000000 1.000000 0.000000
vn 0.000000 1.000000 0.000000
vn 0.000000 1.000000 0.000000
vn 0.000000 1.000000 0.000000
vn 0.000000 1.000000 0.000000
vn 0.000000 1.000000 0.000000
vn -0.923892 0.000000 0.382652
vn -0.923892 0.000000 0.382652
vn -0.923892 0.000000 0.382652
vn -0.923892 0.000000 0.382652
vn -0.382697 0.000000 0.923874
vn -0.382697 0.000000 0.923874
vn -0.382697 0.000000 0.923874
vn -0.382697 0.000000 0.923874
vn 0.382715 0.000000 0.923866
vn 0.382715 0.000000 0.923866
vn 0.382715 0.000000 0.923866
vn 0.382715 0.000000 0.923866
vn 0.923892 0.000000 0.382652
vn 0.923892 0.000000 0.382652
vn 0.923892 0.000000 0.382652
vn 0.923892 0.000000 0.382652
vn 0.923885 0.000000 -0.382671
vn 0.923885 0.000000 -0.382671
vn 0.923885 0.000000 -0.382671
vn 0.923885 0.000000 -0.382671
vn 0.382671 0.000000 -0.923885
vn 0.382671 0.000000 -0.923885
vn 0.382671 0.000000 -0.923885
vn 0.382671 0.000000 -0.923885
vn -0.382652 0.000000 -0.923892
vn -0.382652 0.000000 -0.923892
vn -0.382652 0.000000 -0.923892
vn -0.382652 0.000000 -0.923892
vn -0.923885 0.000000 -0.382671
vn -0.923885 0.000000 -0.382671
vn -0.923885 0.000000 -0.382671
vn -0.923885 0.000000 -0.382671
vn -0.923869 0.000000 0.382710
vn -0.923869 0.000000 0.382710
vn -0.923869 0.000000 0.382710
vn -0.923869 0.000000 0.382710
vn -0.382676 0.000000 0.923883
vn -0.382676 0.000000 0.923883
vn -0.382676 0.000000 0.923883
vn -0.382676 0.000000 0.923883
vn 0.382676 0.000000 0.923883
vn 0.382676 0.000000 0.923883
vn 0.382676 0.000000 0.923883
vn 0.382676 0.000000 0.923883
vn 0.923883 0.000000 0.382676
vn 0.923883 0.000000 0.382676
vn 0.923883 0.000000 0.382676
vn 0.923883 0.000000 0.382676
vn 0.923877 0.000000 -0.382690
vn 0.923877 0.000000 -0.382690
vn 0.923877 0.000000 -0.382690
vn 0.923877 0.000000 -0.382690
vn 0.382676 0.000000 -0.923883
vn 0.382676 0.000000 -0.923883
vn 0.382676 0.000000 -0.923883
vn 0.382676 0.000000 -0.923883
vn -0.382676 0.000000 -0.923883
vn -0.382676 0.000000 -0.923883
vn -0.382676 0.000000 -0.923883
vn -0.382676 0.000000 -0.923883
vn -0.923863 0.000000 -0.382724
vn -0.923863 0.000000 -0.382724
vn -0.923863 0.000000 -0.382724
vn -0.923863 0.000000 -0.382724
vn -0.769557 0.553329 0.318762
vn -0.769557 0.553329 0.318762
vn -0.769557 0.553329 0.318762
vn -0.769557 0.553329 0.318762
vn 0.192514 -0.978049 -0.079738
vn 0.192514 -0.978049 -0.079738
vn 0.192514 -0.978049 -0.079738
vn 0.192514 -0.978049 -0.079738
vn -0.318775 0.553280 0.769587
vn -0.318775 0.553280 0.769587
vn -0.318775 0.553280 0.769587
vn -0.318775 0.553280 0.769587
vn 0.079739 -0.978049 -0.192515
vn 0.079739 -0.978049 -0.192515
vn 0.079739 -0.978049 -0.192515
vn 0.079739 -0.978049 -0.192515
vn 0.318779 0.553290 0.769578
vn 0.318779 0.553290 0.769578
vn 0.318779 0.553290 0.769578
vn 0.318779 0.553290 0.769578
vn -0.079741 -0.978049 -0.192513
vn -0.079741 -0.978049 -0.192513
vn -0.079741 -0.978049 -0.192513
vn -0.079741 -0.978049 -0.192513
vn 0.769548 0.553354 0.318740
vn 0.769548 0.553354 0.318740
vn 0.769548 0.553354 0.318740
vn 0.769548 0.553354 0.318740
vn -0.192512 -0.978049 -0.079740
vn -0.192512 -0.978049 -0.079740
vn -0.192512 -0.978049 -0.079740
vn -0.192512 -0.978049 -0.079740
vn 0.769542 0.553354 -0.318754
vn 0.769542 0.553354 -0.318754
vn 0.769542 0.553354 -0.318754
vn 0.769542 0.553354 -0.318754
vn -0.192511 -0.978050 0.079743
vn -0.192511 -0.978049 0.079743
vn -0.192511 -0.978050 0.079743
vn -0.192511 -0.978049 0.079743
vn 0.318756 0.553315 -0.769569
vn 0.318756 0.553315 -0.769570
vn 0.318756 0.553315 -0.769569
vn 0.318756 0.553315 -0.769569
vn -0.079741 -0.978049 0.192513
vn -0.079741 -0.978049 0.192513
vn -0.079741 -0.978049 0.192513
vn -0.079741 -0.978049 0.192513
vn -0.318752 0.553304 -0.769579
vn -0.318752 0.553304 -0.769579
vn -0.318752 0.553304 -0.769579
vn -0.318752 0.553304 -0.769579
vn 0.079739 -0.978049 0.192515
vn 0.079739 -0.978049 0.192515
vn 0.079739 -0.978049 0.192515
vn 0.079739 -0.978049 0.192515
vn -0.769551 0.553329 -0.318776
vn -0.769551 0.553329 -0.318776
vn -0.769551 0.553329 -0.318776
vn -0.769551 0.553329 -0.318776
vn 0.192512 -0.978049 0.079742
vn 0.192512 -0.978049 0.079742
vn 0.192512 -0.978049 0.079742
vn 0.192512 -0.978049 0.079742
vn 0.408988 0.896678 0.169405
vn 0.408988 0.896677 0.169405
vn 0.408988 0.896678 0.169405
vn 0.408988 0.896677 0.169405
vn 0.408986 0.896678 -0.169408
vn 0.408986 0.896678 -0.169408
vn 0.408986 0.896678 -0.169408
vn 0.408986 0.896678 -0.169408
vn 0.169409 0.896676 -0.408991
vn 0.169409 0.896676 -0.408991
vn 0.169409 0.896676 -0.408991
vn 0.169409 0.896676 -0.408991
vn -0.169403 0.896676 -0.408993
vn -0.169403 0.896676 -0.408993
vn -0.169403 0.896676 -0.408993
vn -0.169403 0.896676 -0.408993
vn -0.408986 0.896678 -0.169408
vn -0.408986 0.896678 -0.169408
vn -0.408986 0.896678 -0.169408
vn -0.408986 0.896678 -0.169408
vn -0.408988 0.896677 0.169405
vn -0.408988 0.896677 0.169405
vn -0.408988 0.896678 0.169405
vn -0.408988 0.896677 0.169405
vn -0.169399 0.896677 0.408992
vn -0.169400 0.896677 0.408992
vn -0.169400 0.896677 0.408992
vn -0.169400 0.896677 0.408992
vn 0.169406 0.896677 0.408990
vn 0.169406 0.896677 0.408990
vn 0.169406 0.896677 0.408990
vn 0.169406 0.896677 0.408990
s off
f 21/41/1 22/42/2 10/19/3 9/18/4
f 22/42/5 23/43/6 11/20/7 10/19/8
f 23/43/9 24/44/10 12/21/11 11/20/12
f 24/44/13 25/45/14 13/22/15 12/21/16
f 25/45/17 18/37/18 14/23/19 13/22/20
f 18/37/21 19/38/22 15/24/23 14/23/24
f 19/38/25 20/39/26 16/25/27 15/24/28
f 20/39/29 21/40/30 9/26/31 16/25/32
f 2/2/33 1/1/34 17/35/35
f 3/3/36 2/2/37 17/35/38
f 4/4/39 3/3/40 17/35/41
f 5/5/42 4/4/43 17/35/44
f 6/6/45 5/5/46 17/35/47
f 7/7/48 6/6/49 17/35/50
f 8/8/51 7/7/52 17/35/53
f 1/1/54 8/8/55 17/35/56
f 50/89/57 51/90/58 52/36/59
f 51/90/60 53/91/61 52/36/62
f 53/91/63 54/92/64 52/36/65
f 54/92/66 55/93/67 52/36/68
f 55/93/69 56/94/70 52/36/71
f 56/94/72 57/95/73 52/36/74
f 57/95/75 58/96/76 52/36/77
f 58/96/78 50/89/79 52/36/80
f 34/73/81 35/74/82 36/75/83 37/76/84
f 35/74/85 38/77/86 39/78/87 36/75/88
f 38/77/89 40/79/90 41/80/91 39/78/92
f 40/79/93 42/81/94 43/82/95 41/80/96
f 42/81/97 44/83/98 45/84/99 43/82/100
f 44/83/101 46/85/102 47/86/103 45/84/104
f 46/85/105 48/87/106 49/88/107 47/86/108
f 48/87/109 34/73/110 37/76/111 49/88/112
f 6/14/113 7/15/114 27/47/115 26/46/116
f 7/15/117 8/16/118 28/48/119 27/47/120
f 8/16/121 1/17/122 29/49/123 28/48/124
f 1/9/125 2/10/126 30/51/127 29/50/128
f 2/10/129 3/11/130 31/52/131 30/51/132
f 3/11/133 4/12/134 32/53/135 31/52/136
f 4/12/137 5/13/138 33/54/139 32/53/140
f 5/13/141 6/14/142 26/46/143 33/54/144
f 26/46/145 27/47/146 35/56/147 34/55/148
f 19/38/149 18/37/150 37/58/151 36/57/152
f 27/47/153 28/48/154 38/59/155 35/56/156
f 20/39/157 19/38/158 36/57/159 39/60/160
f 28/48/161 29/49/162 40/61/163 38/59/164
f 21/40/165 20/39/166 39/60/167 41/62/168
f 29/50/169 30/51/170 42/64/171 40/63/172
f 22/42/173 21/41/174 41/66/175 43/65/176
f 30/51/177 31/52/178 44/67/179 42/64/180
f 23/43/181 22/42/182 43/65/183 45/68/184
f 31/52/185 32/53/186 46/69/187 44/67/188
f 24/44/189 23/43/190 45/68/191 47/70/192
f 32/53/193 33/54/194 48/71/195 46/69/196
f 25/45/197 24/44/198 47/70/199 49/72/200
f 33/54/201 26/46/202 34/55/203 48/71/204
f 18/37/205 25/45/206 49/72/207 37/58/208
f 9/33/209 10/32/210 51/90/211 50/89/212
f 10/32/213 11/31/214 53/91/215 51/90/216
f 11/31/217 12/30/218 54/92/219 53/91/220
f 12/30/221 13/29/222 55/93/223 54/92/224
f 13/29/225 14/28/226 56/94/227 55/93/228
f 14/28/229 15/27/230 57/95/231 56/94/232
f 15/27/233 16/34/234 58/96/235 57/95/236
f 16/34/237 9/33/238 50/89/239 58/96/240
