# This file uses meters as units for non-parametric coordinates.

v -24.461548 0.531668 -24.324097
v -25.000000 0.000000 25.000122
v -25.000000 46.508095 -24.999878
v -23.734009 44.543301 23.974243
v 24.406616 45.395164 -24.277222
v 25.000000 46.508095 25.000122
v 25.000000 0.000000 -24.999878
v 25.000000 0.000000 25.000122
v 25.000000 0.000000 4.918335
v -25.000000 0.000000 4.918335
v 25.000000 0.000000 -4.918335
v -25.000000 0.000000 -4.918335
v 25.000000 11.161942 4.918579
v 25.000000 11.161942 -4.918335
v -25.000000 7.441295 -4.918335
v -25.000000 7.441295 4.918579
v -25.000000 46.508095 10.512085
v 7.667480 46.508095 25.000122
v -14.072388 42.526081 25.000122
v -21.567871 42.180634 25.000122
v -25.000000 36.323917 25.000122
v -17.510315 45.356613 24.479858
v 25.000000 46.508095 -18.074585
v 19.777893 46.508095 -24.999878
v 25.000000 42.392921 -24.999878
v -18.097046 0.000000 -24.999878
v -25.000000 0.000000 -19.339722
v -25.000000 5.637027 -24.999878
v 7.027893 46.472057 23.319702
v -16.049622 45.388378 22.842896
v -21.754150 44.579323 22.379272
v -22.914490 46.472057 10.040405
v 22.914490 46.472057 23.319702
v 22.818909 46.486679 -16.939331
v 18.052368 46.486679 -23.260376
v -22.818909 46.486679 -23.260376
v 22.277283 45.416595 -22.600708
v -16.049622 4.450317 22.842896
v 7.027893 5.195045 23.319702
v -21.754150 4.403395 22.379272
v -22.914490 5.195045 10.040405
v 22.818909 5.209664 -16.939331
v 22.914490 5.195045 23.319702
v -22.818909 5.209664 -23.260376
v 18.052368 5.209664 -23.260376
v 22.277283 4.761445 -22.600708
vt 0.050778 0.330468
vt 0.050778 0.330468
vt 0.050778 0.330468
vt 0.050778 0.330468
vt 0.050778 0.330468
vt 0.050778 0.330468
vt 0.050778 0.330468
vt 0.050778 0.330468
vt 0.050778 0.330468
vt 0.050778 0.330468
vt 0.050778 0.330468
vt 0.050778 0.330468
vt 0.050778 0.330468
vt 0.050778 0.330468
vt 0.050778 0.330468
vt 0.050778 0.330468
vt 0.050778 0.330468
vt 0.050778 0.330468
vt 0.050778 0.330468
vt 0.050778 0.330468
vt 0.050778 0.330468
vt 0.050778 0.330468
vt 0.050778 0.330468
vt 0.050778 0.330468
vt 0.049561 0.379112
vt 0.049561 0.379112
vt 0.049561 0.379112
vt 0.049561 0.379112
vt 0.049561 0.379112
vt 0.049561 0.379112
vt 0.049561 0.379112
vt 0.049561 0.379112
vt 0.050778 0.330468
vt 0.050778 0.330468
vt 0.050778 0.330468
vt 0.050778 0.330468
vt 0.050778 0.330468
vt 0.050778 0.330468
vt 0.050778 0.330468
vt 0.050778 0.330468
vt 0.050778 0.330468
vt 0.050778 0.330468
vt 0.050778 0.330468
vt 0.050778 0.330468
vt 0.050778 0.330468
vt 0.050778 0.330468
vt 0.050778 0.330468
vt 0.050778 0.330468
vt 0.050778 0.330468
vt 0.050778 0.330468
vt 0.050778 0.330468
vt 0.050778 0.330468
vt 0.050778 0.330468
vt 0.050778 0.330468
vt 0.050778 0.330468
vt 0.050778 0.330468
vt 0.050778 0.330468
vt 0.050778 0.330468
vt 0.050778 0.330468
vt 0.048340 0.328415
vt 0.048340 0.328415
vt 0.048340 0.328400
vt 0.048340 0.328400
vt 0.048340 0.328415
vt 0.048340 0.328400
vt 0.048340 0.328415
vt 0.048340 0.328400
vt 0.048340 0.328415
vt 0.048340 0.328415
vt 0.048340 0.328400
vt 0.048340 0.328400
vt 0.048340 0.328415
vt 0.048340 0.328415
vt 0.048340 0.328400
vt 0.048340 0.328400
vt 0.048340 0.328415
vt 0.048340 0.328400
vn 0.000000 -1.000000 0.000000
vn 0.000000 -1.000000 0.000000
vn 0.000000 -1.000000 0.000000
vn 0.000000 -1.000000 0.000000
vn 1.000000 0.000000 0.000000
vn 1.000000 0.000000 0.000000
vn 1.000000 0.000000 0.000000
vn 1.000000 0.000000 0.000000
vn 0.000000 -1.000000 0.000000
vn 0.000000 -1.000000 0.000000
vn 0.000000 -1.000000 0.000000
vn 0.000000 -1.000000 0.000000
vn -0.985618 -0.119736 -0.119246
vn -0.985618 -0.119736 -0.119246
vn -0.985618 -0.119736 -0.119246
vn -0.094883 -0.988740 -0.115716
vn -0.094883 -0.988740 -0.115716
vn -0.094883 -0.988740 -0.115716
vn 1.000000 0.000000 0.000000
vn 1.000000 0.000000 0.000000
vn 1.000000 0.000000 0.000000
vn 1.000000 0.000000 0.000000
vn 1.000000 0.000000 0.000000
vn 1.000000 0.000000 0.000000
vn 1.000000 0.000000 0.000000
vn 1.000000 0.000000 0.000000
vn 1.000000 0.000000 0.000000
vn -1.000000 0.000000 0.000000
vn -1.000000 0.000000 0.000000
vn -1.000000 0.000000 0.000000
vn -1.000000 0.000000 0.000000
vn -1.000000 0.000000 0.000000
vn -1.000000 0.000000 0.000000
vn -1.000000 0.000000 0.000000
vn -1.000000 0.000000 0.000000
vn -1.000000 0.000000 0.000000
vn 0.000000 0.000000 1.000000
vn 0.000000 0.000000 1.000000
vn 0.000000 0.000000 1.000000
vn 0.000000 0.000000 1.000000
vn -0.116264 -0.142374 -0.982961
vn -0.116264 -0.142374 -0.982961
vn -0.116264 -0.142374 -0.982961
vn -0.027224 0.148628 0.988518
vn -0.027224 0.148628 0.988518
vn -0.027224 0.148628 0.988518
vn -0.273970 0.160550 0.948243
vn -0.273970 0.160550 0.948243
vn -0.273970 0.160550 0.948243
vn -0.979361 0.165354 0.116233
vn -0.979361 0.165354 0.116233
vn -0.979361 0.165354 0.116233
vn -0.055213 0.229713 0.971691
vn -0.055213 0.229713 0.971691
vn -0.055213 0.229713 0.971691
vn -0.055213 0.229713 0.971691
vn 0.211192 0.268001 -0.939986
vn 0.211192 0.268001 -0.939986
vn 0.211192 0.268001 -0.939986
vn 0.965846 0.222758 -0.132368
vn 0.965846 0.222758 -0.132368
vn 0.965846 0.222758 -0.132368
vn 0.000000 -1.000000 0.000000
vn 0.000000 -1.000000 0.000000
vn 0.000000 -1.000000 0.000000
vn 0.000000 -1.000000 0.000000
vn 0.000000 -1.000000 0.000000
vn 0.000000 0.000000 -1.000000
vn 0.000000 0.000000 -1.000000
vn 0.000000 0.000000 -1.000000
vn 0.000000 0.000000 -1.000000
vn -1.000000 0.000000 0.000000
vn -1.000000 0.000000 0.000000
vn -1.000000 0.000000 0.000000
vn -1.000000 0.000000 0.000000
vn -1.000000 0.000000 0.000000
vn -1.000000 0.000000 0.000000
vn -1.000000 0.000000 0.000000
vn -1.000000 0.000000 0.000000
vn -1.000000 0.000000 0.000000
vn 1.000000 0.000000 0.000000
vn 1.000000 0.000000 0.000000
vn 1.000000 0.000000 0.000000
vn 1.000000 0.000000 0.000000
vn -0.046005 0.998861 -0.012673
vn -0.046005 0.998861 -0.012673
vn -0.046005 0.998861 -0.012673
vn -0.046005 0.998861 -0.012673
vn -0.124949 0.985783 -0.112341
vn -0.124949 0.985783 -0.112341
vn -0.124949 0.985783 -0.112341
vn -0.124949 0.985783 -0.112341
vn 0.071629 0.987430 0.140895
vn 0.071629 0.987430 0.140895
vn 0.071629 0.987430 0.140895
vn 0.071629 0.987430 0.140895
vn -0.013489 0.999909 0.000191
vn -0.013489 0.999909 0.000191
vn -0.013489 0.999909 0.000191
vn -0.013489 0.999909 0.000191
vn 0.000000 0.999770 -0.021442
vn 0.000000 0.999770 -0.021442
vn 0.000000 0.999770 -0.021442
vn 0.000000 0.999770 -0.021442
vn 0.000000 0.999924 0.012309
vn 0.000000 0.999924 0.012309
vn 0.000000 0.999924 0.012309
vn 0.000000 0.999924 0.012309
vn 0.013396 0.999910 0.000231
vn 0.013396 0.999910 0.000231
vn 0.013396 0.999910 0.000231
vn 0.013396 0.999910 0.000231
vn -0.110634 0.979282 -0.169607
vn -0.110634 0.979282 -0.169607
vn -0.110634 0.979282 -0.169607
vn -0.110634 0.979282 -0.169607
vn 0.199885 0.953503 0.225561
vn 0.199885 0.953503 0.225561
vn 0.199885 0.953503 0.225561
vn 0.199885 0.953503 0.225561
vn 0.020657 0.000000 -0.999787
vn 0.020657 0.000000 -0.999787
vn 0.020657 0.000000 -0.999787
vn 0.020657 0.000000 -0.999787
vn 0.081006 0.000000 -0.996714
vn 0.081006 0.000000 -0.996714
vn 0.081006 0.000000 -0.996714
vn 0.081006 0.000000 -0.996714
vn 0.995607 0.000000 -0.093626
vn 0.995607 0.000000 -0.093626
vn 0.995607 0.000000 -0.093626
vn 0.995607 0.000000 -0.093626
vn -0.999997 0.000000 0.002374
vn -0.999997 0.000000 0.002374
vn -0.999997 0.000000 0.002374
vn -0.999997 0.000000 0.002374
vn 0.000000 0.000000 -1.000000
vn 0.000000 0.000000 -1.000000
vn 0.000000 0.000000 -1.000000
vn 0.000000 0.000000 -1.000000
vn 0.000000 0.000000 1.000000
vn 0.000000 0.000000 1.000000
vn 0.000000 0.000000 1.000000
vn 0.000000 0.000000 1.000000
vn 0.999996 0.000000 0.002870
vn 0.999996 0.000000 0.002870
vn 0.999996 0.000000 0.002870
vn 0.999996 0.000000 0.002870
vn -0.995455 0.000000 0.095236
vn -0.995455 0.000000 0.095236
vn -0.995455 0.000000 0.095236
vn -0.995455 0.000000 0.095236
vn -0.154268 0.000000 0.988029
vn -0.154268 0.000000 0.988029
vn -0.154268 0.000000 0.988029
vn -0.154268 0.000000 0.988029
vn -0.003417 0.999948 0.009620
vn -0.003417 0.999948 0.009620
vn -0.003417 0.999948 0.009620
vn -0.003417 0.999948 0.009620
vn -0.003417 0.999948 0.009620
vn -0.003417 0.999948 0.009620
vn -0.013513 0.997775 0.065287
vn -0.013513 0.997775 0.065287
vn -0.013513 0.997775 0.065287
vn 0.000000 1.000000 0.000363
vn 0.000000 1.000000 0.000363
vn 0.000000 1.000000 0.000363
vn 0.000000 1.000000 0.000439
vn 0.000000 1.000000 0.000439
vn 0.000000 1.000000 0.000439
vn 0.000000 0.000000 1.000000
vn 0.000000 0.000000 1.000000
vn 0.000000 0.000000 1.000000
vn 0.000000 0.000000 1.000000
vn 0.000000 0.000000 1.000000
vn 0.000000 0.000000 1.000000
vn 0.000000 0.000000 1.000000
vn 0.000000 0.000000 -1.000000
vn 0.000000 0.000000 -1.000000
vn 0.000000 0.000000 -1.000000
vn 0.000000 0.000000 -1.000000
s off
f 9/25/1 10/26/2 12/27/3 11/28/4
f 9/15/5 13/21/6 6/6/7 8/8/8
f 10/17/9 9/15/10 8/8/11 2/10/12
f 1/1/13 27/48/14 28/50/15
f 26/47/16 27/49/17 1/9/18
f 6/6/19 13/21/20 14/22/21 25/45/22 23/41/23
f 14/29/24 13/30/25 9/25/26 11/28/27
f 17/33/28 3/3/29 15/23/30 16/24/31 21/38/32
f 10/26/33 16/31/34 15/32/35 12/27/36
f 19/36/37 8/11/38 6/12/39 18/35/40
f 1/1/41 28/50/42 26/46/43
f 19/36/44 18/35/45 22/40/46
f 4/4/47 21/38/48 20/37/49
f 17/33/50 21/38/51 4/4/52
f 19/36/53 22/40/54 4/4/55 20/37/56
f 5/14/57 25/44/58 24/42/59
f 5/5/60 23/41/61 25/45/62
f 7/7/63 11/18/64 12/20/65 27/49/66 26/47/67
f 26/46/68 28/50/69 3/3/70 24/42/71
f 28/50/72 27/48/73 12/19/74 15/23/75 3/3/76
f 21/38/77 16/24/78 10/16/79 2/2/80
f 25/45/81 14/22/82 11/18/83 7/7/84
f 22/39/85 18/34/86 29/52/87 30/51/88
f 4/4/89 22/39/90 30/51/91 31/53/92
f 17/33/93 4/4/94 31/53/95 32/54/96
f 34/56/97 33/55/98 6/6/99 23/41/100
f 18/34/101 6/6/102 33/55/103 29/52/104
f 24/43/105 3/3/106 36/58/107 35/57/108
f 32/54/109 36/58/110 3/3/111 17/33/112
f 23/41/113 5/5/114 37/59/115 34/56/116
f 5/5/117 24/43/118 35/57/119 37/59/120
f 30/60/121 29/61/122 39/62/123 38/63/124
f 31/64/125 30/60/126 38/63/127 40/65/128
f 32/66/129 31/64/130 40/65/131 41/67/132
f 33/68/133 34/69/134 42/70/135 43/71/136
f 29/61/137 33/68/138 43/71/139 39/62/140
f 35/72/141 36/73/142 44/74/143 45/75/144
f 36/73/145 32/66/146 41/67/147 44/74/148
f 34/69/149 37/76/150 46/77/151 42/70/152
f 37/76/153 35/72/154 45/75/155 46/77/156
f 39/62/157 42/70/158 46/77/159 45/75/160 41/67/161 38/63/162
f 38/63/163 41/67/164 40/65/165
f 39/62/166 43/71/167 42/70/168
f 41/67/169 45/75/170 44/74/171
f 19/36/172 2/2/173 8/11/174
f 20/37/175 21/38/176 2/2/177 19/36/178
f 26/46/179 24/42/180 25/44/181 7/13/182
