# This file uses meters as units for non-parametric coordinates.

v -50.000000 0.000000 -49.999878
v -50.000000 0.000000 50.000122
v -65.546753 50.588623 -65.546753
v -65.546753 50.588623 65.546753
v 65.546753 50.588623 -65.546753
v 65.546753 50.588623 65.546753
v 50.000122 0.000000 -49.999878
v 50.000122 0.000000 50.000122
v -50.000000 19.275604 -50.000122
v -50.000000 19.275604 50.000122
v 50.000122 19.275604 50.000122
v 50.000122 19.275604 -50.000122
v 65.546753 32.121765 65.546753
v -65.546753 32.121765 65.546753
v -65.546753 32.121765 -65.546753
v 65.546753 32.121765 -65.546753
v -53.631958 56.249023 -53.631958
v -53.631958 56.249023 53.631958
v 53.631958 56.249023 53.631958
v 53.631958 56.249023 -53.631958
vt 0.112753 0.351988
vt 0.112753 0.351988
vt 0.112753 0.351988
vt 0.112753 0.351988
vt 0.112753 0.351988
vt 0.112753 0.351988
vt 0.112753 0.351988
vt 0.112753 0.351988
vt 0.112753 0.351988
vt 0.112753 0.351988
vt 0.112753 0.351988
vt 0.112753 0.351988
vt 0.112753 0.351988
vt 0.112753 0.351988
vt 0.112753 0.351988
vt 0.112753 0.351988
vt 0.112753 0.351988
vt 0.112753 0.351988
vt 0.112753 0.351988
vt 0.112753 0.351988
vt 0.112753 0.351988
vt 0.112753 0.351988
vt 0.112753 0.351988
vt 0.112753 0.351988
vt 0.112753 0.351988
vt 0.112753 0.351988
vt 0.112753 0.351988
vt 0.112753 0.351988
vt 0.112753 0.351988
vt 0.112753 0.351988
vn -0.636975 -0.770884 0.000000
vn -0.636975 -0.770884 0.000000
vn -0.636975 -0.770884 0.000000
vn -0.636975 -0.770884 0.000000
vn 0.000000 1.000000 0.000000
vn 0.000000 1.000000 0.000000
vn 0.000000 1.000000 0.000000
vn 0.000000 1.000000 0.000000
vn 0.636978 -0.770882 0.000000
vn 0.636978 -0.770882 0.000000
vn 0.636978 -0.770882 0.000000
vn 0.636978 -0.770882 0.000000
vn 0.000000 -1.000000 0.000000
vn 0.000000 -1.000000 0.000000
vn 0.000000 -1.000000 0.000000
vn 0.000000 -1.000000 0.000000
vn 0.000000 -0.770882 0.636978
vn 0.000000 -0.770882 0.636978
vn 0.000000 -0.770882 0.636978
vn 0.000000 -0.770882 0.636978
vn 0.000000 -0.770882 -0.636978
vn 0.000000 -0.770882 -0.636978
vn 0.000000 -0.770882 -0.636979
vn 0.000000 -0.770882 -0.636978
vn -1.000000 0.000000 0.000000
vn -1.000000 0.000000 0.000000
vn -1.000000 0.000000 0.000000
vn -1.000000 0.000000 0.000000
vn 0.000000 0.000000 1.000000
vn 0.000000 0.000000 1.000000
vn 0.000000 0.000000 1.000000
vn 0.000000 0.000000 1.000000
vn 1.000000 0.000000 0.000000
vn 1.000000 0.000000 0.000000
vn 1.000000 0.000000 0.000000
vn 1.000000 0.000000 0.000000
vn 0.000000 -0.000013 -1.000000
vn 0.000000 -0.000013 -1.000000
vn 0.000000 -0.000013 -1.000000
vn 0.000000 -0.000013 -1.000000
vn 0.000000 0.000000 1.000000
vn 0.000000 0.000000 1.000000
vn 0.000000 0.000000 1.000000
vn 0.000000 0.000000 1.000000
vn -1.000000 0.000000 0.000000
vn -1.000000 0.000000 0.000000
vn -1.000000 0.000000 0.000000
vn -1.000000 0.000000 0.000000
vn 0.000000 0.000000 -1.000000
vn 0.000000 0.000000 -1.000000
vn 0.000000 0.000000 -1.000000
vn 0.000000 0.000000 -1.000000
vn 1.000000 0.000000 0.000000
vn 1.000000 0.000000 0.000000
vn 1.000000 0.000000 0.000000
vn 1.000000 0.000000 0.000000
vn -0.429111 0.903252 0.000000
vn -0.429111 0.903252 0.000000
vn -0.429111 0.903252 0.000000
vn -0.429111 0.903252 0.000000
vn 0.000000 0.903252 0.429111
vn 0.000000 0.903252 0.429111
vn 0.000000 0.903252 0.429111
vn 0.000000 0.903252 0.429111
vn 0.429111 0.903252 0.000000
vn 0.429111 0.903252 0.000000
vn 0.429111 0.903252 0.000000
vn 0.429111 0.903252 0.000000
vn 0.000000 0.903252 -0.429111
vn 0.000000 0.903252 -0.429111
vn 0.000000 0.903252 -0.429111
vn 0.000000 0.903252 -0.429111
s off
f 9/15/1 10/16/2 14/23/3 15/24/4
f 17/27/5 18/28/6 19/29/7 20/30/8
f 16/26/9 13/21/10 11/17/11 12/20/12
f 7/7/13 8/8/14 2/10/15 1/9/16
f 10/16/17 11/18/18 13/22/19 14/23/20
f 12/19/21 9/15/22 15/24/23 16/25/24
f 1/1/25 2/2/26 10/16/27 9/15/28
f 2/2/29 8/11/30 11/18/31 10/16/32
f 12/20/33 11/17/34 8/8/35 7/7/36
f 7/13/37 1/1/38 9/15/39 12/19/40
f 14/23/41 13/22/42 6/12/43 4/4/44
f 15/24/45 14/23/46 4/4/47 3/3/48
f 16/25/49 15/24/50 3/3/51 5/14/52
f 5/5/53 6/6/54 13/21/55 16/26/56
f 3/3/57 4/4/58 18/28/59 17/27/60
f 4/4/61 6/6/62 19/29/63 18/28/64
f 6/6/65 5/5/66 20/30/67 19/29/68
f 5/5/69 3/3/70 17/27/71 20/30/72
