# This file uses meters as units for non-parametric coordinates.

v -3.249878 -0.000000 -14.338623
v -3.249878 -0.000000 14.338623
v -3.249878 34.543007 -14.338623
v -3.249878 34.543007 14.338623
v 3.249878 34.543007 -14.338623
v 3.249878 34.543007 14.338623
v 3.249878 -0.000000 -14.338623
v 3.249878 -0.000000 14.338623
v -2.278076 34.543007 -14.338623
v 2.278442 34.543007 -14.338623
v 2.278442 34.543007 12.677002
v -2.278076 34.543007 12.677002
v -3.249878 3.454300 14.338623
v 3.249878 3.454301 14.338623
v -3.249878 7.904832 14.338623
v 3.249878 7.904833 14.338623
v -3.249878 29.613445 14.338623
v 3.249878 29.613445 14.338623
v 2.278442 -0.000000 -14.338623
v -2.278076 -0.000000 -14.338623
v 2.278442 -0.000000 12.677002
v -2.278076 -0.000000 12.677002
vt 0.338484 0.444952
vt 0.338484 0.444952
vt 0.338484 0.444952
vt 0.338484 0.444952
vt 0.338484 0.444952
vt 0.338484 0.444952
vt 0.338484 0.444952
vt 0.338484 0.444952
vt 0.338484 0.444952
vt 0.338484 0.444952
vt 0.338484 0.444952
vt 0.338484 0.444952
vt 0.336792 0.445774
vt 0.336792 0.445774
vt 0.336792 0.445774
vt 0.338484 0.444952
vt 0.338484 0.444952
vt 0.037598 0.374821
vt 0.037598 0.374821
vt 0.338484 0.444952
vt 0.338484 0.444952
vt 0.336792 0.445774
vt 0.336792 0.445774
vt 0.336792 0.445774
vt 0.039307 0.372169
vt 0.039307 0.372169
vt 0.039307 0.372169
vt 0.039307 0.372169
vt 0.066650 0.353606
vt 0.066650 0.353606
vt 0.066650 0.353606
vt 0.066650 0.353606
vt 0.338484 0.444952
vt 0.338484 0.444952
vt 0.338484 0.444952
vt 0.217651 0.471749
vt 0.217651 0.471749
vt 0.217651 0.471745
vt 0.217651 0.471745
vt 0.338484 0.444952
vt 0.338484 0.444952
vt 0.338484 0.444952
vt 0.037598 0.374821
vt 0.336792 0.445774
vt 0.037598 0.374821
vt 0.336792 0.445774
vt 0.037598 0.374821
vt 0.037598 0.374821
vt 0.336792 0.445774
vt 0.336792 0.445774
vt 0.336792 0.445774
vn -1.000000 0.000000 0.000000
vn -1.000000 0.000000 0.000000
vn -1.000000 0.000000 0.000000
vn -1.000000 0.000000 0.000000
vn 0.000000 1.000000 0.000000
vn 0.000000 1.000000 0.000000
vn 0.000000 1.000000 0.000000
vn 0.000000 1.000000 0.000000
vn 1.000000 0.000000 0.000000
vn 1.000000 0.000000 0.000000
vn 1.000000 0.000000 0.000000
vn 1.000000 0.000000 0.000000
vn 0.000000 -1.000000 0.000000
vn 0.000000 -1.000000 0.000000
vn 0.000000 -1.000000 0.000000
vn 0.000000 -1.000000 0.000000
vn 0.000000 0.000000 1.000000
vn 0.000000 0.000000 1.000000
vn 0.000000 0.000000 1.000000
vn 0.000000 0.000000 1.000000
vn 0.000000 0.000000 -1.000000
vn 0.000000 0.000000 -1.000000
vn 0.000000 0.000000 -1.000000
vn 0.000000 0.000000 -1.000000
vn 0.000000 1.000000 0.000000
vn 0.000000 1.000000 0.000000
vn 0.000000 1.000000 0.000000
vn 0.000000 1.000000 0.000000
vn 0.000000 1.000000 0.000000
vn 0.000000 1.000000 0.000000
vn 0.000000 1.000000 0.000000
vn 0.000000 1.000000 0.000000
vn 0.000000 1.000000 0.000000
vn 0.000000 1.000000 0.000000
vn 0.000000 1.000000 0.000000
vn 0.000000 1.000000 0.000000
vn 0.000000 0.000000 1.000000
vn 0.000000 0.000000 1.000000
vn 0.000000 0.000000 1.000000
vn 0.000000 0.000000 1.000000
vn 0.000000 0.000000 1.000000
vn 0.000000 0.000000 1.000000
vn 0.000000 0.000000 1.000000
vn 0.000000 0.000000 1.000000
vn 0.000000 0.000000 1.000000
vn 0.000000 0.000000 1.000000
vn 0.000000 0.000000 1.000000
vn 0.000000 0.000000 1.000000
vn -1.000000 0.000000 0.000000
vn -1.000000 0.000000 0.000000
vn -1.000000 0.000000 0.000000
vn -1.000000 0.000000 0.000000
vn -1.000000 0.000000 0.000000
vn -1.000000 0.000000 0.000000
vn -1.000000 0.000000 0.000000
vn 1.000000 0.000000 0.000000
vn 1.000000 0.000000 0.000000
vn 1.000000 0.000000 0.000000
vn 1.000000 0.000000 0.000000
vn 1.000000 0.000000 0.000000
vn 1.000000 0.000000 0.000000
vn 1.000000 0.000000 0.000000
vn 0.000000 -1.000000 0.000000
vn 0.000000 -1.000000 0.000000
vn 0.000000 -1.000000 0.000000
vn 0.000000 -1.000000 0.000000
vn 0.000000 -1.000000 0.000000
vn 0.000000 -1.000000 0.000000
vn 0.000000 -1.000000 0.000000
vn 0.000000 -1.000000 0.000000
vn 0.000000 -1.000000 0.000000
vn 0.000000 -1.000000 0.000000
vn 0.000000 -1.000000 0.000000
vn 0.000000 -1.000000 0.000000
vn 0.000000 0.000000 -1.000000
vn 0.000000 0.000000 -1.000000
vn 0.000000 0.000000 -1.000000
vn 0.000000 0.000000 -1.000000
vn 0.000000 0.000000 -1.000000
vn 0.000000 0.000000 -1.000000
vn 0.000000 0.000000 -1.000000
vn 0.000000 0.000000 -1.000000
s off
f 1/1/1 15/2/2 17/3/3 3/4/4
f 11/5/5 12/6/6 4/7/7 6/8/8
f 5/9/9 18/10/10 16/11/11 7/12/12
f 20/13/13 22/14/14 2/15/15 1/22/16
f 17/3/17 18/16/18 6/17/19 4/7/20
f 7/23/21 19/24/22 10/44/23 5/46/24
f 3/4/25 4/7/26 12/6/27 9/20/28
f 10/21/29 11/5/30 6/8/31 5/9/32
f 9/25/33 12/26/34 11/27/35 10/28/36
f 2/29/37 8/30/38 14/31/39 13/32/40
f 13/33/41 14/34/42 16/35/43 15/2/44
f 15/36/45 16/37/46 18/38/47 17/39/48
f 1/1/49 2/40/50 13/33/51 15/2/52
f 3/4/53 17/3/54 4/7/55
f 5/9/56 6/8/57 18/10/58
f 7/12/59 16/11/60 14/41/61 8/42/62
f 7/23/63 8/49/64 21/50/65 19/24/66
f 19/43/67 21/47/68 22/48/69 20/45/70
f 22/14/71 21/50/72 8/49/73 2/15/74
f 9/51/75 20/13/76 1/1/77 3/4/78
f 10/19/79 19/43/80 20/45/81 9/18/82
