# This file uses meters as units for non-parametric coordinates.

v 16.639771 -10.000000 -58.084229
v 16.639771 -10.000000 58.083740
v 16.639771 -18.117737 -58.084229
v 16.639771 -18.117737 58.083740
v -16.639648 -18.117737 -58.084229
v -16.639648 -18.117737 58.083740
v -16.639648 -10.000000 -58.084229
v -16.639648 -10.000000 58.083740
v 13.061768 -18.117737 -54.522949
v 13.061768 -18.117737 54.522461
v -13.061768 -18.117737 54.522461
v -13.061768 -18.117737 -54.522949
v 9.738403 -13.420074 -51.241943
v 9.738403 -13.420074 51.241455
v -9.738525 -13.420074 51.241455
v -9.738525 -13.420074 -51.241943
v 0.000000 -13.420074 51.241455
v 0.000000 -13.420074 -51.241943
v 7.319824 -19.351624 -48.964355
v 7.319824 -19.351624 48.963623
v 3.538940 -19.351624 48.963623
v 3.538940 -19.351624 -48.964355
v -3.539063 -19.351624 -48.964355
v -3.539063 -19.351624 48.963623
v -7.319946 -19.351624 48.963623
v -7.319946 -19.351624 -48.964355
vt 0.103998 0.224871
vt 0.103998 0.224871
vt 0.103998 0.224871
vt 0.103998 0.224871
vt 0.103998 0.224871
vt 0.103998 0.224871
vt 0.103998 0.224871
vt 0.103998 0.224871
vt 0.103998 0.224871
vt 0.103998 0.224871
vt 0.103998 0.224871
vt 0.103998 0.224871
vt 0.103998 0.224871
vt 0.103998 0.224871
vt 0.103998 0.224871
vt 0.103998 0.224871
vt 0.103998 0.224871
vt 0.103998 0.224871
vt 0.103998 0.224871
vt 0.103998 0.224871
vt 0.103998 0.224871
vt 0.103998 0.224871
vt 0.103998 0.224871
vt 0.103998 0.224871
vt 0.552119 0.038865
vt 0.552119 0.038865
vt 0.552119 0.038865
vt 0.552119 0.038865
vt 0.552119 0.038865
vt 0.552119 0.038865
vt 0.552119 0.038865
vt 0.552119 0.038865
vt 0.552119 0.038865
vt 0.552119 0.038865
vt 0.552119 0.038865
vt 0.552119 0.038865
vt 0.552119 0.038865
vt 0.552119 0.038865
vn 1.000000 0.000000 0.000000
vn 1.000000 0.000000 0.000000
vn 1.000000 0.000000 0.000000
vn 1.000000 0.000000 0.000000
vn 0.000000 -1.000000 0.000000
vn 0.000000 -1.000000 0.000000
vn 0.000000 -1.000000 0.000000
vn 0.000000 -1.000000 0.000000
vn -1.000000 0.000000 0.000000
vn -1.000000 0.000000 0.000000
vn -1.000000 0.000000 0.000000
vn -1.000000 0.000000 0.000000
vn 0.000000 1.000000 0.000000
vn 0.000000 1.000000 0.000000
vn 0.000000 1.000000 0.000000
vn 0.000000 1.000000 0.000000
vn 0.000000 0.000000 1.000000
vn 0.000000 0.000000 1.000000
vn 0.000000 0.000000 1.000000
vn 0.000000 0.000000 1.000000
vn 0.000000 0.000000 -1.000000
vn 0.000000 0.000000 -1.000000
vn 0.000000 0.000000 -1.000000
vn 0.000000 0.000000 -1.000000
vn 0.000000 -1.000000 0.000000
vn 0.000000 -1.000000 0.000000
vn 0.000000 -1.000000 0.000000
vn 0.000000 -1.000000 0.000000
vn 0.000000 -1.000000 0.000000
vn 0.000000 -1.000000 0.000000
vn 0.000000 -1.000000 0.000000
vn 0.000000 -1.000000 0.000000
vn 0.000000 -1.000000 0.000000
vn 0.000000 -1.000000 0.000000
vn 0.000000 -1.000000 0.000000
vn 0.000000 -1.000000 0.000000
vn 0.000000 -1.000000 -0.000000
vn 0.000000 -1.000000 -0.000000
vn 0.000000 -1.000000 -0.000000
vn 0.000000 -1.000000 -0.000000
vn -0.816364 -0.577537 0.000000
vn -0.816364 -0.577537 0.000000
vn -0.816364 -0.577537 0.000000
vn -0.816364 -0.577537 0.000000
vn 0.000000 -0.572600 -0.819835
vn 0.000000 -0.572600 -0.819835
vn 0.000000 -0.572600 -0.819835
vn 0.816374 -0.577523 0.000000
vn 0.816374 -0.577523 0.000000
vn 0.816374 -0.577523 0.000000
vn 0.816374 -0.577523 0.000000
vn 0.000000 -0.572600 0.819835
vn 0.000000 -0.572600 0.819835
vn 0.000000 -0.572600 0.819835
vn 0.000000 -0.572600 -0.819835
vn 0.000000 -0.572600 -0.819835
vn 0.000000 -0.572600 -0.819835
vn 0.000000 -0.572600 -0.819835
vn 0.000000 -0.572600 -0.819835
vn 0.000000 -0.572600 -0.819835
vn 0.000000 -0.572600 0.819835
vn 0.000000 -0.572600 0.819835
vn 0.000000 -0.572600 0.819835
vn 0.000000 -0.572600 0.819835
vn 0.000000 -0.572600 0.819835
vn 0.000000 -0.572600 0.819835
vn 0.000000 -1.000000 0.000000
vn 0.000000 -1.000000 0.000000
vn 0.000000 -1.000000 0.000000
vn 0.000000 -1.000000 0.000000
vn 0.925982 -0.377568 0.000000
vn 0.925982 -0.377568 0.000000
vn 0.925982 -0.377568 0.000000
vn 0.925982 -0.377568 0.000000
vn 0.000000 -0.358495 0.933532
vn 0.000000 -0.358495 0.933532
vn 0.000000 -0.358495 0.933532
vn 0.000000 -0.358495 0.933532
vn -0.858767 -0.512366 0.000000
vn -0.858767 -0.512366 0.000000
vn -0.858767 -0.512366 0.000000
vn -0.858767 -0.512366 0.000000
vn 0.000000 -0.358461 -0.933545
vn 0.000000 -0.358461 -0.933545
vn 0.000000 -0.358461 -0.933545
vn 0.000000 -0.358461 -0.933545
vn 0.858759 -0.512379 0.000000
vn 0.858759 -0.512379 0.000000
vn 0.858759 -0.512379 0.000000
vn 0.858759 -0.512379 0.000000
vn 0.000000 -0.358495 0.933532
vn 0.000000 -0.358495 0.933532
vn 0.000000 -0.358495 0.933532
vn 0.000000 -0.358495 0.933532
vn -0.925982 -0.377568 0.000000
vn -0.925982 -0.377568 0.000000
vn -0.925982 -0.377568 0.000000
vn -0.925982 -0.377568 0.000000
vn 0.000000 -0.358461 -0.933545
vn 0.000000 -0.358461 -0.933545
vn 0.000000 -0.358461 -0.933545
vn 0.000000 -0.358461 -0.933545
s off
f 1/1/1 2/2/2 4/4/3 3/3/4
f 23/25/5 24/26/6 25/27/7 26/28/8
f 5/5/9 6/6/10 8/8/11 7/7/12
f 7/7/13 8/8/14 2/10/15 1/9/16
f 2/2/17 8/11/18 6/12/19 4/4/20
f 7/13/21 1/1/22 3/3/23 5/14/24
f 3/3/25 4/4/26 10/16/27 9/15/28
f 4/4/29 6/6/30 11/17/31 10/16/32
f 6/6/33 5/5/34 12/18/35 11/17/36
f 5/5/37 3/3/38 9/15/39 12/18/40
f 9/15/41 10/16/42 14/20/43 13/19/44
f 10/16/45 17/23/46 14/20/47
f 11/17/48 12/18/49 16/22/50 15/21/51
f 12/18/52 9/15/53 18/24/54
f 17/23/55 11/17/56 15/21/57
f 10/16/58 11/17/59 17/23/60
f 18/24/61 9/15/62 13/19/63
f 12/18/64 18/24/65 16/22/66
f 19/29/67 20/30/68 21/31/69 22/32/70
f 13/33/71 14/34/72 20/30/73 19/29/74
f 14/34/75 17/35/76 21/31/77 20/30/78
f 17/35/79 18/36/80 22/32/81 21/31/82
f 18/36/83 13/33/84 19/29/85 22/32/86
f 18/36/87 17/35/88 24/26/89 23/25/90
f 17/35/91 15/37/92 25/27/93 24/26/94
f 15/37/95 16/38/96 26/28/97 25/27/98
f 16/38/99 18/36/100 23/25/101 26/28/102
