# This file uses meters as units for non-parametric coordinates.

v -100.000000 -0.000092 0.000000
v -100.000000 -0.000092 64.823975
v -100.000000 104.381638 0.000122
v -100.000000 96.448166 64.823975
v 0.000000 104.381638 0.000122
v 0.000000 96.448166 64.823975
v 0.000000 -0.000092 0.000000
v 0.000000 -0.000092 64.823975
v -4.388306 4.232300 64.823975
v -95.611694 4.232300 64.823975
v -4.388306 92.215790 64.823975
v -95.611694 92.215790 64.823975
v -4.388306 4.232300 7.043457
v -95.611694 4.232300 7.043457
v -4.388306 92.215790 7.043457
v -95.611694 92.215790 7.043457
v 0.000000 48.011269 64.823975
v -4.388306 48.011269 64.823975
v -4.388306 50.498398 7.043457
v -95.611694 50.498398 7.043457
v -95.611694 48.011269 64.823975
v -100.000000 48.011269 64.823975
v -100.000000 48.011269 0.000000
v 0.000000 48.011269 0.000000
v -95.611694 45.524147 7.043457
v -4.388306 45.524147 7.043091
v -100.000000 99.322586 67.862915
v 0.000000 99.322586 67.862915
v -100.000000 104.381638 67.862915
v 0.000000 104.381638 67.862915
v -4.388306 50.498398 61.712158
v -4.388306 45.524147 61.712158
v -95.611694 50.498398 61.712158
v -95.611694 45.524147 61.712158
vt 0.070068 0.377594
vt 0.069336 0.356720
vt 0.070068 0.377594
vt 0.070068 0.377594
vt 0.070068 0.377594
vt 0.070068 0.377609
vt 0.070068 0.377609
vt 0.070068 0.377609
vt 0.070068 0.377609
vt 0.069336 0.356720
vt 0.070068 0.377609
vt 0.070068 0.377609
vt 0.038947 0.355271
vt 0.038947 0.355271
vt 0.038947 0.355271
vt 0.038947 0.355271
vt 0.038947 0.355271
vt 0.038947 0.355271
vt 0.038947 0.355271
vt 0.038947 0.355271
vt 0.070068 0.377609
vt 0.069336 0.356720
vt 0.038947 0.355271
vt 0.038947 0.355271
vt 0.038947 0.355271
vt 0.038947 0.355271
vt 0.069336 0.356720
vt 0.070068 0.377609
vt 0.038947 0.355271
vt 0.038947 0.355271
vt 0.038947 0.355271
vt 0.038947 0.355271
vt 0.070068 0.377594
vt 0.070068 0.377594
vt 0.070068 0.377594
vt 0.070068 0.377594
vt 0.069336 0.356689
vt 0.069336 0.356689
vt 0.069336 0.356689
vt 0.069336 0.356689
vt 0.069336 0.356720
vt 0.069336 0.356720
vt 0.069336 0.356720
vt 0.069336 0.356720
vt 0.035400 0.353119
vt 0.035400 0.353119
vt 0.035400 0.353119
vt 0.035400 0.353119
vt 0.038947 0.355271
vt 0.038947 0.355271
vt 0.038947 0.355271
vt 0.038947 0.355271
vt 0.040527 0.355286
vt 0.040527 0.355286
vt 0.040527 0.355286
vt 0.040527 0.355286
vt 0.040527 0.355286
vt 0.040527 0.355286
vt 0.038947 0.355271
vt 0.038947 0.355271
vn 0.000000 1.000000 0.000000
vn 0.000000 1.000000 0.000000
vn 0.000000 1.000000 0.000000
vn 0.000000 1.000000 0.000000
vn 0.000000 -1.000000 0.000000
vn 0.000000 -1.000000 0.000000
vn 0.000000 -1.000000 0.000000
vn 0.000000 -1.000000 0.000000
vn 0.000000 0.000000 1.000000
vn 0.000000 0.000000 1.000000
vn 0.000000 0.000000 1.000000
vn 0.000000 0.000000 1.000000
vn 0.000000 0.000000 1.000000
vn 0.000000 0.000000 1.000000
vn 0.000000 0.000000 1.000000
vn 0.000000 0.000000 1.000000
vn 0.000000 1.000000 0.000000
vn 0.000000 1.000000 0.000000
vn 0.000000 1.000000 0.000000
vn 0.000000 1.000000 0.000000
vn 0.000000 -1.000000 0.000000
vn 0.000000 -1.000000 0.000000
vn 0.000000 -1.000000 0.000000
vn 0.000000 -1.000000 0.000000
vn -0.000001 0.000000 1.000000
vn -0.000001 0.000000 1.000000
vn -0.000001 0.000000 1.000000
vn -0.000001 0.000000 1.000000
vn -1.000000 -0.000000 0.000000
vn -1.000000 -0.000000 0.000000
vn -1.000000 -0.000000 0.000000
vn -1.000000 -0.000000 0.000000
vn 0.000000 0.000000 1.000000
vn 0.000000 0.000000 1.000000
vn 0.000000 0.000000 1.000000
vn 0.000000 0.000000 1.000000
vn 1.000000 0.000000 0.000000
vn 1.000000 0.000000 0.000000
vn 1.000000 0.000000 0.000000
vn 1.000000 0.000000 0.000000
vn 0.000001 0.000000 1.000000
vn 0.000001 0.000000 1.000000
vn 0.000001 0.000000 1.000000
vn 0.000001 0.000000 1.000000
vn -1.000000 0.000000 0.000000
vn -1.000000 0.000000 0.000000
vn -1.000000 0.000000 0.000000
vn -1.000000 0.000000 0.000000
vn 0.000000 0.000002 -1.000000
vn 0.000000 0.000002 -1.000000
vn 0.000000 0.000002 -1.000000
vn 0.000000 0.000002 -1.000000
vn 1.000000 0.000000 0.000000
vn 1.000000 0.000000 0.000000
vn 1.000000 0.000000 0.000000
vn 1.000000 0.000000 0.000000
vn 0.000000 0.000000 -1.000000
vn 0.000000 0.000000 -1.000000
vn 0.000000 0.000000 -1.000000
vn 0.000000 0.000000 -1.000000
vn -1.000000 0.000000 0.000000
vn -1.000000 0.000000 0.000000
vn -1.000000 0.000000 0.000000
vn -1.000000 0.000000 0.000000
vn 0.000000 0.000000 1.000000
vn 0.000000 0.000000 1.000000
vn 0.000000 0.000000 1.000000
vn 0.000000 0.000000 1.000000
vn 1.000000 0.000000 0.000000
vn 1.000000 0.000000 0.000000
vn 1.000000 0.000000 0.000000
vn 1.000000 0.000000 0.000000
vn 0.000002 0.000004 1.000000
vn 0.000002 0.000004 1.000000
vn 0.000002 0.000004 1.000000
vn 0.000002 0.000004 1.000000
vn -1.000000 0.000000 0.000000
vn -1.000000 0.000000 0.000000
vn -1.000000 0.000000 0.000000
vn -1.000000 0.000000 0.000000
vn 0.000000 0.000000 1.000000
vn 0.000000 0.000000 1.000000
vn 0.000000 0.000000 1.000000
vn 0.000000 0.000000 1.000000
vn 1.000000 0.000000 0.000000
vn 1.000000 0.000000 0.000000
vn 1.000000 0.000000 0.000000
vn 1.000000 0.000000 0.000000
vn 0.000000 0.000000 1.000000
vn 0.000000 0.000000 1.000000
vn 0.000000 0.000000 1.000000
vn 0.000000 0.000000 1.000000
vn 0.000000 1.000000 0.000000
vn 0.000000 1.000000 0.000000
vn 0.000000 1.000000 0.000000
vn 0.000000 1.000000 0.000000
vn 0.000000 -1.000000 0.000000
vn 0.000000 -1.000000 0.000000
vn 0.000000 -1.000000 0.000000
vn 0.000000 -1.000000 0.000000
vn -1.000000 0.000000 0.000000
vn -1.000000 0.000000 0.000000
vn -1.000000 0.000000 0.000000
vn 0.000000 -0.726498 0.687168
vn 0.000000 -0.726498 0.687168
vn 0.000000 -0.726498 0.687168
vn 0.000000 -0.726498 0.687168
vn 1.000000 0.000000 0.000000
vn 1.000000 0.000000 0.000000
vn 1.000000 0.000000 0.000000
vn -1.000000 0.000000 0.000000
vn -1.000000 0.000000 0.000000
vn -1.000000 0.000000 0.000000
vn 0.000000 0.000000 1.000000
vn 0.000000 0.000000 1.000000
vn 0.000000 0.000000 1.000000
vn 0.000000 0.000000 1.000000
vn 1.000000 0.000000 0.000000
vn 1.000000 0.000000 0.000000
vn 1.000000 0.000000 0.000000
vn -1.000000 0.000000 0.000000
vn -1.000000 0.000000 0.000000
vn -1.000000 0.000000 0.000000
vn 1.000000 0.000000 0.000000
vn 1.000000 0.000000 0.000000
vn 1.000000 0.000000 0.000000
vn -1.000000 0.000000 0.000000
vn -1.000000 0.000000 0.000000
vn -1.000000 0.000000 0.000000
vn -1.000000 0.000000 0.000000
vn -1.000000 0.000000 0.000000
vn -1.000000 0.000000 0.000000
vn 1.000000 0.000000 0.000000
vn 1.000000 0.000000 0.000000
vn 1.000000 0.000000 0.000000
vn 1.000000 0.000000 0.000000
vn 1.000000 0.000000 0.000000
vn 1.000000 0.000000 0.000000
s off
f 3/1/1 29/35/2 30/36/3 5/5/4
f 7/6/5 8/7/6 2/8/7 1/9/8
f 9/44/9 10/10/10 2/2/11 8/43/12
f 6/37/13 4/38/14 12/39/15 11/40/16
f 10/13/17 9/14/18 13/18/19 14/17/20
f 11/15/21 12/16/22 16/20/23 15/19/24
f 18/22/25 17/27/26 6/37/27 11/40/28
f 19/24/29 31/51/30 11/15/31 15/19/32
f 20/25/33 19/24/34 15/19/35 16/20/36
f 12/16/37 33/49/38 20/25/39 16/20/40
f 4/38/41 22/42/42 21/41/43 12/39/44
f 23/11/45 22/12/46 4/3/47 3/1/48
f 24/21/49 23/11/50 3/1/51 5/5/52
f 5/5/53 6/4/54 17/28/55 24/21/56
f 7/6/57 1/9/58 23/11/59 24/21/60
f 1/9/61 2/8/62 22/12/63 23/11/64
f 21/41/65 22/42/66 2/2/67 10/10/68
f 25/32/69 34/52/70 10/13/71 14/17/72
f 14/17/73 13/18/74 26/30/75 25/32/76
f 9/14/77 32/50/78 26/30/79 13/18/80
f 8/43/81 17/27/82 18/22/83 9/44/84
f 24/21/85 17/28/86 8/7/87 7/6/88
f 32/45/89 31/46/90 33/47/91 34/48/92
f 20/25/93 33/49/94 31/59/95 19/24/96
f 26/30/97 32/50/98 34/60/99 25/32/100
f 3/1/101 4/3/102 27/33/103
f 4/3/104 6/4/105 28/34/106 27/33/107
f 6/4/108 5/5/109 28/34/110
f 3/1/111 27/33/112 29/35/113
f 27/33/114 28/34/115 30/36/116 29/35/117
f 28/34/118 5/5/119 30/36/120
f 18/53/121 31/54/122 32/55/123
f 21/56/124 34/57/125 33/58/126
f 9/14/127 18/29/128 32/50/129
f 11/15/130 31/51/131 18/23/132
f 12/16/133 21/26/134 33/49/135
f 10/13/136 34/52/137 21/31/138
v -50.000000 96.448303 64.823975
v -97.382813 96.448303 64.823975
v -50.000000 2.239540 64.823975
v -97.382813 2.239540 64.823975
v -50.118896 96.448303 68.006348
v -97.382813 96.448303 68.006348
v -50.118896 2.239540 68.006348
v -97.382813 2.239540 68.006348
v -52.496582 94.280891 68.006348
v -94.886230 94.280891 68.006348
v -52.496582 4.406937 68.006348
v -94.886230 4.406937 68.006348
v -56.209229 91.307175 66.243164
v -91.173584 91.307175 66.243164
v -56.209229 7.380669 66.243164
v -91.173584 7.380669 66.243164
v -59.807129 28.617123 66.243164
v -63.397705 28.617123 66.243164
v -59.807129 10.965698 66.243164
v -63.397705 10.965698 66.243164
v -63.397705 26.612579 66.243164
v -63.397705 12.970238 66.243164
v -59.807129 12.970238 66.243164
v -59.807129 26.612579 66.243164
v -62.817139 13.463470 69.383789
v -60.387695 13.463470 69.383789
v -60.387695 11.629631 70.484619
v -62.817139 11.629631 70.484619
v -60.387695 27.953182 70.484619
v -62.817139 27.953182 70.484619
v -60.387695 26.119358 69.383789
v -62.817139 26.119358 69.383789
v -62.553711 19.583973 69.711182
v -60.651123 19.583973 69.711182
v -60.651123 19.583973 71.302002
v -62.553711 19.583973 71.302002
vt 0.069775 0.378683
vt 0.069775 0.378683
vt 0.069775 0.378683
vt 0.069775 0.378683
vt 0.069775 0.378683
vt 0.069775 0.378683
vt 0.069775 0.378683
vt 0.069775 0.378683
vt 0.069775 0.378683
vt 0.069775 0.378683
vt 0.069775 0.378683
vt 0.069775 0.378683
vt 0.069775 0.378683
vt 0.069775 0.378683
vt 0.069775 0.378683
vt 0.069775 0.378683
vt 0.069775 0.378683
vt 0.069775 0.378683
vt 0.069775 0.378683
vt 0.069775 0.378683
vt 0.069775 0.378683
vt 0.069775 0.378683
vt 0.069775 0.378683
vt 0.069775 0.378683
vt 0.101807 0.228603
vt 0.101807 0.228603
vt 0.101807 0.228603
vt 0.101807 0.228603
vt 0.101807 0.228607
vt 0.101807 0.228607
vt 0.101807 0.228607
vt 0.101807 0.228607
vt 0.101807 0.228603
vt 0.101807 0.228603
vt 0.101807 0.228603
vt 0.101807 0.228603
vt 0.101807 0.228603
vt 0.101807 0.228603
vt 0.101807 0.228603
vt 0.101807 0.228603
vt 0.101807 0.228603
vt 0.101807 0.228603
vt 0.101807 0.228603
vt 0.101807 0.228603
vt 0.038330 0.349976
vt 0.038330 0.349976
vt 0.038330 0.349977
vt 0.038330 0.349977
vn 0.000000 0.000000 -1.000000
vn 0.000000 0.000000 -1.000000
vn 0.000000 0.000000 -1.000000
vn 0.000000 0.000000 -1.000000
vn 0.000000 1.000000 0.000000
vn 0.000000 1.000000 0.000000
vn 0.000000 1.000000 0.000000
vn 0.000000 1.000000 0.000000
vn 0.999303 0.000000 0.037335
vn 0.999303 0.000000 0.037335
vn 0.999303 0.000000 0.037335
vn 0.999303 0.000000 0.037335
vn 0.000000 -1.000000 0.000000
vn 0.000000 -1.000000 0.000000
vn 0.000000 -1.000000 0.000000
vn 0.000000 -1.000000 0.000000
vn -1.000000 0.000000 0.000000
vn -1.000000 0.000000 0.000000
vn -1.000000 0.000000 0.000000
vn -1.000000 0.000000 0.000000
vn 0.000000 0.000000 1.000000
vn 0.000000 0.000000 1.000000
vn 0.000000 0.000000 1.000000
vn 0.000000 0.000000 1.000000
vn 0.000000 0.000000 1.000000
vn 0.000000 0.000000 1.000000
vn 0.000000 0.000000 1.000000
vn 0.000000 0.000000 1.000000
vn 0.000000 0.000000 1.000000
vn 0.000000 0.000000 1.000000
vn 0.000000 0.000000 1.000000
vn 0.000000 0.000000 1.000000
vn -0.000002 0.000000 1.000000
vn -0.000002 0.000000 1.000000
vn -0.000002 0.000000 1.000000
vn -0.000002 0.000000 1.000000
vn 0.000000 -0.510013 0.860167
vn 0.000000 -0.510013 0.860167
vn 0.000000 -0.510013 0.860167
vn 0.000000 -0.510013 0.860167
vn -0.428994 0.000000 0.903307
vn -0.428994 0.000000 0.903307
vn -0.428994 0.000000 0.903307
vn -0.428994 0.000000 0.903307
vn 0.000000 0.510011 0.860168
vn 0.000000 0.510011 0.860168
vn 0.000000 0.510011 0.860168
vn 0.000000 0.510011 0.860168
vn 0.428994 0.000000 0.903307
vn 0.428994 0.000000 0.903307
vn 0.428994 0.000000 0.903307
vn 0.428994 0.000000 0.903307
vn 0.000000 0.000000 1.000000
vn 0.000000 0.000000 1.000000
vn 0.000000 0.000000 1.000000
vn 0.000000 0.000000 1.000000
vn 0.000003 0.000000 1.000000
vn 0.000003 0.000000 1.000000
vn 0.000003 0.000000 1.000000
vn 0.000003 0.000000 1.000000
vn 0.000003 0.000000 1.000000
vn 0.000003 0.000000 1.000000
vn 0.000000 0.000000 1.000000
vn 0.000000 0.000000 1.000000
vn 0.000000 0.000000 1.000000
vn 0.000000 0.000000 1.000000
vn -0.000000 0.000000 1.000000
vn -0.000000 0.000000 1.000000
vn -0.000000 0.000000 1.000000
vn -0.000000 0.000000 1.000000
vn -0.000000 0.000000 1.000000
vn -0.000000 0.000000 1.000000
vn 0.000000 0.000000 1.000000
vn 0.000000 0.000000 1.000000
vn 0.000000 0.000000 1.000000
vn 0.000000 0.000000 1.000000
vn 0.000000 0.987891 -0.155148
vn 0.000000 0.987891 -0.155148
vn 0.000000 0.987891 -0.155148
vn 0.000000 0.987891 -0.155148
vn 0.987960 0.042651 0.148712
vn 0.987960 0.042651 0.148712
vn 0.987960 0.042651 0.148712
vn 0.987960 0.042651 0.148712
vn 0.000000 -0.987969 0.154651
vn 0.000000 -0.987969 0.154651
vn 0.000000 -0.987969 0.154651
vn 0.000000 -0.987969 0.154651
vn -0.987961 0.042649 0.148712
vn -0.987960 0.042649 0.148712
vn -0.987961 0.042649 0.148712
vn -0.987960 0.042649 0.148712
vn 0.000000 0.987969 0.154653
vn 0.000000 0.987969 0.154653
vn 0.000000 0.987969 0.154653
vn 0.000000 0.987969 0.154653
vn 0.987960 -0.042652 0.148711
vn 0.987960 -0.042652 0.148711
vn 0.987960 -0.042652 0.148711
vn 0.987960 -0.042652 0.148711
vn 0.000000 -0.987892 -0.155144
vn 0.000000 -0.987892 -0.155144
vn 0.000000 -0.987892 -0.155144
vn 0.000000 -0.987892 -0.155144
vn -0.987961 -0.042650 0.148711
vn -0.987961 -0.042650 0.148711
vn -0.987961 -0.042650 0.148711
vn -0.987961 -0.042650 0.148711
vn 0.000000 0.053415 -0.998572
vn 0.000000 0.053415 -0.998572
vn 0.000000 0.053415 -0.998572
vn 0.000000 0.053415 -0.998572
vn 0.999080 0.035434 0.024142
vn 0.999080 0.035434 0.024142
vn 0.999080 0.035434 0.024142
vn 0.999080 0.035434 0.024142
vn 0.000000 -0.102221 0.994762
vn 0.000000 -0.102221 0.994762
vn 0.000000 -0.102221 0.994762
vn 0.000000 -0.102221 0.994762
vn -0.999080 0.035435 0.024142
vn -0.999080 0.035435 0.024142
vn -0.999080 0.035435 0.024142
vn -0.999080 0.035435 0.024142
vn 0.000000 0.097203 0.995265
vn 0.000000 0.097203 0.995265
vn 0.000000 0.097203 0.995265
vn 0.000000 0.097203 0.995265
vn 0.999175 -0.033563 0.022867
vn 0.999175 -0.033563 0.022867
vn 0.999175 -0.033563 0.022867
vn 0.999175 -0.033563 0.022867
vn 0.000000 -0.050033 -0.998748
vn 0.000000 -0.050033 -0.998748
vn 0.000000 -0.050033 -0.998748
vn 0.000000 -0.050033 -0.998748
vn -0.999175 -0.033563 0.022867
vn -0.999175 -0.033563 0.022867
vn -0.999175 -0.033563 0.022867
vn -0.999175 -0.033563 0.022867
s off
f 37/105/139 38/106/140 36/107/141 35/108/142
f 36/61/143 40/65/144 39/66/145 35/62/146
f 35/62/147 39/66/148 41/67/149 37/63/150
f 37/63/151 41/67/152 42/68/153 38/64/154
f 38/64/155 42/68/156 40/65/157 36/61/158
f 40/65/159 44/69/160 43/70/161 39/66/162
f 39/66/163 43/70/164 45/71/165 41/67/166
f 41/67/167 45/71/168 46/72/169 42/68/170
f 42/68/171 46/72/172 44/69/173 40/65/174
f 44/69/175 48/73/176 47/74/177 43/70/178
f 43/70/179 47/74/180 49/75/181 45/71/182
f 45/71/183 49/75/184 50/76/185 46/72/186
f 46/72/187 50/76/188 48/73/189 44/69/190
f 48/73/191 52/77/192 51/78/193 47/74/194
f 47/74/195 51/78/196 58/84/197 57/83/198 53/79/199 49/75/200
f 49/75/201 53/79/202 54/80/203 50/76/204
f 50/76/205 54/80/206 56/82/207 55/81/208 52/77/209 48/73/210
f 55/81/211 56/82/212 57/83/213 58/84/214
f 56/85/215 59/88/216 60/87/217 57/86/218
f 57/86/219 60/87/220 61/90/221 53/89/222
f 53/89/223 61/90/224 62/92/225 54/91/226
f 54/91/227 62/92/228 59/88/229 56/85/230
f 52/93/231 64/96/232 63/95/233 51/94/234
f 51/94/235 63/95/236 65/98/237 58/97/238
f 58/97/239 65/98/240 66/100/241 55/99/242
f 55/99/243 66/100/244 64/96/245 52/93/246
f 59/88/247 67/102/248 68/101/249 60/87/250
f 60/87/251 68/101/252 69/103/253 61/90/254
f 61/90/255 69/103/256 70/104/257 62/92/258
f 62/92/259 70/104/260 67/102/261 59/88/262
f 64/96/263 70/104/264 69/103/265 63/95/266
f 63/95/267 69/103/268 68/101/269 65/98/270
f 65/98/271 68/101/272 67/102/273 66/100/274
f 66/100/275 67/102/276 70/104/277 64/96/278
v -50.000000 96.448303 64.823975
v -2.617188 96.448303 64.823975
v -50.000000 2.239540 64.823975
v -2.617188 2.239540 64.823975
v -49.881226 96.448303 68.006348
v -2.617188 96.448303 68.006348
v -49.881226 2.239540 68.006348
v -2.617188 2.239540 68.006348
v -47.503418 94.280891 68.006348
v -5.113770 94.280891 68.006348
v -47.503418 4.406937 68.006348
v -5.113770 4.406937 68.006348
v -43.790649 91.307175 66.243164
v -8.826416 91.307175 66.243164
v -43.790649 7.380669 66.243164
v -8.826416 7.380669 66.243164
v -40.192932 28.617123 66.243164
v -36.602234 28.617123 66.243164
v -40.192932 10.965698 66.243164
v -36.602234 10.965698 66.243164
v -36.602234 26.612579 66.243164
v -36.602234 12.970238 66.243164
v -40.192932 12.970238 66.243164
v -40.192932 26.612579 66.243164
v -37.182800 13.463470 69.383789
v -39.612366 13.463470 69.383789
v -39.612366 11.629631 70.484619
v -37.182800 11.629631 70.484619
v -39.612366 27.953182 70.484619
v -37.182800 27.953182 70.484619
v -39.612366 26.119358 69.383789
v -37.182800 26.119358 69.383789
v -37.446228 19.583973 69.711182
v -39.348938 19.583973 69.711182
v -39.348938 19.583973 71.302002
v -37.446228 19.583973 71.302002
vt 0.069775 0.378683
vt 0.069775 0.378683
vt 0.069775 0.378683
vt 0.069775 0.378683
vt 0.069775 0.378683
vt 0.069775 0.378683
vt 0.069775 0.378683
vt 0.069775 0.378683
vt 0.069775 0.378683
vt 0.069775 0.378683
vt 0.069775 0.378683
vt 0.069775 0.378683
vt 0.069775 0.378683
vt 0.069775 0.378683
vt 0.069775 0.378683
vt 0.069775 0.378683
vt 0.069775 0.378683
vt 0.069775 0.378683
vt 0.069775 0.378683
vt 0.069775 0.378683
vt 0.069775 0.378683
vt 0.069775 0.378683
vt 0.069775 0.378683
vt 0.069775 0.378683
vt 0.101807 0.228603
vt 0.101807 0.228603
vt 0.101807 0.228603
vt 0.101807 0.228603
vt 0.101807 0.228607
vt 0.101807 0.228607
vt 0.101807 0.228607
vt 0.101807 0.228607
vt 0.101807 0.228603
vt 0.101807 0.228603
vt 0.101807 0.228603
vt 0.101807 0.228603
vt 0.101807 0.228603
vt 0.101807 0.228603
vt 0.101807 0.228603
vt 0.101807 0.228603
vt 0.101807 0.228603
vt 0.101807 0.228603
vt 0.101807 0.228603
vt 0.101807 0.228603
vt 0.038330 0.349976
vt 0.038330 0.349976
vt 0.038330 0.349977
vt 0.038330 0.349977
vn 0.000000 0.000000 -1.000000
vn 0.000000 0.000000 -1.000000
vn 0.000000 0.000000 -1.000000
vn 0.000000 0.000000 -1.000000
vn 0.000000 1.000000 0.000000
vn 0.000000 1.000000 0.000000
vn 0.000000 1.000000 0.000000
vn 0.000000 1.000000 0.000000
vn -0.999304 0.000000 0.037297
vn -0.999304 0.000000 0.037297
vn -0.999304 0.000000 0.037297
vn -0.999304 0.000000 0.037297
vn 0.000000 -1.000000 0.000000
vn 0.000000 -1.000000 0.000000
vn 0.000000 -1.000000 0.000000
vn 0.000000 -1.000000 0.000000
vn 1.000000 0.000000 0.000000
vn 1.000000 0.000000 0.000000
vn 1.000000 0.000000 0.000000
vn 1.000000 0.000000 0.000000
vn 0.000000 0.000000 1.000000
vn 0.000000 0.000000 1.000000
vn 0.000000 0.000000 1.000000
vn 0.000000 0.000000 1.000000
vn 0.000001 0.000000 1.000000
vn 0.000001 0.000000 1.000000
vn 0.000001 0.000000 1.000000
vn 0.000001 0.000000 1.000000
vn 0.000000 0.000000 1.000000
vn 0.000000 0.000000 1.000000
vn 0.000000 0.000000 1.000000
vn 0.000000 0.000000 1.000000
vn 0.000001 0.000000 1.000000
vn 0.000001 0.000000 1.000000
vn 0.000001 0.000000 1.000000
vn 0.000001 0.000000 1.000000
vn 0.000000 -0.510012 0.860167
vn 0.000000 -0.510012 0.860167
vn 0.000000 -0.510012 0.860167
vn 0.000000 -0.510012 0.860167
vn 0.428982 0.000000 0.903313
vn 0.428982 0.000000 0.903313
vn 0.428982 0.000000 0.903313
vn 0.428982 0.000000 0.903313
vn 0.000000 0.510011 0.860168
vn 0.000000 0.510011 0.860168
vn 0.000000 0.510011 0.860168
vn 0.000000 0.510011 0.860168
vn -0.428994 0.000000 0.903308
vn -0.428993 0.000000 0.903308
vn -0.428994 0.000000 0.903308
vn -0.428994 0.000000 0.903308
vn 0.000000 0.000000 1.000000
vn 0.000000 0.000000 1.000000
vn 0.000000 0.000000 1.000000
vn 0.000000 0.000000 1.000000
vn -0.000003 0.000000 1.000000
vn -0.000003 0.000000 1.000000
vn -0.000003 0.000000 1.000000
vn -0.000003 0.000000 1.000000
vn -0.000003 0.000000 1.000000
vn -0.000003 0.000000 1.000000
vn 0.000000 0.000000 1.000000
vn 0.000000 0.000000 1.000000
vn 0.000000 0.000000 1.000000
vn 0.000000 0.000000 1.000000
vn 0.000000 0.000000 1.000000
vn 0.000000 0.000000 1.000000
vn 0.000000 0.000000 1.000000
vn 0.000000 0.000000 1.000000
vn 0.000000 0.000000 1.000000
vn 0.000000 0.000000 1.000000
vn 0.000000 0.000000 1.000000
vn 0.000000 0.000000 1.000000
vn 0.000000 0.000000 1.000000
vn 0.000000 0.000000 1.000000
vn 0.000000 0.987891 -0.155147
vn 0.000000 0.987891 -0.155147
vn 0.000000 0.987891 -0.155147
vn 0.000000 0.987891 -0.155147
vn -0.987960 0.042650 0.148712
vn -0.987960 0.042650 0.148712
vn -0.987960 0.042650 0.148712
vn -0.987960 0.042650 0.148712
vn 0.000000 -0.987969 0.154651
vn 0.000000 -0.987969 0.154651
vn 0.000000 -0.987969 0.154651
vn 0.000000 -0.987969 0.154651
vn 0.987960 0.042651 0.148712
vn 0.987960 0.042651 0.148712
vn 0.987960 0.042651 0.148712
vn 0.987960 0.042651 0.148712
vn 0.000000 0.987969 0.154653
vn 0.000000 0.987969 0.154653
vn 0.000000 0.987969 0.154653
vn 0.000000 0.987969 0.154653
vn -0.987961 -0.042650 0.148711
vn -0.987961 -0.042650 0.148711
vn -0.987961 -0.042650 0.148711
vn -0.987961 -0.042650 0.148711
vn 0.000000 -0.987892 -0.155143
vn 0.000000 -0.987892 -0.155143
vn 0.000000 -0.987892 -0.155143
vn 0.000000 -0.987892 -0.155143
vn 0.987960 -0.042650 0.148711
vn 0.987960 -0.042650 0.148711
vn 0.987961 -0.042650 0.148711
vn 0.987960 -0.042650 0.148711
vn 0.000000 0.053415 -0.998572
vn 0.000000 0.053415 -0.998572
vn 0.000000 0.053415 -0.998572
vn 0.000000 0.053415 -0.998572
vn -0.999080 0.035434 0.024142
vn -0.999080 0.035434 0.024142
vn -0.999080 0.035434 0.024142
vn -0.999080 0.035434 0.024142
vn 0.000000 -0.102221 0.994762
vn 0.000000 -0.102221 0.994762
vn 0.000000 -0.102221 0.994762
vn 0.000000 -0.102221 0.994762
vn 0.999080 0.035435 0.024142
vn 0.999080 0.035435 0.024142
vn 0.999080 0.035435 0.024142
vn 0.999080 0.035435 0.024142
vn 0.000000 0.097203 0.995265
vn 0.000000 0.097203 0.995265
vn 0.000000 0.097203 0.995265
vn 0.000000 0.097203 0.995265
vn -0.999175 -0.033563 0.022867
vn -0.999175 -0.033563 0.022867
vn -0.999175 -0.033563 0.022867
vn -0.999175 -0.033563 0.022867
vn 0.000000 -0.050033 -0.998748
vn 0.000000 -0.050033 -0.998748
vn 0.000000 -0.050033 -0.998748
vn 0.000000 -0.050033 -0.998748
vn 0.999175 -0.033563 0.022867
vn 0.999175 -0.033563 0.022867
vn 0.999175 -0.033563 0.022867
vn 0.999175 -0.033563 0.022867
s off
f 73/153/279 71/156/280 72/155/281 74/154/282
f 72/109/283 71/110/284 75/114/285 76/113/286
f 71/110/287 73/111/288 77/115/289 75/114/290
f 73/111/291 74/112/292 78/116/293 77/115/294
f 74/112/295 72/109/296 76/113/297 78/116/298
f 76/113/299 75/114/300 79/118/301 80/117/302
f 75/114/303 77/115/304 81/119/305 79/118/306
f 77/115/307 78/116/308 82/120/309 81/119/310
f 78/116/311 76/113/312 80/117/313 82/120/314
f 80/117/315 79/118/316 83/122/317 84/121/318
f 79/118/319 81/119/320 85/123/321 83/122/322
f 81/119/323 82/120/324 86/124/325 85/123/326
f 82/120/327 80/117/328 84/121/329 86/124/330
f 84/121/331 83/122/332 87/126/333 88/125/334
f 83/122/335 85/123/336 89/127/337 93/131/338 94/132/339 87/126/340
f 85/123/341 86/124/342 90/128/343 89/127/344
f 86/124/345 84/121/346 88/125/347 91/129/348 92/130/349 90/128/350
f 91/129/351 94/132/352 93/131/353 92/130/354
f 92/133/355 93/134/356 96/135/357 95/136/358
f 93/134/359 89/137/360 97/138/361 96/135/362
f 89/137/363 90/139/364 98/140/365 97/138/366
f 90/139/367 92/133/368 95/136/369 98/140/370
f 88/141/371 87/142/372 99/143/373 100/144/374
f 87/142/375 94/145/376 101/146/377 99/143/378
f 94/145/379 91/147/380 102/148/381 101/146/382
f 91/147/383 88/141/384 100/144/385 102/148/386
f 95/136/387 96/135/388 104/149/389 103/150/390
f 96/135/391 97/138/392 105/151/393 104/149/394
f 97/138/395 98/140/396 106/152/397 105/151/398
f 98/140/399 95/136/400 103/150/401 106/152/402
f 100/144/403 99/143/404 105/151/405 106/152/406
f 99/143/407 101/146/408 104/149/409 105/151/410
f 101/146/411 102/148/412 103/150/413 104/149/414
f 102/148/415 100/144/416 106/152/417 103/150/418
