# This file uses meters as units for non-parametric coordinates.

v -40.826141 3.292648 3.826813
v -45.258484 3.292648 3.826813
v -41.069916 2.956223 5.670990
v -45.010254 2.956223 5.670990
v -41.069916 -1.362320 5.670990
v -45.010254 -1.362320 5.670990
v -40.826141 -1.698684 3.826813
v -45.258484 -1.698684 3.826813
v 45.785919 3.292648 3.826813
v 41.353607 3.292648 3.826813
v 45.537720 2.956223 5.670990
v 41.597382 2.956223 5.670990
v 45.537720 -1.362320 5.670990
v 41.597382 -1.362320 5.670990
v 45.785919 -1.698684 3.826813
v 41.353607 -1.698684 3.826813
v 49.165924 23.308640 0.000000
v -49.165924 23.308640 0.000000
v 49.165924 23.308640 3.826813
v -49.165924 23.308640 3.826813
v 49.165924 -23.308640 3.826813
v -49.165924 -23.308640 3.826813
v 49.165924 -23.308640 0.000000
v -49.165924 -23.308640 0.000000
v 37.523621 13.404251 3.826813
v -37.523132 13.404251 3.826813
v -37.523132 -13.404312 3.826813
v 37.523621 -13.404312 3.826813
v 2.888611 13.404251 3.826813
v 2.888611 -13.404312 3.826813
v -2.888123 13.404251 3.826813
v -2.888123 -13.404312 3.826813
v 9.815491 13.404251 3.826813
v 9.815491 -13.404312 3.826813
v 16.742737 13.404251 3.826813
v 16.742737 -13.404312 3.826813
v 23.669373 13.404251 3.826813
v 23.669373 -13.404312 3.826813
v 30.596375 13.404251 3.826813
v 30.596375 -13.404312 3.826813
v -30.596375 13.404251 3.826813
v -30.596375 -13.404312 3.826813
v -23.669128 13.404251 3.826813
v -23.669128 -13.404312 3.826813
v -16.742249 13.404251 3.826813
v -16.742249 -13.404312 3.826813
v -9.815491 13.404251 3.826813
v -9.815491 -13.404312 3.826813
v 36.519592 12.309708 0.867279
v 30.596375 13.404251 3.826813
v 30.596375 -13.404312 3.826813
v 36.519592 -12.309769 0.867279
v -3.892151 12.309708 0.867279
v -3.892151 -12.309769 0.867279
v -9.815491 13.404251 3.826813
v -9.815491 -13.404312 3.826813
v 8.811462 12.309708 0.867279
v 2.888611 13.404251 3.826813
v 2.888611 -13.404312 3.826813
v 8.811462 -12.309769 0.867279
v 22.665466 12.309708 0.867279
v 16.742737 13.404251 3.826813
v 16.742737 -13.404312 3.826813
v 22.665466 -12.309769 0.867279
v -31.600403 12.309708 0.867279
v -31.600403 -12.309769 0.867279
v -37.523132 13.404251 3.826813
v -37.523132 -13.404312 3.826813
v -17.746155 12.309708 0.867279
v -17.746155 -12.309769 0.867279
v -23.669128 13.404251 3.826813
v -23.669128 -13.404312 3.826813
v 15.738708 12.309708 0.867279
v 9.815491 13.404251 3.826813
v 9.815491 -13.404312 3.826813
v 15.738708 -12.309769 0.867279
v 29.592346 12.309708 0.867279
v 23.669373 13.404251 3.826813
v 23.669373 -13.404312 3.826813
v 29.592346 -12.309769 0.867279
v -24.673157 12.309708 0.867279
v -24.673157 -12.309769 0.867279
v -30.596375 13.404251 3.826813
v -30.596375 -13.404312 3.826813
v -10.819519 12.309708 0.867279
v -10.819519 -12.309769 0.867279
v -16.742249 13.404251 3.826813
v -16.742249 -13.404312 3.826813
v 0.000061 23.308640 3.826813
v 0.000061 23.308640 0.000000
v 0.000061 -23.308640 0.000000
v 0.000061 -23.308640 3.826813
vt 0.101014 0.303477
vt 0.101014 0.303477
vt 0.101014 0.303477
vt 0.101014 0.303477
vt 0.101014 0.303477
vt 0.101014 0.303477
vt 0.101014 0.303477
vt 0.101014 0.303477
vt 0.101014 0.303477
vt 0.101014 0.303477
vt 0.101014 0.303477
vt 0.101014 0.303477
vt 0.101014 0.303477
vt 0.101014 0.303477
vt 0.101014 0.303477
vt 0.101014 0.303477
vt 0.101014 0.303477
vt 0.101014 0.303477
vt 0.101014 0.303477
vt 0.101014 0.303477
vt 0.101014 0.303477
vt 0.101014 0.303477
vt 0.101014 0.303477
vt 0.101014 0.303477
vt 0.135170 0.357078
vt 0.135170 0.357078
vt 0.135170 0.357078
vt 0.135170 0.357078
vt 0.135170 0.357078
vt 0.135170 0.357078
vt 0.135170 0.357078
vt 0.099423 0.229633
vt 0.135170 0.357078
vt 0.135170 0.357078
vt 0.135170 0.357078
vt 0.135170 0.357078
vt 0.135170 0.357078
vt 0.135170 0.357078
vt 0.135170 0.357078
vt 0.135170 0.357078
vt 0.135170 0.357078
vt 0.135170 0.357078
vt 0.135170 0.357078
vt 0.135170 0.357078
vt 0.135170 0.357078
vt 0.135170 0.357078
vt 0.135170 0.357078
vt 0.135170 0.357078
vt 0.135170 0.357078
vt 0.135170 0.357078
vt 0.099423 0.229633
vt 0.135170 0.357078
vt 0.135170 0.357078
vt 0.135170 0.357078
vt 0.135170 0.357078
vt 0.135170 0.357078
vt 0.135170 0.357078
vt 0.135170 0.357078
vt 0.135170 0.357078
vt 0.135170 0.357078
vt 0.135170 0.357078
vt 0.099423 0.229633
vt 0.135170 0.357078
vt 0.135170 0.357078
vt 0.135170 0.357078
vt 0.099423 0.229633
vt 0.135170 0.357078
vt 0.135170 0.357078
vt 0.135170 0.357078
vt 0.099423 0.229633
vt 0.135170 0.357078
vt 0.135170 0.357078
vt 0.135170 0.357078
vt 0.099423 0.229633
vt 0.135170 0.357078
vt 0.135170 0.357078
vt 0.135170 0.357078
vt 0.135170 0.357078
vt 0.135170 0.357078
vt 0.135170 0.357078
vt 0.135170 0.357078
vt 0.135170 0.357078
vt 0.135170 0.357078
vt 0.135170 0.357078
vt 0.135170 0.357078
vt 0.135170 0.357078
vt 0.135170 0.357078
vt 0.135170 0.357078
vt 0.135170 0.357078
vt 0.135170 0.357078
vt 0.135170 0.357078
vt 0.135170 0.357078
vt 0.135170 0.357078
vt 0.135170 0.357078
vt 0.135170 0.357078
vt 0.135170 0.357078
vt 0.135170 0.357078
vt 0.135170 0.357078
vt 0.135170 0.357078
vt 0.135170 0.357078
vt 0.135170 0.357078
vt 0.135170 0.357078
vt 0.135170 0.357078
vt 0.135170 0.357078
vt 0.135170 0.357078
vt 0.135170 0.357078
vt 0.135170 0.357078
vt 0.099423 0.229633
vt 0.099423 0.229633
vt 0.099423 0.229633
vt 0.099423 0.229633
vt 0.099423 0.229633
vt 0.099423 0.229633
vt 0.099423 0.229633
vt 0.099423 0.229633
vt 0.099423 0.229633
vt 0.135170 0.357078
vt 0.099423 0.229633
vt 0.099423 0.229633
vt 0.099423 0.229633
vt 0.135170 0.357078
vt 0.099423 0.229633
vt 0.099423 0.229633
vt 0.099423 0.229633
vt 0.099423 0.229633
vt 0.099423 0.229633
vt 0.099423 0.229633
vt 0.099423 0.229633
vt 0.099423 0.229633
vt 0.099423 0.229633
vt 0.099423 0.229633
vt 0.099423 0.229633
vt 0.135170 0.357078
vt 0.099423 0.229633
vt 0.099423 0.229633
vt 0.099423 0.229633
vt 0.135170 0.357078
vt 0.099423 0.229633
vt 0.099423 0.229633
vt 0.099423 0.229633
vt 0.099423 0.229633
vt 0.099423 0.229633
vt 0.099423 0.229633
vt 0.099423 0.229633
vt 0.135170 0.357078
vt 0.135170 0.357078
vt 0.099423 0.229633
vn 0.000000 0.983765 0.179464
vn 0.000000 0.983765 0.179464
vn 0.000000 0.983765 0.179464
vn 0.000000 0.983765 0.179464
vn 0.000000 0.000000 1.000000
vn 0.000000 0.000000 1.000000
vn 0.000000 0.000000 1.000000
vn 0.000000 0.000000 1.000000
vn 0.000000 -0.983770 0.179432
vn 0.000000 -0.983770 0.179432
vn 0.000000 -0.983770 0.179432
vn 0.000000 -0.983770 0.179432
vn -0.991062 0.000000 0.133399
vn -0.991062 0.000000 0.133399
vn -0.991062 0.000000 0.133399
vn -0.991062 0.000000 0.133399
vn 0.991376 0.000000 0.131046
vn 0.991376 0.000000 0.131046
vn 0.991376 0.000000 0.131046
vn 0.991376 0.000000 0.131046
vn 0.000000 0.983765 0.179464
vn 0.000000 0.983765 0.179464
vn 0.000000 0.983765 0.179464
vn 0.000000 0.983765 0.179464
vn 0.000000 0.000000 1.000000
vn 0.000000 0.000000 1.000000
vn 0.000000 0.000000 1.000000
vn 0.000000 0.000000 1.000000
vn 0.000000 -0.983770 0.179433
vn 0.000000 -0.983770 0.179433
vn 0.000000 -0.983770 0.179433
vn 0.000000 -0.983770 0.179433
vn -0.991376 0.000000 0.131046
vn -0.991376 0.000000 0.131046
vn -0.991376 0.000000 0.131046
vn -0.991376 0.000000 0.131046
vn 0.991065 0.000000 0.133383
vn 0.991065 0.000000 0.133383
vn 0.991065 0.000000 0.133383
vn 0.991065 0.000000 0.133383
vn 0.000000 1.000000 0.000000
vn 0.000000 1.000000 0.000000
vn 0.000000 1.000000 0.000000
vn 0.000000 1.000000 0.000000
vn 0.446963 0.000000 0.894553
vn 0.446963 0.000000 0.894553
vn 0.446963 0.000000 0.894553
vn 0.446963 0.000000 0.894553
vn 0.000000 -1.000000 0.000000
vn 0.000000 -1.000000 0.000000
vn 0.000000 -1.000000 0.000000
vn 0.000000 -1.000000 0.000000
vn 0.000000 0.000000 -1.000000
vn 0.000000 0.000000 -1.000000
vn 0.000000 0.000000 -1.000000
vn 0.000000 0.000000 -1.000000
vn -1.000000 0.000000 0.000000
vn -1.000000 0.000000 0.000000
vn -1.000000 0.000000 0.000000
vn -1.000000 0.000000 0.000000
vn 1.000000 0.000000 0.000000
vn 1.000000 0.000000 0.000000
vn 1.000000 0.000000 0.000000
vn 1.000000 0.000000 0.000000
vn 0.000000 0.000000 1.000000
vn 0.000000 0.000000 1.000000
vn 0.000000 0.000000 1.000000
vn -0.000000 0.000000 1.000000
vn -0.000000 0.000000 1.000000
vn -0.000000 0.000000 1.000000
vn -0.000000 0.000000 1.000000
vn 0.000000 0.000000 1.000000
vn 0.000000 0.000000 1.000000
vn 0.000000 0.000000 1.000000
vn 0.000000 0.000000 1.000000
vn 0.000000 0.000000 1.000000
vn 0.000000 0.000000 1.000000
vn 0.000000 0.000000 1.000000
vn 0.000000 0.000000 1.000000
vn 0.000000 0.000000 1.000000
vn 0.000000 0.000000 1.000000
vn 0.000000 0.000000 1.000000
vn 0.446956 0.000000 0.894556
vn 0.446956 0.000000 0.894556
vn 0.446956 0.000000 0.894556
vn 0.446956 0.000000 0.894556
vn 0.446985 0.000000 0.894542
vn 0.446985 0.000000 0.894542
vn 0.446985 0.000000 0.894542
vn 0.446985 0.000000 0.894542
vn 0.446963 0.000000 0.894553
vn 0.446963 0.000000 0.894553
vn 0.446963 0.000000 0.894553
vn 0.446963 0.000000 0.894553
vn 0.446992 0.000000 0.894538
vn 0.446992 0.000000 0.894538
vn 0.446992 0.000000 0.894538
vn 0.446992 0.000000 0.894538
vn 0.446978 0.000000 0.894545
vn 0.446978 0.000000 0.894545
vn 0.446978 0.000000 0.894545
vn 0.446978 0.000000 0.894545
vn 0.446992 0.000000 0.894538
vn 0.446992 0.000000 0.894538
vn 0.446992 0.000000 0.894538
vn 0.446992 0.000000 0.894538
vn 0.446963 0.000000 0.894553
vn 0.446963 0.000000 0.894553
vn 0.446963 0.000000 0.894553
vn 0.446963 0.000000 0.894553
vn 0.446978 0.000000 0.894545
vn 0.446978 0.000000 0.894545
vn 0.446978 0.000000 0.894545
vn 0.446978 0.000000 0.894545
vn 0.446992 0.000000 0.894538
vn 0.446992 0.000000 0.894538
vn 0.446992 0.000000 0.894538
vn 0.446992 0.000000 0.894538
vn 0.000000 -0.937912 0.346874
vn 0.000000 -0.000000 0.000000
vn 0.000000 -0.000000 0.000000
vn 0.000000 -0.937912 0.346874
vn 0.000000 0.000000 0.000000
vn 0.000000 0.000000 0.000000
vn 0.000000 0.000000 0.000000
vn 0.000000 0.000000 0.000000
vn 0.000000 0.000000 0.000000
vn 0.000000 0.937912 0.346874
vn 0.000000 0.937912 0.346874
vn 0.000000 0.000000 0.000000
vn -0.946988 0.000000 0.321268
vn -0.946988 0.000000 0.321268
vn -0.946988 0.000000 0.321268
vn -0.946988 0.000000 0.321268
vn -0.946988 0.000000 0.321268
vn -0.946988 0.000000 0.321268
vn -0.946988 0.000000 0.321268
vn -0.946988 0.000000 0.321268
vn 0.000000 -0.937912 0.346874
vn 0.000000 -0.000000 0.000000
vn 0.000000 -0.000000 0.000000
vn 0.000000 -0.937912 0.346874
vn 0.000000 0.000000 0.000000
vn 0.000000 0.000000 0.000000
vn 0.000000 0.000000 0.000000
vn 0.000000 0.000000 0.000000
vn 0.000000 0.000000 0.000000
vn 0.000000 0.937912 0.346874
vn 0.000000 0.937912 0.346874
vn 0.000000 0.000000 0.000000
vn 0.000000 -0.937912 0.346874
vn 0.000000 -0.000000 0.000000
vn 0.000000 -0.000000 0.000000
vn 0.000000 -0.937912 0.346874
vn 0.000000 0.000000 0.000000
vn 0.000000 0.000000 0.000000
vn 0.000000 0.000000 0.000000
vn 0.000000 0.000000 0.000000
vn 0.000000 0.000000 0.000000
vn 0.000000 0.937912 0.346873
vn 0.000000 0.937912 0.346873
vn 0.000000 0.000000 0.000000
vn -0.946988 0.000000 0.321268
vn -0.946988 0.000000 0.321268
vn -0.946988 0.000000 0.321268
vn -0.946988 0.000000 0.321268
vn 0.000000 -0.937912 0.346874
vn 0.000000 -0.000000 0.000000
vn 0.000000 -0.000000 0.000000
vn 0.000000 -0.937912 0.346874
vn 0.000000 0.000000 0.000000
vn 0.000000 0.000000 0.000000
vn 0.000000 0.000000 0.000000
vn 0.000000 0.000000 0.000000
vn 0.000000 0.000000 0.000000
vn 0.000000 0.937912 0.346874
vn 0.000000 0.937912 0.346874
vn 0.000000 0.000000 0.000000
vn -0.947000 0.000000 0.321233
vn -0.947000 0.000000 0.321233
vn -0.947000 0.000000 0.321233
vn -0.947000 0.000000 0.321233
vn -0.946988 0.000000 0.321268
vn -0.946988 0.000000 0.321268
vn -0.946988 0.000000 0.321268
vn -0.946988 0.000000 0.321268
vn 0.000000 -0.937912 0.346874
vn 0.000000 -0.000000 0.000000
vn 0.000000 -0.000000 0.000000
vn 0.000000 -0.937912 0.346874
vn 0.000000 0.000000 0.000000
vn 0.000000 0.000000 0.000000
vn 0.000000 0.000000 0.000000
vn 0.000000 0.000000 0.000000
vn 0.000000 0.000000 0.000000
vn 0.000000 0.937912 0.346874
vn 0.000000 0.937912 0.346874
vn 0.000000 0.000000 0.000000
vn -0.947000 0.000000 0.321233
vn -0.947000 0.000000 0.321233
vn -0.947000 0.000000 0.321233
vn -0.947000 0.000000 0.321233
vn 0.000000 -0.937912 0.346874
vn 0.000000 -0.000000 0.000000
vn 0.000000 -0.000000 0.000000
vn 0.000000 -0.937912 0.346874
vn 0.000000 0.000000 0.000000
vn 0.000000 0.000000 0.000000
vn 0.000000 0.000000 0.000000
vn 0.000000 0.000000 0.000000
vn 0.000000 0.000000 0.000000
vn 0.000000 0.937912 0.346874
vn 0.000000 0.937912 0.346874
vn 0.000000 0.000000 0.000000
vn 0.000000 -0.937912 0.346874
vn 0.000000 -0.000000 0.000000
vn 0.000000 -0.000000 0.000000
vn 0.000000 -0.937912 0.346874
vn 0.000000 0.000000 0.000000
vn 0.000000 0.000000 0.000000
vn 0.000000 0.000000 0.000000
vn 0.000000 0.000000 0.000000
vn 0.000000 0.000000 0.000000
vn 0.000000 0.937912 0.346874
vn 0.000000 0.937912 0.346874
vn 0.000000 0.000000 0.000000
vn -0.946988 0.000000 0.321268
vn -0.946988 0.000000 0.321268
vn -0.946988 0.000000 0.321268
vn -0.946988 0.000000 0.321268
vn 0.000000 -0.937912 0.346874
vn 0.000000 -0.000000 0.000000
vn 0.000000 -0.000000 0.000000
vn 0.000000 -0.937912 0.346874
vn 0.000000 0.000000 0.000000
vn 0.000000 0.000000 0.000000
vn 0.000000 0.000000 0.000000
vn 0.000000 0.000000 0.000000
vn 0.000000 0.000000 0.000000
vn 0.000000 0.937912 0.346875
vn 0.000000 0.937912 0.346875
vn 0.000000 0.000000 0.000000
vn -0.946988 0.000000 0.321268
vn -0.946988 0.000000 0.321268
vn -0.946988 0.000000 0.321268
vn -0.946988 0.000000 0.321268
vn -0.946988 0.000000 0.321268
vn -0.946988 0.000000 0.321268
vn -0.946988 0.000000 0.321268
vn -0.946988 0.000000 0.321268
vn 0.000000 -0.937912 0.346874
vn 0.000000 -0.000000 0.000000
vn 0.000000 -0.000000 0.000000
vn 0.000000 -0.937912 0.346874
vn 0.000000 0.000000 0.000000
vn 0.000000 0.000000 0.000000
vn 0.000000 0.000000 0.000000
vn 0.000000 0.000000 0.000000
vn 0.000000 0.000000 0.000000
vn 0.000000 0.937912 0.346874
vn 0.000000 0.937912 0.346874
vn 0.000000 0.000000 0.000000
vn -0.946988 0.000000 0.321268
vn -0.946988 0.000000 0.321268
vn -0.946988 0.000000 0.321268
vn -0.946988 0.000000 0.321268
vn 0.000000 -0.937912 0.346874
vn 0.000000 -0.000000 0.000000
vn 0.000000 -0.000000 0.000000
vn 0.000000 -0.937912 0.346874
vn 0.000000 0.000000 0.000000
vn 0.000000 0.000000 0.000000
vn 0.000000 0.000000 0.000000
vn 0.000000 0.000000 0.000000
vn 0.000000 0.000000 0.000000
vn 0.000000 0.937912 0.346874
vn 0.000000 0.937912 0.346874
vn 0.000000 0.000000 0.000000
vn 0.000000 1.000000 0.000000
vn 0.000000 1.000000 0.000000
vn 0.000000 1.000000 0.000000
vn 0.000000 1.000000 0.000000
vn 0.000000 0.000000 -1.000000
vn 0.000000 0.000000 -1.000000
vn 0.000000 0.000000 -1.000000
vn 0.000000 0.000000 -1.000000
vn 0.000000 -1.000000 0.000000
vn 0.000000 -1.000000 0.000000
vn 0.000000 -1.000000 0.000000
vn 0.000000 -1.000000 0.000000
vn 0.000000 0.000000 1.000000
vn 0.000000 0.000000 1.000000
vn 0.000000 0.000000 1.000000
vn 0.000000 0.000000 1.000000
vn 0.000000 0.000000 1.000000
vn 0.000000 0.000000 1.000000
vn 0.000000 0.000000 1.000000
vn 0.000000 0.000000 1.000000
vn 0.000000 0.000000 1.000000
vn 0.000000 0.000000 1.000000
vn 0.000000 0.000000 1.000000
vn 0.000000 0.000000 1.000000
vn 0.000000 0.000000 1.000000
vn 0.000000 0.000000 1.000000
vn 0.000000 0.000000 1.000000
vn 0.000000 0.000000 1.000000
vn 0.000000 0.000000 1.000000
vn 0.000000 0.000000 1.000000
vn 0.000000 0.000000 1.000000
vn 0.000000 0.000000 1.000000
vn 0.000000 0.000000 1.000000
vn 0.000000 0.000000 1.000000
vn 0.000000 0.000000 1.000000
vn 0.000000 0.000000 1.000000
vn 0.000000 0.000000 1.000000
vn 0.000000 0.000000 1.000000
vn 0.000000 0.000000 1.000000
vn 0.000000 0.000000 1.000000
vn 0.000000 0.000000 1.000000
vn 0.000000 0.000000 1.000000
vn 0.000000 0.000000 1.000000
vn 0.000000 0.000000 1.000000
vn 0.000000 0.000000 1.000000
vn 0.000000 0.000000 1.000000
vn 0.000000 0.000000 1.000000
vn 0.000000 0.000000 1.000000
vn 0.000000 0.000000 1.000000
vn 0.000000 0.000000 1.000000
vn 0.000000 0.000000 1.000000
vn 0.000000 0.000000 1.000000
vn 0.000000 0.000000 1.000000
vn 0.000000 0.000000 1.000000
vn 0.000000 0.000000 1.000000
vn 0.000000 0.000000 1.000000
vn 0.000000 0.000000 1.000000
vn 0.000000 0.000000 1.000000
vn 0.000000 0.000000 1.000000
vn 0.000000 0.000000 1.000000
vn 0.000000 0.000000 1.000000
vn 0.000000 0.000000 1.000000
vn 0.000000 0.000000 1.000000
vn 0.000000 0.000000 1.000000
vn 0.000000 0.000000 1.000000
vn 0.000000 0.000000 1.000000
vn 0.000000 0.000000 1.000000
vn 0.000000 0.000000 1.000000
vn 0.000000 0.000000 1.000000
vn 0.000000 0.000000 1.000000
vn 0.000000 0.000000 1.000000
vn 0.000000 0.000000 1.000000
vn 0.000000 0.000000 1.000000
vn 0.000000 0.000000 1.000000
vn 0.000000 0.000000 1.000000
vn 0.000000 0.000000 1.000000
s off
f 1/1/1 2/2/2 4/4/3 3/3/4
f 3/3/5 4/4/6 6/6/7 5/5/8
f 5/5/9 6/6/10 8/8/11 7/7/12
f 2/2/13 8/9/14 6/10/15 4/4/16
f 7/11/17 1/1/18 3/3/19 5/12/20
f 9/13/21 10/14/22 12/15/23 11/16/24
f 11/16/25 12/15/26 14/17/27 13/18/28
f 13/18/29 14/17/30 16/19/31 15/20/32
f 10/14/33 16/21/34 14/22/35 12/15/36
f 15/23/37 9/13/38 11/16/39 13/24/40
f 89/25/41 90/26/42 18/27/43 20/28/44
f 49/29/45 50/30/46 51/31/47 52/145/48
f 91/33/49 92/34/50 22/35/51 24/36/52
f 90/37/53 91/33/54 24/36/55 18/38/56
f 18/27/57 24/39/58 22/40/59 20/28/60
f 23/41/61 17/42/62 19/43/63 21/44/64
f 29/45/65 89/25/66 31/46/67
f 20/28/68 22/35/69 27/47/70 26/48/71
f 40/49/72 21/50/73 28/146/74
f 21/50/75 19/43/76 25/52/77 28/146/78
f 32/53/79 30/54/80 29/45/81 31/46/82
f 54/55/83 53/56/84 55/57/85 56/58/86
f 57/59/87 58/60/88 59/61/89 60/137/90
f 73/63/91 74/64/92 75/65/93 76/121/94
f 61/67/95 62/68/96 63/69/97 64/133/98
f 77/71/99 78/72/100 79/73/101 80/117/102
f 66/75/103 65/76/104 67/77/105 68/78/106
f 82/79/107 81/80/108 83/81/109 84/82/110
f 70/83/111 69/84/112 71/85/113 72/86/114
f 86/87/115 85/88/116 87/89/117 88/90/118
f 25/52/119 39/91/120 50/30/121 49/29/122
f 39/91/123 40/49/124 51/31/125 50/30/126
f 40/49/127 28/146/128 52/145/129 51/31/130
f 28/51/131 25/147/132 49/144/133 52/32/134
f 32/142/135 31/143/136 53/140/137 54/141/138
f 31/46/139 47/92/140 55/57/141 53/56/142
f 47/92/143 48/93/144 56/58/145 55/57/146
f 48/93/147 32/53/148 54/55/149 56/58/150
f 33/94/151 29/45/152 58/60/153 57/59/154
f 29/45/155 30/54/156 59/61/157 58/60/158
f 30/54/159 34/95/160 60/137/161 59/61/162
f 34/138/163 33/139/164 57/136/165 60/62/166
f 37/96/167 35/97/168 62/68/169 61/67/170
f 35/97/171 36/98/172 63/69/173 62/68/174
f 36/98/175 38/99/176 64/133/177 63/69/178
f 38/134/179 37/135/180 61/132/181 64/70/182
f 42/130/183 41/131/184 65/128/185 66/129/186
f 41/101/187 26/48/188 67/77/189 65/76/190
f 26/48/191 27/47/192 68/78/193 67/77/194
f 27/47/195 42/100/196 66/75/197 68/78/198
f 46/126/199 45/127/200 69/124/201 70/125/202
f 45/103/203 43/104/204 71/85/205 69/84/206
f 43/104/207 44/105/208 72/86/209 71/85/210
f 44/105/211 46/102/212 70/83/213 72/86/214
f 35/97/215 33/94/216 74/64/217 73/63/218
f 33/94/219 34/95/220 75/65/221 74/64/222
f 34/95/223 36/98/224 76/121/225 75/65/226
f 36/122/227 35/123/228 73/120/229 76/66/230
f 39/91/231 37/96/232 78/72/233 77/71/234
f 37/96/235 38/99/236 79/73/237 78/72/238
f 38/99/239 40/49/240 80/117/241 79/73/242
f 40/118/243 39/119/244 77/116/245 80/74/246
f 44/114/247 43/115/248 81/112/249 82/113/250
f 43/104/251 41/101/252 83/81/253 81/80/254
f 41/101/255 42/100/256 84/82/257 83/81/258
f 42/100/259 44/105/260 82/79/261 84/82/262
f 48/110/263 47/111/264 85/108/265 86/109/266
f 47/92/267 45/103/268 87/89/269 85/88/270
f 45/103/271 46/102/272 88/90/273 87/89/274
f 46/102/275 48/93/276 86/87/277 88/90/278
f 17/42/279 90/26/280 89/25/281 19/43/282
f 23/106/283 91/33/284 90/37/285 17/107/286
f 21/50/287 92/34/288 91/33/289 23/106/290
f 19/43/291 37/96/292 39/91/293
f 47/92/294 89/25/295 45/103/296
f 22/35/297 44/105/298 42/100/299
f 32/53/300 92/34/301 30/54/302
f 30/54/303 92/34/304 34/95/305
f 38/99/306 21/50/307 40/49/308
f 34/95/309 92/34/310 36/98/311
f 36/98/312 92/34/313 21/50/314 38/99/315
f 19/43/316 39/91/317 25/52/318
f 35/97/319 89/25/320 33/94/321
f 19/43/322 89/25/323 35/97/324 37/96/325
f 33/94/326 89/25/327 29/45/328
f 31/46/329 89/25/330 47/92/331
f 43/104/332 20/28/333 41/101/334
f 45/103/335 89/25/336 20/28/337 43/104/338
f 41/101/339 20/28/340 26/48/341
f 22/35/342 42/100/343 27/47/344
f 46/102/345 92/34/346 48/93/347
f 22/35/348 92/34/349 46/102/350 44/105/351
f 48/93/352 92/34/353 32/53/354
