# This file uses meters as units for non-parametric coordinates.

v -20.597900 -36.164383 0.000000
v -20.597900 -36.164383 7.990356
v -20.597900 36.164383 0.000000
v -20.597900 36.164383 7.990356
v 20.597656 36.164383 0.000000
v 20.597656 36.164383 7.990356
v 20.597656 -36.164383 0.000000
v 20.597656 -36.164383 7.990356
v 18.281860 -33.879944 7.990356
v -18.282227 -33.879944 7.990356
v 18.281860 33.879974 7.990356
v -18.282227 33.879974 7.990356
v 14.865723 -30.650604 4.692993
v -14.865967 -30.650604 4.692993
v 14.865723 30.650742 4.692993
v -14.865967 30.650742 4.692993
v 20.597656 4.067078 7.990356
v 18.281860 4.067078 7.990356
v 14.865723 4.067078 4.692993
v -14.865967 4.067078 4.692993
v -18.282227 4.067078 7.990356
v -20.597900 4.067078 7.990356
v -20.597900 4.067078 0.000000
v 20.597656 4.067078 0.000000
v 7.663330 -24.646896 4.692993
v -7.663696 -24.646896 4.692993
v 7.663330 0.070374 4.692993
v -7.663696 0.070374 4.692993
v 3.084717 -21.426865 4.692993
v -3.085205 -21.426865 4.692993
v 3.084717 -14.805191 4.692993
v -3.085205 -14.805191 4.692993
v -0.000244 0.070374 4.692993
v -0.691895 0.070374 4.692993
v 0.691528 0.070374 4.692993
v -0.691895 -14.805191 4.692993
v 0.691528 -14.805191 4.692993
v 15.665039 -31.322327 6.341675
v -15.665283 -31.322327 6.341675
v -15.665283 4.067078 6.341675
v -15.665283 31.322403 6.341675
v 15.665039 31.322403 6.341675
v 15.665039 4.067078 6.341675
v 17.571899 33.311508 6.671387
v -17.572266 33.311508 6.671387
v -17.572266 4.067078 6.671387
v -17.572266 -33.311432 6.671387
v 17.571899 -33.311432 6.671387
v 17.571899 4.067078 6.671387
vt 0.036110 0.302989
vt 0.036110 0.302989
vt 0.036110 0.302989
vt 0.036110 0.302989
vt 0.036110 0.302989
vt 0.036110 0.302989
vt 0.036110 0.302989
vt 0.036110 0.302989
vt 0.036110 0.302989
vt 0.036110 0.302989
vt 0.036110 0.302989
vt 0.036110 0.302989
vt 0.036110 0.302989
vt 0.036110 0.302989
vt 0.036110 0.302989
vt 0.036110 0.302989
vt 0.036110 0.302989
vt 0.036110 0.302989
vt 0.036110 0.302989
vt 0.036110 0.302989
vt 0.036110 0.302989
vt 0.036110 0.302989
vt 0.421234 0.012993
vt 0.421234 0.012993
vt 0.036110 0.302989
vt 0.036110 0.302989
vt 0.036110 0.302989
vt 0.036110 0.302989
vt 0.421234 0.012993
vt 0.036110 0.302989
vt 0.421234 0.012993
vt 0.036110 0.302989
vt 0.036110 0.302989
vt 0.036110 0.302989
vt 0.036110 0.302989
vt 0.036110 0.302989
vt 0.392142 0.118561
vt 0.494727 0.118561
vt 0.494727 0.221146
vt 0.392142 0.221146
vt 0.421234 0.012993
vt 0.421234 0.012993
vt 0.421234 0.012993
vt 0.421234 0.012993
vt 0.102295 0.229172
vt 0.102295 0.229172
vt 0.102295 0.229172
vt 0.102295 0.229172
vt 0.102295 0.229172
vt 0.102295 0.229172
vt 0.102295 0.229172
vt 0.102295 0.229172
vt 0.132202 0.304764
vt 0.132202 0.304764
vt 0.132202 0.304764
vt 0.132202 0.304764
vt 0.134888 0.305649
vt 0.421234 0.012993
vt 0.102295 0.229172
vt 0.421234 0.012993
vt 0.102295 0.229172
vt 0.421234 0.012993
vt 0.132202 0.304764
vt 0.102295 0.229172
vt 0.132202 0.304764
vt 0.102295 0.229172
vt 0.134888 0.305649
vt 0.134888 0.305649
vt 0.134888 0.305649
vt 0.134888 0.305649
vt 0.036110 0.302989
vt 0.036110 0.302989
vt 0.036110 0.302989
vt 0.036110 0.302989
vt 0.036110 0.302989
vt 0.036110 0.302989
vt 0.036110 0.302989
vt 0.036110 0.302989
vt 0.036110 0.302989
vt 0.036110 0.302989
vt 0.036110 0.302989
vt 0.036110 0.302989
vn -1.000000 0.000000 0.000000
vn -1.000000 0.000000 0.000000
vn -1.000000 0.000000 0.000000
vn -1.000000 0.000000 0.000000
vn 0.000000 1.000000 0.000000
vn 0.000000 1.000000 0.000000
vn 0.000000 1.000000 0.000000
vn 0.000000 1.000000 0.000000
vn 1.000000 0.000000 0.000000
vn 1.000000 0.000000 0.000000
vn 1.000000 0.000000 0.000000
vn 1.000000 0.000000 0.000000
vn 0.000000 -1.000000 0.000000
vn 0.000000 -1.000000 0.000000
vn 0.000000 -1.000000 0.000000
vn 0.000000 -1.000000 0.000000
vn 0.000000 0.000000 1.000000
vn 0.000000 0.000000 1.000000
vn 0.000000 0.000000 1.000000
vn 0.000000 0.000000 -1.000000
vn 0.000000 0.000000 -1.000000
vn 0.000000 0.000000 -1.000000
vn 0.000000 0.000000 -1.000000
vn 0.000000 0.000000 1.000000
vn 0.000000 0.000000 1.000000
vn 0.000000 0.000000 1.000000
vn 0.000000 0.000000 1.000000
vn 0.000000 0.000000 1.000000
vn 0.000000 0.000000 1.000000
vn 0.000000 0.000000 1.000000
vn 0.000000 0.000000 1.000000
vn 0.000000 0.000000 1.000000
vn 0.000000 0.000000 1.000000
vn 0.000000 0.000000 1.000000
vn 0.000000 0.000000 1.000000
vn 0.000000 0.000000 1.000000
vn 0.000000 0.000000 1.000000
vn 0.000000 0.000000 1.000000
vn 0.000000 0.000000 1.000000
vn 0.000000 0.163527 0.986539
vn 0.000000 0.163527 0.986539
vn 0.000000 0.163527 0.986539
vn 0.000000 0.163527 0.986539
vn -0.170380 0.000000 0.985378
vn -0.170380 0.000000 0.985378
vn -0.170380 0.000000 0.985378
vn -0.170380 0.000000 0.985378
vn 0.000000 -0.163527 0.986539
vn 0.000000 -0.163527 0.986539
vn 0.000000 -0.163527 0.986539
vn 0.000000 -0.163527 0.986539
vn 0.170369 0.000000 0.985380
vn 0.170369 0.000000 0.985380
vn 0.170369 0.000000 0.985380
vn 0.170369 0.000000 0.985380
vn 0.000000 0.000000 1.000000
vn 0.000000 0.000000 1.000000
vn 0.000000 0.000000 1.000000
vn 0.000000 0.000000 1.000000
vn -0.170380 0.000000 0.985378
vn -0.170380 0.000000 0.985378
vn -0.170380 0.000000 0.985378
vn -0.170380 0.000000 0.985378
vn 0.000000 0.000000 1.000000
vn 0.000000 0.000000 1.000000
vn 0.000000 0.000000 1.000000
vn 0.000000 0.000000 1.000000
vn 0.170370 0.000000 0.985380
vn 0.170370 0.000000 0.985380
vn 0.170370 0.000000 0.985380
vn 0.170370 0.000000 0.985380
vn -0.000000 0.000000 1.000000
vn -0.000000 0.000000 1.000000
vn -0.000000 0.000000 1.000000
vn -0.000000 0.000000 1.000000
vn -1.000000 0.000000 0.000000
vn -1.000000 0.000000 0.000000
vn -1.000000 0.000000 0.000000
vn -1.000000 0.000000 0.000000
vn 0.000000 0.000000 -1.000000
vn 0.000000 0.000000 -1.000000
vn 0.000000 0.000000 -1.000000
vn 0.000000 0.000000 -1.000000
vn 1.000000 0.000000 0.000000
vn 1.000000 0.000000 0.000000
vn 1.000000 0.000000 0.000000
vn 1.000000 0.000000 0.000000
vn 0.000000 0.000000 1.000000
vn 0.000000 0.000000 1.000000
vn 0.000000 0.000000 1.000000
vn 0.000000 0.000000 1.000000
vn -0.000000 0.000000 1.000000
vn -0.000000 0.000000 1.000000
vn -0.000000 0.000000 1.000000
vn -0.000000 0.000000 1.000000
vn 0.000000 0.000000 1.000000
vn 0.000000 0.000000 1.000000
vn 0.000000 0.000000 1.000000
vn 0.000000 0.000000 1.000000
vn 0.000000 0.000000 1.000000
vn 0.000000 0.000000 1.000000
vn 0.000000 0.000000 1.000000
vn 0.000000 0.000000 1.000000
vn 0.000000 0.000000 1.000000
vn 0.000000 0.000000 1.000000
vn 0.000000 0.000000 1.000000
vn 0.000000 0.000000 1.000000
vn 0.000000 0.000000 1.000000
vn -0.000000 0.000000 1.000000
vn -0.000000 0.000000 1.000000
vn -0.000000 0.000000 1.000000
vn -0.000000 0.000000 1.000000
vn 0.000000 0.000000 1.000000
vn 0.000000 0.000000 1.000000
vn 0.000000 0.000000 1.000000
vn 0.000000 0.000000 1.000000
vn 0.000000 0.000000 1.000000
vn 0.000000 0.000000 1.000000
vn 0.000000 0.000000 1.000000
vn 0.000000 0.000000 1.000000
vn 0.000000 0.000000 1.000000
vn 0.000000 0.000000 1.000000
vn 0.000000 0.000000 1.000000
vn 0.000000 0.000000 1.000000
vn 0.000000 0.000000 1.000000
vn 0.000000 0.000000 1.000000
vn 0.000000 0.000000 1.000000
vn 0.000000 0.000000 1.000000
vn 0.000000 0.000000 1.000000
vn 0.000000 0.000000 1.000000
vn 0.000000 0.000000 1.000000
vn 0.000000 0.000000 1.000000
vn 0.000000 0.000000 1.000000
vn 0.000000 0.000000 1.000000
vn 0.000000 0.000000 1.000000
vn 0.000000 0.000000 1.000000
vn 0.000000 0.000000 1.000000
vn 0.000000 0.000000 1.000000
vn 0.000000 0.000000 1.000000
vn 0.000000 0.000000 1.000000
vn 0.000000 0.000000 1.000000
vn 0.000000 0.000000 1.000000
vn 0.000000 0.926085 0.377314
vn 0.000000 0.926085 0.377314
vn 0.000000 0.926085 0.377314
vn 0.000000 0.926085 0.377314
vn 0.899824 0.000000 0.436254
vn 0.899824 0.000000 0.436254
vn 0.899824 0.000000 0.436254
vn 0.899824 0.000000 0.436254
vn 0.899824 0.000000 0.436254
vn 0.899824 0.000000 0.436254
vn 0.899824 0.000000 0.436254
vn 0.899824 0.000000 0.436254
vn 0.000000 -0.926097 0.377286
vn 0.000000 -0.926097 0.377286
vn 0.000000 -0.926097 0.377286
vn 0.000000 -0.926097 0.377286
vn -0.899824 0.000000 0.436254
vn -0.899824 0.000000 0.436254
vn -0.899824 0.000000 0.436254
vn -0.899824 0.000000 0.436254
vn -0.899824 0.000000 0.436254
vn -0.899824 0.000000 0.436254
vn -0.899824 0.000000 0.436254
vn -0.899824 0.000000 0.436254
vn 0.000000 -0.918339 0.395795
vn 0.000000 -0.918339 0.395795
vn 0.000000 -0.918339 0.395795
vn 0.000000 -0.918339 0.395795
vn 0.880542 0.000000 0.473969
vn 0.880542 0.000000 0.473969
vn 0.880542 0.000000 0.473969
vn 0.880542 0.000000 0.473969
vn 0.880542 0.000000 0.473968
vn 0.880542 0.000000 0.473968
vn 0.880542 0.000000 0.473968
vn 0.880542 0.000000 0.473968
vn 0.000000 0.918328 0.395822
vn 0.000000 0.918328 0.395822
vn 0.000000 0.918327 0.395822
vn 0.000000 0.918327 0.395822
vn -0.880542 0.000000 0.473968
vn -0.880542 0.000000 0.473968
vn -0.880542 0.000000 0.473968
vn -0.880542 0.000000 0.473968
vn -0.880542 0.000000 0.473969
vn -0.880542 0.000000 0.473969
vn -0.880542 0.000000 0.473969
vn -0.880542 0.000000 0.473969
s off
f 1/1/1 2/2/2 22/33/3 23/34/4
f 3/3/5 4/4/6 6/6/7 5/5/8
f 24/36/9 17/25/10 8/8/11 7/7/12
f 7/7/13 8/8/14 2/10/15 1/9/16
f 37/65/17 29/54/18 31/55/19
f 7/13/20 1/1/21 23/34/22 24/35/23
f 2/2/24 8/11/25 9/16/26 10/15/27
f 8/11/28 17/26/29 18/27/30 9/16/31
f 6/12/32 4/4/33 12/18/34 11/17/35
f 21/32/36 22/33/37 2/2/38 10/15/39
f 47/80/40 48/81/41 38/71/42 39/72/43
f 48/81/44 49/82/45 43/76/46 38/71/47
f 44/77/48 45/78/49 41/74/50 42/75/51
f 39/72/52 40/73/53 46/79/54 47/80/55
f 18/27/56 17/26/57 6/12/58 11/17/59
f 42/75/60 43/76/61 49/82/62 44/77/63
f 20/37/64 19/38/65 15/39/66 16/40/67
f 45/78/68 46/79/69 40/73/70 41/74/71
f 4/4/72 22/33/73 21/32/74 12/18/75
f 23/34/76 22/33/77 4/4/78 3/3/79
f 24/35/80 23/34/81 3/3/82 5/14/83
f 5/5/84 6/6/85 17/25/86 24/36/87
f 14/23/88 13/24/89 25/42/90 26/41/91
f 13/24/92 19/29/93 27/43/94 25/42/95
f 33/58/96 35/62/97 19/29/98 20/31/99 34/60/100
f 20/31/101 14/23/102 26/41/103 28/44/104
f 26/45/105 25/46/106 29/50/107 30/49/108
f 25/46/109 27/47/110 31/51/111 29/50/112
f 27/47/113 35/61/114 37/66/115 31/51/116
f 28/48/117 26/45/118 30/49/119 32/52/120
f 34/60/121 20/31/122 28/44/123
f 19/29/124 35/62/125 27/43/126
f 36/64/127 34/59/128 28/48/129 32/52/130
f 30/53/131 36/63/132 32/56/133
f 37/57/134 35/67/135 33/68/136 34/69/137 36/70/138
f 30/53/139 29/54/140 37/65/141 36/63/142
f 39/72/143 38/71/144 13/20/145 14/19/146
f 20/30/147 40/73/148 39/72/149 14/19/150
f 41/74/151 40/73/152 20/30/153 16/22/154
f 42/75/155 41/74/156 16/22/157 15/21/158
f 19/28/159 43/76/160 42/75/161 15/21/162
f 38/71/163 43/76/164 19/28/165 13/20/166
f 11/17/167 12/18/168 45/78/169 44/77/170
f 12/18/171 21/32/172 46/79/173 45/78/174
f 47/80/175 46/79/176 21/32/177 10/15/178
f 10/15/179 9/16/180 48/81/181 47/80/182
f 9/16/183 18/27/184 49/82/185 48/81/186
f 44/77/187 49/82/188 18/27/189 11/17/190
