# This file uses meters as units for non-parametric coordinates.

v 2.543213 23.515493 44.742004
v 2.543213 23.429436 41.806580
v 0.000000 23.386406 40.338806
v -2.543213 23.429436 41.806580
v -2.543213 23.515493 44.742004
v 0.000000 23.558521 46.209656
v 2.543213 42.174767 43.901794
v 2.543213 42.088707 40.966370
v 0.000000 42.045681 39.498596
v -2.543213 42.088707 40.966370
v -2.543213 42.174767 43.901794
v 0.000000 42.217796 45.369446
v 0.000000 23.472464 43.274231
v 0.000000 42.131737 42.434021
v -25.791199 21.461864 -138.692322
v -25.791199 41.909950 181.988403
v -25.791199 28.953037 -139.169983
v -25.791199 49.401115 181.510742
v 25.791138 28.953037 -139.169983
v 25.791138 49.401115 181.510742
v 25.791138 21.461864 -138.692322
v 25.791138 41.909950 181.988403
v 22.437927 43.942055 189.024902
v -22.437866 43.942055 189.024902
v 22.437927 48.279346 188.748291
v -22.437866 48.279346 188.748291
v 22.437927 22.583706 -145.929688
v -22.437866 22.583706 -145.929688
v -22.437866 26.920975 -146.206360
v 22.437927 26.920975 -146.206360
v -19.835327 0.000000 -46.511230
v -19.835327 0.000000 -2.021240
v -19.835327 3.364660 -43.695862
v -19.835327 3.364660 -6.169128
v 19.835449 3.364660 -43.695862
v 19.835449 3.364660 -6.169128
v 19.835449 0.000000 -46.511230
v 19.835449 0.000000 -2.021240
v 19.835449 29.451103 34.797485
v -19.835327 29.451103 34.797485
v 19.835449 32.716190 31.351379
v -19.835327 32.716190 31.351379
v 19.835449 23.545002 -61.553589
v -19.835327 23.545002 -61.553589
v -19.835327 26.953812 -60.096802
v 19.835449 26.953812 -60.096802
v 19.835449 31.084642 53.135132
v -19.835327 31.084642 53.135132
v 19.835449 34.447868 53.036621
v -19.835327 34.447868 53.036621
v 19.835449 21.505795 -94.972778
v -19.835327 21.505795 -94.972778
v -19.835327 24.869003 -95.071411
v 19.835449 24.869003 -95.071411
v -7.665283 5.787764 -83.895203
v -7.665283 5.701702 -86.830750
v -10.208435 5.658674 -88.298401
v -12.751709 5.701702 -86.830750
v -12.751709 5.787764 -83.895203
v -10.208435 5.830791 -82.427551
v -7.665283 34.447327 -84.735535
v -7.665283 34.361267 -87.670959
v -10.208435 34.318237 -89.138611
v -12.751709 34.361267 -87.670959
v -12.751709 34.447327 -84.735535
v -10.208435 34.490356 -83.267761
v -10.208435 5.744734 -85.362976
v -10.208435 34.404297 -86.203186
v 12.751770 5.787764 -83.895203
v 12.751770 5.701702 -86.830750
v 10.208435 5.658674 -88.298401
v 7.665283 5.701702 -86.830750
v 7.665283 5.787764 -83.895203
v 10.208435 5.830791 -82.427551
v 12.751770 34.447327 -84.735535
v 12.751770 34.361267 -87.670959
v 10.208435 34.318237 -89.138611
v 7.665283 34.361267 -87.670959
v 7.665283 34.447327 -84.735535
v 10.208435 34.490356 -83.267761
v 10.208435 5.744734 -85.362976
v 10.208435 34.404297 -86.203186
vt 0.380449 0.013824
vt 0.380449 0.013824
vt 0.380449 0.013824
vt 0.380449 0.013824
vt 0.380449 0.013824
vt 0.380449 0.013824
vt 0.380449 0.013824
vt 0.380449 0.013824
vt 0.380449 0.013824
vt 0.380449 0.013824
vt 0.380449 0.013824
vt 0.380449 0.013824
vt 0.380449 0.013824
vt 0.380449 0.013824
vt 0.380449 0.013824
vt 0.380449 0.013824
vt 0.380449 0.013824
vt 0.380449 0.013824
vt 0.380449 0.013824
vt 0.380449 0.013824
vt 0.380449 0.013824
vt 0.380449 0.013824
vt 0.380449 0.013824
vt 0.380449 0.013824
vt 0.380449 0.013824
vt 0.380449 0.013824
vt 0.380449 0.013824
vt 0.380449 0.013824
vt 0.424054 0.010992
vt 0.424054 0.010992
vt 0.424054 0.010992
vt 0.424054 0.010992
vt 0.424054 0.010992
vt 0.424054 0.010992
vt 0.424054 0.010992
vt 0.424054 0.010992
vt 0.424054 0.010992
vt 0.424054 0.010992
vt 0.424054 0.010992
vt 0.424054 0.010992
vt 0.424054 0.010992
vt 0.424054 0.010992
vt 0.424054 0.010992
vt 0.424054 0.010992
vt 0.424054 0.010992
vt 0.424054 0.010992
vt 0.424054 0.010992
vt 0.424054 0.010992
vt 0.424054 0.010992
vt 0.424054 0.010992
vt 0.133601 0.299840
vt 0.133601 0.299840
vt 0.133601 0.299840
vt 0.133601 0.299840
vt 0.133601 0.299840
vt 0.133601 0.299840
vt 0.133601 0.299840
vt 0.133601 0.299840
vt 0.133601 0.299840
vt 0.133601 0.299840
vt 0.133601 0.299840
vt 0.133601 0.299840
vt 0.133601 0.299840
vt 0.133601 0.299840
vt 0.133601 0.299840
vt 0.133601 0.299840
vt 0.133601 0.299840
vt 0.133601 0.299840
vt 0.133601 0.299840
vt 0.133601 0.299840
vt 0.133601 0.299840
vt 0.133601 0.299840
vt 0.133601 0.299840
vt 0.133601 0.299840
vt 0.133601 0.299840
vt 0.133601 0.299840
vt 0.133601 0.299840
vt 0.133601 0.299840
vt 0.133601 0.299840
vt 0.133601 0.299840
vt 0.104449 0.300835
vt 0.104449 0.300835
vt 0.104449 0.300835
vt 0.104449 0.300835
vt 0.104449 0.300835
vt 0.104449 0.300835
vt 0.104449 0.300835
vt 0.104449 0.300835
vt 0.104449 0.300835
vt 0.104449 0.300835
vt 0.104449 0.300835
vt 0.104449 0.300835
vt 0.104449 0.300835
vt 0.104449 0.300835
vt 0.104449 0.300835
vt 0.104449 0.300835
vt 0.104449 0.300835
vt 0.104449 0.300835
vt 0.104449 0.300835
vt 0.104449 0.300835
vt 0.104449 0.300835
vt 0.104449 0.300835
vt 0.104449 0.300835
vt 0.104449 0.300835
vt 0.104449 0.300835
vt 0.104449 0.300835
vt 0.104449 0.300835
vt 0.104449 0.300835
vt 0.104449 0.300835
vt 0.104449 0.300835
vt 0.104449 0.300835
vt 0.104449 0.300835
vt 0.104449 0.300835
vt 0.104449 0.300835
vt 0.104449 0.300835
vt 0.104449 0.300835
vt 0.104449 0.300835
vt 0.104449 0.300835
vt 0.104449 0.300835
vt 0.104449 0.300835
vt 0.104449 0.300835
vt 0.104449 0.300835
vt 0.104449 0.300835
vt 0.104449 0.300835
vt 0.104449 0.300835
vt 0.104449 0.300835
vt 0.104449 0.300835
vt 0.104449 0.300835
vt 0.104449 0.300835
vt 0.104449 0.300835
vt 0.104449 0.300835
vt 0.104449 0.300835
vt 0.104449 0.300835
vt 0.104449 0.300835
vt 0.104449 0.300835
vt 0.104449 0.300835
vn 1.000000 0.000000 0.000000
vn 1.000000 0.000000 0.000000
vn 1.000000 0.000000 0.000000
vn 1.000000 0.000000 0.000000
vn 0.499975 -0.038958 -0.865164
vn 0.499975 -0.038958 -0.865163
vn 0.499975 -0.038958 -0.865163
vn 0.499975 -0.038958 -0.865163
vn -0.499975 -0.038958 -0.865163
vn -0.499975 -0.038958 -0.865164
vn -0.499975 -0.038958 -0.865163
vn -0.499975 -0.038958 -0.865163
vn -1.000000 0.000000 0.000000
vn -1.000000 0.000000 0.000000
vn -1.000000 0.000000 0.000000
vn -1.000000 0.000000 0.000000
vn -0.499944 0.038958 0.865181
vn -0.499944 0.038958 0.865181
vn -0.499944 0.038958 0.865181
vn -0.499944 0.038958 0.865181
vn 0.499944 0.038958 0.865181
vn 0.499944 0.038958 0.865181
vn 0.499944 0.038958 0.865181
vn 0.499944 0.038958 0.865181
vn -0.000000 -0.999571 0.029305
vn -0.000000 -0.999571 0.029305
vn -0.000000 -0.999571 0.029305
vn -0.000000 -0.999571 0.029305
vn -0.000000 -0.999571 0.029305
vn -0.000000 -0.999571 0.029305
vn 0.000000 -0.999571 0.029305
vn 0.000000 -0.999571 0.029305
vn 0.000000 -0.999571 0.029305
vn 0.000000 -0.999571 0.029305
vn 0.000000 -0.999571 0.029305
vn 0.000000 -0.999571 0.029305
vn 0.000000 -0.999571 0.029304
vn 0.000000 -0.999571 0.029304
vn 0.000000 -0.999571 0.029304
vn -0.000000 -0.999571 0.029304
vn -0.000000 -0.999571 0.029304
vn -0.000000 -0.999571 0.029304
vn 0.000001 0.999570 -0.029306
vn 0.000001 0.999570 -0.029306
vn 0.000001 0.999571 -0.029306
vn 0.000001 0.999571 -0.029306
vn 0.000001 0.999570 -0.029306
vn 0.000001 0.999570 -0.029306
vn -0.000001 0.999570 -0.029306
vn -0.000001 0.999571 -0.029306
vn -0.000001 0.999570 -0.029306
vn -0.000001 0.999570 -0.029306
vn -0.000001 0.999570 -0.029306
vn -0.000001 0.999571 -0.029306
vn -0.000001 0.999571 -0.029304
vn -0.000001 0.999571 -0.029304
vn -0.000001 0.999571 -0.029304
vn 0.000001 0.999571 -0.029304
vn 0.000001 0.999571 -0.029304
vn 0.000001 0.999571 -0.029304
vn -1.000000 0.000000 0.000000
vn -1.000000 0.000000 0.000000
vn -1.000000 0.000000 0.000000
vn -1.000000 0.000000 0.000000
vn 0.000000 0.997973 -0.063635
vn 0.000000 0.997973 -0.063635
vn 0.000000 0.997973 -0.063635
vn 0.000000 0.997973 -0.063635
vn 1.000000 0.000000 0.000000
vn 1.000000 0.000000 0.000000
vn 1.000000 0.000000 0.000000
vn 1.000000 0.000000 0.000000
vn 0.000000 -0.997973 0.063635
vn 0.000000 -0.997973 0.063635
vn 0.000000 -0.997973 0.063635
vn 0.000000 -0.997973 0.063635
vn 0.000000 0.063646 0.997973
vn 0.000000 0.063646 0.997973
vn 0.000000 0.063646 0.997973
vn 0.000000 0.063646 0.997973
vn 0.000000 -0.063660 -0.997972
vn 0.000000 -0.063660 -0.997972
vn 0.000000 -0.063660 -0.997972
vn 0.000000 -0.063660 -0.997972
vn 0.000000 -0.960738 0.277456
vn 0.000000 -0.960738 0.277456
vn 0.000000 -0.960738 0.277456
vn 0.000000 -0.960738 0.277456
vn 0.905414 0.027016 0.423670
vn 0.905414 0.027016 0.423670
vn 0.905414 0.027016 0.423670
vn 0.905414 0.027016 0.423670
vn 0.000000 0.988201 0.153164
vn 0.000000 0.988201 0.153164
vn 0.000000 0.988201 0.153164
vn 0.000000 0.988201 0.153164
vn -0.905407 0.027017 0.423684
vn -0.905407 0.027017 0.423684
vn -0.905407 0.027017 0.423684
vn -0.905407 0.027017 0.423684
vn 0.000000 -0.988199 -0.153178
vn 0.000000 -0.988199 -0.153178
vn 0.000000 -0.988199 -0.153178
vn 0.000000 -0.988199 -0.153178
vn -0.905404 -0.027020 -0.423690
vn -0.905404 -0.027020 -0.423690
vn -0.905404 -0.027020 -0.423690
vn -0.905404 -0.027020 -0.423690
vn 0.000000 0.960739 -0.277455
vn 0.000000 0.960739 -0.277455
vn 0.000000 0.960739 -0.277455
vn 0.000000 0.960739 -0.277455
vn 0.905410 -0.027019 -0.423678
vn 0.905410 -0.027019 -0.423678
vn 0.905410 -0.027019 -0.423678
vn 0.905410 -0.027019 -0.423678
vn -1.000000 -0.000000 0.000000
vn -1.000000 -0.000000 0.000000
vn -1.000000 -0.000000 0.000000
vn -1.000000 -0.000000 0.000000
vn 0.000000 1.000000 0.000000
vn 0.000000 1.000000 0.000000
vn 0.000000 1.000000 0.000000
vn 0.000000 1.000000 0.000000
vn 1.000000 0.000000 0.000000
vn 1.000000 0.000000 0.000000
vn 1.000000 0.000000 0.000000
vn 1.000000 0.000000 0.000000
vn 0.000000 -1.000000 0.000000
vn 0.000000 -1.000000 0.000000
vn 0.000000 -1.000000 0.000000
vn 0.000000 -1.000000 0.000000
vn 0.000000 0.029278 0.999571
vn 0.000000 0.029278 0.999571
vn 0.000000 0.029278 0.999571
vn 0.000000 0.029278 0.999571
vn 0.000000 -0.029314 -0.999570
vn 0.000000 -0.029314 -0.999570
vn 0.000000 -0.029314 -0.999570
vn 0.000000 -0.029314 -0.999570
vn 0.000000 -0.780909 0.624645
vn 0.000000 -0.780909 0.624645
vn 0.000000 -0.780909 0.624645
vn 0.000000 -0.780909 0.624645
vn 1.000000 0.000000 0.000000
vn 1.000000 0.000000 0.000000
vn 1.000000 0.000000 0.000000
vn 1.000000 0.000000 0.000000
vn 0.000000 0.787631 -0.616148
vn 0.000000 0.787631 -0.616148
vn 0.000000 0.787631 -0.616148
vn 0.000000 0.787631 -0.616148
vn -1.000000 0.000000 0.000000
vn -1.000000 0.000000 0.000000
vn -1.000000 0.000000 0.000000
vn -1.000000 0.000000 0.000000
vn 0.000000 -0.538382 -0.842701
vn 0.000000 -0.538382 -0.842701
vn 0.000000 -0.538382 -0.842701
vn 0.000000 -0.538382 -0.842701
vn -1.000000 -0.000000 0.000000
vn -1.000000 -0.000000 0.000000
vn -1.000000 -0.000000 0.000000
vn -1.000000 -0.000000 0.000000
vn 0.000000 0.570856 0.821050
vn 0.000000 0.570856 0.821050
vn 0.000000 0.570856 0.821050
vn 0.000000 0.570856 0.821050
vn 1.000000 0.000000 0.000000
vn 1.000000 0.000000 0.000000
vn 1.000000 0.000000 0.000000
vn 1.000000 0.000000 0.000000
vn 0.000000 -0.996056 0.088730
vn 0.000000 -0.996056 0.088730
vn 0.000000 -0.996056 0.088730
vn 0.000000 -0.996056 0.088730
vn 1.000000 0.000000 0.000000
vn 1.000000 0.000000 0.000000
vn 1.000000 0.000000 0.000000
vn 1.000000 0.000000 0.000000
vn 0.000000 0.996827 -0.079602
vn 0.000000 0.996827 -0.079602
vn 0.000000 0.996827 -0.079602
vn 0.000000 0.996827 -0.079602
vn -1.000000 0.000000 0.000000
vn -1.000000 0.000000 0.000000
vn -1.000000 0.000000 0.000000
vn -1.000000 0.000000 0.000000
vn 0.000000 -0.998144 0.060906
vn 0.000000 -0.998144 0.060906
vn 0.000000 -0.998144 0.060906
vn 0.000000 -0.998144 0.060906
vn -1.000000 0.000000 0.000000
vn -1.000000 0.000000 0.000000
vn -1.000000 0.000000 0.000000
vn -1.000000 0.000000 0.000000
vn 0.000000 0.998228 -0.059504
vn 0.000000 0.998228 -0.059504
vn 0.000000 0.998228 -0.059504
vn 0.000000 0.998228 -0.059504
vn 1.000000 0.000000 0.000000
vn 1.000000 0.000000 0.000000
vn 1.000000 0.000000 0.000000
vn 1.000000 0.000000 0.000000
vn 1.000000 -0.000000 0.000000
vn 1.000000 -0.000000 0.000000
vn 1.000000 -0.000000 0.000000
vn 1.000000 -0.000000 0.000000
vn 0.499996 -0.025378 -0.865656
vn 0.499996 -0.025378 -0.865656
vn 0.499996 -0.025378 -0.865656
vn 0.499996 -0.025378 -0.865656
vn -0.499978 -0.025379 -0.865666
vn -0.499978 -0.025379 -0.865666
vn -0.499978 -0.025379 -0.865666
vn -0.499978 -0.025379 -0.865666
vn -1.000000 0.000000 0.000000
vn -1.000000 0.000000 0.000000
vn -1.000000 0.000000 0.000000
vn -1.000000 0.000000 0.000000
vn -0.499995 0.025380 0.865656
vn -0.499995 0.025380 0.865656
vn -0.499995 0.025380 0.865656
vn -0.499995 0.025380 0.865656
vn 0.500013 0.025380 0.865646
vn 0.500013 0.025380 0.865646
vn 0.500013 0.025380 0.865646
vn 0.500013 0.025380 0.865646
vn -0.000000 -0.999571 0.029304
vn -0.000000 -0.999571 0.029304
vn -0.000000 -0.999571 0.029304
vn -0.000000 -0.999571 0.029305
vn -0.000000 -0.999571 0.029305
vn -0.000000 -0.999571 0.029305
vn 0.000000 -0.999571 0.029305
vn 0.000000 -0.999571 0.029305
vn 0.000000 -0.999571 0.029305
vn 0.000000 -0.999571 0.029304
vn 0.000000 -0.999571 0.029304
vn 0.000000 -0.999571 0.029304
vn 0.000000 -0.999571 0.029304
vn 0.000000 -0.999571 0.029304
vn 0.000000 -0.999571 0.029304
vn -0.000000 -0.999571 0.029304
vn -0.000000 -0.999571 0.029304
vn -0.000000 -0.999571 0.029304
vn -0.000001 0.999571 -0.029304
vn -0.000001 0.999571 -0.029304
vn -0.000001 0.999571 -0.029304
vn -0.000001 0.999571 -0.029304
vn -0.000001 0.999571 -0.029304
vn -0.000001 0.999571 -0.029304
vn 0.000001 0.999571 -0.029305
vn 0.000001 0.999571 -0.029305
vn 0.000001 0.999571 -0.029305
vn 0.000001 0.999571 -0.029305
vn 0.000001 0.999571 -0.029305
vn 0.000001 0.999571 -0.029305
vn 0.000001 0.999571 -0.029305
vn 0.000001 0.999571 -0.029305
vn 0.000001 0.999571 -0.029305
vn -0.000001 0.999571 -0.029306
vn -0.000001 0.999570 -0.029306
vn -0.000001 0.999570 -0.029306
vn 1.000000 0.000000 0.000000
vn 1.000000 0.000000 0.000000
vn 1.000000 0.000000 0.000000
vn 1.000000 0.000000 0.000000
vn 0.499969 -0.025379 -0.865672
vn 0.499969 -0.025379 -0.865671
vn 0.499969 -0.025379 -0.865672
vn 0.499969 -0.025379 -0.865672
vn -0.499996 -0.025378 -0.865656
vn -0.499996 -0.025378 -0.865656
vn -0.499996 -0.025378 -0.865656
vn -0.499996 -0.025378 -0.865656
vn -1.000000 -0.000000 0.000000
vn -1.000000 -0.000000 0.000000
vn -1.000000 -0.000000 0.000000
vn -1.000000 -0.000000 0.000000
vn -0.500013 0.025380 0.865646
vn -0.500013 0.025380 0.865646
vn -0.500013 0.025380 0.865646
vn -0.500013 0.025380 0.865646
vn 0.499986 0.025380 0.865661
vn 0.499986 0.025380 0.865661
vn 0.499986 0.025380 0.865661
vn 0.499986 0.025380 0.865661
vn -0.000000 -0.999571 0.029304
vn -0.000000 -0.999571 0.029304
vn -0.000000 -0.999571 0.029304
vn -0.000000 -0.999570 0.029305
vn -0.000000 -0.999570 0.029305
vn -0.000000 -0.999571 0.029305
vn 0.000000 -0.999571 0.029305
vn 0.000000 -0.999571 0.029305
vn 0.000000 -0.999571 0.029305
vn 0.000000 -0.999571 0.029304
vn 0.000000 -0.999571 0.029304
vn 0.000000 -0.999571 0.029304
vn 0.000000 -0.999571 0.029304
vn 0.000000 -0.999571 0.029304
vn 0.000000 -0.999571 0.029304
vn -0.000000 -0.999571 0.029304
vn -0.000000 -0.999571 0.029304
vn -0.000000 -0.999571 0.029304
vn -0.000001 0.999571 -0.029306
vn -0.000001 0.999571 -0.029306
vn -0.000001 0.999571 -0.029306
vn -0.000001 0.999571 -0.029304
vn -0.000001 0.999571 -0.029304
vn -0.000001 0.999571 -0.029304
vn 0.000001 0.999571 -0.029304
vn 0.000001 0.999571 -0.029304
vn 0.000001 0.999571 -0.029304
vn 0.000001 0.999571 -0.029304
vn 0.000001 0.999571 -0.029304
vn 0.000001 0.999571 -0.029304
vn 0.000001 0.999570 -0.029306
vn 0.000001 0.999571 -0.029306
vn 0.000001 0.999570 -0.029306
vn -0.000001 0.999571 -0.029304
vn -0.000001 0.999571 -0.029304
vn -0.000001 0.999571 -0.029304
s off
f 1/1/1 2/2/2 8/3/3 7/4/4
f 2/2/5 3/5/6 9/6/7 8/3/8
f 3/5/9 4/7/10 10/8/11 9/6/12
f 4/7/13 5/9/14 11/10/15 10/8/16
f 5/9/17 6/11/18 12/12/19 11/10/20
f 6/11/21 1/13/22 7/14/23 12/12/24
f 2/15/25 1/16/26 13/17/27
f 3/18/28 2/15/29 13/17/30
f 4/19/31 3/18/32 13/17/33
f 5/20/34 4/19/35 13/17/36
f 6/21/37 5/20/38 13/17/39
f 1/16/40 6/21/41 13/17/42
f 7/22/43 8/23/44 14/24/45
f 8/23/46 9/25/47 14/24/48
f 9/25/49 10/26/50 14/24/51
f 10/26/52 11/27/53 14/24/54
f 11/27/55 12/28/56 14/24/57
f 12/28/58 7/22/59 14/24/60
f 15/29/61 16/30/62 18/31/63 17/32/64
f 17/32/65 18/31/66 20/33/67 19/34/68
f 19/34/69 20/33/70 22/35/71 21/36/72
f 21/36/73 22/35/74 16/37/75 15/38/76
f 24/39/77 23/40/78 25/41/79 26/42/80
f 29/43/81 30/44/82 27/45/83 28/46/84
f 16/30/85 22/47/86 23/40/87 24/39/88
f 22/47/89 20/48/90 25/41/91 23/40/92
f 20/48/93 18/31/94 26/42/95 25/41/96
f 18/31/97 16/30/98 24/39/99 26/42/100
f 21/49/101 15/29/102 28/46/103 27/45/104
f 15/29/105 17/32/106 29/43/107 28/46/108
f 17/32/109 19/50/110 30/44/111 29/43/112
f 19/50/113 21/49/114 27/45/115 30/44/116
f 31/51/117 32/52/118 34/53/119 33/54/120
f 33/54/121 34/53/122 36/55/123 35/56/124
f 35/56/125 36/55/126 38/57/127 37/58/128
f 37/58/129 38/57/130 32/59/131 31/60/132
f 48/61/133 47/62/134 49/63/135 50/64/136
f 51/65/137 52/66/138 53/67/139 54/68/140
f 32/52/141 38/69/142 39/70/143 40/71/144
f 38/69/145 36/72/146 41/73/147 39/70/148
f 36/72/149 34/53/150 42/74/151 41/73/152
f 34/53/153 32/52/154 40/71/155 42/74/156
f 37/75/157 31/51/158 44/76/159 43/77/160
f 31/51/161 33/54/162 45/78/163 44/76/164
f 33/54/165 35/79/166 46/80/167 45/78/168
f 35/79/169 37/75/170 43/77/171 46/80/172
f 40/71/173 39/70/174 47/62/175 48/61/176
f 39/70/177 41/73/178 49/63/179 47/62/180
f 41/73/181 42/74/182 50/64/183 49/63/184
f 42/74/185 40/71/186 48/61/187 50/64/188
f 43/77/189 44/76/190 52/66/191 51/65/192
f 44/76/193 45/78/194 53/67/195 52/66/196
f 45/78/197 46/80/198 54/68/199 53/67/200
f 46/80/201 43/77/202 51/65/203 54/68/204
f 55/81/205 56/82/206 62/83/207 61/84/208
f 56/82/209 57/85/210 63/86/211 62/83/212
f 57/85/213 58/87/214 64/88/215 63/86/216
f 58/87/217 59/89/218 65/90/219 64/88/220
f 59/89/221 60/91/222 66/92/223 65/90/224
f 60/91/225 55/93/226 61/94/227 66/92/228
f 56/95/229 55/96/230 67/97/231
f 57/98/232 56/95/233 67/97/234
f 58/99/235 57/98/236 67/97/237
f 59/100/238 58/99/239 67/97/240
f 60/101/241 59/100/242 67/97/243
f 55/96/244 60/101/245 67/97/246
f 61/102/247 62/103/248 68/104/249
f 62/103/250 63/105/251 68/104/252
f 63/105/253 64/106/254 68/104/255
f 64/106/256 65/107/257 68/104/258
f 65/107/259 66/108/260 68/104/261
f 66/108/262 61/102/263 68/104/264
f 69/109/265 70/110/266 76/111/267 75/112/268
f 70/110/269 71/113/270 77/114/271 76/111/272
f 71/113/273 72/115/274 78/116/275 77/114/276
f 72/115/277 73/117/278 79/118/279 78/116/280
f 73/117/281 74/119/282 80/120/283 79/118/284
f 74/119/285 69/121/286 75/122/287 80/120/288
f 70/123/289 69/124/290 81/125/291
f 71/126/292 70/123/293 81/125/294
f 72/127/295 71/126/296 81/125/297
f 73/128/298 72/127/299 81/125/300
f 74/129/301 73/128/302 81/125/303
f 69/124/304 74/129/305 81/125/306
f 75/130/307 76/131/308 82/132/309
f 76/131/310 77/133/311 82/132/312
f 77/133/313 78/134/314 82/132/315
f 78/134/316 79/135/317 82/132/318
f 79/135/319 80/136/320 82/132/321
f 80/136/322 75/130/323 82/132/324
