# This file uses meters as units for non-parametric coordinates.

v -13.725891 9.192749 0.671631
v -13.725891 42.308838 0.671631
v 13.725769 42.308838 0.671509
v 13.725769 9.192749 0.671509
v -6.713867 9.192749 0.671692
v -8.041687 9.192749 0.671631
v -7.794006 16.251038 0.671631
v -9.205750 22.018585 0.671631
v -4.656799 25.867096 0.671631
v -1.864441 23.105530 0.671631
v -0.602600 24.949799 0.671631
v 1.335938 22.255188 0.671692
v -0.978149 19.708191 0.671692
v -0.692017 15.910522 0.671692
v 4.810547 15.348694 0.671692
v 4.769531 12.323700 0.671692
v -1.031189 12.169342 0.671631
v -4.405334 12.790466 0.671631
v -4.716492 28.119202 0.671631
v -5.134094 30.352966 0.671631
v -2.329895 31.673157 0.671631
v 0.403320 29.838867 0.671692
v -3.074280 28.864044 0.671631
v -3.045166 26.807434 0.671692
v -0.317078 26.337311 0.671631
v 1.244202 24.313751 0.671631
v 2.764771 30.679230 0.671692
v 4.679504 29.077759 0.671631
v 5.357483 23.989929 0.671631
v 6.972351 19.592712 0.671631
v 4.129700 23.043060 0.671631
v 2.734558 27.199127 0.671631
v 1.617432 27.456207 0.671692
v 0.920227 26.260468 0.671631
v 6.263000 9.192749 0.671631
v 6.018005 10.623566 0.671631
v -1.355591 9.192749 0.671692
v 13.725769 36.744476 0.671509
v -10.515320 31.453766 0.671631
v -4.339539 37.116791 0.671631
v 5.833923 39.567963 0.671631
v 13.725769 33.974335 0.671509
v 4.549011 32.425415 0.671631
v 5.844666 22.663330 0.671631
v 7.361023 22.570801 0.671631
v 7.876160 20.674744 0.671631
v 5.666199 32.613983 0.671631
v 6.936951 22.596680 0.671631
v 6.184387 22.642609 0.671631
v 5.039612 29.490570 0.671631
v 6.047363 29.608795 0.671692
v -2.256470 31.986481 0.671692
v 13.725769 24.061707 0.671509
v 23.062988 -0.000031 -2.478210
v -23.063171 -0.000031 -2.478271
v 23.062988 51.501587 -2.478210
v -23.063171 51.501587 -2.478271
v 23.062988 51.501587 2.478210
v -23.063171 51.501587 2.478149
v 23.062988 -0.000031 2.478210
v -23.063171 -0.000031 2.478149
v 19.281189 47.514801 2.478149
v -19.281372 47.514801 2.478210
v -19.281372 3.986877 2.478210
v 19.281189 3.986877 2.478149
v 18.381226 46.625732 0.671692
v -18.381409 46.625732 0.671631
v -18.381409 4.875885 0.671631
v 18.381226 4.875885 0.671692
v 13.725769 42.308838 0.671631
v -13.725952 42.308838 0.671692
v -13.725952 9.192780 0.671692
v 13.725769 9.192780 0.671631
vt 0.070108 0.305229
vt 0.070108 0.305229
vt 0.070108 0.305229
vt 0.070108 0.305229
vt 0.045898 0.332413
vt 0.070108 0.305229
vt 0.070108 0.305229
vt 0.070108 0.305229
vt 0.070108 0.305229
vt 0.038452 0.378479
vt 0.070108 0.305229
vt 0.070108 0.305229
vt 0.035400 0.304474
vt 0.035400 0.304474
vt 0.070108 0.305229
vt 0.070108 0.305229
vt 0.045898 0.332413
vt 0.045898 0.332413
vt 0.070108 0.305229
vt 0.070108 0.305229
vt 0.070108 0.305229
vt 0.070108 0.305229
vt 0.038452 0.378479
vt 0.038452 0.378479
vt 0.070108 0.305229
vt 0.070108 0.305229
vt 0.070108 0.305229
vt 0.070108 0.305229
vt 0.070108 0.305229
vt 0.070108 0.305229
vt 0.035400 0.304474
vt 0.038452 0.378479
vt 0.038452 0.378479
vt 0.038452 0.378479
vt 0.070108 0.305229
vt 0.070108 0.305229
vt 0.045898 0.332413
vt 0.070108 0.305229
vt 0.070108 0.305229
vt 0.070108 0.305229
vt 0.070108 0.305229
vt 0.070108 0.305229
vt 0.070108 0.305229
vt 0.070108 0.305229
vt 0.070108 0.305229
vt 0.070108 0.305229
vt 0.070108 0.305229
vt 0.070108 0.305229
vt 0.070108 0.305229
vt 0.039063 0.231224
vt 0.039063 0.231224
vt 0.039063 0.231224
vt 0.039124 0.231224
vt 0.039124 0.231224
vt 0.039063 0.231224
vt 0.039063 0.231224
vt 0.039063 0.231224
vt 0.039063 0.231224
vt 0.039063 0.231224
vt 0.039063 0.231224
vt 0.039063 0.231224
vt 0.039063 0.231224
vt 0.039063 0.231224
vt 0.039063 0.231224
vt 0.039063 0.231224
vt 0.039063 0.231224
vt 0.039063 0.231224
vt 0.039063 0.231224
vt 0.039063 0.231224
vt 0.039063 0.231224
vt 0.039063 0.231224
vt 0.039063 0.231224
vt 0.039124 0.231224
vt 0.039124 0.231224
vt 0.039124 0.231224
vt 0.039124 0.231224
vt 0.039124 0.231224
vt 0.039063 0.231224
vt 0.038452 0.378479
vt 0.038452 0.378479
vt 0.038452 0.378479
vt 0.038452 0.378479
vt 0.038452 0.378479
vt 0.038391 0.378479
vt 0.038452 0.378479
vt 0.038452 0.378479
vt 0.037659 0.376968
vt 0.037659 0.376968
vt 0.037659 0.376968
vt 0.037659 0.376968
vt 0.037659 0.376968
vt 0.037659 0.376968
vt 0.035278 0.304474
vt 0.035278 0.304474
vt 0.035400 0.304474
vt 0.035400 0.304474
vt 0.035400 0.304474
vt 0.035278 0.304474
vt 0.035278 0.304474
vt 0.035278 0.304474
vt 0.102600 0.229713
vt 0.102600 0.229713
vt 0.102600 0.229713
vt 0.102600 0.229713
vt 0.146912 0.446442
vt 0.146912 0.446442
vt 0.146851 0.446442
vt 0.146851 0.446442
vt 0.146912 0.446442
vt 0.146912 0.446442
vt 0.146912 0.446442
vt 0.102600 0.229713
vt 0.070108 0.305229
vt 0.070108 0.305229
vt 0.102600 0.229713
vt 0.070108 0.305229
vt 0.146884 0.446442
vt 0.070108 0.305229
vt 0.091630 0.229937
vt 0.091630 0.229937
vt 0.091630 0.229937
vt 0.091630 0.229937
vt 0.091630 0.229937
vt 0.091630 0.229937
vt 0.091630 0.229937
vt 0.091630 0.229937
vt 0.091630 0.229937
vt 0.091630 0.229937
vt 0.091630 0.229937
vt 0.091630 0.229937
vt 0.091630 0.229937
vt 0.091630 0.229937
vt 0.091630 0.229937
vt 0.091630 0.229937
vt 0.091630 0.229937
vt 0.091630 0.229937
vt 0.091630 0.229937
vt 0.091630 0.229937
vt 0.091630 0.229937
vt 0.091630 0.229937
vt 0.070068 0.379517
vt 0.070068 0.379517
vt 0.070068 0.379517
vt 0.070068 0.379517
vt 0.070068 0.379517
vt 0.070068 0.379517
vt 0.070068 0.379517
vt 0.070068 0.379517
vn 0.000025 0.000016 1.000000
vn 0.000025 0.000016 1.000000
vn 0.000025 0.000016 1.000000
vn 0.000025 0.000016 1.000000
vn -0.000016 0.000013 1.000000
vn -0.000016 0.000013 1.000000
vn -0.000016 0.000013 1.000000
vn -0.000016 0.000013 1.000000
vn -0.000011 -0.000014 1.000000
vn -0.000011 -0.000014 1.000000
vn -0.000011 -0.000014 1.000000
vn -0.000011 -0.000014 1.000000
vn -0.000011 -0.000014 1.000000
vn -0.000011 0.000003 1.000000
vn -0.000011 0.000003 1.000000
vn -0.000011 0.000003 1.000000
vn -0.000011 0.000003 1.000000
vn 0.000006 0.000017 1.000000
vn 0.000006 0.000017 1.000000
vn 0.000006 0.000017 1.000000
vn 0.000006 0.000017 1.000000
vn 0.000000 0.000000 1.000000
vn 0.000000 0.000000 1.000000
vn 0.000000 0.000000 1.000000
vn 0.000000 0.000000 1.000000
vn 0.000000 0.000000 1.000000
vn 0.000000 0.000000 1.000000
vn 0.000000 0.000000 1.000000
vn 0.000018 -0.000011 1.000000
vn 0.000018 -0.000011 1.000000
vn 0.000018 -0.000011 1.000000
vn 0.000018 -0.000011 1.000000
vn 0.000018 -0.000011 1.000000
vn 0.000005 0.000011 1.000000
vn 0.000005 0.000011 1.000000
vn 0.000005 0.000011 1.000000
vn 0.000005 0.000011 1.000000
vn 0.000000 0.000000 1.000000
vn 0.000000 0.000000 1.000000
vn 0.000000 0.000000 1.000000
vn 0.000000 0.000000 1.000000
vn 0.000001 0.000018 1.000000
vn 0.000001 0.000018 1.000000
vn 0.000001 0.000018 1.000000
vn 0.000001 0.000018 1.000000
vn 0.000038 -0.000003 1.000000
vn 0.000038 -0.000003 1.000000
vn 0.000038 -0.000003 1.000000
vn 0.000038 -0.000003 1.000000
vn 0.000000 0.000000 1.000000
vn 0.000000 0.000000 1.000000
vn 0.000000 0.000000 1.000000
vn 0.000000 0.000000 1.000000
vn 0.000000 0.000000 1.000000
vn 0.000000 0.000000 1.000000
vn 0.000000 0.000000 1.000000
vn 0.000000 0.000000 1.000000
vn 0.000000 0.000000 1.000000
vn -0.000030 0.000006 1.000000
vn -0.000030 0.000006 1.000000
vn -0.000030 0.000006 1.000000
vn -0.000030 0.000006 1.000000
vn 0.000027 0.000001 1.000000
vn 0.000027 0.000001 1.000000
vn 0.000027 0.000001 1.000000
vn 0.000027 0.000001 1.000000
vn 0.000011 0.000001 1.000000
vn 0.000011 0.000001 1.000000
vn 0.000011 0.000001 1.000000
vn 0.000011 0.000001 1.000000
vn 0.000000 0.000000 1.000000
vn 0.000000 0.000000 1.000000
vn 0.000000 0.000000 1.000000
vn 0.000000 0.000000 1.000000
vn 0.000004 0.000032 1.000000
vn 0.000004 0.000032 1.000000
vn 0.000004 0.000032 1.000000
vn 0.000000 0.000000 1.000000
vn 0.000000 0.000000 1.000000
vn 0.000000 0.000000 1.000000
vn -0.000000 0.000000 1.000000
vn -0.000000 0.000000 1.000000
vn -0.000000 0.000000 1.000000
vn 0.000015 0.000000 1.000000
vn 0.000015 0.000000 1.000000
vn 0.000015 0.000000 1.000000
vn -0.000008 0.000009 1.000000
vn -0.000008 0.000009 1.000000
vn -0.000008 0.000009 1.000000
vn 0.000015 -0.000000 1.000000
vn 0.000015 -0.000000 1.000000
vn 0.000015 -0.000000 1.000000
vn 0.000015 -0.000000 1.000000
vn -0.000000 0.000000 1.000000
vn -0.000000 0.000000 1.000000
vn -0.000000 0.000000 1.000000
vn -0.000034 -0.000009 1.000000
vn -0.000034 -0.000009 1.000000
vn -0.000034 -0.000009 1.000000
vn -0.000034 -0.000009 1.000000
vn 0.000000 0.000000 1.000000
vn 0.000000 0.000000 1.000000
vn 0.000000 0.000000 1.000000
vn 0.000000 0.000000 1.000000
vn 0.000000 0.000000 1.000000
vn -0.000016 -0.000020 1.000000
vn -0.000016 -0.000020 1.000000
vn -0.000016 -0.000020 1.000000
vn -0.000016 -0.000020 1.000000
vn 0.000007 0.000028 1.000000
vn 0.000007 0.000028 1.000000
vn 0.000007 0.000028 1.000000
vn 0.000000 0.000000 1.000000
vn 0.000000 0.000000 1.000000
vn 0.000000 0.000000 1.000000
vn 0.000000 0.000000 1.000000
vn 0.000000 0.000000 1.000000
vn 0.000001 -0.000039 1.000000
vn 0.000001 -0.000039 1.000000
vn 0.000001 -0.000039 1.000000
vn 0.000001 -0.000039 1.000000
vn 0.000008 0.000015 1.000000
vn 0.000008 0.000015 1.000000
vn 0.000008 0.000015 1.000000
vn -0.000006 0.000014 1.000000
vn -0.000006 0.000014 1.000000
vn -0.000006 0.000014 1.000000
vn -0.000006 0.000014 1.000000
vn -0.000047 -0.000024 1.000000
vn -0.000047 -0.000024 1.000000
vn -0.000047 -0.000024 1.000000
vn 0.000000 0.000000 1.000000
vn 0.000000 0.000000 1.000000
vn 0.000000 0.000000 1.000000
vn 0.000000 0.000000 1.000000
vn 0.000000 0.000000 1.000000
vn 0.000000 0.000000 1.000000
vn 0.000000 0.000000 1.000000
vn 0.000000 0.000000 1.000000
vn 0.000000 0.000000 1.000000
vn 0.000000 0.000000 1.000000
vn -0.000009 -0.000009 1.000000
vn -0.000009 -0.000009 1.000000
vn -0.000009 -0.000009 1.000000
vn -0.000006 -0.000009 1.000000
vn -0.000006 -0.000009 1.000000
vn -0.000006 -0.000009 1.000000
vn -0.000006 -0.000009 1.000000
vn -0.000003 -0.000016 1.000000
vn -0.000003 -0.000016 1.000000
vn -0.000003 -0.000016 1.000000
vn -0.000006 0.000005 1.000000
vn -0.000006 0.000005 1.000000
vn -0.000006 0.000005 1.000000
vn -0.000006 0.000005 1.000000
vn -0.000007 0.000008 1.000000
vn -0.000007 0.000008 1.000000
vn -0.000007 0.000008 1.000000
vn -0.000007 0.000008 1.000000
vn -0.000009 -0.000001 1.000000
vn -0.000009 -0.000001 1.000000
vn -0.000009 -0.000001 1.000000
vn 0.000000 0.000000 1.000000
vn 0.000000 0.000000 1.000000
vn 0.000000 0.000000 1.000000
vn 0.000008 0.000001 1.000000
vn 0.000008 0.000001 1.000000
vn 0.000008 0.000001 1.000000
vn 0.000016 -0.000002 1.000000
vn 0.000016 -0.000002 1.000000
vn 0.000016 -0.000002 1.000000
vn 0.000016 0.000003 1.000000
vn 0.000016 0.000003 1.000000
vn 0.000016 0.000003 1.000000
vn 0.000018 0.000005 1.000000
vn 0.000018 0.000005 1.000000
vn 0.000018 0.000005 1.000000
vn 0.000019 -0.000001 1.000000
vn 0.000019 -0.000001 1.000000
vn 0.000019 -0.000001 1.000000
vn 0.000019 -0.000001 1.000000
vn 0.000025 -0.000004 1.000000
vn 0.000025 -0.000004 1.000000
vn 0.000025 -0.000004 1.000000
vn 0.000025 -0.000004 1.000000
vn 0.000019 0.000000 1.000000
vn 0.000019 0.000000 1.000000
vn 0.000019 0.000000 1.000000
vn 0.000011 0.000022 1.000000
vn 0.000011 0.000022 1.000000
vn 0.000011 0.000022 1.000000
vn 0.000005 0.000006 1.000000
vn 0.000005 0.000006 1.000000
vn 0.000005 0.000006 1.000000
vn 0.000005 0.000006 1.000000
vn 0.000011 -0.000021 1.000000
vn 0.000011 -0.000021 1.000000
vn 0.000011 -0.000021 1.000000
vn 0.000011 -0.000021 1.000000
vn -0.000001 -0.000017 1.000000
vn -0.000001 -0.000017 1.000000
vn -0.000001 -0.000017 1.000000
vn -0.000013 -0.000015 1.000000
vn -0.000013 -0.000015 1.000000
vn -0.000013 -0.000015 1.000000
vn 0.000001 0.000000 -1.000000
vn 0.000001 0.000000 -1.000000
vn 0.000001 0.000000 -1.000000
vn 0.000001 0.000000 -1.000000
vn 0.000000 1.000000 0.000000
vn 0.000000 1.000000 0.000000
vn 0.000000 1.000000 0.000000
vn 0.000000 1.000000 0.000000
vn 0.000000 -1.000000 0.000000
vn 0.000000 -1.000000 0.000000
vn 0.000000 -1.000000 0.000000
vn 0.000000 -1.000000 0.000000
vn -1.000000 0.000000 0.000000
vn -1.000000 0.000000 0.000000
vn -1.000000 0.000000 0.000000
vn -1.000000 0.000000 0.000000
vn 1.000000 0.000000 0.000000
vn 1.000000 0.000000 0.000000
vn 1.000000 0.000000 0.000000
vn 1.000000 0.000000 0.000000
vn 0.000000 0.000000 1.000000
vn 0.000000 0.000000 1.000000
vn 0.000000 0.000000 1.000000
vn 0.000000 0.000000 1.000000
vn -0.000016 0.000000 1.000000
vn -0.000016 0.000000 1.000000
vn -0.000016 0.000000 1.000000
vn -0.000016 0.000000 1.000000
vn 0.000000 0.000000 1.000000
vn 0.000000 0.000000 1.000000
vn 0.000000 0.000000 1.000000
vn 0.000000 0.000000 1.000000
vn -0.000016 0.000000 1.000000
vn -0.000016 0.000000 1.000000
vn -0.000016 0.000000 1.000000
vn -0.000016 0.000000 1.000000
vn 0.000000 -0.897229 0.441566
vn 0.000000 -0.897229 0.441565
vn 0.000000 -0.897229 0.441566
vn 0.000000 -0.897229 0.441566
vn 0.895085 0.000000 0.445895
vn 0.895086 0.000000 0.445895
vn 0.895085 0.000000 0.445895
vn 0.895085 0.000000 0.445895
vn 0.000000 0.897241 0.441542
vn 0.000000 0.897241 0.441542
vn 0.000000 0.897241 0.441542
vn 0.000000 0.897241 0.441542
vn -0.895073 0.000000 0.445919
vn -0.895073 0.000000 0.445919
vn -0.895073 0.000000 0.445919
vn -0.895073 0.000000 0.445919
vn 0.000000 0.000000 1.000000
vn 0.000000 0.000000 1.000000
vn 0.000000 0.000000 1.000000
vn 0.000000 0.000000 1.000000
vn -0.000013 0.000000 1.000000
vn -0.000013 0.000000 1.000000
vn -0.000013 0.000000 1.000000
vn -0.000013 0.000000 1.000000
vn 0.000000 0.000000 1.000000
vn 0.000000 0.000000 1.000000
vn 0.000000 0.000000 1.000000
vn 0.000000 0.000000 1.000000
vn -0.000013 0.000000 1.000000
vn -0.000013 0.000000 1.000000
vn -0.000013 0.000000 1.000000
vn -0.000013 0.000000 1.000000
s off
f 11/10/1 25/23/2 23/32/3 24/33/4
f 10/59/5 13/56/6 12/57/7 11/58/8
f 11/10/9 24/33/10 19/34/11 9/79/12 10/80/13
f 20/69/14 23/66/15 22/67/16 21/68/17
f 12/12/18 26/26/19 25/25/20 11/11/21
f 1/1/22 6/6/23 7/7/24 8/8/25
f 26/81/26 34/82/27 25/23/28
f 22/67/29 33/71/30 32/72/31 28/77/32 27/78/33
f 12/83/34 31/84/35 32/85/36 26/81/37
f 37/94/38 36/14/39 16/31/40 17/93/41
f 37/5/42 17/17/43 18/18/44 5/37/45
f 36/36/46 30/30/47 15/15/48 16/16/49
f 43/109/50 41/106/51 40/107/52
f 30/87/53 46/88/54 45/89/55 48/90/56 49/91/57 44/92/58
f 50/112/59 51/115/60 47/102/61 43/103/62
f 28/28/63 50/113/64 43/43/65 27/27/66
f 13/99/67 30/96/68 31/97/69 12/98/70
f 1/1/71 8/8/72 39/39/73 2/2/74
f 2/2/75 41/41/76 3/4/77
f 2/2/78 39/39/79 40/40/80
f 2/2/81 40/40/82 41/41/83
f 3/4/84 41/41/85 38/38/86
f 52/117/87 40/107/88 39/108/89
f 38/105/90 41/106/91 47/110/92 42/111/93
f 47/110/94 41/106/95 43/109/96
f 48/101/97 51/115/98 50/112/99 49/104/100
f 49/49/101 50/113/102 28/28/103 29/29/104 44/44/105
f 27/27/106 52/116/107 21/21/108 22/22/109
f 27/27/110 43/43/111 52/116/112
f 20/20/113 39/39/114 8/8/115 9/9/116 19/19/117
f 21/21/118 52/116/119 39/39/120 20/20/121
f 43/109/122 40/107/123 52/117/124
f 19/64/125 24/65/126 23/66/127 20/69/128
f 22/67/129 34/70/130 33/71/131
f 44/75/132 31/73/133 30/74/134
f 28/77/135 32/72/136 31/73/137 29/76/138
f 29/76/139 31/73/140 44/75/141
f 7/62/142 18/51/143 14/55/144
f 14/55/145 17/52/146 16/53/147 15/54/148
f 14/55/149 18/51/150 17/52/151
f 7/62/152 13/56/153 10/59/154 8/61/155
f 5/50/156 18/51/157 7/62/158 6/63/159
f 7/62/160 14/55/161 13/56/162
f 8/61/163 10/59/164 9/60/165
f 35/13/166 36/14/167 37/94/168
f 4/3/169 30/30/170 36/36/171
f 4/3/172 36/36/173 35/35/174
f 53/118/175 45/45/176 46/46/177
f 53/118/178 46/46/179 30/30/180 4/3/181
f 42/42/182 51/114/183 48/48/184 45/45/185
f 42/42/186 45/45/187 53/118/188
f 42/42/189 47/47/190 51/114/191
f 15/95/192 30/96/193 13/99/194 14/100/195
f 26/81/196 32/85/197 33/86/198 34/82/199
f 25/23/200 34/82/201 22/24/202
f 23/32/203 25/23/204 22/24/205
f 54/119/206 55/120/207 57/121/208 56/122/209
f 56/122/210 57/121/211 59/123/212 58/124/213
f 60/125/214 61/126/215 55/127/216 54/128/217
f 55/120/218 61/129/219 59/130/220 57/121/221
f 60/131/222 54/119/223 56/122/224 58/132/225
f 58/124/226 59/123/227 63/133/228 62/134/229
f 59/123/230 61/126/231 64/135/232 63/133/233
f 61/126/234 60/125/235 65/136/236 64/135/237
f 60/125/238 58/124/239 62/134/240 65/136/241
f 62/134/242 63/133/243 67/137/244 66/138/245
f 63/133/246 64/135/247 68/139/248 67/137/249
f 64/135/250 65/136/251 69/140/252 68/139/253
f 65/136/254 62/134/255 66/138/256 69/140/257
f 66/141/258 67/142/259 71/143/260 70/144/261
f 67/142/262 68/145/263 72/146/264 71/143/265
f 68/145/266 69/147/267 73/148/268 72/146/269
f 69/147/270 66/141/271 70/144/272 73/148/273
