# This file uses meters as units for non-parametric coordinates.

v 17.073975 0.000033 19.160400
v 25.621582 0.000033 1.475342
v 19.160400 0.000033 -17.073975
v 1.475342 0.000033 -25.621704
v -17.073975 0.000033 -19.160645
v -25.621582 0.000033 -1.475464
v -19.160645 0.000033 17.073730
v -1.475586 0.000033 25.621582
v 17.073975 41.414398 19.160400
v 25.621582 41.414398 1.475342
v 19.160400 41.414398 -17.073975
v 1.475342 41.414398 -25.621704
v -17.073975 41.414398 -19.160645
v -25.621582 41.414398 -1.475464
v -19.160645 41.414398 17.073730
v -1.475586 41.414398 25.621582
v 0.000000 0.000033 -0.000122
v 24.234375 54.907265 26.837158
v 36.113037 54.907265 1.840454
v 26.837646 54.907265 -24.234985
v 1.840332 54.907265 -36.113525
v -24.234131 54.907265 -26.837402
v -36.113037 54.907265 -1.840698
v -26.836914 54.907265 24.234375
v -1.840576 54.907265 36.113159
v 25.569092 71.268700 25.568726
v 36.159912 71.268700 -0.000122
v 25.569092 71.268700 -25.569336
v 0.000000 71.268700 -36.160400
v -25.568604 71.268700 -25.569336
v -36.159912 71.268700 -0.000122
v -25.568604 71.268700 25.568726
v 0.000000 71.268700 36.160156
v 18.025391 83.868843 18.025269
v 25.491943 83.868843 -0.000122
v 18.025391 83.868843 -18.025757
v 0.000000 83.868843 -25.492065
v -18.025391 83.868843 -18.025757
v -25.491943 83.868843 -0.000122
v -18.025391 83.868843 18.025269
v 0.000000 83.868843 25.491821
v 28.333252 41.414398 4.073608
v 39.339111 54.907265 4.584961
v 39.521484 71.268700 2.576538
v 4.073242 41.414398 -28.333740
v 4.584961 54.907265 -39.339844
v 2.576904 71.268700 -39.522095
v -28.333496 41.414398 -4.073608
v -39.339111 54.907265 -4.585083
v -39.521729 71.268700 -2.577026
v -4.073486 41.414398 28.333252
v -4.585205 54.907265 39.339478
v -2.577148 71.268700 39.521973
v 22.915283 41.414398 -17.154663
v 31.059326 54.907265 -24.575195
v 29.768555 71.268700 -26.124512
v -17.154541 41.414398 -22.915405
v -24.574951 54.907265 -31.059692
v -26.123779 71.268700 -29.768433
v -22.915527 41.414398 17.154297
v -31.059082 54.907265 24.574829
v -29.768066 71.268700 26.123779
v 17.154297 41.414398 22.915039
v 24.575195 54.907265 31.059448
v 26.124268 71.268700 29.768188
v 18.025391 87.188995 18.025269
v 25.491943 87.188995 -0.000122
v 18.025391 87.188995 -18.025757
v 0.000000 87.188995 -25.492065
v -18.025391 87.188995 -18.025757
v -25.491943 87.188995 -0.000122
v -18.025391 87.188995 18.025269
v 0.000000 87.188995 25.491821
v 7.340576 87.188995 7.340576
v 10.381348 87.188995 -0.000122
v 7.340576 87.188995 -7.340820
v 0.000000 87.188995 -10.381592
v -7.340820 87.188995 -7.340820
v -10.381348 87.188995 -0.000122
v -7.340820 87.188995 7.340576
v 0.000000 87.188995 10.381348
v 6.340820 89.855682 6.340332
v 8.966797 89.855682 -0.000122
v 0.000000 89.855682 -0.000122
v 6.340820 89.855682 -6.340698
v 0.000000 89.855682 -8.967041
v -6.340332 89.855682 -6.340698
v -8.966797 89.855682 -0.000122
v -6.340332 89.855682 6.340332
v 0.000000 89.855682 8.966553
vt 0.113281 0.355051
vt 0.113159 0.355051
vt 0.113159 0.355049
vt 0.113281 0.355049
vt 0.113159 0.355051
vt 0.113159 0.355049
vt 0.113159 0.355051
vt 0.113159 0.355049
vt 0.113159 0.355051
vt 0.113159 0.355049
vt 0.113159 0.355051
vt 0.113159 0.355049
vt 0.113281 0.355051
vt 0.113281 0.355049
vt 0.113281 0.355051
vt 0.113281 0.355049
vt 0.113159 0.355051
vt 0.112549 0.352036
vt 0.112549 0.352036
vt 0.112549 0.352036
vt 0.112549 0.352036
vt 0.112549 0.352036
vt 0.112549 0.352036
vt 0.112549 0.352036
vt 0.112549 0.352036
vt 0.112549 0.352036
vt 0.114409 0.377361
vt 0.114409 0.377361
vt 0.114409 0.377361
vt 0.114409 0.377361
vt 0.114409 0.377361
vt 0.114409 0.377361
vt 0.114409 0.377361
vt 0.114409 0.377361
vt 0.112549 0.352036
vt 0.112549 0.352036
vt 0.114409 0.377361
vt 0.114409 0.377361
vt 0.114409 0.377361
vt 0.114409 0.377361
vt 0.114409 0.377361
vt 0.114409 0.377361
vt 0.114409 0.377361
vt 0.114409 0.377361
vt 0.114409 0.377361
vt 0.114409 0.377361
vt 0.114409 0.377361
vt 0.114409 0.377361
vt 0.114409 0.377361
vt 0.114409 0.377361
vt 0.114409 0.377361
vt 0.114409 0.377361
vt 0.114409 0.377361
vt 0.114409 0.377361
vt 0.114409 0.377361
vt 0.114409 0.377361
vt 0.114409 0.377361
vt 0.114409 0.377361
vt 0.114409 0.377361
vt 0.114409 0.377361
vt 0.114409 0.377361
vt 0.114409 0.377361
vt 0.114409 0.377361
vt 0.114409 0.377361
vt 0.114409 0.377361
vt 0.114409 0.377361
vt 0.114409 0.377361
vt 0.114409 0.377361
vt 0.114409 0.377361
vt 0.114409 0.377361
vt 0.114409 0.377361
vt 0.114409 0.377361
vt 0.114409 0.377361
vt 0.114409 0.377361
vt 0.114409 0.377361
vt 0.114409 0.377361
vt 0.114409 0.377361
vt 0.114409 0.377361
vt 0.114409 0.377361
vt 0.114409 0.377361
vt 0.114409 0.377361
vt 0.114409 0.377361
vt 0.114409 0.377361
vt 0.114409 0.377361
vt 0.112549 0.352036
vt 0.112549 0.352036
vt 0.112549 0.352036
vt 0.112549 0.352036
vt 0.112549 0.352036
vt 0.112549 0.352036
vt 0.112671 0.305115
vt 0.112671 0.305115
vt 0.112671 0.305115
vt 0.112671 0.305115
vt 0.112671 0.305115
vt 0.112671 0.305115
vt 0.112671 0.305115
vt 0.112671 0.305115
vt 0.112671 0.305115
vt 0.112671 0.305115
vt 0.112671 0.305115
vt 0.112671 0.305115
vt 0.112671 0.305115
vt 0.112671 0.305115
vt 0.112671 0.305115
vt 0.112671 0.305115
vt 0.112671 0.305115
vt 0.112671 0.305115
vt 0.112671 0.305115
vt 0.112671 0.305115
vt 0.112671 0.305115
vt 0.112671 0.305115
vt 0.112671 0.305115
vt 0.112671 0.305115
vt 0.112671 0.305115
vt 0.112671 0.305115
vt 0.112671 0.305115
vt 0.112671 0.305115
vt 0.112671 0.305115
vt 0.112671 0.305115
vt 0.112671 0.305115
vt 0.112671 0.305115
vt 0.112671 0.305115
vt 0.112671 0.305115
vt 0.112671 0.305115
vt 0.112671 0.305115
vt 0.112671 0.305115
vt 0.112671 0.305115
vt 0.112671 0.305115
vt 0.112671 0.305115
vt 0.112671 0.305115
vt 0.112671 0.305115
vt 0.112671 0.305115
vt 0.112671 0.305115
vt 0.112671 0.305115
vt 0.112671 0.305115
vt 0.112671 0.305115
vt 0.112671 0.305115
vt 0.112671 0.305115
vt 0.112671 0.305115
vt 0.112671 0.305115
vt 0.112671 0.305115
vt 0.112671 0.305115
vt 0.112671 0.305115
vt 0.112671 0.305115
vt 0.112671 0.305115
vt 0.114409 0.377361
vt 0.114409 0.377361
vt 0.114409 0.377361
vt 0.114409 0.377361
vt 0.114409 0.377361
vt 0.114409 0.377361
vt 0.114409 0.377361
vt 0.114409 0.377361
vt 0.114409 0.377361
vt 0.114409 0.377361
vt 0.114409 0.377361
vt 0.114409 0.377361
vt 0.114409 0.377361
vt 0.114409 0.377361
vt 0.114409 0.377361
vt 0.114409 0.377361
vt 0.114409 0.377361
vt 0.114409 0.377361
vt 0.114409 0.377361
vt 0.114409 0.377361
vt 0.114409 0.377361
vt 0.114409 0.377361
vt 0.114409 0.377361
vt 0.114409 0.377361
vt 0.114409 0.377361
vt 0.114409 0.377361
vt 0.114409 0.377361
vt 0.114409 0.377361
vt 0.114409 0.377361
vt 0.114409 0.377361
vt 0.114409 0.377361
vt 0.114409 0.377361
vn 0.900352 0.000000 0.435162
vn 0.900352 0.000000 0.435162
vn 0.900352 0.000000 0.435162
vn 0.900352 0.000000 0.435162
vn 0.944351 0.000000 -0.328940
vn 0.944351 0.000000 -0.328940
vn 0.944351 0.000000 -0.328940
vn 0.944351 0.000000 -0.328940
vn 0.435167 0.000000 -0.900350
vn 0.435167 0.000000 -0.900350
vn 0.435167 0.000000 -0.900350
vn 0.435167 0.000000 -0.900350
vn -0.328935 0.000000 -0.944353
vn -0.328935 0.000000 -0.944353
vn -0.328935 0.000000 -0.944353
vn -0.328935 0.000000 -0.944353
vn -0.900353 0.000000 -0.435159
vn -0.900353 0.000000 -0.435159
vn -0.900353 0.000000 -0.435159
vn -0.900353 0.000000 -0.435159
vn -0.944354 0.000000 0.328931
vn -0.944354 0.000000 0.328931
vn -0.944354 0.000000 0.328931
vn -0.944354 0.000000 0.328931
vn -0.435172 0.000000 0.900347
vn -0.435172 0.000000 0.900347
vn -0.435172 0.000000 0.900347
vn -0.435172 0.000000 0.900347
vn 0.328937 0.000000 0.944352
vn 0.328937 0.000000 0.944352
vn 0.328937 0.000000 0.944352
vn 0.328937 0.000000 0.944352
vn 0.000000 -1.000000 0.000000
vn 0.000000 -1.000000 0.000000
vn 0.000000 -1.000000 0.000000
vn 0.000000 -1.000000 0.000000
vn 0.000000 -1.000000 0.000000
vn 0.000000 -1.000000 0.000000
vn 0.000000 -1.000000 -0.000000
vn 0.000000 -1.000000 -0.000000
vn 0.000000 -1.000000 -0.000000
vn 0.000000 -1.000000 0.000000
vn 0.000000 -1.000000 0.000000
vn 0.000000 -1.000000 0.000000
vn 0.000000 -1.000000 0.000000
vn 0.000000 -1.000000 0.000000
vn 0.000000 -1.000000 0.000000
vn 0.000000 -1.000000 0.000000
vn 0.000000 -1.000000 0.000000
vn 0.000000 -1.000000 0.000000
vn 0.000000 -1.000000 0.000000
vn 0.000000 -1.000000 0.000000
vn 0.000000 -1.000000 0.000000
vn 0.000000 -1.000000 -0.000000
vn 0.000000 -1.000000 -0.000000
vn 0.000000 -1.000000 -0.000000
vn 0.000000 1.000000 0.000000
vn 0.000000 1.000000 0.000000
vn 0.000000 1.000000 0.000000
vn 0.000000 1.000000 0.000000
vn 0.000000 1.000000 0.000000
vn 0.000000 1.000000 0.000000
vn 0.000000 1.000000 0.000000
vn 0.000000 1.000000 0.000000
vn 0.000000 1.000000 0.000000
vn 0.000000 1.000000 0.000000
vn 0.000000 1.000000 0.000000
vn 0.000000 1.000000 0.000000
vn 0.000000 1.000000 0.000000
vn 0.000000 1.000000 0.000000
vn 0.000000 1.000000 0.000000
vn 0.000000 1.000000 0.000000
vn 0.000000 1.000000 0.000000
vn 0.000000 1.000000 0.000000
vn 0.000000 1.000000 0.000000
vn 0.000000 1.000000 0.000000
vn 0.000000 1.000000 0.000000
vn 0.000000 1.000000 0.000000
vn 0.000000 1.000000 0.000000
vn 0.000000 1.000000 0.000000
vn 0.661389 -0.586930 0.466988
vn 0.661389 -0.586930 0.466988
vn 0.661389 -0.586930 0.466988
vn 0.661389 -0.586930 0.466988
vn 0.797885 -0.586931 -0.137451
vn 0.797885 -0.586931 -0.137451
vn 0.797884 -0.586931 -0.137451
vn 0.797885 -0.586931 -0.137451
vn 0.466979 -0.586953 -0.661375
vn 0.466979 -0.586953 -0.661375
vn 0.466979 -0.586953 -0.661375
vn 0.466979 -0.586953 -0.661375
vn -0.137453 -0.586943 -0.797875
vn -0.137453 -0.586943 -0.797875
vn -0.137453 -0.586943 -0.797875
vn -0.137454 -0.586943 -0.797875
vn -0.661391 -0.586923 -0.466994
vn -0.661391 -0.586923 -0.466994
vn -0.661391 -0.586923 -0.466994
vn -0.661391 -0.586923 -0.466994
vn -0.797891 -0.586921 0.137454
vn -0.797891 -0.586921 0.137454
vn -0.797891 -0.586921 0.137454
vn -0.797891 -0.586921 0.137454
vn -0.466993 -0.586937 0.661379
vn -0.466993 -0.586937 0.661379
vn -0.466993 -0.586937 0.661379
vn -0.466993 -0.586937 0.661379
vn 0.137454 -0.586942 0.797876
vn 0.137454 -0.586942 0.797875
vn 0.137454 -0.586942 0.797875
vn 0.137454 -0.586942 0.797876
vn 0.841324 0.015102 0.540320
vn 0.841324 0.015102 0.540320
vn 0.841324 0.015102 0.540320
vn 0.841324 0.015102 0.540320
vn 0.976975 0.015091 -0.212820
vn 0.976975 0.015091 -0.212819
vn 0.976975 0.015091 -0.212820
vn 0.976975 0.015091 -0.212820
vn 0.540322 0.015111 -0.841322
vn 0.540322 0.015111 -0.841322
vn 0.540322 0.015111 -0.841322
vn 0.540322 0.015111 -0.841322
vn -0.212836 0.015108 -0.976971
vn -0.212836 0.015108 -0.976971
vn -0.212836 0.015108 -0.976971
vn -0.212836 0.015108 -0.976971
vn -0.841317 0.015092 -0.540331
vn -0.841317 0.015092 -0.540331
vn -0.841317 0.015092 -0.540331
vn -0.841317 0.015092 -0.540331
vn -0.976972 0.015099 0.212835
vn -0.976972 0.015099 0.212835
vn -0.976972 0.015099 0.212835
vn -0.976972 0.015099 0.212835
vn -0.540347 0.015104 0.841307
vn -0.540347 0.015104 0.841307
vn -0.540347 0.015104 0.841307
vn -0.540347 0.015104 0.841307
vn 0.212830 0.015102 0.976972
vn 0.212830 0.015102 0.976972
vn 0.212830 0.015102 0.976973
vn 0.212830 0.015102 0.976972
vn 0.644349 0.686732 0.336472
vn 0.644349 0.686732 0.336472
vn 0.644349 0.686732 0.336472
vn 0.644349 0.686732 0.336472
vn 0.693541 0.686740 -0.217690
vn 0.693541 0.686740 -0.217690
vn 0.693541 0.686740 -0.217690
vn 0.693541 0.686740 -0.217690
vn 0.336470 0.686740 -0.644341
vn 0.336470 0.686740 -0.644341
vn 0.336470 0.686740 -0.644341
vn 0.336470 0.686740 -0.644341
vn -0.217700 0.686737 -0.693541
vn -0.217700 0.686737 -0.693541
vn -0.217700 0.686737 -0.693541
vn -0.217700 0.686737 -0.693541
vn -0.644346 0.686731 -0.336479
vn -0.644346 0.686731 -0.336479
vn -0.644346 0.686731 -0.336479
vn -0.644346 0.686731 -0.336479
vn -0.693545 0.686732 0.217703
vn -0.693545 0.686732 0.217703
vn -0.693545 0.686732 0.217703
vn -0.693545 0.686732 0.217703
vn -0.336485 0.686738 0.644336
vn -0.336485 0.686738 0.644336
vn -0.336485 0.686738 0.644336
vn -0.336485 0.686738 0.644336
vn 0.217700 0.686743 0.693535
vn 0.217700 0.686743 0.693535
vn 0.217700 0.686743 0.693535
vn 0.217700 0.686743 0.693535
vn 0.000000 -1.000000 0.000000
vn 0.000000 -1.000000 0.000000
vn 0.000000 -1.000000 0.000000
vn 0.596177 -0.453406 -0.662568
vn 0.596177 -0.453406 -0.662568
vn 0.596177 -0.453406 -0.662568
vn 0.596177 -0.453406 -0.662568
vn 0.625494 -0.095466 -0.774366
vn 0.625494 -0.095466 -0.774366
vn 0.625494 -0.095466 -0.774366
vn 0.625494 -0.095466 -0.774366
vn 0.540827 0.457894 -0.705577
vn 0.540827 0.457894 -0.705577
vn 0.540828 0.457894 -0.705577
vn 0.000000 -1.000000 0.000000
vn 0.000000 -1.000000 0.000000
vn 0.000000 -1.000000 0.000000
vn -0.662621 -0.453380 -0.596137
vn -0.662621 -0.453380 -0.596137
vn -0.662621 -0.453380 -0.596137
vn -0.662621 -0.453380 -0.596137
vn -0.774364 -0.095449 -0.625500
vn -0.774364 -0.095449 -0.625500
vn -0.774364 -0.095449 -0.625500
vn -0.774364 -0.095449 -0.625500
vn -0.705551 0.457920 -0.540839
vn -0.705551 0.457920 -0.540839
vn -0.705551 0.457920 -0.540839
vn 0.000000 -1.000000 0.000000
vn 0.000000 -1.000000 0.000000
vn 0.000000 -1.000000 0.000000
vn -0.596158 -0.453378 0.662604
vn -0.596158 -0.453378 0.662604
vn -0.596158 -0.453378 0.662604
vn -0.596158 -0.453378 0.662604
vn -0.625489 -0.095463 0.774371
vn -0.625489 -0.095463 0.774371
vn -0.625489 -0.095463 0.774371
vn -0.625489 -0.095463 0.774371
vn -0.540834 0.457899 0.705569
vn -0.540834 0.457899 0.705569
vn -0.540834 0.457899 0.705569
vn 0.000000 -1.000000 0.000000
vn 0.000000 -1.000000 0.000000
vn 0.000000 -1.000000 0.000000
vn 0.662599 -0.453391 0.596154
vn 0.662599 -0.453391 0.596154
vn 0.662599 -0.453391 0.596154
vn 0.662599 -0.453391 0.596154
vn 0.774355 -0.095461 0.625509
vn 0.774355 -0.095461 0.625510
vn 0.774355 -0.095461 0.625510
vn 0.774355 -0.095461 0.625510
vn 0.705530 0.457933 0.540855
vn 0.705530 0.457933 0.540855
vn 0.705530 0.457933 0.540855
vn 0.000000 -1.000000 -0.000000
vn 0.000000 -1.000000 -0.000000
vn 0.000000 -1.000000 -0.000000
vn -0.046966 -0.453405 -0.890066
vn -0.046966 -0.453405 -0.890066
vn -0.046966 -0.453405 -0.890066
vn -0.046966 -0.453405 -0.890066
vn -0.105247 -0.095461 -0.989854
vn -0.105247 -0.095461 -0.989854
vn -0.105247 -0.095461 -0.989854
vn -0.105247 -0.095461 -0.989854
vn -0.116515 0.457892 -0.881340
vn -0.116515 0.457891 -0.881340
vn -0.116515 0.457892 -0.881340
vn 0.000000 -1.000000 0.000000
vn 0.000000 -1.000000 0.000000
vn 0.000000 -1.000000 0.000000
vn -0.890089 -0.453355 0.047019
vn -0.890089 -0.453355 0.047019
vn -0.890089 -0.453355 0.047019
vn -0.890089 -0.453355 0.047019
vn -0.989847 -0.095455 0.105315
vn -0.989847 -0.095455 0.105315
vn -0.989847 -0.095455 0.105315
vn -0.989847 -0.095455 0.105315
vn -0.881351 0.457867 0.116527
vn -0.881351 0.457867 0.116527
vn -0.881351 0.457867 0.116527
vn 0.000000 -1.000000 0.000000
vn 0.000000 -1.000000 0.000000
vn 0.000000 -1.000000 0.000000
vn 0.046977 -0.453393 0.890072
vn 0.046977 -0.453393 0.890072
vn 0.046977 -0.453393 0.890072
vn 0.046977 -0.453393 0.890072
vn 0.105255 -0.095451 0.989854
vn 0.105255 -0.095451 0.989854
vn 0.105255 -0.095451 0.989854
vn 0.105255 -0.095451 0.989854
vn 0.116489 0.457902 0.881338
vn 0.116489 0.457902 0.881338
vn 0.116489 0.457902 0.881338
vn 0.000000 -1.000000 0.000002
vn 0.000000 -1.000000 0.000002
vn 0.000000 -1.000000 0.000002
vn 0.890074 -0.453387 -0.046991
vn 0.890074 -0.453387 -0.046991
vn 0.890074 -0.453387 -0.046991
vn 0.890074 -0.453387 -0.046991
vn 0.989846 -0.095471 -0.105310
vn 0.989846 -0.095471 -0.105310
vn 0.989846 -0.095471 -0.105310
vn 0.989846 -0.095471 -0.105310
vn 0.881335 0.457901 -0.116513
vn 0.881335 0.457901 -0.116513
vn 0.881335 0.457901 -0.116513
vn 0.923876 0.000000 0.382692
vn 0.923876 0.000000 0.382692
vn 0.923876 0.000000 0.382692
vn 0.923876 0.000000 0.382692
vn 0.923878 0.000000 -0.382687
vn 0.923878 0.000000 -0.382687
vn 0.923878 0.000000 -0.382687
vn 0.923878 0.000000 -0.382687
vn 0.382681 0.000000 -0.923880
vn 0.382681 0.000000 -0.923880
vn 0.382681 0.000000 -0.923880
vn 0.382681 0.000000 -0.923880
vn -0.382681 0.000000 -0.923880
vn -0.382681 0.000000 -0.923880
vn -0.382681 0.000000 -0.923880
vn -0.382681 0.000000 -0.923880
vn -0.923878 0.000000 -0.382687
vn -0.923878 0.000000 -0.382687
vn -0.923878 0.000000 -0.382687
vn -0.923878 0.000000 -0.382687
vn -0.923876 0.000000 0.382692
vn -0.923876 0.000000 0.382692
vn -0.923876 0.000000 0.382692
vn -0.923876 0.000000 0.382692
vn -0.382692 0.000000 0.923876
vn -0.382692 0.000000 0.923876
vn -0.382692 0.000000 0.923876
vn -0.382692 0.000000 0.923876
vn 0.382692 0.000000 0.923876
vn 0.382692 0.000000 0.923876
vn 0.382692 0.000000 0.923876
vn 0.382692 0.000000 0.923876
vn 0.000000 1.000000 0.000000
vn 0.000000 1.000000 0.000000
vn 0.000000 1.000000 0.000000
vn 0.000000 1.000000 0.000000
vn 0.000000 1.000000 0.000000
vn 0.000000 1.000000 0.000000
vn 0.000000 1.000000 0.000000
vn 0.000000 1.000000 0.000000
vn 0.000000 1.000000 0.000000
vn 0.000000 1.000000 0.000000
vn 0.000000 1.000000 0.000000
vn 0.000000 1.000000 0.000000
vn 0.000000 1.000000 0.000000
vn 0.000000 1.000000 0.000000
vn 0.000000 1.000000 0.000000
vn 0.000000 1.000000 0.000000
vn 0.000000 1.000000 0.000000
vn 0.000000 1.000000 0.000000
vn 0.000000 1.000000 0.000000
vn 0.000000 1.000000 0.000000
vn 0.000000 1.000000 0.000001
vn 0.000000 1.000000 0.000001
vn 0.000000 1.000000 0.000001
vn 0.000000 1.000000 0.000001
vn 0.000000 1.000000 0.000000
vn 0.000000 1.000000 0.000000
vn 0.000000 1.000000 0.000000
vn 0.000000 1.000000 0.000000
vn 0.000000 1.000000 0.000000
vn 0.000000 1.000000 0.000000
vn 0.000000 1.000000 0.000000
vn 0.000000 1.000000 0.000000
vn 0.829641 0.440009 0.343639
vn 0.829641 0.440009 0.343639
vn 0.829641 0.440009 0.343639
vn 0.829641 0.440009 0.343639
vn 0.829645 0.440002 -0.343638
vn 0.829645 0.440002 -0.343638
vn 0.829645 0.440002 -0.343638
vn 0.829645 0.440002 -0.343638
vn 0.343648 0.440029 -0.829626
vn 0.343648 0.440029 -0.829626
vn 0.343648 0.440029 -0.829626
vn 0.343648 0.440029 -0.829626
vn -0.343647 0.440068 -0.829607
vn -0.343647 0.440068 -0.829607
vn -0.343647 0.440068 -0.829607
vn -0.343647 0.440068 -0.829607
vn -0.829598 0.440094 -0.343633
vn -0.829598 0.440094 -0.343633
vn -0.829598 0.440094 -0.343633
vn -0.829598 0.440094 -0.343633
vn -0.829594 0.440101 0.343634
vn -0.829594 0.440101 0.343634
vn -0.829594 0.440101 0.343634
vn -0.829594 0.440101 0.343634
vn -0.343632 0.440114 0.829588
vn -0.343632 0.440114 0.829588
vn -0.343632 0.440114 0.829589
vn -0.343632 0.440114 0.829588
vn 0.343633 0.440075 0.829608
vn 0.343633 0.440075 0.829608
vn 0.343633 0.440075 0.829608
vn 0.343633 0.440075 0.829608
s off
f 1/1/1 2/2/2 10/3/3 9/4/4
f 2/2/5 3/5/6 11/6/7 10/3/8
f 3/5/9 4/7/10 12/8/11 11/6/12
f 4/7/13 5/9/14 13/10/15 12/8/16
f 5/9/17 6/11/18 14/12/19 13/10/20
f 6/11/21 7/13/22 15/14/23 14/12/24
f 7/13/25 8/15/26 16/16/27 15/14/28
f 8/15/29 1/1/30 9/4/31 16/16/32
f 2/2/33 1/1/34 17/17/35
f 3/5/36 2/2/37 17/17/38
f 4/7/39 3/5/40 17/17/41
f 5/9/42 4/7/43 17/17/44
f 6/11/45 5/9/46 17/17/47
f 7/13/48 6/11/49 17/17/50
f 8/15/51 7/13/52 17/17/53
f 1/1/54 8/15/55 17/17/56
f 82/36/57 83/85/58 84/86/59
f 83/85/60 85/87/61 84/86/62
f 85/87/63 86/88/64 84/86/65
f 86/88/66 87/89/67 84/86/68
f 87/89/69 88/90/70 84/86/71
f 88/90/72 89/35/73 84/86/74
f 89/35/75 90/26/76 84/86/77
f 90/26/78 82/36/79 84/86/80
f 9/33/81 42/61/82 43/38/83 18/37/84
f 10/32/85 54/65/86 55/39/87 19/147/88
f 11/31/89 45/30/90 46/40/91 20/148/92
f 12/149/93 57/29/94 58/41/95 21/150/96
f 13/151/97 48/28/98 49/42/99 22/152/100
f 14/153/101 60/27/102 61/43/103 23/154/104
f 15/62/105 51/34/106 52/44/107 24/63/108
f 16/66/109 63/155/110 64/156/111 25/67/112
f 18/37/113 43/38/114 44/46/115 26/45/116
f 19/157/117 55/39/118 56/47/119 27/158/120
f 20/159/121 46/40/122 47/48/123 28/160/124
f 21/161/125 58/41/126 59/49/127 29/162/128
f 22/163/129 49/42/130 50/50/131 30/164/132
f 23/165/133 61/43/134 62/51/135 31/166/136
f 24/63/137 52/44/138 53/52/139 32/167/140
f 25/67/141 64/168/142 65/169/143 33/170/144
f 26/45/145 44/46/146 35/54/147 34/53/148
f 27/171/149 56/47/150 36/55/151 35/54/152
f 28/172/153 47/48/154 37/56/155 36/64/156
f 29/173/157 59/49/158 38/57/159 37/68/160
f 30/174/161 50/50/162 39/58/163 38/57/164
f 31/175/165 62/51/166 40/59/167 39/58/168
f 32/176/169 53/52/170 41/60/171 40/59/172
f 33/177/173 65/178/174 34/53/175 41/60/176
f 9/91/177 10/92/178 42/93/179
f 10/92/180 19/94/181 43/95/182 42/93/183
f 19/94/184 27/96/185 44/97/186 43/95/187
f 27/96/188 35/98/189 44/97/190
f 11/99/191 12/100/192 45/101/193
f 12/100/194 21/102/195 46/103/196 45/101/197
f 21/102/198 29/104/199 47/105/200 46/103/201
f 29/104/202 37/106/203 47/105/204
f 13/107/205 14/108/206 48/109/207
f 14/108/208 23/110/209 49/111/210 48/109/211
f 23/110/212 31/112/213 50/113/214 49/111/215
f 31/112/216 39/114/217 50/113/218
f 15/115/219 16/116/220 51/117/221
f 16/116/222 25/118/223 52/119/224 51/117/225
f 25/118/226 33/120/227 53/121/228 52/119/229
f 33/120/230 41/122/231 53/121/232
f 10/92/233 11/99/234 54/123/235
f 11/99/236 20/124/237 55/125/238 54/123/239
f 20/124/240 28/126/241 56/127/242 55/125/243
f 28/126/244 36/128/245 56/127/246
f 12/100/247 13/107/248 57/129/249
f 13/107/250 22/130/251 58/131/252 57/129/253
f 22/130/254 30/132/255 59/133/256 58/131/257
f 30/132/258 38/134/259 59/133/260
f 14/108/261 15/115/262 60/135/263
f 15/115/264 24/136/265 61/137/266 60/135/267
f 24/136/268 32/138/269 62/139/270 61/137/271
f 32/138/272 40/140/273 62/139/274
f 16/116/275 9/91/276 63/141/277
f 9/91/278 18/142/279 64/143/280 63/141/281
f 18/142/282 26/144/283 65/145/284 64/143/285
f 26/144/286 34/146/287 65/145/288
f 34/53/289 35/54/290 67/70/291 66/69/292
f 35/54/293 36/55/294 68/71/295 67/70/296
f 36/55/297 37/56/298 69/72/299 68/71/300
f 37/56/301 38/57/302 70/73/303 69/72/304
f 38/57/305 39/58/306 71/74/307 70/73/308
f 39/58/309 40/59/310 72/75/311 71/74/312
f 40/59/313 41/60/314 73/76/315 72/75/316
f 41/60/317 34/53/318 66/69/319 73/76/320
f 66/69/321 67/70/322 75/78/323 74/77/324
f 67/70/325 68/71/326 76/79/327 75/78/328
f 68/71/329 69/72/330 77/80/331 76/79/332
f 69/72/333 70/73/334 78/81/335 77/80/336
f 70/73/337 71/74/338 79/82/339 78/81/340
f 71/74/341 72/75/342 80/83/343 79/82/344
f 72/75/345 73/76/346 81/84/347 80/83/348
f 73/76/349 66/69/350 74/77/351 81/84/352
f 74/25/353 75/24/354 83/85/355 82/36/356
f 75/24/357 76/23/358 85/87/359 83/85/360
f 76/23/361 77/22/362 86/88/363 85/87/364
f 77/22/365 78/21/366 87/89/367 86/88/368
f 78/21/369 79/20/370 88/90/371 87/89/372
f 79/20/373 80/19/374 89/35/375 88/90/376
f 80/19/377 81/18/378 90/26/379 89/35/380
f 81/18/381 74/25/382 82/36/383 90/26/384
