# This file uses meters as units for non-parametric coordinates.

v -7.784424 0.000000 13.483032
v 7.784302 0.000000 13.483032
v 15.568848 0.000000 0.000000
v 7.784302 0.000000 -13.483032
v -7.784424 0.000000 -13.483032
v -15.568848 0.000000 0.000000
v -9.629944 42.356941 16.679688
v 9.629944 42.356941 16.679688
v 19.260071 42.356941 0.000000
v 9.629944 42.356941 -16.679810
v -9.629944 42.356941 -16.679810
v -19.260010 42.356941 0.000000
v 0.000122 0.000000 0.000000
v -9.724060 37.053635 -16.842346
v -19.447876 37.053635 0.000000
v -9.724060 37.053635 16.842285
v 9.724060 37.053635 16.842285
v 19.447876 37.053635 0.000000
v 9.724060 37.053635 -16.842346
v -8.778442 36.486496 -15.204712
v -17.557007 36.486496 0.000000
v -8.778442 36.486496 15.204834
v 8.778442 36.486496 15.204834
v 17.557007 36.486496 0.000000
v 8.778442 36.486496 -15.204712
v -8.556763 42.607857 14.820679
v 8.556763 42.607857 14.820679
v 17.113647 42.607857 0.000000
v 8.556763 42.607857 -14.820801
v -8.556763 42.607857 -14.820801
v -17.113647 42.607857 0.000000
v -7.985840 49.459496 13.831909
v 7.985840 49.459496 13.831909
v 15.971741 49.459496 0.000000
v 7.985840 49.459496 -13.832092
v -7.985840 49.459496 -13.832092
v -15.971924 49.459496 0.000000
v -0.000122 55.512344 -0.000244
v 9.250000 55.482388 -0.000244
v 4.625000 55.482388 -8.011108
v -4.625244 55.482388 -8.011108
v -9.250427 55.482388 -0.000244
v -8.385498 44.663349 14.524048
v 8.385376 44.663349 14.524048
v -0.000122 55.052010 0.557983
v 8.460693 55.121666 0.787109
v -7.647095 45.222343 13.799805
v 7.646912 45.222343 13.799805
v 7.444275 49.634922 13.343323
v -7.444580 49.634922 13.343323
v -8.461060 55.121666 0.787109
v -4.048767 55.736664 8.230225
v 4.048462 55.736664 8.230225
v -0.000122 55.769485 1.198120
v 7.915283 55.734070 1.556152
v -6.976318 45.712662 14.513428
v 6.976196 45.712662 14.513428
v 6.990662 49.925499 13.828735
v -6.991089 49.925495 13.828735
v -7.915833 55.734066 1.556152
vt 0.102528 0.276631
vt 0.102528 0.276631
vt 0.102528 0.276631
vt 0.102528 0.276631
vt 0.102528 0.276631
vt 0.102528 0.276631
vt 0.102528 0.276631
vt 0.102528 0.276631
vt 0.102528 0.276631
vt 0.102528 0.276631
vt 0.102528 0.276631
vt 0.102528 0.276631
vt 0.102528 0.276631
vt 0.102445 0.228403
vt 0.102445 0.228403
vt 0.102445 0.228403
vt 0.102445 0.228403
vt 0.102445 0.228403
vt 0.102445 0.228403
vt 0.102445 0.228403
vt 0.102445 0.228403
vt 0.102445 0.228403
vt 0.102445 0.228403
vt 0.102445 0.228403
vt 0.102445 0.228403
vt 0.102445 0.228403
vt 0.102528 0.276631
vt 0.102445 0.228403
vt 0.102445 0.228403
vt 0.102445 0.228403
vt 0.102445 0.228403
vt 0.102445 0.228403
vt 0.102445 0.228403
vt 0.102445 0.228403
vt 0.102445 0.228403
vt 0.102445 0.228403
vt 0.102528 0.276631
vt 0.102528 0.276631
vt 0.102528 0.276631
vt 0.102528 0.276631
vt 0.102528 0.276631
vt 0.102528 0.276631
vt 0.102445 0.228403
vt 0.102445 0.228403
vt 0.102445 0.228403
vt 0.102445 0.228403
vt 0.102445 0.228403
vt 0.102445 0.228403
vt 0.102445 0.228403
vt 0.102445 0.228403
vt 0.102445 0.228403
vt 0.102445 0.228403
vt 0.102445 0.228403
vt 0.102445 0.228403
vt 0.102417 0.303329
vt 0.102417 0.303329
vt 0.102445 0.228403
vt 0.102445 0.228403
vt 0.102445 0.228403
vt 0.102445 0.228403
vt 0.102445 0.228403
vt 0.102445 0.228403
vt 0.102445 0.228403
vt 0.102445 0.228403
vt 0.102445 0.228403
vt 0.102445 0.228403
vt 0.102445 0.228403
vt 0.102445 0.228403
vt 0.102445 0.228403
vt 0.102417 0.303329
vt 0.102417 0.303329
vt 0.102417 0.303329
vt 0.102417 0.303329
vt 0.102417 0.303329
vt 0.102417 0.303329
vt 0.102417 0.303329
vt 0.102417 0.303329
vt 0.102417 0.303329
vt 0.102417 0.303329
vt 0.102417 0.303329
vt 0.102417 0.303329
vt 0.102417 0.303329
vt 0.102417 0.303329
vt 0.102528 0.276631
vt 0.102445 0.228403
vt 0.102528 0.276631
vt 0.102528 0.276631
vt 0.102528 0.276631
vt 0.102445 0.228403
vt 0.102528 0.276631
vt 0.102445 0.228403
vt 0.102445 0.228403
vt 0.102445 0.228403
vt 0.102528 0.276631
vt 0.102445 0.228403
vt 0.102528 0.276631
vt 0.102528 0.276631
vt 0.102528 0.276631
vt 0.102528 0.276631
vt 0.102528 0.276631
vt 0.102528 0.276631
vt 0.102528 0.276631
vt 0.102528 0.276631
vt 0.102528 0.276631
vt 0.102528 0.276631
vt 0.102528 0.276631
vt 0.102528 0.276631
vt 0.102528 0.276631
vt 0.102528 0.276631
vt 0.102528 0.276631
vt 0.102528 0.276631
vn 0.000000 0.030645 0.999530
vn 0.000000 0.030645 0.999530
vn 0.000000 0.030645 0.999530
vn 0.000000 0.030645 0.999530
vn 0.865618 0.030669 0.499765
vn 0.865618 0.030669 0.499765
vn 0.865618 0.030669 0.499765
vn 0.865618 0.030669 0.499765
vn 0.865619 0.030666 -0.499763
vn 0.865619 0.030666 -0.499763
vn 0.865619 0.030666 -0.499763
vn 0.865619 0.030666 -0.499763
vn 0.000000 0.030634 -0.999531
vn 0.000000 0.030634 -0.999531
vn 0.000000 0.030634 -0.999531
vn 0.000000 0.030634 -0.999531
vn -0.865620 0.030671 -0.499762
vn -0.865620 0.030671 -0.499762
vn -0.865620 0.030671 -0.499762
vn -0.865620 0.030671 -0.499762
vn -0.865618 0.030674 0.499764
vn -0.865618 0.030674 0.499764
vn -0.865618 0.030674 0.499764
vn -0.865618 0.030674 0.499764
vn 0.000000 -1.000000 0.000000
vn 0.000000 -1.000000 0.000000
vn 0.000000 -1.000000 0.000000
vn 0.000000 -1.000000 0.000000
vn 0.000000 -1.000000 0.000000
vn 0.000000 -1.000000 0.000000
vn 0.000000 -1.000000 0.000000
vn 0.000000 -1.000000 0.000000
vn 0.000000 -1.000000 0.000000
vn 0.000000 -1.000000 0.000000
vn 0.000000 -1.000000 0.000000
vn 0.000000 -1.000000 0.000000
vn 0.000000 -1.000000 0.000000
vn 0.000000 -1.000000 0.000000
vn 0.000000 -1.000000 0.000000
vn 0.000000 -1.000000 0.000000
vn 0.000000 -1.000000 0.000000
vn 0.000000 -1.000000 0.000000
vn 0.000000 0.999989 0.004668
vn 0.000000 0.999989 0.004668
vn 0.000000 0.999989 0.004668
vn 0.004377 0.999988 0.002147
vn 0.004377 0.999988 0.002147
vn 0.004377 0.999988 0.002147
vn 0.003239 0.999993 -0.001870
vn 0.003239 0.999993 -0.001870
vn 0.003239 0.999993 -0.001870
vn 0.000000 0.999993 -0.003739
vn 0.000000 0.999993 -0.003739
vn 0.000000 0.999993 -0.003739
vn -0.003238 0.999993 -0.001871
vn -0.003238 0.999993 -0.001871
vn -0.003238 0.999993 -0.001871
vn -0.283403 -0.944939 -0.163624
vn -0.283403 -0.944939 -0.163624
vn -0.283403 -0.944939 -0.163624
vn -0.283403 -0.944939 -0.163624
vn -0.283410 -0.944936 0.163627
vn -0.283410 -0.944936 0.163627
vn -0.283410 -0.944936 0.163627
vn -0.283410 -0.944936 0.163627
vn 0.000000 -0.944928 0.327278
vn 0.000000 -0.944928 0.327278
vn 0.000000 -0.944928 0.327278
vn 0.000000 -0.944928 0.327278
vn 0.283410 -0.944936 0.163628
vn 0.283410 -0.944936 0.163628
vn 0.283410 -0.944936 0.163628
vn 0.283410 -0.944936 0.163628
vn 0.283403 -0.944939 -0.163623
vn 0.283403 -0.944939 -0.163623
vn 0.283403 -0.944939 -0.163623
vn 0.283403 -0.944939 -0.163623
vn 0.000000 -0.944939 -0.327246
vn 0.000000 -0.944939 -0.327246
vn 0.000000 -0.944939 -0.327246
vn 0.000000 -0.944939 -0.327246
vn -0.865061 -0.047136 -0.499447
vn -0.865061 -0.047136 -0.499447
vn -0.865061 -0.047136 -0.499447
vn -0.865061 -0.047136 -0.499447
vn -0.865062 -0.047137 0.499445
vn -0.865062 -0.047137 0.499445
vn -0.865062 -0.047137 0.499445
vn -0.865062 -0.047137 0.499445
vn 0.000000 -0.047138 0.998888
vn 0.000000 -0.047138 0.998888
vn 0.000000 -0.047138 0.998888
vn 0.000000 -0.047138 0.998888
vn 0.865061 -0.047138 0.499448
vn 0.865061 -0.047138 0.499448
vn 0.865061 -0.047138 0.499448
vn 0.865061 -0.047138 0.499448
vn 0.865060 -0.047137 -0.499449
vn 0.865060 -0.047137 -0.499449
vn 0.865060 -0.047137 -0.499450
vn 0.865060 -0.047137 -0.499449
vn 0.000000 -0.047134 -0.998889
vn 0.000000 -0.047134 -0.998889
vn 0.000000 -0.047134 -0.998889
vn 0.000000 -0.047134 -0.998889
vn 0.000000 0.991014 0.133761
vn 0.000000 0.991014 0.133761
vn 0.000000 0.991014 0.133761
vn 0.000000 0.991014 0.133761
vn 0.115847 0.991013 0.066885
vn 0.115847 0.991013 0.066885
vn 0.115847 0.991013 0.066885
vn 0.115847 0.991013 0.066885
vn 0.115847 0.991013 -0.066885
vn 0.115847 0.991013 -0.066885
vn 0.115847 0.991013 -0.066885
vn 0.115847 0.991013 -0.066885
vn 0.000000 0.991014 -0.133761
vn 0.000000 0.991014 -0.133761
vn 0.000000 0.991014 -0.133761
vn 0.000000 0.991014 -0.133761
vn -0.115849 0.991012 -0.066885
vn -0.115849 0.991012 -0.066885
vn -0.115849 0.991012 -0.066885
vn -0.115849 0.991012 -0.066885
vn -0.115849 0.991012 0.066885
vn -0.115848 0.991012 0.066885
vn -0.115849 0.991012 0.066885
vn -0.115849 0.991012 0.066885
vn 0.000000 0.160420 0.987049
vn 0.000000 0.160420 0.987049
vn 0.000000 0.160420 0.987049
vn 0.000000 0.160420 0.987049
vn 0.857135 0.142885 0.494877
vn 0.857135 0.142885 0.494878
vn 0.857135 0.142885 0.494878
vn 0.857144 0.142844 -0.494873
vn 0.857144 0.142844 -0.494873
vn 0.857144 0.142844 -0.494873
vn 0.857144 0.142844 -0.494873
vn 0.000000 0.142823 -0.989748
vn 0.000000 0.142823 -0.989748
vn 0.000000 0.142823 -0.989748
vn 0.000000 0.142823 -0.989748
vn -0.857143 0.142833 -0.494878
vn -0.857143 0.142833 -0.494878
vn -0.857143 0.142833 -0.494878
vn -0.857143 0.142833 -0.494878
vn -0.857141 0.142835 0.494882
vn -0.857141 0.142835 0.494882
vn -0.857141 0.142835 0.494882
vn -0.857141 0.142835 0.494882
vn 0.622704 0.694972 0.359520
vn 0.622704 0.694972 0.359520
vn 0.622704 0.694972 0.359520
vn 0.622719 0.694957 -0.359523
vn 0.622719 0.694957 -0.359523
vn 0.622719 0.694957 -0.359523
vn 0.622719 0.694957 -0.359523
vn 0.000000 0.694951 -0.719057
vn 0.000000 0.694951 -0.719057
vn 0.000000 0.694951 -0.719057
vn 0.000000 0.694951 -0.719057
vn -0.622725 0.694944 -0.359537
vn -0.622725 0.694944 -0.359537
vn -0.622725 0.694944 -0.359537
vn -0.622725 0.694944 -0.359537
vn -0.636591 0.677419 0.368587
vn -0.636591 0.677418 0.368587
vn -0.636591 0.677419 0.368587
vn -0.000000 0.693808 0.720160
vn -0.000000 0.693808 0.720160
vn -0.000000 0.693808 0.720161
vn -0.000000 0.693808 0.720161
vn -0.004377 0.999988 0.002148
vn -0.004377 0.999988 0.002148
vn -0.004377 0.999988 0.002148
vn -0.622713 0.694957 0.359533
vn -0.622713 0.694957 0.359533
vn -0.622713 0.694957 0.359533
vn 0.636611 0.677405 0.368576
vn 0.636611 0.677405 0.368576
vn 0.636611 0.677405 0.368576
vn 0.000000 0.142832 0.989747
vn 0.000000 0.142832 0.989747
vn 0.000000 0.142832 0.989747
vn 0.000000 0.142832 0.989747
vn -0.857141 0.142835 0.494882
vn -0.857141 0.142835 0.494882
vn -0.857141 0.142835 0.494882
vn 0.857141 0.142839 0.494880
vn 0.857141 0.142839 0.494880
vn 0.857141 0.142839 0.494880
vn 0.857141 0.142839 0.494880
vn -0.008609 0.855837 0.517174
vn -0.008609 0.855837 0.517174
vn -0.008609 0.855837 0.517174
vn -0.008609 0.855837 0.517174
vn 0.000000 0.791629 0.611002
vn 0.000000 0.791629 0.611002
vn 0.000000 0.791629 0.611002
vn 0.000000 0.791629 0.611002
vn -0.672293 0.048179 0.738716
vn -0.672293 0.048179 0.738716
vn -0.672293 0.048179 0.738716
vn -0.672293 0.048179 0.738716
vn 0.672403 0.048160 0.738617
vn 0.672403 0.048160 0.738617
vn 0.672403 0.048160 0.738617
vn 0.672403 0.048160 0.738617
vn 0.038648 0.917142 0.396683
vn 0.038648 0.917142 0.396683
vn 0.038648 0.917142 0.396683
vn 0.038648 0.917142 0.396683
vn 0.008609 0.855836 0.517175
vn 0.008609 0.855836 0.517175
vn 0.008609 0.855836 0.517175
vn 0.008609 0.855836 0.517175
vn -0.038641 0.917142 0.396684
vn -0.038641 0.917142 0.396684
vn -0.038641 0.917142 0.396684
vn -0.038641 0.917142 0.396684
vn 0.022904 0.731493 -0.681465
vn 0.022904 0.731493 -0.681465
vn 0.022904 0.731493 -0.681465
vn 0.022904 0.731493 -0.681465
vn 0.000000 -0.824203 0.566295
vn 0.000000 -0.824203 0.566294
vn 0.000000 -0.824203 0.566294
vn 0.000000 -0.824203 0.566295
vn 0.757897 0.101789 0.644385
vn 0.757897 0.101789 0.644385
vn 0.757897 0.101789 0.644385
vn 0.757897 0.101789 0.644385
vn -0.757906 0.101751 0.644379
vn -0.757906 0.101751 0.644379
vn -0.757906 0.101751 0.644379
vn -0.757906 0.101751 0.644379
vn -0.816386 0.498941 0.290811
vn -0.816386 0.498941 0.290811
vn -0.816386 0.498941 0.290811
vn -0.816386 0.498941 0.290811
vn -0.022904 0.731492 -0.681465
vn -0.022904 0.731492 -0.681465
vn -0.022904 0.731492 -0.681465
vn -0.022904 0.731492 -0.681465
vn 0.816299 0.499060 0.290852
vn 0.816299 0.499060 0.290852
vn 0.816299 0.499060 0.290852
vn 0.816299 0.499060 0.290852
s off
f 16/32/1 17/33/2 8/15/3 7/14/4
f 17/33/5 18/34/6 9/16/7 8/15/8
f 18/34/9 19/35/10 10/17/11 9/16/12
f 19/35/13 14/29/14 11/18/15 10/17/16
f 14/29/17 15/30/18 12/19/19 11/18/20
f 15/30/21 16/31/22 7/20/23 12/19/24
f 2/2/25 1/111/26 13/96/27
f 3/3/28 2/110/29 13/97/30
f 4/4/31 3/108/32 13/98/33
f 5/5/34 4/106/35 13/99/36
f 6/6/37 5/104/38 13/100/39
f 1/1/40 6/102/41 13/27/42
f 52/55/43 53/56/44 54/70/45
f 54/70/46 53/56/47 55/71/48
f 38/28/49 39/57/50 40/58/51
f 40/58/52 41/59/53 38/28/54
f 41/59/55 42/60/56 38/28/57
f 20/36/58 21/95/59 15/30/60 14/29/61
f 21/95/62 22/92/63 16/31/64 15/30/65
f 22/93/66 23/91/67 17/33/68 16/32/69
f 23/91/70 24/89/71 18/34/72 17/33/73
f 24/89/74 25/85/75 19/35/76 18/34/77
f 25/85/78 20/36/79 14/29/80 19/35/81
f 5/103/82 6/12/83 21/94/84 20/86/85
f 6/101/86 1/13/87 22/38/88 21/37/89
f 1/7/90 2/8/91 23/90/92 22/39/93
f 2/109/94 3/9/95 24/88/96 23/40/97
f 3/107/98 4/10/99 25/84/100 24/41/101
f 4/105/102 5/11/103 20/87/104 25/42/105
f 7/25/106 8/24/107 27/44/108 26/43/109
f 8/24/110 9/23/111 28/45/112 27/44/113
f 9/23/114 10/22/115 29/46/116 28/45/117
f 10/22/118 11/21/119 30/47/120 29/46/121
f 11/21/122 12/26/123 31/48/124 30/47/125
f 12/26/126 7/25/127 26/43/128 31/48/129
f 56/72/130 57/73/131 58/74/132 59/75/133
f 27/44/134 28/45/135 44/62/136
f 28/45/137 29/46/138 35/52/139 34/51/140
f 29/46/141 30/47/142 36/53/143 35/52/144
f 30/47/145 31/48/146 37/54/147 36/53/148
f 31/48/149 43/61/150 32/49/151 37/54/152
f 34/51/153 39/57/154 33/50/155
f 34/51/156 35/52/157 40/58/158 39/57/159
f 35/52/160 36/53/161 41/59/162 40/58/163
f 36/53/164 37/54/165 42/60/166 41/59/167
f 52/55/168 60/76/169 59/75/170
f 53/56/171 52/55/172 59/75/173 58/74/174
f 60/76/175 52/55/176 54/70/177
f 32/49/178 42/60/179 37/54/180
f 58/74/181 55/71/182 53/56/183
f 27/44/184 44/62/185 43/61/186 26/43/187
f 31/48/188 26/43/189 43/61/190
f 44/62/191 28/45/192 34/51/193 33/50/194
f 39/57/195 38/28/196 45/64/197 46/63/198
f 43/61/199 44/62/200 48/66/201 47/65/202
f 44/62/203 33/50/204 49/67/205 48/66/206
f 32/49/207 43/61/208 47/65/209 50/68/210
f 42/60/211 32/49/212 50/68/213 51/69/214
f 38/28/215 42/60/216 51/69/217 45/64/218
f 33/50/219 39/57/220 46/63/221 49/67/222
f 46/77/223 45/78/224 54/70/225 55/71/226
f 47/79/227 48/80/228 57/73/229 56/72/230
f 48/80/231 49/81/232 58/74/233 57/73/234
f 50/82/235 47/79/236 56/72/237 59/75/238
f 51/83/239 50/82/240 59/75/241 60/76/242
f 45/78/243 51/83/244 60/76/245 54/70/246
f 49/81/247 46/77/248 55/71/249 58/74/250
