# This file uses meters as units for non-parametric coordinates.

v 1.890320 4.202038 1.091553
v 1.890320 4.202038 -1.091309
v -0.000061 4.202038 -2.182678
v -1.890625 4.202038 -1.091309
v -1.890625 4.202038 1.091553
v -0.000061 4.202038 2.182983
v 1.337830 4.202038 0.772583
v 1.337830 4.202038 -0.772278
v -0.000061 4.202038 -1.544617
v -1.337952 4.202038 -0.772278
v -1.337952 4.202038 0.772583
v -0.000061 4.202038 1.545044
v -0.411804 5.319822 0.016724
v -0.021729 5.319822 0.377136
v -0.009827 5.319822 -0.405273
v 0.380249 5.319822 -0.044861
v 1.031799 3.981273 0.596008
v 1.031799 3.981273 -0.595642
v 0.522217 3.981273 -0.055786
v -0.000061 3.981273 -1.191406
v -0.007813 3.981273 -0.545288
v -1.032043 3.981273 -0.595642
v -0.553528 3.981273 0.027649
v -1.032043 3.981273 0.596008
v -0.000061 3.981273 1.191772
v -0.023621 3.981273 0.517273
v -1.983093 4.023620 -1.144714
v -1.983093 4.023620 1.144958
v -0.000061 4.023620 2.289795
v 1.982788 4.023620 1.144958
v 1.982788 4.023620 -1.144714
v -0.000061 4.023620 -2.289490
v 2.256531 0.000003 1.302979
v 2.256531 0.000003 -1.302734
v -0.000061 0.000003 0.000122
v -0.000061 0.000003 -2.605530
v -2.256836 0.000003 -1.302734
v -2.256836 0.000003 1.302979
v -0.000061 0.000003 2.605896
v -2.256836 4.023620 1.302979
v -2.256836 4.023620 -1.302734
v -0.000061 4.023620 2.605896
v 2.256531 4.023620 1.302979
v 2.256531 4.023620 -1.302734
v -0.000061 4.023620 -2.605530
vt 0.112427 0.326534
vt 0.112427 0.326534
vt 0.112427 0.326534
vt 0.112427 0.326534
vt 0.112427 0.326534
vt 0.112427 0.326534
vt 0.112427 0.326534
vt 0.112427 0.326534
vt 0.112427 0.326534
vt 0.112427 0.326534
vt 0.112427 0.326534
vt 0.112427 0.326534
vt 0.112427 0.326534
vt 0.070732 0.380502
vt 0.070732 0.380502
vt 0.070732 0.380502
vt 0.070732 0.380502
vt 0.070732 0.380502
vt 0.070732 0.380502
vt 0.070732 0.380502
vt 0.070732 0.380502
vt 0.070732 0.380502
vt 0.070732 0.380502
vt 0.070732 0.380502
vt 0.070732 0.380502
vt 0.070732 0.380502
vt 0.112427 0.326534
vt 0.070732 0.380502
vt 0.070732 0.380502
vt 0.070732 0.380502
vt 0.070732 0.380502
vt 0.103210 0.231476
vt 0.103271 0.231476
vt 0.103210 0.231476
vt 0.103210 0.231476
vt 0.103210 0.231476
vt 0.103271 0.231476
vt 0.103210 0.231476
vt 0.103210 0.231476
vt 0.070732 0.380502
vt 0.070732 0.380502
vt 0.070732 0.380502
vt 0.070732 0.380502
vt 0.070732 0.380502
vt 0.070732 0.380502
vt 0.070732 0.380502
vt 0.070732 0.380502
vt 0.070732 0.380502
vt 0.070732 0.380502
vt 0.070732 0.380502
vt 0.070732 0.380502
vt 0.070732 0.380502
vt 0.070732 0.380502
vt 0.070732 0.380502
vt 0.070732 0.380502
vt 0.070732 0.380502
vt 0.070732 0.380502
vt 0.070732 0.380502
vt 0.112427 0.326534
vt 0.112427 0.326534
vt 0.112427 0.326534
vt 0.112427 0.326534
vt 0.112427 0.326534
vn 0.887846 0.460141 0.000000
vn 0.887846 0.460141 0.000000
vn 0.887846 0.460141 0.000000
vn 0.887846 0.460141 0.000000
vn 0.443888 0.460239 -0.768859
vn 0.443888 0.460239 -0.768859
vn 0.443888 0.460239 -0.768859
vn 0.443888 0.460239 -0.768859
vn -0.443856 0.460239 -0.768877
vn -0.443856 0.460239 -0.768877
vn -0.443856 0.460239 -0.768877
vn -0.443856 0.460239 -0.768877
vn -0.887846 0.460141 0.000000
vn -0.887846 0.460141 0.000000
vn -0.887846 0.460141 0.000000
vn -0.887846 0.460141 0.000000
vn -0.443874 0.460239 0.768866
vn -0.443875 0.460239 0.768866
vn -0.443875 0.460239 0.768866
vn -0.443875 0.460239 0.768866
vn 0.443906 0.460239 0.768849
vn 0.443906 0.460239 0.768849
vn 0.443906 0.460239 0.768849
vn 0.443906 0.460239 0.768849
vn 0.000000 -1.000000 0.000000
vn 0.000000 -1.000000 0.000000
vn 0.000000 -1.000000 0.000000
vn 0.000000 -1.000000 0.000000
vn 0.000000 -1.000000 0.000000
vn 0.000000 -1.000000 0.000000
vn 0.000000 -1.000000 0.000000
vn 0.000000 -1.000000 0.000000
vn 0.000000 -1.000000 0.000000
vn 0.000000 -1.000000 0.000000
vn 0.000000 -1.000000 0.000000
vn 0.000000 -1.000000 0.000000
vn 0.000000 -1.000000 0.000000
vn 0.000000 -1.000000 0.000000
vn 0.000000 -1.000000 0.000000
vn 0.000000 -1.000000 0.000000
vn 0.000000 -1.000000 0.000000
vn 0.000000 -1.000000 0.000000
vn 0.000000 1.000000 0.000000
vn 0.000000 1.000000 0.000000
vn 0.000000 1.000000 0.000000
vn 0.000000 1.000000 -0.000001
vn 0.000000 1.000000 -0.000001
vn 0.000000 1.000000 -0.000001
vn 0.000000 1.000000 0.000000
vn 0.000000 1.000000 0.000000
vn 0.000000 1.000000 0.000000
vn 0.000000 1.000000 0.000001
vn 0.000000 1.000000 0.000001
vn 0.000000 1.000000 0.000001
vn 0.000000 1.000000 0.000001
vn 0.000000 1.000000 -0.000000
vn 0.000000 1.000000 -0.000000
vn 0.000000 1.000000 -0.000000
vn 0.000000 1.000000 -0.000000
vn 0.000000 1.000000 0.000000
vn 0.000000 1.000000 0.000000
vn 0.000000 1.000000 0.000000
vn 0.000000 1.000000 0.000000
vn 0.000000 1.000000 0.000000
vn 0.000000 1.000000 0.000000
vn 0.000000 1.000000 0.000000
vn 0.000000 1.000000 -0.000000
vn 0.000000 1.000000 -0.000000
vn 0.000000 1.000000 -0.000000
vn 0.000000 1.000000 -0.000000
vn -0.676587 0.077616 0.732261
vn -0.676587 0.077616 0.732261
vn -0.676587 0.077616 0.732261
vn -0.676587 0.077616 0.732261
vn -0.722268 0.070867 -0.687973
vn -0.722268 0.070867 -0.687973
vn -0.722268 0.070867 -0.687973
vn -0.722268 0.070867 -0.687973
vn 0.722259 0.070996 0.687969
vn 0.722259 0.070996 0.687969
vn 0.722259 0.070996 0.687969
vn 0.722259 0.070996 0.687969
vn 0.676483 0.077674 -0.732351
vn 0.676483 0.077674 -0.732351
vn 0.676483 0.077674 -0.732351
vn 0.676483 0.077674 -0.732351
vn 0.000000 1.000000 0.000000
vn 0.000000 1.000000 0.000000
vn 0.000000 1.000000 0.000000
vn 0.000000 1.000000 0.000000
vn 0.000000 1.000000 -0.000000
vn 0.000000 1.000000 -0.000000
vn 0.000000 1.000000 -0.000000
vn 0.000000 1.000000 -0.000000
vn 0.000000 1.000000 0.000000
vn 0.000000 1.000000 0.000000
vn 0.000000 1.000000 0.000000
vn 0.000000 1.000000 0.000000
vn 0.000000 1.000000 0.000000
vn 0.000000 1.000000 0.000000
vn 0.000000 1.000000 0.000000
vn 0.000000 1.000000 0.000000
vn 0.000000 1.000000 0.000000
vn 0.000000 1.000000 0.000000
vn 0.000000 1.000000 0.000000
vn 0.000000 1.000000 0.000000
vn 0.000000 1.000000 0.000000
vn 0.000000 1.000000 0.000000
vn 0.000000 1.000000 0.000000
vn 0.000000 1.000000 0.000000
vn -0.585043 0.811002 0.000000
vn -0.585043 0.811002 0.000000
vn -0.585043 0.811002 0.000000
vn -0.585043 0.811002 0.000000
vn -0.292568 0.810918 0.506770
vn -0.292568 0.810918 0.506770
vn -0.292568 0.810918 0.506770
vn -0.292568 0.810918 0.506770
vn 0.292576 0.810890 0.506810
vn 0.292576 0.810890 0.506810
vn 0.292576 0.810890 0.506810
vn 0.292576 0.810890 0.506810
vn 0.585197 0.810891 0.000000
vn 0.585197 0.810891 0.000000
vn 0.585197 0.810891 0.000000
vn 0.585197 0.810891 0.000000
vn 0.292596 0.810890 -0.506799
vn 0.292596 0.810890 -0.506799
vn 0.292596 0.810890 -0.506799
vn 0.292596 0.810890 -0.506799
vn -0.292588 0.810918 -0.506758
vn -0.292588 0.810918 -0.506758
vn -0.292588 0.810918 -0.506759
vn -0.292588 0.810918 -0.506758
vn -1.000000 0.000000 0.000000
vn -1.000000 0.000000 0.000000
vn -1.000000 0.000000 0.000000
vn -1.000000 0.000000 0.000000
vn -0.499991 0.000000 0.866031
vn -0.499991 0.000000 0.866031
vn -0.499991 0.000000 0.866031
vn -0.499991 0.000000 0.866031
vn 0.500021 0.000000 0.866013
vn 0.500021 0.000000 0.866013
vn 0.500021 0.000000 0.866013
vn 0.500021 0.000000 0.866013
vn 1.000000 0.000000 0.000000
vn 1.000000 0.000000 0.000000
vn 1.000000 0.000000 0.000000
vn 1.000000 0.000000 0.000000
vn 0.499986 0.000000 -0.866034
vn 0.499986 0.000000 -0.866034
vn 0.499986 0.000000 -0.866034
vn 0.499986 0.000000 -0.866034
vn -0.499956 0.000000 -0.866051
vn -0.499956 0.000000 -0.866051
vn -0.499956 0.000000 -0.866051
vn -0.499956 0.000000 -0.866051
vn 0.000000 1.000000 0.000000
vn 0.000000 1.000000 0.000000
vn 0.000000 1.000000 0.000000
vn 0.000000 1.000000 0.000000
vn 0.000000 1.000000 0.000000
vn 0.000000 1.000000 0.000000
vn 0.000000 1.000000 0.000000
vn 0.000000 1.000000 0.000000
vn 0.000000 1.000000 -0.000000
vn 0.000000 1.000000 -0.000000
vn 0.000000 1.000000 -0.000000
vn 0.000000 1.000000 -0.000000
vn 0.000000 1.000000 0.000000
vn 0.000000 1.000000 0.000000
vn 0.000000 1.000000 0.000000
vn 0.000000 1.000000 0.000000
vn 0.000000 1.000000 0.000000
vn 0.000000 1.000000 0.000000
vn 0.000000 1.000000 0.000000
vn 0.000000 1.000000 0.000000
vn 0.000000 1.000000 0.000000
vn 0.000000 1.000000 0.000000
vn 0.000000 1.000000 0.000000
vn 0.000000 1.000000 0.000000
s off
f 30/56/1 31/57/2 2/15/3 1/14/4
f 31/57/5 32/58/6 3/16/7 2/15/8
f 32/58/9 27/52/10 4/17/11 3/16/12
f 27/52/13 28/53/14 5/18/15 4/17/16
f 28/53/17 29/54/18 6/19/19 5/18/20
f 29/54/21 30/55/22 1/20/23 6/19/24
f 34/1/25 33/2/26 35/3/27
f 36/4/28 34/1/29 35/3/30
f 37/5/31 36/4/32 35/3/33
f 38/6/34 37/5/35 35/3/36
f 39/7/37 38/6/38 35/3/39
f 33/2/40 39/7/41 35/3/42
f 13/32/43 14/33/44 15/34/45
f 14/33/46 16/35/47 15/34/48
f 17/46/49 18/47/50 19/29/51
f 18/47/52 20/48/53 21/28/54 19/29/55
f 20/48/56 22/49/57 23/30/58 21/28/59
f 22/49/60 24/50/61 23/30/62
f 24/50/63 25/51/64 26/31/65 23/30/66
f 25/51/67 17/46/68 19/29/69 26/31/70
f 23/36/71 26/37/72 14/33/73 13/32/74
f 21/38/75 23/36/76 13/32/77 15/34/78
f 26/37/79 19/39/80 16/35/81 14/33/82
f 19/39/83 21/38/84 15/34/85 16/35/86
f 1/25/87 2/24/88 8/41/89 7/40/90
f 2/24/91 3/23/92 9/42/93 8/41/94
f 3/23/95 4/22/96 10/43/97 9/42/98
f 4/22/99 5/21/100 11/44/101 10/43/102
f 5/21/103 6/26/104 12/45/105 11/44/106
f 6/26/107 1/25/108 7/40/109 12/45/110
f 7/40/111 8/41/112 18/47/113 17/46/114
f 8/41/115 9/42/116 20/48/117 18/47/118
f 9/42/119 10/43/120 22/49/121 20/48/122
f 10/43/123 11/44/124 24/50/125 22/49/126
f 11/44/127 12/45/128 25/51/129 24/50/130
f 12/45/131 7/40/132 17/46/133 25/51/134
f 37/5/135 38/6/136 40/8/137 41/9/138
f 38/6/139 39/7/140 42/10/141 40/8/142
f 39/7/143 33/2/144 43/11/145 42/10/146
f 33/2/147 34/1/148 44/12/149 43/11/150
f 34/1/151 36/4/152 45/13/153 44/12/154
f 36/4/155 37/5/156 41/9/157 45/13/158
f 28/27/159 27/59/160 41/9/161 40/8/162
f 29/60/163 28/27/164 40/8/165 42/10/166
f 30/61/167 29/60/168 42/10/169 43/11/170
f 31/62/171 30/61/172 43/11/173 44/12/174
f 32/63/175 31/62/176 44/12/177 45/13/178
f 27/59/179 32/63/180 45/13/181 41/9/182
