# This file uses meters as units for non-parametric coordinates.

v -18.876665 185.007263 2.822605
v 18.710691 185.007263 2.822605
v -18.876665 190.831650 2.822605
v 18.710691 190.831650 2.822605
v -18.876665 190.831650 1.007763
v 18.710691 190.831650 1.007763
v -18.876665 185.007263 1.007763
v 18.710691 185.007263 1.007763
v 1.887804 190.831650 -2.296337
v 2.560908 190.831650 -4.127010
v 2.560908 185.007263 -4.127010
v 1.887804 185.007263 -2.296337
v -2.053779 185.007263 -2.296337
v -2.726883 185.007263 -4.127010
v -2.726883 190.831650 -4.127010
v -2.053779 190.831650 -2.296337
v 4.104811 190.831650 2.822605
v 4.676038 190.831650 -0.121006
v 4.676038 185.007263 -0.121006
v 4.104811 185.007263 2.822605
v -4.270786 185.007263 2.822605
v -4.842013 185.007263 -0.121006
v -4.842013 190.831650 -0.121006
v -4.270786 190.831650 2.822605
v 2.265149 208.952560 2.226750
v 3.237706 208.952560 -0.121387
v 2.265149 208.952560 -2.469524
v -0.082988 208.952560 -3.442081
v -2.431124 208.952560 -2.469524
v -3.403682 208.952560 -0.121387
v -2.431124 208.952560 2.226750
v -0.082988 208.952560 3.199307
v -0.082988 34.123455 -3.442081
v -2.431315 34.123455 -2.469524
v -3.403872 34.123455 -0.121387
v -2.431315 34.123455 2.226750
v -0.082988 34.123455 3.199307
v 2.265149 34.123455 2.226750
v 3.237706 34.123455 -0.121387
v 2.265149 34.123455 -2.469524
v -0.082988 0.000000 -6.053623
v -4.277628 0.000000 -4.316029
v -4.277819 31.722832 -4.316029
v -0.082988 31.722832 -6.053623
v -6.015032 0.000000 -0.121387
v -6.015223 31.722832 -0.121387
v -4.277628 0.000000 4.073444
v -4.277819 31.722832 4.073254
v -0.082988 0.000000 5.810848
v -0.082988 31.722832 5.810848
v 4.111654 0.000000 4.073444
v 4.111654 31.722832 4.073254
v 5.849058 0.000000 -0.121387
v 5.849058 31.722832 -0.121387
v 4.111654 0.000000 -4.316029
v 4.111654 31.722832 -4.316029
v -21.187347 208.262024 6.053623
v -18.675095 210.774277 6.053623
v -21.187347 208.262024 2.955231
v -18.675095 210.774277 2.955231
v 19.175797 210.774277 6.053623
v 21.688038 208.262024 6.053623
v 21.688038 208.262024 2.955231
v 19.175797 210.774277 2.955231
v -18.675095 167.898895 6.053623
v -21.187347 170.411148 6.053623
v -21.187347 170.411148 2.955231
v -18.675095 167.898895 2.955231
v 21.688038 170.411148 6.053623
v 19.175797 167.898895 6.053623
v 19.175797 167.898895 2.955231
v 21.688038 170.411148 2.955231
v -16.412598 170.461731 6.053623
v -18.624508 172.673630 6.053623
v 16.913300 170.461731 6.053623
v 19.125204 172.673630 6.053623
v 19.125204 205.999542 6.053623
v 16.913300 208.211441 6.053623
v -16.412598 208.211441 6.053623
v -18.624508 205.999542 6.053623
vt 0.078832 0.328889
vt 0.078832 0.328889
vt 0.078832 0.328889
vt 0.078832 0.328889
vt 0.078832 0.328889
vt 0.078832 0.328889
vt 0.078832 0.328889
vt 0.078832 0.328889
vt 0.078832 0.328889
vt 0.078832 0.328889
vt 0.078832 0.328889
vt 0.078832 0.328889
vt 0.078832 0.328889
vt 0.078832 0.328889
vt 0.078832 0.328889
vt 0.078832 0.328889
vt 0.078832 0.328889
vt 0.078832 0.328889
vt 0.078832 0.328889
vt 0.078832 0.328889
vt 0.078832 0.328889
vt 0.078832 0.328889
vt 0.078832 0.328889
vt 0.078832 0.328889
vt 0.078832 0.328889
vt 0.078832 0.328889
vt 0.078832 0.328889
vt 0.078832 0.328889
vt 0.078832 0.328889
vt 0.078832 0.328889
vt 0.123541 0.277139
vt 0.123541 0.277139
vt 0.123541 0.277139
vt 0.123541 0.277139
vt 0.123541 0.277139
vt 0.123541 0.277139
vt 0.123541 0.277139
vt 0.123541 0.277139
vt 0.123541 0.277139
vt 0.123541 0.277139
vt 0.123541 0.277139
vt 0.123541 0.277139
vt 0.123541 0.277139
vt 0.123541 0.277139
vt 0.123541 0.277139
vt 0.123541 0.277139
vt 0.123541 0.277139
vt 0.123541 0.277139
vt 0.123541 0.277139
vt 0.123541 0.277139
vt 0.123541 0.277139
vt 0.123541 0.277139
vt 0.123541 0.277139
vt 0.123541 0.277139
vt 0.123541 0.277139
vt 0.123541 0.277139
vt 0.123541 0.277139
vt 0.123541 0.277139
vt 0.123541 0.277139
vt 0.123541 0.277139
vt 0.123541 0.277139
vt 0.123541 0.277139
vt 0.123541 0.277139
vt 0.123541 0.277139
vt 0.123541 0.277139
vt 0.123541 0.277139
vt 0.721895 0.210601
vt 0.721895 0.210601
vt 0.721895 0.210601
vt 0.721895 0.210601
vt 0.721895 0.210601
vt 0.721895 0.210601
vt 0.721895 0.210601
vt 0.721895 0.210601
vt 0.721895 0.210601
vt 0.721895 0.210601
vt 0.721895 0.210601
vt 0.721895 0.210601
vt 0.721895 0.210601
vt 0.721895 0.210601
vt 0.721895 0.210601
vt 0.721895 0.210601
vt 0.079859 0.377074
vt 0.079859 0.377074
vt 0.079859 0.377074
vt 0.079859 0.377074
vt 0.079859 0.377073
vt 0.079859 0.377073
vt 0.079859 0.377073
vt 0.079859 0.377073
vt 0.699692 0.195896
vt 0.702510 0.192654
vt 0.744961 0.192654
vt 0.747779 0.195896
vt 0.747779 0.244746
vt 0.744961 0.247988
vt 0.702510 0.247988
vt 0.699692 0.244746
vt 0.721895 0.210601
vt 0.721895 0.210601
vt 0.721895 0.210601
vt 0.721895 0.210601
vt 0.721895 0.210601
vt 0.721895 0.210601
vt 0.721895 0.210601
vt 0.721895 0.210601
vn 0.000000 1.000000 0.000001
vn 0.000000 1.000000 0.000001
vn 0.000000 1.000000 0.000001
vn 0.000000 1.000000 0.000001
vn 0.000000 0.000000 -1.000000
vn 0.000000 0.000000 -1.000000
vn 0.000000 0.000000 -1.000000
vn 0.000000 0.000000 -1.000000
vn 0.000000 -1.000000 0.000000
vn 0.000000 -1.000000 0.000000
vn 0.000000 -1.000000 0.000000
vn 0.000000 -1.000000 0.000000
vn 1.000000 0.000000 0.000000
vn 1.000000 0.000000 0.000000
vn 1.000000 0.000000 0.000000
vn 1.000000 0.000000 0.000000
vn -1.000000 0.000000 0.000000
vn -1.000000 0.000000 0.000000
vn -1.000000 0.000000 0.000000
vn -1.000000 0.000000 0.000000
vn 0.000000 1.000000 0.000000
vn 0.000000 1.000000 0.000000
vn 0.000000 1.000000 0.000000
vn 0.000000 1.000000 0.000000
vn 0.884307 0.000000 -0.466905
vn 0.884307 0.000000 -0.466905
vn 0.884307 0.000000 -0.466905
vn 0.884307 0.000000 -0.466905
vn 0.000000 -1.000000 0.000000
vn 0.000000 -1.000000 0.000000
vn 0.000000 -1.000000 0.000000
vn 0.000000 -1.000000 0.000000
vn 0.000000 -1.000000 0.000000
vn 0.000000 -1.000000 0.000000
vn 0.000000 -1.000000 0.000000
vn 0.000000 -1.000000 0.000000
vn -0.884307 0.000000 -0.466905
vn -0.884307 0.000000 -0.466905
vn -0.884307 0.000000 -0.466905
vn -0.884307 0.000000 -0.466905
vn 0.000000 1.000000 0.000000
vn 0.000000 1.000000 0.000000
vn 0.000000 1.000000 0.000000
vn 0.000000 1.000000 0.000000
vn 0.000000 1.000000 0.000009
vn 0.000000 1.000000 0.000009
vn 0.000000 1.000000 0.000009
vn 0.000000 1.000000 0.000009
vn 0.080168 0.000000 -0.996781
vn 0.080168 0.000000 -0.996781
vn 0.080168 0.000000 -0.996781
vn 0.080168 0.000000 -0.996781
vn 0.000000 -1.000000 0.000009
vn 0.000000 -1.000000 0.000009
vn 0.000000 -1.000000 0.000009
vn 0.000000 -1.000000 0.000009
vn 0.000000 -1.000000 0.000009
vn 0.000000 -1.000000 0.000009
vn 0.000000 -1.000000 0.000009
vn 0.000000 -1.000000 0.000009
vn -0.080168 0.000000 -0.996781
vn -0.080168 0.000000 -0.996781
vn -0.080168 0.000000 -0.996781
vn -0.080168 0.000000 -0.996781
vn 0.000000 1.000000 0.000009
vn 0.000000 1.000000 0.000009
vn 0.000000 1.000000 0.000009
vn 0.000000 1.000000 0.000009
vn 0.923890 0.000000 0.382659
vn 0.923890 0.000000 0.382659
vn 0.923890 0.000000 0.382659
vn 0.923890 0.000000 0.382659
vn 0.923890 0.000000 -0.382659
vn 0.923890 0.000000 -0.382659
vn 0.923890 0.000000 -0.382659
vn 0.923890 0.000000 -0.382659
vn 0.382659 0.000000 -0.923890
vn 0.382659 0.000000 -0.923890
vn 0.382659 0.000000 -0.923890
vn 0.382659 0.000000 -0.923890
vn -0.382646 0.000000 -0.923895
vn -0.382646 0.000000 -0.923895
vn -0.382646 0.000000 -0.923895
vn -0.382646 0.000000 -0.923895
vn -0.923890 0.000001 -0.382659
vn -0.923890 0.000001 -0.382659
vn -0.923890 0.000001 -0.382659
vn -0.923890 0.000001 -0.382659
vn -0.923890 0.000001 0.382659
vn -0.923890 0.000001 0.382659
vn -0.923890 0.000001 0.382659
vn -0.923890 0.000001 0.382659
vn -0.382646 0.000000 0.923895
vn -0.382646 0.000000 0.923895
vn -0.382646 0.000000 0.923895
vn -0.382646 0.000000 0.923895
vn 0.382659 0.000000 0.923890
vn 0.382659 0.000000 0.923890
vn 0.382659 0.000000 0.923890
vn 0.382659 0.000000 0.923890
vn -0.382698 -0.000001 -0.923873
vn -0.382698 -0.000001 -0.923873
vn -0.382698 -0.000001 -0.923873
vn -0.382698 -0.000001 -0.923873
vn -0.923885 -0.000006 -0.382670
vn -0.923885 -0.000006 -0.382670
vn -0.923885 -0.000006 -0.382670
vn -0.923885 -0.000006 -0.382670
vn -0.923888 -0.000004 0.382662
vn -0.923888 -0.000004 0.382662
vn -0.923888 -0.000004 0.382662
vn -0.923888 -0.000004 0.382662
vn -0.382680 0.000002 0.923881
vn -0.382680 0.000002 0.923881
vn -0.382680 0.000002 0.923881
vn -0.382680 0.000002 0.923881
vn 0.382688 0.000003 0.923878
vn 0.382688 0.000003 0.923878
vn 0.382688 0.000003 0.923878
vn 0.382688 0.000003 0.923878
vn 0.923888 0.000001 0.382662
vn 0.923888 0.000001 0.382662
vn 0.923888 0.000001 0.382662
vn 0.923888 0.000001 0.382662
vn 0.923885 0.000000 -0.382670
vn 0.923885 0.000000 -0.382670
vn 0.923885 0.000000 -0.382670
vn 0.923885 0.000000 -0.382670
vn 0.382705 0.000000 -0.923870
vn 0.382705 0.000000 -0.923870
vn 0.382705 0.000000 -0.923870
vn 0.382705 0.000000 -0.923870
vn -0.269911 0.708873 -0.651650
vn -0.269911 0.708873 -0.651650
vn -0.269911 0.708873 -0.651650
vn -0.269911 0.708873 -0.651650
vn -0.651662 0.708861 -0.269913
vn -0.651662 0.708861 -0.269913
vn -0.651662 0.708861 -0.269913
vn -0.651662 0.708861 -0.269913
vn -0.651662 0.708860 0.269913
vn -0.651662 0.708860 0.269913
vn -0.651662 0.708860 0.269913
vn -0.651662 0.708860 0.269913
vn -0.269911 0.708873 0.651650
vn -0.269911 0.708873 0.651650
vn -0.269911 0.708873 0.651650
vn -0.269911 0.708873 0.651650
vn 0.269924 0.708873 0.651644
vn 0.269924 0.708873 0.651644
vn 0.269924 0.708873 0.651644
vn 0.269924 0.708873 0.651644
vn 0.651663 0.708861 0.269913
vn 0.651663 0.708861 0.269913
vn 0.651662 0.708861 0.269913
vn 0.651662 0.708861 0.269913
vn 0.651662 0.708860 -0.269913
vn 0.651662 0.708860 -0.269913
vn 0.651662 0.708860 -0.269913
vn 0.651662 0.708860 -0.269913
vn 0.269924 0.708873 -0.651644
vn 0.269924 0.708873 -0.651644
vn 0.269924 0.708873 -0.651644
vn 0.269924 0.708873 -0.651644
vn 0.000000 1.000000 -0.000001
vn 0.000000 1.000000 -0.000001
vn 0.000000 1.000000 -0.000001
vn 0.000000 1.000000 -0.000001
vn 0.000000 1.000000 -0.000001
vn 0.000000 1.000000 -0.000001
vn 0.000000 1.000000 -0.000001
vn 0.000000 1.000000 -0.000001
vn 0.000000 1.000000 0.000000
vn 0.000000 1.000000 0.000000
vn 0.000000 1.000000 0.000000
vn 0.000000 1.000000 0.000000
vn 0.000000 -1.000000 0.000000
vn 0.000000 -1.000000 0.000000
vn 0.000000 -1.000000 0.000000
vn 0.000000 -1.000000 0.000000
vn 1.000000 0.000000 0.000000
vn 1.000000 0.000000 0.000000
vn 1.000000 0.000000 0.000000
vn 1.000000 0.000000 0.000000
vn -1.000000 0.000000 0.000000
vn -1.000000 0.000000 0.000000
vn -1.000000 0.000000 0.000000
vn -1.000000 0.000000 0.000000
vn 0.000000 0.000000 -1.000000
vn 0.000000 0.000000 -1.000000
vn 0.000000 0.000000 -1.000000
vn 0.000000 0.000000 -1.000000
vn -0.000000 0.000000 -1.000000
vn 0.000000 0.000000 -1.000000
vn -0.000000 0.000000 -1.000000
vn -0.000000 0.000000 -1.000000
vn 0.000000 0.000000 -1.000000
vn 0.000000 0.000000 -1.000000
vn -0.000000 0.000000 -1.000000
vn 0.000000 0.000000 -1.000000
vn -0.000000 0.000000 -1.000000
vn -0.000000 0.000000 -1.000000
vn -0.000000 0.000000 -1.000000
vn -0.000000 0.000000 -1.000000
vn -0.000000 0.000000 -1.000000
vn 0.000000 0.000000 -1.000000
vn 0.000000 0.000000 1.000000
vn 0.000000 0.000000 1.000000
vn 0.000000 0.000000 1.000000
vn 0.000000 0.000000 1.000000
vn 0.000000 0.000000 1.000000
vn 0.000000 0.000000 1.000000
vn 0.000000 0.000000 1.000000
vn 0.000000 0.000000 1.000000
vn 0.000000 0.000000 1.000000
vn 0.000000 0.000000 1.000000
vn 0.000000 0.000000 1.000000
vn 0.000000 0.000000 1.000000
vn 0.000000 0.000000 1.000000
vn 0.000000 0.000000 1.000000
vn 0.000000 0.000000 1.000000
vn 0.000000 0.000000 1.000000
vn 0.000000 0.000000 1.000000
vn 0.000000 0.000000 1.000000
vn -0.707107 0.707107 0.000000
vn -0.707107 0.707107 0.000000
vn -0.707107 0.707107 0.000000
vn -0.707107 0.707107 0.000000
vn 0.707108 0.707105 0.000000
vn 0.707108 0.707105 0.000000
vn 0.707108 0.707105 0.000000
vn 0.707108 0.707105 0.000000
vn -0.707107 -0.707107 0.000000
vn -0.707107 -0.707107 0.000000
vn -0.707107 -0.707107 0.000000
vn -0.707107 -0.707107 0.000000
vn 0.707108 -0.707105 0.000000
vn 0.707108 -0.707105 0.000000
vn 0.707108 -0.707105 0.000000
vn 0.707108 -0.707105 0.000000
vn 0.000000 0.000000 1.000000
vn 0.000000 0.000000 1.000000
vn 0.000000 0.000000 1.000000
vn 0.000000 0.000000 1.000000
vn 0.000000 0.000000 1.000000
vn 0.000000 0.000000 1.000000
vn 0.000000 0.000000 1.000000
vn 0.000000 0.000000 1.000000
vn 0.000000 0.000000 1.000000
vn 0.000000 0.000000 1.000000
vn 0.000000 0.000000 1.000000
vn 0.000000 0.000000 1.000000
vn 0.000000 0.000000 1.000000
vn 0.000000 0.000000 1.000000
vn 0.000000 0.000000 1.000000
vn 0.000000 0.000000 1.000000
vn 0.000000 0.000000 1.000000
vn 0.000000 0.000000 1.000000
vn 0.000000 0.000000 1.000000
vn 0.000000 0.000000 1.000000
vn 0.000000 0.000000 1.000000
vn 0.000000 0.000000 1.000000
vn 0.000000 0.000000 1.000000
vn 0.000000 0.000000 1.000000
vn 0.000000 0.000000 1.000000
vn 0.000000 0.000000 1.000000
vn 0.000000 0.000000 1.000000
vn 0.000000 0.000000 1.000000
vn -0.000000 0.000000 1.000000
vn -0.000000 0.000000 1.000000
vn -0.000000 0.000000 1.000000
vn -0.000000 0.000000 1.000000
s off
f 16/1/1 9/2/2 10/3/3 15/4/4
f 10/3/5 11/5/6 14/6/7 15/4/8
f 11/5/9 12/7/10 13/8/11 14/6/12
f 2/9/13 8/10/14 6/11/15 4/12/16
f 7/13/17 1/14/18 3/15/19 5/16/20
f 10/3/21 9/2/22 17/17/23 18/18/24
f 11/5/25 10/3/26 18/18/27 19/19/28
f 12/7/29 11/5/30 19/19/31 20/20/32
f 21/21/33 22/22/34 14/6/35 13/8/36
f 22/22/37 23/23/38 15/4/39 14/6/40
f 23/23/41 24/24/42 16/1/43 15/4/44
f 18/18/45 17/17/46 4/12/47 6/25/48
f 19/19/49 18/18/50 6/25/51 8/26/52
f 20/20/53 19/19/54 8/26/55 2/27/56
f 7/28/57 22/22/58 21/21/59 1/29/60
f 5/30/61 23/23/62 22/22/63 7/28/64
f 3/15/65 24/24/66 23/23/67 5/30/68
f 38/31/69 39/32/70 26/33/71 25/34/72
f 39/32/73 40/35/74 27/36/75 26/33/76
f 40/35/77 33/37/78 28/38/79 27/36/80
f 33/37/81 34/39/82 29/40/83 28/38/84
f 34/39/85 35/41/86 30/42/87 29/40/88
f 35/41/89 36/43/90 31/44/91 30/42/92
f 36/43/93 37/45/94 32/46/95 31/44/96
f 37/45/97 38/47/98 25/48/99 32/46/100
f 41/49/101 42/50/102 43/51/103 44/52/104
f 42/50/105 45/53/106 46/54/107 43/51/108
f 45/53/109 47/55/110 48/56/111 46/54/112
f 47/55/113 49/57/114 50/58/115 48/56/116
f 49/57/117 51/59/118 52/60/119 50/58/120
f 51/61/121 53/62/122 54/63/123 52/64/124
f 53/62/125 55/65/126 56/66/127 54/63/128
f 55/65/129 41/49/130 44/52/131 56/66/132
f 34/39/133 33/37/134 44/52/135 43/51/136
f 35/41/137 34/39/138 43/51/139 46/54/140
f 36/43/141 35/41/142 46/54/143 48/56/144
f 37/45/145 36/43/146 48/56/147 50/58/148
f 38/47/149 37/45/150 50/58/151 52/60/152
f 39/32/153 38/31/154 52/64/155 54/63/156
f 40/35/157 39/32/158 54/63/159 56/66/160
f 33/37/161 40/35/162 56/66/163 44/52/164
f 26/33/165 27/36/166 28/38/167 29/40/168 30/42/169 31/44/170 32/46/171 25/34/172
f 60/67/173 58/68/174 61/69/175 64/70/176
f 65/71/177 68/72/178 71/73/179 70/74/180
f 69/75/181 72/76/182 63/77/183 62/78/184
f 67/79/185 66/80/186 57/81/187 59/82/188
f 59/83/189 60/84/190 67/90/191
f 60/84/192 64/85/193 67/90/194
f 64/85/195 63/86/196 67/90/197
f 67/90/198 63/86/199 68/89/200
f 72/87/201 71/88/202 63/86/203
f 63/86/204 71/88/205 68/89/206
f 74/91/207 73/92/208 80/98/209
f 73/92/210 75/93/211 80/98/212
f 75/93/213 76/94/214 80/98/215
f 80/98/216 76/94/217 79/97/218
f 77/95/219 78/96/220 76/94/221
f 76/94/222 78/96/223 79/97/224
f 57/81/225 58/68/226 60/67/227 59/82/228
f 61/69/229 62/78/230 63/77/231 64/70/232
f 65/71/233 66/80/234 67/79/235 68/72/236
f 69/75/237 70/74/238 71/73/239 72/76/240
f 66/80/241 65/71/242 73/99/243 74/100/244
f 65/71/245 70/74/246 75/101/247 73/99/248
f 70/74/249 69/75/250 76/102/251 75/101/252
f 69/75/253 62/78/254 77/103/255 76/102/256
f 62/78/257 61/69/258 78/104/259 77/103/260
f 61/69/261 58/68/262 79/105/263 78/104/264
f 58/68/265 57/81/266 80/106/267 79/105/268
f 57/81/269 66/80/270 74/100/271 80/106/272
