# This file uses meters as units for non-parametric coordinates.

v -25.000000 0.000000 -18.668945
v -25.000000 0.000000 18.668945
v 25.000000 0.000000 -18.668945
v 25.000000 0.000000 18.668945
v -26.828430 0.000000 16.586914
v -26.828430 0.000000 -16.586426
v 26.828430 0.000000 -16.586426
v 26.828430 0.000000 16.586914
v -23.205200 0.000000 -10.161865
v -23.205200 0.000000 10.161865
v -19.476013 0.000000 10.161865
v -19.476013 0.000000 -10.161865
v -24.408691 0.000000 -8.706055
v -24.408691 0.000000 8.706055
v -18.272522 0.000000 -8.706055
v -18.272522 0.000000 8.706055
v -25.000000 3.052055 -18.668945
v -25.000000 3.052055 18.668945
v 25.000000 3.052055 -18.668945
v 25.000000 3.052055 18.668945
v -26.828430 3.052055 16.586914
v -26.828430 3.052055 -16.586426
v 26.828430 3.052055 -16.586426
v 26.828430 3.052055 16.586914
v -23.205200 3.052055 -10.161865
v -23.205200 3.052055 10.161865
v -19.476013 3.052055 10.161865
v -19.476013 3.052055 -10.161865
v -24.408691 3.052055 -8.706055
v -24.408691 3.052055 8.706055
v -18.272522 3.052055 -8.706055
v -18.272522 3.052055 8.706055
vt 0.004427 0.354525
vt 0.004427 0.354525
vt 0.004427 0.354525
vt 0.004427 0.354525
vt 0.004427 0.354525
vt 0.004427 0.354525
vt 0.004427 0.354525
vt 0.004427 0.354525
vt 0.004427 0.354525
vt 0.004427 0.354525
vt 0.004427 0.354525
vt 0.004427 0.354525
vt 0.004427 0.354525
vt 0.004427 0.354525
vt 0.004427 0.354525
vt 0.004427 0.354525
vt 0.004427 0.354525
vt 0.004427 0.354525
vt 0.004427 0.354525
vt 0.004427 0.354525
vt 0.004427 0.354525
vt 0.004427 0.354525
vt 0.004427 0.354525
vt 0.004427 0.354525
vt 0.004427 0.354525
vt 0.004427 0.354525
vt 0.004427 0.354525
vt 0.004427 0.354525
vt 0.004427 0.354525
vt 0.004427 0.354525
vt 0.004427 0.354525
vt 0.004427 0.354525
vt 0.004427 0.354525
vt 0.004427 0.354525
vt 0.004427 0.354525
vt 0.004427 0.354525
vn 1.000000 0.000000 0.000000
vn 1.000000 0.000000 0.000000
vn 1.000000 0.000000 0.000000
vn 1.000000 0.000000 0.000000
vn 0.000000 0.000000 1.000000
vn 0.000000 0.000000 1.000000
vn 0.000000 0.000000 1.000000
vn 0.000000 0.000000 1.000000
vn -0.751386 0.000000 0.659863
vn -0.751386 0.000000 0.659863
vn -0.751386 0.000000 0.659863
vn -0.751386 0.000000 0.659863
vn 0.000000 -1.000000 0.000000
vn 0.000000 -1.000000 0.000000
vn 0.000000 -1.000000 0.000000
vn 0.000000 -1.000000 0.000000
vn 0.751462 0.000000 -0.659776
vn 0.751462 0.000000 -0.659776
vn 0.751462 0.000000 -0.659776
vn 0.751462 0.000000 -0.659776
vn 0.000000 -1.000000 0.000000
vn 0.000000 -1.000000 0.000000
vn 0.000000 -1.000000 0.000000
vn 0.000000 -1.000000 0.000000
vn 0.000000 -1.000000 0.000000
vn 0.000000 -1.000000 0.000000
vn 0.000000 -1.000000 0.000000
vn 0.000000 -1.000000 0.000000
vn 0.000000 -1.000000 0.000000
vn 0.000000 -1.000000 0.000000
vn 0.000000 -1.000000 0.000000
vn 0.000000 -1.000000 0.000000
vn 0.000000 -1.000000 0.000000
vn 0.000000 -1.000000 0.000000
vn 0.000000 -1.000000 0.000000
vn 0.000000 -1.000000 0.000000
vn 0.000000 -1.000000 0.000000
vn 0.000000 -1.000000 0.000000
vn 0.000000 -1.000000 0.000000
vn 0.000000 -1.000000 0.000000
vn 0.000000 -1.000000 0.000000
vn 0.000000 -1.000000 0.000000
vn 0.000000 -1.000000 0.000000
vn 0.000000 -1.000000 0.000000
vn 0.000000 -1.000000 0.000000
vn 0.000000 -1.000000 0.000000
vn 0.000000 -1.000000 0.000000
vn 0.000000 -1.000000 0.000000
vn 0.000000 -1.000000 0.000000
vn 0.000000 -1.000000 0.000000
vn 0.770737 0.000000 0.637154
vn 0.770737 0.000000 0.637154
vn 0.770737 0.000000 0.637154
vn 0.770737 0.000000 0.637154
vn 0.770737 0.000000 -0.637154
vn 0.770737 0.000000 -0.637154
vn 0.770737 0.000000 -0.637154
vn 0.770737 0.000000 -0.637154
vn 0.000000 0.000000 -1.000000
vn 0.000000 0.000000 -1.000000
vn 0.000000 0.000000 -1.000000
vn 0.000000 0.000000 -1.000000
vn 1.000000 0.000000 0.000000
vn 1.000000 0.000000 0.000000
vn 1.000000 0.000000 0.000000
vn 1.000000 0.000000 0.000000
vn -1.000000 0.000000 0.000000
vn -1.000000 0.000000 0.000000
vn -1.000000 0.000000 0.000000
vn -1.000000 0.000000 0.000000
vn 0.000000 0.000000 -1.000000
vn 0.000000 0.000000 -1.000000
vn 0.000000 0.000000 -1.000000
vn 0.000000 0.000000 -1.000000
vn -0.751462 0.000000 -0.659776
vn -0.751462 0.000000 -0.659776
vn -0.751462 0.000000 -0.659776
vn -0.751462 0.000000 -0.659776
vn 0.000000 1.000000 0.000000
vn 0.000000 1.000000 0.000000
vn 0.000000 1.000000 0.000000
vn 0.000000 1.000000 0.000000
vn 0.751386 0.000000 0.659863
vn 0.751386 0.000000 0.659863
vn 0.751386 0.000000 0.659863
vn 0.751386 0.000000 0.659863
vn 0.000000 1.000000 0.000000
vn 0.000000 1.000000 0.000000
vn 0.000000 1.000000 0.000000
vn 0.000000 1.000000 0.000000
vn 0.000000 1.000000 0.000000
vn 0.000000 1.000000 0.000000
vn 0.000000 1.000000 0.000000
vn 0.000000 1.000000 0.000000
vn 0.000000 1.000000 0.000000
vn 0.000000 1.000000 0.000000
vn 0.000000 1.000000 0.000000
vn 0.000000 1.000000 0.000000
vn 0.000000 1.000000 0.000000
vn 0.000000 1.000000 0.000000
vn 0.000000 1.000000 0.000000
vn 0.000000 1.000000 0.000000
vn 0.000000 1.000000 0.000000
vn 0.000000 1.000000 0.000000
vn 0.000000 1.000000 0.000000
vn 0.000000 1.000000 0.000000
vn 0.000000 1.000000 0.000000
vn 0.000000 1.000000 0.000000
vn 0.000000 1.000000 -0.000000
vn 0.000000 1.000000 -0.000000
vn 0.000000 1.000000 -0.000000
vn 0.000000 1.000000 -0.000000
vn 0.000000 1.000000 0.000000
vn 0.000000 1.000000 0.000000
vn 0.000000 1.000000 0.000000
vn 0.000000 1.000000 0.000000
vn -0.770737 0.000000 0.637154
vn -0.770737 0.000000 0.637154
vn -0.770737 0.000000 0.637154
vn -0.770737 0.000000 0.637154
vn 0.000000 0.000000 1.000000
vn 0.000000 0.000000 1.000000
vn 0.000000 0.000000 1.000000
vn 0.000000 0.000000 1.000000
vn -0.770737 0.000000 -0.637154
vn -0.770737 0.000000 -0.637154
vn -0.770737 0.000000 -0.637154
vn -0.770737 0.000000 -0.637154
vn -1.000000 0.000000 0.000000
vn -1.000000 0.000000 0.000000
vn -1.000000 0.000000 0.000000
vn -1.000000 0.000000 0.000000
s off
f 8/10/1 7/9/2 23/21/3 24/22/4
f 2/2/5 4/5/6 20/23/7 18/24/8
f 5/7/9 2/2/10 18/24/11 21/19/12
f 3/3/13 7/9/14 8/10/15 4/4/16
f 7/9/17 3/3/18 19/27/19 23/21/20
f 13/15/21 6/8/22 1/1/23 9/11/24
f 2/2/25 10/12/26 11/13/27 4/4/28
f 4/4/29 11/13/30 16/18/31
f 3/3/32 12/14/33 9/11/34 1/1/35
f 15/17/36 12/14/37 3/3/38
f 4/4/39 16/18/40 15/17/41 3/3/42
f 14/16/43 10/12/44 2/2/45 5/7/46
f 13/15/47 14/16/48 5/7/49 6/8/50
f 13/15/51 9/11/52 25/30/53 29/29/54
f 10/12/55 14/16/56 30/36/57 26/32/58
f 11/13/59 10/12/60 26/32/61 27/31/62
f 14/16/63 13/15/64 29/29/65 30/36/66
f 5/7/67 21/19/68 22/20/69 6/8/70
f 1/1/71 17/25/72 19/26/73 3/6/74
f 6/8/75 22/20/76 17/25/77 1/1/78
f 19/27/79 20/28/80 24/22/81 23/21/82
f 8/10/83 24/22/84 20/28/85 4/4/86
f 29/29/87 25/30/88 17/25/89 22/20/90
f 18/24/91 20/28/92 27/31/93 26/32/94
f 20/28/95 32/33/96 27/31/97
f 19/27/98 17/25/99 25/30/100 28/34/101
f 31/35/102 19/27/103 28/34/104
f 20/28/105 19/27/106 31/35/107 32/33/108
f 30/36/109 21/19/110 18/24/111 26/32/112
f 29/29/113 22/20/114 21/19/115 30/36/116
f 15/17/117 31/35/118 28/34/119 12/14/120
f 12/14/121 28/34/122 25/30/123 9/11/124
f 11/13/125 27/31/126 32/33/127 16/18/128
f 16/18/129 32/33/130 31/35/131 15/17/132
