# This file uses meters as units for non-parametric coordinates.

v -65.141907 13.505434 1.595886
v -65.141907 13.505434 5.790588
v -65.141907 101.878189 1.595886
v -65.141907 101.878189 5.790588
v 65.142090 101.878189 1.595886
v 65.142090 101.878189 5.790588
v 65.142090 13.505434 1.595886
v 65.142090 13.505434 5.790588
v -67.727600 15.262233 1.595886
v -67.727600 15.262233 5.790588
v -67.727600 100.121407 5.790588
v -67.727600 100.121407 1.595886
v 67.727600 100.121407 1.595886
v 67.727600 100.121407 5.790588
v 67.727600 15.262233 5.790588
v 67.727600 15.262233 1.595886
v 63.728638 17.739008 5.790588
v -63.728546 17.739008 5.790588
v 63.728638 100.203964 5.790588
v -63.728546 100.203964 5.790588
v -65.753723 98.534332 5.790588
v -65.753723 19.408638 5.790588
v 65.753906 19.408638 5.790588
v 65.753906 98.534332 5.790588
v 62.126617 19.058256 5.057434
v -62.126648 19.058256 5.057434
v 62.126617 98.884712 5.057434
v -62.126648 98.884712 5.057434
v -64.100891 97.263237 5.057434
v -64.100891 20.679745 5.057434
v 64.101044 20.679745 5.057434
v 64.101044 97.263237 5.057434
v 36.146973 13.505434 -5.577820
v -36.146759 13.505434 -5.577820
v -36.146759 74.123070 -5.577820
v 36.146973 74.123070 -5.577820
v 5.488861 13.505434 -2.920532
v -5.488739 13.505434 -2.920532
v -5.488739 13.505434 2.920532
v 5.488861 13.505434 2.920532
v 5.488861 3.454428 -2.920532
v -5.488739 3.454428 -2.920532
v 5.488861 3.454428 2.920532
v -5.488739 3.454428 2.920532
v 22.401733 3.454428 -11.919678
v -22.401581 3.454428 -11.919678
v 22.401733 3.454428 11.919678
v -22.401581 3.454428 11.919678
v 23.227905 0.000000 -12.781494
v -23.227753 0.000000 -12.781494
v 23.227905 0.000000 12.781494
v -23.227753 0.000000 12.781494
v 26.419128 20.614237 -5.577820
v -26.418976 20.614237 -5.577820
v -26.418976 65.668640 -5.577820
v 26.419128 65.668640 -5.577820
v 0.000031 65.668640 -5.577820
v 0.000031 20.614237 -5.577820
v 13.209717 65.668640 -5.577820
v 13.209717 20.614237 -5.577820
v -13.209381 20.614237 -5.577820
v -13.209381 65.668640 -5.577820
v -4.499634 62.904549 -2.972168
v -4.499634 23.378326 -2.972168
v -8.709686 23.378326 -2.972168
v -8.709686 62.904549 -2.972168
v 21.919464 23.378326 -2.972168
v 17.709412 23.378326 -2.972168
v 17.709412 62.904549 -2.972168
v 21.919464 62.904549 -2.972168
v 8.709930 62.904549 -2.972168
v 8.709930 23.378326 -2.972168
v 4.499908 23.378326 -2.972168
v 4.499908 62.904549 -2.972168
v -17.709106 23.378326 -2.972168
v -17.709106 62.904549 -2.972168
v -21.919159 23.378326 -2.972168
v -21.919159 62.904549 -2.972168
vt 0.079207 0.227403
vt 0.079207 0.227403
vt 0.079207 0.227403
vt 0.079207 0.227403
vt 0.079207 0.227403
vt 0.079207 0.227403
vt 0.079207 0.227403
vt 0.079207 0.227403
vt 0.079207 0.227403
vt 0.079207 0.227403
vt 0.079207 0.227403
vt 0.079207 0.227403
vt 0.079207 0.227403
vt 0.079207 0.227403
vt 0.079207 0.227403
vt 0.079207 0.227403
vt 0.079207 0.227403
vt 0.079207 0.227403
vt 0.079207 0.227403
vt 0.079207 0.227403
vt 0.079207 0.227403
vt 0.079207 0.227403
vt 0.079207 0.227403
vt 0.079207 0.227403
vt 0.079207 0.227403
vt 0.079207 0.227403
vt 0.079207 0.227403
vt 0.079207 0.227403
vt 0.079207 0.227403
vt 0.079207 0.227403
vt 0.079207 0.227403
vt 0.079207 0.227403
vt 0.079207 0.227403
vt 0.079207 0.227403
vt 0.079207 0.227403
vt 0.079207 0.227403
vt 0.079207 0.227403
vt 0.079207 0.227403
vt 0.079207 0.227403
vt 0.079207 0.227403
vt 0.079207 0.227403
vt 0.079207 0.227403
vt 0.015399 0.000000
vt 0.984599 0.000000
vt 0.984599 1.000000
vt 0.015399 1.000000
vt 0.000000 0.979687
vt 0.000000 0.020313
vt 1.000000 0.020313
vt 1.000000 0.979687
vt 0.079207 0.227403
vt 0.079207 0.227403
vt 0.079207 0.227403
vt 0.079207 0.227403
vt 0.079207 0.227403
vt 0.079207 0.227403
vt 0.079207 0.227403
vt 0.079207 0.227403
vt 0.079207 0.227403
vt 0.079207 0.227403
vt 0.079207 0.227403
vt 0.079207 0.227403
vt 0.079207 0.227403
vt 0.079207 0.227403
vt 0.079207 0.227403
vt 0.079207 0.227403
vt 0.079207 0.227403
vt 0.079207 0.227403
vt 0.079207 0.227403
vt 0.079207 0.227403
vt 0.079207 0.227403
vt 0.079207 0.227403
vt 0.079207 0.227403
vt 0.079207 0.227403
vt 0.079207 0.227403
vt 0.079207 0.227403
vt 0.079207 0.227403
vt 0.079207 0.227403
vt 0.079207 0.227403
vt 0.079207 0.227403
vt 0.079207 0.227403
vt 0.079207 0.227403
vt 0.076416 0.010979
vt 0.079207 0.227403
vt 0.079207 0.227403
vt 0.079207 0.227403
vt 0.076416 0.010981
vt 0.079207 0.227403
vt 0.079207 0.227403
vt 0.079207 0.227403
vt 0.076416 0.010981
vt 0.079207 0.227403
vt 0.079207 0.227403
vt 0.079207 0.227403
vt 0.076416 0.010979
vt 0.079207 0.227403
vt 0.079207 0.227403
vt 0.079207 0.227403
vt 0.076416 0.010979
vt 0.079207 0.227403
vt 0.076416 0.010981
vt 0.076416 0.010981
vt 0.076416 0.010979
vt 0.079207 0.227403
vt 0.076416 0.010981
vt 0.076416 0.010981
vt 0.076416 0.010979
vt 0.079207 0.227403
vt 0.076416 0.010979
vt 0.076416 0.010979
vt 0.076416 0.010981
vt 0.079207 0.227403
vt 0.076416 0.010981
vt 0.076416 0.010979
vn -1.000000 0.000000 0.000000
vn -1.000000 0.000000 0.000000
vn -1.000000 0.000000 0.000000
vn -1.000000 0.000000 0.000000
vn 0.000000 1.000000 0.000000
vn 0.000000 1.000000 0.000000
vn 0.000000 1.000000 0.000000
vn 0.000000 1.000000 0.000000
vn 1.000000 0.000000 0.000000
vn 1.000000 0.000000 0.000000
vn 1.000000 0.000000 0.000000
vn 1.000000 0.000000 0.000000
vn 0.000000 0.000000 1.000000
vn 0.000000 0.000000 1.000000
vn 0.000000 0.000000 1.000000
vn 0.000000 0.000000 1.000000
vn 0.000000 0.000000 -1.000000
vn 0.000000 0.000000 -1.000000
vn 0.000000 0.000000 -1.000000
vn 0.000000 0.000000 -1.000000
vn -0.561988 -0.827146 0.000000
vn -0.561988 -0.827146 0.000000
vn -0.561988 -0.827146 0.000000
vn -0.561988 -0.827146 0.000000
vn 0.000000 0.000000 1.000000
vn 0.000000 0.000000 1.000000
vn 0.000000 0.000000 1.000000
vn 0.000000 0.000000 1.000000
vn -0.561984 0.827148 0.000000
vn -0.561984 0.827148 0.000000
vn -0.561984 0.827148 0.000000
vn -0.561984 0.827148 0.000000
vn -0.000000 0.000000 -1.000000
vn -0.000000 0.000000 -1.000000
vn -0.000000 0.000000 -1.000000
vn -0.000000 0.000000 -1.000000
vn 0.562012 0.827129 0.000000
vn 0.562012 0.827129 0.000000
vn 0.562012 0.827129 0.000000
vn 0.562012 0.827129 0.000000
vn -0.000000 0.000000 1.000000
vn -0.000000 0.000000 1.000000
vn -0.000000 0.000000 1.000000
vn -0.000000 0.000000 1.000000
vn 0.562016 -0.827127 0.000000
vn 0.562016 -0.827127 0.000000
vn 0.562016 -0.827127 0.000000
vn 0.562016 -0.827127 0.000000
vn 0.000000 0.000000 -1.000000
vn 0.000000 0.000000 -1.000000
vn 0.000000 0.000000 -1.000000
vn 0.000000 0.000000 -1.000000
vn 0.000000 0.000000 1.000000
vn 0.000000 0.000000 1.000000
vn 0.000000 0.000000 1.000000
vn 0.000000 0.000000 1.000000
vn 0.000000 0.000000 1.000000
vn 0.000000 0.000000 1.000000
vn 0.000000 0.000000 1.000000
vn 0.000000 0.000000 1.000000
vn 0.000000 0.000000 1.000000
vn 0.000000 0.000000 1.000000
vn 0.000000 0.000000 1.000000
vn 0.000000 0.000000 1.000000
vn 0.000000 0.000000 1.000000
vn 0.000000 0.000000 1.000000
vn 0.000000 0.000000 1.000000
vn 0.000000 0.000000 1.000000
vn 0.000000 0.000000 1.000000
vn 0.000000 0.000000 1.000000
vn 0.000000 0.000000 1.000000
vn 0.000000 0.000000 1.000000
vn -0.000000 0.000000 1.000000
vn -0.000000 0.000000 1.000000
vn -0.000000 0.000000 1.000000
vn -0.000000 0.000000 1.000000
vn -0.000000 0.000000 1.000000
vn -0.000000 0.000000 1.000000
vn -0.000000 0.000000 1.000000
vn -0.000000 0.000000 1.000000
vn 0.000000 0.000000 1.000000
vn 0.000000 0.000000 1.000000
vn 0.000000 0.000000 1.000000
vn 0.000000 0.000000 1.000000
vn 0.000000 0.485764 0.874090
vn 0.000000 0.485764 0.874090
vn 0.000000 0.485764 0.874090
vn 0.000000 0.485764 0.874090
vn 0.000000 -0.485763 0.874091
vn 0.000000 -0.485763 0.874091
vn 0.000000 -0.485763 0.874091
vn 0.000000 -0.485763 0.874091
vn 0.215452 -0.261821 0.940760
vn 0.215452 -0.261821 0.940760
vn 0.215452 -0.261821 0.940760
vn 0.215452 -0.261821 0.940760
vn 0.405474 0.000000 0.914106
vn 0.405474 0.000000 0.914106
vn 0.405474 0.000000 0.914106
vn 0.405474 0.000000 0.914106
vn 0.215452 0.261820 0.940761
vn 0.215452 0.261820 0.940761
vn 0.215452 0.261820 0.940761
vn 0.215452 0.261820 0.940761
vn -0.215440 0.261823 0.940763
vn -0.215440 0.261823 0.940763
vn -0.215440 0.261823 0.940763
vn -0.215440 0.261823 0.940763
vn -0.405468 0.000000 0.914109
vn -0.405468 0.000000 0.914109
vn -0.405468 0.000000 0.914109
vn -0.405468 0.000000 0.914109
vn -0.215440 -0.261825 0.940762
vn -0.215440 -0.261825 0.940762
vn -0.215440 -0.261825 0.940762
vn -0.215440 -0.261825 0.940762
vn -0.240169 0.000000 -0.970731
vn -0.240169 0.000000 -0.970731
vn -0.240169 0.000000 -0.970731
vn -0.240169 0.000000 -0.970731
vn 0.000000 0.250241 -0.968184
vn 0.000000 0.250241 -0.968184
vn 0.000000 0.250241 -0.968184
vn 0.000000 0.250241 -0.968184
vn 0.240169 0.000000 -0.970731
vn 0.240169 0.000000 -0.970731
vn 0.240169 0.000000 -0.970731
vn 0.240169 0.000000 -0.970731
vn 0.000000 -1.000000 -0.000000
vn 0.000000 -1.000000 -0.000000
vn 0.000000 -1.000000 -0.000000
vn 0.000000 -1.000000 -0.000000
vn 0.000000 -1.000000 0.000000
vn 0.000000 -1.000000 0.000000
vn 0.000000 -1.000000 0.000000
vn 0.000000 -1.000000 0.000000
vn 0.000000 -1.000000 0.000000
vn 0.000000 -1.000000 0.000000
vn 0.000000 -1.000000 0.000000
vn 0.000000 -1.000000 0.000000
vn 0.000000 -1.000000 0.000000
vn 0.000000 -1.000000 0.000000
vn 0.000000 -1.000000 0.000000
vn 0.000000 -1.000000 0.000000
vn 0.000000 -1.000000 0.000000
vn 0.000000 -1.000000 0.000000
vn 0.000000 -1.000000 0.000000
vn 0.000000 -1.000000 0.000000
vn 0.000000 -1.000000 0.000000
vn 0.000000 -1.000000 0.000000
vn 0.000000 -1.000000 0.000000
vn 0.000000 -1.000000 0.000000
vn 0.000000 -1.000000 0.000000
vn 0.000000 -1.000000 0.000000
vn 0.000000 0.000000 -1.000000
vn 0.000000 0.000000 -1.000000
vn 0.000000 0.000000 -1.000000
vn 0.000000 0.000000 -1.000000
vn 1.000000 0.000000 0.000000
vn 1.000000 0.000000 0.000000
vn 1.000000 0.000000 0.000000
vn 1.000000 0.000000 0.000000
vn 0.000000 0.000000 1.000000
vn 0.000000 0.000000 1.000000
vn 0.000000 0.000000 1.000000
vn 0.000000 0.000000 1.000000
vn -1.000000 0.000000 0.000000
vn -1.000000 0.000000 0.000000
vn -1.000000 0.000000 0.000000
vn -1.000000 0.000000 0.000000
vn 0.000000 1.000000 0.000000
vn 0.000000 1.000000 0.000000
vn 0.000000 1.000000 0.000000
vn 0.000000 1.000000 0.000000
vn 0.000000 1.000000 0.000000
vn 0.000000 1.000000 0.000000
vn 0.000000 1.000000 0.000000
vn 0.000000 1.000000 0.000000
vn 0.000000 1.000000 -0.000000
vn 0.000000 1.000000 -0.000000
vn 0.000000 1.000000 -0.000000
vn 0.000000 1.000000 -0.000000
vn 0.000000 1.000000 0.000000
vn 0.000000 1.000000 0.000000
vn 0.000000 1.000000 0.000000
vn 0.000000 1.000000 0.000000
vn 0.000000 0.242062 -0.970261
vn 0.000000 0.242062 -0.970261
vn 0.000000 0.242062 -0.970261
vn 0.000000 0.242062 -0.970261
vn 0.972572 0.232603 0.000000
vn 0.972572 0.232603 0.000000
vn 0.972572 0.232603 0.000000
vn 0.972572 0.232603 0.000000
vn 0.000000 0.242062 0.970261
vn 0.000000 0.242062 0.970261
vn 0.000000 0.242062 0.970261
vn 0.000000 0.242062 0.970261
vn -0.972572 0.232603 0.000000
vn -0.972572 0.232603 0.000000
vn -0.972572 0.232603 0.000000
vn -0.972572 0.232603 0.000000
vn 0.000000 0.000000 -1.000000
vn 0.000000 0.000000 -1.000000
vn 0.000000 0.000000 -1.000000
vn -0.000000 0.000000 -1.000000
vn -0.000000 0.000000 -1.000000
vn -0.000000 0.000000 -1.000000
vn -0.000000 0.000000 -1.000000
vn 0.000000 0.000000 -1.000000
vn 0.000000 0.000000 -1.000000
vn 0.000000 0.000000 -1.000000
vn -0.000000 0.000000 -1.000000
vn -0.000000 0.000000 -1.000000
vn -0.000000 0.000000 -1.000000
vn -0.000000 0.000000 -1.000000
vn 0.000000 0.000000 -1.000000
vn 0.000000 0.000000 -1.000000
vn 0.000000 0.000000 -1.000000
vn 0.000000 0.000000 -1.000000
vn 0.000000 0.000000 -1.000000
vn 0.000000 0.000000 -1.000000
vn 0.000000 0.000000 -1.000000
vn 0.000000 0.000000 -1.000000
vn 0.000000 0.000000 -1.000000
vn 0.000000 0.000000 -1.000000
vn 0.000000 0.000000 -1.000000
vn 0.000000 0.000000 -1.000000
vn 0.000000 0.000000 -1.000000
vn 0.000000 0.000000 -1.000000
vn 0.000000 0.000000 -1.000000
vn 0.000000 0.000000 -1.000000
vn 0.000000 0.000000 -1.000000
vn 0.000000 0.000000 -1.000000
vn 0.000000 0.000000 -1.000000
vn 0.000000 0.000000 -1.000000
vn 0.000000 0.000000 -1.000000
vn 0.000000 0.000000 -1.000000
vn 0.000000 0.000000 -1.000000
vn 0.000000 0.000000 -1.000000
vn 0.000000 0.000000 -1.000000
vn 0.000000 0.000000 -1.000000
vn 0.000000 0.000000 -1.000000
vn 0.000000 0.000000 -1.000000
vn 0.000000 0.000000 -1.000000
vn 0.000000 0.000000 -1.000000
vn 0.000000 0.000000 -1.000000
vn 0.000000 0.000000 -1.000000
vn 0.000000 0.000000 -1.000000
vn 0.000000 0.000000 -1.000000
vn 0.000000 0.000000 -1.000000
vn 0.000000 0.000000 -1.000000
vn -0.501120 0.000000 -0.865378
vn -0.501120 0.000000 -0.865378
vn -0.501120 0.000000 -0.865378
vn -0.501120 0.000000 -0.865378
vn 0.000000 0.685945 -0.727654
vn 0.000000 0.685945 -0.727654
vn 0.000000 0.685945 -0.727654
vn 0.000000 0.685945 -0.727654
vn 0.501118 0.000000 -0.865379
vn 0.501118 0.000000 -0.865379
vn 0.501118 0.000000 -0.865379
vn 0.501118 0.000000 -0.865379
vn 0.000000 -0.685944 -0.727654
vn 0.000000 -0.685944 -0.727654
vn 0.000000 -0.685944 -0.727654
vn 0.000000 -0.685944 -0.727654
vn 0.000000 0.685945 -0.727654
vn 0.000000 0.685945 -0.727654
vn 0.000000 0.685945 -0.727654
vn 0.000000 0.685945 -0.727654
vn 0.501118 0.000000 -0.865379
vn 0.501118 0.000000 -0.865379
vn 0.501118 0.000000 -0.865379
vn 0.501118 0.000000 -0.865379
vn 0.000000 -0.685944 -0.727654
vn 0.000000 -0.685944 -0.727654
vn 0.000000 -0.685944 -0.727654
vn 0.000000 -0.685944 -0.727654
vn -0.501120 0.000000 -0.865378
vn -0.501120 0.000000 -0.865378
vn -0.501120 0.000000 -0.865378
vn -0.501120 0.000000 -0.865378
vn -0.501110 0.000000 -0.865384
vn -0.501110 0.000000 -0.865384
vn -0.501110 0.000000 -0.865384
vn -0.501110 0.000000 -0.865384
vn 0.000000 0.685945 -0.727654
vn 0.000000 0.685945 -0.727654
vn 0.000000 0.685945 -0.727654
vn 0.000000 0.685945 -0.727654
vn 0.501103 0.000000 -0.865388
vn 0.501103 0.000000 -0.865388
vn 0.501103 0.000000 -0.865388
vn 0.501103 0.000000 -0.865388
vn 0.000000 -0.685943 -0.727656
vn 0.000000 -0.685943 -0.727656
vn 0.000000 -0.685943 -0.727656
vn 0.000000 -0.685943 -0.727656
vn -0.501115 0.000000 -0.865381
vn -0.501115 0.000000 -0.865381
vn -0.501115 0.000000 -0.865381
vn -0.501115 0.000000 -0.865381
vn 0.000000 0.685945 -0.727653
vn 0.000000 0.685945 -0.727653
vn 0.000000 0.685945 -0.727653
vn 0.000000 0.685945 -0.727653
vn 0.501108 0.000000 -0.865385
vn 0.501108 0.000000 -0.865385
vn 0.501108 0.000000 -0.865385
vn 0.501108 0.000000 -0.865385
vn 0.000000 -0.685945 -0.727654
vn 0.000000 -0.685945 -0.727654
vn 0.000000 -0.685945 -0.727654
vn 0.000000 -0.685945 -0.727654
s off
f 9/15/1 10/16/2 11/17/3 12/18/4
f 3/3/5 4/4/6 6/6/7 5/5/8
f 13/19/9 14/20/10 15/21/11 16/22/12
f 26/43/13 25/44/14 27/45/15 28/46/16
f 63/83/17 64/87/18 65/91/19 66/95/20
f 1/1/21 2/2/22 10/16/23 9/15/24
f 26/43/25 28/46/26 29/47/27 30/48/28
f 4/4/29 3/3/30 12/18/31 11/17/32
f 3/3/33 1/1/34 9/15/35 12/18/36
f 5/5/37 6/6/38 14/20/39 13/19/40
f 27/45/41 25/44/42 31/49/43 32/50/44
f 8/8/45 7/7/46 16/22/47 15/21/48
f 7/7/49 5/5/50 13/19/51 16/22/52
f 17/24/53 18/23/54 2/2/55 8/11/56
f 6/12/57 4/4/58 20/26/59 19/25/60
f 4/4/61 11/17/62 21/27/63 20/26/64
f 11/17/65 10/16/66 22/28/67 21/27/68
f 10/16/69 2/2/70 18/23/71 22/28/72
f 8/8/73 15/21/74 23/30/75 17/29/76
f 15/21/77 14/20/78 24/31/79 23/30/80
f 14/20/81 6/6/82 19/32/83 24/31/84
f 18/23/85 17/24/86 25/34/87 26/33/88
f 19/25/89 20/26/90 28/36/91 27/35/92
f 20/26/93 21/27/94 29/37/95 28/36/96
f 21/27/97 22/28/98 30/38/99 29/37/100
f 22/28/101 18/23/102 26/33/103 30/38/104
f 17/29/105 23/30/106 31/40/107 25/39/108
f 23/30/109 24/31/110 32/41/111 31/40/112
f 24/31/113 19/32/114 27/42/115 32/41/116
f 1/1/117 3/3/118 35/53/119 34/52/120
f 3/3/121 5/14/122 36/54/123 35/53/124
f 5/14/125 7/13/126 33/51/127 36/54/128
f 8/8/129 2/10/130 39/59/131 40/60/132
f 38/57/133 34/52/134 33/51/135 37/55/136
f 7/13/137 37/55/138 33/51/139
f 34/52/140 38/57/141 1/1/142
f 38/58/143 39/59/144 2/10/145 1/9/146
f 50/69/147 49/70/148 51/71/149 52/72/150
f 7/7/151 8/8/152 40/60/153 37/56/154
f 38/58/155 37/56/156 41/62/157 42/61/158
f 37/56/159 40/60/160 43/63/161 41/62/162
f 40/60/163 39/59/164 44/64/165 43/63/166
f 39/59/167 38/58/168 42/61/169 44/64/170
f 42/61/171 41/62/172 45/66/173 46/65/174
f 41/62/175 43/63/176 47/67/177 45/66/178
f 43/63/179 44/64/180 48/68/181 47/67/182
f 44/64/183 42/61/184 46/65/185 48/68/186
f 46/65/187 45/66/188 49/70/189 50/69/190
f 45/66/191 47/67/192 51/71/193 49/70/194
f 47/67/195 48/68/196 52/72/197 51/71/198
f 48/68/199 46/65/200 50/69/201 52/72/202
f 33/51/203 34/52/204 58/78/205
f 34/52/206 35/53/207 55/75/208 54/74/209
f 35/53/210 57/77/211 62/82/212
f 36/54/213 33/51/214 53/73/215 56/76/216
f 57/77/217 36/54/218 59/79/219
f 71/99/220 72/101/221 73/102/222 74/103/223
f 33/51/224 58/78/225 60/80/226
f 35/53/227 36/54/228 57/77/229
f 58/78/230 34/52/231 61/81/232
f 59/79/233 36/54/234 56/76/235
f 67/105/236 68/106/237 69/107/238 70/109/239
f 33/51/240 60/80/241 53/73/242
f 61/81/243 34/52/244 54/74/245
f 76/110/246 75/111/247 77/113/248 78/114/249
f 35/53/250 62/82/251 55/75/252
f 57/77/253 58/78/254 64/84/255 63/112/256
f 58/78/257 61/81/258 65/85/259 64/84/260
f 61/81/261 62/82/262 66/86/263 65/85/264
f 62/82/265 57/77/266 63/112/267 66/86/268
f 53/73/269 60/80/270 68/88/271 67/108/272
f 60/80/273 59/79/274 69/89/275 68/88/276
f 59/79/277 56/76/278 70/90/279 69/89/280
f 56/76/281 53/73/282 67/108/283 70/90/284
f 59/79/285 60/80/286 72/92/287 71/104/288
f 60/80/289 58/78/290 73/93/291 72/92/292
f 58/78/293 57/77/294 74/94/295 73/93/296
f 57/77/297 59/79/298 71/104/299 74/94/300
f 62/82/301 61/81/302 75/96/303 76/100/304
f 61/81/305 54/74/306 77/97/307 75/96/308
f 54/74/309 55/75/310 78/98/311 77/97/312
f 55/75/313 62/82/314 76/100/315 78/98/316
