# This file uses meters as units for non-parametric coordinates.

v -73.367554 0.000000 -42.643799
v -73.367554 0.000000 42.643799
v -71.429443 3.297904 -40.883057
v -71.429443 3.297904 40.883057
v 71.429443 3.297904 -40.883057
v 71.429443 3.297904 40.883057
v 73.367554 0.000000 -42.643799
v 73.367554 0.000000 42.643799
v -80.230225 0.000000 -31.618652
v -80.230225 0.000000 31.618652
v -78.110718 3.297904 30.312988
v -78.110718 3.297904 -30.312988
v 78.110596 3.297904 -30.312988
v 78.110596 3.297904 30.312988
v 80.230103 0.000000 31.618652
v 80.230103 0.000000 -31.618652
v -60.026123 3.297904 -40.883057
v -60.026123 3.297904 40.883057
v -60.349121 0.000000 42.643799
v -60.349121 0.000000 -42.643799
v -47.704468 0.000000 42.643799
v -47.439941 3.297904 40.883057
v -47.439941 3.297904 -40.883057
v -47.704468 0.000000 -42.643799
v 56.252563 0.000000 42.643799
v 56.037720 3.297904 40.883057
v 56.037720 3.297904 -40.883057
v 56.252563 0.000000 -42.643799
v 42.337158 3.297904 -40.883057
v 42.337158 3.297904 40.883057
v 42.488525 0.000000 42.643799
v 42.488525 0.000000 -42.643799
vt 0.036948 0.353864
vt 0.036948 0.353864
vt 0.036948 0.353864
vt 0.036948 0.353864
vt 0.036948 0.353864
vt 0.036948 0.353864
vt 0.036948 0.353864
vt 0.036948 0.353864
vt 0.036948 0.353864
vt 0.036948 0.353864
vt 0.036948 0.353864
vt 0.036948 0.353864
vt 0.036948 0.353864
vt 0.036948 0.353864
vt 0.036948 0.353864
vt 0.036948 0.353864
vt 0.036948 0.353864
vt 0.036948 0.353864
vt 0.036948 0.353864
vt 0.036948 0.353864
vt 0.036948 0.353864
vt 0.036948 0.353864
vt 0.036948 0.327267
vt 0.036948 0.327267
vt 0.036948 0.353864
vt 0.036948 0.353864
vt 0.036948 0.327267
vt 0.036948 0.353864
vt 0.036948 0.327267
vt 0.036948 0.353864
vt 0.036948 0.353864
vt 0.036948 0.327267
vt 0.036948 0.353864
vt 0.036948 0.353864
vt 0.036948 0.353864
vt 0.036948 0.353864
vt 0.036948 0.353864
vt 0.036948 0.327267
vt 0.036948 0.327267
vt 0.036948 0.327267
vt 0.036948 0.327267
vt 0.036948 0.353864
vt 0.036948 0.327267
vt 0.036948 0.353864
vt 0.036948 0.353864
vt 0.036948 0.353864
vt 0.036948 0.327267
vt 0.036948 0.327267
vt 0.036948 0.353864
vt 0.036948 0.353864
vt 0.036948 0.353864
vt 0.036948 0.353864
vt 0.036948 0.353864
vt 0.036948 0.353864
vt 0.036948 0.327267
vt 0.036948 0.327267
vt 0.036948 0.353864
vt 0.036948 0.353864
vt 0.036948 0.327267
vt 0.036948 0.327267
vt 0.036948 0.327267
vt 0.036948 0.327267
vt 0.036948 0.353864
vt 0.036948 0.327267
vt 0.036948 0.353864
vt 0.036948 0.327267
vt 0.036948 0.327267
vt 0.036948 0.327267
vt 0.036948 0.353864
vt 0.036948 0.353864
vt 0.036948 0.327267
vt 0.036948 0.353864
vt 0.036948 0.327267
vt 0.036948 0.353864
vt 0.036948 0.327267
vt 0.036948 0.327267
vt 0.036948 0.327267
vt 0.036948 0.327267
vt 0.036948 0.353864
vt 0.036948 0.327267
vt 0.036948 0.353864
vt 0.036948 0.327267
vt 0.036948 0.353864
vt 0.036948 0.353864
vt 0.036948 0.327267
vt 0.036948 0.327267
vn -0.841246 0.540653 0.000000
vn -0.841246 0.540653 0.000000
vn -0.841246 0.540653 0.000000
vn -0.841246 0.540653 0.000000
vn 0.000000 1.000000 0.000000
vn 0.000000 1.000000 0.000000
vn 0.000000 1.000000 0.000000
vn 0.000000 1.000000 0.000000
vn 0.841245 0.540654 0.000000
vn 0.841245 0.540654 0.000000
vn 0.841245 0.540653 0.000000
vn 0.841245 0.540653 0.000000
vn 0.000000 -1.000000 0.000000
vn 0.000000 -1.000000 0.000000
vn 0.000000 -1.000000 0.000000
vn 0.000000 -1.000000 0.000000
vn 0.000000 0.470975 0.882146
vn 0.000000 0.470975 0.882146
vn 0.000000 0.470975 0.882146
vn 0.000000 0.470975 0.882146
vn 0.000000 0.470975 -0.882146
vn 0.000000 0.470975 -0.882146
vn 0.000000 0.470975 -0.882146
vn 0.000000 0.470975 -0.882146
vn 0.000000 -1.000000 0.000000
vn 0.000000 -1.000000 0.000000
vn 0.000000 -1.000000 0.000000
vn 0.000000 -1.000000 0.000000
vn -0.671830 0.609185 0.421354
vn -0.671830 0.609185 0.421354
vn -0.671830 0.609185 0.421354
vn -0.671830 0.609185 0.421354
vn 0.000000 1.000000 0.000000
vn 0.000000 1.000000 0.000000
vn 0.000000 1.000000 0.000000
vn 0.000000 1.000000 0.000000
vn -0.671830 0.609185 -0.421354
vn -0.671830 0.609185 -0.421354
vn -0.671830 0.609185 -0.421354
vn -0.671830 0.609185 -0.421354
vn 0.000000 1.000000 0.000000
vn 0.000000 1.000000 0.000000
vn 0.000000 1.000000 0.000000
vn 0.000000 1.000000 0.000000
vn 0.671833 0.609185 0.421348
vn 0.671833 0.609185 0.421348
vn 0.671833 0.609184 0.421348
vn 0.671833 0.609185 0.421348
vn 0.000000 -1.000000 0.000000
vn 0.000000 -1.000000 0.000000
vn 0.000000 -1.000000 0.000000
vn 0.000000 -1.000000 0.000000
vn 0.671833 0.609185 -0.421348
vn 0.671833 0.609185 -0.421348
vn 0.671833 0.609185 -0.421348
vn 0.671833 0.609184 -0.421348
vn 0.000000 1.000000 0.000000
vn 0.000000 1.000000 0.000000
vn 0.000000 1.000000 0.000000
vn 0.000000 1.000000 0.000000
vn 0.000000 0.470976 0.882146
vn 0.000000 0.470976 0.882146
vn 0.000000 0.470976 0.882146
vn 0.000000 0.470976 0.882146
vn 0.000000 -1.000000 0.000000
vn 0.000000 -1.000000 0.000000
vn 0.000000 -1.000000 0.000000
vn 0.000000 -1.000000 0.000000
vn 0.000000 0.470976 -0.882146
vn 0.000000 0.470976 -0.882146
vn 0.000000 0.470976 -0.882146
vn 0.000000 0.470976 -0.882146
vn 0.000000 0.470975 0.882146
vn 0.000000 0.470976 0.882146
vn 0.000000 0.470975 0.882146
vn 0.000000 0.470975 0.882146
vn 0.000000 1.000000 0.000000
vn 0.000000 1.000000 0.000000
vn 0.000000 1.000000 0.000000
vn 0.000000 1.000000 0.000000
vn 0.000000 0.470975 -0.882146
vn 0.000000 0.470975 -0.882146
vn 0.000000 0.470976 -0.882146
vn 0.000000 0.470975 -0.882146
vn 0.000000 -1.000000 0.000000
vn 0.000000 -1.000000 0.000000
vn 0.000000 -1.000000 0.000000
vn 0.000000 -1.000000 0.000000
vn 0.000000 0.470976 0.882146
vn 0.000000 0.470976 0.882146
vn 0.000000 0.470976 0.882146
vn 0.000000 0.470976 0.882146
vn 0.000000 1.000000 0.000000
vn 0.000000 1.000000 0.000000
vn 0.000000 1.000000 0.000000
vn 0.000000 1.000000 0.000000
vn 0.000000 0.470976 -0.882146
vn 0.000000 0.470976 -0.882146
vn 0.000000 0.470976 -0.882146
vn 0.000000 0.470976 -0.882146
vn 0.000000 -1.000000 0.000000
vn 0.000000 -1.000000 0.000000
vn 0.000000 -1.000000 0.000000
vn 0.000000 -1.000000 0.000000
vn 0.000000 1.000000 0.000000
vn 0.000000 1.000000 0.000000
vn 0.000000 1.000000 0.000000
vn 0.000000 1.000000 0.000000
vn 0.000000 0.470975 0.882146
vn 0.000000 0.470975 0.882146
vn 0.000000 0.470975 0.882146
vn 0.000000 0.470975 0.882146
vn 0.000000 -1.000000 0.000000
vn 0.000000 -1.000000 0.000000
vn 0.000000 -1.000000 0.000000
vn 0.000000 -1.000000 0.000000
vn 0.000000 0.470975 -0.882146
vn 0.000000 0.470975 -0.882146
vn 0.000000 0.470975 -0.882146
vn 0.000000 0.470975 -0.882146
s off
f 9/15/1 10/16/2 11/17/3 12/18/4
f 17/24/5 18/85/6 22/78/7 23/75/8
f 13/19/9 14/20/10 15/21/11 16/22/12
f 24/38/13 21/73/14 19/27/15 20/80/16
f 18/86/17 19/82/18 21/32/19 22/77/20
f 23/76/21 24/71/22 20/29/23 17/23/24
f 1/1/25 2/2/26 10/16/27 9/15/28
f 2/2/29 4/4/30 11/17/31 10/16/32
f 4/4/33 3/3/34 12/18/35 11/17/36
f 3/3/37 1/1/38 9/15/39 12/18/40
f 5/5/41 6/6/42 14/20/43 13/19/44
f 6/6/45 8/8/46 15/21/47 14/20/48
f 8/8/49 7/7/50 16/22/51 15/21/52
f 7/7/53 5/5/54 13/19/55 16/22/56
f 3/3/57 4/4/58 18/25/59 17/83/60
f 2/2/61 19/28/62 18/26/63 4/4/64
f 20/30/65 19/81/66 2/10/67 1/9/68
f 17/84/69 20/79/70 1/1/71 3/3/72
f 30/62/73 31/59/74 25/40/75 26/64/76
f 29/48/77 30/61/78 26/41/79 27/66/80
f 27/43/81 28/67/82 32/56/83 29/47/84
f 28/68/85 25/39/86 31/60/87 32/55/88
f 26/42/89 25/69/90 8/11/91 6/12/92
f 27/44/93 26/63/94 6/6/95 5/5/96
f 7/13/97 28/45/98 27/65/99 5/14/100
f 7/7/101 8/8/102 25/70/103 28/46/104
f 23/36/105 22/33/106 30/49/107 29/57/108
f 22/34/109 21/74/110 31/52/111 30/50/112
f 32/54/113 31/51/114 21/31/115 24/72/116
f 29/58/117 32/53/118 24/37/119 23/35/120
