# This file uses meters as units for non-parametric coordinates.

v 0.000000 0.000000 0.000000
v 27.567505 9.334167 7.378052
v 27.567505 9.334167 -7.378052
v 19.381409 9.334167 -14.060791
v 19.381409 9.334167 14.060669
v 26.297913 9.334167 5.969849
v 26.297913 9.334167 -5.969849
v 15.957886 9.334167 -11.939575
v 5.617798 9.334167 -5.969849
v 5.617798 9.334167 5.969849
v 15.957886 9.334167 11.939575
v -13.992371 9.334167 -14.060791
v -22.178528 9.334167 -7.378052
v -22.178528 9.334167 7.378052
v -13.992371 9.334167 14.060669
v -0.228943 9.334167 5.969849
v -0.228943 9.334167 -5.969849
v -10.568848 9.334167 -11.939575
v -20.908936 9.334167 -5.969849
v -20.908936 9.334167 5.969849
v -10.568848 9.334167 11.939575
v -23.755676 2.007565 -8.288452
v -23.755676 2.007565 8.288452
v -13.992371 2.007565 15.795898
v 19.381409 2.007565 15.795898
v 29.144592 2.007565 8.288452
v 29.144592 2.007565 -8.288452
v 19.381409 2.007565 -15.795898
v -13.992371 2.007565 -15.795898
v -25.749878 0.000000 -9.439331
v -25.749878 0.000000 9.439331
v -25.294922 2.007565 9.163574
v -25.294922 2.007565 -9.163574
v -15.015991 0.000000 17.989258
v -15.015991 2.007565 17.463623
v 20.405029 2.007565 17.463623
v 20.405029 0.000000 17.989258
v 31.138794 0.000000 9.439331
v 30.683838 2.007565 9.163574
v 31.138794 0.000000 -9.439331
v 30.683838 2.007565 -9.163574
v 20.405029 0.000000 -17.989258
v 20.405029 2.007565 -17.463623
v -15.015991 2.007565 -17.463623
v -15.015991 0.000000 -17.989258
v 22.448914 5.190410 3.747681
v 22.448914 5.190410 -3.747681
v 15.957886 5.596533 -0.000122
v 15.957886 5.190412 -7.495239
v 9.466797 5.190414 -3.747681
v 9.466797 5.190412 3.747681
v 15.957886 5.190409 7.495239
v 24.921326 9.772714 5.175049
v 24.921326 9.772714 -5.175049
v 15.957886 9.772715 -10.349976
v 6.994385 9.772726 -5.175049
v 6.994385 9.772720 5.175049
v 15.957886 9.772708 10.349976
v -4.077881 5.190407 3.747681
v -4.077881 5.190410 -3.747681
v -10.568848 5.596533 -0.000122
v -10.568848 5.190415 -7.495239
v -17.059937 5.190414 -3.747681
v -17.059937 5.190412 3.747681
v -10.568848 5.190410 7.495239
v -1.605530 9.772707 5.175049
v -1.605530 9.772714 -5.175049
v -10.568848 9.772724 -10.349976
v -19.532349 9.772726 -5.175049
v -19.532349 9.772720 5.175049
v -10.568848 9.772711 10.349976
vt 0.103638 0.229159
vt 0.103638 0.229159
vt 0.103638 0.229160
vt 0.103638 0.229160
vt 0.145938 0.447793
vt 0.145938 0.447793
vt 0.145938 0.447793
vt 0.145938 0.447793
vt 0.145938 0.447793
vt 0.145938 0.447793
vt 0.145938 0.447793
vt 0.145938 0.447793
vt 0.145938 0.447793
vt 0.112399 0.351394
vt 0.145938 0.447793
vt 0.145938 0.447793
vt 0.145938 0.447793
vt 0.145938 0.447793
vt 0.145938 0.447793
vt 0.145938 0.447793
vt 0.112399 0.351394
vt 0.112399 0.351394
vt 0.112399 0.351394
vt 0.112399 0.351394
vt 0.112399 0.351394
vt 0.112399 0.351394
vt 0.145938 0.447793
vt 0.103638 0.229159
vt 0.145938 0.447793
vt 0.103638 0.229160
vt 0.145938 0.447793
vt 0.103638 0.229160
vt 0.145938 0.447793
vt 0.112399 0.351394
vt 0.112399 0.351394
vt 0.112399 0.351394
vt 0.112399 0.351394
vt 0.112399 0.351394
vt 0.112399 0.351394
vt 0.112399 0.351394
vt 0.145938 0.447793
vt 0.145938 0.447793
vt 0.145938 0.447793
vt 0.145938 0.447793
vt 0.145938 0.447793
vt 0.145938 0.447793
vt 0.145938 0.447793
vt 0.145938 0.447793
vt 0.145938 0.447793
vt 0.145938 0.447793
vt 0.145938 0.447793
vt 0.145938 0.447793
vt 0.145938 0.447793
vt 0.145938 0.447793
vt 0.145938 0.447793
vt 0.145938 0.447793
vt 0.145938 0.447793
vt 0.145938 0.447793
vt 0.145938 0.447793
vt 0.103638 0.229159
vt 0.103638 0.229159
vt 0.103638 0.229160
vt 0.103638 0.229159
vt 0.103638 0.229160
vt 0.103638 0.229159
vt 0.103638 0.229160
vt 0.103638 0.229160
vt 0.103638 0.229159
vt 0.103638 0.229159
vt 0.103638 0.229160
vt 0.103638 0.229160
vt 0.103638 0.229160
vt 0.103638 0.229160
vt 0.103638 0.229160
vt 0.103638 0.229160
vt 0.103638 0.229160
vt 0.103638 0.229160
vt 0.112399 0.351394
vt 0.112399 0.351394
vt 0.112399 0.351394
vt 0.112399 0.351394
vt 0.112399 0.351394
vt 0.112399 0.351394
vt 0.112399 0.351394
vt 0.112399 0.351394
vt 0.112399 0.351394
vt 0.112399 0.351394
vt 0.112399 0.351394
vt 0.112399 0.351394
vt 0.112399 0.351394
vt 0.112399 0.351394
vt 0.112399 0.351394
vt 0.112399 0.351394
vt 0.112399 0.351394
vt 0.112399 0.351394
vt 0.112399 0.351394
vt 0.112399 0.351394
vt 0.112399 0.351394
vt 0.112399 0.351394
vt 0.112399 0.351394
vt 0.112399 0.351394
vn 0.977608 0.210435 0.000000
vn 0.977608 0.210435 0.000000
vn 0.977608 0.210435 0.000000
vn 0.977608 0.210435 0.000000
vn 0.607134 0.203994 -0.767968
vn 0.607134 0.203994 -0.767968
vn 0.607134 0.203994 -0.767968
vn 0.607134 0.203994 -0.767968
vn 0.607130 0.204000 0.767970
vn 0.607130 0.204000 0.767970
vn 0.607130 0.204000 0.767970
vn 0.607130 0.204000 0.767970
vn 0.062445 0.998048 0.000000
vn 0.062445 0.998048 0.000000
vn 0.062445 0.998048 0.000000
vn 0.031223 0.998048 -0.054079
vn 0.031223 0.998048 -0.054079
vn 0.031223 0.998048 -0.054079
vn -0.031221 0.998048 -0.054079
vn -0.031221 0.998048 -0.054079
vn -0.031221 0.998048 -0.054079
vn -0.062444 0.998048 0.000000
vn -0.062444 0.998048 0.000000
vn -0.062444 0.998049 0.000000
vn -0.031221 0.998049 0.054078
vn -0.031221 0.998049 0.054078
vn -0.031221 0.998049 0.054078
vn 0.031221 0.998049 0.054078
vn 0.031221 0.998049 0.054078
vn 0.031221 0.998049 0.054078
vn 0.000000 1.000000 0.000000
vn 0.000000 1.000000 0.000000
vn 0.000000 1.000000 0.000000
vn 0.000000 1.000000 0.000000
vn 0.000000 1.000000 -0.000000
vn 0.000000 1.000000 -0.000000
vn 0.000000 1.000000 -0.000000
vn 0.000000 1.000000 -0.000000
vn 0.000000 1.000000 0.000000
vn 0.000000 1.000000 0.000000
vn 0.000000 1.000000 0.000000
vn 0.000000 1.000000 0.000000
vn 0.000000 1.000000 -0.000000
vn 0.000000 1.000000 -0.000000
vn 0.000000 1.000000 -0.000000
vn 0.000000 1.000000 -0.000000
vn -0.880069 0.474846 0.000000
vn -0.880069 0.474846 0.000000
vn -0.880069 0.474846 0.000000
vn -0.880069 0.474846 0.000000
vn -0.440033 0.474831 0.762172
vn -0.440033 0.474831 0.762172
vn -0.440033 0.474831 0.762172
vn -0.440033 0.474831 0.762172
vn 0.440030 0.474831 0.762174
vn 0.440030 0.474831 0.762174
vn 0.440030 0.474831 0.762174
vn 0.440030 0.474831 0.762174
vn 0.880069 0.474846 0.000000
vn 0.880069 0.474846 0.000000
vn 0.880069 0.474846 0.000000
vn 0.880069 0.474846 0.000000
vn 0.440030 0.474831 -0.762174
vn 0.440030 0.474831 -0.762174
vn 0.440030 0.474831 -0.762174
vn 0.440030 0.474831 -0.762174
vn -0.440033 0.474831 -0.762172
vn -0.440033 0.474831 -0.762172
vn -0.440033 0.474831 -0.762172
vn -0.440033 0.474831 -0.762172
vn -0.607129 0.203997 -0.767971
vn -0.607129 0.203997 -0.767971
vn -0.607129 0.203997 -0.767971
vn -0.607129 0.203997 -0.767971
vn -0.977606 0.210443 0.000000
vn -0.977606 0.210443 0.000000
vn -0.977606 0.210443 0.000000
vn -0.977606 0.210443 0.000000
vn -0.607125 0.204003 0.767972
vn -0.607125 0.204003 0.767972
vn -0.607125 0.204003 0.767972
vn -0.607125 0.204003 0.767972
vn 0.062445 0.998048 0.000000
vn 0.062445 0.998048 0.000000
vn 0.062445 0.998048 0.000000
vn 0.031223 0.998048 -0.054079
vn 0.031223 0.998048 -0.054079
vn 0.031223 0.998048 -0.054079
vn -0.031222 0.998048 -0.054079
vn -0.031222 0.998048 -0.054079
vn -0.031222 0.998048 -0.054079
vn -0.062444 0.998048 0.000000
vn -0.062444 0.998048 0.000000
vn -0.062444 0.998048 0.000000
vn -0.031221 0.998049 0.054077
vn -0.031221 0.998049 0.054077
vn -0.031221 0.998049 0.054077
vn 0.031222 0.998048 0.054078
vn 0.031222 0.998049 0.054078
vn 0.031222 0.998049 0.054078
vn 0.000000 1.000000 0.000000
vn 0.000000 1.000000 0.000000
vn 0.000000 1.000000 0.000000
vn 0.000000 1.000000 0.000000
vn 0.000000 1.000000 0.000000
vn 0.000000 1.000000 0.000000
vn 0.000000 1.000000 0.000000
vn 0.000000 1.000000 0.000000
vn 0.000000 1.000000 0.000000
vn 0.000000 1.000000 0.000000
vn 0.000000 1.000000 0.000000
vn 0.000000 1.000000 0.000000
vn 0.000000 1.000000 0.000000
vn 0.000000 1.000000 0.000000
vn 0.000000 1.000000 0.000000
vn 0.000000 1.000000 0.000000
vn 0.000000 1.000000 0.000000
vn 0.000000 1.000000 0.000000
vn 0.000000 1.000000 0.000000
vn 0.000000 1.000000 0.000000
vn 0.000000 1.000000 0.000000
vn 0.000000 1.000000 0.000000
vn 0.000000 1.000000 0.000000
vn 0.000000 1.000000 0.000000
vn -0.880073 0.474838 0.000000
vn -0.880073 0.474838 0.000000
vn -0.880073 0.474838 0.000000
vn -0.880073 0.474838 0.000000
vn -0.440037 0.474829 0.762171
vn -0.440037 0.474829 0.762171
vn -0.440037 0.474829 0.762171
vn -0.440037 0.474829 0.762171
vn 0.440030 0.474831 0.762174
vn 0.440030 0.474831 0.762174
vn 0.440030 0.474831 0.762174
vn 0.440030 0.474831 0.762174
vn 0.880069 0.474846 0.000000
vn 0.880069 0.474846 0.000000
vn 0.880069 0.474846 0.000000
vn 0.880069 0.474846 0.000000
vn 0.440030 0.474831 -0.762174
vn 0.440030 0.474831 -0.762174
vn 0.440030 0.474831 -0.762174
vn 0.440030 0.474831 -0.762174
vn -0.440037 0.474829 -0.762171
vn -0.440037 0.474829 -0.762171
vn -0.440037 0.474829 -0.762171
vn -0.440037 0.474829 -0.762171
vn 0.000000 0.230449 -0.973084
vn 0.000000 0.230449 -0.973084
vn 0.000000 0.230449 -0.973084
vn 0.000000 0.230449 -0.973084
vn 0.000000 0.230464 0.973081
vn 0.000000 0.230464 0.973081
vn 0.000000 0.230464 0.973081
vn 0.000000 0.230464 0.973081
vn -0.975270 0.221016 0.000000
vn -0.975270 0.221016 0.000000
vn -0.975270 0.221016 0.000000
vn -0.975270 0.221016 0.000000
vn -0.610126 0.220996 0.760860
vn -0.610126 0.220996 0.760860
vn -0.610126 0.220996 0.760860
vn -0.610126 0.220996 0.760860
vn 0.000000 0.253289 0.967391
vn 0.000000 0.253289 0.967391
vn 0.000000 0.253289 0.967391
vn 0.000000 0.253289 0.967391
vn 0.610130 0.220996 0.760856
vn 0.610130 0.220996 0.760856
vn 0.610130 0.220996 0.760856
vn 0.610130 0.220996 0.760856
vn 0.975270 0.221017 0.000000
vn 0.975270 0.221017 0.000000
vn 0.975270 0.221017 0.000000
vn 0.975270 0.221017 0.000000
vn 0.610130 0.220996 -0.760856
vn 0.610130 0.220996 -0.760856
vn 0.610130 0.220996 -0.760856
vn 0.610130 0.220996 -0.760856
vn 0.000000 0.253289 -0.967391
vn 0.000000 0.253289 -0.967391
vn 0.000000 0.253289 -0.967391
vn 0.000000 0.253289 -0.967391
vn -0.610126 0.220996 -0.760859
vn -0.610126 0.220996 -0.760859
vn -0.610126 0.220996 -0.760860
vn -0.610126 0.220996 -0.760860
vn 0.000000 -1.000000 0.000000
vn 0.000000 -1.000000 0.000000
vn 0.000000 -1.000000 0.000000
vn 0.000000 1.000000 0.000000
vn 0.000000 1.000000 0.000000
vn 0.000000 1.000000 0.000000
vn 0.000000 1.000000 0.000000
vn 0.000000 -1.000000 0.000000
vn 0.000000 -1.000000 0.000000
vn 0.000000 -1.000000 0.000000
vn 0.000000 1.000000 -0.000000
vn 0.000000 1.000000 -0.000000
vn 0.000000 1.000000 -0.000000
vn 0.000000 1.000000 -0.000000
vn 0.000000 1.000000 -0.000000
vn 0.000000 1.000000 -0.000000
vn 0.000000 1.000000 -0.000000
vn 0.000000 1.000000 -0.000000
vn 0.000000 -1.000000 0.000000
vn 0.000000 -1.000000 0.000000
vn 0.000000 -1.000000 0.000000
vn 0.000000 -1.000000 0.000000
vn 0.000000 -1.000000 0.000000
vn 0.000000 -1.000000 0.000000
vn 0.000000 1.000000 -0.000000
vn 0.000000 1.000000 -0.000000
vn 0.000000 1.000000 -0.000000
vn 0.000000 1.000000 -0.000000
vn 0.000000 -1.000000 0.000000
vn 0.000000 -1.000000 0.000000
vn 0.000000 -1.000000 0.000000
vn 0.000000 1.000000 0.000000
vn 0.000000 1.000000 0.000000
vn 0.000000 1.000000 0.000000
vn 0.000000 1.000000 0.000000
vn 0.000000 -1.000000 0.000000
vn 0.000000 -1.000000 0.000000
vn 0.000000 -1.000000 0.000000
vn 0.000000 1.000000 -0.000000
vn 0.000000 1.000000 -0.000000
vn 0.000000 1.000000 -0.000000
vn 0.000000 1.000000 -0.000000
vn 0.000000 1.000000 0.000000
vn 0.000000 1.000000 0.000000
vn 0.000000 1.000000 0.000000
vn 0.000000 1.000000 0.000000
vn 0.000000 -1.000000 0.000000
vn 0.000000 -1.000000 0.000000
vn 0.000000 -1.000000 0.000000
vn 0.000000 -1.000000 0.000000
vn 0.000000 -1.000000 0.000000
vn 0.000000 -1.000000 0.000000
vn 0.000000 1.000000 0.000000
vn 0.000000 1.000000 0.000000
vn 0.000000 1.000000 0.000000
vn 0.000000 1.000000 0.000000
vn 0.303544 0.952817 0.000000
vn 0.303544 0.952817 0.000000
vn 0.303544 0.952818 0.000000
vn 0.303544 0.952818 0.000000
vn 0.151767 0.952820 -0.262872
vn 0.151767 0.952820 -0.262872
vn 0.151766 0.952820 -0.262872
vn 0.151767 0.952820 -0.262872
vn -0.151767 0.952818 -0.262876
vn -0.151767 0.952818 -0.262876
vn -0.151767 0.952818 -0.262876
vn -0.151767 0.952818 -0.262876
vn -0.303550 0.952816 0.000000
vn -0.303550 0.952816 0.000000
vn -0.303550 0.952816 0.000000
vn -0.303550 0.952816 0.000000
vn -0.151765 0.952820 0.262873
vn -0.151765 0.952820 0.262873
vn -0.151765 0.952820 0.262873
vn -0.151765 0.952820 0.262873
vn 0.151765 0.952820 0.262870
vn 0.151765 0.952820 0.262870
vn 0.151765 0.952820 0.262870
vn 0.151765 0.952820 0.262870
vn 0.303542 0.952818 0.000000
vn 0.303542 0.952818 0.000000
vn 0.303542 0.952818 0.000000
vn 0.303542 0.952818 0.000000
vn 0.151770 0.952819 -0.262873
vn 0.151770 0.952819 -0.262873
vn 0.151770 0.952819 -0.262873
vn 0.151770 0.952819 -0.262873
vn -0.151769 0.952817 -0.262879
vn -0.151769 0.952817 -0.262879
vn -0.151769 0.952817 -0.262879
vn -0.151769 0.952817 -0.262879
vn -0.303550 0.952816 0.000000
vn -0.303550 0.952816 0.000000
vn -0.303550 0.952816 0.000000
vn -0.303550 0.952816 0.000000
vn -0.151766 0.952819 0.262874
vn -0.151766 0.952819 0.262874
vn -0.151766 0.952819 0.262874
vn -0.151766 0.952819 0.262873
vn 0.151766 0.952821 0.262868
vn 0.151766 0.952821 0.262868
vn 0.151766 0.952821 0.262868
vn 0.151766 0.952821 0.262868
s off
f 26/56/1 27/57/2 3/6/3 2/5/4
f 27/57/5 28/58/6 4/7/7 3/6/8
f 25/54/9 26/55/10 2/9/11 5/8/12
f 46/14/13 47/21/14 48/22/15
f 47/21/16 49/23/17 48/22/18
f 49/23/19 50/24/20 48/22/21
f 50/24/22 51/25/23 48/22/24
f 51/25/25 52/26/26 48/22/27
f 52/26/28 46/14/29 48/22/30
f 2/12/31 3/11/32 7/16/33 6/15/34
f 3/11/35 4/10/36 8/17/37 7/16/38
f 10/19/39 9/18/40 17/41/41 16/42/42
f 5/13/43 2/12/44 6/15/45 11/20/46
f 53/90/47 54/91/48 47/21/49 46/14/50
f 54/91/51 55/92/52 49/23/53 47/21/54
f 55/92/55 56/93/56 50/24/57 49/23/58
f 56/93/59 57/94/60 51/25/61 50/24/62
f 57/94/63 58/95/64 52/26/65 51/25/66
f 58/95/67 53/90/68 46/14/69 52/26/70
f 29/59/71 22/51/72 13/29/73 12/27/74
f 22/51/75 23/52/76 14/31/77 13/29/78
f 23/52/79 24/53/80 15/33/81 14/31/82
f 59/40/83 60/78/84 61/79/85
f 60/78/86 62/80/87 61/79/88
f 62/80/89 63/81/90 61/79/91
f 63/81/92 64/82/93 61/79/94
f 64/82/95 65/83/96 61/79/97
f 65/83/98 59/40/99 61/79/100
f 12/43/101 18/44/102 17/41/103 9/18/104 8/17/105 4/7/106
f 12/43/107 13/45/108 19/46/109 18/44/110
f 13/45/111 14/47/112 20/48/113 19/46/114
f 14/47/115 15/49/116 21/50/117 20/48/118
f 10/19/119 16/42/120 21/50/121 15/33/122 5/13/123 11/20/124
f 66/96/125 67/97/126 60/78/127 59/40/128
f 67/97/129 68/98/130 62/80/131 60/78/132
f 68/98/133 69/99/134 63/81/135 62/80/136
f 69/99/137 70/100/138 64/82/139 63/81/140
f 70/100/141 71/101/142 65/83/143 64/82/144
f 71/101/145 66/96/146 59/40/147 65/83/148
f 4/7/149 28/58/150 29/59/151 12/27/152
f 5/8/153 15/33/154 24/53/155 25/54/156
f 30/1/157 31/2/158 32/3/159 33/4/160
f 31/2/161 34/28/162 35/30/163 32/3/164
f 36/32/165 35/30/166 34/28/167 37/60/168
f 37/60/169 38/61/170 39/62/171 36/32/172
f 38/61/173 40/63/174 41/64/175 39/62/176
f 40/63/177 42/65/178 43/66/179 41/64/180
f 44/67/181 43/66/182 42/65/183 45/68/184
f 45/68/185 30/1/186 33/4/187 44/67/188
f 1/69/189 31/2/190 30/1/191
f 23/70/192 22/71/193 33/4/194 32/3/195
f 1/69/196 34/28/197 31/2/198
f 24/72/199 23/70/200 32/3/201 35/30/202
f 25/73/203 24/72/204 35/30/205 36/32/206
f 1/69/207 37/60/208 34/28/209
f 1/69/210 38/61/211 37/60/212
f 26/74/213 25/73/214 36/32/215 39/62/216
f 1/69/217 40/63/218 38/61/219
f 27/75/220 26/74/221 39/62/222 41/64/223
f 1/69/224 42/65/225 40/63/226
f 28/76/227 27/75/228 41/64/229 43/66/230
f 29/77/231 28/76/232 43/66/233 44/67/234
f 1/69/235 45/68/236 42/65/237
f 1/69/238 30/1/239 45/68/240
f 22/71/241 29/77/242 44/67/243 33/4/244
f 6/34/245 7/35/246 54/91/247 53/90/248
f 7/35/249 8/36/250 55/92/251 54/91/252
f 8/36/253 9/37/254 56/93/255 55/92/256
f 9/37/257 10/38/258 57/94/259 56/93/260
f 10/38/261 11/39/262 58/95/263 57/94/264
f 11/39/265 6/34/266 53/90/267 58/95/268
f 16/84/269 17/85/270 67/97/271 66/96/272
f 17/85/273 18/86/274 68/98/275 67/97/276
f 18/86/277 19/87/278 69/99/279 68/98/280
f 19/87/281 20/88/282 70/100/283 69/99/284
f 20/88/285 21/89/286 71/101/287 70/100/288
f 21/89/289 16/84/290 66/96/291 71/101/292
v -10.568848 8.360132 -10.349976
v -19.532349 8.360134 -5.175049
v -19.532349 8.360128 5.175049
v -10.568848 8.360119 10.349976
v -1.605469 8.360115 5.175049
v -1.605469 8.360122 -5.175049
vt 0.350217 0.493038
vt 0.350217 0.493038
vt 0.350217 0.493038
vt 0.350217 0.493038
vt 0.350217 0.493038
vt 0.350217 0.493038
vn 0.000001 1.000000 0.000001
vn 0.000001 1.000000 0.000001
vn 0.000001 1.000000 0.000001
vn 0.000001 1.000000 0.000001
vn 0.000001 1.000000 0.000001
vn 0.000001 1.000000 0.000001
s off
f 72/102/293 73/103/294 74/104/295 75/105/296 76/106/297 77/107/298
v 21.862671 11.679260 3.484131
v 10.466125 11.314096 -1.761475
v 23.996765 7.958213 -4.648682
v 21.527161 12.025689 -4.472046
v 24.343933 7.958210 -4.841797
v 7.571716 7.958213 4.841553
v 15.957825 7.958211 -9.683594
v 17.613098 14.823600 -3.667847
v 18.854309 14.723866 -0.451538
v 24.344055 7.958214 4.841675
v 14.403564 14.723866 1.668945
v 15.957886 7.958217 9.683472
v 7.571655 7.958211 -4.841919
v 13.421875 14.823600 -2.440796
v 15.782593 7.958213 -9.391113
v 12.139587 11.173119 3.151123
v 14.357300 11.919497 -4.860474
vt 0.036986 0.306308
vt 0.036986 0.306308
vt 0.036986 0.306308
vt 0.036986 0.306308
vt 0.036986 0.306308
vt 0.036986 0.306308
vt 0.036986 0.306308
vt 0.036986 0.306308
vt 0.036986 0.306308
vt 0.036986 0.306308
vt 0.036986 0.306308
vt 0.036986 0.306308
vt 0.036986 0.306308
vt 0.036986 0.306308
vt 0.036986 0.306308
vt 0.036986 0.306308
vt 0.036986 0.306308
vt 0.036986 0.306308
vt 0.036986 0.306308
vt 0.036986 0.306308
vt 0.036986 0.306308
vn -0.757249 0.653127 0.000005
vn -0.757249 0.653127 0.000005
vn -0.757249 0.653127 0.000005
vn 0.545967 0.817045 -0.185359
vn 0.545967 0.817044 -0.185359
vn 0.545967 0.817044 -0.185359
vn -0.470793 -0.249091 -0.846349
vn -0.470793 -0.249091 -0.846349
vn -0.470793 -0.249091 -0.846349
vn 0.827098 0.562039 -0.004700
vn 0.827098 0.562039 -0.004700
vn 0.827098 0.562039 -0.004700
vn 0.827098 0.562039 -0.004700
vn -0.411108 0.701497 -0.582145
vn -0.411108 0.701497 -0.582145
vn -0.411108 0.701497 -0.582145
vn -0.411108 0.701497 -0.582145
vn -0.052642 0.413078 0.909173
vn -0.052642 0.413078 0.909173
vn -0.052642 0.413078 0.909173
vn 0.419344 0.544621 0.726319
vn 0.419344 0.544621 0.726319
vn 0.419344 0.544621 0.726319
vn 0.009434 0.999659 0.024355
vn 0.009434 0.999659 0.024355
vn 0.009434 0.999659 0.024355
vn 0.009434 0.999659 0.024355
vn -0.302489 0.668374 -0.679541
vn -0.302489 0.668374 -0.679541
vn -0.302489 0.668374 -0.679541
vn -0.302489 0.668374 -0.679541
vn -0.745454 0.623377 0.236008
vn -0.745454 0.623377 0.236008
vn -0.745454 0.623377 0.236008
vn -0.745454 0.623377 0.236008
vn -0.204115 0.912884 0.353525
vn -0.204115 0.912884 0.353525
vn -0.204115 0.912884 0.353525
vn 0.228783 0.846798 0.480200
vn 0.228783 0.846798 0.480200
vn 0.228783 0.846798 0.480200
vn 0.254202 0.578404 -0.775132
vn 0.254202 0.578404 -0.775132
vn 0.254202 0.578404 -0.775132
vn 0.473213 0.322909 -0.819633
vn 0.473213 0.322909 -0.819633
vn 0.473213 0.322909 -0.819633
vn -0.513742 0.834558 0.198954
vn -0.513742 0.834558 0.198954
vn -0.513742 0.834558 0.198954
vn -0.056455 0.526317 0.848412
vn -0.056455 0.526317 0.848412
vn -0.056455 0.526318 0.848412
vn -0.611570 0.380833 -0.693504
vn -0.611570 0.380833 -0.693504
vn -0.611570 0.380833 -0.693504
vn -0.229195 0.578448 -0.782859
vn -0.229195 0.578448 -0.782859
vn -0.229195 0.578448 -0.782859
vn 0.710912 0.703281 0.000643
vn 0.710912 0.703281 0.000643
vn 0.710912 0.703281 0.000643
s off
f 79/109/299 90/124/300 83/116/301
f 81/113/302 85/118/303 86/119/304
f 81/114/305 82/115/306 80/111/307
f 87/120/308 82/115/309 81/114/310 78/108/311
f 79/110/312 94/128/313 84/117/314 90/125/315
f 93/127/316 78/108/317 88/122/318
f 89/123/319 87/120/320 78/108/321
f 85/118/322 91/121/323 88/122/324 86/119/325
f 84/117/326 94/128/327 85/118/328 92/126/329
f 88/122/330 91/121/331 79/110/332 93/127/333
f 78/108/334 83/112/335 89/123/336
f 78/108/337 86/119/338 88/122/339
f 81/114/340 92/126/341 85/118/342
f 81/114/343 80/111/344 92/126/345
f 93/127/346 79/110/347 83/112/348
f 83/112/349 78/108/350 93/127/351
f 91/121/352 94/128/353 79/110/354
f 85/118/355 94/128/356 91/121/357
f 81/113/358 86/119/359 78/108/360
