# This file uses meters as units for non-parametric coordinates.

v -25.000000 0.000000 -17.507568
v -25.000000 0.000000 17.507568
v -25.000000 24.768700 -17.507568
v -25.000000 21.031456 11.410156
v 25.000000 24.768700 -17.507568
v 25.000000 21.031456 11.410156
v 25.000000 0.000000 -17.507568
v 25.000000 0.000000 17.507568
v 25.000000 24.768700 0.000000
v -25.000000 24.768700 0.000000
v -25.000000 0.000000 0.000000
v 25.000000 0.000000 0.000000
v 25.000000 10.875511 17.145508
v -25.000000 10.875511 17.145508
v -22.138733 21.031456 11.410156
v 22.138733 21.031456 11.410156
v 22.138733 10.875511 17.145508
v -22.138733 10.875511 17.145508
v -22.138794 24.021248 2.281982
v 22.138733 24.021248 2.281982
v -22.138794 2.175102 17.435059
v 22.138733 2.175102 17.435059
v -21.695068 3.041382 16.522705
v 21.695007 3.041382 16.522705
v 21.695007 10.762627 16.252441
v -21.695007 10.762627 16.252441
v 21.695007 19.775597 10.897949
v -21.695007 19.775597 10.897949
v -21.695068 22.428917 2.375732
v 21.695007 22.428917 2.375732
v -4.961609 4.776161 16.461914
v 4.961548 4.776161 16.461914
v 4.961548 9.027847 16.313232
v -4.961609 9.027847 16.313232
v -4.753479 5.556129 18.528076
v 4.753418 5.556129 18.528076
v 4.753418 8.247879 18.385498
v -4.753479 8.247879 18.385498
vt 0.004878 0.351681
vt 0.004878 0.351681
vt 0.004878 0.351681
vt 0.004878 0.351681
vt 0.004878 0.351681
vt 0.004878 0.351681
vt 0.004878 0.351681
vt 0.004878 0.351681
vt 0.004878 0.351681
vt 0.004878 0.351681
vt 0.004878 0.351681
vt 0.004878 0.351681
vt 0.004878 0.351681
vt 0.004878 0.351681
vt 0.004878 0.351681
vt 0.004878 0.351681
vt 0.004878 0.351681
vt 0.004878 0.351681
vt 0.004878 0.351681
vt 0.004878 0.351681
vt 0.004878 0.351681
vt 0.004878 0.351681
vt 0.004878 0.351681
vt 0.004878 0.351681
vt 0.004878 0.351681
vt 0.004878 0.351681
vt 0.004878 0.351681
vt 0.004878 0.351681
vt 0.004878 0.351681
vt 0.004878 0.351681
vt 0.004878 0.351681
vt 0.004878 0.351681
vt 0.004878 0.351681
vt 0.004878 0.351681
vt 0.004878 0.351681
vt 0.004878 0.351681
vt 0.004878 0.351681
vt 0.004878 0.351681
vt 0.004878 0.351681
vt 0.004878 0.351681
vt 0.004150 0.326859
vt 0.004150 0.326859
vt 0.004150 0.326859
vt 0.004150 0.326859
vt 0.004150 0.326859
vt 0.004150 0.326859
vt 0.004150 0.326859
vt 0.004150 0.326859
vt 0.007324 0.382912
vt 0.007324 0.382912
vt 0.007324 0.382912
vt 0.007324 0.382912
vt 0.007324 0.382912
vt 0.007324 0.382912
vt 0.007324 0.382912
vt 0.007324 0.382919
vt 0.007324 0.382919
vt 0.007324 0.382912
vt 0.007324 0.382912
vt 0.007324 0.382912
vn -1.000000 0.000000 0.000000
vn -1.000000 0.000000 0.000000
vn -1.000000 0.000000 0.000000
vn 0.000000 0.950321 0.311272
vn 0.000000 0.950321 0.311272
vn 0.000000 0.950321 0.311272
vn 0.000000 0.950321 0.311272
vn 1.000000 0.000000 0.000000
vn 1.000000 0.000000 0.000000
vn 1.000000 0.000000 0.000000
vn 0.000000 -1.000000 0.000000
vn 0.000000 -1.000000 0.000000
vn 0.000000 -1.000000 0.000000
vn 0.000000 -1.000000 0.000000
vn 0.000000 0.052894 0.998600
vn 0.000000 0.052894 0.998600
vn 0.000000 0.052894 0.998600
vn 0.000000 0.052894 0.998600
vn 0.000000 0.000000 -1.000000
vn 0.000000 0.000000 -1.000000
vn 0.000000 0.000000 -1.000000
vn 0.000000 0.000000 -1.000000
vn 0.000000 1.000000 0.000000
vn 0.000000 1.000000 0.000000
vn 0.000000 1.000000 0.000000
vn 0.000000 1.000000 0.000000
vn -1.000000 0.000000 0.000000
vn -1.000000 0.000000 0.000000
vn -1.000000 0.000000 0.000000
vn -1.000000 0.000000 0.000000
vn 0.000000 -1.000000 0.000000
vn 0.000000 -1.000000 0.000000
vn 0.000000 -1.000000 0.000000
vn 0.000000 -1.000000 0.000000
vn 1.000000 0.000000 0.000000
vn 1.000000 0.000000 0.000000
vn 1.000000 0.000000 0.000000
vn 1.000000 0.000000 0.000000
vn -1.000000 0.000000 0.000000
vn -1.000000 0.000000 0.000000
vn -1.000000 0.000000 0.000000
vn 1.000000 0.000000 0.000000
vn 1.000000 0.000000 0.000000
vn 1.000000 0.000000 0.000000
vn 1.000000 0.000000 0.000000
vn 1.000000 0.000000 0.000000
vn 1.000000 0.000000 0.000000
vn 0.000000 0.510753 0.859727
vn 0.000000 0.510753 0.859727
vn 0.000000 0.510753 0.859727
vn 0.000000 0.510753 0.859727
vn -1.000000 0.000000 0.000000
vn -1.000000 0.000000 0.000000
vn -1.000000 0.000000 0.000000
vn -0.000019 0.033268 0.999446
vn -0.000019 0.033268 0.999446
vn -0.000019 0.033268 0.999446
vn -0.000019 0.033268 0.999447
vn 0.000000 0.491735 0.870745
vn 0.000000 0.491735 0.870745
vn 0.000000 0.491735 0.870745
vn 0.000000 0.491735 0.870745
vn 0.000000 0.491735 0.870745
vn 0.000000 0.491735 0.870745
vn 0.000000 0.491735 0.870745
vn 0.000000 0.491735 0.870745
vn 0.000003 0.950323 0.311265
vn 0.000003 0.950323 0.311265
vn 0.000003 0.950323 0.311265
vn 0.000003 0.950323 0.311265
vn 0.000000 0.954794 0.297267
vn 0.000000 0.954794 0.297267
vn 0.000000 0.954794 0.297267
vn 0.000000 0.954794 0.297267
vn -0.000003 0.950323 0.311265
vn -0.000003 0.950323 0.311265
vn -0.000003 0.950323 0.311265
vn -0.000003 0.950323 0.311265
vn 0.000000 0.033318 0.999445
vn 0.000000 0.033318 0.999445
vn 0.000000 0.033318 0.999445
vn 0.000000 0.033318 0.999445
vn 0.000019 0.033268 0.999446
vn 0.000019 0.033268 0.999446
vn 0.000019 0.033268 0.999446
vn 0.000019 0.033268 0.999446
vn 0.000000 0.725181 0.688559
vn 0.000000 0.725181 0.688559
vn 0.000000 0.725181 0.688559
vn 0.000000 0.725181 0.688559
vn -0.894810 0.015211 0.446189
vn -0.894809 0.015211 0.446189
vn -0.894809 0.015211 0.446189
vn -0.894809 0.015211 0.446189
vn 0.894811 0.015204 0.446187
vn 0.894811 0.015204 0.446187
vn 0.894811 0.015204 0.446187
vn 0.894811 0.015204 0.446187
vn -0.906193 0.211757 0.366023
vn -0.906193 0.211757 0.366023
vn -0.906193 0.211757 0.366023
vn -0.906193 0.211757 0.366023
vn 0.906193 0.211757 0.366023
vn 0.906193 0.211757 0.366023
vn 0.906193 0.211757 0.366023
vn 0.906193 0.211757 0.366023
vn 0.000000 0.058774 0.998271
vn 0.000000 0.058774 0.998271
vn 0.000000 0.058774 0.998271
vn 0.000000 0.058774 0.998271
vn 0.954495 0.284063 0.090813
vn 0.954495 0.284063 0.090813
vn 0.954495 0.284063 0.090813
vn 0.954495 0.284063 0.090813
vn -0.954495 0.284062 0.090819
vn -0.954495 0.284062 0.090819
vn -0.954495 0.284062 0.090819
vn -0.954495 0.284062 0.090819
vn 0.000000 0.035021 0.999387
vn 0.000000 0.035021 0.999387
vn 0.000000 0.035021 0.999387
vn 0.000000 0.035021 0.999387
vn 0.000000 0.034970 0.999388
vn 0.000000 0.034970 0.999388
vn 0.000000 0.034970 0.999388
vn 0.000000 0.034970 0.999388
vn 0.000000 0.035021 0.999387
vn 0.000000 0.035021 0.999387
vn 0.000000 0.035021 0.999387
vn 0.000000 0.035021 0.999387
vn -0.000000 0.034970 0.999388
vn -0.000000 0.034970 0.999388
vn -0.000000 0.034970 0.999388
vn -0.000000 0.034970 0.999388
vn 0.000000 -0.935559 0.353170
vn 0.000000 -0.935559 0.353170
vn 0.000000 -0.935559 0.353170
vn 0.000000 -0.935559 0.353170
vn 0.994971 0.004198 0.100078
vn 0.994971 0.004198 0.100078
vn 0.994971 0.004198 0.100078
vn 0.994971 0.004198 0.100078
vn 0.000000 0.935902 0.352259
vn 0.000000 0.935902 0.352259
vn 0.000000 0.935903 0.352259
vn 0.000000 0.935903 0.352259
vn -0.994971 0.004198 0.100078
vn -0.994971 0.004198 0.100078
vn -0.994971 0.004198 0.100078
vn -0.994971 0.004198 0.100078
s off
f 10/16/1 11/17/2 4/4/3
f 9/15/4 10/16/5 19/28/6 20/29/7
f 12/19/8 9/15/9 6/6/10
f 11/18/11 12/19/12 8/8/13 2/10/14
f 35/41/15 36/42/16 37/43/17 38/44/18
f 7/13/19 1/1/20 3/3/21 5/14/22
f 3/3/23 10/16/24 9/15/25 5/5/26
f 1/1/27 11/17/28 10/16/29 3/3/30
f 7/7/31 12/19/32 11/18/33 1/9/34
f 5/5/35 9/15/36 12/19/37 7/7/38
f 14/22/39 11/17/40 2/2/41
f 12/19/42 13/20/43 8/8/44
f 12/19/45 6/6/46 13/20/47
f 26/55/48 25/59/49 27/60/50 28/58/51
f 4/4/52 11/17/53 14/22/54
f 8/11/55 13/21/56 17/25/57 22/31/58
f 13/21/59 6/12/60 16/27/61 17/25/62
f 4/4/63 14/22/64 18/26/65 15/23/66
f 10/16/67 4/4/68 15/23/69 19/28/70
f 30/57/71 29/56/72 28/58/73 27/60/74
f 6/6/75 9/15/76 20/29/77 16/24/78
f 2/2/79 8/11/80 22/31/81 21/30/82
f 14/22/83 2/2/84 21/30/85 18/26/86
f 21/30/87 22/31/88 24/33/89 23/32/90
f 22/31/91 17/25/92 25/34/93 24/33/94
f 18/26/95 21/30/96 23/32/97 26/35/98
f 17/25/99 16/27/100 27/36/101 25/34/102
f 15/23/103 18/26/104 26/35/105 28/37/106
f 20/29/107 19/28/108 29/39/109 30/38/110
f 19/28/111 15/23/112 28/37/113 29/39/114
f 16/24/115 20/29/116 30/38/117 27/40/118
f 23/54/119 24/53/120 32/52/121 31/51/122
f 24/53/123 25/59/124 33/50/125 32/52/126
f 25/59/127 26/55/128 34/49/129 33/50/130
f 26/55/131 23/54/132 31/51/133 34/49/134
f 31/45/135 32/46/136 36/42/137 35/41/138
f 32/46/139 33/47/140 37/43/141 36/42/142
f 33/47/143 34/48/144 38/44/145 37/43/146
f 34/48/147 31/45/148 35/41/149 38/44/150
