# This file uses meters as units for non-parametric coordinates.

v -45.531677 -0.338771 -115.470703
v -47.076599 -0.126913 115.470703
v -45.531677 4.514403 -115.470703
v -47.076599 6.765630 115.470703
v 45.531738 4.514402 -115.470703
v 47.076660 6.765629 115.470703
v 45.531738 -0.338771 -115.470703
v 47.076660 -0.126913 115.470703
v 0.000000 4.765323 -120.999023
v 0.000000 4.681948 115.470703
v 0.000000 -3.084812 115.470703
v 0.000000 -3.093291 -120.999023
v -22.765808 5.840336 115.470703
v -41.028870 -2.100953 115.470703
v -41.028870 -2.385269 -119.571167
v 41.028870 -2.100953 115.470703
v 22.765869 5.840336 115.470703
v 41.028870 -2.385269 -119.571167
v -22.765808 5.561503 -87.000854
v 0.000000 4.301572 -88.765991
v 22.765869 5.561502 -87.000732
v -40.746277 11.204123 -101.729004
v -27.297852 11.036573 -84.536133
v -41.632629 11.501017 107.490723
v -26.664856 11.082379 107.490723
v -18.866760 7.053571 -83.462402
v -3.898987 6.148590 -84.895142
v -18.866760 9.776254 107.490601
v -3.898987 8.655256 107.490601
v 3.899048 6.148590 -84.894897
v 18.866821 7.053571 -83.462158
v 3.899048 8.655256 107.490845
v 18.866821 9.776254 107.490845
v 27.297852 11.036573 -84.536011
v 40.746277 11.204123 -101.728882
v 26.664917 11.082379 107.490845
v 41.632690 11.501017 107.490845
v 0.000000 11.882244 -116.813965
v 0.000000 9.893927 -92.566040
v 20.015198 10.999556 -90.800781
v 36.415527 13.782375 -111.223022
v -20.015137 10.999556 -90.800903
v -36.415466 13.782375 -111.223022
v 0.000000 13.921434 -112.405151
v 0.000000 13.924446 -99.666870
v 14.446716 14.532550 -98.718994
v 21.552185 14.889388 -110.745117
v -14.446655 14.532550 -98.718994
v -21.552124 14.889389 -110.745117
v -40.583069 13.525642 -94.562378
v -31.596497 13.857750 -81.884521
v -38.153564 13.671171 101.636108
v -30.381714 13.812071 101.636108
v -15.268921 8.622908 -77.210938
v -7.497009 8.031513 -77.659180
v -15.268921 11.248861 101.636230
v -7.497009 10.593647 101.636230
v 7.497070 8.031513 -77.658813
v 15.268860 8.622908 -77.210693
v 7.497070 10.593647 101.636597
v 15.268860 11.248861 101.636597
v 31.596497 13.857750 -81.884521
v 40.583069 13.525642 -94.562256
v 30.381775 13.812071 101.636353
v 38.153625 13.671171 101.636353
v -29.132324 13.402349 -115.323486
v -40.978455 6.332710 -119.571167
v 29.132385 13.402349 -115.323486
v 40.978516 6.332709 -119.571167
v -47.076599 6.532741 -106.330566
v -47.076599 -0.317585 -106.330566
v 47.076599 6.532740 -106.330566
v 47.076599 -0.317585 -106.330566
v -42.771973 11.233812 -98.425049
v 42.771973 11.233812 -98.424927
v -38.701904 6.223256 -106.929810
v 38.701965 6.223255 -106.929810
v -42.916870 6.506865 -113.590454
v 42.916931 6.506865 -113.590332
vt 0.264552 0.471760
vt 0.264552 0.471760
vt 0.264552 0.471760
vt 0.264552 0.471760
vt 0.264552 0.471760
vt 0.264552 0.471760
vt 0.264552 0.471760
vt 0.264552 0.471760
vt 0.264552 0.471760
vt 0.264552 0.471760
vt 0.264552 0.471760
vt 0.264552 0.471760
vt 0.264552 0.471760
vt 0.264552 0.471760
vt 0.264552 0.471760
vt 0.264552 0.471760
vt 0.264552 0.471760
vt 0.264552 0.471760
vt 0.264552 0.471760
vt 0.264552 0.471760
vt 0.264552 0.471760
vt 0.264552 0.471760
vt 0.264552 0.471760
vt 0.264552 0.471760
vt 0.264552 0.471760
vt 0.264552 0.471760
vt 0.264552 0.471760
vt 0.264552 0.471760
vt 0.264552 0.471760
vt 0.264552 0.471760
vt 0.264552 0.471760
vt 0.264552 0.471760
vt 0.264552 0.471760
vt 0.264552 0.471760
vt 0.264552 0.471760
vt 0.264552 0.471760
vt 0.264552 0.471760
vt 0.264552 0.471760
vt 0.264552 0.471760
vt 0.264552 0.471760
vt 0.264552 0.471760
vt 0.264552 0.471760
vt 0.264552 0.471760
vt 0.264552 0.471760
vt 0.264552 0.471760
vt 0.264552 0.471760
vt 0.264552 0.471760
vt 0.264552 0.471760
vt 0.264552 0.471760
vt 0.264552 0.471760
vt 0.264552 0.471760
vt 0.264552 0.471760
vt 0.264552 0.471760
vt 0.264552 0.471760
vt 0.264552 0.471760
vt 0.264552 0.471760
vt 0.264552 0.471760
vt 0.264552 0.471760
vt 0.264552 0.471760
vt 0.264552 0.471760
vt 0.264552 0.471760
vt 0.264552 0.471760
vt 0.264552 0.471760
vt 0.264552 0.471760
vt 0.264552 0.471760
vt 0.264552 0.471760
vt 0.264552 0.471760
vt 0.264552 0.471760
vt 0.264552 0.471760
vt 0.264552 0.471760
vt 0.264552 0.471760
vt 0.264552 0.471760
vt 0.264552 0.471760
vt 0.264552 0.471760
vt 0.264552 0.471760
vt 0.264552 0.471760
vt 0.264552 0.471760
vt 0.264552 0.471760
vt 0.264552 0.471760
vt 0.264552 0.471760
vt 0.264552 0.471760
vt 0.264552 0.471760
vt 0.264552 0.471760
vt 0.264552 0.471760
vt 0.264552 0.471760
vt 0.264552 0.471760
vt 0.264552 0.471760
vt 0.264552 0.471760
vt 0.264552 0.471760
vt 0.264552 0.471760
vt 0.264552 0.471760
vt 0.264552 0.471760
vt 0.264552 0.471760
vt 0.264552 0.471760
vt 0.264552 0.471760
vt 0.264552 0.471760
vt 0.264552 0.471760
vt 0.264552 0.471760
vn -0.043861 0.999036 0.001689
vn -0.043861 0.999036 0.001689
vn -0.043861 0.999036 0.001689
vn -0.043861 0.999036 0.001689
vn 0.000000 0.000000 1.000000
vn 0.000000 0.000000 1.000000
vn 0.000000 0.000000 1.000000
vn 0.000000 0.000000 1.000000
vn 0.034799 0.000106 -0.999394
vn 0.034799 0.000106 -0.999394
vn 0.034799 0.000106 -0.999394
vn 0.034799 0.000106 -0.999394
vn 0.043861 0.999036 0.001689
vn 0.043861 0.999036 0.001689
vn 0.043861 0.999036 0.001689
vn 0.043861 0.999036 0.001689
vn -0.000000 0.000000 1.000000
vn -0.000000 0.000000 1.000000
vn -0.000000 0.000000 1.000000
vn -0.000000 0.000000 1.000000
vn -0.670046 0.003875 -0.742310
vn -0.670046 0.003875 -0.742310
vn -0.670046 0.003875 -0.742310
vn 0.000000 0.000000 1.000000
vn 0.000000 0.000000 1.000000
vn 0.000000 0.000000 1.000000
vn 0.000000 0.000000 1.000000
vn -0.673302 0.000000 -0.739367
vn -0.673302 0.000000 -0.739367
vn -0.673302 0.000000 -0.739367
vn -0.000000 0.000000 1.000000
vn -0.000000 0.000000 1.000000
vn -0.000000 0.000000 1.000000
vn -0.000000 0.000000 1.000000
vn 0.673297 0.000000 -0.739372
vn 0.673297 0.000000 -0.739372
vn 0.673297 0.000000 -0.739372
vn -1.000000 0.000000 0.000000
vn -1.000000 0.000000 0.000000
vn -1.000000 0.000000 0.000000
vn -1.000000 0.000000 0.000000
vn -0.028220 0.999602 0.000008
vn -0.028220 0.999602 0.000008
vn -0.028220 0.999602 0.000008
vn -0.028220 0.999602 0.000008
vn 0.079521 0.996729 -0.014439
vn 0.079521 0.996729 -0.014439
vn 0.079521 0.996729 -0.014439
vn 0.079521 0.996729 -0.014439
vn -0.079522 0.996728 -0.014439
vn -0.079522 0.996729 -0.014439
vn -0.079522 0.996729 -0.014439
vn -0.079522 0.996728 -0.014439
vn 0.028220 0.999602 0.000008
vn 0.028220 0.999602 0.000008
vn 0.028220 0.999602 0.000008
vn 0.028220 0.999602 0.000008
vn 0.986015 0.000000 -0.166656
vn 0.986015 0.000000 -0.166656
vn 0.986015 0.000000 -0.166656
vn 0.986015 0.000000 -0.166656
vn 0.470090 -0.879217 -0.077416
vn 0.470090 -0.879217 -0.077416
vn 0.470090 -0.879217 -0.077416
vn 0.020603 -0.999788 0.000621
vn 0.020603 -0.999788 0.000621
vn 0.020603 -0.999788 0.000621
vn 0.020603 -0.999788 0.000621
vn -0.020603 -0.999788 0.000621
vn -0.020603 -0.999788 0.000621
vn -0.020603 -0.999788 0.000621
vn -0.020603 -0.999788 0.000621
vn -0.315955 -0.948774 0.000986
vn -0.315955 -0.948774 0.000986
vn -0.315955 -0.948774 0.000986
vn -0.315955 -0.948774 0.000986
vn -0.695506 0.718520 0.001013
vn -0.695506 0.718520 0.001013
vn -0.695506 0.718520 0.001013
vn -0.695506 0.718520 0.001013
vn 0.028957 0.846322 0.531884
vn 0.028957 0.846322 0.531884
vn 0.028957 0.846322 0.531884
vn 0.028957 0.846322 0.531884
vn 0.786385 0.617734 -0.001770
vn 0.786385 0.617734 -0.001770
vn 0.786385 0.617734 -0.001770
vn 0.786385 0.617734 -0.001770
vn 0.017484 0.911556 -0.410803
vn 0.017484 0.911556 -0.410803
vn 0.017484 0.911556 -0.410803
vn 0.017484 0.911556 -0.410803
vn -0.573677 0.819058 -0.006249
vn -0.573677 0.819058 -0.006249
vn -0.573677 0.819058 -0.006249
vn -0.573677 0.819058 -0.006249
vn 0.054047 0.894703 0.443379
vn 0.054047 0.894703 0.443379
vn 0.054047 0.894703 0.443379
vn 0.054047 0.894703 0.443379
vn 0.600105 0.799900 -0.005823
vn 0.600105 0.799900 -0.005823
vn 0.600105 0.799900 -0.005823
vn 0.600105 0.799900 -0.005823
vn -0.017485 0.911564 -0.410786
vn -0.017485 0.911564 -0.410786
vn -0.017485 0.911564 -0.410786
vn -0.017485 0.911564 -0.410786
vn -0.600099 0.799905 -0.005823
vn -0.600099 0.799905 -0.005823
vn -0.600099 0.799905 -0.005823
vn -0.600099 0.799905 -0.005823
vn -0.054046 0.894698 0.443390
vn -0.054046 0.894698 0.443390
vn -0.054046 0.894698 0.443390
vn -0.054046 0.894698 0.443390
vn 0.573677 0.819058 -0.006249
vn 0.573677 0.819058 -0.006249
vn 0.573677 0.819058 -0.006249
vn 0.573677 0.819058 -0.006249
vn -0.786387 0.617731 -0.001770
vn -0.786388 0.617731 -0.001770
vn -0.786388 0.617731 -0.001770
vn -0.786388 0.617731 -0.001770
vn -0.028957 0.846318 0.531890
vn -0.028957 0.846318 0.531890
vn -0.028957 0.846318 0.531890
vn -0.028957 0.846318 0.531890
vn 0.445130 0.857462 -0.258105
vn 0.445130 0.857462 -0.258105
vn 0.445130 0.857462 -0.258105
vn -0.577272 0.686835 -0.441606
vn -0.577272 0.686835 -0.441605
vn -0.577272 0.686835 -0.441606
vn -0.577272 0.686835 -0.441605
vn -0.098848 0.547764 0.830773
vn -0.098848 0.547764 0.830773
vn -0.098848 0.547764 0.830773
vn -0.098848 0.547764 0.830773
vn 0.613900 0.574816 0.541031
vn 0.613899 0.574816 0.541031
vn 0.613899 0.574816 0.541031
vn 0.613900 0.574816 0.541031
vn 0.012737 0.518759 -0.854826
vn 0.012737 0.518759 -0.854826
vn 0.012737 0.518759 -0.854826
vn 0.012737 0.518759 -0.854826
vn 0.098844 0.547765 0.830773
vn 0.098844 0.547765 0.830773
vn 0.098844 0.547765 0.830773
vn 0.098844 0.547765 0.830773
vn -0.505886 0.841758 -0.188474
vn -0.505886 0.841758 -0.188474
vn -0.505886 0.841758 -0.188474
vn -0.080818 0.877860 0.472050
vn -0.080818 0.877860 0.472050
vn -0.080818 0.877860 0.472050
vn -0.080818 0.877859 0.472050
vn 0.147054 0.968646 0.200252
vn 0.147054 0.968646 0.200252
vn 0.147054 0.968646 0.200252
vn 0.147054 0.968646 0.200252
vn -0.021694 0.924333 -0.380970
vn -0.021694 0.924333 -0.380970
vn -0.021694 0.924333 -0.380970
vn -0.021694 0.924333 -0.380970
vn -0.147055 0.968645 0.200253
vn -0.147055 0.968645 0.200253
vn -0.147055 0.968645 0.200253
vn -0.147055 0.968645 0.200253
vn 0.080817 0.877858 0.472053
vn 0.080817 0.877858 0.472053
vn 0.080817 0.877858 0.472053
vn 0.080817 0.877858 0.472053
vn -0.066011 0.975963 -0.207698
vn -0.066011 0.975963 -0.207698
vn -0.066011 0.975963 -0.207698
vn 0.386365 0.873897 -0.295002
vn 0.386365 0.873897 -0.295002
vn 0.386365 0.873897 -0.295002
vn 0.386365 0.873897 -0.295002
vn -0.617535 0.786529 0.004673
vn -0.617535 0.786529 0.004673
vn -0.617535 0.786529 0.004673
vn -0.617535 0.786529 0.004673
vn 0.011267 0.922511 0.385805
vn 0.011267 0.922511 0.385805
vn 0.011267 0.922511 0.385805
vn 0.011267 0.922511 0.385806
vn 0.570081 0.821584 -0.002805
vn 0.570081 0.821584 -0.002805
vn 0.570081 0.821584 -0.002805
vn 0.570081 0.821584 -0.002805
vn 0.043198 0.967864 -0.247735
vn 0.043198 0.967864 -0.247735
vn 0.043198 0.967864 -0.247735
vn 0.043198 0.967864 -0.247735
vn -0.388723 0.921258 -0.013325
vn -0.388723 0.921258 -0.013325
vn -0.388723 0.921258 -0.013325
vn -0.388723 0.921258 -0.013325
vn 0.074783 0.957401 0.278910
vn 0.074783 0.957401 0.278909
vn 0.074783 0.957401 0.278910
vn 0.074783 0.957401 0.278910
vn 0.467163 0.884089 -0.012057
vn 0.467163 0.884089 -0.012057
vn 0.467163 0.884089 -0.012057
vn 0.467163 0.884089 -0.012057
vn -0.043199 0.967865 -0.247733
vn -0.043199 0.967865 -0.247733
vn -0.043199 0.967865 -0.247733
vn -0.043199 0.967865 -0.247733
vn -0.467163 0.884089 -0.012057
vn -0.467163 0.884089 -0.012057
vn -0.467162 0.884089 -0.012057
vn -0.467162 0.884089 -0.012057
vn -0.074784 0.957399 0.278915
vn -0.074784 0.957399 0.278915
vn -0.074784 0.957399 0.278915
vn -0.074784 0.957399 0.278915
vn 0.388712 0.921263 -0.013325
vn 0.388711 0.921263 -0.013325
vn 0.388711 0.921263 -0.013325
vn 0.388711 0.921263 -0.013325
vn -0.570081 0.821584 -0.002805
vn -0.570081 0.821584 -0.002805
vn -0.570081 0.821584 -0.002805
vn -0.570081 0.821584 -0.002805
vn -0.011268 0.922508 0.385812
vn -0.011268 0.922508 0.385812
vn -0.011268 0.922508 0.385812
vn -0.011268 0.922508 0.385812
vn 0.427378 0.862881 -0.269784
vn 0.427378 0.862881 -0.269784
vn 0.427378 0.862882 -0.269784
vn -0.386367 0.873895 -0.295004
vn -0.386367 0.873895 -0.295004
vn -0.386367 0.873895 -0.295004
vn -0.386367 0.873896 -0.295004
vn 0.021694 0.924333 -0.380971
vn 0.021694 0.924333 -0.380971
vn 0.021694 0.924333 -0.380971
vn 0.021694 0.924333 -0.380971
vn -0.012737 0.518759 -0.854826
vn -0.012737 0.518759 -0.854826
vn -0.012737 0.518759 -0.854826
vn -0.012737 0.518759 -0.854826
vn -0.034799 0.000106 -0.999394
vn -0.034799 0.000106 -0.999394
vn -0.034799 0.000106 -0.999394
vn -0.034799 0.000106 -0.999394
vn 0.066011 0.975963 -0.207698
vn 0.066011 0.975963 -0.207698
vn 0.066011 0.975963 -0.207698
vn 0.444265 0.775263 -0.448995
vn 0.444265 0.775263 -0.448995
vn 0.444265 0.775263 -0.448995
vn 0.444265 0.775263 -0.448995
vn 0.670042 0.003870 -0.742313
vn 0.670042 0.003870 -0.742313
vn 0.670042 0.003870 -0.742313
vn -0.456769 0.849277 -0.264744
vn -0.456769 0.849277 -0.264744
vn -0.456769 0.849277 -0.264744
vn -0.986014 0.000000 -0.166662
vn -0.986014 0.000000 -0.166662
vn -0.986014 0.000000 -0.166662
vn -0.986014 0.000000 -0.166662
vn -0.470100 -0.879211 -0.077421
vn -0.470100 -0.879211 -0.077421
vn -0.470100 -0.879211 -0.077421
vn 0.434172 0.858178 -0.273908
vn 0.434172 0.858178 -0.273908
vn 0.434172 0.858178 -0.273908
vn 1.000000 0.000000 -0.000000
vn 1.000000 0.000000 -0.000000
vn 1.000000 0.000000 -0.000000
vn 1.000000 0.000000 -0.000000
vn 0.315953 -0.948774 0.000986
vn 0.315953 -0.948774 0.000986
vn 0.315953 -0.948774 0.000986
vn 0.315953 -0.948774 0.000986
vn -0.427378 0.862881 -0.269784
vn -0.427378 0.862881 -0.269784
vn -0.427378 0.862882 -0.269784
vn -0.434174 0.858176 -0.273910
vn -0.434174 0.858176 -0.273910
vn -0.434174 0.858176 -0.273910
vn 0.617535 0.786529 0.004673
vn 0.617535 0.786529 0.004673
vn 0.617535 0.786529 0.004673
vn 0.617535 0.786529 0.004673
vn 0.695506 0.718520 0.001012
vn 0.695506 0.718520 0.001012
vn 0.695506 0.718520 0.001012
vn 0.695506 0.718519 0.001012
vn 0.577270 0.686836 -0.441606
vn 0.577270 0.686836 -0.441606
vn 0.577270 0.686836 -0.441606
vn 0.577270 0.686836 -0.441606
vn -0.613897 0.574816 0.541033
vn -0.613897 0.574816 0.541033
vn -0.613897 0.574816 0.541033
vn -0.613897 0.574816 0.541033
vn -0.645632 0.662172 -0.380378
vn -0.645632 0.662172 -0.380378
vn -0.645632 0.662172 -0.380378
vn 0.725870 0.492352 0.480315
vn 0.725870 0.492352 0.480315
vn 0.725870 0.492352 0.480315
vn -0.445133 0.857460 -0.258106
vn -0.445133 0.857460 -0.258106
vn -0.445133 0.857460 -0.258106
vn 0.645638 0.662169 -0.380375
vn 0.645638 0.662169 -0.380375
vn 0.645638 0.662169 -0.380375
vn -0.725875 0.492350 0.480309
vn -0.725875 0.492350 0.480309
vn -0.725875 0.492350 0.480309
vn -0.444262 0.775263 -0.448997
vn -0.444262 0.775263 -0.448997
vn -0.444261 0.775263 -0.448997
vn -0.444261 0.775263 -0.448997
vn 0.456763 0.849282 -0.264741
vn 0.456763 0.849282 -0.264741
vn 0.456763 0.849282 -0.264741
vn 0.505882 0.841761 -0.188470
vn 0.505882 0.841761 -0.188470
vn 0.505882 0.841761 -0.188470
s off
f 44/63/1 45/60/2 46/61/3 47/62/4
f 10/18/5 11/20/6 16/30/7 17/32/8
f 69/86/9 18/33/10 12/21/11 9/15/12
f 49/64/13 48/65/14 45/60/15 44/63/16
f 13/24/17 14/26/18 11/20/19 10/18/20
f 67/83/21 15/27/22 3/3/23
f 2/2/24 14/26/25 13/24/26 4/4/27
f 3/3/28 15/27/29 1/1/30
f 17/32/31 16/30/32 8/11/33 6/12/34
f 7/13/35 18/33/36 5/14/37
f 70/88/38 71/89/39 2/2/40 4/4/41
f 51/67/42 50/66/43 52/68/44 53/69/45
f 55/70/46 54/71/47 56/72/48 57/73/49
f 59/74/50 58/75/51 60/76/52 61/77/53
f 63/81/54 62/78/55 64/79/56 65/80/57
f 7/7/58 5/5/59 72/91/60 73/92/61
f 18/34/62 7/7/63 73/92/64
f 12/22/65 18/34/66 16/29/67 11/19/68
f 15/28/69 12/22/70 11/19/71 14/25/72
f 71/90/73 15/28/74 14/25/75 2/10/76
f 74/93/77 70/88/78 4/4/79 24/40/80
f 4/4/81 13/23/82 25/41/83 24/40/84
f 13/23/85 19/35/86 23/39/87 25/41/88
f 20/36/89 19/35/90 26/43/91 27/42/92
f 19/35/93 13/23/94 28/44/95 26/43/96
f 13/23/97 10/17/98 29/45/99 28/44/100
f 10/17/101 20/36/102 27/42/103 29/45/104
f 21/37/105 20/36/106 30/47/107 31/46/108
f 20/36/109 10/17/110 32/48/111 30/47/112
f 10/17/113 17/31/114 33/49/115 32/48/116
f 17/31/117 21/37/118 31/46/119 33/49/120
f 21/37/121 17/31/122 36/51/123 34/50/124
f 17/31/125 6/6/126 37/52/127 36/51/128
f 35/53/129 72/91/130 79/98/131
f 35/53/132 77/96/133 21/37/134 34/50/135
f 20/36/136 21/37/137 40/55/138 39/54/139
f 21/37/140 77/96/141 41/56/142 40/55/143
f 68/85/144 69/87/145 9/16/146 38/57/147
f 19/35/148 20/36/149 39/54/150 42/59/151
f 78/97/152 67/84/153 3/3/154
f 39/54/155 40/55/156 46/61/157 45/60/158
f 40/55/159 41/56/160 47/62/161 46/61/162
f 47/62/163 68/85/164 38/57/165 44/63/166
f 43/58/167 42/59/168 48/65/169 49/64/170
f 42/59/171 39/54/172 45/60/173 48/65/174
f 49/64/175 66/82/176 43/58/177
f 23/39/178 22/38/179 50/66/180 51/67/181
f 50/66/182 74/93/183 24/40/184 52/68/185
f 24/40/186 25/41/187 53/69/188 52/68/189
f 25/41/190 23/39/191 51/67/192 53/69/193
f 27/42/194 26/43/195 54/71/196 55/70/197
f 26/43/198 28/44/199 56/72/200 54/71/201
f 28/44/202 29/45/203 57/73/204 56/72/205
f 29/45/206 27/42/207 55/70/208 57/73/209
f 31/46/210 30/47/211 58/75/212 59/74/213
f 30/47/214 32/48/215 60/76/216 58/75/217
f 32/48/218 33/49/219 61/77/220 60/76/221
f 33/49/222 31/46/223 59/74/224 61/77/225
f 34/50/226 36/51/227 64/79/228 62/78/229
f 36/51/230 37/52/231 65/80/232 64/79/233
f 63/81/234 75/94/235 35/53/236
f 35/53/237 34/50/238 62/78/239 63/81/240
f 38/57/241 66/82/242 49/64/243 44/63/244
f 9/16/245 67/84/246 66/82/247 38/57/248
f 9/15/249 12/21/250 15/27/251 67/83/252
f 41/56/253 68/85/254 47/62/255
f 79/98/256 69/87/257 68/85/258 41/56/259
f 5/14/260 18/33/261 69/86/262
f 3/3/263 70/88/264 78/97/265
f 3/3/266 1/1/267 71/89/268 70/88/269
f 1/9/270 15/28/271 71/90/272
f 75/94/273 72/91/274 35/53/275
f 73/92/276 72/91/277 6/6/278 8/8/279
f 18/34/280 73/92/281 8/8/282 16/29/283
f 22/38/284 74/93/285 50/66/286
f 22/38/287 70/88/288 74/93/289
f 37/52/290 75/94/291 63/81/292 65/80/293
f 6/6/294 72/91/295 75/94/296 37/52/297
f 19/35/298 76/95/299 22/38/300 23/39/301
f 43/58/302 76/95/303 19/35/304 42/59/305
f 79/98/306 77/96/307 35/53/308
f 41/56/309 77/96/310 79/98/311
f 78/97/312 70/88/313 22/38/314
f 22/38/315 76/95/316 78/97/317
f 78/97/318 76/95/319 43/58/320
f 66/82/321 67/84/322 78/97/323 43/58/324
f 79/98/325 72/91/326 5/5/327
f 5/5/328 69/87/329 79/98/330
