# This file uses meters as units for non-parametric coordinates.

v 26.988403 39.258316 23.627930
v 28.144348 37.264843 -23.769394
v -27.564331 39.258316 22.275543
v -26.408447 37.264843 -25.121780
v -22.021301 41.481976 -25.013046
v -23.177246 42.554085 22.384277
v -23.177246 36.963600 22.384277
v -22.021301 34.970127 -25.013046
v 23.200195 41.481976 -23.891968
v 22.044189 42.554085 23.505356
v 22.044189 36.963600 23.505356
v 23.200195 34.970127 -23.891968
v -26.511902 41.481976 -20.946655
v -26.511902 34.970127 -20.946655
v -22.124817 34.970127 -20.837921
v 23.096619 34.970127 -19.716827
v 28.040894 34.970127 -19.594254
v 28.040894 41.481976 -19.594254
v 23.096619 41.481976 -19.716827
v -22.124817 41.481976 -20.837921
v -27.476440 42.554085 17.963562
v -27.476440 36.963600 17.963562
v -23.089417 36.963600 18.072266
v 22.132080 36.963600 19.193375
v 27.076233 36.963600 19.315948
v 27.076233 42.554085 19.315948
v 22.132080 42.554085 19.193375
v -23.089417 42.554085 18.072266
v 21.490784 0.000000 24.943619
v 21.578674 0.000000 20.631653
v 26.522827 0.000000 20.754227
v 26.434937 0.000000 25.066193
v -28.117737 0.000000 23.713806
v -28.029968 0.000000 19.401764
v -23.642822 0.000000 19.510574
v -23.730652 0.000000 23.822540
v -26.977051 1.130871 -23.066727
v -22.590027 1.130871 -22.957977
v -26.873596 1.130871 -27.241852
v -22.486511 1.130871 -27.133118
v 22.631470 1.130871 -21.836914
v 27.575623 1.130871 -21.714325
v 22.734924 1.130871 -26.012054
v 27.679138 1.130871 -25.889465
v -22.480469 64.392830 -30.491760
v -22.583984 64.392830 -26.316650
v -26.971130 64.392830 -26.425385
v -26.867615 66.500763 -30.600494
v 22.740967 64.392830 -29.370697
v 27.685120 66.500763 -29.248108
v 27.581665 64.392830 -25.072998
v 22.637390 64.392830 -25.195572
v 22.522644 68.972816 -29.759277
v 27.375305 68.204285 -25.357193
v 22.419006 68.300400 -25.480057
v -22.553406 68.729202 -30.876740
v -22.656982 68.056778 -26.597504
v -27.031921 67.960701 -26.705948
v 22.606079 90.517159 -30.219604
v 27.582092 93.193993 -30.187103
v 27.478577 93.193993 -26.011993
v 22.502625 90.517159 -26.044571
v -22.542603 90.575821 -31.338913
v -22.646179 90.575821 -27.163803
v -27.019653 93.237984 -27.362961
v -26.916077 93.237984 -31.538086
v 22.669617 95.870827 -30.399612
v 22.566101 95.870827 -26.224503
v -22.515503 95.900131 -31.519775
v -22.618958 95.900131 -27.344650
v -23.769836 70.327454 17.929810
v -28.144775 70.231354 17.821396
v 26.262451 70.474960 19.170166
v 21.306152 70.571053 19.047302
v 26.527222 66.496925 22.407196
v 26.609619 66.321716 18.182022
v 21.665466 66.321716 18.059448
v 21.583008 66.496925 22.284622
v -23.557800 66.273056 16.818497
v -23.636536 66.505569 21.119690
v -27.944824 66.273056 16.709763
v -28.023621 66.505569 21.010910
vt 0.133369 0.352945
vt 0.133369 0.352945
vt 0.133369 0.352945
vt 0.133369 0.352945
vt 0.133369 0.352945
vt 0.133369 0.352945
vt 0.133369 0.352945
vt 0.133369 0.352945
vt 0.133369 0.352945
vt 0.133369 0.352945
vt 0.133369 0.352945
vt 0.133369 0.352945
vt 0.133369 0.352945
vt 0.133369 0.352945
vt 0.133369 0.352945
vt 0.133369 0.352945
vt 0.133369 0.352945
vt 0.133369 0.352945
vt 0.133369 0.352945
vt 0.133369 0.352945
vt 0.133369 0.352945
vt 0.133369 0.352945
vt 0.133369 0.352945
vt 0.133369 0.352945
vt 0.133369 0.352945
vt 0.133369 0.352945
vt 0.133369 0.352945
vt 0.133369 0.352945
vt 0.133369 0.352945
vt 0.133369 0.352945
vt 0.133369 0.352945
vt 0.133369 0.352945
vt 0.133369 0.352945
vt 0.133369 0.352945
vt 0.133369 0.352945
vt 0.133369 0.352945
vt 0.133369 0.352945
vt 0.133369 0.352945
vt 0.133369 0.352945
vt 0.133369 0.352945
vt 0.133369 0.352945
vt 0.133369 0.352945
vt 0.133369 0.352945
vt 0.133369 0.352945
vt 0.133369 0.352945
vt 0.133369 0.352945
vt 0.133369 0.352945
vt 0.133369 0.352945
vt 0.133369 0.352945
vt 0.133369 0.352945
vt 0.133369 0.352945
vt 0.133369 0.352945
vt 0.133369 0.352945
vt 0.133369 0.352945
vt 0.133369 0.352945
vt 0.133369 0.352945
vt 0.102145 0.230594
vt 0.102145 0.230594
vt 0.102145 0.230594
vt 0.102145 0.230594
vt 0.133369 0.352945
vt 0.133369 0.352945
vt 0.133369 0.352945
vt 0.133369 0.352945
vt 0.133369 0.352945
vt 0.133369 0.352945
vt 0.133369 0.352945
vt 0.133369 0.352945
vt 0.133369 0.352945
vt 0.133369 0.352945
vt 0.133369 0.352945
vt 0.133369 0.352945
vt 0.133369 0.352945
vt 0.133369 0.352945
vt 0.133369 0.352945
vt 0.133369 0.352945
vt 0.133369 0.352945
vt 0.133369 0.352945
vt 0.133369 0.352945
vt 0.133369 0.352945
vt 0.133369 0.352945
vt 0.133369 0.352945
vt 0.133369 0.352945
vt 0.133369 0.352945
vt 0.133369 0.352945
vt 0.133369 0.352945
vt 0.133369 0.352945
vt 0.133369 0.352945
vt 0.133369 0.352945
vt 0.133369 0.352945
vt 0.133369 0.352945
vt 0.133369 0.352945
vt 0.133369 0.352945
vt 0.133369 0.352945
vt 0.133369 0.352945
vt 0.133369 0.352945
vt 0.133369 0.352945
vt 0.133369 0.352945
vt 0.133369 0.352945
vt 0.133369 0.352945
vt 0.133369 0.352945
vt 0.133369 0.352945
vt 0.133369 0.352945
vt 0.133369 0.352945
vt 0.133369 0.352945
vt 0.133369 0.352945
vt 0.133369 0.352945
vt 0.133369 0.352945
vt 0.133369 0.352945
vt 0.133369 0.352945
vt 0.133369 0.352945
vt 0.133369 0.352945
vt 0.133369 0.352945
vt 0.133369 0.352945
vt 0.133369 0.352945
vt 0.133369 0.352945
vt 0.133369 0.352945
vt 0.133369 0.352945
vt 0.133369 0.352945
vt 0.133369 0.352945
vt 0.133369 0.352945
vt 0.133369 0.352945
vt 0.133369 0.352945
vt 0.133369 0.352945
vt 0.133369 0.352945
vt 0.133369 0.352945
vt 0.133369 0.352945
vt 0.133369 0.352945
vt 0.133369 0.352945
vt 0.102145 0.230595
vt 0.102145 0.230595
vt 0.102145 0.230595
vt 0.102145 0.230595
vt 0.101999 0.230593
vt 0.101999 0.230595
vt 0.101999 0.230595
vt 0.101999 0.230593
vt 0.101999 0.230593
vt 0.101999 0.230593
vt 0.101999 0.230595
vt 0.101999 0.230595
vt 0.102288 0.231035
vt 0.102288 0.231035
vt 0.102288 0.231035
vt 0.102288 0.231035
vt 0.102288 0.231035
vt 0.102288 0.231035
vt 0.102288 0.231035
vt 0.102288 0.231035
vn 0.999793 0.000000 0.020365
vn 0.999793 0.000000 0.020365
vn 0.999793 0.000000 0.020365
vn -0.999792 0.000000 -0.020379
vn -0.999792 0.000000 -0.020379
vn -0.999792 0.000000 -0.020379
vn 0.000000 -1.000000 0.000000
vn 0.000000 -1.000000 0.000000
vn 0.000000 -1.000000 0.000000
vn 0.000000 -1.000000 0.000000
vn 0.024784 0.000000 -0.999693
vn 0.024784 0.000000 -0.999693
vn 0.024784 0.000000 -0.999693
vn -0.024785 0.000000 0.999693
vn -0.024785 0.000000 0.999693
vn -0.024785 0.000000 0.999693
vn -0.024778 0.000000 0.999693
vn -0.024778 0.000000 0.999693
vn -0.024778 0.000000 0.999693
vn 0.000000 -1.000000 0.000000
vn 0.000000 -1.000000 0.000000
vn 0.000000 -1.000000 0.000000
vn 0.000000 -1.000000 0.000000
vn 0.024777 0.000000 -0.999693
vn 0.024777 0.000000 -0.999693
vn 0.024777 0.000000 -0.999693
vn 0.000000 1.000000 0.000000
vn 0.000000 1.000000 0.000000
vn 0.000000 1.000000 0.000000
vn 0.000000 1.000000 0.000000
vn -0.024783 0.000000 0.999693
vn -0.024783 0.000000 0.999693
vn -0.024783 0.000000 0.999693
vn -0.024783 0.000000 0.999693
vn 0.000000 -1.000000 0.000001
vn 0.000000 -1.000000 0.000001
vn 0.000000 -1.000000 0.000001
vn 0.000000 -1.000000 0.000001
vn 0.024783 0.000000 -0.999693
vn 0.024783 0.000000 -0.999693
vn 0.024783 0.000000 -0.999693
vn 0.024783 0.000000 -0.999693
vn -0.999693 0.000000 -0.024771
vn -0.999693 0.000000 -0.024771
vn -0.999693 0.000000 -0.024771
vn 0.000000 -1.000000 -0.000000
vn 0.000000 -1.000000 -0.000000
vn 0.000000 -1.000000 -0.000000
vn 0.000000 -1.000000 -0.000000
vn 0.000000 -1.000000 -0.000001
vn 0.000000 -1.000000 -0.000001
vn 0.000000 -1.000000 -0.000001
vn 0.000000 -1.000000 -0.000001
vn 0.000000 -1.000000 -0.000000
vn 0.000000 -1.000000 -0.000000
vn 0.000000 -1.000000 -0.000000
vn 0.000000 -1.000000 -0.000000
vn 0.999693 0.000000 0.024771
vn 0.999693 0.000000 0.024771
vn 0.999693 0.000000 0.024771
vn -0.999693 0.000000 -0.024781
vn -0.999693 0.000000 -0.024781
vn -0.999693 0.000000 -0.024781
vn -0.999693 0.000000 -0.024781
vn -0.001267 -0.998691 0.051134
vn -0.001267 -0.998691 0.051134
vn -0.001267 -0.998691 0.051134
vn -0.001267 -0.998691 0.051134
vn -0.001268 -0.998691 0.051134
vn -0.001268 -0.998691 0.051134
vn -0.001268 -0.998691 0.051134
vn -0.001268 -0.998691 0.051134
vn -0.001268 -0.998691 0.051134
vn -0.001268 -0.998691 0.051134
vn -0.001268 -0.998691 0.051134
vn -0.001268 -0.998691 0.051134
vn 0.999693 0.000000 0.024784
vn 0.999693 0.000000 0.024784
vn 0.999693 0.000000 0.024784
vn 0.999693 0.000000 0.024784
vn 0.000682 0.999621 -0.027526
vn 0.000682 0.999621 -0.027526
vn 0.000682 0.999621 -0.027526
vn 0.000682 0.999621 -0.027526
vn 0.000682 0.999621 -0.027526
vn 0.000682 0.999621 -0.027526
vn 0.000682 0.999621 -0.027526
vn 0.000682 0.999621 -0.027526
vn 0.000682 0.999621 -0.027526
vn 0.000682 0.999621 -0.027526
vn 0.000682 0.999621 -0.027526
vn 0.000682 0.999621 -0.027526
vn -0.999692 0.014174 -0.020377
vn -0.999692 0.014174 -0.020377
vn -0.999692 0.014174 -0.020377
vn -0.999692 0.014174 -0.020377
vn 0.024765 -0.039240 -0.998923
vn 0.024765 -0.039240 -0.998923
vn 0.024765 -0.039240 -0.998923
vn 0.024765 -0.039240 -0.998923
vn 0.999620 -0.013611 0.023990
vn 0.999620 -0.013611 0.023990
vn 0.999620 -0.013611 0.023990
vn 0.999620 -0.013611 0.023990
vn -0.033619 0.038178 0.998705
vn -0.033619 0.038178 0.998705
vn -0.033619 0.038178 0.998705
vn -0.033619 0.038178 0.998705
vn -0.999620 0.013612 -0.023983
vn -0.999620 0.013612 -0.023983
vn -0.999620 0.013612 -0.023983
vn -0.999620 0.013612 -0.023983
vn 0.024763 -0.039239 -0.998923
vn 0.024763 -0.039239 -0.998923
vn 0.024763 -0.039239 -0.998923
vn 0.024763 -0.039239 -0.998923
vn 0.999692 -0.014175 0.020362
vn 0.999692 -0.014175 0.020362
vn 0.999692 -0.014175 0.020362
vn 0.999692 -0.014175 0.020362
vn -0.014847 0.037923 0.999170
vn -0.014847 0.037923 0.999170
vn -0.014847 0.037923 0.999170
vn -0.014847 0.037923 0.999170
vn -0.024731 -0.062171 0.997759
vn -0.024731 -0.062171 0.997759
vn -0.024731 -0.062171 0.997759
vn -0.024731 -0.062171 0.997759
vn -0.999678 0.014549 -0.020773
vn -0.999678 0.014549 -0.020773
vn -0.999678 0.014549 -0.020773
vn -0.999678 0.014549 -0.020773
vn 0.040386 0.059901 -0.997387
vn 0.040386 0.059901 -0.997387
vn 0.040386 0.059901 -0.997387
vn 0.040386 0.059901 -0.997387
vn 0.999576 -0.015295 0.024783
vn 0.999576 -0.015295 0.024783
vn 0.999576 -0.015295 0.024783
vn 0.999576 -0.015295 0.024783
vn -0.024737 -0.062171 0.997759
vn -0.024737 -0.062171 0.997759
vn -0.024737 -0.062171 0.997759
vn -0.024737 -0.062171 0.997759
vn -0.999576 0.015295 -0.024783
vn -0.999576 0.015295 -0.024783
vn -0.999576 0.015295 -0.024783
vn -0.999576 0.015295 -0.024783
vn 0.010744 0.060340 -0.998120
vn 0.010744 0.060340 -0.998120
vn 0.010744 0.060340 -0.998120
vn 0.010744 0.060340 -0.998120
vn 0.999678 -0.014553 0.020779
vn 0.999678 -0.014553 0.020779
vn 0.999678 -0.014553 0.020779
vn 0.999678 -0.014553 0.020779
vn -0.024107 0.232051 0.972405
vn -0.024107 0.232051 0.972405
vn -0.024107 0.232051 0.972405
vn -0.024107 0.232051 0.972405
vn 0.999579 0.021660 0.019297
vn 0.999579 0.021660 0.019297
vn 0.999579 0.021660 0.019297
vn 0.999579 0.021660 0.019297
vn -0.019667 -0.205928 -0.978369
vn -0.019667 -0.205928 -0.978369
vn -0.019667 -0.205928 -0.978369
vn -0.019667 -0.205928 -0.978369
vn -0.024101 0.232051 0.972405
vn -0.024101 0.232051 0.972405
vn -0.024101 0.232051 0.972405
vn -0.024101 0.232051 0.972405
vn 0.073199 -0.203850 -0.976262
vn 0.073199 -0.203850 -0.976262
vn 0.073199 -0.203850 -0.976262
vn 0.073199 -0.203850 -0.976262
vn -0.999579 -0.021661 -0.019304
vn -0.999579 -0.021661 -0.019304
vn -0.999579 -0.021661 -0.019304
vn -0.999579 -0.021661 -0.019304
vn -0.999201 -0.019757 -0.034749
vn -0.999201 -0.019757 -0.034749
vn -0.999201 -0.019757 -0.034749
vn -0.017943 -0.088716 -0.995895
vn -0.017943 -0.088716 -0.995895
vn -0.017943 -0.088716 -0.995895
vn 0.059448 -0.081576 -0.994893
vn 0.059448 -0.081576 -0.994893
vn 0.059448 -0.081576 -0.994893
vn 0.996856 0.057997 0.053983
vn 0.996856 0.057997 0.053983
vn 0.996856 0.057997 0.053983
vn 0.054108 -0.028932 -0.998116
vn 0.054108 -0.028932 -0.998116
vn 0.054108 -0.028932 -0.998116
vn 0.054108 -0.028932 -0.998116
vn 0.998705 0.001563 0.050847
vn 0.998705 0.001563 0.050847
vn 0.998705 0.001563 0.050847
vn 0.998705 0.001563 0.050847
vn -0.022372 0.025903 0.999414
vn -0.022372 0.025903 0.999414
vn -0.022372 0.025903 0.999414
vn -0.022372 0.025903 0.999414
vn -0.010305 -0.028806 -0.999532
vn -0.010305 -0.028806 -0.999532
vn -0.010305 -0.028806 -0.999532
vn -0.010305 -0.028806 -0.999532
vn -0.027630 0.025589 0.999291
vn -0.027630 0.025589 0.999291
vn -0.027630 0.025589 0.999291
vn -0.027630 0.025589 0.999291
vn -0.999458 -0.001703 -0.032870
vn -0.999458 -0.001703 -0.032870
vn -0.999458 -0.001703 -0.032870
vn -0.999458 -0.001703 -0.032870
vn 0.024756 -0.033887 -0.999119
vn 0.024756 -0.033887 -0.999119
vn 0.024756 -0.033887 -0.999119
vn -0.024763 0.033873 0.999119
vn -0.024763 0.033873 0.999119
vn -0.024763 0.033873 0.999119
vn -0.024763 0.034063 0.999113
vn -0.024763 0.034063 0.999113
vn -0.024763 0.034063 0.999113
vn 0.024764 -0.034065 -0.999113
vn 0.024764 -0.034065 -0.999113
vn 0.024764 -0.034065 -0.999113
vn -0.024914 0.073483 0.996985
vn -0.024914 0.073483 0.996985
vn -0.024914 0.073483 0.996985
vn -0.024914 0.073483 0.996985
vn 0.024923 -0.085598 -0.996018
vn 0.024923 -0.085598 -0.996018
vn 0.024923 -0.085598 -0.996018
vn 0.024923 -0.085598 -0.996018
vn -0.024735 0.033967 0.999117
vn -0.024735 0.033967 0.999117
vn -0.024735 0.033967 0.999117
vn -0.024735 0.033967 0.999117
vn 0.000648 1.000000 0.000016
vn 0.000648 1.000000 0.000016
vn 0.000648 1.000000 0.000016
vn 0.000648 1.000000 0.000016
vn 0.024736 -0.033976 -0.999116
vn 0.024736 -0.033976 -0.999116
vn 0.024736 -0.033976 -0.999117
vn 0.024736 -0.033976 -0.999117
vn -0.001079 -0.999052 0.043524
vn -0.001079 -0.999052 0.043524
vn -0.001079 -0.999052 0.043524
vn -0.001079 -0.999052 0.043524
vn 0.999159 0.034515 0.022149
vn 0.999159 0.034515 0.022149
vn 0.999159 0.034515 0.022149
vn 0.999159 0.034515 0.022149
vn -0.020655 0.998463 -0.051433
vn -0.020655 0.998463 -0.051433
vn -0.020655 0.998463 -0.051433
vn -0.020655 0.998463 -0.051433
vn -0.999235 -0.032160 -0.022261
vn -0.999235 -0.032160 -0.022261
vn -0.999235 -0.032160 -0.022261
vn -0.999235 -0.032160 -0.022261
vn -0.001104 -0.999008 0.044524
vn -0.001104 -0.999008 0.044524
vn -0.001104 -0.999008 0.044524
vn -0.001104 -0.999008 0.044524
vn 0.997508 0.067516 0.020462
vn 0.997508 0.067516 0.020462
vn 0.997508 0.067516 0.020462
vn 0.997508 0.067516 0.020462
vn 0.020611 0.998516 -0.050404
vn 0.020611 0.998516 -0.050404
vn 0.020611 0.998516 -0.050404
vn 0.020611 0.998516 -0.050404
vn -0.997416 -0.068882 -0.020393
vn -0.997416 -0.068882 -0.020393
vn -0.997416 -0.068882 -0.020393
vn -0.997416 -0.068882 -0.020393
vn 0.999446 0.019428 0.027030
vn 0.999446 0.019428 0.027030
vn 0.999446 0.019428 0.027030
vn 0.999446 0.019428 0.027030
vn 0.024757 -0.047155 -0.998581
vn 0.024757 -0.047155 -0.998581
vn 0.024757 -0.047155 -0.998581
vn 0.024757 -0.047155 -0.998581
vn -0.999601 -0.020402 -0.019527
vn -0.999601 -0.020402 -0.019527
vn -0.999601 -0.020402 -0.019527
vn -0.999601 -0.020402 -0.019527
vn -0.008936 0.047485 0.998832
vn -0.008936 0.047485 0.998832
vn -0.008936 0.047485 0.998832
vn -0.008936 0.047485 0.998832
vn 0.999615 0.020445 0.018779
vn 0.999615 0.020445 0.018779
vn 0.999615 0.020445 0.018779
vn 0.999615 0.020445 0.018779
vn 0.024740 -0.052283 -0.998326
vn 0.024740 -0.052283 -0.998326
vn 0.024740 -0.052283 -0.998326
vn 0.024740 -0.052283 -0.998326
vn -0.999465 -0.019490 -0.026274
vn -0.999465 -0.019490 -0.026274
vn -0.999465 -0.019490 -0.026274
vn -0.999465 -0.019490 -0.026274
vn -0.042965 0.048525 0.997897
vn -0.042965 0.048525 0.997898
vn -0.042965 0.048525 0.997898
vn -0.042965 0.048525 0.997898
vn 0.998727 0.047930 0.015691
vn 0.998727 0.047930 0.015691
vn 0.998727 0.047930 0.015691
vn -0.998816 -0.046014 -0.015811
vn -0.998816 -0.046014 -0.015811
vn -0.998816 -0.046014 -0.015811
vn 0.996706 0.079473 0.016142
vn 0.996706 0.079473 0.016142
vn 0.996706 0.079473 0.016142
vn -0.996622 -0.080528 -0.016111
vn -0.996622 -0.080528 -0.016111
vn -0.996622 -0.080528 -0.016111
vn 0.024821 -0.021303 -0.999465
vn 0.024821 -0.021303 -0.999465
vn 0.024821 -0.021303 -0.999465
vn 0.024821 -0.021303 -0.999465
vn -0.024826 0.025314 0.999371
vn -0.024826 0.025314 0.999371
vn -0.024826 0.025314 0.999371
vn -0.024826 0.025314 0.999371
vn 0.024107 -0.232050 -0.972405
vn 0.024107 -0.232050 -0.972405
vn 0.024107 -0.232050 -0.972405
vn 0.024107 -0.232050 -0.972405
vn -0.024107 0.232051 0.972405
vn -0.024107 0.232051 0.972405
vn -0.024107 0.232051 0.972405
vn -0.024107 0.232051 0.972405
vn 0.478051 0.878252 0.011853
vn 0.478051 0.878252 0.011853
vn 0.478051 0.878252 0.011853
vn 0.478051 0.878252 0.011853
vn -0.517523 0.855573 -0.012831
vn -0.517523 0.855573 -0.012831
vn -0.517523 0.855573 -0.012831
vn -0.517523 0.855573 -0.012831
vn -0.026008 0.644794 0.763914
vn -0.026008 0.644794 0.763914
vn -0.026008 0.644794 0.763914
vn -0.026008 0.644794 0.763914
vn -0.013253 0.626021 0.779693
vn -0.013253 0.626021 0.779693
vn -0.013253 0.626021 0.779693
vn -0.013253 0.626021 0.779693
s off
f 1/1/1 25/2/2 26/3/3
f 3/4/4 21/5/5 22/6/6
f 29/7/7 30/8/8 31/9/9 32/10/10
f 2/11/11 12/12/12 9/13/13
f 11/14/14 1/1/15 10/15/16
f 3/16/17 7/17/18 6/18/19
f 33/19/20 34/20/21 35/21/22 36/22/23
f 5/23/24 8/24/25 4/25/26
f 10/26/27 27/27/28 28/28/29 6/29/30
f 7/17/31 11/14/32 10/15/33 6/18/34
f 7/30/35 23/31/36 24/32/37 11/33/38
f 9/13/39 12/12/40 8/24/41 5/23/42
f 13/34/43 4/35/44 14/36/45
f 38/37/46 37/38/47 39/39/48 40/40/49
f 16/41/50 15/42/51 8/43/52 12/44/53
f 42/45/54 41/46/55 43/47/56 44/48/57
f 18/49/58 17/50/59 2/11/60
f 21/5/61 13/34/62 14/36/63 22/6/64
f 23/31/65 22/6/66 14/36/67 15/42/68
f 24/57/69 23/58/70 15/59/71 16/60/72
f 25/55/73 24/32/74 16/41/75 17/56/76
f 26/3/77 25/2/78 17/50/79 18/49/80
f 27/27/81 26/3/82 18/49/83 19/52/84
f 28/130/85 27/131/86 19/132/87 20/133/88
f 21/5/89 28/28/90 20/51/91 13/34/92
f 11/33/93 24/32/94 30/8/95 29/7/96
f 24/32/97 25/55/98 31/9/99 30/8/100
f 25/55/101 1/61/102 32/10/103 31/9/104
f 1/61/105 11/33/106 29/7/107 32/10/108
f 3/4/109 22/6/110 34/20/111 33/19/112
f 22/6/113 23/31/114 35/21/115 34/20/116
f 23/31/117 7/30/118 36/22/119 35/21/120
f 7/30/121 3/4/122 33/19/123 36/22/124
f 15/42/125 14/36/126 37/38/127 38/37/128
f 14/36/129 4/35/130 39/39/131 37/38/132
f 4/35/133 8/43/134 40/40/135 39/39/136
f 8/43/137 15/42/138 38/37/139 40/40/140
f 17/56/141 16/41/142 41/46/143 42/45/144
f 16/41/145 12/44/146 43/47/147 41/46/148
f 12/44/149 2/62/150 44/48/151 43/47/152
f 2/62/153 17/56/154 42/45/155 44/48/156
f 19/52/157 18/49/158 51/63/159 52/64/160
f 18/49/161 2/11/162 50/65/163 51/63/164
f 2/11/165 9/53/166 49/66/167 50/65/168
f 13/34/169 20/51/170 46/67/171 47/68/172
f 5/54/173 4/35/174 48/70/175 45/69/176
f 4/35/177 13/34/178 47/68/179 48/70/180
f 48/70/181 47/68/182 58/71/183
f 45/69/184 48/70/185 56/72/186
f 50/65/187 49/66/188 53/73/189
f 51/63/190 50/65/191 54/74/192
f 50/65/193 53/73/194 59/75/195 60/76/196
f 54/74/197 50/65/198 60/76/199 61/77/200
f 55/78/201 54/74/202 61/77/203 62/79/204
f 56/72/205 48/70/206 66/80/207 63/81/208
f 58/71/209 57/82/210 64/83/211 65/84/212
f 48/70/213 58/71/214 65/84/215 66/80/216
f 60/76/217 59/75/218 67/85/219
f 62/79/220 61/77/221 68/86/222
f 65/84/223 64/83/224 70/87/225
f 63/81/226 66/80/227 69/88/228
f 52/64/229 55/78/230 57/91/231 46/89/232
f 53/73/233 49/66/234 45/90/235 56/92/236
f 62/79/237 68/86/238 70/95/239 64/93/240
f 68/96/241 67/97/242 69/98/243 70/99/244
f 67/85/245 59/75/246 63/94/247 69/100/248
f 47/68/249 46/67/250 79/101/251 81/102/252
f 46/67/253 57/103/254 71/104/255 79/101/256
f 57/105/257 58/106/258 72/107/259 71/108/260
f 58/71/261 47/68/262 81/102/263 72/109/264
f 52/64/265 51/63/266 76/110/267 77/111/268
f 51/63/269 54/74/270 73/112/271 76/110/272
f 54/113/273 55/114/274 74/115/275 73/116/276
f 55/78/277 52/64/278 77/111/279 74/117/280
f 1/1/281 26/3/282 76/118/283 75/119/284
f 26/3/285 27/27/286 77/120/287 76/118/288
f 27/27/289 10/26/290 78/121/291 77/120/292
f 10/26/293 1/1/294 75/119/295 78/121/296
f 6/29/297 28/28/298 79/122/299 80/123/300
f 28/28/301 21/5/302 81/124/303 79/122/304
f 21/5/305 3/4/306 82/125/307 81/124/308
f 3/4/309 6/29/310 80/123/311 82/125/312
f 79/101/313 71/104/314 80/126/315
f 72/109/316 81/102/317 82/127/318
f 76/110/319 73/112/320 75/128/321
f 74/117/322 77/111/323 78/129/324
f 59/134/325 53/135/326 56/136/327 63/137/328
f 62/138/329 64/139/330 57/140/331 55/141/332
f 5/142/333 45/143/334 49/144/335 9/145/336
f 20/146/337 19/147/338 52/148/339 46/149/340
f 61/77/341 60/76/342 67/97/343 68/86/344
f 66/80/345 65/84/346 70/99/347 69/88/348
f 72/109/349 82/125/350 80/126/351 71/108/352
f 74/117/353 78/121/354 75/128/355 73/116/356
