# This file uses meters as units for non-parametric coordinates.

v -67.364296 11.779366 47.288101
v 67.364487 11.779366 47.288101
v -67.364296 11.779366 -47.288303
v 67.364487 11.779366 -47.288303
v -70.625725 11.779366 50.002724
v 70.625954 11.779366 50.002724
v -70.625725 11.779366 -50.002811
v 70.625954 11.779366 -50.002811
v -74.301178 14.277050 52.916336
v 74.301399 14.277050 52.916336
v -74.301178 14.277050 -52.916473
v 74.301399 14.277050 -52.916473
v -81.386620 14.277050 58.260128
v 81.386795 14.277050 58.260128
v -81.386620 14.277050 -58.260300
v 81.386795 14.277050 -58.260300
v -84.214432 0.000000 60.284447
v 84.214668 0.000000 60.284447
v -84.214432 0.000000 -60.284588
v 84.214668 0.000000 -60.284588
v -0.098585 11.779366 49.688431
v 1.705823 11.779366 47.288101
v 1.705823 11.779366 -47.288303
v 0.000090 11.779366 -50.002811
v 0.000090 0.000000 60.284447
v 0.000090 14.277050 58.260128
v 11.854407 14.277050 54.410713
v -1.902992 11.779366 46.659515
v -1.705643 11.779366 -47.288303
v -21.495274 14.277050 -55.044849
v 0.000090 14.277050 -58.260300
v 0.000090 0.000000 -60.284588
v -12.421304 11.779366 10.236480
v -5.240074 11.779366 10.236480
v -4.890741 11.779366 -10.618567
v -12.071970 11.779366 -10.618567
v 6.140584 11.779366 10.618394
v 6.140584 11.779366 -10.618567
v 13.321829 11.779366 10.618394
v 13.321829 11.779366 -10.618567
v 84.214668 0.000000 3.114279
v 79.308365 14.277050 24.439192
v 76.474632 14.277050 -5.690587
v 69.026596 11.779366 28.963072
v 65.765129 11.779366 28.822781
v 13.545074 11.779366 -5.121243
v 6.363828 11.779366 -5.121243
v 2.770606 11.779366 2.066437
v -0.744632 11.779366 1.735909
v -68.675087 11.779366 -0.742604
v -71.936516 11.779366 -0.602311
v -76.835907 14.277050 5.277806
v -80.266747 14.277050 -27.685925
v -84.214432 0.000000 -27.702995
vt 0.090327 0.301403
vt 0.090326 0.301403
vt 0.090326 0.301403
vt 0.090327 0.301403
vt 0.090327 0.279969
vt 0.090327 0.279969
vt 0.090327 0.279969
vt 0.090327 0.279969
vt 0.090327 0.279969
vt 0.090327 0.279969
vt 0.090327 0.279969
vt 0.090327 0.279969
vt 0.387148 0.420424
vt 0.387148 0.420424
vt 0.387148 0.420424
vt 0.387148 0.420424
vt 0.387148 0.420424
vt 0.387148 0.420424
vt 0.387148 0.420424
vt 0.387148 0.420424
vt 0.387148 0.420424
vt 0.387148 0.420424
vt 0.387148 0.420424
vt 0.387148 0.420424
vt 0.387148 0.420424
vt 0.387148 0.420424
vt 0.387148 0.420424
vt 0.387148 0.420424
vt 0.387148 0.420424
vt 0.387148 0.420424
vt 0.387148 0.420424
vt 0.387148 0.420424
vt 0.387148 0.420424
vt 0.387148 0.420424
vt 0.387148 0.420424
vt 0.387148 0.420424
vt 0.387148 0.420424
vt 0.387148 0.420424
vt 0.387148 0.420424
vt 0.387148 0.420424
vt 0.387148 0.420424
vt 0.387148 0.420424
vt 0.387148 0.420424
vt 0.387148 0.420424
vt 0.387148 0.420424
vt 0.387148 0.420424
vt 0.387148 0.420424
vt 0.387148 0.420424
vt 0.387148 0.420424
vt 0.387148 0.420424
vt 0.387148 0.420424
vt 0.387148 0.420424
vt 0.387148 0.420424
vt 0.387148 0.420424
vt 0.387148 0.420424
vt 0.387148 0.420424
vt 0.387148 0.420424
vt 0.387148 0.420424
vt 0.387148 0.420424
vt 0.387148 0.420424
vt 0.090327 0.279969
vt 0.387148 0.420424
vt 0.090326 0.301403
vt 0.090327 0.279969
vt 0.090327 0.279969
vt 0.090326 0.301403
vt 0.387148 0.420424
vt 0.090327 0.279969
vt 0.387148 0.420424
vt 0.387148 0.420424
vt 0.387148 0.420424
vt 0.387148 0.420424
vt 0.387148 0.420424
vt 0.090327 0.301403
vt 0.090327 0.279969
vt 0.090327 0.279969
vt 0.090327 0.301403
vt 0.387148 0.420424
vt 0.387148 0.420424
vt 0.387148 0.420424
vt 0.387148 0.420424
vt 0.387148 0.420424
vt 0.090327 0.301403
vt 0.090327 0.301403
vt 0.090327 0.301403
vt 0.090327 0.301403
vt 0.090326 0.301403
vt 0.090326 0.301403
vt 0.090326 0.301403
vt 0.090326 0.301403
vt 0.089475 0.277199
vt 0.089475 0.277199
vt 0.089475 0.277199
vt 0.089475 0.277199
vt 0.090005 0.257044
vt 0.090005 0.257044
vt 0.090005 0.257044
vt 0.090005 0.257044
vt 0.090005 0.257044
vt 0.090005 0.257044
vt 0.090005 0.257044
vt 0.090005 0.257044
vt 0.387148 0.420424
vt 0.387148 0.420424
vt 0.387148 0.420424
vt 0.387148 0.420424
vt 0.387148 0.420424
vt 0.090327 0.279969
vt 0.387148 0.420424
vt 0.090326 0.301403
vt 0.090327 0.279969
vt 0.090005 0.257044
vt 0.090326 0.301403
vt 0.090326 0.301403
vt 0.090005 0.257044
vt 0.089475 0.277199
vt 0.090326 0.301403
vt 0.090327 0.301403
vt 0.089475 0.277199
vt 0.090327 0.279969
vt 0.090327 0.301403
vt 0.387148 0.420424
vt 0.090327 0.279969
vt 0.387148 0.420424
vt 0.387148 0.420424
vt 0.387148 0.420424
vt 0.387148 0.420424
vt 0.387148 0.420424
vn 0.000000 1.000000 0.000000
vn 0.000000 1.000000 -0.000000
vn 0.000000 1.000000 0.000000
vn 0.000000 1.000000 -0.000000
vn 0.000000 1.000000 -0.000000
vn 0.000000 1.000000 0.000000
vn 0.000000 1.000000 -0.000000
vn 0.000000 1.000000 0.000000
vn 0.000000 1.000000 0.000000
vn 0.000000 1.000000 -0.000000
vn 0.000000 1.000000 0.000000
vn 0.000000 1.000000 0.000000
vn 0.000000 1.000000 0.000000
vn 0.000000 1.000000 -0.000000
vn 0.000000 1.000000 -0.000000
vn 0.000000 1.000000 -0.000000
vn 0.003100 0.835537 -0.549425
vn 0.004147 0.834763 -0.550594
vn 0.004147 0.834763 -0.550594
vn -0.003470 0.840337 -0.542053
vn 0.488566 0.872318 -0.019124
vn 0.503522 0.863931 0.009446
vn 0.493365 0.869764 -0.010070
vn 0.488566 0.872317 -0.019124
vn -0.415502 0.909589 -0.002496
vn -0.416785 0.909000 -0.003003
vn -0.416785 0.909000 -0.003003
vn -0.404967 0.914330 0.001653
vn 0.008821 0.859193 0.511576
vn -0.005914 0.841104 0.540842
vn 0.007319 0.857403 0.514594
vn 0.008821 0.859193 0.511576
vn 0.000000 1.000000 -0.000000
vn 0.000000 1.000000 -0.000000
vn 0.000000 1.000000 -0.000000
vn 0.000000 1.000000 -0.000000
vn 0.000000 1.000000 0.000000
vn 0.000000 1.000000 0.000000
vn 0.000000 1.000000 -0.000000
vn 0.000000 1.000000 0.000000
vn 0.000000 1.000000 0.000000
vn 0.000000 1.000000 -0.000000
vn 0.000000 1.000000 -0.000000
vn 0.000000 1.000000 -0.000000
vn 0.000000 1.000000 -0.000000
vn 0.000000 1.000000 -0.000000
vn 0.000000 1.000000 -0.000000
vn 0.000000 1.000000 -0.000000
vn 0.000000 0.140384 0.990097
vn 0.000000 0.140384 0.990097
vn 0.000000 0.140384 0.990097
vn 0.000000 0.140384 0.990097
vn -0.973063 0.230454 -0.006265
vn -0.973129 0.230259 -0.000025
vn -0.973130 0.230258 0.000007
vn -0.973063 0.230454 -0.006265
vn 0.963219 0.268451 -0.011981
vn 0.961143 0.275176 -0.021955
vn 0.961143 0.275176 -0.021955
vn 0.967121 0.254157 0.009031
vn 0.000000 0.140382 -0.990097
vn 0.000000 0.140382 -0.990097
vn 0.000000 0.140382 -0.990097
vn 0.000000 0.140382 -0.990097
vn 0.000000 0.140384 0.990097
vn 0.000000 0.140384 0.990097
vn 0.000000 0.140384 0.990097
vn 0.000000 0.140384 0.990097
vn 0.000000 1.000000 -0.000000
vn 0.000000 1.000000 -0.000000
vn 0.000000 1.000000 -0.000000
vn 0.000000 1.000000 -0.000000
vn -0.004790 0.841290 -0.540564
vn 0.003100 0.835537 -0.549425
vn -0.003470 0.840337 -0.542053
vn -0.004790 0.841289 -0.540564
vn 0.000000 1.000000 -0.000000
vn 0.000000 1.000000 -0.000000
vn 0.000000 1.000000 -0.000000
vn 0.000000 1.000000 -0.000000
vn 0.000000 1.000000 0.000000
vn 0.000000 1.000000 0.000000
vn 0.000000 1.000000 0.000000
vn 0.000000 1.000000 0.000000
vn 0.000000 1.000000 -0.000000
vn 0.000000 1.000000 0.000000
vn 0.000000 1.000000 0.000000
vn 0.000000 1.000000 0.000000
vn 0.007319 0.857403 0.514594
vn -0.005914 0.841104 0.540842
vn -0.006943 0.839796 0.542857
vn -0.006943 0.839796 0.542857
vn 0.000000 1.000000 -0.000000
vn 0.000000 1.000000 -0.000000
vn 0.000000 1.000000 -0.000000
vn 0.000000 1.000000 -0.000000
vn 0.000000 0.140382 -0.990097
vn 0.000000 0.140382 -0.990097
vn 0.000000 0.140382 -0.990097
vn 0.000000 0.140382 -0.990097
vn 0.000000 1.000000 -0.000000
vn 0.000000 1.000000 0.000000
vn 0.000000 1.000000 -0.000000
vn 0.000000 1.000000 -0.000000
vn 0.000000 1.000000 0.000000
vn 0.000000 1.000000 -0.000000
vn 0.000000 1.000000 -0.000000
vn 0.000000 1.000000 -0.000000
vn 0.000000 1.000000 -0.000000
vn 0.000000 1.000000 0.000000
vn 0.000000 1.000000 -0.000000
vn 0.000000 1.000000 0.000000
vn 0.000000 1.000000 0.000000
vn 0.000000 1.000000 0.000000
vn 0.000000 1.000000 0.000000
vn 0.000000 1.000000 -0.000000
vn 0.000000 1.000000 0.000000
vn 0.000000 1.000000 -0.000000
vn 0.000000 1.000000 0.000000
vn 0.000000 1.000000 0.000000
vn 0.000000 1.000000 0.000000
vn 0.000000 1.000000 0.000000
vn 0.000000 1.000000 -0.000000
vn 0.000000 1.000000 0.000000
vn 0.000000 1.000000 -0.000000
vn 0.000000 1.000000 -0.000000
vn 0.000000 1.000000 0.000000
vn 0.000000 1.000000 0.000000
vn 0.000000 1.000000 -0.000000
vn 0.000000 1.000000 -0.000000
vn 0.000000 1.000000 0.000000
vn 0.000000 1.000000 0.000000
vn 0.000000 1.000000 -0.000000
vn 0.000000 1.000000 0.000000
vn 0.000000 1.000000 0.000000
vn 0.000000 1.000000 0.000000
vn 0.000000 1.000000 0.000000
vn 0.000000 1.000000 0.000000
vn 0.000000 1.000000 0.000000
vn 0.000000 1.000000 0.000000
vn 0.967913 0.250909 0.013770
vn 0.963219 0.268451 -0.011981
vn 0.967121 0.254157 0.009031
vn 0.967913 0.250909 0.013770
vn 0.000000 1.000000 0.000000
vn 0.000000 1.000000 0.000000
vn 0.000000 1.000000 -0.000000
vn 0.000000 1.000000 0.000000
vn -0.404492 0.914540 0.001839
vn -0.415502 0.909589 -0.002496
vn -0.404967 0.914330 0.001653
vn -0.404492 0.914540 0.001839
vn 0.000000 1.000000 0.000000
vn 0.000000 1.000000 0.000000
vn 0.000000 1.000000 0.000000
vn 0.000000 1.000000 0.000000
vn 0.000000 1.000000 0.000000
vn 0.000000 1.000000 0.000000
vn 0.000000 1.000000 0.000000
vn 0.000000 1.000000 0.000000
vn 0.000000 1.000000 0.000000
vn 0.000000 1.000000 0.000000
vn 0.000000 1.000000 0.000000
vn 0.000000 1.000000 0.000000
vn 0.000000 1.000000 0.000000
vn 0.000000 1.000000 -0.000000
vn 0.000000 1.000000 0.000000
vn 0.000000 1.000000 0.000000
vn 0.000000 1.000000 -0.000000
vn 0.000000 1.000000 -0.000000
vn 0.000000 1.000000 -0.000000
vn 0.000000 1.000000 0.000000
vn 0.000000 1.000000 0.000000
vn 0.000000 1.000000 -0.000000
vn 0.000000 1.000000 -0.000000
vn 0.000000 1.000000 0.000000
vn 0.000000 1.000000 0.000000
vn 0.000000 1.000000 0.000000
vn 0.000000 1.000000 0.000000
vn 0.000000 1.000000 0.000000
vn 0.000000 1.000000 0.000000
vn 0.000000 1.000000 0.000000
vn 0.000000 1.000000 0.000000
vn 0.000000 1.000000 0.000000
vn 0.000000 1.000000 -0.000000
vn 0.000000 1.000000 0.000000
vn 0.000000 1.000000 0.000000
vn 0.000000 1.000000 -0.000000
vn 0.493365 0.869764 -0.010070
vn 0.503522 0.863931 0.009446
vn 0.507972 0.861182 0.018155
vn 0.507972 0.861182 0.018155
vn 0.000000 1.000000 -0.000000
vn 0.000000 1.000000 0.000000
vn 0.000000 1.000000 -0.000000
vn 0.000000 1.000000 -0.000000
vn -0.973130 0.230258 0.000007
vn -0.973129 0.230259 -0.000025
vn -0.973115 0.229673 0.017255
vn -0.973115 0.229673 0.017255
s off
f 28/75/1 1/6/2 5/7/3 21/61/4
f 1/6/5 50/120/6 51/123/7 5/7/8
f 45/111/9 2/5/10 6/8/11 44/108/12
f 3/9/13 29/76/14 24/68/15 7/10/16
f 21/62/17 5/22/18 9/23/19 27/72/20
f 5/25/21 51/122/22 52/125/23 9/28/24
f 44/109/25 6/30/26 10/31/27 43/106/28
f 7/33/29 24/67/30 30/79/31 11/36/32
f 27/73/33 9/38/34 13/39/35 26/70/36
f 9/41/37 52/124/38 53/127/39 13/44/40
f 43/107/41 10/46/42 14/47/43 42/104/44
f 11/49/45 30/78/46 31/81/47 15/52/48
f 26/71/49 13/54/50 17/55/51 25/69/52
f 13/57/53 53/126/54 54/128/55 17/60/56
f 42/105/57 14/19/58 18/18/59 41/103/60
f 15/16/61 31/80/62 32/82/63 19/13/64
f 14/53/65 26/71/66 25/69/67 18/56/68
f 10/37/69 27/73/70 26/70/71 14/40/72
f 6/21/73 21/62/74 27/72/75 10/24/76
f 2/5/77 22/64/78 21/61/79 6/8/80
f 47/115/81 37/100/82 39/101/83 46/112/84
f 24/68/85 23/65/86 4/11/87 8/12/88
f 30/79/89 24/67/90 8/34/91 12/35/92
f 31/81/93 30/78/94 12/50/95 16/51/96
f 32/82/97 31/80/98 16/15/99 20/14/100
f 22/64/101 28/75/102 21/61/103
f 49/119/104 28/92/105 22/93/106 48/116/107
f 24/68/108 29/76/109 23/65/110
f 1/1/111 28/74/112 34/84/113 33/83/114
f 28/74/115 49/118/116 34/84/117
f 29/77/118 3/4/119 36/86/120 35/85/121
f 50/121/122 1/1/123 33/83/124
f 48/117/125 22/63/126 37/88/127 47/114/128
f 22/63/129 2/2/130 39/89/131 37/88/132
f 2/2/133 45/110/134 46/113/135 39/89/136
f 4/3/137 23/66/138 38/87/139 40/90/140
f 16/20/141 42/105/142 41/103/143 20/17/144
f 12/45/145 43/107/146 42/104/147 16/48/148
f 8/29/149 44/109/150 43/106/151 12/32/152
f 4/11/153 45/111/154 44/108/155 8/12/156
f 46/113/157 45/110/158 4/3/159 40/90/160
f 38/99/161 47/115/162 46/112/163 40/102/164
f 23/66/165 48/117/166 47/114/167 38/87/168
f 29/91/169 49/119/170 48/116/171 23/94/172
f 34/84/173 49/118/174 29/77/175 35/85/176
f 33/95/177 34/96/178 35/97/179 36/98/180
f 3/4/181 50/121/182 33/83/183 36/86/184
f 51/123/185 50/120/186 3/9/187 7/10/188
f 52/125/189 51/122/190 7/26/191 11/27/192
f 53/127/193 52/124/194 11/42/195 15/43/196
f 54/128/197 53/126/198 15/58/199 19/59/200
