# This file uses meters as units for non-parametric coordinates.

v -54.655151 65.131996 -24.212646
v -54.655151 65.131996 26.605835
v -54.655151 70.764435 -24.212646
v -54.655151 70.764435 26.605835
v 54.655396 70.764435 -24.212646
v 54.655396 70.764435 26.605835
v 54.655396 65.131996 -24.212646
v 54.655396 65.131996 26.605835
v -54.905273 0.000000 -31.440308
v -54.905273 0.000000 31.440063
v -54.905273 13.920377 -31.440308
v -54.905273 13.920377 31.440063
v 54.906128 13.920377 -31.440308
v 54.906128 13.920377 31.440063
v 54.906128 0.000000 -31.440308
v 54.906128 0.000000 31.440063
v -59.983032 13.920377 -34.347412
v -59.983032 13.920377 34.347412
v 59.982910 13.920377 34.347412
v 59.982910 13.920377 -34.347534
v -59.983032 205.018646 -34.347412
v -59.983032 205.018646 34.347412
v 59.982910 205.018646 30.652710
v 59.982910 205.018646 -34.347534
v -54.655151 19.582430 34.347412
v 54.655396 19.582430 34.347412
v 54.655396 199.356613 34.347412
v -54.655151 199.356613 34.347412
v -54.655151 19.582430 -24.212646
v 54.655396 19.582430 -24.212646
v 54.655396 199.356613 -24.212646
v -54.655151 199.356613 -24.212646
v 54.047974 205.018646 34.347412
v 57.126709 202.146759 34.347412
v 59.982910 198.128220 34.347412
v 7.330811 205.018646 34.347412
v 40.333740 205.018646 34.347412
v 27.409302 205.018646 33.236816
v 26.854126 202.270401 34.347412
v -48.226929 199.356613 34.347534
v -12.221924 199.356613 34.347412
v -23.898682 201.255112 34.347412
v -24.444702 199.356613 32.547485
v 59.982910 52.044582 34.347412
v 59.982910 109.356064 34.347412
v 57.735840 90.218391 34.347412
v 59.982910 98.277908 23.661865
v 59.982910 74.111481 24.283569
v -59.983032 33.412941 -34.347412
v -59.983032 95.639938 -34.347412
v -56.584106 56.138065 -34.347412
v -59.983032 56.291260 -29.479248
vt 0.039402 0.330198
vt 0.039402 0.330198
vt 0.039402 0.330198
vt 0.039402 0.330198
vt 0.039402 0.330198
vt 0.039402 0.330198
vt 0.039402 0.330198
vt 0.039402 0.330198
vt 0.039402 0.330198
vt 0.039402 0.330198
vt 0.039402 0.330198
vt 0.039402 0.330198
vt 0.039402 0.330198
vt 0.039402 0.330198
vt 0.039402 0.330198
vt 0.039402 0.330198
vt 0.039402 0.330198
vt 0.039402 0.330198
vt 0.039402 0.330198
vt 0.039402 0.330198
vt 0.039402 0.330198
vt 0.039402 0.330198
vt 0.039402 0.330198
vt 0.039402 0.330198
vt 0.039402 0.330198
vt 0.039402 0.330198
vt 0.039402 0.330198
vt 0.039402 0.330198
vt 0.039402 0.330198
vt 0.039402 0.330198
vt 0.039402 0.330198
vt 0.039402 0.330198
vt 0.039402 0.330198
vt 0.039402 0.330198
vt 0.039402 0.330198
vt 0.039402 0.330198
vt 0.039402 0.330198
vt 0.039402 0.330198
vt 0.039402 0.330198
vt 0.039402 0.330198
vt 0.039402 0.330198
vt 0.039402 0.330198
vt 0.039402 0.330198
vt 0.039402 0.330198
vt 0.039402 0.330198
vt 0.039402 0.330198
vt 0.039402 0.330198
vt 0.039402 0.330198
vt 0.039402 0.330198
vt 0.039402 0.330198
vt 0.039402 0.330198
vt 0.039402 0.330198
vt 0.039402 0.330198
vt 0.039402 0.330198
vt 0.039402 0.330198
vt 0.039402 0.330198
vt 0.039402 0.330198
vt 0.039402 0.330198
vt 0.039402 0.330198
vt 0.039402 0.330198
vt 0.039402 0.330198
vn 0.000000 1.000000 0.000000
vn 0.000000 1.000000 0.000000
vn 0.000000 1.000000 0.000000
vn 0.000000 1.000000 0.000000
vn 0.000000 -1.000000 0.000000
vn 0.000000 -1.000000 0.000000
vn 0.000000 -1.000000 0.000000
vn 0.000000 -1.000000 0.000000
vn 0.000000 0.000000 1.000000
vn 0.000000 0.000000 1.000000
vn 0.000000 0.000000 1.000000
vn 0.000000 0.000000 1.000000
vn -1.000000 0.000000 0.000000
vn -1.000000 0.000000 0.000000
vn -1.000000 0.000000 0.000000
vn -1.000000 0.000000 0.000000
vn 1.000000 0.000000 0.000000
vn 1.000000 0.000000 0.000000
vn 1.000000 0.000000 0.000000
vn 1.000000 0.000000 0.000000
vn 0.000000 -1.000000 0.000000
vn 0.000000 -1.000000 0.000000
vn 0.000000 -1.000000 0.000000
vn 0.000000 -1.000000 0.000000
vn 0.000000 0.000000 1.000000
vn 0.000000 0.000000 1.000000
vn 0.000000 0.000000 1.000000
vn 0.000000 0.000000 1.000000
vn 0.000000 0.000000 -1.000000
vn 0.000000 0.000000 -1.000000
vn 0.000000 0.000000 -1.000000
vn 0.000000 0.000000 -1.000000
vn 0.000000 -1.000000 0.000000
vn 0.000000 -1.000000 0.000000
vn 0.000000 -1.000000 0.000000
vn 0.000000 -1.000000 0.000000
vn 0.000000 -1.000000 -0.000000
vn 0.000000 -1.000000 -0.000000
vn 0.000000 -1.000000 -0.000000
vn 0.000000 -1.000000 -0.000000
vn 0.000000 -1.000000 0.000000
vn 0.000000 -1.000000 0.000000
vn 0.000000 -1.000000 0.000000
vn 0.000000 -1.000000 0.000000
vn 0.000000 -1.000000 0.000000
vn 0.000000 -1.000000 0.000000
vn 0.000000 -1.000000 0.000000
vn 0.000000 -1.000000 0.000000
vn -1.000000 0.000000 0.000000
vn -1.000000 0.000000 0.000000
vn -1.000000 0.000000 0.000000
vn -1.000000 0.000000 0.000000
vn 0.000000 0.000000 1.000000
vn 0.000000 0.000000 1.000000
vn 0.000000 0.000000 1.000000
vn 0.000000 0.000000 1.000000
vn -0.000001 -0.000000 -1.000000
vn -0.000001 -0.000000 -1.000000
vn -0.000001 -0.000000 -1.000000
vn -0.000001 -0.000000 -1.000000
vn 0.000000 0.000000 1.000000
vn 0.000000 0.000000 1.000000
vn 0.000000 0.000000 1.000000
vn 0.000000 0.000000 1.000000
vn 0.553664 0.393520 0.733893
vn 0.553664 0.393520 0.733893
vn 0.553663 0.393520 0.733893
vn 0.459821 0.492939 0.738631
vn 0.459821 0.492939 0.738631
vn 0.459821 0.492939 0.738631
vn -0.000000 0.000000 1.000000
vn -0.000000 0.000000 1.000000
vn -0.000000 0.000000 1.000000
vn -0.000000 0.000000 1.000000
vn 0.000000 1.000000 0.000000
vn 0.000000 1.000000 0.000000
vn 0.000000 1.000000 0.000000
vn 0.000000 1.000000 0.000000
vn -1.000000 0.000000 0.000000
vn -1.000000 0.000000 0.000000
vn -1.000000 0.000000 0.000000
vn -1.000000 0.000000 0.000000
vn 0.000000 -1.000000 -0.000000
vn 0.000000 -1.000000 -0.000000
vn 0.000000 -1.000000 -0.000000
vn 0.000000 -1.000000 -0.000000
vn 1.000000 0.000000 0.000000
vn 1.000000 0.000000 0.000000
vn 1.000000 0.000000 0.000000
vn 1.000000 0.000000 0.000000
vn 0.000000 1.000000 0.000000
vn 0.000000 1.000000 0.000000
vn 0.000000 1.000000 0.000000
vn 0.000000 1.000000 0.000000
vn 0.000000 0.000000 1.000000
vn 0.000000 0.000000 1.000000
vn 0.000000 0.000000 1.000000
vn 0.000000 0.000000 1.000000
vn -0.000002 0.000000 1.000000
vn -0.000002 0.000000 1.000000
vn -0.000002 0.000000 1.000000
vn 1.000000 0.000000 0.000000
vn 1.000000 0.000000 0.000000
vn 1.000000 0.000000 0.000000
vn 1.000000 0.000000 0.000000
vn 0.051414 0.365238 0.929493
vn 0.051414 0.365238 0.929493
vn 0.051414 0.365239 0.929493
vn -0.078937 0.387171 0.918622
vn -0.078937 0.387171 0.918622
vn -0.078937 0.387171 0.918622
vn 0.054253 -0.695177 0.716788
vn 0.054253 -0.695177 0.716788
vn 0.054253 -0.695177 0.716788
vn -0.108501 -0.667341 0.736807
vn -0.108501 -0.667341 0.736807
vn -0.108501 -0.667341 0.736807
vn -0.000001 0.000019 1.000000
vn -0.000001 0.000019 1.000000
vn -0.000001 0.000019 1.000000
vn -0.000001 0.000019 1.000000
vn 0.000000 0.000000 1.000000
vn 0.000000 0.000000 1.000000
vn 0.000000 0.000000 1.000000
vn 0.000000 0.000000 1.000000
vn 0.000000 0.000000 1.000000
vn 0.000000 0.000000 1.000000
vn 0.000000 0.000000 1.000000
vn 0.000000 0.000000 1.000000
vn 0.000000 0.000000 1.000000
vn 0.000000 1.000000 0.000000
vn 0.000000 1.000000 0.000000
vn 0.000000 1.000000 0.000000
vn 0.000000 1.000000 0.000000
vn 0.000000 1.000000 0.000000
vn 0.000000 1.000000 0.000000
vn 0.000000 1.000000 0.000000
vn 0.000000 1.000000 0.000000
vn 0.000000 -1.000000 -0.000000
vn 0.000000 -1.000000 -0.000000
vn 0.000000 -1.000000 -0.000000
vn 0.000000 -1.000000 -0.000000
vn 0.000000 -1.000000 0.000000
vn 0.000000 -1.000000 0.000000
vn 0.000000 -1.000000 0.000000
vn 0.985997 -0.115772 0.120026
vn 0.985997 -0.115772 0.120026
vn 0.985997 -0.115772 0.120026
vn 1.000000 -0.000000 0.000000
vn 1.000000 -0.000000 0.000000
vn 1.000000 -0.000000 0.000000
vn 1.000000 -0.000000 0.000000
vn 1.000000 -0.000000 0.000000
vn 1.000000 0.000000 0.000000
vn 1.000000 0.000000 0.000000
vn 1.000000 0.000000 0.000000
vn 1.000000 0.000000 0.000000
vn 0.000001 0.000000 1.000000
vn 0.000001 0.000000 1.000000
vn 0.000001 0.000000 1.000000
vn 0.000001 0.000000 1.000000
vn 0.000000 0.000000 1.000000
vn 0.000000 0.000000 1.000000
vn 0.000000 0.000000 1.000000
vn 0.000000 0.000000 1.000000
vn 0.000000 0.000000 1.000000
vn 0.990087 0.058281 0.127792
vn 0.990087 0.058281 0.127792
vn 0.990087 0.058281 0.127792
vn 0.977755 0.005395 0.209681
vn 0.977755 0.005395 0.209681
vn 0.977755 0.005395 0.209681
vn -0.812058 0.121457 -0.570797
vn -0.812058 0.121457 -0.570797
vn -0.812058 0.121457 -0.570797
vn -0.818928 -0.070464 -0.569553
vn -0.818928 -0.070464 -0.569553
vn -0.818928 -0.070464 -0.569553
vn -1.000000 -0.000000 0.000000
vn -1.000000 -0.000000 0.000000
vn -1.000000 -0.000000 0.000000
vn -1.000000 -0.000000 0.000000
vn -1.000000 0.000000 0.000000
vn -1.000000 0.000000 0.000000
vn -1.000000 0.000000 0.000000
vn -0.000001 0.000000 -1.000000
vn -0.000001 0.000000 -1.000000
vn -0.000001 0.000000 -1.000000
vn -0.000001 0.000000 -1.000000
vn -0.000001 0.000000 -1.000000
vn -0.000001 0.000000 -1.000000
vn -0.000001 0.000000 -1.000000
s off
f 3/1/1 4/2/2 6/3/3 5/4/4
f 7/5/5 8/6/6 2/7/7 1/8/8
f 2/9/9 8/10/10 6/11/11 4/2/12
f 9/12/13 10/13/14 12/14/15 11/15/16
f 13/16/17 14/17/18 16/18/19 15/19/20
f 15/19/21 16/18/22 10/20/23 9/21/24
f 10/13/25 16/22/26 14/23/27 12/14/28
f 15/24/29 9/12/30 11/15/31 13/25/32
f 11/15/33 12/14/34 18/26/35 17/27/36
f 12/14/37 14/17/38 19/28/39 18/26/40
f 14/17/41 13/16/42 20/29/43 19/28/44
f 13/16/45 11/15/46 17/27/47 20/29/48
f 17/27/49 18/26/50 52/30/51 49/31/52
f 29/32/53 30/33/54 31/34/55 32/35/56
f 24/36/57 51/37/58 50/38/59 21/39/60
f 18/26/61 19/28/62 26/40/63 25/41/64
f 34/42/65 35/43/66 23/44/67
f 23/44/68 33/45/69 34/42/70
f 22/46/71 18/26/72 25/41/73 28/47/74
f 25/41/75 26/40/76 30/33/77 29/32/78
f 26/40/79 27/48/80 31/34/81 30/33/82
f 32/35/83 43/49/84 40/50/85 28/47/86
f 28/47/87 25/41/88 29/32/89 32/35/90
f 23/44/91 38/51/92 37/52/93 33/45/94
f 42/53/95 39/54/96 36/55/97 22/46/98
f 26/40/99 46/56/100 27/48/101
f 48/57/102 20/29/103 24/36/104 47/58/105
f 36/55/106 39/54/107 38/51/108
f 38/51/109 39/54/110 37/52/111
f 40/50/112 43/49/113 42/53/114
f 42/53/115 43/49/116 41/59/117
f 42/53/118 22/46/119 28/47/120 40/50/121
f 34/42/122 33/45/123 37/52/124 39/54/125
f 34/42/126 39/54/127 42/53/128 41/59/129 27/48/130
f 38/51/131 21/39/132 22/46/133 36/55/134
f 24/36/135 21/39/136 38/51/137 23/44/138
f 27/48/139 41/59/140 43/49/141 31/34/142
f 31/34/143 43/49/144 32/35/145
f 46/56/146 47/58/147 45/60/148
f 47/58/149 24/36/150 23/44/151 35/43/152 45/60/153
f 19/28/154 20/29/155 48/57/156 44/61/157
f 19/28/158 44/61/159 46/56/160 26/40/161
f 27/48/162 46/56/163 45/60/164 35/43/165 34/42/166
f 44/61/167 48/57/168 46/56/169
f 46/56/170 48/57/171 47/58/172
f 52/30/173 51/37/174 49/31/175
f 50/38/176 51/37/177 52/30/178
f 52/30/179 22/46/180 21/39/181 50/38/182
f 52/30/183 18/26/184 22/46/185
f 20/29/186 17/27/187 49/31/188 51/37/189
f 20/29/190 51/37/191 24/36/192
v 0.000244 19.582428 26.785400
v -0.544922 19.582428 32.152222
v 0.000244 199.356613 26.785400
v -0.544922 199.356613 32.152222
v -54.655151 199.356613 26.785400
v -54.655151 199.356613 32.152222
v -54.655151 19.582428 26.785400
v -54.655151 19.582428 32.152222
v -10.687378 114.800201 32.152222
v -7.040039 114.800201 32.152222
v -10.687378 141.616364 32.152222
v -7.040039 141.616364 32.152222
v -10.395508 116.397926 36.825439
v -7.331909 116.397926 36.825439
v -10.395508 140.018631 36.825439
v -7.331909 140.018631 36.825439
vt 0.039402 0.330198
vt 0.039402 0.330198
vt 0.039402 0.330198
vt 0.039402 0.330198
vt 0.039402 0.330198
vt 0.039402 0.330198
vt 0.039402 0.330198
vt 0.039402 0.330198
vt 0.039402 0.330198
vt 0.039402 0.330198
vt 0.134277 0.304543
vt 0.134277 0.304543
vt 0.134277 0.304543
vt 0.134277 0.304543
vt 0.039402 0.330198
vt 0.039402 0.330198
vt 0.069336 0.350722
vt 0.069336 0.350725
vt 0.069336 0.350725
vt 0.069336 0.350722
vt 0.069336 0.350725
vt 0.069336 0.350733
vt 0.069336 0.350725
vt 0.069336 0.350733
vt 0.134277 0.304543
vt 0.134277 0.304543
vt 0.134277 0.304543
vt 0.134277 0.304543
vn 0.994880 0.000000 0.101061
vn 0.994880 0.000000 0.101061
vn 0.994880 0.000000 0.101061
vn 0.994880 0.000000 0.101061
vn 0.000000 1.000000 -0.000003
vn 0.000000 1.000000 -0.000003
vn 0.000000 1.000000 -0.000003
vn 0.000000 1.000000 -0.000003
vn -1.000000 0.000000 0.000000
vn -1.000000 0.000000 0.000000
vn -1.000000 0.000000 0.000000
vn -1.000000 0.000000 0.000000
vn 0.000000 -1.000000 -0.000000
vn 0.000000 -1.000000 -0.000000
vn 0.000000 -1.000000 -0.000000
vn 0.000000 -1.000000 -0.000000
vn 0.000000 0.000000 1.000000
vn 0.000000 0.000000 1.000000
vn 0.000000 0.000000 1.000000
vn 0.000000 0.000000 1.000000
vn 0.000000 0.000000 -1.000000
vn 0.000000 0.000000 -1.000000
vn 0.000000 0.000000 -1.000000
vn 0.000000 0.000000 -1.000000
vn 0.000000 0.000000 1.000000
vn 0.000000 0.000000 1.000000
vn 0.000000 0.000000 1.000000
vn 0.000000 0.000000 1.000000
vn 0.000000 0.000000 1.000000
vn 0.000000 0.000000 1.000000
vn 0.000000 0.000000 1.000000
vn 0.000000 0.000000 1.000000
vn 0.000000 0.000000 1.000000
vn 0.000000 0.000000 1.000000
vn 0.000000 0.000000 1.000000
vn 0.000000 0.000000 1.000000
vn 0.000000 0.000000 1.000000
vn 0.000000 0.000000 1.000000
vn 0.000000 0.000000 1.000000
vn 0.000000 0.000000 1.000000
vn 0.000000 -0.946227 0.323503
vn 0.000000 -0.946227 0.323503
vn 0.000000 -0.946227 0.323503
vn 0.000000 -0.946227 0.323503
vn -0.998055 0.000000 0.062335
vn -0.998055 0.000000 0.062335
vn -0.998055 0.000000 0.062335
vn -0.998055 0.000000 0.062335
vn 0.000000 0.946226 0.323507
vn 0.000000 0.946226 0.323507
vn 0.000000 0.946226 0.323507
vn 0.000000 0.946226 0.323507
vn 0.998055 0.000000 0.062335
vn 0.998055 0.000000 0.062335
vn 0.998055 0.000000 0.062335
vn 0.998055 0.000000 0.062335
s off
f 53/62/193 55/63/194 56/64/195 54/65/196
f 55/63/197 57/66/198 58/67/199 56/64/200
f 57/66/201 59/68/202 60/69/203 58/67/204
f 59/68/205 53/70/206 54/71/207 60/69/208
f 66/72/209 68/73/210 67/74/211 65/75/212
f 59/76/213 57/77/214 55/63/215 53/62/216
f 54/78/217 62/79/218 61/80/219 60/81/220
f 60/81/221 61/80/222 63/82/223 58/83/224
f 58/83/225 63/82/226 64/84/227 56/85/228
f 56/85/229 64/84/230 62/79/231 54/78/232
f 62/86/233 66/72/234 65/75/235 61/87/236
f 61/87/237 65/75/238 67/74/239 63/88/240
f 63/88/241 67/74/242 68/73/243 64/89/244
f 64/89/245 68/73/246 66/72/247 62/86/248
v 0.000000 19.582428 26.785400
v 0.545044 19.582428 32.152222
v 0.000000 199.356613 26.785400
v 0.545044 199.356613 32.152222
v 54.655273 199.356613 26.785400
v 54.655273 199.356613 32.152222
v 54.655273 19.582428 26.785400
v 54.655273 19.582428 32.152222
v 10.687500 114.800201 32.152222
v 7.040161 114.800201 32.152222
v 10.687500 141.616364 32.152222
v 7.040161 141.616364 32.152222
v 10.395630 116.397926 36.825439
v 7.332031 116.397926 36.825439
v 10.395630 140.018631 36.825439
v 7.332031 140.018631 36.825439
vt 0.039402 0.330198
vt 0.039402 0.330198
vt 0.039402 0.330198
vt 0.039402 0.330198
vt 0.039402 0.330198
vt 0.039402 0.330198
vt 0.039402 0.330198
vt 0.039402 0.330198
vt 0.039402 0.330198
vt 0.039402 0.330198
vt 0.134277 0.304543
vt 0.134277 0.304543
vt 0.134277 0.304543
vt 0.134277 0.304543
vt 0.039402 0.330198
vt 0.039402 0.330198
vt 0.069336 0.350722
vt 0.069336 0.350722
vt 0.069336 0.350725
vt 0.069336 0.350725
vt 0.069336 0.350733
vt 0.069336 0.350725
vt 0.069336 0.350733
vt 0.069336 0.350725
vt 0.134277 0.304543
vt 0.134277 0.304543
vt 0.134277 0.304543
vt 0.134277 0.304543
vn -0.994883 0.000000 0.101038
vn -0.994883 0.000000 0.101038
vn -0.994883 0.000000 0.101038
vn -0.994883 0.000000 0.101038
vn 0.000000 1.000000 0.000000
vn 0.000000 1.000000 0.000000
vn 0.000000 1.000000 0.000000
vn 0.000000 1.000000 0.000000
vn 1.000000 0.000000 0.000000
vn 1.000000 0.000000 0.000000
vn 1.000000 0.000000 0.000000
vn 1.000000 0.000000 0.000000
vn 0.000000 -1.000000 0.000000
vn 0.000000 -1.000000 0.000000
vn 0.000000 -1.000000 0.000000
vn 0.000000 -1.000000 0.000000
vn 0.000000 0.000000 1.000000
vn 0.000000 0.000000 1.000000
vn 0.000000 0.000000 1.000000
vn 0.000000 0.000000 1.000000
vn 0.000000 0.000000 -1.000000
vn 0.000000 0.000000 -1.000000
vn 0.000000 0.000000 -1.000000
vn 0.000000 0.000000 -1.000000
vn 0.000000 0.000000 1.000000
vn 0.000000 0.000000 1.000000
vn 0.000000 0.000000 1.000000
vn 0.000000 0.000000 1.000000
vn -0.000000 0.000000 1.000000
vn -0.000000 0.000000 1.000000
vn -0.000000 0.000000 1.000000
vn -0.000000 0.000000 1.000000
vn 0.000000 0.000000 1.000000
vn 0.000000 0.000000 1.000000
vn 0.000000 0.000000 1.000000
vn 0.000000 0.000000 1.000000
vn 0.000000 0.000000 1.000000
vn 0.000000 0.000000 1.000000
vn 0.000000 0.000000 1.000000
vn 0.000000 0.000000 1.000000
vn 0.000000 -0.946227 0.323504
vn 0.000000 -0.946227 0.323504
vn 0.000000 -0.946227 0.323504
vn 0.000000 -0.946227 0.323504
vn 0.998055 0.000000 0.062335
vn 0.998055 0.000000 0.062335
vn 0.998055 0.000000 0.062335
vn 0.998055 0.000000 0.062335
vn 0.000000 0.946226 0.323507
vn 0.000000 0.946226 0.323507
vn 0.000000 0.946226 0.323507
vn 0.000000 0.946226 0.323507
vn -0.998055 0.000000 0.062335
vn -0.998055 0.000000 0.062335
vn -0.998055 0.000000 0.062335
vn -0.998055 0.000000 0.062335
s off
f 69/90/249 70/91/250 72/92/251 71/93/252
f 71/93/253 72/92/254 74/94/255 73/95/256
f 73/95/257 74/94/258 76/96/259 75/97/260
f 75/97/261 76/96/262 70/98/263 69/99/264
f 82/100/265 81/101/266 83/102/267 84/103/268
f 75/104/269 69/90/270 71/93/271 73/105/272
f 70/106/273 76/107/274 77/108/275 78/109/276
f 76/107/277 74/110/278 79/111/279 77/108/280
f 74/110/281 72/112/282 80/113/283 79/111/284
f 72/112/285 70/106/286 78/109/287 80/113/288
f 78/114/289 77/115/290 81/101/291 82/100/292
f 77/115/293 79/116/294 83/102/295 81/101/296
f 79/116/297 80/117/298 84/103/299 83/102/300
f 80/117/301 78/114/302 82/100/303 84/103/304
