# This file uses meters as units for non-parametric coordinates.

v 96.992401 0.000000 53.980713
v 96.992401 0.000000 63.376709
v 96.992401 92.584152 53.980713
v 96.992401 92.584152 63.376709
v 104.964508 92.584152 53.980713
v 104.964478 92.584152 63.376709
v 104.964508 0.000000 53.980713
v 104.964508 0.000000 63.376709
v 96.992401 0.000000 -63.376709
v 96.992401 0.000000 -53.980713
v 96.992401 92.584152 -63.376709
v 96.992401 92.584152 -53.980713
v 104.964478 92.584152 -63.376709
v 104.964508 92.584152 -53.980713
v 104.964508 0.000000 -63.376709
v 104.964508 0.000000 -53.980713
v -104.964447 0.000000 -63.376709
v -104.964447 0.000000 -53.980713
v -104.964478 92.584152 -63.376709
v -104.964447 92.584152 -53.980713
v -96.992340 92.584152 -63.376709
v -96.992340 92.584152 -53.980713
v -96.992340 0.000000 -63.376709
v -96.992340 0.000000 -53.980713
v -104.964447 0.000000 53.980713
v -104.964447 0.000000 63.376709
v -104.964447 92.584152 53.980713
v -104.964478 92.584152 63.376709
v -96.992340 92.584152 53.980713
v -96.992340 92.584152 63.376709
v -96.992340 0.000000 53.980713
v -96.992340 0.000000 63.376709
v -104.265594 102.555389 -62.674561
v -104.265594 102.555389 62.674561
v 104.265594 102.555389 -62.674561
v 104.265594 102.555389 62.674561
v 104.964478 97.446579 -63.376709
v 104.964478 97.446579 63.376709
v -104.964478 97.446579 63.376709
v -104.964478 97.446579 -63.376709
v 103.825378 98.309738 -62.688965
v 103.825378 98.309738 62.688965
v -103.825378 98.309738 62.688965
v -103.825378 98.309738 -62.688965
v 104.964478 99.016556 -63.376709
v 104.964478 99.016556 63.376709
v -104.964508 99.016556 63.376709
v -104.964508 99.016556 -63.376709
v 66.569427 102.555389 62.674561
v 92.584106 102.555389 62.674561
v 81.042633 102.555389 58.561279
v 79.284058 101.076294 63.376709
v 42.525940 102.555389 62.674561
v 53.839142 102.555389 62.674561
v 47.858063 102.555389 60.746582
v 48.171204 101.569275 63.376709
v -58.625214 102.555389 -62.674561
v -19.433868 102.555389 -62.674561
v -39.763336 102.555389 -58.768555
v -40.324799 101.558548 -63.376709
v -104.265594 102.555389 24.740967
v -104.265594 102.555389 46.041992
v -101.662598 102.555389 36.150391
v -104.964478 101.379974 34.831543
vt 0.090660 0.277943
vt 0.090660 0.277943
vt 0.090660 0.277943
vt 0.090660 0.277943
vt 0.090660 0.277943
vt 0.090660 0.277943
vt 0.090660 0.277943
vt 0.090660 0.277943
vt 0.090660 0.277943
vt 0.090660 0.277943
vt 0.090660 0.277943
vt 0.090660 0.277943
vt 0.090660 0.277943
vt 0.090660 0.277943
vt 0.090660 0.277943
vt 0.090660 0.277943
vt 0.090660 0.277943
vt 0.090660 0.277943
vt 0.090660 0.277943
vt 0.090660 0.277943
vt 0.090660 0.277943
vt 0.090660 0.277943
vt 0.090660 0.277943
vt 0.090660 0.277943
vt 0.090660 0.277943
vt 0.090660 0.277943
vt 0.090660 0.277943
vt 0.090660 0.277943
vt 0.090660 0.277943
vt 0.090660 0.277943
vt 0.090660 0.277943
vt 0.090660 0.277943
vt 0.090660 0.277943
vt 0.090660 0.277943
vt 0.090660 0.277943
vt 0.090660 0.277943
vt 0.090660 0.277943
vt 0.090660 0.277943
vt 0.090660 0.277943
vt 0.090660 0.277943
vt 0.090660 0.277943
vt 0.090660 0.277943
vt 0.090660 0.277943
vt 0.090660 0.277943
vt 0.090660 0.277943
vt 0.090660 0.277943
vt 0.090660 0.277943
vt 0.090660 0.277943
vt 0.090660 0.277943
vt 0.090660 0.277943
vt 0.090660 0.277943
vt 0.090660 0.277943
vt 0.090660 0.277943
vt 0.090660 0.277943
vt 0.090660 0.277943
vt 0.090660 0.277943
vt 0.090660 0.277943
vt 0.090660 0.277943
vt 0.090660 0.277943
vt 0.090660 0.277943
vt 0.090660 0.277943
vt 0.090660 0.277943
vt 0.090660 0.277943
vt 0.090660 0.277943
vt 0.090660 0.277943
vt 0.090660 0.277943
vt 0.090660 0.277943
vt 0.090660 0.277943
vt 0.090660 0.277943
vt 0.090660 0.277943
vt 0.090660 0.277943
vt 0.090660 0.277943
vt 0.090660 0.277943
vt 0.090660 0.277943
vt 0.090660 0.277943
vt 0.090660 0.277943
vt 0.092285 0.255411
vt 0.092285 0.255411
vt 0.092285 0.303089
vt 0.092285 0.303089
vt 0.092285 0.303089
vt 0.092285 0.255411
vt 0.090660 0.277943
vt 0.090660 0.277943
vt 0.090660 0.277943
vt 0.090660 0.277943
vt 0.090660 0.277943
vt 0.090660 0.277943
vt 0.092285 0.303089
vt 0.092285 0.255411
vt 0.092285 0.255411
vt 0.092285 0.255411
vt 0.092285 0.255411
vt 0.092285 0.255411
vt 0.092285 0.303089
vt 0.092285 0.303089
vt 0.092285 0.303089
vt 0.092285 0.303089
vt 0.092285 0.303089
vt 0.092285 0.303089
vt 0.092285 0.303089
vt 0.092285 0.303089
vt 0.092285 0.303089
vt 0.092285 0.303089
vt 0.092285 0.303089
vt 0.092285 0.303089
vt 0.090660 0.277943
vt 0.090660 0.304722
vt 0.090660 0.277943
vt 0.090660 0.304722
vt 0.090660 0.277943
vt 0.090660 0.277943
vt 0.090660 0.304722
vt 0.090660 0.277943
vt 0.090660 0.277943
vt 0.090660 0.277943
vt 0.090660 0.304722
vt 0.090660 0.277943
vt 0.090660 0.277943
vt 0.090660 0.304722
vt 0.090660 0.304722
vt 0.090660 0.277943
vt 0.090660 0.277943
vt 0.090660 0.277943
vt 0.090660 0.277943
vt 0.090660 0.277943
vt 0.090660 0.304722
vt 0.090660 0.277943
vt 0.090660 0.304722
vt 0.090660 0.277943
vt 0.090660 0.277943
vt 0.090660 0.304722
vt 0.090660 0.304722
vt 0.090660 0.304722
vt 0.090660 0.304722
vt 0.090660 0.304722
vt 0.090660 0.277943
vt 0.090660 0.304722
vt 0.090660 0.304722
vt 0.090660 0.304722
vt 0.090660 0.304722
vt 0.090660 0.277943
vt 0.090660 0.304722
vt 0.090660 0.304722
vt 0.090660 0.304722
vt 0.090660 0.304722
vt 0.090660 0.277943
vt 0.090660 0.304722
vt 0.090660 0.304722
vt 0.090660 0.304722
vt 0.090660 0.277943
vt 0.090660 0.277943
vn -1.000000 0.000000 0.000000
vn -1.000000 0.000000 0.000000
vn -1.000000 0.000000 0.000000
vn -1.000000 0.000000 0.000000
vn 1.000000 0.000000 0.000002
vn 1.000000 0.000000 0.000002
vn 1.000000 0.000000 0.000002
vn 1.000000 0.000000 0.000002
vn 0.000000 -1.000000 0.000000
vn 0.000000 -1.000000 0.000000
vn 0.000000 -1.000000 0.000000
vn 0.000000 -1.000000 0.000000
vn 0.000000 0.000000 1.000000
vn 0.000000 0.000000 1.000000
vn 0.000000 0.000000 1.000000
vn 0.000000 0.000000 1.000000
vn 0.000000 0.000000 -1.000000
vn 0.000000 0.000000 -1.000000
vn 0.000000 0.000000 -1.000000
vn 0.000000 0.000000 -1.000000
vn -1.000000 0.000000 0.000000
vn -1.000000 0.000000 0.000000
vn -1.000000 0.000000 0.000000
vn -1.000000 0.000000 0.000000
vn 1.000000 0.000000 -0.000002
vn 1.000000 0.000000 -0.000002
vn 1.000000 0.000000 -0.000002
vn 1.000000 0.000000 -0.000002
vn 0.000000 -1.000000 0.000000
vn 0.000000 -1.000000 0.000000
vn 0.000000 -1.000000 0.000000
vn 0.000000 -1.000000 0.000000
vn 0.000000 0.000000 1.000000
vn 0.000000 0.000000 1.000000
vn 0.000000 0.000000 1.000000
vn 0.000000 0.000000 1.000000
vn 0.000000 0.000000 -1.000000
vn 0.000000 0.000000 -1.000000
vn 0.000000 0.000000 -1.000000
vn 0.000000 0.000000 -1.000000
vn -1.000000 -0.000000 0.000002
vn -1.000000 -0.000000 0.000002
vn -1.000000 -0.000000 0.000002
vn -1.000000 -0.000000 0.000002
vn 1.000000 0.000000 0.000000
vn 1.000000 0.000000 0.000000
vn 1.000000 0.000000 0.000000
vn 1.000000 0.000000 0.000000
vn 0.000000 -1.000000 0.000000
vn 0.000000 -1.000000 0.000000
vn 0.000000 -1.000000 0.000000
vn 0.000000 -1.000000 0.000000
vn 0.000000 0.000000 1.000000
vn 0.000000 0.000000 1.000000
vn 0.000000 0.000000 1.000000
vn 0.000000 0.000000 1.000000
vn 0.000000 0.000000 -1.000000
vn 0.000000 0.000000 -1.000000
vn 0.000000 0.000000 -1.000000
vn 0.000000 0.000000 -1.000000
vn -1.000000 -0.000000 -0.000002
vn -1.000000 -0.000000 -0.000002
vn -1.000000 -0.000000 -0.000002
vn -1.000000 -0.000000 -0.000002
vn 1.000000 0.000000 0.000000
vn 1.000000 0.000000 0.000000
vn 1.000000 0.000000 0.000000
vn 1.000000 0.000000 0.000000
vn 0.000000 -1.000000 0.000000
vn 0.000000 -1.000000 0.000000
vn 0.000000 -1.000000 0.000000
vn 0.000000 -1.000000 0.000000
vn 0.000000 0.000000 1.000000
vn 0.000000 0.000000 1.000000
vn 0.000000 0.000000 1.000000
vn 0.000000 0.000000 1.000000
vn 0.000000 0.000000 -1.000000
vn 0.000000 0.000000 -1.000000
vn 0.000000 0.000000 -1.000000
vn 0.000000 0.000000 -1.000000
vn -1.000000 0.000000 0.000000
vn -1.000000 0.000000 0.000000
vn -1.000000 0.000000 0.000000
vn -1.000000 0.000000 0.000000
vn 0.000000 1.000000 0.000000
vn 0.000000 1.000000 0.000000
vn 0.000000 1.000000 0.000000
vn 0.000000 1.000000 0.000000
vn 1.000000 0.000000 0.000000
vn 1.000000 0.000000 0.000000
vn 1.000000 0.000000 0.000000
vn 1.000000 0.000000 0.000000
vn 0.000000 -1.000000 0.000000
vn 0.000000 -1.000000 0.000000
vn 0.000000 -1.000000 0.000000
vn 0.000000 -1.000000 0.000000
vn 0.000000 0.000000 1.000000
vn 0.000000 0.000000 1.000000
vn 0.000000 0.000000 1.000000
vn 0.000000 0.000000 1.000000
vn 0.000000 0.000000 -1.000000
vn 0.000000 0.000000 -1.000000
vn 0.000000 0.000000 -1.000000
vn 0.000000 0.000000 -1.000000
vn 0.603949 0.797023 0.000000
vn 0.603949 0.797023 0.000000
vn 0.603949 0.797023 0.000000
vn 0.603949 0.797023 0.000000
vn 0.000000 0.623159 0.782095
vn 0.000000 0.623159 0.782095
vn 0.000000 0.623159 0.782095
vn 0.000000 0.623159 0.782095
vn -0.603949 0.797023 0.000000
vn -0.603949 0.797023 0.000000
vn -0.603949 0.797023 0.000000
vn -0.603949 0.797023 0.000000
vn 0.000000 0.623159 -0.782095
vn 0.000000 0.623159 -0.782095
vn 0.000000 0.623159 -0.782095
vn 0.000000 0.623159 -0.782095
vn 0.527250 -0.849710 0.000000
vn 0.527250 -0.849710 0.000000
vn 0.527250 -0.849710 0.000000
vn 0.527250 -0.849710 0.000000
vn 0.000000 -0.697370 0.716712
vn 0.000000 -0.697370 0.716712
vn 0.000000 -0.697370 0.716712
vn 0.000000 -0.697370 0.716712
vn -0.527239 -0.849717 0.000000
vn -0.527239 -0.849717 0.000000
vn -0.527239 -0.849717 0.000000
vn -0.527239 -0.849717 0.000000
vn 0.000000 -0.697372 -0.716710
vn 0.000000 -0.697372 -0.716710
vn 0.000000 -0.697372 -0.716710
vn 0.000000 -0.697372 -0.716710
vn 0.981051 0.193748 0.000000
vn 0.981051 0.193748 0.000000
vn 0.981051 0.193748 0.000000
vn 0.981051 0.193748 0.000000
vn 0.000000 0.000000 1.000000
vn 0.000000 0.000000 1.000000
vn 0.000000 0.000000 1.000000
vn 0.000000 0.000000 1.000000
vn -1.000000 0.000020 0.000000
vn -1.000000 0.000020 0.000000
vn -1.000000 0.000020 0.000000
vn 0.000000 0.000000 -1.000000
vn 0.000000 0.000000 -1.000000
vn 0.000000 0.000000 -1.000000
vn 0.091753 0.941993 0.322848
vn 0.091753 0.941993 0.322848
vn 0.091753 0.941993 0.322848
vn -0.093065 0.960806 0.261134
vn -0.093065 0.960806 0.261134
vn -0.093065 0.960806 0.261134
vn 0.121405 0.934088 0.335770
vn 0.121405 0.934088 0.335770
vn 0.121405 0.934088 0.335770
vn -0.116301 0.925365 0.360797
vn -0.116301 0.925365 0.360797
vn -0.116301 0.925365 0.360797
vn -0.039703 0.977610 -0.206644
vn -0.039703 0.977610 -0.206644
vn -0.039703 0.977610 -0.206644
vn 0.044820 0.975269 -0.216431
vn 0.044820 0.975268 -0.216431
vn 0.044820 0.975268 -0.216431
vn -0.363442 0.927920 0.082918
vn -0.363442 0.927920 0.082918
vn -0.363442 0.927920 0.082918
vn -0.305618 0.948751 -0.080425
vn -0.305618 0.948751 -0.080425
vn -0.305618 0.948751 -0.080425
vn 0.000000 1.000000 0.000000
vn 0.000000 1.000000 0.000000
vn 0.000000 1.000000 0.000000
vn 0.000000 1.000000 0.000000
vn 0.000000 1.000000 0.000000
vn 0.000000 1.000000 0.000000
vn 0.000000 1.000000 0.000000
vn 0.000000 1.000000 0.000000
vn 0.000000 1.000000 0.000000
vn 0.000000 1.000000 0.000000
vn 0.000000 1.000000 0.000000
vn 0.000000 1.000000 0.000000
vn 0.000000 1.000000 -0.000000
vn 0.000000 1.000000 -0.000000
vn 0.000000 1.000000 -0.000000
vn 0.000000 1.000000 -0.000000
vn 0.000000 1.000000 -0.000000
vn 0.000000 1.000000 -0.000000
vn 0.000000 1.000000 -0.000000
vn 0.000000 1.000000 -0.000000
vn 0.000000 1.000000 -0.000000
vn 0.000000 1.000000 -0.000000
vn -0.006301 0.273359 -0.961891
vn -0.006301 0.273359 -0.961891
vn -0.006301 0.273359 -0.961891
vn -0.006301 0.273359 -0.961891
vn 0.002692 0.284805 -0.958582
vn 0.002692 0.284805 -0.958582
vn 0.002692 0.284805 -0.958582
vn 0.002692 0.284805 -0.958582
vn 0.013159 0.238696 0.971005
vn 0.013159 0.238696 0.971005
vn 0.013159 0.238696 0.971005
vn 0.013159 0.238696 0.971005
vn 0.005703 0.507220 0.861798
vn 0.005703 0.507220 0.861798
vn 0.005703 0.507220 0.861798
vn 0.005703 0.507220 0.861798
vn -0.002501 0.293904 0.955832
vn -0.002501 0.293904 0.955832
vn -0.002501 0.293904 0.955832
vn -0.002501 0.293904 0.955832
vn -0.966418 0.256623 0.013424
vn -0.966418 0.256623 0.013424
vn -0.966418 0.256623 0.013424
vn -0.966418 0.256623 0.013424
vn -0.960636 0.277789 -0.003537
vn -0.960636 0.277789 -0.003537
vn -0.960636 0.277789 -0.003537
vn -0.960636 0.277789 -0.003537
s off
f 1/1/1 2/2/2 4/4/3 3/3/4
f 5/5/5 6/6/6 8/8/7 7/7/8
f 7/7/9 8/8/10 2/10/11 1/9/12
f 2/2/13 8/11/14 6/12/15 4/4/16
f 7/13/17 1/1/18 3/3/19 5/14/20
f 9/15/21 10/16/22 12/17/23 11/18/24
f 13/20/25 14/19/26 16/21/27 15/22/28
f 15/22/29 16/21/30 10/23/31 9/24/32
f 10/16/33 16/25/34 14/26/35 12/17/36
f 15/27/37 9/15/38 11/18/39 13/28/40
f 17/29/41 18/30/42 20/31/43 19/32/44
f 21/34/45 22/33/46 24/35/47 23/36/48
f 23/36/49 24/35/50 18/37/51 17/38/52
f 18/30/53 24/39/54 22/40/55 20/31/56
f 23/41/57 17/29/58 19/32/59 21/42/60
f 25/43/61 26/44/62 28/45/63 27/46/64
f 29/48/65 30/47/66 32/49/67 31/50/68
f 31/50/69 32/49/70 26/51/71 25/52/72
f 26/44/73 32/53/74 30/54/75 28/45/76
f 31/55/77 25/43/78 27/46/79 29/56/80
f 19/57/81 28/58/82 39/75/83 40/76/84
f 35/62/85 51/111/86 50/109/87 36/61/88
f 37/72/89 38/73/90 6/63/91 13/64/92
f 13/64/93 6/63/94 28/65/95 19/66/96
f 28/58/97 6/67/98 38/74/99 39/75/100
f 13/69/101 19/57/102 40/76/103 37/71/104
f 41/98/105 42/101/106 38/79/107 37/104/108
f 39/106/109 38/103/110 42/102/111 43/99/112
f 40/105/113 39/81/114 43/100/115 44/95/116
f 37/80/117 40/89/118 44/96/119 41/97/120
f 45/91/121 46/92/122 42/78/123 41/77/124
f 43/82/125 42/78/126 46/92/127 47/93/128
f 44/90/129 43/82/130 47/93/131 48/94/132
f 41/77/133 44/90/134 48/94/135 45/91/136
f 35/62/137 36/61/138 46/85/139 45/84/140
f 47/87/141 46/86/142 52/112/143 56/119/144
f 48/88/145 47/87/146 64/131/147
f 45/83/148 48/88/149 60/126/150
f 49/108/151 52/148/152 51/150/153
f 51/113/154 52/149/155 50/110/156
f 53/146/157 56/143/158 55/145/159
f 55/120/160 56/144/161 54/117/162
f 58/141/163 60/138/164 59/140/165
f 59/127/166 60/139/167 57/121/168
f 61/136/169 64/132/170 63/135/171
f 63/134/172 64/133/173 62/129/174
f 59/125/175 63/130/176 55/118/177
f 59/125/178 55/118/179 35/62/180 58/124/181
f 33/60/182 61/128/183 63/130/184 59/125/185 57/122/186
f 55/118/187 63/130/188 62/137/189 34/59/190 53/114/191
f 35/62/192 55/118/193 54/116/194 49/107/195 51/111/196
f 60/126/197 48/88/198 33/60/199 57/142/200
f 45/83/201 60/126/202 58/123/203 35/70/204
f 52/112/205 46/86/206 36/68/207 50/152/208
f 56/119/209 52/112/210 49/151/211 54/147/212
f 47/87/213 56/119/214 53/115/215 34/59/216
f 64/131/217 47/87/218 34/59/219 62/137/220
f 48/88/221 64/131/222 61/128/223 33/60/224
