# This file uses meters as units for non-parametric coordinates.

v -61.968262 5.084087 7.216309
v -61.968262 5.084087 13.673462
v -61.968262 55.084087 7.216309
v -61.968262 55.084087 13.673462
v 61.968262 55.084087 7.216309
v 61.968262 55.084087 13.673462
v 61.968262 5.084087 7.216309
v 61.968262 5.084087 13.673462
v -48.669067 78.361176 7.216309
v -48.669067 78.361176 13.673462
v 48.669067 78.361176 13.673462
v 48.669067 78.361176 7.216309
v 28.341064 7.630642 13.673462
v -28.341431 7.630642 13.673462
v 28.341064 53.176479 13.673462
v -28.341431 53.176479 13.673462
v -31.053467 10.025219 13.673462
v -31.053467 50.781902 13.673462
v 31.053101 50.781902 13.673462
v 31.053101 10.025219 13.673462
v 25.786377 13.294506 13.673462
v -25.787354 13.294506 13.673462
v 25.786377 47.512615 13.673462
v -25.787354 47.512615 13.673462
v 4.496338 5.084087 13.673462
v -4.496704 5.084087 13.673462
v 4.496338 5.084087 7.216309
v -4.496704 5.084087 7.216309
v 4.496338 -0.000004 0.000122
v 4.496338 -0.000004 13.673462
v -4.496704 -0.000004 13.673462
v -4.496704 -0.000004 0.000122
v 2.719788 9.463253 20.847534
v -2.548096 9.463253 20.847534
v -2.548096 3.049328 20.847534
v 2.719788 3.049328 20.847534
v 26.312012 3.049328 57.589111
v 26.312012 3.049328 36.066284
v 11.093079 3.049328 20.847412
v -10.429749 3.049328 20.847412
v -25.648621 3.049328 36.066284
v -25.648682 3.049328 57.589111
v -10.429749 3.049328 72.807983
v 11.093079 3.049328 72.807983
v 26.312012 9.463253 57.589111
v 26.312012 9.463253 36.066284
v 11.093079 9.463253 20.847412
v -10.429749 9.463253 20.847412
v -25.648621 9.463253 36.066284
v -25.648682 9.463253 57.589111
v -10.429749 9.463253 72.807983
v 11.093079 9.463253 72.807983
v -0.000183 50.312710 7.216309
v -0.000183 50.312710 0.000122
v 21.804260 3.049328 55.721924
v 21.804260 3.049328 37.933472
v 9.225891 3.049328 25.355103
v -8.562561 3.049328 25.355103
v -21.140930 3.049328 37.933350
v -21.140930 3.049328 55.721924
v -8.562561 3.049328 68.300293
v 9.225891 3.049328 68.300293
v 21.804260 9.463253 55.722046
v 21.804260 9.463253 37.933594
v 9.225891 9.463253 25.355103
v -8.562622 9.463253 25.355103
v -21.140930 9.463253 37.933472
v -21.140930 9.463253 55.722046
v -8.562622 9.463253 68.300293
v 9.225891 9.463253 68.300293
v 4.496338 42.854916 7.216431
v 4.496338 42.854916 0.000122
v -4.496704 42.854916 0.000122
v -4.496704 42.854916 7.216309
v 33.232300 50.312710 7.216309
v 33.232300 42.854916 7.216431
v -33.232483 50.312710 7.216309
v -33.232483 42.854916 7.216309
v 33.232300 50.312710 0.000000
v 33.232300 42.854916 0.000000
v -33.232483 50.312710 0.000000
v -33.232483 42.854916 0.000000
v -17.448486 95.465820 7.216309
v -17.448486 95.465820 13.673462
v 17.448486 95.465820 13.673462
v 17.448486 95.465820 7.216309
vt 0.072038 0.379433
vt 0.072038 0.379433
vt 0.072038 0.379433
vt 0.072038 0.379433
vt 0.072038 0.379433
vt 0.072038 0.379433
vt 0.072038 0.379433
vt 0.072038 0.379433
vt 0.072038 0.379433
vt 0.072038 0.379433
vt 0.072038 0.379433
vt 0.072038 0.379433
vt 0.072038 0.379433
vt 0.072038 0.379433
vt 0.072038 0.379433
vt 0.072038 0.379433
vt 0.072038 0.379433
vt 0.072038 0.379433
vt 0.072038 0.379433
vt 0.072038 0.379433
vt 0.072038 0.379433
vt 0.072038 0.379433
vt 0.072038 0.379433
vt 0.072038 0.379433
vt 0.072038 0.379433
vt 0.072038 0.379433
vt 0.072038 0.379433
vt 0.072038 0.379433
vt 0.072038 0.379433
vt 0.072038 0.379433
vt 0.139160 0.442475
vt 0.139160 0.442475
vt 0.139160 0.442476
vt 0.139160 0.442476
vt 0.139160 0.442475
vt 0.139160 0.442474
vt 0.139160 0.442474
vt 0.139160 0.442474
vt 0.139160 0.442474
vt 0.139160 0.442474
vt 0.139160 0.442474
vt 0.139160 0.442475
vt 0.072038 0.379433
vt 0.072038 0.379433
vt 0.072038 0.379433
vt 0.072038 0.379433
vt 0.072038 0.379433
vt 0.072038 0.379433
vt 0.072038 0.379433
vt 0.072038 0.379433
vt 0.138184 0.446275
vt 0.138184 0.446275
vt 0.138184 0.446275
vt 0.138184 0.446275
vt 0.138184 0.446275
vt 0.138184 0.446275
vt 0.138184 0.446275
vt 0.138184 0.446275
vt 0.138184 0.446275
vt 0.138184 0.446275
vt 0.138184 0.446275
vt 0.138184 0.446275
vt 0.138184 0.446275
vt 0.138184 0.446275
vt 0.138184 0.446275
vt 0.138184 0.446275
vt 0.138184 0.446275
vt 0.138184 0.446275
vt 0.138184 0.446275
vt 0.138184 0.446275
vt 0.138184 0.446275
vt 0.138184 0.446275
vt 0.138184 0.446275
vt 0.138184 0.446275
vt 0.138184 0.446275
vt 0.138184 0.446275
vt 0.138184 0.446275
vt 0.138184 0.446275
vt 0.137329 0.447102
vt 0.137329 0.447102
vt 0.137329 0.447102
vt 0.137329 0.447102
vt 0.072038 0.379433
vt 0.138184 0.446275
vt 0.138184 0.446275
vt 0.138184 0.446275
vt 0.138184 0.446275
vt 0.138184 0.446275
vt 0.138184 0.446275
vt 0.138184 0.446275
vt 0.138184 0.446275
vt 0.138184 0.446275
vt 0.138184 0.446275
vt 0.138184 0.446275
vt 0.138184 0.446275
vt 0.138184 0.446275
vt 0.138184 0.446275
vt 0.138184 0.446275
vt 0.138184 0.446275
vt 0.138184 0.446275
vt 0.138184 0.446275
vt 0.138184 0.446275
vt 0.138184 0.446275
vt 0.138184 0.446275
vt 0.138184 0.446275
vt 0.137329 0.447102
vt 0.072038 0.379433
vt 0.137329 0.447102
vt 0.072038 0.379433
vt 0.072038 0.379433
vt 0.072038 0.379433
vt 0.072038 0.379433
vt 0.072038 0.379433
vt 0.137329 0.447102
vt 0.137329 0.447102
vt 0.137329 0.447102
vt 0.137329 0.447102
vt 0.137329 0.447102
vt 0.137329 0.447102
vt 0.137329 0.447102
vt 0.137329 0.447102
vt 0.137329 0.447102
vt 0.137329 0.447102
vt 0.137329 0.447102
vt 0.137329 0.447102
vt 0.072038 0.379433
vt 0.072038 0.379433
vt 0.072038 0.379433
vt 0.072038 0.379433
vt 0.138184 0.446275
vt 0.138184 0.446275
vt 0.138184 0.446275
vt 0.138184 0.446275
vt 0.138184 0.446275
vt 0.138184 0.446275
vt 0.138184 0.446275
vt 0.138184 0.446275
vt 0.138184 0.446275
vt 0.138184 0.446275
vt 0.138184 0.446275
vt 0.138184 0.446275
vt 0.138184 0.446275
vt 0.138184 0.446275
vt 0.138184 0.446275
vt 0.138184 0.446275
vt 0.138184 0.446275
vt 0.138184 0.446275
vt 0.138184 0.446275
vt 0.138184 0.446275
vt 0.138184 0.446275
vt 0.138184 0.446275
vt 0.138184 0.446275
vt 0.138184 0.446275
vt 0.138184 0.446275
vt 0.138184 0.446275
vt 0.138184 0.446275
vt 0.138184 0.446275
vt 0.138184 0.446275
vt 0.138184 0.446275
vt 0.138184 0.446275
vt 0.138184 0.446275
vt 0.138184 0.446275
vt 0.138184 0.446275
vt 0.138184 0.446275
vt 0.138184 0.446275
vt 0.138184 0.446275
vn -1.000000 0.000000 0.000000
vn -1.000000 0.000000 0.000000
vn -1.000000 0.000000 0.000000
vn -1.000000 0.000000 0.000000
vn 0.000000 1.000000 0.000000
vn 0.000000 1.000000 0.000000
vn 0.000000 1.000000 0.000000
vn 0.000000 1.000000 0.000000
vn 1.000000 0.000000 0.000000
vn 1.000000 0.000000 0.000000
vn 1.000000 0.000000 0.000000
vn 1.000000 0.000000 0.000000
vn 0.000000 -1.000000 0.000000
vn 0.000000 -1.000000 0.000000
vn 0.000000 -1.000000 0.000000
vn 0.000000 -1.000000 0.000000
vn 0.000000 0.000000 1.000000
vn 0.000000 0.000000 1.000000
vn 0.000000 0.000000 1.000000
vn 0.000000 0.000000 1.000000
vn 0.000000 0.000000 -1.000000
vn 0.000000 0.000000 -1.000000
vn 0.000000 0.000000 -1.000000
vn 0.000000 0.000000 -1.000000
vn -0.868275 0.496083 0.000000
vn -0.868275 0.496083 0.000000
vn -0.868275 0.496083 0.000000
vn -0.868275 0.496083 0.000000
vn 0.000000 0.000000 1.000000
vn 0.000000 0.000000 1.000000
vn 0.000000 0.000000 1.000000
vn 0.000000 0.000000 1.000000
vn 0.868275 0.496083 0.000000
vn 0.868275 0.496083 0.000000
vn 0.868275 0.496083 0.000000
vn 0.868275 0.496083 0.000000
vn 0.000000 0.000000 1.000000
vn 0.000000 0.000000 1.000000
vn 0.000000 0.000000 1.000000
vn 0.000000 0.000000 1.000000
vn 0.000000 0.000000 1.000000
vn 0.000000 0.000000 1.000000
vn 0.000000 0.000000 1.000000
vn 0.000000 0.000000 1.000000
vn 0.000000 0.000000 1.000000
vn 0.000000 0.000000 1.000000
vn 0.000000 0.000000 1.000000
vn 0.000000 0.000000 1.000000
vn 0.000000 0.000000 1.000000
vn 0.000000 0.000000 1.000000
vn 0.000000 0.000000 1.000000
vn 0.000000 0.000000 1.000000
vn 0.000000 0.000000 1.000000
vn 0.000000 0.000000 1.000000
vn -0.000000 0.000000 1.000000
vn -0.000000 0.000000 1.000000
vn -0.000000 0.000000 1.000000
vn -0.000000 0.000000 1.000000
vn 0.000000 0.000000 1.000000
vn 0.000000 0.000000 1.000000
vn 0.000000 0.000000 1.000000
vn -0.000000 0.000000 1.000000
vn -0.000000 0.000000 1.000000
vn -0.000000 0.000000 1.000000
vn 0.000000 0.000000 1.000000
vn 0.000000 0.000000 1.000000
vn 0.000000 0.000000 1.000000
vn 0.000000 0.000000 1.000000
vn 0.000001 0.000000 1.000000
vn 0.000001 0.000000 1.000000
vn 0.000001 0.000000 1.000000
vn -0.000000 0.000000 1.000000
vn -0.000000 0.000000 1.000000
vn -0.000000 0.000000 1.000000
vn -0.000000 0.000000 1.000000
vn 0.000000 0.000000 1.000000
vn 0.000000 0.000000 1.000000
vn 0.000000 0.000000 1.000000
vn 0.000000 0.000000 1.000000
vn 0.000000 0.000000 1.000000
vn 0.000000 0.000000 1.000000
vn 0.000000 0.000000 1.000000
vn -0.000001 0.000000 1.000000
vn -0.000001 0.000000 1.000000
vn -0.000001 0.000000 1.000000
vn 0.000000 0.000000 1.000000
vn 0.000000 0.000000 1.000000
vn 0.000000 0.000000 1.000000
vn 0.000000 0.000000 1.000000
vn -0.000000 0.000000 1.000000
vn -0.000000 0.000000 1.000000
vn -0.000000 0.000000 1.000000
vn 0.000000 0.000000 1.000000
vn 0.000000 0.000000 1.000000
vn 0.000000 0.000000 1.000000
vn 0.000000 0.000000 1.000000
vn 0.000000 0.000000 1.000000
vn 0.000000 0.000000 1.000000
vn 0.000000 -1.000000 0.000000
vn 0.000000 -1.000000 0.000000
vn 0.000000 -1.000000 0.000000
vn 0.000000 -1.000000 0.000000
vn 0.000000 -1.000000 0.000000
vn 0.000000 -1.000000 0.000000
vn 0.000000 -1.000000 0.000000
vn 0.000000 -1.000000 0.000000
vn 1.000000 0.000000 0.000000
vn 1.000000 0.000000 0.000000
vn 1.000000 0.000000 0.000000
vn 1.000000 0.000000 0.000000
vn -1.000000 0.000000 0.000000
vn -1.000000 0.000000 0.000000
vn -1.000000 0.000000 0.000000
vn -1.000000 0.000000 0.000000
vn 0.000000 0.853546 -0.521018
vn 0.000000 0.853546 -0.521018
vn 0.000000 0.853546 -0.521018
vn 0.000000 0.853546 -0.521018
vn -0.965035 0.000000 0.262121
vn -0.965035 0.000000 0.262121
vn -0.965035 0.000000 0.262121
vn -0.965035 0.000000 0.262121
vn 0.000000 -0.920315 0.391179
vn 0.000000 -0.920315 0.391179
vn 0.000000 -0.920315 0.391179
vn 0.000000 -0.920315 0.391179
vn 0.970680 0.000000 0.240374
vn 0.970680 0.000000 0.240374
vn 0.970680 0.000000 0.240374
vn 0.970680 0.000000 0.240374
vn 1.000000 0.000000 0.000000
vn 1.000000 0.000000 0.000000
vn 1.000000 0.000000 0.000000
vn 1.000000 0.000000 0.000000
vn 0.707105 0.000000 -0.707108
vn 0.707105 0.000000 -0.707108
vn 0.707105 0.000000 -0.707108
vn 0.707105 0.000000 -0.707108
vn -0.000014 0.000000 -1.000000
vn -0.000014 0.000000 -1.000000
vn -0.000014 0.000000 -1.000000
vn -0.000014 0.000000 -1.000000
vn -0.707107 0.000000 -0.707107
vn -0.707107 0.000000 -0.707107
vn -0.707107 0.000000 -0.707107
vn -0.707107 0.000000 -0.707107
vn -1.000000 0.000000 -0.000003
vn -1.000000 0.000000 -0.000003
vn -1.000000 0.000000 -0.000003
vn -1.000000 0.000000 -0.000003
vn -0.707105 0.000000 0.707108
vn -0.707105 0.000000 0.707108
vn -0.707105 0.000000 0.707108
vn -0.707105 0.000000 0.707108
vn 0.000000 0.000000 1.000000
vn 0.000000 0.000000 1.000000
vn 0.000000 0.000000 1.000000
vn 0.000000 0.000000 1.000000
vn 0.707105 0.000000 0.707108
vn 0.707105 0.000000 0.707108
vn 0.707105 0.000000 0.707108
vn 0.707105 0.000000 0.707108
vn 0.000015 0.000000 -1.000000
vn 0.000015 0.000000 -1.000000
vn 0.000015 0.000000 -1.000000
vn 0.000015 0.000000 -1.000000
vn -0.000004 -0.000001 -1.000000
vn -0.000004 -0.000001 -1.000000
vn -0.000004 -0.000001 -1.000000
vn -0.000004 -0.000001 -1.000000
vn 0.000000 0.000000 -1.000000
vn 0.000000 0.000000 -1.000000
vn 0.000000 0.000000 -1.000000
vn 0.000000 0.000000 -1.000000
vn 0.000000 0.000000 -1.000000
vn 0.000000 0.000000 -1.000000
vn 0.000000 0.000000 -1.000000
vn 0.000000 -1.000000 0.000000
vn 0.000000 -1.000000 0.000000
vn 0.000000 -1.000000 0.000000
vn 0.000000 -1.000000 0.000000
vn 0.000000 -1.000000 0.000000
vn 0.000000 -1.000000 0.000000
vn 0.000000 -1.000000 0.000000
vn 0.000000 -1.000000 0.000000
vn 0.000000 -1.000000 0.000000
vn 0.000000 -1.000000 0.000000
vn 0.000000 -1.000000 0.000000
vn 0.000000 -1.000000 0.000000
vn 0.000000 -1.000000 0.000000
vn 0.000000 -1.000000 0.000000
vn 0.000000 -1.000000 0.000000
vn 0.000000 -1.000000 0.000000
vn 0.000000 -1.000000 0.000000
vn 0.000000 -1.000000 0.000000
vn 0.000000 -1.000000 0.000000
vn 0.000000 -1.000000 -0.000000
vn 0.000000 -1.000000 -0.000000
vn 0.000000 -1.000000 -0.000000
vn 0.000000 -1.000000 -0.000000
vn 0.000000 -1.000000 0.000000
vn 0.000000 -1.000000 0.000000
vn 0.000000 -1.000000 0.000000
vn 0.000000 -1.000000 0.000000
vn 0.000000 -1.000000 0.000000
vn 0.000000 -1.000000 0.000000
vn 0.000000 -1.000000 0.000000
vn 0.000000 -1.000000 0.000000
vn 0.000000 -1.000000 0.000000
vn 0.000000 -1.000000 0.000000
vn 0.000000 -1.000000 0.000000
vn 0.000000 -1.000000 -0.000000
vn 0.000000 -1.000000 -0.000000
vn 0.000000 -1.000000 -0.000000
vn 0.000000 -1.000000 -0.000000
vn 0.000000 1.000000 0.000000
vn 0.000000 1.000000 0.000000
vn 0.000000 1.000000 0.000000
vn 0.000000 1.000000 0.000000
vn 0.000000 1.000000 -0.000000
vn 0.000000 1.000000 -0.000000
vn 0.000000 1.000000 -0.000000
vn 0.000000 1.000000 -0.000000
vn 0.000000 1.000000 0.000000
vn 0.000000 1.000000 0.000000
vn 0.000000 1.000000 0.000000
vn 0.000000 1.000000 0.000000
vn 0.000000 1.000000 0.000000
vn 0.000000 1.000000 0.000000
vn 0.000000 1.000000 0.000000
vn 0.000000 1.000000 -0.000000
vn 0.000000 1.000000 -0.000000
vn 0.000000 1.000000 -0.000000
vn 0.000000 1.000000 -0.000000
vn 0.000000 1.000000 0.000000
vn 0.000000 1.000000 0.000000
vn 0.000000 1.000000 0.000000
vn 0.000000 1.000000 0.000000
vn 0.000000 1.000000 -0.000000
vn 0.000000 1.000000 -0.000000
vn 0.000000 1.000000 -0.000000
vn 0.000000 1.000000 -0.000000
vn 0.000000 1.000000 -0.000000
vn 0.000000 1.000000 -0.000000
vn 0.000000 1.000000 -0.000000
vn 0.000000 1.000000 -0.000000
vn 0.000000 1.000000 -0.000000
vn 0.000000 1.000000 -0.000000
vn 0.000000 1.000000 -0.000000
vn 0.000000 1.000000 -0.000000
vn 0.000000 1.000000 -0.000000
vn 0.000000 1.000000 -0.000000
vn 0.000000 1.000000 -0.000000
vn -1.000000 0.000000 0.000000
vn -1.000000 0.000000 0.000000
vn -1.000000 0.000000 0.000000
vn -1.000000 0.000000 0.000000
vn -0.707109 -0.000007 0.707105
vn -0.707108 -0.000007 0.707105
vn -0.707109 -0.000007 0.707105
vn -0.707109 -0.000007 0.707105
vn 0.707106 -0.000003 0.707108
vn 0.707106 -0.000003 0.707108
vn 0.707106 -0.000003 0.707108
vn 0.707106 -0.000003 0.707108
vn 1.000000 0.000000 0.000000
vn 1.000000 0.000000 0.000000
vn 1.000000 0.000000 0.000000
vn 1.000000 0.000000 0.000000
vn 0.707106 0.000010 -0.707108
vn 0.707106 0.000010 -0.707108
vn 0.707106 0.000010 -0.707108
vn 0.707106 0.000010 -0.707108
vn 0.000000 0.000000 -1.000000
vn 0.000000 0.000000 -1.000000
vn 0.000000 0.000000 -1.000000
vn 0.000000 0.000000 -1.000000
vn -0.707105 0.000007 -0.707108
vn -0.707105 0.000007 -0.707108
vn -0.707105 0.000007 -0.707108
vn -0.707105 0.000007 -0.707108
vn 0.000000 0.000000 1.000000
vn 0.000000 0.000000 1.000000
vn 0.000000 0.000000 1.000000
vn 0.000000 0.000000 1.000000
vn 0.000000 0.000003 -1.000000
vn 0.000000 0.000003 -1.000000
vn 0.000000 0.000003 -1.000000
vn 0.000000 0.000003 -1.000000
vn 1.000000 0.000000 0.000000
vn 1.000000 0.000000 0.000000
vn 1.000000 0.000000 0.000000
vn 1.000000 0.000000 0.000000
vn 0.000000 0.000000 -1.000000
vn 0.000000 0.000000 -1.000000
vn 0.000000 0.000000 -1.000000
vn 0.000000 0.000000 -1.000000
vn -1.000000 0.000000 0.000000
vn -1.000000 0.000000 0.000000
vn -1.000000 0.000000 0.000000
vn -1.000000 0.000000 0.000000
vn 0.000000 0.000000 -1.000000
vn 0.000000 0.000000 -1.000000
vn 0.000000 0.000000 -1.000000
vn 0.000000 0.000000 -1.000000
vn -0.000003 -0.000002 -1.000000
vn -0.000003 -0.000002 -1.000000
vn -0.000003 -0.000002 -1.000000
vn -0.000003 -0.000002 -1.000000
vn 0.000004 -0.000001 -1.000000
vn 0.000004 -0.000001 -1.000000
vn 0.000004 -0.000001 -1.000000
vn 0.000004 -0.000001 -1.000000
vn 1.000000 0.000000 0.000000
vn 1.000000 0.000000 0.000000
vn 1.000000 0.000000 0.000000
vn 1.000000 0.000000 0.000000
vn 0.000000 -1.000000 0.000000
vn 0.000000 -1.000000 0.000000
vn 0.000000 -1.000000 0.000000
vn 0.000000 -1.000000 0.000000
vn 0.000000 1.000000 0.000000
vn 0.000000 1.000000 0.000000
vn 0.000000 1.000000 0.000000
vn 0.000000 1.000000 0.000000
vn -1.000000 0.000000 0.000000
vn -1.000000 0.000000 0.000000
vn -1.000000 0.000000 0.000000
vn -1.000000 0.000000 0.000000
vn 0.000000 1.000000 0.000000
vn 0.000000 1.000000 0.000000
vn 0.000000 1.000000 0.000000
vn 0.000000 1.000000 0.000000
vn 0.000000 -1.000000 0.000000
vn 0.000000 -1.000000 0.000000
vn 0.000000 -1.000000 0.000000
vn 0.000000 -1.000000 0.000000
vn 0.000000 0.000000 -1.000000
vn 0.000000 0.000000 -1.000000
vn 0.000000 0.000000 -1.000000
vn 0.000000 0.000000 -1.000000
vn 0.000000 0.000000 -1.000000
vn 0.000000 0.000000 -1.000000
vn 0.000000 0.000000 -1.000000
vn -0.480480 0.877006 0.000000
vn -0.480480 0.877006 0.000000
vn -0.480480 0.877006 0.000000
vn -0.480480 0.877006 0.000000
vn 0.000000 0.000000 1.000000
vn 0.000000 0.000000 1.000000
vn 0.000000 0.000000 1.000000
vn 0.000000 0.000000 1.000000
vn 0.480480 0.877006 0.000000
vn 0.480480 0.877006 0.000000
vn 0.480480 0.877006 0.000000
vn 0.480480 0.877006 0.000000
vn 0.000000 0.000000 -1.000000
vn 0.000000 0.000000 -1.000000
vn 0.000000 0.000000 -1.000000
vn 0.000000 0.000000 -1.000000
s off
f 1/1/1 2/2/2 4/4/3 3/3/4
f 83/126/5 84/127/6 85/128/7 86/129/8
f 5/5/9 6/6/10 8/8/11 7/7/12
f 29/51/13 30/52/14 31/53/15 32/54/16
f 22/27/17 21/28/18 23/29/19 24/30/20
f 5/14/21 75/110/22 53/83/23 12/18/24
f 3/3/25 4/4/26 10/16/27 9/15/28
f 4/4/29 6/6/30 11/17/31 10/16/32
f 6/6/33 5/5/34 12/18/35 11/17/36
f 14/19/37 26/46/38 25/44/39 13/20/40
f 8/11/41 6/12/42 19/25/43 20/26/44
f 6/12/45 4/4/46 16/22/47 15/21/48
f 4/4/49 18/24/50 16/22/51
f 17/23/52 2/2/53 14/19/54
f 4/4/55 2/2/56 17/23/57 18/24/58
f 19/25/59 6/12/60 15/21/61
f 8/11/62 20/26/63 13/20/64
f 14/31/65 13/32/66 21/33/67 22/34/68
f 13/32/69 20/35/70 21/33/71
f 20/35/72 19/36/73 23/37/74 21/33/75
f 19/36/76 15/38/77 23/37/78
f 15/38/79 16/39/80 24/40/81 23/37/82
f 16/39/83 18/41/84 24/40/85
f 18/41/86 17/42/87 22/34/88 24/40/89
f 17/42/90 14/31/91 22/34/92
f 2/2/93 26/46/94 14/19/95
f 13/20/96 25/44/97 8/11/98
f 28/50/99 26/45/100 2/10/101 1/9/102
f 7/7/103 8/8/104 25/43/105 27/48/106
f 27/55/107 25/56/108 30/52/109 29/51/110
f 26/57/111 28/58/112 32/54/113 31/53/114
f 25/56/115 26/57/116 34/59/117 33/60/118
f 26/57/119 31/53/120 35/61/121 34/59/122
f 31/53/123 30/52/124 36/62/125 35/61/126
f 30/52/127 25/56/128 33/60/129 36/62/130
f 37/63/131 38/64/132 46/65/133 45/66/134
f 38/64/135 39/67/136 47/68/137 46/65/138
f 39/67/139 36/62/140 33/60/141 47/68/142
f 40/69/143 41/70/144 49/71/145 48/72/146
f 41/70/147 42/73/148 50/74/149 49/71/150
f 42/73/151 43/75/152 51/76/153 50/74/154
f 43/75/155 44/77/156 52/78/157 51/76/158
f 44/77/159 37/63/160 45/66/161 52/78/162
f 34/59/163 35/61/164 40/69/165 48/72/166
f 79/79/167 80/80/168 72/81/169 54/82/170
f 72/81/171 73/106/172 54/82/173
f 3/3/174 77/112/175 78/113/176 1/1/177
f 38/64/178 37/63/179 55/85/180 56/84/181
f 39/67/182 38/64/183 56/84/184 57/86/185
f 40/69/186 35/61/187 58/87/188
f 41/70/189 40/69/190 58/87/191 59/88/192
f 42/73/193 41/70/194 59/88/195 60/89/196
f 43/75/197 42/73/198 60/89/199 61/90/200
f 44/77/201 43/75/202 61/90/203 62/91/204
f 37/63/205 44/77/206 62/91/207 55/85/208
f 36/130/209 39/131/210 57/92/211
f 35/132/212 36/133/213 57/93/214 58/134/215
f 45/135/216 46/136/217 64/95/218 63/94/219
f 46/137/220 47/138/221 65/96/222 64/95/223
f 34/139/224 48/140/225 66/141/226
f 48/142/227 49/143/228 67/97/229 66/144/230
f 49/145/231 50/146/232 68/98/233 67/97/234
f 50/147/235 51/148/236 69/149/237 68/98/238
f 51/150/239 52/151/240 70/99/241 69/152/242
f 52/153/243 45/154/244 63/94/245 70/99/246
f 47/155/247 33/156/248 65/157/249
f 33/158/250 34/159/251 66/160/252 65/161/253
f 56/84/254 55/85/255 63/101/256 64/100/257
f 57/86/258 56/84/259 64/100/260 65/162/261
f 59/88/262 58/87/263 66/163/264 67/102/265
f 60/89/266 59/88/267 67/102/268 68/103/269
f 61/90/270 60/89/271 68/103/272 69/104/273
f 62/91/274 61/90/275 69/104/276 70/105/277
f 55/85/278 62/91/279 70/105/280 63/101/281
f 58/164/282 57/93/283 65/165/284 66/166/285
f 27/47/286 71/107/287 76/111/288 7/13/289
f 72/81/290 71/114/291 27/115/292 29/116/293
f 32/117/294 73/106/295 72/81/296 29/116/297
f 28/118/298 74/119/299 73/106/300 32/117/301
f 1/1/302 78/113/303 74/109/304 28/49/305
f 7/13/306 76/111/307 75/110/308 5/14/309
f 82/120/310 81/121/311 54/82/312 73/106/313
f 75/122/314 76/123/315 80/80/316 79/79/317
f 76/123/318 71/114/319 72/81/320 80/80/321
f 53/108/322 75/122/323 79/79/324 54/82/325
f 78/124/326 77/125/327 81/121/328 82/120/329
f 77/125/330 53/108/331 54/82/332 81/121/333
f 74/119/334 78/124/335 82/120/336 73/106/337
f 9/15/338 53/83/339 77/112/340 3/3/341
f 12/18/342 53/83/343 9/15/344
f 9/15/345 10/16/346 84/127/347 83/126/348
f 10/16/349 11/17/350 85/128/351 84/127/352
f 11/17/353 12/18/354 86/129/355 85/128/356
f 12/18/357 9/15/358 83/126/359 86/129/360
