# This file uses meters as units for non-parametric coordinates.

v 16.784424 -22.526764 -2.140930
v -16.784424 -22.526764 -2.140930
v 16.784424 22.526764 -2.140930
v -16.784424 22.526764 -2.140930
v 16.784424 22.526764 2.140808
v -16.784424 22.526764 2.140808
v 16.784424 -22.526764 2.140808
v -16.784424 -22.526764 2.140808
v 12.094727 17.752991 1.292175
v -12.094604 17.752991 1.292175
v -12.094604 -17.752899 1.292175
v 12.094727 -17.752899 1.292175
v 11.317261 16.984955 0.580200
v -11.317139 16.984955 0.580200
v -11.317139 -16.984894 0.580200
v 11.317261 -16.984894 0.580200
v -13.728149 19.475006 1.292175
v -13.728149 -19.474976 1.292175
v 13.728271 -19.474976 1.292175
v 13.728271 19.475006 1.292175
v -15.460571 21.223358 2.140808
v -15.460571 -21.223328 2.140808
v 15.460693 -21.223328 2.140808
v 15.460693 21.223358 2.140808
v 11.317261 16.984924 0.580200
v -11.317139 16.984924 0.580200
v 11.317261 -16.984924 0.580200
v -11.317139 -16.984924 0.580200
v -11.317139 -11.345215 0.580200
v -9.014648 -16.984924 0.580200
v -0.645630 -8.130859 0.580200
v 2.019531 -9.748627 0.580200
v 2.068237 -12.300598 0.580200
v 4.510742 -16.984924 0.580200
v 4.336670 -10.286163 0.580200
v 11.317261 -7.885895 0.580200
v -4.735840 -9.362854 0.580200
v 8.518799 -4.342529 0.580200
v 4.635376 -3.372101 0.580200
v 1.819336 -4.598633 0.580200
v -3.420776 -4.453644 0.580200
v -6.548340 -3.291809 0.580200
v -6.246216 -7.163208 0.580200
v 4.317871 -1.304962 0.580200
v -0.608521 -1.808960 0.580200
v -4.156982 -1.125366 0.580200
v -6.599487 0.803345 0.580200
v -3.991821 1.546448 0.580200
v -5.683716 4.085175 0.580200
v -3.704834 4.167664 0.580200
v -2.654297 -1.414856 0.580200
v -1.657471 2.849121 0.580200
v -2.215454 8.279938 0.580200
v 1.164063 7.663239 0.580200
v 4.145508 9.042694 0.580200
v -1.768311 9.442322 0.580200
v -4.615723 10.505493 0.580200
v -4.901978 8.667236 0.580200
v -6.076416 11.229370 0.580200
v -4.897949 12.225861 0.580200
v -3.765869 11.806427 0.580200
v -0.652222 15.495056 0.580200
v 4.053101 14.796295 0.580200
v 4.409912 10.736969 0.580200
v 6.441284 10.090820 0.580200
v 5.911133 9.059906 0.580200
v 2.015503 3.111755 0.580200
v 2.692993 -1.471222 0.580261
v -11.317139 2.697998 0.580200
v -11.317139 13.960205 0.580200
v -7.881348 11.005676 0.580200
v 11.317261 4.845062 0.580200
v 7.442627 4.774048 0.580200
v 0.000122 16.984924 0.580200
v 2.867554 5.484131 0.580261
v 0.806396 4.581726 0.580200
vt 0.025846 0.332165
vt 0.025846 0.332165
vt 0.025846 0.332165
vt 0.025846 0.332165
vt 0.025846 0.332165
vt 0.025846 0.332165
vt 0.025846 0.332165
vt 0.025846 0.332165
vt 0.025846 0.332165
vt 0.025846 0.332165
vt 0.025846 0.332165
vt 0.025846 0.332165
vt 0.025846 0.332165
vt 0.025846 0.332165
vt 0.025846 0.332165
vt 0.025846 0.332165
vt 0.025846 0.332165
vt 0.025846 0.332165
vt 0.025846 0.332165
vt 0.025846 0.332165
vt 0.025846 0.332165
vt 0.025846 0.332165
vt 0.025846 0.332165
vt 0.025846 0.332165
vt 0.036926 0.278625
vt 0.038269 0.303650
vt 0.038269 0.303650
vt 0.042542 0.327133
vt 0.042542 0.327133
vt 0.042542 0.327133
vt 0.349243 0.493164
vt 0.349243 0.493164
vt 0.349243 0.493164
vt 0.349243 0.493164
vt 0.042542 0.327133
vt 0.042542 0.327133
vt 0.042542 0.327133
vt 0.038269 0.303650
vt 0.038269 0.303650
vt 0.038269 0.303650
vt 0.002991 0.379440
vt 0.002991 0.379440
vt 0.002991 0.379440
vt 0.002991 0.379440
vt 0.036926 0.278625
vt 0.036926 0.278625
vt 0.036926 0.278625
vt 0.036926 0.278625
vt 0.002991 0.379440
vt 0.002991 0.379440
vt 0.002991 0.379440
vt 0.002991 0.379440
vt 0.111084 0.494736
vt 0.111084 0.494736
vt 0.111084 0.494736
vt 0.111084 0.494736
vt 0.176523 0.299912
vt 0.176523 0.299912
vt 0.176523 0.299912
vt 0.048767 0.357498
vt 0.048767 0.357498
vt 0.048767 0.357498
vt 0.048767 0.357498
vt 0.048767 0.357498
vt 0.002991 0.379440
vt 0.002991 0.379440
vt 0.002991 0.379440
vt 0.111084 0.494736
vt 0.111084 0.494736
vt 0.111084 0.494736
vt 0.111084 0.494736
vt 0.176523 0.299912
vt 0.176523 0.299912
vt 0.176523 0.299912
vt 0.176523 0.326730
vt 0.176523 0.326730
vt 0.176523 0.326730
vt 0.176523 0.326730
vt 0.176523 0.326730
vt 0.176523 0.326730
vt 0.176523 0.326730
vt 0.176523 0.326730
vt 0.176523 0.326730
vt 0.176523 0.326730
vt 0.176523 0.299912
vt 0.176523 0.299912
vt 0.176523 0.299912
vt 0.176523 0.299912
vt 0.176523 0.299912
vt 0.176523 0.299912
vt 0.176523 0.299912
vt 0.178101 0.304657
vt 0.178101 0.304657
vt 0.178101 0.304657
vt 0.178101 0.304657
vt 0.036926 0.278625
vt 0.036926 0.278625
vt 0.036926 0.278625
vt 0.036926 0.278625
vt 0.036926 0.278625
vt 0.048767 0.357498
vt 0.048767 0.357498
vt 0.048767 0.357498
vt 0.048767 0.357498
vt 0.048767 0.357498
vt 0.048767 0.357498
vt 0.176523 0.326730
vt 0.176523 0.326730
vt 0.176523 0.326730
vt 0.176523 0.326730
vt 0.176523 0.326730
vt 0.176523 0.326730
vt 0.176523 0.326730
vt 0.176523 0.326730
vt 0.176523 0.326730
vt 0.176523 0.326730
vt 0.176523 0.326730
vt 0.002991 0.379440
vt 0.002991 0.379440
vt 0.178101 0.304657
vt 0.178101 0.304657
vt 0.178101 0.304657
vt 0.178101 0.304657
vt 0.002991 0.379440
vt 0.002991 0.379440
vt 0.002991 0.379440
vt 0.111084 0.494736
vt 0.036926 0.278625
vt 0.176523 0.299912
vt 0.176523 0.299912
vt 0.349243 0.493164
vt 0.349243 0.493164
vt 0.349243 0.493164
vt 0.349243 0.493164
vt 0.349243 0.493164
vt 0.349243 0.493164
vt 0.349243 0.493164
vt 0.349243 0.493164
vt 0.349243 0.493164
vt 0.042542 0.327133
vt 0.176523 0.326730
vt 0.002991 0.379440
vt 0.002991 0.379440
vt 0.176880 0.327728
vt 0.176880 0.327728
vt 0.176880 0.327728
vn 0.000000 0.000000 -1.000000
vn 0.000000 0.000000 -1.000000
vn 0.000000 0.000000 -1.000000
vn 0.000000 0.000000 -1.000000
vn 0.000000 1.000000 0.000000
vn 0.000000 1.000000 0.000000
vn 0.000000 1.000000 0.000000
vn 0.000000 1.000000 0.000000
vn 0.000000 -1.000000 0.000000
vn 0.000000 -1.000000 0.000000
vn 0.000000 -1.000000 0.000000
vn 0.000000 -1.000000 0.000000
vn -1.000000 0.000000 0.000000
vn -1.000000 0.000000 0.000000
vn -1.000000 0.000000 0.000000
vn -1.000000 0.000000 0.000000
vn 1.000000 0.000000 0.000000
vn 1.000000 0.000000 0.000000
vn 1.000000 0.000000 0.000000
vn 1.000000 0.000000 0.000000
vn 0.000000 0.000000 1.000000
vn 0.000000 0.000000 1.000000
vn 0.000000 0.000000 1.000000
vn 0.000000 0.000000 1.000000
vn 0.000000 0.000000 1.000000
vn 0.000000 0.000000 1.000000
vn 0.000000 0.000000 1.000000
vn 0.000000 0.000000 1.000000
vn 0.000000 0.000000 1.000000
vn 0.000000 0.000000 1.000000
vn 0.000000 0.000000 1.000000
vn 0.000000 0.000000 1.000000
vn 0.000000 0.000000 1.000000
vn 0.000000 0.000000 1.000000
vn 0.000000 0.000000 1.000000
vn 0.000000 0.000000 1.000000
vn 0.000000 -0.679835 0.733366
vn 0.000000 -0.679835 0.733366
vn 0.000000 -0.679835 0.733365
vn 0.000000 -0.679835 0.733365
vn 0.675363 0.000000 0.737486
vn 0.675363 0.000000 0.737486
vn 0.675363 0.000000 0.737486
vn 0.675363 0.000000 0.737486
vn 0.000000 0.679850 0.733352
vn 0.000000 0.679850 0.733352
vn 0.000000 0.679850 0.733352
vn 0.000000 0.679850 0.733352
vn -0.675363 0.000000 0.737486
vn -0.675363 0.000000 0.737486
vn -0.675363 0.000000 0.737486
vn -0.675363 0.000000 0.737486
vn 0.439909 0.000000 0.898042
vn 0.439909 0.000000 0.898042
vn 0.439909 0.000000 0.898042
vn 0.439909 0.000000 0.898042
vn 0.000000 0.436668 0.899623
vn 0.000000 0.436668 0.899623
vn 0.000000 0.436668 0.899623
vn 0.000000 0.436668 0.899623
vn -0.439909 0.000000 0.898042
vn -0.439909 0.000000 0.898042
vn -0.439909 0.000000 0.898042
vn -0.439909 0.000000 0.898042
vn 0.000000 -0.436668 0.899623
vn 0.000000 -0.436668 0.899623
vn 0.000000 -0.436668 0.899623
vn 0.000000 -0.436668 0.899623
vn 0.000000 0.000000 1.000000
vn 0.000000 0.000000 1.000000
vn 0.000000 0.000000 1.000000
vn 0.000000 0.000000 1.000000
vn 0.000000 0.000000 1.000000
vn 0.000000 0.000000 1.000000
vn 0.000000 0.000000 1.000000
vn 0.000000 0.000000 1.000000
vn 0.000000 0.000000 1.000000
vn 0.000000 0.000000 1.000000
vn 0.000000 0.000000 1.000000
vn 0.000000 0.000000 1.000000
vn 0.000000 0.000000 1.000000
vn 0.000000 0.000000 1.000000
vn 0.000000 0.000000 1.000000
vn 0.000000 0.000000 1.000000
vn 0.000000 0.000000 1.000000
vn 0.000000 0.000000 1.000000
vn 0.000000 0.000000 1.000000
vn 0.000000 0.000000 1.000000
vn 0.000000 0.000000 1.000000
vn 0.000000 0.000000 1.000000
vn 0.000000 0.000000 1.000000
vn 0.000000 0.000000 1.000000
vn 0.000000 0.000000 1.000000
vn 0.000000 0.000000 1.000000
vn 0.000018 -0.000014 1.000000
vn 0.000018 -0.000014 1.000000
vn 0.000018 -0.000014 1.000000
vn 0.000018 -0.000014 1.000000
vn 0.000000 0.000000 1.000000
vn 0.000000 0.000000 1.000000
vn 0.000000 0.000000 1.000000
vn 0.000000 0.000000 1.000000
vn 0.000000 0.000000 1.000000
vn 0.000000 0.000000 1.000000
vn 0.000000 0.000000 1.000000
vn 0.000000 0.000000 1.000000
vn 0.000000 0.000000 1.000000
vn 0.000000 0.000000 1.000000
vn 0.000000 0.000000 1.000000
vn 0.000000 0.000000 1.000000
vn 0.000000 0.000000 1.000000
vn 0.000000 0.000000 1.000000
vn 0.000000 0.000000 1.000000
vn -0.000000 0.000000 1.000000
vn -0.000000 0.000000 1.000000
vn -0.000000 0.000000 1.000000
vn -0.000000 0.000000 1.000000
vn -0.000000 0.000000 1.000000
vn -0.000022 -0.000018 1.000000
vn -0.000022 -0.000018 1.000000
vn -0.000022 -0.000018 1.000000
vn 0.000000 0.000000 1.000000
vn 0.000000 0.000000 1.000000
vn 0.000000 0.000000 1.000000
vn 0.000000 0.000000 1.000000
vn 0.000000 0.000000 1.000000
vn 0.000000 0.000000 1.000000
vn 0.000000 0.000000 1.000000
vn 0.000000 0.000000 1.000000
vn 0.000000 0.000000 1.000000
vn 0.000000 0.000000 1.000000
vn 0.000000 0.000000 1.000000
vn 0.000000 0.000000 1.000000
vn 0.000000 0.000000 1.000000
vn 0.000000 0.000000 1.000000
vn 0.000000 0.000000 1.000000
vn 0.000000 0.000000 1.000000
vn 0.000000 0.000000 1.000000
vn 0.000000 0.000000 1.000000
vn 0.000000 0.000000 1.000000
vn 0.000000 0.000000 1.000000
vn 0.000000 0.000000 1.000000
vn 0.000000 0.000000 1.000000
vn 0.000000 0.000000 1.000000
vn 0.000000 0.000000 1.000000
vn 0.000000 0.000000 1.000000
vn 0.000000 0.000000 1.000000
vn 0.000000 0.000000 1.000000
vn 0.000000 0.000000 1.000000
vn 0.000000 0.000000 1.000000
vn 0.000000 0.000000 1.000000
vn 0.000008 0.000004 1.000000
vn 0.000008 0.000004 1.000000
vn 0.000008 0.000004 1.000000
vn 0.000008 0.000004 1.000000
vn -0.000000 0.000000 1.000000
vn -0.000000 0.000000 1.000000
vn -0.000000 0.000000 1.000000
vn -0.000000 0.000000 1.000000
vn 0.000000 0.000000 1.000000
vn 0.000000 0.000000 1.000000
vn 0.000000 0.000000 1.000000
vn 0.000000 0.000000 1.000000
vn 0.000000 0.000000 1.000000
vn 0.000000 0.000000 1.000000
vn 0.000000 0.000000 1.000000
vn 0.000000 0.000000 1.000000
vn 0.000000 0.000000 1.000000
vn 0.000000 0.000000 1.000000
vn 0.000000 0.000000 1.000000
vn -0.000000 0.000000 1.000000
vn -0.000000 0.000000 1.000000
vn -0.000000 0.000000 1.000000
vn -0.000000 0.000000 1.000000
vn 0.000000 0.000000 1.000000
vn 0.000000 0.000000 1.000000
vn 0.000000 0.000000 1.000000
vn 0.000000 0.000000 1.000000
vn 0.000000 0.000000 1.000000
vn 0.000000 0.000000 1.000000
vn 0.000000 0.000000 1.000000
vn 0.000000 0.000000 1.000000
vn -0.000000 0.000000 1.000000
vn -0.000000 0.000000 1.000000
vn -0.000000 0.000000 1.000000
vn 0.000011 0.000008 1.000000
vn 0.000011 0.000008 1.000000
vn 0.000011 0.000008 1.000000
vn 0.000011 0.000008 1.000000
vn 0.000000 0.000000 1.000000
vn 0.000000 0.000000 1.000000
vn 0.000000 0.000000 1.000000
vn 0.000000 0.000000 1.000000
vn 0.000000 0.000000 1.000000
vn 0.000000 0.000000 1.000000
vn -0.000000 0.000000 1.000000
vn -0.000000 0.000000 1.000000
vn -0.000000 0.000000 1.000000
vn -0.000000 0.000000 1.000000
vn 0.000000 0.000000 1.000000
vn 0.000000 0.000000 1.000000
vn 0.000000 0.000000 1.000000
vn 0.000000 0.000000 1.000000
vn 0.000000 0.000000 1.000000
vn 0.000000 0.000000 1.000000
vn 0.000000 0.000000 1.000000
vn -0.000017 -0.000015 1.000000
vn -0.000017 -0.000015 1.000000
vn -0.000017 -0.000015 1.000000
vn 0.000000 0.000000 1.000000
vn 0.000000 0.000000 1.000000
vn 0.000000 0.000000 1.000000
vn 0.000000 0.000000 1.000000
vn -0.000000 0.000000 1.000000
vn -0.000000 0.000000 1.000000
vn -0.000000 0.000000 1.000000
vn -0.000020 0.000010 1.000000
vn -0.000020 0.000010 1.000000
vn -0.000020 0.000010 1.000000
vn 0.000000 0.000000 1.000000
vn 0.000000 0.000000 1.000000
vn 0.000000 0.000000 1.000000
vn 0.000000 0.000000 1.000000
vn 0.000000 0.000000 1.000000
vn 0.000000 0.000000 1.000000
vn 0.000000 0.000000 1.000000
vn -0.000000 0.000000 1.000000
vn -0.000000 0.000000 1.000000
vn -0.000000 0.000000 1.000000
vn -0.000000 0.000000 1.000000
vn 0.000000 0.000000 1.000000
vn 0.000000 0.000000 1.000000
vn 0.000000 0.000000 1.000000
vn 0.000000 0.000000 1.000000
vn 0.000000 0.000000 1.000000
vn 0.000000 0.000000 1.000000
vn 0.000000 0.000000 1.000000
vn 0.000000 0.000000 1.000000
vn 0.000000 0.000000 1.000000
vn 0.000000 0.000000 1.000000
vn -0.000000 0.000000 1.000000
vn -0.000000 0.000000 1.000000
vn -0.000000 0.000000 1.000000
vn 0.000000 0.000000 1.000000
vn 0.000000 0.000000 1.000000
vn 0.000000 0.000000 1.000000
vn 0.000000 0.000000 1.000000
vn 0.000000 0.000000 1.000000
vn 0.000000 0.000000 1.000000
vn 0.000000 0.000000 1.000000
vn 0.000000 0.000000 1.000000
vn 0.000000 0.000000 1.000000
vn 0.000000 0.000000 1.000000
vn -0.000000 0.000000 1.000000
vn -0.000000 0.000000 1.000000
vn -0.000000 0.000000 1.000000
vn -0.000000 0.000000 1.000000
vn 0.000000 0.000000 1.000000
vn 0.000000 0.000000 1.000000
vn 0.000000 0.000000 1.000000
vn 0.000000 0.000000 1.000000
vn 0.000000 0.000000 1.000000
vn 0.000000 0.000000 1.000000
vn 0.000000 0.000000 1.000000
vn 0.000000 0.000000 1.000000
vn 0.000000 0.000000 1.000000
vn 0.000000 0.000000 1.000000
vn -0.000000 0.000000 1.000000
vn -0.000000 0.000000 1.000000
vn -0.000000 0.000000 1.000000
vn -0.000000 0.000000 1.000000
vn -0.000000 0.000000 1.000000
vn -0.000000 0.000000 1.000000
vn -0.000018 0.000014 1.000000
vn -0.000018 0.000014 1.000000
vn -0.000018 0.000014 1.000000
vn -0.000018 0.000014 1.000000
vn 0.000000 0.000000 1.000000
vn 0.000000 0.000000 1.000000
vn 0.000000 0.000000 1.000000
vn 0.000000 0.000000 1.000000
vn 0.000009 -0.000029 1.000000
vn 0.000009 -0.000029 1.000000
vn 0.000009 -0.000029 1.000000
vn -0.000000 0.000000 1.000000
vn -0.000000 0.000000 1.000000
vn -0.000000 0.000000 1.000000
vn 0.000000 0.000000 1.000000
vn 0.000000 0.000000 1.000000
vn 0.000000 0.000000 1.000000
s off
f 1/1/1 2/2/2 4/3/3 3/4/4
f 3/4/5 4/3/6 6/5/7 5/6/8
f 7/7/9 8/8/10 2/2/11 1/1/12
f 2/2/13 8/8/14 6/5/15 4/3/16
f 7/7/17 1/1/18 3/4/19 5/6/20
f 20/9/21 17/10/22 10/11/23 9/12/24
f 17/10/25 18/13/26 11/14/27 10/11/28
f 18/13/29 19/15/30 12/16/31 11/14/32
f 19/15/33 20/9/34 9/12/35 12/16/36
f 9/12/37 10/11/38 14/17/39 13/18/40
f 10/11/41 11/14/42 15/19/43 14/17/44
f 11/14/45 12/16/46 16/20/47 15/19/48
f 12/16/49 9/12/50 13/18/51 16/20/52
f 21/21/53 22/22/54 18/13/55 17/10/56
f 22/22/57 23/23/58 19/15/59 18/13/60
f 23/23/61 24/24/62 20/9/63 19/15/64
f 24/24/65 21/21/66 17/10/67 20/9/68
f 6/5/69 8/8/70 22/22/71 21/21/72
f 8/8/73 7/7/74 23/23/75 22/22/76
f 7/7/77 5/6/78 24/24/79 23/23/80
f 5/6/81 6/5/82 21/21/83 24/24/84
f 37/31/85 41/32/86 42/33/87 43/34/88
f 30/35/89 29/36/90 28/37/91
f 34/38/92 35/39/93 33/40/94
f 39/41/95 44/42/96 68/43/97 40/44/98
f 58/45/99 53/46/100 56/47/101 57/48/102
f 46/49/103 48/50/104 47/51/105 42/52/106
f 48/53/107 50/54/108 49/55/109 47/56/110
f 47/57/111 69/58/112 42/59/113
f 56/60/114 61/61/115 60/62/116 59/63/117 57/64/118
f 75/144/119 76/145/120 67/146/121
f 45/68/122 67/69/123 52/70/124 51/71/125
f 49/72/126 69/73/127 47/74/128
f 58/75/129 71/76/130 49/77/131 50/78/132
f 59/79/133 26/80/134 70/81/135 71/76/136
f 59/79/137 71/76/138 58/75/139 57/82/140
f 62/108/141 26/80/142 60/83/143 61/109/144
f 49/85/145 71/86/146 70/87/147 69/88/148
f 43/89/149 29/90/150 37/91/151
f 44/92/152 73/93/153 67/94/154 68/95/155
f 51/96/156 52/97/157 48/98/158 46/99/159
f 56/47/160 53/46/161 54/100/162
f 61/61/163 64/101/164 63/102/165 62/103/166
f 55/104/167 66/105/168 65/106/169 64/101/170
f 55/104/171 64/101/172 61/61/173 56/60/174
f 25/107/175 74/84/176 62/108/177 63/110/178
f 65/112/179 25/107/180 63/110/181 64/114/182
f 72/111/183 65/112/184 73/113/185
f 73/113/186 66/115/187 55/116/188 75/141/189
f 73/113/190 65/112/191 66/115/192
f 52/118/193 67/66/194 76/143/195
f 72/120/196 73/93/197 38/121/198 36/122/199
f 38/121/200 73/93/201 44/92/202 39/123/203
f 40/44/204 45/124/205 41/125/206
f 40/44/207 68/43/208 45/124/209
f 41/125/210 51/126/211 46/49/212 42/52/213
f 41/125/214 45/124/215 51/126/216
f 68/127/217 67/69/218 45/68/219
f 50/128/220 53/46/221 58/45/222
f 48/98/223 52/97/224 53/46/225 50/128/226
f 42/129/227 69/130/228 29/90/229 43/89/230
f 31/131/231 40/132/232 41/32/233
f 31/131/234 41/32/235 37/31/236
f 32/133/237 38/134/238 39/135/239 40/132/240
f 32/133/241 40/132/242 31/131/243
f 36/136/244 38/134/245 35/137/246
f 35/137/247 38/134/248 32/133/249
f 36/136/250 35/137/251 34/138/252 27/139/253
f 37/140/254 33/30/255 32/29/256 31/28/257
f 33/40/258 35/39/259 32/27/260
f 34/38/261 33/40/262 30/26/263
f 30/35/264 33/30/265 37/140/266 29/36/267
f 56/47/268 54/100/269 55/25/270
f 60/83/271 26/80/272 59/79/273
f 54/65/274 76/143/275 75/142/276 55/67/277
f 52/118/278 76/143/279 54/65/280 53/119/281
f 73/113/282 75/141/283 67/117/284
f 72/111/285 25/107/286 65/112/287
f 74/84/288 26/80/289 62/108/290
