# This file uses meters as units for non-parametric coordinates.

v -81.302551 -51.216583 0.000000
v -81.302551 -51.216583 7.159424
v -81.302551 51.216568 0.000000
v -81.302551 51.216568 7.159424
v 81.302551 51.216568 0.000000
v 81.302551 51.216568 7.159424
v 81.302551 -51.216583 0.000000
v 81.302551 -51.216583 7.159424
v 75.063477 -45.345978 7.159424
v -75.063538 -45.345978 7.159424
v 75.063477 45.345947 7.159424
v -75.063538 45.345947 7.159424
v 75.063477 -45.345978 5.181152
v -75.063538 -45.345978 5.181152
v 75.063477 45.345947 5.181152
v -75.063538 45.345947 5.181152
vt 0.081238 0.303848
vt 0.081238 0.303848
vt 0.081238 0.303848
vt 0.081238 0.303848
vt 0.081238 0.303848
vt 0.081238 0.303848
vt 0.081238 0.303848
vt 0.081238 0.303848
vt 0.081238 0.303848
vt 0.081238 0.303848
vt 0.081238 0.303848
vt 0.081238 0.303848
vt 0.081238 0.303848
vt 0.081238 0.303848
vt 0.081238 0.303848
vt 0.081238 0.303848
vn -1.000000 0.000000 0.000000
vn -1.000000 0.000000 0.000000
vn -1.000000 0.000000 0.000000
vn -1.000000 0.000000 0.000000
vn 0.000000 1.000000 0.000000
vn 0.000000 1.000000 0.000000
vn 0.000000 1.000000 0.000000
vn 0.000000 1.000000 0.000000
vn 1.000000 0.000000 0.000000
vn 1.000000 0.000000 0.000000
vn 1.000000 0.000000 0.000000
vn 1.000000 0.000000 0.000000
vn 0.000000 -1.000000 0.000000
vn 0.000000 -1.000000 0.000000
vn 0.000000 -1.000000 0.000000
vn 0.000000 -1.000000 0.000000
vn 0.000000 0.000000 -1.000000
vn 0.000000 0.000000 -1.000000
vn 0.000000 0.000000 -1.000000
vn 0.000000 0.000000 -1.000000
vn 0.000000 0.000000 1.000000
vn 0.000000 0.000000 1.000000
vn 0.000000 0.000000 1.000000
vn 0.000000 0.000000 1.000000
vn 0.000000 0.000000 1.000000
vn 0.000000 0.000000 1.000000
vn 0.000000 0.000000 1.000000
vn 0.000000 0.000000 1.000000
vn 0.000000 0.000000 1.000000
vn 0.000000 0.000000 1.000000
vn 0.000000 0.000000 1.000000
vn 0.000000 0.000000 1.000000
vn 0.000000 0.000000 1.000000
vn 0.000000 0.000000 1.000000
vn 0.000000 0.000000 1.000000
vn 0.000000 0.000000 1.000000
vn 0.000000 1.000000 0.000000
vn 0.000000 1.000000 0.000000
vn 0.000000 1.000000 0.000000
vn 0.000000 1.000000 0.000000
vn -1.000000 0.000000 0.000000
vn -1.000000 0.000000 0.000000
vn -1.000000 0.000000 0.000000
vn -1.000000 0.000000 0.000000
vn 0.000000 -1.000000 0.000000
vn 0.000000 -1.000000 0.000000
vn 0.000000 -1.000000 0.000000
vn 0.000000 -1.000000 0.000000
vn 1.000000 0.000000 0.000000
vn 1.000000 0.000000 0.000000
vn 1.000000 0.000000 0.000000
vn 1.000000 0.000000 0.000000
s off
f 1/1/1 2/2/2 4/3/3 3/4/4
f 3/4/5 4/3/6 6/5/7 5/6/8
f 5/6/9 6/5/10 8/7/11 7/8/12
f 7/8/13 8/7/14 2/2/15 1/1/16
f 7/8/17 1/1/18 3/4/19 5/6/20
f 2/2/21 8/7/22 9/9/23 10/10/24
f 8/7/25 6/5/26 11/11/27 9/9/28
f 6/5/29 4/3/30 12/12/31 11/11/32
f 4/3/33 2/2/34 10/10/35 12/12/36
f 10/10/37 9/9/38 13/13/39 14/14/40
f 9/9/41 11/11/42 15/15/43 13/13/44
f 11/11/45 12/12/46 16/16/47 15/15/48
f 12/12/49 10/10/50 14/14/51 16/16/52
v 73.457764 -43.590645 6.537109
v -73.457825 -43.590645 6.537109
v 73.457764 43.590622 6.537109
v -73.457825 43.590622 6.537109
v -75.063538 -45.345978 5.181152
v 75.063477 -45.345978 5.181152
v 75.063477 45.345947 5.181152
v -75.063538 45.345947 5.181152
vt 0.546046 0.043373
vt 0.959898 0.043373
vt 0.959897 0.454403
vt 0.546046 0.454403
vt 0.541523 0.035097
vt 0.964421 0.035097
vt 0.964421 0.462679
vt 0.541523 0.462679
vn 0.000000 0.000000 1.000000
vn 0.000000 0.000000 1.000000
vn 0.000000 0.000000 1.000000
vn 0.000000 0.000000 1.000000
vn 0.000000 -0.611324 0.791381
vn 0.000000 -0.611324 0.791381
vn 0.000000 -0.611324 0.791381
vn 0.000000 -0.611324 0.791381
vn 0.645187 0.000000 0.764025
vn 0.645187 0.000000 0.764025
vn 0.645187 0.000000 0.764025
vn 0.645187 0.000000 0.764025
vn 0.000000 0.611326 0.791379
vn 0.000000 0.611326 0.791379
vn 0.000000 0.611326 0.791379
vn 0.000000 0.611326 0.791379
vn -0.645187 0.000000 0.764025
vn -0.645187 0.000000 0.764025
vn -0.645187 0.000000 0.764025
vn -0.645187 0.000000 0.764025
s off
f 18/17/53 17/18/54 19/19/55 20/20/56
f 21/21/57 22/22/58 17/18/59 18/17/60
f 22/22/61 23/23/62 19/19/63 17/18/64
f 23/23/65 24/24/66 20/20/67 19/19/68
f 24/24/69 21/21/70 18/17/71 20/20/72
