# This file uses meters as units for non-parametric coordinates.

v -6.035156 0.000000 0.000122
v -5.459595 0.849678 2.749634
v -6.035156 17.814194 0.000122
v -5.459595 16.964523 2.749634
v 6.035645 17.814194 0.000122
v 5.459839 16.964523 2.749634
v 6.035645 0.000000 0.000122
v 5.459839 0.849678 2.749634
v 1.855835 4.091530 2.749634
v -1.855591 4.091530 2.749634
v 1.855835 13.722679 2.749634
v -1.855591 13.722679 2.749634
v -1.855591 6.766647 2.749634
v 1.855835 6.766647 2.749634
v -1.855591 11.047554 2.749634
v 1.855835 11.047554 2.749634
v -1.561035 11.484032 4.015259
v 1.561279 11.484032 4.015259
v 1.561279 13.649429 3.202881
v -1.560913 13.649429 3.202881
v 1.561279 4.528000 4.015259
v -1.560913 4.528000 4.015259
v 1.561279 6.693405 3.202881
v -1.560913 6.693405 3.202881
vt 0.068142 0.380744
vt 0.068142 0.380744
vt 0.068142 0.380744
vt 0.068142 0.380744
vt 0.068142 0.380744
vt 0.068142 0.380744
vt 0.068142 0.380744
vt 0.068142 0.380744
vt 0.068142 0.380744
vt 0.068142 0.380744
vt 0.068142 0.380744
vt 0.068142 0.380744
vt 0.068142 0.380744
vt 0.068142 0.380744
vt 0.068142 0.380744
vt 0.068142 0.380744
vt 0.068142 0.380744
vt 0.068142 0.380744
vt 0.068142 0.380744
vt 0.068142 0.380744
vt 0.068142 0.380744
vt 0.068142 0.380744
vt 0.068142 0.380744
vt 0.068142 0.380744
vt 0.068142 0.380744
vt 0.068142 0.380744
vt 0.068142 0.380744
vt 0.068142 0.380744
vt 0.068142 0.380744
vt 0.068142 0.380744
vn -0.978785 0.000000 0.204891
vn -0.978785 0.000000 0.204891
vn -0.978785 0.000000 0.204891
vn -0.978785 0.000000 0.204891
vn 0.000000 0.955420 0.295250
vn 0.000000 0.955420 0.295250
vn 0.000000 0.955420 0.295250
vn 0.000000 0.955420 0.295250
vn 0.978767 0.000000 0.204974
vn 0.978767 0.000000 0.204974
vn 0.978767 0.000000 0.204974
vn 0.978767 0.000000 0.204974
vn 0.000000 -0.955419 0.295252
vn 0.000000 -0.955419 0.295252
vn 0.000000 -0.955419 0.295252
vn 0.000000 -0.955419 0.295252
vn 0.000000 0.351257 0.936279
vn 0.000000 0.351257 0.936279
vn 0.000000 0.351257 0.936279
vn 0.000000 0.351258 0.936279
vn 0.000000 0.000000 -1.000000
vn 0.000000 0.000000 -1.000000
vn 0.000000 0.000000 -1.000000
vn 0.000000 0.000000 -1.000000
vn 0.000000 0.000000 1.000000
vn 0.000000 0.000000 1.000000
vn 0.000000 0.000000 1.000000
vn 0.000000 0.000000 1.000000
vn 0.000000 0.000000 1.000000
vn 0.000000 0.000000 1.000000
vn 0.000000 0.000000 1.000000
vn 0.000000 0.000000 1.000000
vn 0.000000 0.000000 1.000000
vn 0.000000 0.000000 1.000000
vn 0.000000 0.000000 1.000000
vn 0.000000 0.000000 1.000000
vn 0.000000 0.000000 1.000000
vn 0.000000 0.000000 1.000000
vn -0.000000 0.000000 1.000000
vn -0.000000 0.000000 1.000000
vn -0.000000 0.000000 1.000000
vn -0.000000 0.000000 1.000000
vn -0.000000 0.000000 1.000000
vn -0.000000 0.000000 1.000000
vn 0.000000 0.351257 0.936279
vn 0.000000 0.351257 0.936279
vn 0.000000 0.351257 0.936279
vn 0.000000 0.351257 0.936279
vn 0.000000 0.000000 1.000000
vn 0.000000 0.000000 1.000000
vn 0.000000 0.000000 1.000000
vn 0.000000 0.000000 1.000000
vn 0.000000 -0.945360 0.326027
vn 0.000000 -0.945360 0.326027
vn 0.000000 -0.945361 0.326027
vn 0.000000 -0.945361 0.326027
vn 0.948030 0.052663 0.313791
vn 0.948030 0.052663 0.313791
vn 0.948030 0.052663 0.313791
vn 0.948030 0.052663 0.313791
vn 0.000000 0.987191 0.159541
vn 0.000000 0.987191 0.159541
vn 0.000000 0.987191 0.159541
vn 0.000000 0.987191 0.159541
vn -0.948011 0.052696 0.313845
vn -0.948011 0.052696 0.313845
vn -0.948011 0.052696 0.313845
vn -0.948011 0.052696 0.313845
vn 0.000000 -0.945362 0.326022
vn 0.000000 -0.945362 0.326023
vn 0.000000 -0.945362 0.326023
vn 0.000000 -0.945362 0.326023
vn 0.948031 0.052663 0.313791
vn 0.948030 0.052663 0.313791
vn 0.948030 0.052663 0.313791
vn 0.948031 0.052663 0.313791
vn 0.000000 0.987194 0.159525
vn 0.000000 0.987194 0.159525
vn 0.000000 0.987194 0.159525
vn 0.000000 0.987194 0.159525
vn -0.947991 0.052683 0.313908
vn -0.947991 0.052683 0.313908
vn -0.947991 0.052683 0.313908
vn -0.947991 0.052683 0.313908
s off
f 1/1/1 2/2/2 4/4/3 3/3/4
f 3/3/5 4/4/6 6/6/7 5/5/8
f 5/5/9 6/6/10 8/8/11 7/7/12
f 7/7/13 8/8/14 2/10/15 1/9/16
f 17/23/17 18/24/18 19/25/19 20/26/20
f 7/13/21 1/1/22 3/3/23 5/14/24
f 2/2/25 8/11/26 9/16/27 10/15/28
f 8/11/29 6/12/30 11/17/31 16/22/32 14/20/33 9/16/34
f 6/12/35 4/4/36 12/18/37 11/17/38
f 4/4/39 2/2/40 10/15/41 13/19/42 15/21/43 12/18/44
f 22/27/45 21/28/46 23/29/47 24/30/48
f 14/20/49 16/22/50 15/21/51 13/19/52
f 15/21/53 16/22/54 18/24/55 17/23/56
f 16/22/57 11/17/58 19/25/59 18/24/60
f 11/17/61 12/18/62 20/26/63 19/25/64
f 12/18/65 15/21/66 17/23/67 20/26/68
f 10/15/69 9/16/70 21/28/71 22/27/72
f 9/16/73 14/20/74 23/29/75 21/28/76
f 14/20/77 13/19/78 24/30/79 23/29/80
f 13/19/81 10/15/82 22/27/83 24/30/84
