# This file uses meters as units for non-parametric coordinates.

v -13.377625 0.000000 -15.239746
v -13.377625 0.000000 13.033142
v -13.377625 45.839512 -15.239746
v -13.377625 45.839512 13.033142
v 13.377747 45.839512 -15.239746
v 13.377747 45.839512 13.033142
v 13.377747 0.000000 -15.239746
v 13.377747 0.000000 13.033142
v 11.416382 1.413006 15.239624
v -11.416626 1.413006 15.239624
v 11.416382 44.426502 15.239624
v -11.416626 44.426502 15.239624
v 6.306030 11.716258 15.239624
v -6.305908 11.716258 15.239624
v 6.306030 24.328323 15.239624
v -6.305908 24.328323 15.239624
v 0.000061 26.940369 15.239624
v -8.918091 18.022293 15.239624
v 0.000061 9.104217 15.239624
v 8.917847 18.022293 15.239624
v -2.662781 20.684845 13.025330
v 0.000061 21.787699 13.025330
v 0.000061 18.022293 13.025330
v -3.765564 18.022293 13.025330
v -2.662781 15.359742 13.025330
v 0.000061 14.256887 13.025330
v 2.662537 15.359742 13.025330
v 3.765320 18.022293 13.025330
v 2.662537 20.684845 13.025330
v 3.011475 29.934757 15.239624
v 3.011475 40.366669 15.239624
v -3.011475 29.934757 15.239624
v -6.022888 35.150715 15.239624
v -3.011475 40.366669 15.239624
v 6.022827 35.150715 15.239624
v -1.338989 37.469902 14.089111
v 1.339050 37.469902 14.089111
v -2.678040 35.150715 14.089111
v -1.338989 32.831474 14.089111
v 1.339050 32.831474 14.089111
v 2.678162 35.150715 14.089111
v 0.000061 35.150715 14.089111
v 9.618774 3.518564 -15.239746
v -9.618652 3.518564 -15.239746
v -9.618652 18.561710 -15.239746
v 9.618774 18.561710 -15.239746
v 8.356140 4.571201 -13.413086
v -8.355957 4.571201 -13.413086
v -8.355957 17.509075 -13.413086
v 8.356140 17.509075 -13.413086
vt 0.088258 0.302121
vt 0.088258 0.302121
vt 0.088258 0.302121
vt 0.088258 0.302121
vt 0.088258 0.302121
vt 0.088258 0.302121
vt 0.088258 0.302121
vt 0.088258 0.302121
vt 0.088258 0.302121
vt 0.088258 0.302121
vt 0.080561 0.303653
vt 0.080561 0.303653
vt 0.088258 0.302121
vt 0.088258 0.302121
vt 0.080561 0.303651
vt 0.080561 0.303651
vt 0.080561 0.303653
vt 0.080561 0.303653
vt 0.080561 0.303651
vt 0.080561 0.303651
vt 0.080561 0.303653
vt 0.080561 0.303653
vt 0.080561 0.303651
vt 0.080561 0.303651
vt 0.080561 0.303651
vt 0.080561 0.303652
vt 0.080561 0.303653
vt 0.080561 0.303652
vt 0.079651 0.230839
vt 0.079651 0.230839
vt 0.134338 0.302811
vt 0.079651 0.230843
vt 0.079651 0.230843
vt 0.079651 0.230843
vt 0.079651 0.230843
vt 0.079651 0.230843
vt 0.079651 0.230839
vt 0.079651 0.230839
vt 0.079651 0.230839
vt 0.079651 0.230843
vt 0.079651 0.230843
vt 0.079651 0.230843
vt 0.079651 0.230843
vt 0.079651 0.230843
vt 0.079651 0.230839
vt 0.134338 0.302811
vt 0.134338 0.302811
vt 0.134338 0.302811
vt 0.134338 0.302812
vt 0.134338 0.302812
vt 0.134338 0.302812
vt 0.134338 0.302811
vt 0.134338 0.302811
vt 0.080561 0.303651
vt 0.080561 0.303651
vt 0.080561 0.303651
vt 0.080561 0.303651
vt 0.080561 0.303651
vt 0.080561 0.303651
vt 0.082275 0.229580
vt 0.082275 0.229580
vt 0.082275 0.229580
vt 0.082275 0.229580
vt 0.082275 0.229580
vt 0.082275 0.229580
vt 0.082275 0.229580
vt 0.082275 0.229580
vt 0.082275 0.229580
vt 0.082275 0.229580
vt 0.082275 0.229580
vt 0.082275 0.229580
vt 0.132385 0.309408
vt 0.132385 0.309410
vt 0.132385 0.309410
vt 0.132385 0.309410
vt 0.132385 0.309408
vt 0.132385 0.309408
vt 0.132385 0.309409
vt 0.088258 0.302121
vt 0.088258 0.302121
vt 0.088258 0.302121
vt 0.088258 0.302121
vt 0.088258 0.302121
vt 0.088258 0.302121
vt 0.088258 0.302121
vt 0.088258 0.302121
vt 0.091492 0.230239
vt 0.091492 0.230239
vt 0.091492 0.230238
vt 0.091492 0.230238
vn -1.000000 0.000000 0.000000
vn -1.000000 0.000000 0.000000
vn -1.000000 0.000000 0.000000
vn -1.000000 0.000000 0.000000
vn 0.000000 1.000000 0.000000
vn 0.000000 1.000000 0.000000
vn 0.000000 1.000000 0.000000
vn 0.000000 1.000000 0.000000
vn 1.000000 0.000000 0.000000
vn 1.000000 0.000000 0.000000
vn 1.000000 0.000000 0.000000
vn 1.000000 0.000000 0.000000
vn 0.000000 -1.000000 0.000000
vn 0.000000 -1.000000 0.000000
vn 0.000000 -1.000000 0.000000
vn 0.000000 -1.000000 0.000000
vn 0.000000 0.000000 -1.000000
vn 0.000000 0.000000 -1.000000
vn 0.000000 0.000000 -1.000000
vn 0.000000 0.000000 -1.000000
vn 0.000000 -0.842123 0.539286
vn 0.000000 -0.842123 0.539286
vn 0.000000 -0.842123 0.539286
vn 0.000000 -0.842123 0.539286
vn 0.747401 0.000000 0.664373
vn 0.747401 0.000000 0.664373
vn 0.747401 0.000000 0.664373
vn 0.747401 0.000000 0.664373
vn 0.000000 0.842122 0.539287
vn 0.000000 0.842122 0.539287
vn 0.000000 0.842122 0.539287
vn 0.000000 0.842122 0.539287
vn -0.747463 0.000000 0.664304
vn -0.747463 0.000000 0.664303
vn -0.747463 0.000000 0.664303
vn -0.747463 0.000000 0.664303
vn 0.000000 0.000000 1.000000
vn 0.000000 0.000000 1.000000
vn 0.000000 0.000000 1.000000
vn -0.000001 0.000000 1.000000
vn -0.000001 0.000000 1.000000
vn -0.000001 0.000000 1.000000
vn 0.000000 0.000000 1.000000
vn 0.000000 0.000000 1.000000
vn 0.000000 0.000000 1.000000
vn 0.000000 0.000000 1.000000
vn 0.000000 0.000000 1.000000
vn 0.000000 0.000000 1.000000
vn 0.000000 0.000000 1.000000
vn 0.000000 0.000000 1.000000
vn 0.000000 0.000000 1.000000
vn 0.000000 0.000000 1.000000
vn 0.000000 0.000000 1.000000
vn 0.000000 0.000000 1.000000
vn 0.000000 0.000000 1.000000
vn 0.000000 0.000000 1.000000
vn 0.000000 0.000000 1.000000
vn 0.000000 0.000000 1.000000
vn 0.000000 0.000000 1.000000
vn 0.000000 0.000000 1.000000
vn 0.000000 0.000000 1.000000
vn 0.000000 0.000000 1.000000
vn 0.000000 0.000000 1.000000
vn 0.000000 0.000000 1.000000
vn -0.000001 0.000000 1.000000
vn -0.000001 0.000000 1.000000
vn -0.000001 0.000000 1.000000
vn 0.000000 0.000000 1.000000
vn 0.000000 0.000000 1.000000
vn 0.000000 0.000000 1.000000
vn 0.000000 0.000000 1.000000
vn 0.000000 0.000000 1.000000
vn 0.000000 0.000000 1.000000
vn 0.000000 0.000000 1.000000
vn 0.000000 0.000000 1.000000
vn 0.000000 0.000000 1.000000
vn 0.000000 0.000000 1.000000
vn 0.000000 0.000000 1.000000
vn 0.000000 0.000000 1.000000
vn 0.000000 0.000000 1.000000
vn 0.000000 0.000000 1.000000
vn 0.000000 0.000000 1.000000
vn 0.000000 0.000000 1.000000
vn 0.000000 0.000000 1.000000
vn 0.000000 0.000000 1.000000
vn 0.000001 0.000000 1.000000
vn 0.000001 0.000000 1.000000
vn 0.000001 0.000000 1.000000
vn 0.161395 -0.389654 0.906709
vn 0.161395 -0.389654 0.906709
vn 0.161395 -0.389654 0.906709
vn 0.161395 -0.389654 0.906709
vn 0.389663 -0.161406 0.906703
vn 0.389663 -0.161406 0.906703
vn 0.389663 -0.161406 0.906703
vn 0.389663 -0.161406 0.906703
vn 0.389663 0.161406 0.906703
vn 0.389663 0.161406 0.906704
vn 0.389663 0.161406 0.906703
vn 0.389663 0.161406 0.906703
vn 0.161395 0.389654 0.906709
vn 0.161395 0.389654 0.906709
vn 0.161395 0.389654 0.906709
vn 0.161395 0.389654 0.906709
vn -0.161399 0.389647 0.906711
vn -0.161399 0.389647 0.906711
vn -0.161399 0.389647 0.906711
vn -0.161399 0.389647 0.906711
vn -0.389657 0.161388 0.906709
vn -0.389657 0.161388 0.906709
vn -0.389657 0.161388 0.906709
vn -0.389657 0.161388 0.906709
vn -0.389657 -0.161388 0.906709
vn -0.389657 -0.161388 0.906709
vn -0.389657 -0.161388 0.906709
vn -0.389657 -0.161388 0.906709
vn -0.161399 -0.389647 0.906711
vn -0.161399 -0.389647 0.906711
vn -0.161399 -0.389647 0.906711
vn -0.161399 -0.389647 0.906711
vn 0.000000 0.000000 1.000000
vn 0.000000 0.000000 1.000000
vn 0.000000 0.000000 1.000000
vn 0.000000 0.000000 1.000000
vn 0.000000 0.000000 1.000000
vn 0.000000 0.000000 1.000000
vn 0.000000 0.000000 1.000000
vn 0.000000 0.000000 1.000000
vn 0.000000 0.000000 1.000000
vn 0.000000 -0.369123 0.929381
vn 0.000000 -0.369123 0.929381
vn 0.000000 -0.369123 0.929381
vn 0.000000 -0.369123 0.929381
vn 0.319670 -0.184564 0.929380
vn 0.319670 -0.184564 0.929380
vn 0.319670 -0.184564 0.929380
vn 0.319670 -0.184564 0.929380
vn 0.319671 0.184563 0.929380
vn 0.319671 0.184563 0.929380
vn 0.319671 0.184563 0.929380
vn 0.319671 0.184563 0.929380
vn 0.000000 0.369129 0.929378
vn 0.000000 0.369129 0.929378
vn 0.000000 0.369129 0.929378
vn 0.000000 0.369129 0.929378
vn -0.319682 0.184569 0.929375
vn -0.319682 0.184569 0.929375
vn -0.319682 0.184569 0.929375
vn -0.319682 0.184569 0.929375
vn -0.319680 -0.184570 0.929375
vn -0.319680 -0.184570 0.929375
vn -0.319680 -0.184570 0.929375
vn -0.319680 -0.184570 0.929375
vn 0.000000 0.000000 1.000000
vn 0.000000 0.000000 1.000000
vn 0.000000 0.000000 1.000000
vn 0.000000 0.000000 1.000000
vn 0.000000 0.000000 1.000000
vn 0.000000 0.000000 1.000000
vn 0.000000 0.000000 1.000000
vn 0.000000 0.000000 1.000000
vn 0.000000 0.000000 1.000000
vn 0.000000 0.000000 1.000000
vn 0.000000 0.000000 1.000000
vn 0.000000 0.000000 1.000000
vn 0.000000 0.000000 1.000000
vn 0.000000 0.000000 1.000000
vn 0.000000 0.000000 1.000000
vn 0.000000 0.000000 1.000000
vn 0.000000 0.000000 1.000000
vn 0.000000 0.000000 1.000000
vn -0.000000 0.000000 1.000000
vn -0.000000 0.000000 1.000000
vn -0.000000 0.000000 1.000000
vn 0.000000 0.000000 1.000000
vn 0.000000 0.000000 1.000000
vn 0.000000 0.000000 1.000000
vn 0.000000 0.000000 1.000000
vn 0.000000 0.000000 1.000000
vn 0.000000 0.000000 1.000000
vn 0.000000 0.000000 1.000000
vn 0.000000 0.000000 1.000000
vn 0.000000 0.000000 1.000000
vn 0.000000 0.000000 1.000000
vn 0.000000 0.000000 1.000000
vn -0.000001 0.000000 1.000000
vn -0.000001 0.000000 1.000000
vn -0.000001 0.000000 1.000000
vn 0.000000 0.000000 -1.000000
vn 0.000000 0.000000 -1.000000
vn 0.000000 0.000000 -1.000000
vn 0.000000 0.000000 -1.000000
vn 0.000000 0.000000 -1.000000
vn 0.000000 0.000000 -1.000000
vn 0.000000 0.000000 -1.000000
vn 0.000000 0.000000 -1.000000
vn 0.000000 0.000000 -1.000000
vn 0.000000 0.000000 -1.000000
vn 0.000000 0.000000 -1.000000
vn 0.000000 0.000000 -1.000000
vn -0.000000 0.000000 -1.000000
vn -0.000000 0.000000 -1.000000
vn -0.000000 0.000000 -1.000000
vn -0.000000 0.000000 -1.000000
vn 0.000000 0.866433 -0.499293
vn 0.000000 0.866433 -0.499293
vn 0.000000 0.866433 -0.499293
vn 0.000000 0.866433 -0.499293
vn 0.822596 0.000000 -0.568627
vn 0.822596 0.000000 -0.568627
vn 0.822596 0.000000 -0.568627
vn 0.822596 0.000000 -0.568627
vn 0.000000 -0.866434 -0.499293
vn 0.000000 -0.866434 -0.499293
vn 0.000000 -0.866433 -0.499293
vn 0.000000 -0.866434 -0.499293
vn -0.822609 0.000000 -0.568608
vn -0.822609 0.000000 -0.568608
vn -0.822609 0.000000 -0.568608
vn -0.822609 0.000000 -0.568608
s off
f 1/1/1 2/2/2 4/4/3 3/3/4
f 3/3/5 4/4/6 6/6/7 5/5/8
f 5/5/9 6/6/10 8/8/11 7/7/12
f 7/7/13 8/8/14 2/10/15 1/9/16
f 47/87/17 48/88/18 49/89/19 50/90/20
f 2/17/21 8/18/22 9/12/23 10/11/24
f 8/18/25 6/19/26 11/15/27 9/12/28
f 6/19/29 4/20/30 12/16/31 11/15/32
f 4/20/33 2/17/34 10/11/35 12/16/36
f 10/11/37 19/27/38 14/21/39
f 9/12/40 20/28/41 13/22/42
f 34/58/43 12/16/44 33/57/45
f 18/26/46 10/11/47 14/21/48
f 12/16/49 10/11/50 18/26/51
f 19/27/52 9/12/53 13/22/54
f 10/11/55 9/12/56 19/27/57
f 15/23/58 20/28/59 11/15/60 35/59/61
f 9/12/62 11/15/63 20/28/64
f 22/31/65 21/46/66 23/47/67
f 21/46/68 24/48/69 23/47/70
f 24/48/71 25/49/72 23/47/73
f 25/49/74 26/50/75 23/47/76
f 26/50/77 27/51/78 23/47/79
f 27/51/80 28/52/81 23/47/82
f 28/52/83 29/53/84 23/47/85
f 29/53/86 22/31/87 23/47/88
f 17/29/89 16/30/90 21/39/91 22/38/92
f 16/30/93 18/32/94 24/40/95 21/39/96
f 18/32/97 14/33/98 25/41/99 24/40/100
f 14/33/101 19/34/102 26/42/103 25/41/104
f 19/34/105 13/35/106 27/43/107 26/42/108
f 13/35/109 20/36/110 28/44/111 27/43/112
f 20/36/113 15/37/114 29/45/115 28/44/116
f 15/37/117 17/29/118 22/38/119 29/45/120
f 39/75/121 42/78/122 38/74/123
f 32/56/124 33/57/125 16/24/126
f 35/59/127 11/15/128 31/55/129
f 31/60/130 34/61/131 36/67/132 37/66/133
f 34/61/134 33/62/135 38/68/136 36/67/137
f 33/62/138 32/63/139 39/69/140 38/68/141
f 32/63/142 30/64/143 40/70/144 39/69/145
f 30/64/146 35/65/147 41/71/148 40/70/149
f 35/65/150 31/60/151 37/66/152 41/71/153
f 37/72/154 36/73/155 42/78/156
f 41/77/157 42/78/158 40/76/159
f 40/76/160 42/78/161 39/75/162
f 42/78/163 36/73/164 38/74/165
f 37/72/166 42/78/167 41/77/168
f 30/54/169 32/56/170 17/25/171
f 17/25/172 32/56/173 16/24/174
f 30/54/175 17/25/176 15/23/177
f 16/24/178 33/57/179 12/16/180 18/26/181
f 11/15/182 12/16/183 34/58/184 31/55/185
f 35/59/186 30/54/187 15/23/188
f 7/13/189 1/1/190 44/80/191 43/79/192
f 1/1/193 3/3/194 45/81/195 44/80/196
f 3/3/197 5/14/198 46/82/199 45/81/200
f 5/14/201 7/13/202 43/79/203 46/82/204
f 43/79/205 44/80/206 48/84/207 47/83/208
f 44/80/209 45/81/210 49/85/211 48/84/212
f 45/81/213 46/82/214 50/86/215 49/85/216
f 46/82/217 43/79/218 47/83/219 50/86/220
