# This file uses meters as units for non-parametric coordinates.

v -6.680298 -0.327862 -15.359497
v -6.680298 -0.327862 13.317627
v 5.607422 30.598831 -15.359497
v 5.607422 30.598831 13.317627
v -1.272827 33.332466 -15.359497
v -1.272827 33.332466 13.317627
v -13.560547 2.405773 -15.359497
v -13.560547 2.405773 13.317627
v 4.578857 31.007484 -15.359497
v -0.244507 32.923912 -15.359497
v -0.244507 32.923912 11.656006
v 4.578857 31.007484 11.656128
v -13.542236 0.000000 -15.359497
v -13.542236 0.000000 13.317627
v -13.542236 33.278351 -15.359497
v -13.542236 33.278351 13.317627
v -22.048218 33.278351 -15.359497
v -22.048218 33.278351 13.317627
v -22.048218 0.000000 -15.359497
v -22.048218 0.000000 13.317627
v -14.813721 33.278351 -15.359497
v -20.776855 33.278351 -15.359497
v -20.776855 33.278351 11.656006
v -14.813721 33.278351 11.656128
v -22.308594 0.000000 -13.317627
v -22.308594 0.000000 15.359375
v -22.308594 30.185516 -13.317627
v -22.308594 30.185516 15.359375
v -28.662231 30.185516 -13.317627
v -28.662231 30.185516 15.359375
v -28.662231 0.000000 -13.317627
v -28.662231 0.000000 15.359375
v -23.258423 30.185516 -13.317627
v -27.712646 30.185516 -13.317627
v -27.712646 30.185516 13.697754
v -23.258423 30.185516 13.697998
v 3.589478 -0.316605 -13.469971
v 3.589478 -0.316605 15.207275
v 13.742676 31.375019 -13.469971
v 13.742676 31.375019 15.207275
v 6.692383 33.633808 -13.469971
v 6.692383 33.633808 15.207275
v -3.460938 1.942184 -13.469971
v -3.460938 1.942184 15.207275
v 12.688721 31.712692 -13.469971
v 7.746094 33.296227 -13.469971
v 7.746094 33.296227 13.545654
v 12.688721 31.712692 13.545654
v 13.318115 -0.141048 -15.359497
v 13.318115 -0.141048 13.317627
v 21.587280 32.093563 -15.359497
v 21.587280 32.093563 13.317627
v 14.416138 33.933182 -15.359497
v 14.416138 33.933182 13.317627
v 6.146973 1.698568 -15.359497
v 6.146973 1.698568 13.317627
v 20.515259 32.368572 -15.359497
v 15.487915 33.658241 -15.359497
v 15.487915 33.658241 11.656006
v 20.515259 32.368572 11.656128
v 28.662354 0.000000 -14.714111
v 28.662354 0.000000 13.963013
v 28.662354 33.278351 -14.714111
v 28.662354 33.278351 13.963013
v 21.843872 33.278351 -14.714111
v 21.843872 33.278351 13.963013
v 21.843872 0.000000 -14.714111
v 21.843872 0.000000 13.963013
v 27.642944 33.278351 -14.714111
v 22.862915 33.278351 -14.714111
v 22.862915 33.278351 12.301270
v 27.642944 33.278351 12.301514
v 28.662354 27.329580 13.963013
v 21.843872 27.329580 13.963013
v 21.843872 23.315247 13.963013
v 28.662354 23.315247 13.963013
vt 0.069823 0.327498
vt 0.069823 0.327498
vt 0.069823 0.327498
vt 0.069823 0.327498
vt 0.069823 0.327498
vt 0.069823 0.327498
vt 0.069823 0.327498
vt 0.069823 0.327498
vt 0.037598 0.374821
vt 0.037598 0.374821
vt 0.069823 0.327498
vt 0.069823 0.327498
vt 0.069823 0.327498
vt 0.069823 0.327498
vt 0.069823 0.327498
vt 0.069823 0.327498
vt 0.069823 0.327498
vt 0.069823 0.327498
vt 0.069823 0.327498
vt 0.069823 0.327498
vt 0.039307 0.372169
vt 0.039307 0.372169
vt 0.039307 0.372169
vt 0.039307 0.372169
vt 0.037598 0.374821
vt 0.037598 0.374821
vt 0.037598 0.374821
vt 0.037598 0.374821
vt 0.201368 0.472709
vt 0.201368 0.472709
vt 0.201368 0.472709
vt 0.201368 0.472709
vt 0.201368 0.472709
vt 0.201368 0.472709
vt 0.201368 0.472709
vt 0.201368 0.472709
vt 0.201368 0.472709
vt 0.201368 0.472709
vt 0.037598 0.374821
vt 0.037598 0.374821
vt 0.037598 0.374821
vt 0.037598 0.374821
vt 0.201368 0.472709
vt 0.201368 0.472709
vt 0.037598 0.374821
vt 0.037598 0.374821
vt 0.201368 0.472709
vt 0.201368 0.472709
vt 0.201368 0.472709
vt 0.201368 0.472709
vt 0.201368 0.472709
vt 0.201368 0.472709
vt 0.039307 0.372169
vt 0.039307 0.372169
vt 0.039307 0.372169
vt 0.039307 0.372169
vt 0.290745 0.450731
vt 0.290745 0.450731
vt 0.290745 0.450731
vt 0.290745 0.450731
vt 0.290745 0.450731
vt 0.290745 0.450731
vt 0.290745 0.450731
vt 0.290745 0.450731
vt 0.290745 0.450731
vt 0.290745 0.450731
vt 0.037598 0.374821
vt 0.037598 0.374821
vt 0.037598 0.374821
vt 0.037598 0.374821
vt 0.290745 0.450731
vt 0.290745 0.450731
vt 0.037598 0.374821
vt 0.037598 0.374821
vt 0.290745 0.450731
vt 0.290745 0.450731
vt 0.290745 0.450731
vt 0.290745 0.450731
vt 0.290745 0.450731
vt 0.290745 0.450731
vt 0.039307 0.372169
vt 0.039307 0.372169
vt 0.039307 0.372169
vt 0.039307 0.372169
vt 0.017017 0.329810
vt 0.017017 0.329810
vt 0.017017 0.329811
vt 0.017017 0.329810
vt 0.017017 0.329810
vt 0.017017 0.329810
vt 0.017017 0.329810
vt 0.017017 0.329810
vt 0.017017 0.329810
vt 0.017017 0.329810
vt 0.037598 0.374821
vt 0.037598 0.374821
vt 0.037598 0.374821
vt 0.037598 0.374821
vt 0.017017 0.329810
vt 0.017017 0.329810
vt 0.037598 0.374821
vt 0.037598 0.374821
vt 0.017017 0.329810
vt 0.017017 0.329810
vt 0.017017 0.329810
vt 0.017017 0.329810
vt 0.017017 0.329810
vt 0.017017 0.329810
vt 0.039307 0.372169
vt 0.039307 0.372169
vt 0.039307 0.372169
vt 0.039307 0.372169
vt 0.155316 0.472503
vt 0.155316 0.472503
vt 0.155316 0.472503
vt 0.155316 0.472503
vt 0.155316 0.472503
vt 0.155316 0.472503
vt 0.155316 0.472503
vt 0.155316 0.472503
vt 0.155316 0.472503
vt 0.155316 0.472503
vt 0.037598 0.374821
vt 0.037598 0.374821
vt 0.037598 0.374821
vt 0.037598 0.374821
vt 0.155316 0.472503
vt 0.155316 0.472503
vt 0.037598 0.374821
vt 0.037598 0.374821
vt 0.155316 0.472503
vt 0.155316 0.472503
vt 0.155316 0.472503
vt 0.155316 0.472503
vt 0.155316 0.472503
vt 0.155316 0.472503
vt 0.039307 0.372169
vt 0.039307 0.372169
vt 0.039307 0.372169
vt 0.039307 0.372169
vt 0.322616 0.490394
vt 0.322616 0.490394
vt 0.322616 0.490394
vt 0.322616 0.490394
vt 0.322616 0.490394
vt 0.322616 0.490394
vt 0.322616 0.490394
vt 0.322616 0.490394
vt 0.322616 0.490394
vt 0.322616 0.490394
vt 0.322616 0.490394
vt 0.037598 0.374821
vt 0.037598 0.374821
vt 0.037598 0.374821
vt 0.037598 0.374821
vt 0.322616 0.490394
vt 0.322616 0.490394
vt 0.037598 0.374821
vt 0.037598 0.374821
vt 0.322616 0.490394
vt 0.322616 0.490394
vt 0.322616 0.490394
vt 0.322616 0.490394
vt 0.322616 0.490394
vt 0.322616 0.490394
vt 0.322616 0.490394
vt 0.039307 0.372169
vt 0.039307 0.372169
vt 0.039307 0.372169
vt 0.039307 0.372169
vt 0.322616 0.490394
vt 0.322616 0.490394
vt 0.322616 0.490394
vt 0.116793 0.378958
vt 0.116793 0.378958
vt 0.116793 0.378958
vt 0.116793 0.378958
vt 0.322616 0.490394
vn 0.929334 -0.369241 0.000000
vn 0.929334 -0.369241 0.000000
vn 0.929334 -0.369241 0.000000
vn 0.929334 -0.369241 0.000000
vn 0.369241 0.929334 0.000000
vn 0.369241 0.929334 0.000000
vn 0.369241 0.929334 0.000000
vn 0.369241 0.929334 0.000000
vn -0.929334 0.369241 0.000000
vn -0.929334 0.369241 0.000000
vn -0.929334 0.369241 0.000000
vn -0.929334 0.369241 0.000000
vn -0.369240 -0.929334 0.000000
vn -0.369240 -0.929334 0.000000
vn -0.369240 -0.929334 0.000000
vn -0.369240 -0.929334 0.000000
vn 0.000000 0.000000 1.000000
vn 0.000000 0.000000 1.000000
vn 0.000000 0.000000 1.000000
vn 0.000000 0.000000 1.000000
vn -0.000000 0.000000 -1.000000
vn -0.000000 0.000000 -1.000000
vn -0.000000 0.000000 -1.000000
vn -0.000000 0.000000 -1.000000
vn 0.369230 0.929338 0.000000
vn 0.369230 0.929338 0.000000
vn 0.369230 0.929338 0.000000
vn 0.369230 0.929338 0.000000
vn 0.369228 0.929339 0.000000
vn 0.369228 0.929339 0.000000
vn 0.369228 0.929339 0.000000
vn 0.369228 0.929339 0.000000
vn 0.000002 0.000000 -1.000000
vn 0.000002 0.000000 -1.000000
vn 0.000002 0.000000 -1.000000
vn 0.000000 0.000000 -1.000000
vn 0.000000 0.000000 -1.000000
vn 0.000000 0.000000 -1.000000
vn 0.369244 0.929333 0.000000
vn 0.369244 0.929333 0.000000
vn 0.369244 0.929332 0.000000
vn 0.369244 0.929332 0.000000
vn 1.000000 0.000000 0.000000
vn 1.000000 0.000000 0.000000
vn 1.000000 0.000000 0.000000
vn 1.000000 0.000000 0.000000
vn 0.000000 1.000000 0.000000
vn 0.000000 1.000000 0.000000
vn 0.000000 1.000000 0.000000
vn 0.000000 1.000000 0.000000
vn -1.000000 0.000000 0.000000
vn -1.000000 0.000000 0.000000
vn -1.000000 0.000000 0.000000
vn -1.000000 0.000000 0.000000
vn 0.000000 -1.000000 0.000000
vn 0.000000 -1.000000 0.000000
vn 0.000000 -1.000000 0.000000
vn 0.000000 -1.000000 0.000000
vn 0.000000 0.000000 1.000000
vn 0.000000 0.000000 1.000000
vn 0.000000 0.000000 1.000000
vn 0.000000 0.000000 1.000000
vn 0.000000 0.000000 -1.000000
vn 0.000000 0.000000 -1.000000
vn 0.000000 0.000000 -1.000000
vn 0.000000 0.000000 -1.000000
vn 0.000000 1.000000 0.000000
vn 0.000000 1.000000 0.000000
vn 0.000000 1.000000 0.000000
vn 0.000000 1.000000 0.000000
vn 0.000000 1.000000 0.000000
vn 0.000000 1.000000 0.000000
vn 0.000000 1.000000 0.000000
vn 0.000000 1.000000 0.000000
vn 0.000000 0.000000 -1.000000
vn 0.000000 0.000000 -1.000000
vn 0.000000 0.000000 -1.000000
vn 0.000000 0.000000 -1.000000
vn 0.000000 0.000000 -1.000000
vn 0.000000 0.000000 -1.000000
vn 0.000000 1.000000 0.000000
vn 0.000000 1.000000 0.000000
vn 0.000000 1.000000 0.000000
vn 0.000000 1.000000 0.000000
vn 1.000000 0.000000 0.000000
vn 1.000000 0.000000 0.000000
vn 1.000000 0.000000 0.000000
vn 1.000000 0.000000 0.000000
vn 0.000000 1.000000 -0.000002
vn 0.000000 1.000000 -0.000002
vn 0.000000 1.000000 -0.000002
vn 0.000000 1.000000 -0.000002
vn -1.000000 0.000000 0.000000
vn -1.000000 0.000000 0.000000
vn -1.000000 0.000000 0.000000
vn -1.000000 0.000000 0.000000
vn 0.000000 -1.000000 0.000000
vn 0.000000 -1.000000 0.000000
vn 0.000000 -1.000000 0.000000
vn 0.000000 -1.000000 0.000000
vn 0.000000 0.000000 1.000000
vn 0.000000 0.000000 1.000000
vn 0.000000 0.000000 1.000000
vn 0.000000 0.000000 1.000000
vn 0.000000 0.000000 -1.000000
vn 0.000000 0.000000 -1.000000
vn 0.000000 0.000000 -1.000000
vn 0.000000 0.000000 -1.000000
vn 0.000000 1.000000 0.000000
vn 0.000000 1.000000 0.000000
vn 0.000000 1.000000 0.000000
vn 0.000000 1.000000 0.000000
vn 0.000000 1.000000 0.000000
vn 0.000000 1.000000 0.000000
vn 0.000000 1.000000 0.000000
vn 0.000000 1.000000 0.000000
vn 0.000000 0.000000 -1.000000
vn 0.000000 0.000000 -1.000000
vn 0.000000 0.000000 -1.000000
vn 0.000000 0.000000 -1.000000
vn 0.000000 0.000000 -1.000000
vn 0.000000 0.000000 -1.000000
vn 0.000000 1.000000 0.000000
vn 0.000000 1.000000 0.000000
vn 0.000000 1.000000 0.000000
vn 0.000000 1.000000 0.000000
vn 0.952321 -0.305100 0.000000
vn 0.952321 -0.305100 0.000000
vn 0.952321 -0.305100 0.000000
vn 0.952321 -0.305100 0.000000
vn 0.305107 0.952318 0.000003
vn 0.305107 0.952318 0.000003
vn 0.305107 0.952318 0.000003
vn 0.305107 0.952318 0.000003
vn -0.952319 0.305103 0.000000
vn -0.952319 0.305103 0.000000
vn -0.952319 0.305103 0.000000
vn -0.952319 0.305103 0.000000
vn -0.305101 -0.952320 0.000000
vn -0.305101 -0.952320 0.000000
vn -0.305101 -0.952320 0.000000
vn -0.305101 -0.952320 0.000000
vn -0.000000 0.000000 1.000000
vn -0.000000 0.000000 1.000000
vn -0.000000 0.000000 1.000000
vn -0.000000 0.000000 1.000000
vn -0.000000 0.000000 -1.000000
vn -0.000000 0.000000 -1.000000
vn -0.000000 0.000000 -1.000000
vn -0.000000 0.000000 -1.000000
vn 0.305110 0.952317 0.000000
vn 0.305110 0.952317 0.000000
vn 0.305110 0.952317 0.000000
vn 0.305110 0.952317 0.000000
vn 0.305099 0.952321 0.000000
vn 0.305099 0.952321 0.000000
vn 0.305099 0.952321 0.000000
vn 0.305099 0.952321 0.000000
vn 0.000002 0.000000 -1.000000
vn 0.000002 0.000000 -1.000000
vn 0.000002 0.000000 -1.000000
vn -0.000002 0.000000 -1.000000
vn -0.000002 0.000000 -1.000000
vn -0.000002 0.000000 -1.000000
vn 0.305107 0.952318 0.000000
vn 0.305107 0.952318 0.000000
vn 0.305107 0.952318 0.000000
vn 0.305107 0.952318 0.000000
vn 0.968636 -0.248485 0.000000
vn 0.968636 -0.248485 0.000000
vn 0.968636 -0.248485 0.000000
vn 0.968636 -0.248485 0.000000
vn 0.248485 0.968636 0.000000
vn 0.248485 0.968636 0.000000
vn 0.248485 0.968636 0.000000
vn 0.248485 0.968636 0.000000
vn -0.968636 0.248485 0.000000
vn -0.968636 0.248485 0.000000
vn -0.968636 0.248485 0.000000
vn -0.968636 0.248485 0.000000
vn -0.248485 -0.968636 0.000000
vn -0.248485 -0.968636 0.000000
vn -0.248485 -0.968636 0.000000
vn -0.248485 -0.968636 0.000000
vn -0.000000 0.000000 1.000000
vn -0.000000 0.000000 1.000000
vn -0.000000 0.000000 1.000000
vn -0.000000 0.000000 1.000000
vn 0.000000 0.000000 -1.000000
vn 0.000000 0.000000 -1.000000
vn 0.000000 0.000000 -1.000000
vn 0.000000 0.000000 -1.000000
vn 0.248487 0.968635 0.000000
vn 0.248487 0.968635 0.000000
vn 0.248487 0.968635 0.000000
vn 0.248487 0.968635 0.000000
vn 0.248482 0.968637 0.000000
vn 0.248482 0.968637 0.000000
vn 0.248482 0.968637 0.000000
vn 0.248482 0.968637 0.000000
vn -0.000002 0.000000 -1.000000
vn -0.000002 0.000000 -1.000000
vn -0.000002 0.000000 -1.000000
vn 0.000000 0.000000 -1.000000
vn 0.000000 0.000000 -1.000000
vn 0.000000 0.000000 -1.000000
vn 0.248485 0.968636 0.000000
vn 0.248485 0.968636 0.000000
vn 0.248485 0.968636 0.000000
vn 0.248485 0.968636 0.000000
vn 1.000000 0.000000 0.000000
vn 1.000000 0.000000 0.000000
vn 1.000000 0.000000 0.000000
vn 1.000000 0.000000 0.000000
vn 0.000000 1.000000 -0.000002
vn 0.000000 1.000000 -0.000002
vn 0.000000 1.000000 -0.000002
vn 0.000000 1.000000 -0.000002
vn -1.000000 0.000000 0.000000
vn -1.000000 0.000000 0.000000
vn -1.000000 0.000000 0.000000
vn 0.000000 -1.000000 0.000000
vn 0.000000 -1.000000 0.000000
vn 0.000000 -1.000000 0.000000
vn 0.000000 -1.000000 0.000000
vn 0.000000 0.000000 1.000000
vn 0.000000 0.000000 1.000000
vn 0.000000 0.000000 1.000000
vn 0.000000 0.000000 1.000000
vn 0.000000 0.000000 -1.000000
vn 0.000000 0.000000 -1.000000
vn 0.000000 0.000000 -1.000000
vn 0.000000 0.000000 -1.000000
vn 0.000000 1.000000 0.000000
vn 0.000000 1.000000 0.000000
vn 0.000000 1.000000 0.000000
vn 0.000000 1.000000 0.000000
vn 0.000000 1.000000 0.000000
vn 0.000000 1.000000 0.000000
vn 0.000000 1.000000 0.000000
vn 0.000000 1.000000 0.000000
vn 0.000000 0.000000 -1.000000
vn 0.000000 0.000000 -1.000000
vn 0.000000 0.000000 -1.000000
vn 0.000000 0.000000 -1.000000
vn 0.000000 0.000000 -1.000000
vn 0.000000 0.000000 -1.000000
vn 0.000000 1.000000 0.000000
vn 0.000000 1.000000 0.000000
vn 0.000000 1.000000 0.000000
vn 0.000000 1.000000 0.000000
vn 0.000000 0.000000 1.000000
vn 0.000000 0.000000 1.000000
vn 0.000000 0.000000 1.000000
vn 0.000000 0.000000 1.000000
vn 0.000000 0.000000 1.000000
vn 0.000000 0.000000 1.000000
vn 0.000000 0.000000 1.000000
vn 0.000000 0.000000 1.000000
vn -1.000000 0.000000 0.000000
vn -1.000000 0.000000 0.000000
vn -1.000000 0.000000 0.000000
vn -1.000000 0.000000 0.000000
vn -1.000000 0.000000 0.000000
vn -1.000000 0.000000 0.000000
vn -1.000000 0.000000 0.000000
vn 1.000000 0.000000 0.000000
vn 1.000000 0.000000 0.000000
vn 1.000000 0.000000 0.000000
vn 1.000000 0.000000 0.000000
vn 1.000000 0.000000 0.000000
vn 1.000000 0.000000 0.000000
s off
f 1/1/1 3/3/2 4/4/3 2/2/4
f 11/19/5 6/6/6 4/4/7 12/20/8
f 5/5/9 7/7/10 8/8/11 6/6/12
f 7/9/13 1/26/14 2/25/15 8/10/16
f 2/2/17 4/4/18 6/12/19 8/11/20
f 7/9/21 10/28/22 9/27/23 1/26/24
f 3/3/25 9/16/26 12/20/27 4/4/28
f 10/18/29 5/5/30 6/6/31 11/19/32
f 7/13/33 5/14/34 10/17/35
f 9/15/36 3/3/37 1/1/38
f 9/21/39 10/24/40 11/23/41 12/22/42
f 13/29/43 15/32/44 16/31/45 14/30/46
f 23/33/47 18/35/48 16/31/49 24/34/50
f 17/36/51 19/38/52 20/37/53 18/35/54
f 19/39/55 13/42/56 14/41/57 20/40/58
f 14/30/59 16/31/60 18/44/61 20/43/62
f 19/39/63 22/46/64 21/45/65 13/42/66
f 15/32/67 21/47/68 24/34/69 16/31/70
f 22/48/71 17/36/72 18/35/73 23/33/74
f 19/49/75 17/51/76 22/50/77
f 21/52/78 15/32/79 13/29/80
f 21/53/81 22/56/82 23/55/83 24/54/84
f 25/57/85 27/60/86 28/59/87 26/58/88
f 35/61/89 30/63/90 28/59/91 36/62/92
f 29/64/93 31/66/94 32/65/95 30/63/96
f 31/67/97 25/70/98 26/69/99 32/68/100
f 26/58/101 28/59/102 30/72/103 32/71/104
f 31/67/105 34/74/106 33/73/107 25/70/108
f 27/60/109 33/75/110 36/62/111 28/59/112
f 34/76/113 29/64/114 30/63/115 35/61/116
f 31/77/117 29/79/118 34/78/119
f 33/80/120 27/60/121 25/57/122
f 33/81/123 34/84/124 35/83/125 36/82/126
f 37/85/127 39/88/128 40/87/129 38/86/130
f 47/89/131 42/91/132 40/87/133 48/90/134
f 41/92/135 43/94/136 44/93/137 42/91/138
f 43/95/139 37/98/140 38/97/141 44/96/142
f 38/86/143 40/87/144 42/100/145 44/99/146
f 43/95/147 46/102/148 45/101/149 37/98/150
f 39/88/151 45/103/152 48/90/153 40/87/154
f 46/104/155 41/92/156 42/91/157 47/89/158
f 43/105/159 41/107/160 46/106/161
f 45/108/162 39/88/163 37/85/164
f 45/109/165 46/112/166 47/111/167 48/110/168
f 49/113/169 51/116/170 52/115/171 50/114/172
f 59/117/173 54/119/174 52/115/175 60/118/176
f 53/120/177 55/122/178 56/121/179 54/119/180
f 55/123/181 49/126/182 50/125/183 56/124/184
f 50/114/185 52/115/186 54/128/187 56/127/188
f 55/123/189 58/130/190 57/129/191 49/126/192
f 51/116/193 57/131/194 60/118/195 52/115/196
f 58/132/197 53/120/198 54/119/199 59/117/200
f 55/133/201 53/135/202 58/134/203
f 57/136/204 51/116/205 49/113/206
f 57/137/207 58/140/208 59/139/209 60/138/210
f 61/141/211 63/144/212 73/143/213 76/142/214
f 71/145/215 66/148/216 64/147/217 72/146/218
f 67/149/219 68/151/220 75/150/221
f 67/152/222 61/155/223 62/154/224 68/153/225
f 73/143/226 64/147/227 66/157/228 74/156/229
f 67/152/230 70/159/231 69/158/232 61/155/233
f 63/144/234 69/160/235 72/146/236 64/147/237
f 70/161/238 65/162/239 66/148/240 71/145/241
f 67/163/242 65/165/243 70/164/244
f 69/166/245 63/144/246 61/141/247
f 69/167/248 70/170/249 71/169/250 72/168/251
f 62/171/252 76/142/253 75/173/254 68/172/255
f 76/174/256 73/177/257 74/176/258 75/175/259
f 65/162/260 74/178/261 66/148/262
f 65/162/263 67/149/264 75/150/265 74/178/266
f 61/141/267 76/142/268 62/171/269
f 63/144/270 64/147/271 73/143/272
