# This file uses meters as units for non-parametric coordinates.

v -35.813171 -1.041526 38.589966
v -13.108459 -2.481495 51.698486
v 13.108582 -2.596207 51.698486
v 35.813171 -0.953401 38.589966
v 48.921753 -0.765338 15.885254
v 48.921753 -0.785381 -10.331787
v 35.813232 -1.041526 -33.036499
v 13.108521 -2.481495 -46.145020
v -13.108521 -2.596207 -46.145020
v -35.813171 -0.953401 -33.036499
v -48.921692 -0.765338 -10.331787
v -48.921692 -0.785381 15.885254
v -35.813171 30.053726 38.589966
v -14.369141 29.436607 51.322266
v 14.369263 29.319706 51.322266
v 35.813171 30.134163 38.589966
v 48.921753 28.729856 15.885254
v 48.921753 28.724607 -10.331787
v 35.813232 30.117970 -33.036499
v 13.108521 28.911928 -46.145020
v -13.108521 28.797216 -46.145020
v -35.813171 30.201942 -33.036499
v -48.921692 28.752613 -10.331787
v -48.921692 28.701706 15.885254
v -23.518982 -2.124462 26.295532
v -8.608704 -2.963654 34.904297
v 8.608582 -3.037823 34.904297
v 23.519104 -2.158679 26.295654
v 32.127625 -1.310444 11.385132
v 32.127258 -1.375998 -5.831787
v 23.519043 -2.124462 -20.742310
v 8.608704 -2.963654 -29.350708
v -8.608521 -3.037823 -29.350708
v -23.519104 -2.158679 -20.742065
v -32.127563 -1.310444 -5.831787
v -32.127136 -1.375998 11.385132
v -25.011658 28.501526 27.788452
v -10.335388 28.501780 35.573120
v 10.335754 28.414774 35.572998
v 25.011414 28.461855 27.788574
v 34.166687 28.317738 11.931641
v 34.166687 28.224710 -6.378174
v 25.011780 28.575638 -22.234985
v 9.154663 28.493086 -31.389648
v -9.154846 28.412151 -31.389771
v -25.011414 28.546230 -22.234863
v -34.166565 28.317738 -6.378174
v -34.166565 28.224710 11.931641
v 14.877136 21.731882 57.875244
v -14.877136 21.848129 57.875244
v -40.645081 22.835953 43.421875
v -55.522278 21.529510 17.653809
v -55.522278 21.535080 -12.100464
v -40.645081 22.987720 -37.868408
v -14.877136 21.287153 -52.745483
v 14.877136 21.403400 -52.745483
v 40.645142 22.892147 -37.868408
v 55.522217 21.532000 -12.100342
v 55.522278 21.531567 17.653809
v 40.645081 22.930456 43.421875
v 55.522278 6.690446 17.653809
v 55.522217 6.687365 -12.100342
v 40.645142 6.954673 -37.868408
v 14.877136 5.379629 -52.745483
v -14.877136 5.270994 -52.745483
v -40.645081 7.062047 -37.868408
v -55.522278 6.690446 -12.100464
v -55.522278 6.687365 17.653809
v -40.645081 6.954673 43.421875
v -14.877136 5.379629 58.298950
v 14.877136 5.270994 58.298950
v 40.645081 7.062047 43.421875
v 7.274231 20.516352 29.924438
v 19.873230 20.422243 22.650391
v 27.148071 20.649200 10.051025
v 27.147888 20.595230 -4.497559
v 19.873779 20.482092 -17.096924
v 7.273865 20.573908 -24.370972
v -7.274231 20.516352 -24.371094
v -19.873230 20.422243 -17.096924
v -27.147949 20.649200 -4.497437
v -27.147888 20.595230 10.051025
v -19.873718 20.482092 22.650391
v -7.273865 20.573908 29.924438
v -26.297729 5.670536 9.823242
v -26.297424 5.715940 -4.269775
v -19.251221 4.994032 -16.474365
v -7.046387 4.470204 -23.520752
v 7.046509 4.524771 -23.520874
v 19.251038 5.055140 -16.474487
v 26.297791 5.670536 -4.269775
v 26.297485 5.715940 9.823242
v 19.251282 4.994032 22.027832
v 7.046448 4.470204 29.074463
v -7.046448 4.524771 29.074341
v -19.251038 5.055140 22.027954
vt 0.138617 0.471431
vt 0.138617 0.471431
vt 0.138617 0.471431
vt 0.138617 0.471431
vt 0.138617 0.471431
vt 0.138617 0.471431
vt 0.138617 0.471431
vt 0.138617 0.471431
vt 0.138617 0.471431
vt 0.138617 0.471431
vt 0.138617 0.471431
vt 0.138617 0.471431
vt 0.138617 0.471431
vt 0.138617 0.471431
vt 0.138617 0.471431
vt 0.138617 0.471431
vt 0.138617 0.471431
vt 0.138617 0.471431
vt 0.138617 0.471431
vt 0.138617 0.471431
vt 0.138617 0.471431
vt 0.138617 0.471431
vt 0.138617 0.471431
vt 0.138617 0.471431
vt 0.138617 0.471431
vt 0.138617 0.471431
vt 0.138617 0.471431
vt 0.138617 0.471431
vt 0.138617 0.471431
vt 0.138617 0.471431
vt 0.138617 0.471431
vt 0.138617 0.471431
vt 0.138617 0.471431
vt 0.138617 0.471431
vt 0.138617 0.471431
vt 0.138617 0.471431
vt 0.138617 0.471431
vt 0.138617 0.471431
vt 0.138617 0.471431
vt 0.138617 0.471431
vt 0.138617 0.471431
vt 0.138617 0.471431
vt 0.138617 0.471431
vt 0.138617 0.471431
vt 0.138617 0.471431
vt 0.138617 0.471431
vt 0.138617 0.471431
vt 0.138617 0.471431
vt 0.138617 0.471431
vt 0.138617 0.471431
vt 0.138617 0.471431
vt 0.138617 0.471431
vt 0.138617 0.471431
vt 0.138617 0.471431
vt 0.138617 0.471431
vt 0.138617 0.471431
vt 0.138617 0.471431
vt 0.138617 0.471431
vt 0.138617 0.471431
vt 0.138617 0.471431
vt 0.138617 0.471431
vt 0.138617 0.471431
vt 0.138617 0.471431
vt 0.138617 0.471431
vt 0.138617 0.471431
vt 0.138617 0.471431
vt 0.138617 0.471431
vt 0.138617 0.471431
vt 0.138617 0.471431
vt 0.138617 0.471431
vt 0.138617 0.471431
vt 0.138617 0.471431
vt 0.138617 0.471431
vt 0.138617 0.471431
vt 0.138617 0.471431
vt 0.138617 0.471431
vt 0.138617 0.471431
vt 0.138617 0.471431
vt 0.138617 0.471431
vt 0.138617 0.471431
vt 0.138617 0.471431
vt 0.138617 0.471431
vt 0.138617 0.471431
vt 0.138617 0.471431
vt 0.138617 0.471431
vt 0.138617 0.471431
vt 0.138617 0.471431
vt 0.138617 0.471431
vt 0.138617 0.471431
vt 0.138617 0.471431
vt 0.138617 0.471431
vt 0.138617 0.471431
vt 0.138617 0.471431
vt 0.138617 0.471431
vt 0.138617 0.471431
vt 0.138617 0.471431
vt 0.138617 0.471431
vt 0.138617 0.471431
vt 0.138617 0.471431
vt 0.138617 0.471431
vt 0.138617 0.471431
vt 0.138617 0.471431
vt 0.138617 0.471431
vt 0.138617 0.471431
vt 0.138617 0.471431
vt 0.138617 0.471431
vt 0.138617 0.471431
vt 0.138617 0.471431
vt 0.138617 0.471431
vt 0.138617 0.471431
vt 0.138617 0.471431
vt 0.138617 0.471431
vt 0.138617 0.471431
vt 0.138617 0.471431
vt 0.138617 0.471431
vt 0.138617 0.471431
vt 0.138617 0.471431
vt 0.138617 0.471431
vt 0.138617 0.471431
vt 0.138617 0.471431
vt 0.138617 0.471431
vt 0.138617 0.471431
vt 0.138617 0.471431
vt 0.138617 0.471431
vt 0.138617 0.471431
vt 0.138617 0.471431
vt 0.138617 0.471431
vt 0.138617 0.471431
vt 0.138617 0.471431
vt 0.138617 0.471431
vt 0.138617 0.471431
vt 0.138617 0.471431
vt 0.138617 0.471431
vt 0.138617 0.471431
vt 0.138617 0.471431
vt 0.138617 0.471431
vt 0.138617 0.471431
vt 0.138617 0.471431
vt 0.138617 0.471431
vt 0.138617 0.471431
vt 0.138617 0.471431
vt 0.138617 0.471431
vt 0.138617 0.471431
vt 0.138617 0.471431
vn -0.494170 0.011386 0.869291
vn -0.494170 0.011386 0.869291
vn -0.494170 0.011386 0.869291
vn -0.494170 0.011386 0.869291
vn 0.000097 0.025726 0.999669
vn 0.000097 0.025726 0.999669
vn 0.000097 0.025726 0.999669
vn 0.000097 0.025726 0.999669
vn 0.494099 0.011393 0.869331
vn 0.494099 0.011393 0.869331
vn 0.494099 0.011393 0.869331
vn 0.494099 0.011393 0.869331
vn 0.866025 0.000000 0.500000
vn 0.866026 0.000000 0.500000
vn 0.866026 0.000000 0.500000
vn 0.866025 0.000000 0.500000
vn 1.000000 0.000000 -0.000002
vn 1.000000 0.000000 -0.000002
vn 1.000000 0.000000 -0.000002
vn 1.000000 0.000000 -0.000002
vn 0.866027 0.000000 -0.499997
vn 0.866027 0.000000 -0.499997
vn 0.866027 0.000000 -0.499997
vn 0.866027 0.000000 -0.499997
vn 0.499998 0.000000 -0.866027
vn 0.499998 0.000000 -0.866027
vn 0.499998 0.000000 -0.866027
vn 0.499998 0.000000 -0.866027
vn 0.000000 0.000000 -1.000000
vn 0.000000 0.000000 -1.000000
vn 0.000000 0.000000 -1.000000
vn 0.000000 0.000000 -1.000000
vn -0.499998 0.000000 -0.866026
vn -0.499998 0.000000 -0.866026
vn -0.499998 0.000000 -0.866026
vn -0.499998 0.000000 -0.866026
vn -0.866024 0.000000 -0.500002
vn -0.866024 0.000000 -0.500002
vn -0.866024 0.000000 -0.500002
vn -0.866024 0.000000 -0.500002
vn -1.000000 0.000000 0.000000
vn -1.000000 0.000000 0.000000
vn -1.000000 0.000000 0.000000
vn -1.000000 0.000000 0.000000
vn -0.866025 0.000000 0.500000
vn -0.866026 0.000000 0.500000
vn -0.866025 0.000000 0.500000
vn -0.866025 0.000000 0.500000
vn -0.068574 -0.997547 0.014082
vn -0.068574 -0.997547 0.014082
vn -0.068574 -0.997547 0.014082
vn -0.068574 -0.997547 0.014082
vn -0.004347 -0.999613 0.027492
vn -0.004347 -0.999613 0.027492
vn -0.004347 -0.999613 0.027492
vn -0.004347 -0.999613 0.027492
vn 0.074586 -0.997125 0.013392
vn 0.074586 -0.997125 0.013392
vn 0.074586 -0.997125 0.013392
vn 0.074586 -0.997125 0.013392
vn 0.056967 -0.998362 0.005385
vn 0.056967 -0.998362 0.005385
vn 0.056967 -0.998362 0.005385
vn 0.056967 -0.998362 0.005385
vn 0.033793 -0.999427 0.001969
vn 0.033793 -0.999427 0.001969
vn 0.033793 -0.999427 0.001969
vn 0.033793 -0.999427 0.001969
vn 0.054632 -0.998495 -0.004874
vn 0.054632 -0.998495 -0.004874
vn 0.054632 -0.998495 -0.004874
vn 0.054632 -0.998495 -0.004874
vn 0.068573 -0.997547 -0.014082
vn 0.068573 -0.997547 -0.014082
vn 0.068573 -0.997547 -0.014082
vn 0.068573 -0.997547 -0.014082
vn 0.004347 -0.999613 -0.027492
vn 0.004347 -0.999613 -0.027492
vn 0.004347 -0.999613 -0.027492
vn 0.004347 -0.999613 -0.027492
vn -0.074585 -0.997125 -0.013392
vn -0.074585 -0.997125 -0.013392
vn -0.074585 -0.997125 -0.013392
vn -0.074585 -0.997125 -0.013392
vn -0.056967 -0.998362 -0.005385
vn -0.056967 -0.998362 -0.005385
vn -0.056967 -0.998362 -0.005385
vn -0.056967 -0.998362 -0.005385
vn -0.033793 -0.999427 -0.001969
vn -0.033793 -0.999427 -0.001969
vn -0.033793 -0.999427 -0.001969
vn -0.033793 -0.999427 -0.001969
vn -0.054632 -0.998495 0.004874
vn -0.054632 -0.998495 0.004874
vn -0.054632 -0.998495 0.004874
vn -0.054632 -0.998495 0.004874
vn 0.053168 0.996556 -0.063641
vn 0.053168 0.996556 -0.063641
vn 0.053168 0.996556 -0.063641
vn 0.053168 0.996556 -0.063641
vn -0.059732 0.996204 -0.063325
vn -0.059732 0.996204 -0.063325
vn -0.059732 0.996204 -0.063325
vn -0.059732 0.996204 -0.063325
vn -0.043648 0.996915 -0.065231
vn -0.043648 0.996915 -0.065231
vn -0.043648 0.996915 -0.065231
vn -0.043648 0.996915 -0.065231
vn -0.030890 0.999520 -0.002206
vn -0.030890 0.999520 -0.002206
vn -0.030890 0.999520 -0.002206
vn -0.030890 0.999520 -0.002206
vn -0.040219 0.996853 0.068312
vn -0.040219 0.996853 0.068312
vn -0.040219 0.996853 0.068312
vn -0.040219 0.996853 0.068312
vn -0.058138 0.997383 0.042971
vn -0.058138 0.997383 0.042971
vn -0.058138 0.997383 0.042971
vn -0.058138 0.997383 0.042971
vn 0.064314 0.997025 0.042482
vn 0.064314 0.997025 0.042482
vn 0.064314 0.997025 0.042482
vn 0.064314 0.997025 0.042482
vn 0.042374 0.996796 0.067836
vn 0.042374 0.996796 0.067836
vn 0.042374 0.996796 0.067836
vn 0.042374 0.996796 0.067836
vn 0.030885 0.999518 0.003231
vn 0.030885 0.999518 0.003231
vn 0.030885 0.999518 0.003231
vn 0.030885 0.999518 0.003231
vn 0.041135 0.996981 -0.065862
vn 0.041135 0.996980 -0.065862
vn 0.041135 0.996981 -0.065862
vn 0.041135 0.996980 -0.065862
vn 0.499976 0.053940 -0.864358
vn 0.499976 0.053940 -0.864358
vn 0.499976 0.053940 -0.864358
vn 0.499976 0.053940 -0.864358
vn 0.000211 0.052895 -0.998600
vn 0.000211 0.052895 -0.998600
vn 0.000211 0.052895 -0.998600
vn 0.000211 0.052895 -0.998600
vn -0.499977 0.053937 -0.864357
vn -0.499977 0.053937 -0.864357
vn -0.499977 0.053937 -0.864357
vn -0.499977 0.053937 -0.864357
vn -0.865588 0.055918 -0.497625
vn -0.865588 0.055918 -0.497625
vn -0.865588 0.055918 -0.497625
vn -0.865588 0.055918 -0.497625
vn -0.998382 0.056867 -0.000202
vn -0.998382 0.056867 -0.000202
vn -0.998382 0.056867 -0.000202
vn -0.998382 0.056867 -0.000202
vn -0.865377 0.055943 0.497990
vn -0.865376 0.055943 0.497990
vn -0.865376 0.055943 0.497990
vn -0.865376 0.055943 0.497990
vn -0.499976 0.053940 0.864358
vn -0.499976 0.053940 0.864358
vn -0.499976 0.053940 0.864358
vn -0.499976 0.053940 0.864358
vn -0.000207 0.052907 0.998599
vn -0.000207 0.052907 0.998599
vn -0.000207 0.052907 0.998599
vn -0.000207 0.052907 0.998599
vn 0.499974 0.053949 0.864358
vn 0.499974 0.053949 0.864358
vn 0.499974 0.053949 0.864358
vn 0.499974 0.053949 0.864358
vn 0.865591 0.055916 0.497620
vn 0.865591 0.055916 0.497620
vn 0.865591 0.055916 0.497620
vn 0.865591 0.055916 0.497620
vn 0.998382 0.056867 0.000206
vn 0.998382 0.056867 0.000206
vn 0.998382 0.056867 0.000206
vn 0.998382 0.056867 0.000206
vn 0.865376 0.055943 -0.497990
vn 0.865376 0.055943 -0.497990
vn 0.865376 0.055943 -0.497990
vn 0.865376 0.055943 -0.497990
vn -0.363991 0.646687 0.670303
vn -0.363991 0.646687 0.670303
vn -0.363991 0.646687 0.670303
vn -0.363991 0.646687 0.670303
vn -0.653885 0.675662 0.340464
vn -0.653885 0.675662 0.340464
vn -0.653885 0.675662 0.340464
vn -0.653885 0.675662 0.340464
vn -0.736884 0.676019 0.000682
vn -0.736884 0.676019 0.000682
vn -0.736884 0.676019 0.000682
vn -0.736884 0.676019 0.000682
vn -0.656107 0.674534 -0.338420
vn -0.656107 0.674534 -0.338420
vn -0.656107 0.674534 -0.338420
vn -0.656107 0.674534 -0.338420
vn -0.339979 0.667085 -0.662882
vn -0.339979 0.667085 -0.662882
vn -0.339979 0.667085 -0.662882
vn -0.339979 0.667085 -0.662882
vn 0.344397 0.666945 -0.660738
vn 0.344397 0.666945 -0.660738
vn 0.344397 0.666945 -0.660738
vn 0.344397 0.666945 -0.660738
vn 0.654996 0.674909 -0.339821
vn 0.654996 0.674909 -0.339821
vn 0.654996 0.674909 -0.339821
vn 0.654996 0.674909 -0.339821
vn 0.736916 0.675984 -0.000059
vn 0.736916 0.675984 -0.000059
vn 0.736916 0.675984 -0.000059
vn 0.736916 0.675984 -0.000059
vn 0.654958 0.675315 0.339086
vn 0.654958 0.675315 0.339086
vn 0.654958 0.675315 0.339086
vn 0.654958 0.675315 0.339086
vn 0.359495 0.647193 0.672238
vn 0.359495 0.647193 0.672238
vn 0.359495 0.647193 0.672238
vn 0.359495 0.647193 0.672238
vn 0.749121 -0.662433 0.000273
vn 0.749121 -0.662433 0.000273
vn 0.749121 -0.662433 0.000273
vn 0.749121 -0.662433 0.000273
vn 0.658694 -0.649142 -0.380444
vn 0.658694 -0.649142 -0.380444
vn 0.658694 -0.649142 -0.380444
vn 0.658694 -0.649142 -0.380444
vn 0.413870 -0.639420 -0.647961
vn 0.413870 -0.639420 -0.647961
vn 0.413870 -0.639420 -0.647961
vn 0.413870 -0.639420 -0.647961
vn 0.002565 -0.642880 -0.765963
vn 0.002565 -0.642880 -0.765963
vn 0.002565 -0.642880 -0.765963
vn 0.002565 -0.642880 -0.765963
vn -0.418161 -0.638706 -0.645908
vn -0.418161 -0.638706 -0.645908
vn -0.418161 -0.638706 -0.645908
vn -0.418161 -0.638706 -0.645908
vn -0.657729 -0.649090 -0.382198
vn -0.657729 -0.649090 -0.382198
vn -0.657729 -0.649090 -0.382198
vn -0.657729 -0.649090 -0.382198
vn -0.749117 -0.662438 -0.000274
vn -0.749117 -0.662438 -0.000274
vn -0.749117 -0.662438 -0.000274
vn -0.749117 -0.662438 -0.000274
vn -0.658691 -0.649145 0.380444
vn -0.658691 -0.649145 0.380444
vn -0.658691 -0.649145 0.380444
vn -0.658691 -0.649145 0.380444
vn -0.413871 -0.639421 0.647960
vn -0.413871 -0.639421 0.647960
vn -0.413871 -0.639421 0.647960
vn -0.413871 -0.639421 0.647960
vn -0.002565 -0.642880 0.765963
vn -0.002565 -0.642880 0.765963
vn -0.002565 -0.642880 0.765963
vn -0.002565 -0.642880 0.765963
vn 0.418161 -0.638705 0.645908
vn 0.418161 -0.638705 0.645908
vn 0.418161 -0.638705 0.645908
vn 0.418161 -0.638705 0.645908
vn 0.657732 -0.649086 0.382199
vn 0.657732 -0.649086 0.382199
vn 0.657732 -0.649086 0.382199
vn 0.657732 -0.649086 0.382199
vn -0.369058 0.643638 -0.670467
vn -0.369058 0.643638 -0.670467
vn -0.369058 0.643638 -0.670467
vn -0.369058 0.643638 -0.670467
vn -0.646579 0.666341 -0.371382
vn -0.646579 0.666341 -0.371382
vn -0.646579 0.666341 -0.371382
vn -0.646579 0.666341 -0.371382
vn -0.736809 0.676094 -0.003021
vn -0.736809 0.676094 -0.003021
vn -0.736809 0.676094 -0.003021
vn -0.736809 0.676094 -0.003021
vn -0.643605 0.665982 0.377147
vn -0.643605 0.665982 0.377147
vn -0.643605 0.665982 0.377147
vn -0.643605 0.665982 0.377147
vn -0.375804 0.659204 0.651323
vn -0.375804 0.659204 0.651323
vn -0.375804 0.659204 0.651323
vn -0.375804 0.659204 0.651322
vn -0.002803 0.663822 0.747885
vn -0.002803 0.663822 0.747885
vn -0.002803 0.663822 0.747885
vn -0.002803 0.663822 0.747885
vn 0.376754 0.659037 0.650943
vn 0.376754 0.659037 0.650943
vn 0.376754 0.659037 0.650943
vn 0.376754 0.659037 0.650943
vn 0.647261 0.664354 0.373748
vn 0.647261 0.664354 0.373748
vn 0.647261 0.664354 0.373748
vn 0.647261 0.664354 0.373748
vn 0.736812 0.676091 0.003023
vn 0.736812 0.676091 0.003023
vn 0.736812 0.676091 0.003023
vn 0.736812 0.676091 0.003023
vn 0.643003 0.667732 -0.375076
vn 0.643003 0.667732 -0.375076
vn 0.643003 0.667732 -0.375076
vn 0.643003 0.667732 -0.375076
vn 0.368351 0.643347 -0.671135
vn 0.368351 0.643347 -0.671135
vn 0.368351 0.643347 -0.671135
vn 0.368351 0.643347 -0.671135
vn 0.770043 -0.637988 -0.002264
vn 0.770043 -0.637988 -0.002264
vn 0.770043 -0.637988 -0.002264
vn 0.770043 -0.637988 -0.002264
vn 0.652647 -0.634836 0.413565
vn 0.652647 -0.634836 0.413565
vn 0.652647 -0.634836 0.413564
vn 0.652647 -0.634836 0.413565
vn 0.367029 -0.622212 0.691478
vn 0.367029 -0.622212 0.691478
vn 0.367029 -0.622212 0.691478
vn 0.367029 -0.622212 0.691478
vn 0.002527 -0.613804 0.789455
vn 0.002527 -0.613804 0.789455
vn 0.002527 -0.613804 0.789455
vn 0.002527 -0.613804 0.789455
vn -0.367693 -0.622037 0.691282
vn -0.367694 -0.622037 0.691282
vn -0.367693 -0.622037 0.691282
vn -0.367693 -0.622037 0.691282
vn -0.655749 -0.633648 0.410468
vn -0.655749 -0.633648 0.410468
vn -0.655749 -0.633648 0.410468
vn -0.655749 -0.633648 0.410468
vn -0.770041 -0.637990 0.002262
vn -0.770041 -0.637990 0.002262
vn -0.770041 -0.637990 0.002262
vn -0.770041 -0.637990 0.002262
vn -0.652649 -0.634835 -0.413563
vn -0.652649 -0.634835 -0.413563
vn -0.652649 -0.634835 -0.413563
vn -0.652649 -0.634835 -0.413563
vn -0.367035 -0.622212 -0.691475
vn -0.367035 -0.622211 -0.691475
vn -0.367035 -0.622212 -0.691475
vn -0.367035 -0.622212 -0.691475
vn -0.002521 -0.613804 -0.789455
vn -0.002521 -0.613804 -0.789455
vn -0.002521 -0.613804 -0.789455
vn -0.002521 -0.613804 -0.789455
vn 0.367702 -0.622034 -0.691281
vn 0.367702 -0.622034 -0.691281
vn 0.367702 -0.622034 -0.691281
vn 0.367702 -0.622034 -0.691281
vn 0.655756 -0.633638 -0.410471
vn 0.655756 -0.633638 -0.410471
vn 0.655756 -0.633638 -0.410471
vn 0.655756 -0.633638 -0.410471
vn -0.004392 0.999620 0.027231
vn -0.004392 0.999620 0.027231
vn -0.004392 0.999620 0.027231
vn -0.004392 0.999620 0.027231
vn -0.002724 0.660190 -0.751093
vn -0.002724 0.660190 -0.751093
vn -0.002724 0.660190 -0.751093
vn -0.002724 0.660190 -0.751093
vn 0.002605 0.653593 0.756841
vn 0.002605 0.653593 0.756841
vn 0.002605 0.653593 0.756841
vn 0.002605 0.653593 0.756841
vn 0.002382 0.580990 -0.813908
vn 0.002382 0.580990 -0.813908
vn 0.002382 0.580990 -0.813908
vn 0.002382 0.580990 -0.813908
vn 0.004120 0.998290 -0.058308
vn 0.004120 0.998290 -0.058308
vn 0.004120 0.998290 -0.058308
vn 0.004120 0.998290 -0.058308
s off
f 69/2/1 70/13/2 50/108/3 51/90/4
f 70/1/5 71/3/6 49/127/7 50/137/8
f 71/3/9 72/5/10 60/128/11 49/127/12
f 72/4/13 61/6/14 59/66/15 60/68/16
f 61/6/17 62/8/18 58/67/19 59/66/20
f 62/25/21 63/26/22 57/114/23 58/134/24
f 63/26/25 64/46/26 56/106/27 57/114/28
f 64/27/29 65/7/30 55/131/31 56/135/32
f 65/7/33 66/28/34 54/132/35 55/131/36
f 54/101/37 66/11/38 67/29/39 53/99/40
f 67/29/41 68/30/42 52/100/43 53/99/44
f 68/15/45 69/2/46 51/90/47 52/109/48
f 2/34/49 1/35/50 25/37/51 26/59/52
f 3/14/53 2/16/54 26/17/55 27/18/56
f 4/36/57 3/14/58 27/18/59 28/38/60
f 5/9/61 4/10/62 28/12/63 29/19/64
f 6/20/65 5/9/66 29/19/67 30/21/68
f 7/69/69 6/70/70 30/89/71 31/96/72
f 8/111/73 7/69/74 31/96/75 32/123/76
f 33/47/77 9/48/78 8/49/79 32/52/80
f 10/71/81 9/48/82 33/47/83 34/72/84
f 11/31/85 10/32/86 34/33/87 35/50/88
f 12/51/89 11/31/90 35/50/91 36/53/92
f 1/35/93 12/60/94 36/82/95 25/37/96
f 13/83/97 14/102/98 38/117/99 37/118/100
f 15/41/101 16/57/102 40/58/103 39/61/104
f 16/22/105 17/23/106 41/24/107 40/39/108
f 17/23/109 18/40/110 42/42/111 41/24/112
f 18/133/113 19/143/114 43/124/115 42/125/116
f 19/143/117 20/126/118 44/142/119 43/124/120
f 21/73/121 22/74/122 46/87/123 45/88/124
f 22/54/125 23/55/126 47/56/127 46/75/128
f 23/55/129 24/76/130 48/77/131 47/56/132
f 24/129/133 13/83/134 37/118/135 48/139/136
f 84/140/137 95/105/138 96/95/139 83/94/140
f 73/62/141 94/81/142 95/93/143 84/103/144
f 74/104/145 93/107/146 94/81/147 73/62/148
f 75/43/149 92/44/150 93/45/151 74/63/152
f 76/64/153 91/65/154 92/44/155 75/43/156
f 77/141/157 90/130/158 91/120/159 76/119/160
f 78/116/161 89/115/162 90/130/163 77/141/164
f 79/97/165 88/98/166 89/112/167 78/113/168
f 80/121/169 87/122/170 88/98/171 79/97/172
f 81/78/173 86/79/174 87/80/175 80/84/176
f 82/85/177 85/86/178 86/79/179 81/78/180
f 83/94/181 96/95/182 85/92/183 82/91/184
f 51/90/185 50/108/186 14/102/187 13/83/188
f 52/109/189 51/90/190 13/83/191 24/129/192
f 53/99/193 52/100/194 24/76/195 23/55/196
f 54/101/197 53/99/198 23/55/199 22/54/200
f 55/131/201 54/132/202 22/74/203 21/73/204
f 57/114/205 56/106/206 20/126/207 19/143/208
f 58/134/209 57/114/210 19/143/211 18/133/212
f 59/66/213 58/67/214 18/40/215 17/23/216
f 60/68/217 59/66/218 17/23/219 16/22/220
f 49/127/221 60/128/222 16/57/223 15/41/224
f 5/9/225 6/20/226 62/8/227 61/6/228
f 6/70/229 7/69/230 63/26/231 62/25/232
f 7/69/233 8/111/234 64/46/235 63/26/236
f 9/48/237 65/7/238 64/27/239 8/49/240
f 9/48/241 10/71/242 66/28/243 65/7/244
f 10/32/245 11/31/246 67/29/247 66/11/248
f 11/31/249 12/51/250 68/30/251 67/29/252
f 12/60/253 1/35/254 69/2/255 68/15/256
f 1/35/257 2/34/258 70/13/259 69/2/260
f 2/16/261 3/14/262 71/3/263 70/1/264
f 3/14/265 4/36/266 72/5/267 71/3/268
f 4/10/269 5/9/270 61/6/271 72/4/272
f 74/104/273 73/62/274 39/61/275 40/58/276
f 75/43/277 74/63/278 40/39/279 41/24/280
f 76/64/281 75/43/282 41/24/283 42/42/284
f 77/141/285 76/119/286 42/125/287 43/124/288
f 78/116/289 77/141/290 43/124/291 44/142/292
f 45/88/293 79/97/294 78/113/295 44/144/296
f 80/121/297 79/97/298 45/88/299 46/87/300
f 81/78/301 80/84/302 46/75/303 47/56/304
f 82/85/305 81/78/306 47/56/307 48/77/308
f 83/94/309 82/91/310 48/139/311 37/118/312
f 84/140/313 83/94/314 37/118/315 38/117/316
f 36/53/317 35/50/318 86/79/319 85/86/320
f 35/50/321 34/33/322 87/80/323 86/79/324
f 34/72/325 33/47/326 88/98/327 87/122/328
f 88/98/329 33/47/330 32/52/331 89/112/332
f 32/123/333 31/96/334 90/130/335 89/115/336
f 31/96/337 30/89/338 91/120/339 90/130/340
f 30/21/341 29/19/342 92/44/343 91/65/344
f 29/19/345 28/12/346 93/45/347 92/44/348
f 28/38/349 27/18/350 94/81/351 93/107/352
f 27/18/353 26/17/354 95/93/355 94/81/356
f 26/59/357 25/37/358 96/95/359 95/105/360
f 25/37/361 36/82/362 85/92/363 96/95/364
f 44/144/365 20/136/366 21/73/367 45/88/368
f 55/131/369 21/73/370 20/136/371 56/135/372
f 15/41/373 14/138/374 50/137/375 49/127/376
f 38/110/377 39/61/378 73/62/379 84/103/380
f 38/110/381 14/138/382 15/41/383 39/61/384
