# This file uses meters as units for non-parametric coordinates.

v 5.262390 -0.000008 18.105347
v 5.262390 -0.000008 -18.105347
v 5.262390 4.023636 18.105347
v 5.262390 4.023636 -18.105347
v -5.262390 4.023636 18.105347
v -5.262390 4.023636 -18.105347
v -5.262390 -0.000008 18.105347
v -5.262390 -0.000008 -18.105347
vt 0.102644 0.226401
vt 0.102644 0.226401
vt 0.102644 0.226401
vt 0.102644 0.226401
vt 0.102644 0.226401
vt 0.102644 0.226401
vt 0.102644 0.226401
vt 0.102644 0.226401
vt 0.102644 0.226401
vt 0.102644 0.226401
vt 0.102644 0.226401
vt 0.102644 0.226401
vt 0.102644 0.226401
vt 0.102644 0.226401
vt 0.497723 0.226477
vt 0.497723 0.387484
vt 0.444494 0.387484
vt 0.444494 0.226477
vn 1.000000 0.000000 0.000000
vn 1.000000 0.000000 0.000000
vn 1.000000 0.000000 0.000000
vn 1.000000 0.000000 0.000000
vn 0.000000 1.000000 0.000000
vn 0.000000 1.000000 0.000000
vn 0.000000 1.000000 0.000000
vn 0.000000 1.000000 0.000000
vn -1.000000 0.000000 0.000000
vn -1.000000 0.000000 0.000000
vn -1.000000 0.000000 0.000000
vn -1.000000 0.000000 0.000000
vn 0.000000 -1.000000 0.000000
vn 0.000000 -1.000000 0.000000
vn 0.000000 -1.000000 0.000000
vn 0.000000 -1.000000 0.000000
vn 0.000000 0.000000 -1.000000
vn 0.000000 0.000000 -1.000000
vn 0.000000 0.000000 -1.000000
vn 0.000000 0.000000 -1.000000
vn 0.000000 0.000000 1.000000
vn 0.000000 0.000000 1.000000
vn 0.000000 0.000000 1.000000
vn 0.000000 0.000000 1.000000
s off
f 1/1/1 2/2/2 4/4/3 3/3/4
f 3/15/5 4/16/6 6/17/7 5/18/8
f 5/5/9 6/6/10 8/8/11 7/7/12
f 7/7/13 8/8/14 2/10/15 1/9/16
f 2/2/17 8/11/18 6/12/19 4/4/20
f 7/13/21 1/1/22 3/3/23 5/14/24
