# This file uses meters as units for non-parametric coordinates.

v -19.394165 -50.416534 -2.658691
v -19.394165 -50.416534 2.658936
v -19.394165 -32.260544 -2.658691
v -19.394165 -32.260544 2.658936
v 19.394165 -32.260544 -2.658691
v 19.394165 -32.260544 2.658936
v 19.394165 -50.416534 -2.658691
v 19.394165 -50.416534 2.658936
v -21.346069 -52.098083 -2.658691
v -21.346069 -52.098083 2.658936
v -21.346069 -30.578979 2.658936
v -21.346069 -30.578979 -2.658691
v 21.346069 -30.578979 2.658936
v 21.346069 -30.578979 -2.658691
v 21.346069 -52.098083 2.658936
v 21.346069 -52.098083 -2.658691
v -17.270142 -30.578979 2.658936
v 17.270142 -30.578979 2.658936
v -17.270142 -30.578979 -2.658691
v 17.270142 -30.578979 -2.658691
v -19.211548 -30.578979 2.658936
v -19.211548 -30.578979 -2.658691
v 19.211426 -30.578979 2.658936
v 19.211426 -30.578979 -2.658691
v 17.270142 0.000000 -2.658691
v 17.270142 0.000000 2.658936
v 19.211426 0.000000 2.658936
v 19.211426 0.000000 -2.658691
v -19.211548 0.000000 2.658936
v -19.211548 0.000000 -2.658691
v -17.270142 0.000000 2.658936
v -17.270142 0.000000 -2.658691
vt 0.485352 0.010427
vt 0.485352 0.010427
vt 0.485352 0.010422
vt 0.485352 0.010422
vt 0.485352 0.010422
vt 0.485352 0.010422
vt 0.485352 0.010427
vt 0.485352 0.010427
vt 0.485352 0.010427
vt 0.485352 0.010422
vt 0.810369 0.452775
vt 0.887583 0.452775
vt 0.810369 0.452775
vt 0.887583 0.452775
vt 0.887583 0.497954
vt 0.810369 0.497954
vt 0.887583 0.497954
vt 0.810369 0.497954
vt 0.485352 0.010422
vt 0.485352 0.010427
vt 0.485352 0.010422
vt 0.485352 0.010422
vt 0.485352 0.010427
vt 0.485352 0.010427
vt 0.485352 0.010422
vt 0.485352 0.010422
vt 0.485352 0.010422
vt 0.485352 0.010422
vt 0.485352 0.010422
vt 0.485352 0.010422
vt 0.485352 0.010422
vt 0.485352 0.010422
vt 0.485352 0.010422
vt 0.485352 0.010422
vt 0.485352 0.010422
vt 0.485352 0.010422
vt 0.485352 0.010422
vt 0.485352 0.010422
vt 0.485352 0.010422
vt 0.485352 0.010422
vn -1.000000 0.000000 0.000000
vn -1.000000 0.000000 0.000000
vn -1.000000 0.000000 0.000000
vn -1.000000 0.000000 0.000000
vn 0.000000 1.000000 0.000000
vn 0.000000 1.000000 0.000000
vn 0.000000 1.000000 0.000000
vn 0.000000 1.000000 0.000000
vn 1.000000 0.000000 0.000000
vn 1.000000 0.000000 0.000000
vn 1.000000 0.000000 0.000000
vn 1.000000 0.000000 0.000000
vn 0.000000 -1.000000 0.000000
vn 0.000000 -1.000000 0.000000
vn 0.000000 -1.000000 0.000000
vn 0.000000 -1.000000 0.000000
vn 0.000000 0.000000 1.000000
vn 0.000000 0.000000 1.000000
vn 0.000000 0.000000 1.000000
vn 0.000000 0.000000 1.000000
vn 0.000000 0.000000 -1.000000
vn 0.000000 0.000000 -1.000000
vn 0.000000 0.000000 -1.000000
vn 0.000000 0.000000 -1.000000
vn 0.000000 0.000000 1.000000
vn 0.000000 0.000000 1.000000
vn 0.000000 0.000000 1.000000
vn 0.000000 0.000000 1.000000
vn -0.000000 0.000000 -1.000000
vn -0.000000 0.000000 -1.000000
vn -0.000000 0.000000 -1.000000
vn -0.000000 0.000000 -1.000000
vn 0.000000 0.000000 1.000000
vn 0.000000 0.000000 1.000000
vn 0.000000 0.000000 1.000000
vn 0.000000 0.000000 -1.000000
vn 0.000000 0.000000 -1.000000
vn 0.000000 0.000000 -1.000000
vn -0.000000 0.000000 1.000000
vn -0.000000 0.000000 1.000000
vn -0.000000 0.000000 1.000000
vn -0.000000 0.000000 1.000000
vn -0.000000 0.000000 -1.000000
vn -0.000000 0.000000 -1.000000
vn -0.000000 0.000000 -1.000000
vn -0.000000 0.000000 -1.000000
vn 0.000000 0.000000 1.000000
vn 0.000000 0.000000 1.000000
vn 0.000000 0.000000 1.000000
vn 0.000000 0.000000 1.000000
vn 0.000000 0.000000 -1.000000
vn 0.000000 0.000000 -1.000000
vn 0.000000 0.000000 -1.000000
vn 0.000000 0.000000 -1.000000
vn 0.000000 0.000000 1.000000
vn 0.000000 0.000000 1.000000
vn 0.000000 0.000000 1.000000
vn 0.000000 1.000000 0.000000
vn 0.000000 1.000000 0.000000
vn 0.000000 1.000000 0.000000
vn 0.000000 1.000000 0.000000
vn 0.000000 1.000000 0.000000
vn 0.000000 1.000000 0.000000
vn 0.000000 1.000000 0.000000
vn 0.000000 1.000000 0.000000
vn 0.000000 0.000000 1.000000
vn 0.000000 0.000000 1.000000
vn 0.000000 0.000000 1.000000
vn 0.000000 0.000000 1.000000
vn 0.000000 0.000000 -1.000000
vn 0.000000 0.000000 -1.000000
vn 0.000000 0.000000 -1.000000
vn 0.000000 0.000000 -1.000000
vn 0.000000 0.000000 -1.000000
vn 0.000000 0.000000 -1.000000
vn 0.000000 0.000000 -1.000000
vn 0.000000 1.000000 0.000000
vn 0.000000 1.000000 0.000000
vn 0.000000 1.000000 0.000000
vn 0.000000 1.000000 0.000000
vn 0.000000 1.000000 0.000000
vn 0.000000 1.000000 0.000000
vn 0.000000 1.000000 0.000000
vn 0.000000 1.000000 0.000000
vn 0.000000 0.000000 1.000000
vn 0.000000 0.000000 1.000000
vn 0.000000 0.000000 1.000000
vn 0.000000 0.000000 1.000000
vn 0.000000 0.000000 1.000000
vn 0.000000 0.000000 1.000000
vn 0.000000 0.000000 -1.000000
vn 0.000000 0.000000 -1.000000
vn 0.000000 0.000000 -1.000000
vn 0.000000 0.000000 -1.000000
vn 0.000000 0.000000 -1.000000
vn 0.000000 0.000000 -1.000000
vn -1.000000 0.000000 0.000000
vn -1.000000 0.000000 0.000000
vn -1.000000 0.000000 0.000000
vn -1.000000 0.000000 0.000000
vn 0.000000 0.000000 1.000000
vn 0.000000 0.000000 1.000000
vn 0.000000 0.000000 1.000000
vn 0.000000 0.000000 1.000000
vn 1.000000 0.000000 0.000000
vn 1.000000 0.000000 0.000000
vn 1.000000 0.000000 0.000000
vn 1.000000 0.000000 0.000000
vn 0.000000 0.000000 -1.000000
vn 0.000000 0.000000 -1.000000
vn 0.000000 0.000000 -1.000000
vn 0.000000 0.000000 -1.000000
vn -1.000000 0.000000 0.000000
vn -1.000000 0.000000 0.000000
vn -1.000000 0.000000 0.000000
vn -1.000000 0.000000 0.000000
vn 0.000000 0.000000 1.000000
vn 0.000000 0.000000 1.000000
vn 0.000000 0.000000 1.000000
vn 0.000000 0.000000 1.000000
vn 1.000000 0.000000 0.000000
vn 1.000000 0.000000 0.000000
vn 1.000000 0.000000 0.000000
vn 1.000000 0.000000 0.000000
vn 0.000000 0.000000 -1.000000
vn 0.000000 0.000000 -1.000000
vn 0.000000 0.000000 -1.000000
vn 0.000000 0.000000 -1.000000
s off
f 9/1/1 10/2/2 11/3/3 12/4/4
f 12/4/5 11/3/6 21/29/7 22/30/8
f 14/6/9 13/5/10 15/7/11 16/8/12
f 16/8/13 15/7/14 10/2/15 9/1/16
f 2/11/17 8/12/18 6/15/19 4/16/20
f 7/13/21 1/14/22 3/17/23 5/18/24
f 2/9/25 4/10/26 11/3/27 10/2/28
f 3/19/29 1/20/30 9/1/31 12/4/32
f 4/10/33 17/25/34 21/29/35
f 5/22/36 20/28/37 24/32/38
f 6/21/39 8/23/40 15/7/41 13/5/42
f 7/24/43 5/22/44 14/6/45 16/8/46
f 8/23/47 2/9/48 10/2/49 15/7/50
f 1/20/51 7/24/52 16/8/53 9/1/54
f 23/31/55 6/21/56 13/5/57
f 25/33/58 26/34/59 27/35/60 28/36/61
f 19/27/62 17/25/63 18/26/64 20/28/65
f 4/10/66 6/21/67 18/26/68 17/25/69
f 22/30/70 3/19/71 12/4/72
f 5/22/73 3/19/74 19/27/75 20/28/76
f 30/37/77 29/38/78 31/39/79 32/40/80
f 24/32/81 23/31/82 13/5/83 14/6/84
f 18/26/85 6/21/86 23/31/87
f 4/10/88 21/29/89 11/3/90
f 19/27/91 3/19/92 22/30/93
f 5/22/94 24/32/95 14/6/96
f 20/28/97 18/26/98 26/34/99 25/33/100
f 18/26/101 23/31/102 27/35/103 26/34/104
f 23/31/105 24/32/106 28/36/107 27/35/108
f 24/32/109 20/28/110 25/33/111 28/36/112
f 22/30/113 21/29/114 29/38/115 30/37/116
f 21/29/117 17/25/118 31/39/119 29/38/120
f 17/25/121 19/27/122 32/40/123 31/39/124
f 19/27/125 22/30/126 30/37/127 32/40/128
