# This file uses meters as units for non-parametric coordinates.

v -14.684448 7.558716 -16.551025
v -17.725464 7.558716 12.539917
v 17.725342 7.558716 -12.539917
v 14.684448 7.558716 16.551025
v 17.725342 0.000000 -12.539917
v 14.684448 0.000000 16.551025
v -14.684448 0.000000 -16.551025
v -17.725464 0.000000 12.539917
v 17.725342 6.428711 -12.539917
v 17.725342 1.129639 -12.539917
v 14.860718 1.129639 14.865356
v 14.860718 6.428711 14.865479
v -16.736572 22.676147 -16.427979
v -16.358887 22.676147 12.847534
v 15.879028 22.676147 -16.926270
v 16.256836 22.676147 12.349365
v 15.879028 15.117432 -16.926270
v 16.256836 15.117432 12.349365
v -16.736572 15.117432 -16.427979
v -16.358887 15.117432 12.847534
v 15.879028 21.546143 -16.926270
v 15.879028 16.247070 -16.926270
v 16.234985 16.247070 10.652832
v 16.234985 21.546143 10.652954
v -18.452271 15.117432 -11.230103
v -13.640869 15.117432 17.576538
v 13.640869 15.117432 -17.576538
v 18.452271 15.117432 11.230103
v 13.640869 7.558716 -17.576538
v 18.452271 7.558716 11.230103
v -18.452271 7.558716 -11.230103
v -13.640869 7.558716 17.576538
v 13.640869 13.987427 -17.576538
v 13.640869 8.688354 -17.576538
v 18.173584 8.688354 9.560913
v 18.173584 13.987427 9.560913
vt 0.159195 0.468000
vt 0.159195 0.468000
vt 0.159195 0.468000
vt 0.159195 0.468000
vt 0.159195 0.468000
vt 0.159195 0.468000
vt 0.159195 0.468000
vt 0.159195 0.468000
vt 0.159195 0.468000
vt 0.159195 0.468000
vt 0.037598 0.374821
vt 0.037598 0.374821
vt 0.037598 0.374821
vt 0.037598 0.374821
vt 0.159195 0.468000
vt 0.159195 0.468000
vt 0.037598 0.374821
vt 0.037598 0.374821
vt 0.159195 0.468000
vt 0.159195 0.468000
vt 0.159195 0.468000
vt 0.159195 0.468000
vt 0.159195 0.468000
vt 0.159195 0.468000
vt 0.039307 0.372169
vt 0.039307 0.372169
vt 0.039307 0.372169
vt 0.039307 0.372169
vt 0.159195 0.468000
vt 0.159195 0.468000
vt 0.159195 0.468000
vt 0.159195 0.468000
vt 0.159195 0.468000
vt 0.159195 0.468000
vt 0.159195 0.468000
vt 0.159195 0.468000
vt 0.159195 0.468000
vt 0.159195 0.468000
vt 0.037598 0.374821
vt 0.037598 0.374821
vt 0.037598 0.374821
vt 0.037598 0.374821
vt 0.159195 0.468000
vt 0.159195 0.468000
vt 0.037598 0.374821
vt 0.037598 0.374821
vt 0.159195 0.468000
vt 0.159195 0.468000
vt 0.159195 0.468000
vt 0.159195 0.468000
vt 0.159195 0.468000
vt 0.159195 0.468000
vt 0.039307 0.372169
vt 0.039307 0.372169
vt 0.039307 0.372169
vt 0.039307 0.372169
vt 0.159195 0.468000
vt 0.159195 0.468000
vt 0.159195 0.468000
vt 0.159195 0.468000
vt 0.159195 0.468000
vt 0.159195 0.468000
vt 0.159195 0.468000
vt 0.159195 0.468000
vt 0.159195 0.468000
vt 0.159195 0.468000
vt 0.037598 0.374821
vt 0.037598 0.374821
vt 0.037598 0.374821
vt 0.037598 0.374821
vt 0.159195 0.468000
vt 0.159195 0.468000
vt 0.037598 0.374821
vt 0.037598 0.374821
vt 0.159195 0.468000
vt 0.159195 0.468000
vt 0.159195 0.468000
vt 0.159195 0.468000
vt 0.159195 0.468000
vt 0.159195 0.468000
vt 0.039307 0.372169
vt 0.039307 0.372169
vt 0.039307 0.372169
vt 0.039307 0.372169
vn 0.000000 1.000000 0.000000
vn 0.000000 1.000000 0.000000
vn 0.000000 1.000000 0.000000
vn 0.000000 1.000000 0.000000
vn 0.994577 -0.000001 0.104006
vn 0.994577 -0.000001 0.104006
vn 0.994577 -0.000001 0.104006
vn 0.994577 -0.000001 0.104006
vn 0.000000 -1.000000 0.000000
vn 0.000000 -1.000000 0.000000
vn 0.000000 -1.000000 0.000000
vn 0.000000 -1.000000 0.000000
vn -0.994581 0.000000 -0.103968
vn -0.994581 0.000000 -0.103968
vn -0.994581 0.000000 -0.103968
vn -0.994581 0.000000 -0.103968
vn -0.122825 0.000000 0.992428
vn -0.122825 0.000000 0.992428
vn -0.122825 0.000000 0.992428
vn -0.122825 0.000000 0.992428
vn 0.122825 0.000000 -0.992428
vn 0.122825 0.000000 -0.992428
vn 0.122825 0.000000 -0.992428
vn 0.122825 0.000000 -0.992428
vn 0.994581 0.000035 0.103963
vn 0.994581 0.000035 0.103963
vn 0.994581 0.000035 0.103963
vn 0.994581 0.000035 0.103963
vn 0.994581 -0.000029 0.103963
vn 0.994581 -0.000029 0.103963
vn 0.994581 -0.000029 0.103963
vn 0.994581 -0.000029 0.103963
vn 0.122825 0.000000 -0.992428
vn 0.122825 0.000000 -0.992428
vn 0.122825 0.000000 -0.992428
vn 0.122825 0.000000 -0.992428
vn 0.122825 0.000000 -0.992428
vn 0.122825 0.000000 -0.992428
vn 0.994581 -0.000001 0.103962
vn 0.994581 -0.000001 0.103962
vn 0.994581 -0.000001 0.103962
vn 0.994581 -0.000001 0.103962
vn 0.000000 1.000000 0.000000
vn 0.000000 1.000000 0.000000
vn 0.000000 1.000000 0.000000
vn 0.000000 1.000000 0.000000
vn 0.999917 0.000000 -0.012879
vn 0.999917 0.000000 -0.012879
vn 0.999917 0.000000 -0.012879
vn 0.999917 0.000000 -0.012879
vn 0.000000 -1.000000 -0.000000
vn 0.000000 -1.000000 -0.000000
vn 0.000000 -1.000000 -0.000000
vn 0.000000 -1.000000 -0.000000
vn -0.999917 0.000000 0.012900
vn -0.999917 0.000000 0.012900
vn -0.999917 0.000000 0.012900
vn -0.999917 0.000000 0.012900
vn 0.015272 0.000000 0.999883
vn 0.015272 0.000000 0.999883
vn 0.015272 0.000000 0.999883
vn 0.015272 0.000000 0.999883
vn -0.015276 0.000000 -0.999883
vn -0.015276 0.000000 -0.999883
vn -0.015276 0.000000 -0.999883
vn -0.015276 0.000000 -0.999883
vn 0.999917 0.000019 -0.012905
vn 0.999917 0.000019 -0.012905
vn 0.999917 0.000019 -0.012905
vn 0.999917 0.000019 -0.012905
vn 0.999917 -0.000020 -0.012905
vn 0.999917 -0.000020 -0.012905
vn 0.999917 -0.000020 -0.012905
vn 0.999917 -0.000020 -0.012905
vn -0.015276 0.000000 -0.999883
vn -0.015276 0.000000 -0.999883
vn -0.015276 0.000000 -0.999883
vn -0.015276 0.000000 -0.999883
vn -0.015276 0.000000 -0.999883
vn -0.015276 0.000000 -0.999883
vn 0.999917 0.000000 -0.012906
vn 0.999917 0.000000 -0.012906
vn 0.999917 0.000000 -0.012906
vn 0.999917 0.000000 -0.012906
vn 0.000000 1.000000 0.000000
vn 0.000000 1.000000 0.000000
vn 0.000000 1.000000 0.000000
vn 0.000000 1.000000 0.000000
vn 0.986347 0.000000 -0.164680
vn 0.986347 0.000000 -0.164680
vn 0.986347 0.000000 -0.164680
vn 0.986347 0.000000 -0.164680
vn 0.000000 -1.000000 0.000000
vn 0.000000 -1.000000 0.000000
vn 0.000000 -1.000000 0.000000
vn 0.000000 -1.000000 0.000000
vn -0.986337 0.000000 0.164742
vn -0.986337 0.000000 0.164742
vn -0.986337 0.000000 0.164742
vn -0.986337 0.000000 0.164742
vn 0.193994 0.000000 0.981003
vn 0.193994 0.000000 0.981003
vn 0.193994 0.000000 0.981003
vn 0.193994 0.000000 0.981003
vn -0.193994 0.000000 -0.981003
vn -0.193994 0.000000 -0.981003
vn -0.193994 0.000000 -0.981003
vn -0.193994 0.000000 -0.981003
vn 0.986336 0.000049 -0.164744
vn 0.986336 0.000049 -0.164744
vn 0.986336 0.000049 -0.164744
vn 0.986336 0.000049 -0.164744
vn 0.986336 -0.000049 -0.164744
vn 0.986336 -0.000049 -0.164744
vn 0.986336 -0.000049 -0.164744
vn 0.986336 -0.000049 -0.164744
vn -0.193994 0.000000 -0.981003
vn -0.193994 0.000000 -0.981003
vn -0.193994 0.000000 -0.981003
vn -0.193994 0.000000 -0.981003
vn -0.193994 0.000000 -0.981003
vn -0.193994 0.000000 -0.981003
vn 0.986336 0.000000 -0.164746
vn 0.986336 0.000000 -0.164746
vn 0.986336 0.000000 -0.164746
vn 0.986336 0.000000 -0.164746
s off
f 1/1/1 2/4/2 4/3/3 3/2/4
f 11/5/5 12/7/6 4/3/7 6/6/8
f 5/8/9 6/6/10 8/10/11 7/9/12
f 7/11/13 8/14/14 2/13/15 1/12/16
f 2/4/17 8/16/18 6/15/19 4/3/20
f 7/11/21 1/12/22 9/18/23 10/17/24
f 3/2/25 4/3/26 12/7/27 9/19/28
f 10/20/29 11/5/30 6/6/31 5/8/32
f 7/21/33 10/23/34 5/22/35
f 9/24/36 1/1/37 3/2/38
f 9/25/39 12/28/40 11/27/41 10/26/42
f 13/29/43 14/30/44 16/31/45 15/32/46
f 23/33/47 24/34/48 16/31/49 18/35/50
f 17/36/51 18/35/52 20/37/53 19/38/54
f 19/39/55 20/40/56 14/41/57 13/42/58
f 14/30/59 20/43/60 18/44/61 16/31/62
f 19/39/63 13/42/64 21/45/65 22/46/66
f 15/32/67 16/31/68 24/34/69 21/47/70
f 22/48/71 23/33/72 18/35/73 17/36/74
f 19/49/75 22/50/76 17/51/77
f 21/52/78 13/29/79 15/32/80
f 21/53/81 24/54/82 23/55/83 22/56/84
f 25/57/85 26/58/86 28/59/87 27/60/88
f 35/61/89 36/62/90 28/59/91 30/63/92
f 29/64/93 30/63/94 32/65/95 31/66/96
f 31/67/97 32/68/98 26/69/99 25/70/100
f 26/58/101 32/71/102 30/72/103 28/59/104
f 31/67/105 25/70/106 33/73/107 34/74/108
f 27/60/109 28/59/110 36/62/111 33/75/112
f 34/76/113 35/61/114 30/63/115 29/64/116
f 31/77/117 34/78/118 29/79/119
f 33/80/120 25/57/121 27/60/122
f 33/81/123 36/82/124 35/83/125 34/84/126
