# This file uses meters as units for non-parametric coordinates.

v -24.461548 0.531668 -24.324097
v -25.000000 0.000000 25.000122
v -25.000000 46.508095 -24.999878
v -23.734009 45.644386 23.974243
v 24.406616 46.017025 -24.277222
v 25.000000 46.508095 25.000122
v 25.000000 0.000000 -24.999878
v 25.000000 0.000000 25.000122
v -25.000000 46.508095 4.918335
v 25.000000 46.508095 4.918335
v 25.000000 0.000000 4.918335
v -25.000000 0.000000 4.918335
v 25.000000 0.000000 -4.918335
v 25.000000 46.508095 -4.918335
v -25.000000 46.508095 -4.918335
v -25.000000 0.000000 -4.918335
v 25.000000 37.206490 4.918579
v 25.000000 37.206490 -4.918335
v 25.000000 11.161942 4.918579
v 25.000000 11.161942 -4.918335
v -25.000000 37.206490 -4.918335
v -25.000000 37.206490 4.918335
v -25.000000 7.441295 -4.918335
v -25.000000 7.441295 4.918579
v -25.000000 46.508095 10.512085
v 7.667480 46.508095 25.000122
v -14.072388 42.526081 25.000122
v -21.567871 42.180634 25.000122
v -25.000000 36.323917 25.000122
v -19.848145 46.508095 19.776489
v -17.510315 45.695564 24.479858
v 25.000000 46.508095 -18.074585
v 19.777893 46.508095 -24.999878
v 25.000000 42.392921 -24.999878
v -18.097046 0.000000 -24.999878
v -25.000000 0.000000 -19.339722
v -25.000000 5.637020 -24.999878
v -25.000000 46.508095 -0.390747
v 25.000000 46.508095 -0.390747
v 25.000000 46.508095 0.783325
v -25.000000 46.508095 0.783325
vt 0.050778 0.330468
vt 0.050778 0.330468
vt 0.050778 0.330468
vt 0.050778 0.330468
vt 0.050778 0.330468
vt 0.050778 0.330468
vt 0.050778 0.330468
vt 0.050778 0.330468
vt 0.050778 0.330468
vt 0.050778 0.330468
vt 0.050778 0.330468
vt 0.050778 0.330468
vt 0.050778 0.330468
vt 0.050778 0.330468
vt 0.050778 0.330468
vt 0.050778 0.330468
vt 0.050778 0.330468
vt 0.050778 0.330468
vt 0.050778 0.330468
vt 0.050778 0.330468
vt 0.050778 0.330468
vt 0.050778 0.330468
vt 0.050778 0.330468
vt 0.050778 0.330468
vt 0.050778 0.330468
vt 0.050778 0.330468
vt 0.050778 0.330468
vt 0.050778 0.330468
vt 0.050778 0.330468
vt 0.050778 0.330468
vt 0.050778 0.330468
vt 0.050778 0.330468
vt 0.049561 0.379120
vt 0.049561 0.379120
vt 0.049561 0.379120
vt 0.049561 0.379120
vt 0.049561 0.379120
vt 0.049561 0.379120
vt 0.049561 0.379120
vt 0.049561 0.379120
vt 0.049561 0.379112
vt 0.049561 0.379112
vt 0.049561 0.379112
vt 0.049561 0.379112
vt 0.049561 0.379112
vt 0.049561 0.379112
vt 0.049561 0.379112
vt 0.049561 0.379112
vt 0.050778 0.330468
vt 0.050778 0.330468
vt 0.050778 0.330468
vt 0.050778 0.330468
vt 0.050778 0.330468
vt 0.050778 0.330468
vt 0.050778 0.330468
vt 0.050778 0.330468
vt 0.050778 0.330468
vt 0.050778 0.330468
vt 0.050778 0.330468
vt 0.050778 0.330468
vt 0.050778 0.330468
vt 0.050778 0.330468
vt 0.050778 0.330468
vt 0.050778 0.330468
vt 0.050778 0.330468
vt 0.050778 0.330468
vt 0.050778 0.330468
vt 0.049561 0.379120
vt 0.049561 0.379120
vt 0.049561 0.379120
vt 0.049561 0.379120
vt 0.049316 0.354156
vt 0.049316 0.354156
vt 0.049316 0.354156
vt 0.049316 0.354156
vn -1.000000 0.000000 0.000000
vn -1.000000 0.000000 0.000000
vn -1.000000 0.000000 0.000000
vn 0.000000 1.000000 0.000000
vn 0.000000 1.000000 0.000000
vn 0.000000 1.000000 0.000000
vn 0.000000 1.000000 0.000000
vn 1.000000 0.000000 0.000000
vn 1.000000 0.000000 0.000000
vn 1.000000 0.000000 0.000000
vn 0.000000 -1.000000 0.000000
vn 0.000000 -1.000000 0.000000
vn 0.000000 -1.000000 0.000000
vn 0.000000 -1.000000 0.000000
vn 0.000000 1.000000 -0.000000
vn 0.000000 1.000000 -0.000000
vn 0.000000 1.000000 -0.000000
vn 0.000000 1.000000 -0.000000
vn 0.000000 1.000000 -0.000000
vn 0.000000 1.000000 -0.000000
vn 1.000000 0.000000 0.000000
vn 1.000000 0.000000 0.000000
vn 1.000000 0.000000 0.000000
vn 0.000000 -1.000000 0.000000
vn 0.000000 -1.000000 0.000000
vn 0.000000 -1.000000 0.000000
vn 0.000000 -1.000000 0.000000
vn -1.000000 0.000000 0.000000
vn -1.000000 0.000000 0.000000
vn -1.000000 0.000000 0.000000
vn 1.000000 0.000000 0.000000
vn 1.000000 0.000000 0.000000
vn 1.000000 0.000000 0.000000
vn 0.000000 1.000000 -0.000000
vn 0.000000 1.000000 -0.000000
vn 0.000000 1.000000 -0.000000
vn 0.000000 1.000000 -0.000000
vn 0.000000 1.000000 -0.000000
vn -0.985618 -0.119736 -0.119246
vn -0.985618 -0.119736 -0.119246
vn -0.985618 -0.119736 -0.119246
vn -0.094883 -0.988740 -0.115716
vn -0.094883 -0.988740 -0.115716
vn -0.094883 -0.988740 -0.115716
vn 1.000000 0.000000 0.000000
vn 1.000000 0.000000 0.000000
vn 1.000000 0.000000 0.000000
vn 1.000000 0.000000 0.000000
vn 1.000000 0.000000 0.000000
vn 1.000000 0.000000 0.000000
vn 1.000000 0.000000 0.000000
vn 1.000000 0.000000 0.000000
vn -1.000000 0.000000 0.000000
vn -1.000000 0.000000 0.000000
vn -1.000000 0.000000 0.000000
vn -1.000000 0.000000 0.000000
vn -1.000000 0.000000 0.000000
vn -1.000000 0.000000 0.000000
vn -1.000000 0.000000 0.000000
vn -1.000000 0.000000 0.000000
vn 0.000000 0.000000 1.000000
vn 0.000000 0.000000 1.000000
vn 0.000000 0.000000 1.000000
vn 0.000000 0.000000 1.000000
vn -0.116264 -0.142374 -0.982961
vn -0.116264 -0.142374 -0.982961
vn -0.116264 -0.142374 -0.982961
vn -0.035549 0.981667 0.187259
vn -0.035550 0.981667 0.187259
vn -0.035550 0.981667 0.187259
vn -0.024843 0.135633 0.990448
vn -0.024843 0.135633 0.990448
vn -0.024843 0.135633 0.990448
vn -0.235230 0.137848 0.962115
vn -0.235230 0.137848 0.962115
vn -0.235230 0.137848 0.962115
vn -0.984191 0.144892 0.101850
vn -0.984191 0.144892 0.101850
vn -0.984191 0.144892 0.101850
vn -0.022804 0.983184 0.181187
vn -0.022804 0.983184 0.181187
vn -0.022804 0.983184 0.181187
vn -0.041714 0.193248 0.980263
vn -0.041714 0.193248 0.980263
vn -0.041714 0.193248 0.980263
vn -0.041714 0.193248 0.980263
vn -0.137135 0.987612 0.076260
vn -0.137135 0.987613 0.076260
vn -0.137135 0.987612 0.076260
vn 0.118907 0.988849 -0.089665
vn 0.118907 0.988848 -0.089665
vn 0.118907 0.988848 -0.089665
vn 0.173205 0.219796 -0.960047
vn 0.173205 0.219796 -0.960047
vn 0.173205 0.219796 -0.960047
vn 0.977446 0.181552 -0.107882
vn 0.977446 0.181552 -0.107882
vn 0.977446 0.181552 -0.107882
vn 0.000000 -1.000000 0.000000
vn 0.000000 -1.000000 0.000000
vn 0.000000 -1.000000 0.000000
vn 0.000000 -1.000000 0.000000
vn 0.000000 -1.000000 0.000000
vn -1.000000 0.000000 0.000000
vn -1.000000 0.000000 0.000000
vn -1.000000 0.000000 0.000000
vn 0.000000 0.000000 -1.000000
vn 0.000000 0.000000 -1.000000
vn 0.000000 0.000000 -1.000000
vn 0.000000 0.000000 -1.000000
vn -1.000000 0.000000 0.000000
vn -1.000000 0.000000 0.000000
vn -1.000000 0.000000 0.000000
vn 0.000000 1.000000 0.000000
vn 0.000000 1.000000 0.000000
vn 0.000000 1.000000 0.000000
vn 0.000000 1.000000 0.000000
vn 1.000000 0.000000 0.000000
vn 1.000000 0.000000 0.000000
vn 1.000000 0.000000 0.000000
vn 1.000000 0.000000 0.000000
vn 1.000000 0.000000 0.000000
vn 1.000000 0.000000 0.000000
vn 1.000000 0.000000 0.000000
vn 0.000000 1.000000 0.000000
vn 0.000000 1.000000 0.000000
vn 0.000000 1.000000 0.000000
vn 0.000000 1.000000 0.000000
vn -1.000000 0.000000 0.000000
vn -1.000000 0.000000 0.000000
vn -1.000000 0.000000 0.000000
vn -1.000000 0.000000 0.000000
vn -1.000000 0.000000 0.000000
vn -1.000000 0.000000 0.000000
vn -1.000000 0.000000 0.000000
vn -1.000000 0.000000 0.000000
vn -1.000000 0.000000 0.000000
vn -1.000000 0.000000 0.000000
vn -1.000000 0.000000 0.000000
vn -1.000000 0.000000 0.000000
vn -1.000000 0.000000 0.000000
vn -1.000000 0.000000 0.000000
vn -1.000000 0.000000 0.000000
vn -1.000000 0.000000 0.000000
vn -1.000000 0.000000 0.000000
vn -1.000000 0.000000 0.000000
vn -1.000000 0.000000 0.000000
vn -1.000000 0.000000 0.000000
vn 1.000000 0.000000 0.000000
vn 1.000000 0.000000 0.000000
vn 1.000000 0.000000 0.000000
vn 1.000000 0.000000 0.000000
vn 1.000000 0.000000 0.000000
vn 1.000000 0.000000 0.000000
vn 1.000000 0.000000 0.000000
vn 1.000000 0.000000 0.000000
vn 1.000000 0.000000 0.000000
vn 1.000000 0.000000 0.000000
vn 1.000000 0.000000 0.000000
vn 1.000000 0.000000 0.000000
vn 1.000000 0.000000 0.000000
vn 1.000000 0.000000 0.000000
vn 1.000000 0.000000 0.000000
vn 0.000000 0.000000 1.000000
vn 0.000000 0.000000 1.000000
vn 0.000000 0.000000 1.000000
vn 0.000000 0.000000 1.000000
vn 0.000000 0.000000 1.000000
vn 0.000000 0.000000 1.000000
vn 0.000000 0.000000 1.000000
vn 0.000000 0.000000 -1.000000
vn 0.000000 0.000000 -1.000000
vn 0.000000 0.000000 -1.000000
vn 0.000000 0.000000 -1.000000
s off
f 21/33/1 38/68/2 15/36/3
f 38/68/4 39/69/5 14/38/6 15/36/7
f 39/69/8 18/40/9 14/38/10
f 11/41/11 12/42/12 16/43/13 13/44/14
f 10/16/15 9/15/16 25/49/17 30/55/18 26/50/19 6/6/20
f 6/6/21 17/25/22 10/16/23
f 12/19/24 11/17/25 8/8/26 2/10/27
f 9/15/28 22/30/29 25/49/30
f 7/7/31 20/28/32 13/20/33
f 3/3/34 15/22/35 14/21/36 32/58/37 33/60/38
f 1/1/39 36/65/40 37/67/41
f 35/64/42 36/66/43 1/9/44
f 18/26/45 17/25/46 19/27/47 20/28/48
f 20/45/49 19/46/50 11/41/51 13/44/52
f 23/31/53 24/32/54 22/30/55 21/29/56
f 12/42/57 24/47/58 23/48/59 16/43/60
f 28/53/61 29/54/62 2/2/63 27/52/64
f 1/1/65 37/67/66 35/63/67
f 26/50/68 30/55/69 31/56/70
f 27/52/71 26/51/72 31/57/73
f 4/4/74 29/54/75 28/53/76
f 25/49/77 29/54/78 4/4/79
f 31/56/80 30/55/81 4/4/82
f 27/52/83 31/57/84 4/4/85 28/53/86
f 4/4/87 30/55/88 25/49/89
f 33/60/90 32/58/91 5/5/92
f 5/14/93 34/61/94 33/59/95
f 5/5/96 32/58/97 34/62/98
f 7/7/99 13/20/100 16/24/101 36/66/102 35/64/103
f 3/3/104 21/29/105 15/22/106
f 35/63/107 37/67/108 3/3/109 33/59/110
f 41/71/111 22/34/112 9/35/113
f 9/35/114 10/37/115 40/70/116 41/71/117
f 10/37/118 17/39/119 40/70/120
f 40/70/121 17/39/122 18/40/123 39/69/124
f 41/72/125 40/73/126 39/74/127 38/75/128
f 21/33/129 22/34/130 41/71/131 38/68/132
f 37/67/133 36/65/134 16/23/135 23/31/136
f 37/67/137 23/31/138 21/29/139 3/3/140
f 29/54/141 24/32/142 12/18/143 2/2/144
f 25/49/145 22/30/146 24/32/147 29/54/148
f 34/62/149 32/58/150 14/21/151 18/26/152
f 34/62/153 18/26/154 20/28/155 7/7/156
f 11/17/157 19/27/158 8/8/159
f 8/8/160 19/27/161 17/25/162 6/6/163
f 27/52/164 8/11/165 6/12/166 26/51/167
f 27/52/168 2/2/169 8/11/170
f 35/63/171 33/59/172 34/61/173 7/13/174
