# This file uses meters as units for non-parametric coordinates.

v -14.923828 0.000000 -13.340088
v -14.923828 0.000000 15.337036
v -14.923828 33.278351 -13.340088
v -14.923828 33.278351 15.337036
v -7.520264 33.278351 -13.340088
v -7.520264 33.278351 15.337036
v -7.520264 0.000000 -13.340088
v -7.520264 0.000000 15.337036
v -13.816895 33.278351 -13.340088
v -8.626709 33.278351 -13.340088
v -8.626709 33.278351 13.675293
v -13.816895 33.278351 13.675537
v -14.923828 26.622677 15.337036
v -7.520264 26.622677 15.337036
v -14.923828 20.853813 15.337036
v -7.520264 20.853813 15.337036
v -7.494995 0.000000 -15.337036
v -7.494995 0.000000 13.340088
v -7.494995 35.092957 -15.337036
v -7.494995 35.092957 13.340088
v -0.091553 35.092957 -15.337036
v -0.091553 35.092957 13.340088
v -0.091553 0.000000 -15.337036
v -0.091553 0.000000 13.340088
v -6.388184 35.092957 -15.337036
v -1.197998 35.092957 -15.337036
v -1.197998 35.092957 11.678467
v -6.388184 35.092957 11.678589
v 0.641846 0.000000 -13.866211
v 0.641846 0.000000 14.811035
v 0.641846 33.278351 -13.866211
v 0.641846 33.278351 14.811035
v 7.141602 33.278351 -13.866211
v 7.141602 33.278351 14.811035
v 7.141602 0.000000 -13.866211
v 7.141602 0.000000 14.811035
v 1.613647 33.278351 -13.866211
v 6.170166 33.278351 -13.866211
v 6.170166 33.278351 13.149414
v 1.613647 33.278351 13.149414
v 0.641846 3.327835 14.811035
v 7.141602 3.327836 14.811035
v 0.641846 7.615427 14.811035
v 7.141602 7.615428 14.811035
v 0.641846 28.529266 14.811035
v 7.141602 28.529266 14.811035
v 7.520386 0.000000 -15.337036
v 7.520386 0.000000 13.340088
v 7.520386 34.622601 -15.337036
v 7.520386 34.622601 13.340088
v 14.923828 34.622601 -15.337036
v 14.923828 34.622601 13.340088
v 14.923828 0.000000 -15.337036
v 14.923828 0.000000 13.340088
v 8.627197 34.622601 -15.337036
v 13.817383 34.622601 -15.337036
v 13.817383 34.622601 11.678467
v 8.627197 34.622601 11.678589
vt 0.137739 0.491171
vt 0.137739 0.491171
vt 0.137739 0.491171
vt 0.137739 0.491171
vt 0.137739 0.491171
vt 0.137739 0.491171
vt 0.137739 0.491171
vt 0.137739 0.491171
vt 0.037598 0.374821
vt 0.037598 0.374821
vt 0.137739 0.491171
vt 0.137739 0.491171
vt 0.137739 0.491171
vt 0.137739 0.491171
vt 0.137739 0.491171
vt 0.137739 0.491171
vt 0.137739 0.491171
vt 0.137739 0.491171
vt 0.137739 0.491171
vt 0.137739 0.491171
vt 0.039307 0.372169
vt 0.039307 0.372169
vt 0.039307 0.372169
vt 0.039307 0.372169
vt 0.037598 0.374821
vt 0.037598 0.374821
vt 0.037598 0.374821
vt 0.037598 0.374821
vt 0.137739 0.491171
vt 0.137739 0.491171
vt 0.137739 0.491171
vt 0.137739 0.491171
vt 0.137739 0.491171
vt 0.137739 0.491171
vt 0.172038 0.447068
vt 0.172038 0.447068
vt 0.172038 0.447068
vt 0.172038 0.447068
vt 0.174933 0.306075
vt 0.174933 0.306075
vt 0.174933 0.306076
vt 0.174933 0.306075
vt 0.174933 0.306075
vt 0.174933 0.306075
vt 0.174933 0.306075
vt 0.174933 0.306075
vt 0.174933 0.306075
vt 0.174933 0.306075
vt 0.037598 0.374821
vt 0.037598 0.374821
vt 0.037598 0.374821
vt 0.037598 0.374821
vt 0.174933 0.306075
vt 0.174933 0.306075
vt 0.037598 0.374821
vt 0.037598 0.374821
vt 0.174933 0.306075
vt 0.174933 0.306075
vt 0.174933 0.306075
vt 0.174933 0.306075
vt 0.174933 0.306075
vt 0.174933 0.306075
vt 0.039307 0.372169
vt 0.039307 0.372169
vt 0.039307 0.372169
vt 0.039307 0.372169
vt 0.338484 0.444952
vt 0.338484 0.444952
vt 0.338484 0.444952
vt 0.338484 0.444952
vt 0.338484 0.444952
vt 0.338484 0.444952
vt 0.338484 0.444952
vt 0.338484 0.444952
vt 0.338484 0.444952
vt 0.338484 0.444952
vt 0.338484 0.444952
vt 0.338484 0.444952
vt 0.037598 0.374821
vt 0.037598 0.374821
vt 0.037598 0.374821
vt 0.037598 0.374821
vt 0.338484 0.444952
vt 0.338484 0.444952
vt 0.037598 0.374821
vt 0.037598 0.374821
vt 0.338484 0.444952
vt 0.338484 0.444952
vt 0.338484 0.444952
vt 0.338484 0.444952
vt 0.338484 0.444952
vt 0.338484 0.444952
vt 0.039307 0.372169
vt 0.039307 0.372169
vt 0.039307 0.372169
vt 0.039307 0.372169
vt 0.066650 0.353606
vt 0.066650 0.353606
vt 0.066650 0.353606
vt 0.066650 0.353606
vt 0.338484 0.444952
vt 0.338484 0.444952
vt 0.338484 0.444952
vt 0.217651 0.471749
vt 0.217651 0.471749
vt 0.217651 0.471745
vt 0.217651 0.471745
vt 0.338484 0.444952
vt 0.338484 0.444952
vt 0.338484 0.444952
vt 0.146354 0.443773
vt 0.146354 0.443773
vt 0.146354 0.443773
vt 0.146354 0.443773
vt 0.146354 0.443773
vt 0.146354 0.443773
vt 0.146354 0.443773
vt 0.146354 0.443773
vt 0.146354 0.443773
vt 0.146354 0.443773
vt 0.037598 0.374821
vt 0.037598 0.374821
vt 0.037598 0.374821
vt 0.037598 0.374821
vt 0.146354 0.443773
vt 0.146354 0.443773
vt 0.037598 0.374821
vt 0.037598 0.374821
vt 0.146354 0.443773
vt 0.146354 0.443773
vt 0.146354 0.443773
vt 0.146354 0.443773
vt 0.146354 0.443773
vt 0.146354 0.443773
vt 0.039307 0.372169
vt 0.039307 0.372169
vt 0.039307 0.372169
vt 0.039307 0.372169
vn -1.000000 0.000000 0.000000
vn -1.000000 0.000000 0.000000
vn -1.000000 0.000000 0.000000
vn -1.000000 0.000000 0.000000
vn 0.000000 1.000000 -0.000000
vn 0.000000 1.000000 -0.000000
vn 0.000000 1.000000 -0.000000
vn 0.000000 1.000000 -0.000000
vn 1.000000 0.000000 0.000000
vn 1.000000 0.000000 0.000000
vn 1.000000 0.000000 0.000000
vn 0.000000 -1.000000 0.000000
vn 0.000000 -1.000000 0.000000
vn 0.000000 -1.000000 0.000000
vn 0.000000 -1.000000 0.000000
vn 0.000000 0.000000 1.000000
vn 0.000000 0.000000 1.000000
vn 0.000000 0.000000 1.000000
vn 0.000000 0.000000 1.000000
vn 0.000000 0.000000 -1.000000
vn 0.000000 0.000000 -1.000000
vn 0.000000 0.000000 -1.000000
vn 0.000000 0.000000 -1.000000
vn 0.000000 1.000000 0.000000
vn 0.000000 1.000000 0.000000
vn 0.000000 1.000000 0.000000
vn 0.000000 1.000000 0.000000
vn 0.000000 1.000000 0.000000
vn 0.000000 1.000000 0.000000
vn 0.000000 1.000000 0.000000
vn 0.000000 1.000000 0.000000
vn 0.000000 0.000000 -1.000000
vn 0.000000 0.000000 -1.000000
vn 0.000000 0.000000 -1.000000
vn 0.000000 0.000000 -1.000000
vn 0.000000 0.000000 -1.000000
vn 0.000000 0.000000 -1.000000
vn 0.000000 1.000000 0.000000
vn 0.000000 1.000000 0.000000
vn 0.000000 1.000000 0.000000
vn 0.000000 1.000000 0.000000
vn 0.000000 0.000000 1.000000
vn 0.000000 0.000000 1.000000
vn 0.000000 0.000000 1.000000
vn 0.000000 0.000000 1.000000
vn 0.000000 0.000000 1.000000
vn 0.000000 0.000000 1.000000
vn 0.000000 0.000000 1.000000
vn 0.000000 0.000000 1.000000
vn -1.000000 0.000000 0.000000
vn -1.000000 0.000000 0.000000
vn -1.000000 0.000000 0.000000
vn -1.000000 0.000000 0.000000
vn -1.000000 0.000000 0.000000
vn -1.000000 0.000000 0.000000
vn 1.000000 0.000000 0.000000
vn 1.000000 0.000000 0.000000
vn 1.000000 0.000000 0.000000
vn 1.000000 0.000000 0.000000
vn 1.000000 0.000000 0.000000
vn 1.000000 0.000000 0.000000
vn 1.000000 0.000000 0.000000
vn -1.000000 0.000000 0.000000
vn -1.000000 0.000000 0.000000
vn -1.000000 0.000000 0.000000
vn -1.000000 0.000000 0.000000
vn 0.000000 1.000000 0.000001
vn 0.000000 1.000000 0.000001
vn 0.000000 1.000000 0.000001
vn 0.000000 1.000000 0.000001
vn 1.000000 0.000000 0.000000
vn 1.000000 0.000000 0.000000
vn 1.000000 0.000000 0.000000
vn 1.000000 0.000000 0.000000
vn 0.000000 -1.000000 0.000000
vn 0.000000 -1.000000 0.000000
vn 0.000000 -1.000000 0.000000
vn 0.000000 -1.000000 0.000000
vn 0.000000 0.000000 1.000000
vn 0.000000 0.000000 1.000000
vn 0.000000 0.000000 1.000000
vn 0.000000 0.000000 1.000000
vn 0.000000 0.000000 -1.000000
vn 0.000000 0.000000 -1.000000
vn 0.000000 0.000000 -1.000000
vn 0.000000 0.000000 -1.000000
vn 0.000000 1.000000 0.000000
vn 0.000000 1.000000 0.000000
vn 0.000000 1.000000 0.000000
vn 0.000000 1.000000 0.000000
vn 0.000000 1.000000 0.000000
vn 0.000000 1.000000 0.000000
vn 0.000000 1.000000 0.000000
vn 0.000000 1.000000 0.000000
vn 0.000000 0.000000 -1.000000
vn 0.000000 0.000000 -1.000000
vn 0.000000 0.000000 -1.000000
vn 0.000000 0.000000 -1.000000
vn 0.000000 0.000000 -1.000000
vn 0.000000 0.000000 -1.000000
vn 0.000000 1.000000 0.000000
vn 0.000000 1.000000 0.000000
vn 0.000000 1.000000 0.000000
vn 0.000000 1.000000 0.000000
vn -1.000000 0.000000 0.000000
vn -1.000000 0.000000 0.000000
vn -1.000000 0.000000 0.000000
vn -1.000000 0.000000 0.000000
vn 0.000000 1.000000 0.000000
vn 0.000000 1.000000 0.000000
vn 0.000000 1.000000 0.000000
vn 0.000000 1.000000 0.000000
vn 1.000000 0.000000 0.000000
vn 1.000000 0.000000 0.000000
vn 1.000000 0.000000 0.000000
vn 1.000000 0.000000 0.000000
vn 0.000000 -1.000000 0.000000
vn 0.000000 -1.000000 0.000000
vn 0.000000 -1.000000 0.000000
vn 0.000000 -1.000000 0.000000
vn 0.000000 0.000000 1.000000
vn 0.000000 0.000000 1.000000
vn 0.000000 0.000000 1.000000
vn 0.000000 0.000000 1.000000
vn 0.000000 0.000000 -1.000000
vn 0.000000 0.000000 -1.000000
vn 0.000000 0.000000 -1.000000
vn 0.000000 0.000000 -1.000000
vn 0.000000 1.000000 0.000000
vn 0.000000 1.000000 0.000000
vn 0.000000 1.000000 0.000000
vn 0.000000 1.000000 0.000000
vn 0.000000 1.000000 0.000000
vn 0.000000 1.000000 0.000000
vn 0.000000 1.000000 0.000000
vn 0.000000 1.000000 0.000000
vn 0.000000 0.000000 -1.000000
vn 0.000000 0.000000 -1.000000
vn 0.000000 0.000000 -1.000000
vn 0.000000 0.000000 -1.000000
vn 0.000000 0.000000 -1.000000
vn 0.000000 0.000000 -1.000000
vn 0.000000 1.000000 0.000000
vn 0.000000 1.000000 0.000000
vn 0.000000 1.000000 0.000000
vn 0.000000 1.000000 0.000000
vn 0.000000 0.000000 1.000000
vn 0.000000 0.000000 1.000000
vn 0.000000 0.000000 1.000000
vn 0.000000 0.000000 1.000000
vn 0.000000 0.000000 1.000000
vn 0.000000 0.000000 1.000000
vn 0.000000 0.000000 1.000000
vn 0.000000 0.000000 1.000000
vn 0.000000 0.000000 1.000000
vn 0.000000 0.000000 1.000000
vn 0.000000 0.000000 1.000000
vn 0.000000 0.000000 1.000000
vn -1.000000 0.000000 0.000000
vn -1.000000 0.000000 0.000000
vn -1.000000 0.000000 0.000000
vn -1.000000 0.000000 0.000000
vn -1.000000 0.000000 0.000000
vn -1.000000 0.000000 0.000000
vn -1.000000 0.000000 0.000000
vn 1.000000 0.000000 0.000000
vn 1.000000 0.000000 0.000000
vn 1.000000 0.000000 0.000000
vn 1.000000 0.000000 0.000000
vn 1.000000 0.000000 0.000000
vn 1.000000 0.000000 0.000000
vn 1.000000 0.000000 0.000000
vn -1.000000 0.000000 0.000000
vn -1.000000 0.000000 0.000000
vn -1.000000 0.000000 0.000000
vn -1.000000 0.000000 0.000000
vn 0.000000 1.000000 0.000001
vn 0.000000 1.000000 0.000001
vn 0.000000 1.000000 0.000001
vn 0.000000 1.000000 0.000001
vn 1.000000 0.000000 0.000000
vn 1.000000 0.000000 0.000000
vn 1.000000 0.000000 0.000000
vn 1.000000 0.000000 0.000000
vn 0.000000 -1.000000 0.000000
vn 0.000000 -1.000000 0.000000
vn 0.000000 -1.000000 0.000000
vn 0.000000 -1.000000 0.000000
vn 0.000000 0.000000 1.000000
vn 0.000000 0.000000 1.000000
vn 0.000000 0.000000 1.000000
vn 0.000000 0.000000 1.000000
vn 0.000000 0.000000 -1.000000
vn 0.000000 0.000000 -1.000000
vn 0.000000 0.000000 -1.000000
vn 0.000000 0.000000 -1.000000
vn 0.000000 1.000000 0.000000
vn 0.000000 1.000000 0.000000
vn 0.000000 1.000000 0.000000
vn 0.000000 1.000000 0.000000
vn 0.000000 1.000000 0.000000
vn 0.000000 1.000000 0.000000
vn 0.000000 1.000000 0.000000
vn 0.000000 1.000000 0.000000
vn 0.000000 0.000000 -1.000000
vn 0.000000 0.000000 -1.000000
vn 0.000000 0.000000 -1.000000
vn 0.000000 0.000000 -1.000000
vn 0.000000 0.000000 -1.000000
vn 0.000000 0.000000 -1.000000
vn 0.000000 1.000000 0.000000
vn 0.000000 1.000000 0.000000
vn 0.000000 1.000000 0.000000
vn 0.000000 1.000000 0.000000
s off
f 1/1/1 15/32/2 13/29/3 3/3/4
f 11/19/5 12/20/6 4/4/7 6/6/8
f 7/7/9 16/33/10 8/8/11
f 7/9/12 8/10/13 2/25/14 1/26/15
f 13/29/16 14/31/17 6/12/18 4/4/19
f 7/9/20 1/26/21 9/27/22 10/28/23
f 3/3/24 4/4/25 12/20/26 9/16/27
f 10/18/28 11/19/29 6/6/30 5/5/31
f 7/13/32 10/17/33 5/14/34
f 9/15/35 1/1/36 3/3/37
f 9/21/38 12/22/39 11/23/40 10/24/41
f 15/35/42 16/36/43 14/37/44 13/38/45
f 2/2/46 8/11/47 16/34/48 15/32/49
f 1/1/50 2/2/51 15/32/52
f 3/3/53 13/29/54 4/4/55
f 5/5/56 6/6/57 14/30/58
f 5/5/59 14/30/60 16/33/61 7/7/62
f 17/39/63 18/40/64 20/41/65 19/42/66
f 27/43/67 28/44/68 20/41/69 22/45/70
f 21/46/71 22/45/72 24/47/73 23/48/74
f 23/49/75 24/50/76 18/51/77 17/52/78
f 18/40/79 24/53/80 22/54/81 20/41/82
f 23/49/83 17/52/84 25/55/85 26/56/86
f 19/42/87 20/41/88 28/44/89 25/57/90
f 26/58/91 27/43/92 22/45/93 21/46/94
f 23/59/95 26/60/96 21/61/97
f 25/62/98 17/39/99 19/42/100
f 25/63/101 28/64/102 27/65/103 26/66/104
f 29/67/105 43/68/106 45/69/107 31/70/108
f 39/71/109 40/72/110 32/73/111 34/74/112
f 33/75/113 46/76/114 44/77/115 35/78/116
f 35/79/117 36/80/118 30/81/119 29/82/120
f 45/69/121 46/83/122 34/84/123 32/73/124
f 35/79/125 29/82/126 37/85/127 38/86/128
f 31/70/129 32/73/130 40/72/131 37/87/132
f 38/88/133 39/71/134 34/74/135 33/75/136
f 35/89/137 38/90/138 33/91/139
f 37/92/140 29/67/141 31/70/142
f 37/93/143 40/94/144 39/95/145 38/96/146
f 30/97/147 36/98/148 42/99/149 41/100/150
f 41/101/151 42/102/152 44/103/153 43/68/154
f 43/104/155 44/105/156 46/106/157 45/107/158
f 29/67/159 30/108/160 41/101/161 43/68/162
f 31/70/163 45/69/164 32/73/165
f 33/75/166 34/74/167 46/76/168
f 35/78/169 44/77/170 42/109/171 36/110/172
f 47/111/173 48/112/174 50/113/175 49/114/176
f 57/115/177 58/116/178 50/113/179 52/117/180
f 51/118/181 52/117/182 54/119/183 53/120/184
f 53/121/185 54/122/186 48/123/187 47/124/188
f 48/112/189 54/125/190 52/126/191 50/113/192
f 53/121/193 47/124/194 55/127/195 56/128/196
f 49/114/197 50/113/198 58/116/199 55/129/200
f 56/130/201 57/115/202 52/117/203 51/118/204
f 53/131/205 56/132/206 51/133/207
f 55/134/208 47/111/209 49/114/210
f 55/135/211 58/136/212 57/137/213 56/138/214
