# This file uses meters as units for non-parametric coordinates.

v 45.211060 40.426994 0.000000
v 31.183472 54.913689 0.000000
v 0.000000 60.104149 0.000000
v -31.183411 54.913689 0.000000
v -45.211060 40.426994 0.000000
v 45.211060 40.426994 5.926025
v 31.183472 54.913689 5.926025
v 0.000000 60.104149 5.926025
v -31.183411 54.913689 5.926025
v -45.211060 40.426994 5.926025
v 0.000000 33.638634 0.000000
v 45.211060 -60.104141 0.000000
v 45.211060 -60.104141 5.926025
v -45.211060 -60.104141 0.000000
v -45.211060 -60.104141 5.926025
v 0.000000 -60.104141 0.000000
v 0.000000 -60.104141 5.926025
v 39.102417 37.007072 5.926025
v 26.970154 48.754875 5.926025
v 0.000000 53.562767 5.926025
v -26.970154 48.754875 5.926025
v -39.102417 37.007072 5.926025
v 0.000000 -53.562759 5.926025
v 39.102417 -53.562759 5.926025
v -39.102417 -53.562759 5.926025
v 37.482971 35.438683 4.227539
v 25.853210 46.699974 4.227539
v 0.000000 51.380180 4.227539
v -25.853210 46.699974 4.227539
v -37.482971 35.438683 4.227539
v 0.000000 -51.380203 4.227539
v 37.482971 -51.380203 4.227539
v -37.482971 -51.380203 4.227539
vt 0.081238 0.303848
vt 0.081238 0.303848
vt 0.081238 0.303833
vt 0.081238 0.303833
vt 0.081238 0.303833
vt 0.081238 0.303833
vt 0.081238 0.303833
vt 0.081238 0.303833
vt 0.081238 0.303848
vt 0.081238 0.303848
vt 0.081238 0.303848
vt 0.081238 0.303848
vt 0.081238 0.303848
vt 0.081238 0.303848
vt 0.081238 0.303848
vt 0.081238 0.303848
vt 0.081238 0.303848
vt 0.081238 0.303848
vt 0.081238 0.303848
vt 0.081238 0.303833
vt 0.081238 0.303848
vt 0.081238 0.303848
vt 0.081238 0.303848
vt 0.081238 0.303848
vt 0.081238 0.303848
vt 0.081238 0.303848
vt 0.081238 0.303848
vt 0.081238 0.303833
vt 0.081238 0.303848
vt 0.081238 0.303848
vt 0.081238 0.303848
vt 0.081238 0.303848
vt 0.081238 0.303848
vn 0.718398 0.695632 0.000000
vn 0.718398 0.695632 0.000000
vn 0.718398 0.695632 0.000000
vn 0.718398 0.695632 0.000000
vn 0.164190 0.986429 0.000000
vn 0.164190 0.986429 0.000000
vn 0.164190 0.986429 0.000000
vn 0.164190 0.986429 0.000000
vn -0.164190 0.986429 0.000000
vn -0.164190 0.986429 0.000000
vn -0.164190 0.986429 0.000000
vn -0.164190 0.986429 0.000000
vn -0.718397 0.695633 0.000000
vn -0.718397 0.695633 0.000000
vn -0.718397 0.695633 0.000000
vn -0.718397 0.695633 0.000000
vn 0.000000 0.000000 -1.000000
vn 0.000000 0.000000 -1.000000
vn 0.000000 0.000000 -1.000000
vn 0.000000 0.000000 -1.000000
vn 0.000000 0.000000 -1.000000
vn 0.000000 0.000000 -1.000000
vn 0.000000 0.000000 -1.000000
vn 0.000000 0.000000 -1.000000
vn 0.000000 0.000000 -1.000000
vn 0.000000 0.000000 -1.000000
vn 0.000000 0.000000 -1.000000
vn 0.000000 0.000000 -1.000000
vn 1.000000 0.000000 0.000000
vn 1.000000 0.000000 0.000000
vn 1.000000 0.000000 0.000000
vn 1.000000 0.000000 0.000000
vn -1.000000 0.000000 0.000000
vn -1.000000 0.000000 0.000000
vn -1.000000 0.000000 0.000000
vn -1.000000 0.000000 0.000000
vn 0.000000 0.000000 -1.000000
vn 0.000000 0.000000 -1.000000
vn 0.000000 0.000000 -1.000000
vn 0.000000 0.000000 -1.000000
vn 0.000000 0.000000 -1.000000
vn 0.000000 0.000000 -1.000000
vn 0.000000 0.000000 -1.000000
vn 0.000000 0.000000 -1.000000
vn 0.000000 -1.000000 0.000000
vn 0.000000 -1.000000 0.000000
vn 0.000000 -1.000000 0.000000
vn 0.000000 -1.000000 0.000000
vn 0.000000 -1.000000 0.000000
vn 0.000000 -1.000000 0.000000
vn 0.000000 -1.000000 0.000000
vn 0.000000 -1.000000 0.000000
vn 0.000000 0.000000 1.000000
vn 0.000000 0.000000 1.000000
vn 0.000000 0.000000 1.000000
vn 0.000000 0.000000 1.000000
vn 0.000000 0.000000 1.000000
vn 0.000000 0.000000 1.000000
vn 0.000000 0.000000 1.000000
vn 0.000000 0.000000 1.000000
vn 0.000000 0.000000 1.000000
vn 0.000000 0.000000 1.000000
vn 0.000000 0.000000 1.000000
vn 0.000000 0.000000 1.000000
vn 0.000000 0.000000 1.000000
vn 0.000000 0.000000 1.000000
vn 0.000000 0.000000 1.000000
vn 0.000000 0.000000 1.000000
vn 0.000000 0.000000 1.000000
vn 0.000000 0.000000 1.000000
vn 0.000000 0.000000 1.000000
vn 0.000000 0.000000 1.000000
vn -0.000000 0.000000 1.000000
vn -0.000000 0.000000 1.000000
vn -0.000000 0.000000 1.000000
vn -0.000000 0.000000 1.000000
vn 0.000000 0.000000 1.000000
vn 0.000000 0.000000 1.000000
vn 0.000000 0.000000 1.000000
vn 0.000000 0.000000 1.000000
vn 0.000000 0.000000 1.000000
vn 0.000000 0.000000 1.000000
vn 0.000000 0.000000 1.000000
vn 0.000000 0.000000 1.000000
vn -0.418728 -0.432430 0.798543
vn -0.418728 -0.432430 0.798543
vn -0.418728 -0.432430 0.798543
vn -0.418728 -0.432430 0.798543
vn -0.108528 -0.604212 0.789398
vn -0.108528 -0.604212 0.789399
vn -0.108528 -0.604212 0.789399
vn -0.108528 -0.604212 0.789399
vn 0.108528 -0.604212 0.789398
vn 0.108528 -0.604212 0.789398
vn 0.108528 -0.604212 0.789398
vn 0.108528 -0.604212 0.789398
vn 0.418728 -0.432429 0.798544
vn 0.418728 -0.432430 0.798544
vn 0.418728 -0.432430 0.798544
vn 0.418728 -0.432429 0.798544
vn 0.000000 0.614153 0.789187
vn 0.000000 0.614153 0.789187
vn 0.000000 0.614153 0.789187
vn 0.000000 0.614153 0.789187
vn -0.723746 0.000000 0.690066
vn -0.723746 0.000000 0.690066
vn -0.723746 0.000000 0.690066
vn -0.723746 0.000000 0.690066
vn 0.723746 0.000000 0.690066
vn 0.723746 0.000000 0.690066
vn 0.723746 0.000000 0.690066
vn 0.723746 0.000000 0.690066
vn 0.000000 0.614153 0.789187
vn 0.000000 0.614153 0.789187
vn 0.000000 0.614153 0.789187
vn 0.000000 0.614153 0.789187
s off
f 6/1/1 1/2/2 2/3/3 7/4/4
f 2/3/5 3/5/6 8/6/7 7/4/8
f 3/5/9 4/7/10 9/8/11 8/6/12
f 9/8/13 4/7/14 5/9/15 10/10/16
f 2/3/17 1/2/18 11/11/19
f 3/5/20 2/3/21 11/11/22
f 4/7/23 3/5/24 11/11/25
f 5/9/26 4/7/27 11/11/28
f 1/2/29 6/1/30 13/12/31 12/13/32
f 10/10/33 5/9/34 14/14/35 15/15/36
f 11/11/37 1/2/38 12/13/39 16/16/40
f 5/9/41 11/11/42 16/16/43 14/14/44
f 13/12/45 17/17/46 16/16/47 12/13/48
f 14/14/49 16/16/50 17/17/51 15/15/52
f 18/18/53 6/1/54 7/4/55 19/19/56
f 7/4/57 8/6/58 20/20/59 19/19/60
f 8/6/61 9/8/62 21/21/63 20/20/64
f 21/21/65 9/8/66 10/10/67 22/22/68
f 17/17/69 13/12/70 24/23/71 23/24/72
f 13/12/73 6/1/74 18/18/75 24/23/76
f 10/10/77 15/15/78 25/25/79 22/22/80
f 15/15/81 17/17/82 23/24/83 25/25/84
f 26/26/85 18/18/86 19/19/87 27/27/88
f 19/19/89 20/20/90 28/28/91 27/27/92
f 20/20/93 21/21/94 29/29/95 28/28/96
f 29/29/97 21/21/98 22/22/99 30/30/100
f 23/24/101 24/23/102 32/31/103 31/32/104
f 24/23/105 18/18/106 26/26/107 32/31/108
f 22/22/109 25/25/110 33/33/111 30/30/112
f 25/25/113 23/24/114 31/32/115 33/33/116
v 36.510437 34.599297 5.859131
v -0.000000 26.486015 5.859131
v 25.182434 45.600212 5.859131
v 0.000000 50.212120 5.859131
v -25.182373 45.600212 5.859131
v -36.510437 34.599297 5.859131
v -0.000000 -50.212112 5.859131
v 36.510437 -50.212112 5.859131
v -36.510437 -50.212112 5.859131
v 37.482971 35.438683 4.227539
v 25.853210 46.699974 4.227539
v 0.000000 51.380180 4.227539
v -25.853210 46.699974 4.227539
v -37.482971 35.438683 4.227539
v -0.000000 -51.380203 4.227539
v 37.482971 -51.380203 4.227539
v -37.482971 -51.380203 4.227539
vt 0.754832 0.358708
vt 0.898525 0.390639
vt 0.853941 0.433935
vt 0.754832 0.452086
vt 0.655723 0.433935
vt 0.611140 0.390639
vt 0.754832 0.056851
vt 0.898525 0.056851
vt 0.611140 0.056851
vt 0.902352 0.393943
vt 0.856581 0.438263
vt 0.754832 0.456683
vt 0.653083 0.438263
vt 0.607312 0.393943
vt 0.754832 0.052254
vt 0.902352 0.052254
vt 0.607312 0.052254
vn 0.000000 0.000000 1.000000
vn 0.000000 0.000000 1.000000
vn 0.000000 0.000000 1.000000
vn 0.000000 0.000000 1.000000
vn 0.000000 0.000000 1.000000
vn 0.000000 0.000000 1.000000
vn 0.000000 0.000000 1.000000
vn 0.000000 0.000000 1.000000
vn 0.000000 0.000000 1.000000
vn -0.000000 0.000000 1.000000
vn -0.000000 0.000000 1.000000
vn -0.000000 0.000000 1.000000
vn -0.000000 0.000000 1.000000
vn -0.000000 0.000000 1.000000
vn -0.000000 0.000000 1.000000
vn -0.000000 0.000000 1.000000
vn 0.000000 0.000000 1.000000
vn 0.000000 0.000000 1.000000
vn 0.000000 0.000000 1.000000
vn 0.000000 0.000000 1.000000
vn 0.549664 0.566838 0.613648
vn 0.549664 0.566838 0.613648
vn 0.549664 0.566838 0.613648
vn 0.549664 0.566838 0.613648
vn 0.145329 0.798199 0.584600
vn 0.145329 0.798199 0.584600
vn 0.145329 0.798199 0.584600
vn 0.145329 0.798199 0.584600
vn -0.145329 0.798198 0.584602
vn -0.145329 0.798198 0.584602
vn -0.145329 0.798198 0.584602
vn -0.145329 0.798198 0.584602
vn -0.549660 0.566836 0.613654
vn -0.549660 0.566836 0.613654
vn -0.549660 0.566836 0.613654
vn -0.549660 0.566836 0.613654
vn 0.000000 -0.813104 0.582119
vn 0.000000 -0.813104 0.582119
vn 0.000000 -0.813104 0.582119
vn 0.000000 -0.813104 0.582119
vn 0.858981 0.000000 0.512008
vn 0.858981 0.000000 0.512008
vn 0.858981 0.000000 0.512008
vn 0.858981 0.000000 0.512008
vn -0.858981 0.000000 0.512008
vn -0.858981 0.000000 0.512008
vn -0.858981 0.000000 0.512008
vn -0.858981 0.000000 0.512008
vn 0.000000 -0.813104 0.582119
vn 0.000000 -0.813104 0.582119
vn 0.000000 -0.813104 0.582119
vn 0.000000 -0.813104 0.582119
s off
f 35/34/117 34/35/118 36/36/119
f 36/36/120 37/37/121 35/34/122
f 37/37/123 38/38/124 35/34/125
f 35/34/126 38/38/127 39/39/128
f 34/35/129 35/34/130 40/40/131 41/41/132
f 35/34/133 39/39/134 42/42/135 40/40/136
f 43/43/137 44/44/138 36/36/139 34/35/140
f 44/44/141 45/45/142 37/37/143 36/36/144
f 45/45/145 46/46/146 38/38/147 37/37/148
f 46/46/149 47/47/150 39/39/151 38/38/152
f 48/48/153 49/49/154 41/41/155 40/40/156
f 49/49/157 43/43/158 34/35/159 41/41/160
f 47/47/161 50/50/162 42/42/163 39/39/164
f 50/50/165 48/48/166 40/40/167 42/42/168
