# This file uses meters as units for non-parametric coordinates.

v -89.881104 -10.000000 18.824219
v -89.881104 -10.000000 -18.823723
v -89.881104 -13.777189 18.824219
v -89.881104 -13.777189 -18.823723
v 89.881470 -13.777189 18.824219
v 89.881470 -13.777189 -18.823730
v 89.881470 -10.000000 18.824219
v 89.881470 -10.000000 -18.823730
v -86.536133 -13.777189 15.425537
v -86.536133 -13.777189 -15.425301
v 86.536865 -13.777189 -15.425293
v 86.536865 -13.777189 15.425537
v -83.939697 -16.802727 12.977051
v -83.939697 -16.802727 -12.976807
v 83.939819 -16.802727 -12.976807
v 83.939819 -16.802727 12.977051
vt 0.103156 0.232904
vt 0.103156 0.232904
vt 0.103156 0.232904
vt 0.103156 0.232904
vt 0.103156 0.232904
vt 0.103156 0.232904
vt 0.103156 0.232904
vt 0.103156 0.232904
vt 0.103156 0.232904
vt 0.103156 0.232904
vt 0.103156 0.232904
vt 0.103156 0.232904
vt 0.103156 0.232904
vt 0.103156 0.232904
vt 0.103156 0.232904
vt 0.103156 0.232904
vt 0.103156 0.232904
vt 0.103156 0.232904
vt 0.547607 0.038855
vt 0.547607 0.038855
vt 0.547607 0.038855
vt 0.547607 0.038855
vt 0.547607 0.038857
vt 0.547607 0.038857
vt 0.547607 0.038857
vt 0.547607 0.038857
vn -1.000000 0.000000 0.000000
vn -1.000000 0.000000 0.000000
vn -1.000000 0.000000 0.000000
vn -1.000000 0.000000 0.000000
vn 0.000000 -1.000000 0.000000
vn 0.000000 -1.000000 0.000000
vn 0.000000 -1.000000 0.000000
vn 0.000000 -1.000000 0.000000
vn 1.000000 0.000000 0.000000
vn 1.000000 0.000000 0.000000
vn 1.000000 0.000000 0.000000
vn 1.000000 0.000000 0.000000
vn 0.000000 1.000000 0.000000
vn 0.000000 1.000000 0.000000
vn 0.000000 1.000000 0.000000
vn 0.000000 1.000000 0.000000
vn -0.000000 0.000000 -1.000000
vn -0.000000 0.000000 -1.000000
vn -0.000000 0.000000 -1.000000
vn -0.000000 0.000000 -1.000000
vn 0.000000 0.000000 1.000000
vn 0.000000 0.000000 1.000000
vn 0.000000 0.000000 1.000000
vn 0.000000 0.000000 1.000000
vn 0.000000 -1.000000 0.000000
vn 0.000000 -1.000000 0.000000
vn 0.000000 -1.000000 0.000000
vn 0.000000 -1.000000 0.000000
vn 0.000000 -1.000000 -0.000000
vn 0.000000 -1.000000 -0.000000
vn 0.000000 -1.000000 -0.000000
vn 0.000000 -1.000000 -0.000000
vn 0.000000 -1.000000 0.000000
vn 0.000000 -1.000000 0.000000
vn 0.000000 -1.000000 0.000000
vn 0.000000 -1.000000 0.000000
vn 0.000000 -1.000000 -0.000000
vn 0.000000 -1.000000 -0.000000
vn 0.000000 -1.000000 -0.000000
vn 0.000000 -1.000000 -0.000000
vn -0.758870 -0.651242 0.000000
vn -0.758870 -0.651242 0.000000
vn -0.758870 -0.651242 0.000000
vn -0.758870 -0.651242 0.000000
vn 0.000000 -0.629081 -0.777340
vn 0.000000 -0.629081 -0.777340
vn 0.000000 -0.629081 -0.777340
vn 0.000000 -0.629081 -0.777340
vn 0.758794 -0.651331 0.000000
vn 0.758794 -0.651331 0.000000
vn 0.758794 -0.651331 0.000000
vn 0.758794 -0.651331 0.000000
vn 0.000000 -0.629080 0.777340
vn 0.000000 -0.629080 0.777340
vn 0.000000 -0.629080 0.777340
vn 0.000000 -0.629080 0.777340
s off
f 1/1/1 2/2/2 4/4/3 3/3/4
f 13/19/5 14/20/6 15/21/7 16/22/8
f 5/5/9 6/6/10 8/8/11 7/7/12
f 7/7/13 8/8/14 2/10/15 1/9/16
f 2/2/17 8/11/18 6/12/19 4/4/20
f 7/13/21 1/1/22 3/3/23 5/14/24
f 3/3/25 4/4/26 10/16/27 9/15/28
f 4/4/29 6/6/30 11/17/31 10/16/32
f 6/6/33 5/5/34 12/18/35 11/17/36
f 5/5/37 3/3/38 9/15/39 12/18/40
f 9/23/41 10/24/42 14/20/43 13/19/44
f 10/24/45 11/25/46 15/21/47 14/20/48
f 11/25/49 12/26/50 16/22/51 15/21/52
f 12/26/53 9/23/54 13/19/55 16/22/56
