# This file uses meters as units for non-parametric coordinates.

v 7.903259 3.273665 136.099365
v 7.903320 -3.273523 136.099365
v 3.273682 -7.903235 136.099365
v -3.273682 -7.903287 136.099365
v -7.903259 -3.273587 136.099365
v -7.903198 3.273758 136.099365
v -3.273682 7.903314 136.099365
v 3.273682 7.903426 136.099365
v 7.903259 3.273665 -136.099487
v 7.903320 -3.273523 -136.099487
v 3.273682 -7.903235 -136.099487
v -3.273682 -7.903287 -136.099487
v -7.903259 -3.273587 -136.099487
v -7.903198 3.273758 -136.099487
v -3.273682 7.903314 -136.099487
v 3.273682 7.903426 -136.099487
v 3.616516 1.498082 136.099365
v 3.616516 -1.497851 136.099365
v 1.497986 -3.616446 136.099365
v -1.497986 -3.616372 136.099365
v -3.616394 -1.497969 136.099365
v -3.616394 1.498124 136.099365
v -1.497925 3.616560 136.099365
v 1.497986 3.616588 136.099365
v 3.616516 1.498082 -136.099487
v 3.616516 -1.497851 -136.099487
v 1.497986 -3.616446 -136.099487
v -1.497986 -3.616372 -136.099487
v -3.616394 -1.497969 -136.099487
v -3.616394 1.498124 -136.099487
v -1.497925 3.616560 -136.099487
v 1.497986 3.616588 -136.099487
v 3.099121 1.283769 124.411011
v 3.099121 -1.283542 124.411011
v 0.000000 0.000138 124.411011
v 1.283691 -3.099034 124.411011
v -1.283630 -3.098970 124.411011
v -3.099060 -1.283643 124.411011
v -3.099060 1.283805 124.411011
v -1.283630 3.099160 124.411011
v 1.283691 3.099184 124.411011
v 3.099121 1.283769 -124.411011
v 3.099121 -1.283542 -124.411011
v 0.000000 0.000138 -124.411011
v 1.283691 -3.099034 -124.411011
v -1.283630 -3.098970 -124.411011
v -3.099060 -1.283643 -124.411011
v -3.099060 1.283805 -124.411011
v -1.283630 3.099160 -124.411011
v 1.283691 3.099184 -124.411011
vt 0.138470 0.475519
vt 0.138470 0.475519
vt 0.138470 0.475519
vt 0.138470 0.475519
vt 0.138470 0.475519
vt 0.138470 0.475519
vt 0.138470 0.475519
vt 0.138470 0.475519
vt 0.138470 0.475519
vt 0.138470 0.475519
vt 0.138470 0.475519
vt 0.138470 0.475519
vt 0.138470 0.475519
vt 0.138470 0.475519
vt 0.138470 0.475519
vt 0.138470 0.475519
vt 0.138470 0.475519
vt 0.138470 0.475519
vt 0.138470 0.475519
vt 0.138470 0.475519
vt 0.138470 0.475519
vt 0.138470 0.475519
vt 0.138470 0.475519
vt 0.138470 0.475519
vt 0.138470 0.475519
vt 0.138470 0.475519
vt 0.138470 0.475519
vt 0.138470 0.475519
vt 0.138470 0.475519
vt 0.138470 0.475519
vt 0.138470 0.475519
vt 0.138470 0.475519
vt 0.138470 0.475519
vt 0.138470 0.475519
vt 0.138470 0.475519
vt 0.138470 0.475519
vt 0.138470 0.475519
vt 0.138470 0.475519
vt 0.138470 0.475519
vt 0.138470 0.475519
vt 0.138470 0.475519
vt 0.138470 0.475519
vt 0.138470 0.475519
vt 0.138470 0.475519
vt 0.138470 0.475519
vt 0.138470 0.475519
vt 0.138470 0.475519
vt 0.138470 0.475519
vt 0.138470 0.475519
vt 0.138470 0.475519
vt 0.138470 0.475519
vt 0.138470 0.475519
vt 0.138470 0.475519
vt 0.138470 0.475519
vt 0.138470 0.475519
vt 0.138470 0.475519
vt 0.138470 0.475519
vt 0.138470 0.475519
vt 0.138470 0.475519
vt 0.138470 0.475519
vt 0.138470 0.475519
vt 0.138470 0.475519
vt 0.138470 0.475519
vt 0.138470 0.475519
vt 0.138470 0.475519
vt 0.138470 0.475519
vt 0.138470 0.475519
vt 0.138470 0.475519
vn 1.000000 0.000009 0.000000
vn 1.000000 0.000009 0.000000
vn 1.000000 0.000009 0.000000
vn 1.000000 0.000009 0.000000
vn 0.707112 -0.707101 0.000000
vn 0.707112 -0.707101 0.000000
vn 0.707112 -0.707101 0.000000
vn 0.707112 -0.707101 0.000000
vn 0.000008 -1.000000 0.000000
vn 0.000008 -1.000000 0.000000
vn 0.000008 -1.000000 0.000000
vn 0.000008 -1.000000 0.000000
vn -0.707116 -0.707098 0.000000
vn -0.707116 -0.707098 0.000000
vn -0.707116 -0.707098 0.000000
vn -0.707116 -0.707098 0.000000
vn -1.000000 0.000009 0.000000
vn -1.000000 0.000009 0.000000
vn -1.000000 0.000009 0.000000
vn -1.000000 0.000009 0.000000
vn -0.707110 0.707104 0.000000
vn -0.707110 0.707104 0.000000
vn -0.707110 0.707104 0.000000
vn -0.707110 0.707104 0.000000
vn -0.000017 1.000000 0.000000
vn -0.000017 1.000000 0.000000
vn -0.000017 1.000000 0.000000
vn -0.000017 1.000000 0.000000
vn 0.707121 0.707093 0.000000
vn 0.707121 0.707093 0.000000
vn 0.707121 0.707093 0.000000
vn 0.707121 0.707093 0.000000
vn 0.000000 0.000000 1.000000
vn 0.000000 0.000000 1.000000
vn 0.000000 0.000000 1.000000
vn 0.000000 0.000000 1.000000
vn 0.000000 0.000000 1.000000
vn 0.000000 0.000000 1.000000
vn 0.000008 0.000000 1.000000
vn 0.000008 0.000000 1.000000
vn 0.000008 0.000000 1.000000
vn -0.000004 0.000000 1.000000
vn -0.000004 0.000000 1.000000
vn -0.000004 0.000000 1.000000
vn -0.000004 0.000000 1.000000
vn -0.000004 0.000000 1.000000
vn -0.000004 0.000000 1.000000
vn 0.000000 0.000000 1.000000
vn 0.000000 0.000000 1.000000
vn 0.000000 0.000000 1.000000
vn 0.000000 0.000000 1.000000
vn 0.000000 0.000000 1.000000
vn 0.000000 0.000000 1.000000
vn 0.000000 0.000000 1.000000
vn 0.000000 0.000000 1.000000
vn 0.000000 0.000000 1.000000
vn 0.000000 0.000000 -1.000000
vn 0.000000 0.000000 -1.000000
vn 0.000000 0.000000 -1.000000
vn 0.000000 0.000000 -1.000000
vn 0.000000 0.000000 -1.000000
vn 0.000000 0.000000 -1.000000
vn 0.000008 0.000000 -1.000000
vn 0.000008 0.000000 -1.000000
vn 0.000008 0.000000 -1.000000
vn 0.000000 0.000000 -1.000000
vn 0.000000 0.000000 -1.000000
vn 0.000000 0.000000 -1.000000
vn -0.000004 0.000000 -1.000000
vn -0.000004 0.000000 -1.000000
vn -0.000004 0.000000 -1.000000
vn -0.000004 0.000000 -1.000000
vn -0.000004 0.000000 -1.000000
vn -0.000004 0.000000 -1.000000
vn 0.000000 0.000000 -1.000000
vn 0.000000 0.000000 -1.000000
vn 0.000000 0.000000 -1.000000
vn 0.000000 0.000000 -1.000000
vn 0.000000 0.000000 -1.000000
vn 0.000000 0.000000 -1.000000
vn -0.000001 0.000000 1.000000
vn -0.000001 0.000000 1.000000
vn -0.000001 0.000000 1.000000
vn -0.000001 0.000000 1.000000
vn 0.000003 0.000000 1.000000
vn 0.000003 0.000000 1.000000
vn 0.000003 0.000000 1.000000
vn 0.000003 0.000000 1.000000
vn 0.000000 0.000000 1.000000
vn 0.000000 0.000000 1.000000
vn 0.000000 0.000000 1.000000
vn 0.000000 0.000000 1.000000
vn -0.000001 0.000000 1.000000
vn -0.000001 0.000000 1.000000
vn -0.000001 0.000000 1.000000
vn -0.000001 0.000000 1.000000
vn 0.000001 0.000000 1.000000
vn 0.000001 0.000000 1.000000
vn 0.000001 0.000000 1.000000
vn 0.000001 0.000000 1.000000
vn 0.000000 0.000000 1.000000
vn 0.000000 0.000000 1.000000
vn 0.000000 0.000000 1.000000
vn 0.000000 0.000000 1.000000
vn 0.000000 0.000000 1.000000
vn 0.000000 0.000000 1.000000
vn 0.000000 0.000000 1.000000
vn 0.000000 0.000000 1.000000
vn -0.000001 0.000000 1.000000
vn -0.000001 0.000000 1.000000
vn -0.000001 0.000000 1.000000
vn -0.000001 0.000000 1.000000
vn 0.000000 0.000000 -1.000000
vn 0.000000 0.000000 -1.000000
vn 0.000000 0.000000 -1.000000
vn 0.000000 0.000000 -1.000000
vn -0.000001 0.000000 -1.000000
vn -0.000001 0.000000 -1.000000
vn -0.000001 0.000000 -1.000000
vn -0.000001 0.000000 -1.000000
vn 0.000000 0.000000 -1.000000
vn 0.000000 0.000000 -1.000000
vn 0.000000 0.000000 -1.000000
vn 0.000000 0.000000 -1.000000
vn 0.000000 0.000000 -1.000000
vn 0.000000 0.000000 -1.000000
vn 0.000000 0.000000 -1.000000
vn 0.000000 0.000000 -1.000000
vn 0.000000 0.000000 -1.000000
vn 0.000000 0.000000 -1.000000
vn 0.000000 0.000000 -1.000000
vn 0.000000 0.000000 -1.000000
vn -0.000001 0.000000 -1.000000
vn -0.000001 0.000000 -1.000000
vn -0.000001 0.000000 -1.000000
vn -0.000001 0.000000 -1.000000
vn 0.000000 0.000000 -1.000000
vn 0.000000 0.000000 -1.000000
vn 0.000000 0.000000 -1.000000
vn 0.000000 0.000000 -1.000000
vn 0.000000 0.000000 -1.000000
vn 0.000000 0.000000 -1.000000
vn 0.000000 0.000000 -1.000000
vn 0.000000 0.000000 -1.000000
vn -0.999022 0.000000 0.044223
vn -0.999022 0.000000 0.044223
vn -0.999022 0.000000 0.044223
vn -0.999022 0.000000 0.044223
vn -0.706426 0.706404 0.044222
vn -0.706426 0.706404 0.044222
vn -0.706426 0.706404 0.044222
vn -0.706426 0.706404 0.044222
vn 0.000025 0.999022 0.044224
vn 0.000025 0.999022 0.044224
vn 0.000025 0.999022 0.044224
vn 0.000025 0.999022 0.044224
vn 0.706405 0.706425 0.044223
vn 0.706405 0.706425 0.044223
vn 0.706405 0.706425 0.044223
vn 0.706405 0.706425 0.044223
vn 0.999022 0.000000 0.044217
vn 0.999022 0.000000 0.044217
vn 0.999022 0.000000 0.044217
vn 0.999022 0.000000 0.044217
vn 0.706406 -0.706425 0.044221
vn 0.706406 -0.706425 0.044221
vn 0.706406 -0.706425 0.044221
vn 0.706406 -0.706425 0.044221
vn 0.000009 -0.999022 0.044223
vn 0.000009 -0.999022 0.044223
vn 0.000009 -0.999022 0.044223
vn 0.000009 -0.999022 0.044223
vn -0.706411 -0.706419 0.044222
vn -0.706411 -0.706419 0.044222
vn -0.706411 -0.706419 0.044222
vn -0.706411 -0.706419 0.044222
vn -0.999022 0.000000 -0.044222
vn -0.999022 0.000000 -0.044222
vn -0.999022 0.000000 -0.044222
vn -0.999022 0.000000 -0.044222
vn -0.706427 0.706404 -0.044222
vn -0.706427 0.706404 -0.044222
vn -0.706427 0.706404 -0.044222
vn -0.706427 0.706404 -0.044222
vn 0.000025 0.999022 -0.044223
vn 0.000025 0.999022 -0.044223
vn 0.000025 0.999022 -0.044223
vn 0.000025 0.999022 -0.044223
vn 0.706406 0.706425 -0.044222
vn 0.706406 0.706425 -0.044222
vn 0.706406 0.706425 -0.044222
vn 0.706406 0.706425 -0.044222
vn 0.999022 0.000000 -0.044217
vn 0.999022 0.000000 -0.044217
vn 0.999022 0.000000 -0.044217
vn 0.999022 0.000000 -0.044217
vn 0.706406 -0.706425 -0.044220
vn 0.706406 -0.706425 -0.044220
vn 0.706406 -0.706425 -0.044220
vn 0.706406 -0.706425 -0.044220
vn 0.000009 -0.999022 -0.044223
vn 0.000009 -0.999022 -0.044223
vn 0.000009 -0.999022 -0.044223
vn 0.000009 -0.999022 -0.044223
vn -0.706412 -0.706419 -0.044222
vn -0.706412 -0.706419 -0.044222
vn -0.706412 -0.706418 -0.044222
vn -0.706412 -0.706419 -0.044222
s off
f 1/9/1 2/10/2 10/19/3 9/18/4
f 2/10/5 3/11/6 11/20/7 10/19/8
f 3/11/9 4/12/10 12/21/11 11/20/12
f 4/12/13 5/13/14 13/22/15 12/21/16
f 5/13/17 6/14/18 14/23/19 13/22/20
f 6/14/21 7/15/22 15/24/23 14/23/24
f 7/15/25 8/16/26 16/25/27 15/24/28
f 8/16/29 1/17/30 9/26/31 16/25/32
f 34/53/33 33/54/34 35/35/35
f 36/55/36 34/53/37 35/35/38
f 37/56/39 36/55/40 35/35/41
f 38/57/42 37/56/43 35/35/44
f 39/58/45 38/57/46 35/35/47
f 40/59/48 39/58/49 35/35/50
f 41/60/51 40/59/52 35/35/53
f 33/54/54 41/60/55 35/35/56
f 42/61/57 43/62/58 44/36/59
f 43/62/60 45/63/61 44/36/62
f 45/63/63 46/64/64 44/36/65
f 46/64/66 47/65/67 44/36/68
f 47/65/69 48/66/70 44/36/71
f 48/66/72 49/67/73 44/36/74
f 49/67/75 50/68/76 44/36/77
f 50/68/78 42/61/79 44/36/80
f 2/2/81 1/1/82 17/38/83 18/37/84
f 3/3/85 2/2/86 18/37/87 19/39/88
f 4/4/89 3/3/90 19/39/91 20/40/92
f 5/5/93 4/4/94 20/40/95 21/41/96
f 6/6/97 5/5/98 21/41/99 22/42/100
f 7/7/101 6/6/102 22/42/103 23/43/104
f 8/8/105 7/7/106 23/43/107 24/44/108
f 1/1/109 8/8/110 24/44/111 17/38/112
f 9/33/113 10/32/114 26/46/115 25/45/116
f 10/32/117 11/31/118 27/47/119 26/46/120
f 11/31/121 12/30/122 28/48/123 27/47/124
f 12/30/125 13/29/126 29/49/127 28/48/128
f 13/29/129 14/28/130 30/50/131 29/49/132
f 14/28/133 15/27/134 31/51/135 30/50/136
f 15/27/137 16/34/138 32/52/139 31/51/140
f 16/34/141 9/33/142 25/45/143 32/52/144
f 18/37/145 17/38/146 33/54/147 34/53/148
f 19/39/149 18/37/150 34/53/151 36/55/152
f 20/40/153 19/39/154 36/55/155 37/56/156
f 21/41/157 20/40/158 37/56/159 38/57/160
f 22/42/161 21/41/162 38/57/163 39/58/164
f 23/43/165 22/42/166 39/58/167 40/59/168
f 24/44/169 23/43/170 40/59/171 41/60/172
f 17/38/173 24/44/174 41/60/175 33/54/176
f 25/45/177 26/46/178 43/62/179 42/61/180
f 26/46/181 27/47/182 45/63/183 43/62/184
f 27/47/185 28/48/186 46/64/187 45/63/188
f 28/48/189 29/49/190 47/65/191 46/64/192
f 29/49/193 30/50/194 48/66/195 47/65/196
f 30/50/197 31/51/198 49/67/199 48/66/200
f 31/51/201 32/52/202 50/68/203 49/67/204
f 32/52/205 25/45/206 42/61/207 50/68/208
