# This file uses meters as units for non-parametric coordinates.

v -6.206482 0.000000 -7.541016
v -6.206482 0.000000 7.541016
v -6.846558 19.111618 -8.318359
v -6.846558 19.111618 8.318359
v 6.846313 19.111618 -8.318359
v 6.846313 19.111618 8.318359
v 6.206299 0.000000 -7.541016
v 6.206299 0.000000 7.541016
v -8.515625 0.000000 -5.107422
v -8.515625 0.000000 5.107178
v -9.393799 19.111618 5.633789
v -9.393799 19.111618 -5.634033
v 9.393799 19.111618 -5.634033
v 9.393799 19.111618 5.633789
v 8.515686 0.000000 5.107178
v 8.515686 0.000000 -5.107422
v -6.068481 20.926552 -7.373535
v -6.068481 20.926552 7.372803
v 6.068481 20.926552 7.372803
v 6.068481 20.926552 -7.373535
v -8.326355 20.926552 -4.993896
v -8.326355 20.926552 4.993652
v 8.326294 20.926552 4.993652
v 8.326294 20.926552 -4.993896
v -6.757080 20.926552 -8.210449
v -6.757080 20.926552 8.209717
v 6.757141 20.926552 8.209717
v 6.757141 20.926552 -8.210449
v -9.271362 20.926552 -5.560547
v -9.271362 20.926552 5.560547
v 9.271362 20.926552 5.560547
v 9.271362 20.926552 -5.560547
v -6.757080 24.364128 -8.210449
v -6.757080 24.364128 8.209717
v 6.757141 24.364128 8.209717
v 6.757141 24.364128 -8.210449
v -9.271362 24.364128 -5.560547
v -9.271362 24.364128 5.560547
v 9.271362 24.364128 5.560547
v 9.271362 24.364128 -5.560547
v -9.393799 2.016724 -5.634033
v -9.393799 2.016724 5.633789
v -6.846558 2.016724 8.318359
v 6.846313 2.016724 8.318359
v 9.393799 2.016724 5.633789
v 9.393799 2.016724 -5.634033
v 6.846313 2.016724 -8.318359
v -6.846558 2.016724 -8.318359
v 9.393799 7.287766 -5.634033
v 9.393799 7.287766 5.633789
v 6.846313 7.287766 8.318359
v -6.846558 7.287758 8.318359
v -9.393799 7.287758 5.633789
v -9.393799 7.287758 -5.634033
v -6.846558 7.287758 -8.318359
v 6.846313 7.287766 -8.318359
v 4.090881 12.021416 8.318359
v -4.091125 12.021416 8.318359
v 4.090881 14.377960 8.318359
v -4.091125 14.377960 8.318359
vt 0.069834 0.327609
vt 0.069834 0.327609
vt 0.070270 0.351146
vt 0.070270 0.351146
vt 0.070270 0.351146
vt 0.070270 0.351146
vt 0.069834 0.327609
vt 0.069834 0.327609
vt 0.069834 0.327609
vt 0.069834 0.327609
vt 0.069834 0.327609
vt 0.070270 0.351146
vt 0.069834 0.327609
vt 0.070270 0.351146
vt 0.069834 0.327609
vt 0.069834 0.327609
vt 0.070270 0.351146
vt 0.070270 0.351146
vt 0.070270 0.351146
vt 0.070270 0.351146
vt 0.069834 0.327609
vt 0.069834 0.327609
vt 0.070270 0.351146
vt 0.070270 0.351146
vt 0.070270 0.351146
vt 0.070270 0.351146
vt 0.070270 0.351146
vt 0.070270 0.351146
vt 0.070270 0.351146
vt 0.070270 0.351146
vt 0.038086 0.281769
vt 0.038086 0.281769
vt 0.038086 0.281769
vt 0.038086 0.281769
vt 0.038086 0.281769
vt 0.038086 0.281769
vt 0.038086 0.281769
vt 0.038086 0.281769
vt 0.038086 0.281754
vt 0.038086 0.281754
vt 0.038086 0.281754
vt 0.038086 0.281754
vt 0.038086 0.281754
vt 0.038086 0.281754
vt 0.038086 0.281754
vt 0.038086 0.281754
vt 0.069834 0.327609
vt 0.069834 0.327609
vt 0.069834 0.327609
vt 0.069834 0.327609
vt 0.069834 0.327609
vt 0.069834 0.327609
vt 0.069834 0.327609
vt 0.069834 0.327609
vt 0.069834 0.327609
vt 0.069834 0.327609
vt 0.038086 0.281754
vt 0.038086 0.281754
vt 0.038086 0.281754
vt 0.038086 0.281754
vt 0.038086 0.281754
vt 0.038086 0.281754
vt 0.038086 0.281754
vt 0.038086 0.281754
vt 0.069834 0.327609
vt 0.070270 0.351146
vt 0.070270 0.351146
vt 0.070270 0.351146
vt 0.070270 0.351146
vt 0.070270 0.351146
vt 0.070270 0.351146
vt 0.070270 0.351146
vt 0.070270 0.351146
vt 0.070270 0.351146
vt 0.069834 0.327609
vt 0.069834 0.327609
vt 0.069834 0.327609
vt 0.070270 0.351146
vt 0.069834 0.327609
vt 0.069834 0.327609
vt 0.069834 0.327609
vt 0.069834 0.327609
vt 0.069834 0.327609
vt 0.069834 0.327609
vt 0.069834 0.327609
vt 0.069834 0.327609
vt 0.069834 0.327609
vt 0.069834 0.327609
vt 0.069834 0.327609
vt 0.069834 0.327609
vt 0.069834 0.327609
vt 0.069834 0.327609
vt 0.069834 0.327609
vt 0.069834 0.327609
vt 0.069834 0.327609
vt 0.069834 0.327609
vt 0.069834 0.327609
vt 0.069834 0.327609
vt 0.069834 0.327609
vt 0.069834 0.327609
vt 0.069834 0.327609
vt 0.069834 0.327609
vt 0.069834 0.327609
vt 0.069834 0.327609
vt 0.069834 0.327609
vt 0.069834 0.327609
vt 0.069834 0.327609
vt 0.069834 0.327609
vt 0.069834 0.327609
vt 0.069834 0.327609
vt 0.069834 0.327609
vt 0.069834 0.327609
vt 0.069834 0.327609
vt 0.069834 0.327609
vt 0.069834 0.327609
vt 0.069834 0.327609
vt 0.069834 0.327609
vt 0.069834 0.327609
vt 0.069834 0.327609
vt 0.069834 0.327609
vt 0.069834 0.327609
vt 0.069834 0.327609
vt 0.069834 0.327609
vt 0.069834 0.327609
vt 0.069834 0.327609
vt 0.069834 0.327609
vt 0.069834 0.327609
vt 0.069834 0.327609
vt 0.070270 0.351146
vt 0.070270 0.351146
vt 0.070270 0.351146
vt 0.070270 0.351146
vt 0.101807 0.301224
vt 0.101807 0.301224
vt 0.101807 0.301224
vt 0.101807 0.301224
vn -1.000000 0.000000 0.000000
vn -1.000000 0.000000 0.000000
vn -1.000000 0.000000 0.000000
vn -1.000000 0.000000 0.000000
vn 0.000000 1.000000 0.000000
vn 0.000000 1.000000 0.000000
vn 0.000000 1.000000 0.000000
vn 0.000000 1.000000 0.000000
vn 1.000000 0.000000 0.000000
vn 1.000000 0.000000 0.000000
vn 1.000000 0.000000 0.000000
vn 1.000000 0.000000 0.000000
vn 0.000000 -1.000000 0.000000
vn 0.000000 -1.000000 0.000000
vn 0.000000 -1.000000 0.000000
vn 0.000000 -1.000000 0.000000
vn 0.000000 0.000000 1.000000
vn 0.000000 0.000000 1.000000
vn 0.000000 0.000000 1.000000
vn 0.000000 0.000000 1.000000
vn 0.000000 0.000000 -1.000000
vn 0.000000 0.000000 -1.000000
vn 0.000000 0.000000 -1.000000
vn 0.000000 0.000000 -1.000000
vn 0.000000 -1.000000 0.000000
vn 0.000000 -1.000000 0.000000
vn 0.000000 -1.000000 0.000000
vn 0.000000 -1.000000 0.000000
vn -0.725418 0.000000 0.688309
vn -0.725418 0.000000 0.688309
vn -0.725418 0.000000 0.688309
vn -0.725418 0.000000 0.688309
vn 0.000000 1.000000 0.000000
vn 0.000000 1.000000 0.000000
vn 0.000000 1.000000 0.000000
vn 0.000000 1.000000 0.000000
vn -0.725386 0.000000 -0.688342
vn -0.725386 0.000000 -0.688342
vn -0.725386 0.000000 -0.688342
vn -0.725386 0.000000 -0.688342
vn 0.000000 1.000000 0.000000
vn 0.000000 1.000000 0.000000
vn 0.000000 1.000000 0.000000
vn 0.000000 1.000000 0.000000
vn 0.725385 0.000000 0.688344
vn 0.725385 0.000000 0.688344
vn 0.725385 0.000000 0.688344
vn 0.725385 0.000000 0.688344
vn 0.000000 -1.000000 0.000000
vn 0.000000 -1.000000 0.000000
vn 0.000000 -1.000000 0.000000
vn 0.000000 -1.000000 0.000000
vn 0.725353 0.000000 -0.688377
vn 0.725353 0.000000 -0.688377
vn 0.725353 0.000000 -0.688377
vn 0.725353 0.000000 -0.688377
vn 0.000000 0.462042 0.886858
vn 0.000000 0.462042 0.886858
vn 0.000000 0.462042 0.886858
vn 0.000000 0.462042 0.886858
vn 0.000000 0.461760 -0.887005
vn 0.000000 0.461760 -0.887005
vn 0.000000 0.461760 -0.887005
vn 0.000000 0.461760 -0.887005
vn -0.602820 0.556253 -0.572006
vn -0.602820 0.556253 -0.572006
vn -0.602820 0.556253 -0.572006
vn -0.602820 0.556253 -0.572006
vn -0.861968 0.506962 0.000000
vn -0.861968 0.506962 0.000000
vn -0.861968 0.506962 0.000000
vn -0.861968 0.506962 0.000000
vn -0.602768 0.556332 0.571985
vn -0.602768 0.556332 0.571985
vn -0.602768 0.556332 0.571985
vn -0.602768 0.556332 0.571985
vn 0.602767 0.556311 0.572006
vn 0.602767 0.556311 0.572006
vn 0.602767 0.556311 0.572006
vn 0.602767 0.556311 0.572006
vn 0.861956 0.506984 0.000000
vn 0.861956 0.506984 0.000000
vn 0.861956 0.506984 0.000000
vn 0.861956 0.506984 0.000000
vn 0.602819 0.556231 -0.572028
vn 0.602819 0.556231 -0.572028
vn 0.602819 0.556231 -0.572028
vn 0.602819 0.556231 -0.572028
vn 0.000000 -1.000000 0.000001
vn 0.000000 -1.000000 0.000001
vn 0.000000 -1.000000 0.000001
vn 0.000000 -1.000000 0.000001
vn 0.000000 -1.000000 -0.000001
vn 0.000000 -1.000000 -0.000001
vn 0.000000 -1.000000 -0.000001
vn 0.000000 -1.000000 -0.000001
vn 0.000000 -1.000000 0.000000
vn 0.000000 -1.000000 0.000000
vn 0.000000 -1.000000 0.000000
vn 0.000000 -1.000000 0.000000
vn 0.000000 -1.000000 0.000000
vn 0.000000 -1.000000 0.000000
vn 0.000000 -1.000000 0.000000
vn 0.000000 -1.000000 0.000000
vn 0.000000 -1.000000 0.000000
vn 0.000000 -1.000000 0.000000
vn 0.000000 -1.000000 0.000000
vn 0.000000 -1.000000 0.000000
vn 0.000000 -1.000000 -0.000001
vn 0.000000 -1.000000 -0.000001
vn 0.000000 -1.000000 -0.000001
vn 0.000000 -1.000000 -0.000001
vn 0.000000 -1.000000 0.000000
vn 0.000000 -1.000000 0.000000
vn 0.000000 -1.000000 0.000000
vn 0.000000 -1.000000 0.000000
vn 0.000000 -1.000000 0.000001
vn 0.000000 -1.000000 0.000001
vn 0.000000 -1.000000 0.000001
vn 0.000000 -1.000000 0.000001
vn 0.000000 0.000000 1.000000
vn 0.000000 0.000000 1.000000
vn 0.000000 0.000000 1.000000
vn 0.000000 0.000000 1.000000
vn 0.000000 0.000000 -1.000000
vn 0.000000 0.000000 -1.000000
vn 0.000000 0.000000 -1.000000
vn 0.000000 0.000000 -1.000000
vn -0.725426 0.000000 -0.688300
vn -0.725426 0.000000 -0.688300
vn -0.725426 0.000000 -0.688300
vn -0.725426 0.000000 -0.688300
vn -1.000000 0.000000 0.000000
vn -1.000000 0.000000 0.000000
vn -1.000000 0.000000 0.000000
vn -1.000000 0.000000 0.000000
vn -0.725332 0.000000 0.688400
vn -0.725332 0.000000 0.688400
vn -0.725332 0.000000 0.688400
vn -0.725332 0.000000 0.688400
vn 0.725340 0.000000 0.688391
vn 0.725340 0.000000 0.688391
vn 0.725340 0.000000 0.688391
vn 0.725340 0.000000 0.688391
vn 1.000000 0.000000 0.000000
vn 1.000000 0.000000 0.000000
vn 1.000000 0.000000 0.000000
vn 1.000000 0.000000 0.000000
vn 0.725435 0.000000 -0.688291
vn 0.725435 0.000000 -0.688291
vn 0.725435 0.000000 -0.688291
vn 0.725435 0.000000 -0.688291
vn -0.916848 -0.399237 0.000000
vn -0.916848 -0.399237 0.000000
vn -0.916848 -0.399237 0.000000
vn -0.916848 -0.399237 0.000000
vn -0.649991 -0.444042 0.616716
vn -0.649991 -0.444042 0.616716
vn -0.649991 -0.444042 0.616716
vn -0.649991 -0.444042 0.616716
vn 0.000000 -0.359656 0.933085
vn 0.000000 -0.359656 0.933085
vn 0.000000 -0.359656 0.933085
vn 0.000000 -0.359656 0.933085
vn 0.649966 -0.444025 0.616754
vn 0.649966 -0.444025 0.616755
vn 0.649966 -0.444025 0.616755
vn 0.649966 -0.444025 0.616755
vn 0.916858 -0.399214 0.000000
vn 0.916858 -0.399214 0.000000
vn 0.916858 -0.399214 0.000000
vn 0.916858 -0.399214 0.000000
vn 0.649937 -0.444024 -0.616786
vn 0.649937 -0.444024 -0.616786
vn 0.649937 -0.444024 -0.616786
vn 0.649937 -0.444024 -0.616786
vn 0.000000 -0.359656 -0.933085
vn 0.000000 -0.359656 -0.933085
vn 0.000000 -0.359656 -0.933085
vn 0.000000 -0.359656 -0.933085
vn -0.649962 -0.444041 -0.616747
vn -0.649962 -0.444041 -0.616747
vn -0.649962 -0.444041 -0.616747
vn -0.649962 -0.444041 -0.616747
vn 1.000000 0.000000 0.000000
vn 1.000000 0.000000 0.000000
vn 1.000000 0.000000 0.000000
vn 1.000000 0.000000 0.000000
vn 0.725385 0.000000 0.688344
vn 0.725385 0.000000 0.688344
vn 0.725385 0.000000 0.688344
vn 0.725385 0.000000 0.688344
vn 0.000000 0.000000 1.000000
vn 0.000000 0.000000 1.000000
vn 0.000000 0.000000 1.000000
vn 0.000000 0.000000 1.000000
vn -0.725418 0.000000 0.688309
vn -0.725418 0.000000 0.688309
vn -0.725418 0.000000 0.688309
vn -0.725418 0.000000 0.688309
vn -1.000000 0.000000 0.000000
vn -1.000000 0.000000 0.000000
vn -1.000000 0.000000 0.000000
vn -1.000000 0.000000 0.000000
vn -0.725386 0.000000 -0.688342
vn -0.725386 0.000000 -0.688342
vn -0.725386 0.000000 -0.688342
vn -0.725386 0.000000 -0.688342
vn 0.000000 0.000000 -1.000000
vn 0.000000 0.000000 -1.000000
vn 0.000000 0.000000 -1.000000
vn 0.000000 0.000000 -1.000000
vn 0.725354 0.000000 -0.688376
vn 0.725354 0.000000 -0.688376
vn 0.725354 0.000000 -0.688376
vn 0.725354 0.000000 -0.688376
vn -0.000000 0.000000 1.000000
vn -0.000000 0.000000 1.000000
vn -0.000000 0.000000 1.000000
vn -0.000000 0.000000 1.000000
vn 0.000000 0.000000 1.000000
vn 0.000000 0.000000 1.000000
vn 0.000000 0.000000 1.000000
vn 0.000000 0.000000 1.000000
vn 0.000000 0.000000 1.000000
vn 0.000000 0.000000 1.000000
vn 0.000000 0.000000 1.000000
vn 0.000000 0.000000 1.000000
vn 0.000000 0.000000 1.000000
vn 0.000000 0.000000 1.000000
vn 0.000000 0.000000 1.000000
vn 0.000000 0.000000 1.000000
s off
f 41/104/1 42/111/2 53/84/3 54/81/4
f 33/31/5 34/32/6 35/33/7 36/34/8
f 49/77/9 50/89/10 45/52/11 46/100/12
f 7/7/13 8/120/14 2/10/15 1/9/16
f 43/109/17 44/94/18 51/88/19 52/85/20
f 47/54/21 48/102/22 55/80/23 56/75/24
f 1/1/25 2/126/26 10/123/27 9/121/28
f 42/112/29 43/108/30 52/86/31 53/83/32
f 34/32/33 33/31/34 37/35/35 38/36/36
f 54/82/37 55/79/38 48/103/39 41/47/40
f 36/34/41 35/33/42 39/37/43 40/38/44
f 50/90/45 51/87/46 44/50/47 45/97/48
f 8/119/49 7/113/50 16/115/51 15/117/52
f 46/53/53 47/92/54 56/76/55 49/65/56
f 4/4/57 6/6/58 19/24/59 18/23/60
f 5/5/61 3/3/62 17/26/63 20/25/64
f 3/3/65 12/18/66 21/27/67 17/26/68
f 12/18/69 11/17/70 22/28/71 21/27/72
f 11/17/73 4/4/74 18/23/75 22/28/76
f 6/6/77 14/20/78 23/29/79 19/24/80
f 14/20/81 13/19/82 24/30/83 23/29/84
f 13/19/85 5/5/86 20/25/87 24/30/88
f 18/39/89 19/40/90 27/41/91 26/42/92
f 20/43/93 17/44/94 25/45/95 28/46/96
f 17/44/97 21/57/98 29/58/99 25/45/100
f 21/57/101 22/59/102 30/60/103 29/58/104
f 22/59/105 18/39/106 26/42/107 30/60/108
f 19/40/109 23/61/110 31/62/111 27/41/112
f 23/61/113 24/63/114 32/64/115 31/62/116
f 24/63/117 20/43/118 28/46/119 32/64/120
f 26/42/121 27/41/122 35/33/123 34/32/124
f 28/46/125 25/45/126 33/31/127 36/34/128
f 25/45/129 29/58/130 37/35/131 33/31/132
f 29/58/133 30/60/134 38/36/135 37/35/136
f 30/60/137 26/42/138 34/32/139 38/36/140
f 27/41/141 31/62/142 39/37/143 35/33/144
f 31/62/145 32/64/146 40/38/147 39/37/148
f 32/64/149 28/46/150 36/34/151 40/38/152
f 9/15/153 10/124/154 42/110/155 41/105/156
f 2/2/157 43/107/158 42/48/159 10/16/160
f 2/125/161 8/11/162 44/51/163 43/49/164
f 45/96/165 44/93/166 8/8/167 15/118/168
f 46/99/169 45/95/170 15/21/171 16/116/172
f 7/114/173 47/55/174 46/98/175 16/22/176
f 7/13/177 1/127/178 48/101/179 47/91/180
f 41/106/181 48/56/182 1/128/183 9/122/184
f 13/19/185 14/20/186 50/66/187 49/78/188
f 6/6/189 51/67/190 50/66/191 14/20/192
f 58/133/193 57/134/194 59/135/195 60/136/196
f 53/70/197 52/69/198 4/4/199 11/17/200
f 54/71/201 53/70/202 11/17/203 12/18/204
f 3/3/205 55/72/206 54/71/207 12/18/208
f 56/73/209 55/72/210 3/3/211 5/14/212
f 49/78/213 56/74/214 5/5/215 13/19/216
f 52/69/217 51/68/218 57/130/219 58/129/220
f 51/68/221 6/12/222 59/131/223 57/130/224
f 6/12/225 4/4/226 60/132/227 59/131/228
f 4/4/229 52/69/230 58/129/231 60/132/232
