# This file uses meters as units for non-parametric coordinates.

v -10.479843 0.000000 -21.279123
v -10.479843 0.000000 21.279125
v -7.279495 26.075462 -21.279123
v -7.279495 26.075462 21.279125
v 7.279488 26.075462 -21.279123
v 7.279488 26.075462 21.279125
v 10.479843 0.000000 -21.279125
v 10.479843 0.000000 21.279125
v -10.479843 20.255302 -21.279123
v -10.479843 20.255302 21.279125
v 10.479843 20.255318 21.279125
v 10.479843 20.255318 -21.279125
v -8.746269 19.321991 21.279125
v 8.746269 19.321991 21.279125
v 6.075317 24.389526 21.279125
v -6.075317 24.389526 21.279125
v 8.746269 1.685936 21.279125
v -8.746269 1.685936 21.279125
v -8.746269 19.321991 -15.060530
v 8.746269 19.321991 -15.060530
v 6.075317 24.389526 -15.060530
v -6.075317 24.389526 -15.060530
v 8.746269 1.685936 -15.060530
v -8.746269 1.685936 -15.060530
vt 0.100944 0.325913
vt 0.100944 0.325913
vt 0.100944 0.325913
vt 0.100944 0.325913
vt 0.100944 0.325913
vt 0.100944 0.325913
vt 0.100944 0.325913
vt 0.100944 0.325913
vt 0.100944 0.325913
vt 0.100944 0.325913
vt 0.100944 0.325913
vt 0.100944 0.325913
vt 0.100944 0.325913
vt 0.100944 0.325913
vt 0.100944 0.325913
vt 0.100944 0.325913
vt 0.100944 0.325913
vt 0.100944 0.325913
vt 0.100944 0.325913
vt 0.100944 0.325913
vt 0.100944 0.325913
vt 0.100944 0.325913
vt 0.100944 0.325913
vt 0.100944 0.325913
vt 0.100944 0.325913
vt 0.100944 0.325913
vt 0.100944 0.325913
vt 0.100944 0.325913
vt 0.100944 0.325913
vt 0.100944 0.325913
vt 0.100944 0.325913
vt 0.100944 0.325913
vn -0.876263 0.481833 0.000000
vn -0.876263 0.481833 0.000000
vn -0.876263 0.481833 0.000000
vn -0.876263 0.481833 0.000000
vn 0.000000 1.000000 0.000000
vn 0.000000 1.000000 0.000000
vn 0.000000 1.000000 0.000000
vn 0.000000 1.000000 0.000000
vn 0.876262 0.481835 0.000000
vn 0.876262 0.481835 0.000000
vn 0.876262 0.481835 0.000000
vn 0.876262 0.481835 0.000000
vn 0.000000 0.000000 1.000000
vn 0.000000 0.000000 1.000000
vn 0.000000 0.000000 1.000000
vn 0.000000 0.000000 1.000000
vn -0.000000 0.000000 -1.000000
vn -0.000000 0.000000 -1.000000
vn -0.000000 0.000000 -1.000000
vn -0.000000 0.000000 -1.000000
vn -1.000000 0.000000 0.000000
vn -1.000000 0.000000 0.000000
vn -1.000000 0.000000 0.000000
vn -1.000000 0.000000 0.000000
vn 0.000000 0.000000 1.000000
vn 0.000000 0.000000 1.000000
vn 0.000000 0.000000 1.000000
vn 0.000000 0.000000 1.000000
vn 1.000000 0.000000 0.000000
vn 1.000000 0.000000 0.000000
vn 1.000000 0.000000 0.000000
vn 1.000000 0.000000 0.000000
vn -0.000000 0.000000 -1.000000
vn -0.000000 0.000000 -1.000000
vn -0.000000 0.000000 -1.000000
vn -0.000000 0.000000 -1.000000
vn -0.000000 0.000000 1.000000
vn -0.000000 0.000000 1.000000
vn -0.000000 0.000000 1.000000
vn -0.000000 0.000000 1.000000
vn 0.000000 0.000000 1.000000
vn 0.000000 0.000000 1.000000
vn 0.000000 0.000000 1.000000
vn 0.000000 0.000000 1.000000
vn 0.000000 0.000000 1.000000
vn 0.000000 0.000000 1.000000
vn 0.000000 0.000000 1.000000
vn 0.000000 0.000000 1.000000
vn 0.000000 0.000000 1.000000
vn 0.000000 0.000000 1.000000
vn 0.000000 0.000000 1.000000
vn 0.000000 0.000000 1.000000
vn 0.000000 0.000000 1.000000
vn 0.000000 0.000000 1.000000
vn 0.000000 0.000000 1.000000
vn 0.000000 0.000000 1.000000
vn -0.000000 0.000000 1.000000
vn -0.000000 0.000000 1.000000
vn -0.000000 0.000000 1.000000
vn -0.000000 0.000000 1.000000
vn -0.884643 -0.466270 0.000000
vn -0.884643 -0.466270 0.000000
vn -0.884643 -0.466270 0.000000
vn -0.884643 -0.466270 0.000000
vn 0.000000 -1.000000 0.000000
vn 0.000000 -1.000000 0.000000
vn 0.000000 -1.000000 0.000000
vn 0.000000 -1.000000 0.000000
vn 0.884643 -0.466270 0.000000
vn 0.884643 -0.466270 0.000000
vn 0.884643 -0.466270 0.000000
vn 0.884643 -0.466270 0.000000
vn 0.000000 1.000000 0.000000
vn 0.000000 1.000000 0.000000
vn 0.000000 1.000000 0.000000
vn 0.000000 1.000000 0.000000
vn -1.000000 0.000000 0.000000
vn -1.000000 0.000000 0.000000
vn -1.000000 0.000000 0.000000
vn -1.000000 0.000000 0.000000
vn 1.000000 0.000000 0.000000
vn 1.000000 0.000000 0.000000
vn 1.000000 0.000000 0.000000
vn 1.000000 0.000000 0.000000
vn 0.000000 -1.000000 0.000000
vn 0.000000 -1.000000 0.000000
vn 0.000000 -1.000000 0.000000
vn 0.000000 -1.000000 0.000000
s off
f 9/1/1 10/2/2 4/3/3 3/4/4
f 3/4/5 4/3/6 6/5/7 5/6/8
f 5/6/9 6/5/10 11/7/11 12/8/12
f 19/9/13 20/10/14 21/11/15 22/12/16
f 12/13/17 9/1/18 3/4/19 5/14/20
f 1/15/21 2/16/22 10/2/23 9/1/24
f 24/17/25 23/18/26 20/10/27 19/9/28
f 12/8/29 11/7/30 8/19/31 7/20/32
f 7/21/33 1/15/34 9/1/35 12/13/36
f 11/22/37 6/23/38 15/24/39 14/25/40
f 6/23/41 4/3/42 16/26/43 15/24/44
f 4/3/45 10/2/46 13/27/47 16/26/48
f 2/16/49 8/28/50 17/29/51 18/30/52
f 8/28/53 11/22/54 14/25/55 17/29/56
f 10/2/57 2/16/58 18/30/59 13/27/60
f 14/25/61 15/24/62 21/11/63 20/10/64
f 15/24/65 16/26/66 22/12/67 21/11/68
f 16/26/69 13/27/70 19/9/71 22/12/72
f 18/30/73 17/29/74 23/18/75 24/17/76
f 17/29/77 14/25/78 20/10/79 23/18/80
f 13/27/81 18/30/82 24/17/83 19/9/84
f 1/32/85 7/20/86 8/19/87 2/31/88
v 10.479843 11.155312 -1.798049
v 10.479843 11.155312 4.609737
v 10.479843 35.950310 0.323339
v 10.479843 40.405342 2.488351
v 12.699760 35.950310 0.323339
v 12.699760 40.405342 2.488351
v 12.699760 11.155312 -1.798049
v 12.699760 11.155312 4.609739
v 10.479844 35.475166 -5.958018
v 10.479844 40.880486 -5.958018
v 12.699761 40.880486 -5.958018
v 12.699761 35.475166 -5.958018
v 12.699760 14.364220 -1.798049
v 12.699760 15.239059 4.609739
v 10.479843 15.239052 4.609737
v 10.479843 14.364220 -1.798049
v 12.699760 16.415802 0.323339
v 12.699760 17.385910 2.488351
v 10.479843 17.385925 2.488351
v 10.479843 16.415810 0.323339
vt 0.139898 0.442231
vt 0.139898 0.442231
vt 0.139898 0.442231
vt 0.139898 0.442231
vt 0.139898 0.442231
vt 0.139898 0.442231
vt 0.139898 0.442231
vt 0.139898 0.442231
vt 0.139898 0.442231
vt 0.139898 0.442231
vt 0.139898 0.442231
vt 0.139898 0.442231
vt 0.139898 0.442231
vt 0.139898 0.442231
vt 0.139898 0.442231
vt 0.139898 0.442231
vt 0.139898 0.442231
vt 0.139898 0.442231
vt 0.139898 0.442231
vt 0.139898 0.442231
vt 0.139898 0.442231
vt 0.139898 0.442231
vt 0.139898 0.442231
vt 0.139898 0.442231
vt 0.139898 0.442231
vt 0.139898 0.442231
vt 0.139898 0.442231
vt 0.139898 0.442231
vt 0.139898 0.442231
vt 0.139898 0.442231
vn -1.000000 0.000000 0.000000
vn -1.000000 0.000000 0.000000
vn -1.000000 0.000000 0.000000
vn -1.000000 0.000000 0.000000
vn 0.000000 0.000000 -1.000000
vn 0.000000 0.000000 -1.000000
vn 0.000000 0.000000 -1.000000
vn 0.000000 0.000000 -1.000000
vn 1.000000 0.000000 0.000000
vn 1.000000 0.000000 0.000000
vn 1.000000 0.000000 0.000000
vn 1.000000 0.000000 0.000000
vn 0.000000 -1.000000 0.000000
vn 0.000000 -1.000000 0.000000
vn 0.000000 -1.000000 0.000000
vn 0.000000 -1.000000 0.000000
vn -0.000001 0.000000 1.000000
vn -0.000001 0.000000 1.000000
vn -0.000001 0.000000 1.000000
vn -0.000001 0.000000 1.000000
vn 0.000000 0.000000 -1.000000
vn 0.000000 0.000000 -1.000000
vn 0.000000 0.000000 -1.000000
vn 0.000000 0.000000 -1.000000
vn -1.000000 0.000000 -0.000000
vn -1.000000 0.000000 -0.000000
vn -1.000000 0.000000 -0.000000
vn -1.000000 0.000000 -0.000000
vn 0.000000 0.998421 0.056165
vn 0.000000 0.998421 0.056165
vn 0.000000 0.998421 0.056165
vn 0.000000 0.998421 0.056165
vn 1.000000 0.000000 0.000000
vn 1.000000 0.000000 0.000000
vn 1.000000 0.000000 0.000000
vn 1.000000 0.000000 0.000000
vn 0.000000 -0.997151 0.075428
vn 0.000000 -0.997151 0.075428
vn 0.000000 -0.997151 0.075428
vn 0.000000 -0.997151 0.075428
vn 1.000000 -0.000000 0.000000
vn 1.000000 -0.000000 0.000000
vn 1.000000 -0.000000 0.000000
vn 1.000000 -0.000000 0.000000
vn 0.000001 0.702874 0.711314
vn 0.000001 0.702874 0.711314
vn 0.000001 0.702874 0.711314
vn 0.000001 0.702874 0.711314
vn -1.000000 -0.000000 0.000000
vn -1.000000 -0.000000 0.000000
vn -1.000000 -0.000000 0.000000
vn -1.000000 -0.000000 0.000000
vn 0.000001 0.718834 -0.695182
vn 0.000001 0.718834 -0.695182
vn 0.000001 0.718834 -0.695182
vn 0.000001 0.718834 -0.695182
vn 1.000000 0.000000 0.000000
vn 1.000000 0.000000 0.000000
vn 1.000000 0.000000 0.000000
vn 1.000000 0.000000 0.000000
vn 0.000000 0.000000 1.000000
vn 0.000000 0.000000 1.000000
vn 0.000000 0.000000 1.000000
vn 0.000000 0.000000 1.000000
vn -1.000000 0.000000 0.000000
vn -1.000000 0.000000 0.000000
vn -1.000000 0.000000 0.000000
vn -1.000000 0.000000 0.000000
vn 0.000000 0.000000 -1.000000
vn 0.000000 0.000000 -1.000000
vn 0.000000 0.000000 -1.000000
vn 0.000000 0.000000 -1.000000
s off
f 25/33/89 26/34/90 39/35/91 40/36/92
f 33/37/93 34/38/94 35/39/95 36/40/96
f 37/41/97 38/42/98 32/43/99 31/44/100
f 31/44/101 32/43/102 26/45/103 25/46/104
f 26/34/105 32/47/106 38/48/107 39/35/108
f 31/49/109 25/33/110 40/36/111 37/50/112
f 27/51/113 28/52/114 34/38/115 33/37/116
f 28/52/117 30/53/118 35/39/119 34/38/120
f 30/53/121 29/54/122 36/40/123 35/39/124
f 29/54/125 27/51/126 33/37/127 36/40/128
f 41/55/129 42/56/130 38/42/131 37/41/132
f 39/35/133 38/48/134 42/57/135 43/58/136
f 40/36/137 39/35/138 43/58/139 44/59/140
f 37/50/141 40/36/142 44/59/143 41/60/144
f 29/54/145 30/53/146 42/56/147 41/55/148
f 43/58/149 42/57/150 30/61/151 28/52/152
f 44/59/153 43/58/154 28/52/155 27/51/156
f 41/60/157 44/59/158 27/51/159 29/62/160
v -11.430719 -0.407356 23.894585
v -7.939987 26.921265 23.894585
v 7.939980 26.921265 23.894585
v 11.430702 -0.407356 23.894585
v -11.430719 20.821404 23.894585
v 11.430702 20.821411 23.894585
v 11.430702 20.821411 21.279121
v -11.430717 20.821404 21.279121
v -7.939987 26.921265 21.279137
v 7.939980 26.921265 21.279114
v 11.430702 -0.407356 21.279121
v -11.430717 -0.407356 21.279121
v 10.027954 19.893127 21.279129
v -10.027969 19.893112 21.279129
v -6.965607 25.244415 21.279137
v 6.965599 25.244415 21.279114
v 10.027954 1.269501 21.279129
v -10.027969 1.269501 21.279129
v 9.257088 19.382996 22.243431
v -9.257103 19.382980 22.243431
v -6.430153 24.322922 22.243431
v 6.430145 24.322922 22.243431
v 9.257088 1.923630 22.243431
v -9.257103 1.923630 22.243431
v -6.521065 7.042480 23.894585
v -6.521065 19.567238 23.894585
v 6.521049 7.042480 23.894585
v 6.521049 19.567245 23.894585
vt 0.100944 0.325913
vt 0.100944 0.325913
vt 0.100944 0.325913
vt 0.100944 0.325913
vt 0.100944 0.325913
vt 0.100944 0.325913
vt 0.100944 0.325913
vt 0.100944 0.325913
vt 0.100944 0.325913
vt 0.100944 0.325913
vt 0.100944 0.325913
vt 0.100944 0.325913
vt 0.100944 0.325913
vt 0.100944 0.325913
vt 0.100944 0.325913
vt 0.100944 0.325913
vt 0.100944 0.325913
vt 0.100944 0.325913
vt 0.101000 0.254577
vt 0.101000 0.254577
vt 0.101000 0.254577
vt 0.101000 0.254577
vt 0.100944 0.325913
vt 0.100944 0.325913
vt 0.100944 0.325913
vt 0.100944 0.325913
vt 0.100944 0.325913
vt 0.100944 0.325913
vt 0.100944 0.325913
vt 0.100944 0.325913
vt 0.100944 0.325913
vt 0.100944 0.325913
vn -0.000000 0.000000 -1.000000
vn -0.000000 0.000000 -1.000000
vn -0.000000 0.000000 -1.000000
vn -0.000000 0.000000 -1.000000
vn 0.000000 0.000000 -1.000000
vn 0.000000 0.000000 -1.000000
vn -0.000000 0.000000 -1.000000
vn -0.000000 0.000000 -1.000000
vn -0.867931 0.496685 -0.000000
vn -0.867931 0.496685 -0.000000
vn -0.867931 0.496685 -0.000000
vn -0.867931 0.496685 -0.000000
vn 0.000000 1.000000 0.000000
vn 0.000000 1.000000 0.000000
vn 0.000000 1.000000 0.000000
vn 0.000000 1.000000 0.000000
vn 0.867931 0.496685 0.000000
vn 0.867931 0.496685 0.000000
vn 0.867931 0.496685 0.000000
vn 0.867931 0.496685 0.000000
vn 0.000000 -1.000000 0.000000
vn 0.000000 -1.000000 0.000000
vn 0.000000 -1.000000 0.000000
vn 0.000000 -1.000000 0.000000
vn -1.000000 0.000000 -0.000001
vn -1.000000 0.000000 -0.000001
vn -1.000000 0.000000 -0.000001
vn -1.000000 0.000000 -0.000001
vn 1.000000 0.000000 0.000000
vn 1.000000 0.000000 0.000000
vn 1.000000 0.000000 0.000000
vn 1.000000 0.000000 0.000000
vn 0.000000 0.000000 1.000000
vn 0.000000 0.000000 1.000000
vn 0.000000 0.000000 1.000000
vn 0.000000 0.000000 1.000000
vn -0.000000 0.000000 1.000000
vn -0.000000 0.000000 1.000000
vn -0.000000 0.000000 1.000000
vn -0.000000 0.000000 1.000000
vn 0.000003 0.000000 -1.000000
vn 0.000003 0.000000 -1.000000
vn 0.000003 0.000000 -1.000000
vn 0.000003 0.000000 -1.000000
vn -0.000002 0.000000 -1.000000
vn -0.000002 0.000000 -1.000000
vn -0.000002 0.000000 -1.000000
vn -0.000002 0.000000 -1.000000
vn -0.000001 -0.000002 -1.000000
vn -0.000001 -0.000002 -1.000000
vn -0.000001 -0.000002 -1.000000
vn -0.000001 -0.000002 -1.000000
vn 0.000000 0.000005 -1.000000
vn 0.000000 0.000005 -1.000000
vn 0.000000 0.000005 -1.000000
vn 0.000000 0.000005 -1.000000
vn 0.000005 0.000000 -1.000000
vn 0.000005 0.000000 -1.000000
vn 0.000005 0.000000 -1.000000
vn 0.000005 0.000000 -1.000000
vn -0.000005 0.000000 -1.000000
vn -0.000005 0.000000 -1.000000
vn -0.000005 0.000000 -1.000000
vn -0.000005 0.000000 -1.000000
vn 0.627184 -0.358915 -0.691245
vn 0.627184 -0.358915 -0.691245
vn 0.627184 -0.358915 -0.691245
vn 0.627184 -0.358915 -0.691245
vn -0.000001 -0.722973 -0.690876
vn -0.000001 -0.722973 -0.690876
vn -0.000001 -0.722973 -0.690876
vn -0.000001 -0.722973 -0.690876
vn -0.627186 -0.358918 -0.691242
vn -0.627186 -0.358918 -0.691242
vn -0.627186 -0.358918 -0.691242
vn -0.627186 -0.358918 -0.691242
vn 0.000000 0.827563 -0.561373
vn 0.000000 0.827563 -0.561373
vn 0.000000 0.827563 -0.561373
vn 0.000000 0.827563 -0.561373
vn 0.781097 0.000000 -0.624410
vn 0.781097 0.000000 -0.624410
vn 0.781097 0.000000 -0.624410
vn 0.781097 0.000000 -0.624410
vn -0.781096 0.000000 -0.624411
vn -0.781096 0.000000 -0.624411
vn -0.781096 0.000000 -0.624411
vn -0.781096 0.000000 -0.624411
vn 0.000000 0.000000 1.000000
vn 0.000000 0.000000 1.000000
vn 0.000000 0.000000 1.000000
vn 0.000000 0.000000 1.000000
vn 0.000000 0.000000 1.000000
vn 0.000000 0.000000 1.000000
vn 0.000000 0.000000 1.000000
vn 0.000000 0.000000 1.000000
vn -0.000000 0.000000 1.000000
vn -0.000000 0.000000 1.000000
vn -0.000000 0.000000 1.000000
vn -0.000000 0.000000 1.000000
vn 0.000000 0.000000 1.000000
vn 0.000000 0.000000 1.000000
vn 0.000000 0.000000 1.000000
vn 0.000000 0.000000 1.000000
s off
f 63/63/161 64/64/162 65/65/163 66/66/164
f 67/67/165 68/68/166 64/64/167 63/63/168
f 49/69/169 46/70/170 53/71/171 52/72/172
f 46/70/173 47/73/174 54/74/175 53/71/176
f 47/73/177 50/75/178 51/76/179 54/74/180
f 48/77/181 45/78/182 56/79/183 55/80/184
f 45/78/185 49/69/186 52/72/187 56/79/188
f 50/75/189 48/77/190 55/80/191 51/76/192
f 49/69/193 50/75/194 47/73/195 46/70/196
f 70/81/197 69/82/198 71/83/199 72/84/200
f 52/72/201 53/71/202 59/85/203 58/86/204
f 53/71/205 54/74/206 60/87/207 59/85/208
f 54/74/209 51/76/210 57/88/211 60/87/212
f 55/80/213 56/79/214 62/89/215 61/90/216
f 56/79/217 52/72/218 58/86/219 62/89/220
f 51/76/221 55/80/222 61/90/223 57/88/224
f 58/86/225 59/85/226 65/65/227 64/64/228
f 59/85/229 60/87/230 66/66/231 65/65/232
f 60/87/233 57/88/234 63/63/235 66/66/236
f 61/90/237 62/89/238 68/68/239 67/67/240
f 62/89/241 58/86/242 64/64/243 68/68/244
f 57/88/245 61/90/246 67/67/247 63/63/248
f 49/69/249 45/78/250 69/91/251 70/92/252
f 45/78/253 48/77/254 71/93/255 69/91/256
f 48/77/257 50/75/258 72/94/259 71/93/260
f 50/75/261 49/69/262 70/92/263 72/94/264
