# This file uses meters as units for non-parametric coordinates.

v -6.639404 0.254333 -11.808411
v -6.639404 -1.324005 -8.797913
v -4.841064 26.372284 0.196533
v -4.841064 21.810883 1.643066
v 4.602417 26.372284 0.196533
v 4.602417 21.810883 1.643066
v 6.400757 0.254333 -11.808411
v 6.400757 -1.324005 -8.797913
v 16.784546 -1.167053 7.688721
v -16.784302 -1.167053 7.688721
v 16.784546 42.180664 -4.591309
v -16.784302 42.180664 -4.591309
v 16.784546 43.347717 -0.471680
v -16.784302 43.347717 -0.471680
v 16.784546 0.000000 11.808350
v -16.784302 0.000000 11.808350
v 12.094849 38.523376 0.013000
v -12.094482 38.523376 0.013000
v -12.094482 4.361877 9.690674
v 12.094849 4.361877 9.690674
v 11.317383 37.590393 -0.462708
v -11.317017 37.590393 -0.462708
v -11.317017 4.906677 8.796265
v 11.317383 4.906677 8.796265
v -13.728027 40.180237 -0.456360
v -13.728027 2.704956 10.160034
v 13.728394 2.704956 10.160034
v 13.728394 40.180237 -0.456360
v -15.460449 42.093628 -0.116394
v -15.460449 1.254089 11.453064
v 15.460815 1.254089 11.453064
v 15.460815 42.093628 -0.116394
v 11.317383 37.590332 -0.462708
v -11.317017 37.590332 -0.462708
v 11.317383 4.906677 8.796265
v -11.317017 4.906677 8.796265
v -11.317017 10.332825 7.259094
v -9.014526 4.906677 8.796265
v -0.645508 13.425476 6.382996
v 2.019653 11.868958 6.823914
v 2.068359 9.413635 7.519531
v 4.510864 4.906677 8.796265
v 4.336792 11.351807 6.970459
v 11.317383 13.661194 6.316223
v -4.735718 12.240173 6.718811
v 8.518921 17.070374 5.350403
v 4.635498 18.004089 5.085938
v 1.819458 16.823975 5.420227
v -3.420654 16.963440 5.380676
v -6.548218 18.081360 5.064026
v -6.246094 14.356506 6.119263
v 4.317993 19.992981 4.522461
v -0.608398 19.507996 4.659851
v -4.156860 20.165710 4.473511
v -6.599365 22.021423 3.947815
v -3.991699 22.736389 3.745300
v -5.683594 25.179016 3.053345
v -3.704712 25.258362 3.030823
v -2.654175 19.887207 4.552429
v -1.657349 23.989746 3.390198
v -2.215332 29.214905 1.909973
v 1.164185 28.621582 2.078064
v 4.145630 29.948792 1.702087
v -1.768188 30.333313 1.593140
v -4.615601 31.356262 1.303345
v -4.901855 29.587585 1.804443
v -6.076294 32.052673 1.106079
v -4.897827 33.011414 0.834473
v -3.765747 32.607910 0.948792
v -0.652100 36.156860 -0.056641
v 4.053223 35.484558 0.133850
v 4.410034 31.578918 1.240295
v 6.441406 30.957214 1.416382
v 5.911255 29.965393 1.697388
v 2.015625 24.242432 3.318665
v 2.693115 19.833008 4.567871
v -11.317017 23.844360 3.431396
v -11.317017 34.680115 0.361755
v -7.881226 31.837463 1.167053
v 11.317383 25.910095 2.846191
v 7.442749 25.841797 2.865540
v 0.000244 37.590332 -0.462708
v 2.867676 26.525024 2.672058
v 0.806519 25.656738 2.917969
vt 0.027405 0.302887
vt 0.027405 0.302887
vt 0.027405 0.302887
vt 0.027405 0.302887
vt 0.027405 0.302887
vt 0.027405 0.302887
vt 0.027405 0.302887
vt 0.027405 0.302887
vt 0.176523 0.326730
vt 0.002991 0.379440
vt 0.002991 0.379440
vt 0.002991 0.379440
vt 0.002991 0.379440
vt 0.036926 0.278625
vt 0.025846 0.332165
vt 0.025846 0.332165
vt 0.025846 0.332165
vt 0.025846 0.332165
vt 0.025846 0.332165
vt 0.025846 0.332165
vt 0.025846 0.332165
vt 0.025846 0.332165
vt 0.025846 0.332165
vt 0.025846 0.332165
vt 0.025846 0.332165
vt 0.025846 0.332165
vt 0.025846 0.332165
vt 0.025846 0.332165
vt 0.025846 0.332165
vt 0.025846 0.332165
vt 0.025846 0.332165
vt 0.025846 0.332165
vt 0.025846 0.332165
vt 0.025846 0.332165
vt 0.025846 0.332165
vt 0.025846 0.332165
vt 0.025846 0.332165
vt 0.025846 0.332165
vt 0.349243 0.493164
vt 0.349243 0.493164
vt 0.349243 0.493164
vt 0.349243 0.493164
vt 0.042542 0.327133
vt 0.042542 0.327133
vt 0.042542 0.327133
vt 0.038269 0.303650
vt 0.038269 0.303650
vt 0.038269 0.303650
vt 0.002991 0.379440
vt 0.002991 0.379440
vt 0.002991 0.379440
vt 0.002991 0.379440
vt 0.036926 0.278625
vt 0.036926 0.278625
vt 0.036926 0.278625
vt 0.036926 0.278625
vt 0.002991 0.379440
vt 0.002991 0.379440
vt 0.002991 0.379440
vt 0.002991 0.379440
vt 0.111084 0.494736
vt 0.111084 0.494736
vt 0.111084 0.494736
vt 0.111084 0.494736
vt 0.176523 0.299912
vt 0.176523 0.299912
vt 0.176523 0.299912
vt 0.048767 0.357498
vt 0.048767 0.357498
vt 0.048767 0.357498
vt 0.048767 0.357498
vt 0.048767 0.357498
vt 0.176880 0.327728
vt 0.176880 0.327728
vt 0.176880 0.327728
vt 0.111084 0.494736
vt 0.111084 0.494736
vt 0.111084 0.494736
vt 0.111084 0.494736
vt 0.176523 0.299912
vt 0.176523 0.299912
vt 0.176523 0.299912
vt 0.176523 0.326730
vt 0.176523 0.326730
vt 0.176523 0.326730
vt 0.176523 0.326730
vt 0.176523 0.326730
vt 0.176523 0.326730
vt 0.176523 0.326730
vt 0.176523 0.326730
vt 0.176523 0.326730
vt 0.176523 0.326730
vt 0.176523 0.326730
vt 0.176523 0.299912
vt 0.176523 0.299912
vt 0.176523 0.299912
vt 0.176523 0.299912
vt 0.176523 0.299912
vt 0.176523 0.299912
vt 0.176523 0.299912
vt 0.178101 0.304657
vt 0.178101 0.304657
vt 0.178101 0.304657
vt 0.178101 0.304657
vt 0.036926 0.278625
vt 0.036926 0.278625
vt 0.036926 0.278625
vt 0.036926 0.278625
vt 0.036926 0.278625
vt 0.048767 0.357498
vt 0.048767 0.357498
vt 0.048767 0.357498
vt 0.048767 0.357498
vt 0.048767 0.357498
vt 0.048767 0.357498
vt 0.176523 0.326730
vt 0.176523 0.326730
vt 0.176523 0.326730
vt 0.176523 0.326730
vt 0.176523 0.326730
vt 0.176523 0.326730
vt 0.176523 0.326730
vt 0.176523 0.326730
vt 0.176523 0.326730
vt 0.176523 0.326730
vt 0.002991 0.379440
vt 0.002991 0.379440
vt 0.002991 0.379440
vt 0.178101 0.304657
vt 0.178101 0.304657
vt 0.178101 0.304657
vt 0.178101 0.304657
vt 0.002991 0.379440
vt 0.002991 0.379440
vt 0.002991 0.379440
vt 0.111084 0.494736
vt 0.036926 0.278625
vt 0.176523 0.299912
vt 0.176523 0.299912
vt 0.349243 0.493164
vt 0.349243 0.493164
vt 0.349243 0.493164
vt 0.349243 0.493164
vt 0.349243 0.493164
vt 0.349243 0.493164
vt 0.349243 0.493164
vt 0.349243 0.493164
vt 0.349243 0.493164
vt 0.042542 0.327133
vt 0.042542 0.327133
vt 0.042542 0.327133
vt 0.042542 0.327133
vt 0.038269 0.303650
vt 0.038269 0.303650
vn -0.997097 0.044731 0.061619
vn -0.997097 0.044731 0.061619
vn -0.997097 0.044731 0.061619
vn -0.997097 0.044731 0.061619
vn 0.997097 0.044731 0.061619
vn 0.997097 0.044731 0.061619
vn 0.997097 0.044731 0.061619
vn 0.997097 0.044731 0.061619
vn 0.000000 -0.885661 -0.464333
vn 0.000000 -0.885661 -0.464333
vn 0.000000 -0.885661 -0.464333
vn 0.000000 -0.885661 -0.464333
vn 0.000000 -0.411357 0.911475
vn 0.000000 -0.411357 0.911475
vn 0.000000 -0.411357 0.911475
vn 0.000000 -0.411357 0.911475
vn 0.000000 0.417638 -0.908613
vn 0.000000 0.417638 -0.908613
vn 0.000000 0.417638 -0.908613
vn 0.000000 0.417638 -0.908613
vn 0.000000 -0.272565 -0.962137
vn 0.000000 -0.272565 -0.962137
vn 0.000000 -0.272565 -0.962137
vn 0.000000 -0.272565 -0.962137
vn 0.000000 0.962137 -0.272565
vn 0.000000 0.962137 -0.272565
vn 0.000000 0.962137 -0.272565
vn 0.000000 0.962137 -0.272565
vn 0.000000 -0.962137 0.272565
vn 0.000000 -0.962137 0.272565
vn 0.000000 -0.962137 0.272565
vn 0.000000 -0.962137 0.272565
vn -1.000000 0.000000 0.000000
vn -1.000000 0.000000 0.000000
vn -1.000000 0.000000 0.000000
vn -1.000000 0.000000 0.000000
vn 1.000000 -0.000000 0.000000
vn 1.000000 -0.000000 0.000000
vn 1.000000 -0.000000 0.000000
vn 1.000000 -0.000000 0.000000
vn 0.000000 0.272558 0.962139
vn 0.000000 0.272558 0.962139
vn 0.000000 0.272558 0.962139
vn 0.000000 0.272558 0.962139
vn -0.000005 0.272565 0.962137
vn -0.000005 0.272565 0.962137
vn -0.000005 0.272565 0.962137
vn -0.000005 0.272565 0.962137
vn 0.000000 0.272548 0.962142
vn 0.000000 0.272548 0.962142
vn 0.000000 0.272548 0.962142
vn 0.000000 0.272548 0.962142
vn 0.000005 0.272565 0.962137
vn 0.000005 0.272565 0.962137
vn 0.000005 0.272565 0.962137
vn 0.000005 0.272565 0.962137
vn 0.000000 -0.454240 0.890879
vn 0.000000 -0.454240 0.890879
vn 0.000000 -0.454240 0.890879
vn 0.000000 -0.454240 0.890879
vn 0.675388 0.201007 0.709541
vn 0.675388 0.201006 0.709541
vn 0.675388 0.201007 0.709541
vn 0.675388 0.201006 0.709541
vn 0.000000 0.854039 0.520209
vn 0.000000 0.854039 0.520209
vn 0.000000 0.854039 0.520209
vn 0.000000 0.854039 0.520209
vn -0.675387 0.201007 0.709541
vn -0.675388 0.201007 0.709541
vn -0.675387 0.201007 0.709541
vn -0.675388 0.201007 0.709541
vn 0.439903 0.244775 0.864043
vn 0.439902 0.244775 0.864043
vn 0.439903 0.244775 0.864043
vn 0.439903 0.244775 0.864043
vn 0.000000 0.665332 0.746548
vn 0.000000 0.665332 0.746548
vn 0.000000 0.665332 0.746548
vn 0.000000 0.665332 0.746548
vn -0.439903 0.244775 0.864043
vn -0.439903 0.244775 0.864043
vn -0.439903 0.244775 0.864043
vn -0.439903 0.244775 0.864043
vn 0.000000 -0.174937 0.984580
vn 0.000000 -0.174937 0.984580
vn 0.000000 -0.174937 0.984580
vn 0.000000 -0.174937 0.984580
vn 0.000000 0.272565 0.962137
vn 0.000000 0.272565 0.962137
vn 0.000000 0.272565 0.962137
vn 0.000000 0.272565 0.962137
vn 0.000000 0.272574 0.962135
vn 0.000000 0.272574 0.962135
vn 0.000000 0.272574 0.962135
vn 0.000000 0.272574 0.962135
vn 0.000000 0.272565 0.962137
vn 0.000000 0.272565 0.962137
vn 0.000000 0.272565 0.962137
vn 0.000000 0.272565 0.962137
vn 0.000000 0.272575 0.962135
vn 0.000000 0.272575 0.962135
vn 0.000000 0.272575 0.962135
vn 0.000000 0.272575 0.962135
vn 0.000014 0.272573 0.962135
vn 0.000014 0.272573 0.962135
vn 0.000014 0.272573 0.962135
vn 0.000014 0.272573 0.962135
vn 0.000000 0.272563 0.962138
vn 0.000000 0.272563 0.962138
vn 0.000000 0.272563 0.962138
vn 0.000007 0.272559 0.962139
vn 0.000007 0.272559 0.962139
vn 0.000007 0.272559 0.962139
vn 0.000017 0.272557 0.962140
vn 0.000017 0.272557 0.962140
vn 0.000017 0.272557 0.962140
vn 0.000017 0.272557 0.962140
vn 0.000011 0.272577 0.962134
vn 0.000011 0.272577 0.962134
vn 0.000011 0.272577 0.962134
vn 0.000011 0.272577 0.962134
vn 0.000003 0.272563 0.962138
vn 0.000003 0.272563 0.962138
vn 0.000003 0.272563 0.962138
vn 0.000003 0.272563 0.962138
vn 0.000004 0.272561 0.962139
vn 0.000004 0.272561 0.962139
vn 0.000004 0.272561 0.962139
vn 0.000004 0.272561 0.962139
vn 0.000003 0.272571 0.962136
vn 0.000003 0.272571 0.962136
vn 0.000003 0.272571 0.962136
vn -0.000004 0.272552 0.962141
vn -0.000004 0.272552 0.962141
vn -0.000004 0.272552 0.962141
vn -0.000004 0.272552 0.962141
vn -0.000004 0.272552 0.962141
vn -0.000031 0.272563 0.962138
vn -0.000031 0.272563 0.962138
vn -0.000031 0.272563 0.962138
vn -0.000008 0.272566 0.962137
vn -0.000008 0.272566 0.962137
vn -0.000008 0.272566 0.962137
vn -0.000008 0.272566 0.962137
vn -0.000004 0.272553 0.962141
vn -0.000004 0.272553 0.962141
vn -0.000004 0.272553 0.962141
vn 0.000004 0.272563 0.962138
vn 0.000004 0.272563 0.962138
vn 0.000004 0.272563 0.962138
vn 0.000004 0.272563 0.962138
vn 0.000005 0.272571 0.962136
vn 0.000005 0.272571 0.962136
vn 0.000005 0.272571 0.962136
vn 0.000005 0.272571 0.962136
vn 0.000011 0.272579 0.962133
vn 0.000011 0.272579 0.962133
vn 0.000011 0.272579 0.962133
vn 0.000011 0.272579 0.962133
vn 0.000002 0.272572 0.962135
vn 0.000002 0.272572 0.962135
vn 0.000002 0.272572 0.962135
vn 0.000002 0.272572 0.962135
vn -0.000005 0.272563 0.962138
vn -0.000005 0.272563 0.962138
vn -0.000005 0.272563 0.962138
vn -0.000005 0.272563 0.962138
vn -0.000007 0.272564 0.962138
vn -0.000007 0.272564 0.962138
vn -0.000007 0.272564 0.962138
vn 0.000017 0.272566 0.962137
vn 0.000017 0.272566 0.962137
vn 0.000017 0.272566 0.962137
vn 0.000017 0.272566 0.962137
vn 0.000005 0.272561 0.962139
vn 0.000005 0.272561 0.962139
vn 0.000005 0.272561 0.962139
vn 0.000005 0.272561 0.962139
vn -0.000002 0.272564 0.962138
vn -0.000002 0.272564 0.962138
vn -0.000002 0.272564 0.962138
vn -0.000001 0.272573 0.962135
vn -0.000001 0.272573 0.962135
vn -0.000001 0.272573 0.962135
vn -0.000001 0.272573 0.962135
vn 0.000009 0.272570 0.962136
vn 0.000009 0.272570 0.962136
vn 0.000009 0.272570 0.962136
vn 0.000009 0.272570 0.962136
vn -0.000002 0.272557 0.962140
vn -0.000002 0.272557 0.962140
vn -0.000002 0.272557 0.962140
vn -0.000002 0.272557 0.962140
vn -0.000002 0.272566 0.962137
vn -0.000002 0.272566 0.962137
vn -0.000002 0.272566 0.962137
vn -0.000002 0.272566 0.962137
vn 0.000005 0.272563 0.962138
vn 0.000005 0.272563 0.962138
vn 0.000005 0.272563 0.962138
vn 0.000005 0.272563 0.962138
vn -0.000000 0.272566 0.962137
vn -0.000000 0.272566 0.962137
vn -0.000000 0.272566 0.962137
vn 0.000011 0.272568 0.962137
vn 0.000011 0.272568 0.962137
vn 0.000011 0.272568 0.962137
vn 0.000011 0.272568 0.962137
vn 0.000041 0.272574 0.962135
vn 0.000041 0.272574 0.962135
vn 0.000041 0.272574 0.962135
vn -0.000014 0.272576 0.962134
vn -0.000014 0.272576 0.962134
vn -0.000014 0.272576 0.962134
vn -0.000004 0.272566 0.962137
vn -0.000004 0.272566 0.962137
vn -0.000004 0.272566 0.962137
vn -0.000004 0.272566 0.962137
vn 0.000004 0.272569 0.962136
vn 0.000004 0.272569 0.962136
vn 0.000004 0.272569 0.962136
vn 0.000004 0.272569 0.962136
vn -0.000008 0.272564 0.962138
vn -0.000008 0.272564 0.962138
vn -0.000008 0.272564 0.962138
vn -0.000025 0.272549 0.962142
vn -0.000025 0.272549 0.962142
vn -0.000025 0.272549 0.962142
vn 0.000005 0.272563 0.962138
vn 0.000005 0.272563 0.962138
vn 0.000005 0.272563 0.962138
vn 0.000005 0.272563 0.962138
vn 0.000001 0.272556 0.962140
vn 0.000001 0.272556 0.962140
vn 0.000001 0.272556 0.962140
vn -0.000028 0.272572 0.962135
vn -0.000028 0.272572 0.962135
vn -0.000028 0.272572 0.962135
vn 0.000016 0.272558 0.962139
vn 0.000016 0.272558 0.962139
vn 0.000016 0.272558 0.962139
vn 0.000007 0.272566 0.962137
vn 0.000007 0.272566 0.962137
vn 0.000007 0.272566 0.962137
vn 0.000007 0.272566 0.962137
vn -0.000006 0.272566 0.962137
vn -0.000006 0.272566 0.962137
vn -0.000006 0.272566 0.962137
vn -0.000006 0.272566 0.962137
vn -0.000007 0.272571 0.962136
vn -0.000007 0.272571 0.962136
vn -0.000007 0.272571 0.962136
vn 0.000003 0.272579 0.962134
vn 0.000003 0.272579 0.962134
vn 0.000003 0.272579 0.962134
vn 0.000003 0.272556 0.962140
vn 0.000003 0.272556 0.962140
vn 0.000003 0.272556 0.962140
vn 0.000003 0.272556 0.962140
vn 0.000008 0.272561 0.962139
vn 0.000008 0.272561 0.962139
vn 0.000008 0.272560 0.962139
vn -0.000001 0.272572 0.962136
vn -0.000001 0.272572 0.962136
vn -0.000001 0.272572 0.962136
vn -0.000013 0.272580 0.962133
vn -0.000013 0.272580 0.962133
vn -0.000013 0.272580 0.962133
vn 0.000001 0.272561 0.962139
vn 0.000001 0.272560 0.962139
vn 0.000001 0.272561 0.962139
vn 0.000001 0.272560 0.962139
vn 0.000009 0.272574 0.962135
vn 0.000009 0.272574 0.962135
vn 0.000009 0.272574 0.962135
vn 0.000009 0.272574 0.962135
vn -0.000013 0.272582 0.962133
vn -0.000013 0.272582 0.962133
vn -0.000013 0.272582 0.962133
vn 0.000000 0.272556 0.962140
vn 0.000000 0.272556 0.962140
vn 0.000000 0.272556 0.962140
vn -0.000003 0.272559 0.962139
vn -0.000003 0.272559 0.962139
vn -0.000003 0.272559 0.962139
vn -0.000003 0.272559 0.962139
vn -0.000003 0.272564 0.962138
vn -0.000003 0.272564 0.962138
vn -0.000003 0.272564 0.962138
vn 0.000000 0.272568 0.962137
vn 0.000000 0.272568 0.962137
vn 0.000000 0.272568 0.962137
vn -0.000019 0.272575 0.962135
vn -0.000019 0.272575 0.962135
vn -0.000019 0.272575 0.962134
vn -0.000019 0.272575 0.962135
vn -0.000003 0.272562 0.962138
vn -0.000003 0.272562 0.962138
vn -0.000003 0.272562 0.962138
vn -0.000003 0.272562 0.962138
vn 0.000012 0.272548 0.962142
vn 0.000012 0.272548 0.962142
vn 0.000012 0.272548 0.962142
vn -0.000002 0.272564 0.962138
vn -0.000002 0.272564 0.962138
vn -0.000002 0.272564 0.962138
vn 0.000000 0.272551 0.962141
vn 0.000000 0.272551 0.962141
vn 0.000000 0.272551 0.962141
s off
f 1/1/1 2/2/2 4/3/3 3/4/4
f 5/5/5 6/6/6 8/7/7 7/8/8
f 7/8/9 8/7/10 2/2/11 1/1/12
f 2/2/13 8/7/14 6/6/15 4/3/16
f 7/8/17 1/1/18 3/4/19 5/5/20
f 9/15/21 10/16/22 12/17/23 11/18/24
f 11/18/25 12/17/26 14/19/27 13/20/28
f 15/21/29 16/22/30 10/16/31 9/15/32
f 10/16/33 16/22/34 14/19/35 12/17/36
f 15/21/37 9/15/38 11/18/39 13/20/40
f 28/23/41 25/24/42 18/25/43 17/26/44
f 25/24/45 26/27/46 19/28/47 18/25/48
f 26/27/49 27/29/50 20/30/51 19/28/52
f 27/29/53 28/23/54 17/26/55 20/30/56
f 17/26/57 18/25/58 22/31/59 21/32/60
f 18/25/61 19/28/62 23/33/63 22/31/64
f 19/28/65 20/30/66 24/34/67 23/33/68
f 20/30/69 17/26/70 21/32/71 24/34/72
f 29/35/73 30/36/74 26/27/75 25/24/76
f 30/36/77 31/37/78 27/29/79 26/27/80
f 31/37/81 32/38/82 28/23/83 27/29/84
f 32/38/85 29/35/86 25/24/87 28/23/88
f 14/19/89 16/22/90 30/36/91 29/35/92
f 16/22/93 15/21/94 31/37/95 30/36/96
f 15/21/97 13/20/98 32/38/99 31/37/100
f 13/20/101 14/19/102 29/35/103 32/38/104
f 45/39/105 49/40/106 50/41/107 51/42/108
f 38/43/109 37/44/110 36/45/111
f 42/46/112 43/47/113 41/48/114
f 47/49/115 52/50/116 76/51/117 48/52/118
f 66/53/119 61/54/120 64/55/121 65/56/122
f 54/57/123 56/58/124 55/59/125 50/60/126
f 56/61/127 58/62/128 57/63/129 55/64/130
f 55/65/131 77/66/132 50/67/133
f 64/68/134 69/69/135 68/70/136 67/71/137 65/72/138
f 83/73/139 84/74/140 75/75/141
f 53/76/142 75/77/143 60/78/144 59/79/145
f 57/80/146 77/81/147 55/82/148
f 66/83/149 79/84/150 57/85/151 58/86/152
f 67/87/153 34/88/154 78/89/155 79/84/156
f 67/87/157 79/84/158 66/83/159 65/90/160
f 70/91/161 34/88/162 68/92/163 69/93/164
f 57/94/165 79/95/166 78/96/167 77/97/168
f 51/98/169 37/99/170 45/100/171
f 52/101/172 81/102/173 75/103/174 76/104/175
f 59/105/176 60/106/177 56/107/178 54/108/179
f 64/55/180 61/54/181 62/109/182
f 69/69/183 72/110/184 71/111/185 70/112/186
f 63/113/187 74/114/188 73/115/189 72/110/190
f 63/113/191 72/110/192 69/69/193 64/68/194
f 33/116/195 82/117/196 70/91/197 71/118/198
f 73/119/199 33/116/200 71/118/201 72/120/202
f 80/121/203 73/119/204 81/122/205
f 81/122/206 74/123/207 63/124/208 83/125/209
f 81/122/210 73/119/211 74/123/212
f 60/126/213 75/127/214 84/128/215
f 80/129/216 81/102/217 46/130/218 44/131/219
f 46/130/220 81/102/221 52/101/222 47/132/223
f 48/52/224 53/133/225 49/134/226
f 48/52/227 76/51/228 53/133/229
f 49/134/230 59/135/231 54/57/232 50/60/233
f 49/134/234 53/133/235 59/135/236
f 76/136/237 75/77/238 53/76/239
f 58/137/240 61/54/241 66/53/242
f 56/107/243 60/106/244 61/54/245 58/137/246
f 50/138/247 77/139/248 37/99/249 51/98/250
f 39/140/251 48/141/252 49/40/253
f 39/140/254 49/40/255 45/39/256
f 40/142/257 46/143/258 47/144/259 48/141/260
f 40/142/261 48/141/262 39/140/263
f 44/145/264 46/143/265 43/146/266
f 43/146/267 46/143/268 40/142/269
f 44/145/270 43/146/271 42/147/272 35/148/273
f 45/149/274 41/150/275 40/151/276 39/152/277
f 41/48/278 43/47/279 40/153/280
f 42/46/281 41/48/282 38/154/283
f 38/43/284 41/150/285 45/149/286 37/44/287
f 64/55/288 62/109/289 63/14/290
f 68/92/291 34/88/292 67/87/293
f 62/13/294 84/128/295 83/12/296 63/11/297
f 60/126/298 84/128/299 62/13/300 61/10/301
f 81/122/302 83/125/303 75/9/304
f 80/121/305 33/116/306 73/119/307
f 82/117/308 34/88/309 70/91/310
