# This file uses meters as units for non-parametric coordinates.

v 3.249878 0.065605 17.271484
v 0.000000 0.327660 17.271484
v 30.006714 0.000000 17.271484
v 30.076172 0.969299 17.271484
v 30.006714 0.000000 -17.271484
v 30.076172 0.969299 -17.271484
v 3.249878 0.065605 -17.271484
v 0.000000 0.327660 -17.271484
v 3.250000 1.917610 17.271484
v 3.250000 1.917496 -17.271484
v 2.348633 2.886940 -17.271484
v 2.348633 2.886940 17.271484
v 2.225586 1.775925 -17.271484
v 2.225586 1.775925 17.271484
v 0.000000 1.760956 17.271484
v 0.000000 1.760956 -17.271484
v 0.000000 1.760956 16.428284
v 0.000000 1.760956 -16.428284
v 2.225586 1.775925 -16.428284
v 2.225586 1.775925 16.428284
v 2.348633 2.886940 -16.428284
v 2.348633 2.886940 16.428284
v 29.493530 1.035789 -16.428284
v 29.493530 1.035789 16.428284
v 0.000000 3.542755 16.428284
v 0.000000 3.542755 -16.428284
v 7.027710 5.796356 -16.428284
v 7.027710 5.796356 16.428284
v 13.319824 4.112045 -16.428284
v 13.319824 4.112045 16.428284
v 27.726563 2.827171 -16.428284
v 27.726563 2.827171 16.428284
v -3.249878 0.065605 17.271484
v -30.006714 0.000000 17.271484
v -30.076172 0.969299 17.271484
v -30.006714 0.000000 -17.271484
v -30.076172 0.969299 -17.271484
v -3.249878 0.065605 -17.271484
v -3.250000 1.917610 17.271484
v -3.250000 1.917496 -17.271484
v -2.348633 2.886940 -17.271484
v -2.348633 2.886940 17.271484
v -2.225586 1.775925 -17.271484
v -2.225586 1.775925 17.271484
v -2.225586 1.775925 -16.428284
v -2.225586 1.775925 16.428284
v -2.348633 2.886940 -16.428284
v -2.348633 2.886940 16.428284
v -29.493530 1.035789 -16.428284
v -29.493530 1.035789 16.428284
v -7.027710 5.796356 -16.428284
v -7.027710 5.796356 16.428284
v -13.319824 4.112045 -16.428284
v -13.319824 4.112045 16.428284
v -27.726563 2.827171 -16.428284
v -27.726563 2.827171 16.428284
v -3.513794 5.796356 16.428284
v -3.513794 5.796356 -16.428284
v 3.513794 5.796356 -16.428284
v 3.513794 5.796356 16.428284
vt 0.343077 0.446220
vt 0.343077 0.446220
vt 0.343077 0.446220
vt 0.343077 0.446220
vt 0.343077 0.446220
vt 0.343077 0.446220
vt 0.343077 0.446220
vt 0.343077 0.446220
vt 0.343077 0.446220
vt 0.343077 0.446220
vt 0.343077 0.446220
vt 0.343077 0.446220
vt 0.343077 0.446220
vt 0.343077 0.446220
vt 0.343077 0.446220
vt 0.343077 0.446220
vt 0.343077 0.446220
vt 0.343077 0.446220
vt 0.343077 0.446220
vt 0.343077 0.446220
vt 0.343077 0.446220
vt 0.343077 0.446220
vt 0.343077 0.446220
vt 0.343077 0.446220
vt 0.343077 0.446220
vt 0.343077 0.446220
vt 0.343077 0.446220
vt 0.343077 0.446220
vt 0.343077 0.446220
vt 0.343077 0.446220
vt 0.343077 0.446220
vt 0.343077 0.446220
vt 0.343077 0.446220
vt 0.037964 0.380608
vt 0.037964 0.380608
vt 0.037964 0.380608
vt 0.037964 0.380608
vt 0.037964 0.380608
vt 0.037964 0.380608
vt 0.037964 0.380608
vt 0.037964 0.380608
vt 0.037964 0.380608
vt 0.037964 0.380608
vt 0.037964 0.380608
vt 0.037964 0.380608
vt 0.037964 0.380608
vt 0.037964 0.380608
vt 0.037964 0.380608
vt 0.037964 0.380608
vt 0.343077 0.446220
vt 0.343077 0.446220
vt 0.343077 0.446220
vt 0.343077 0.446220
vt 0.343077 0.446220
vt 0.343077 0.446220
vt 0.343077 0.446220
vt 0.343077 0.446220
vt 0.343077 0.446220
vt 0.343077 0.446220
vt 0.343077 0.446220
vt 0.343077 0.446220
vt 0.343077 0.446220
vt 0.343077 0.446220
vt 0.037964 0.380608
vt 0.037964 0.380608
vt 0.037964 0.380608
vt 0.037964 0.380608
vt 0.343077 0.446220
vt 0.343077 0.446220
vt 0.343077 0.446220
vt 0.343077 0.446220
vt 0.343077 0.446220
vt 0.343077 0.446220
vt 0.037964 0.380608
vt 0.037964 0.380608
vt 0.037964 0.380608
vt 0.037964 0.380608
vt 0.343077 0.446220
vt 0.343077 0.446220
vt 0.343077 0.446220
vt 0.343077 0.446220
vt 0.343077 0.446220
vt 0.343077 0.446220
vt 0.343077 0.446220
vt 0.343077 0.446220
vt 0.343077 0.446220
vt 0.343077 0.446220
vt 0.343077 0.446220
vt 0.343077 0.446220
vt 0.343077 0.446220
vt 0.037964 0.380608
vt 0.037964 0.380608
vt 0.037964 0.380608
vt 0.037964 0.380608
vt 0.037964 0.380608
vt 0.037964 0.380608
vt 0.037964 0.380608
vt 0.037964 0.380608
vt 0.037964 0.380608
vt 0.037964 0.380608
vt 0.037964 0.380608
vt 0.037964 0.380608
vn 0.000000 0.000000 1.000000
vn 0.000000 0.000000 1.000000
vn 0.000000 0.000000 1.000000
vn 0.000000 0.000000 1.000000
vn 0.997442 -0.071475 0.000000
vn 0.997442 -0.071475 0.000000
vn 0.997442 -0.071475 0.000000
vn 0.997442 -0.071475 0.000000
vn 0.000000 0.000000 -1.000000
vn 0.000000 0.000000 -1.000000
vn 0.000000 0.000000 -1.000000
vn 0.000000 0.000000 -1.000000
vn -0.080374 -0.996765 0.000000
vn -0.080374 -0.996765 0.000000
vn -0.080374 -0.996765 0.000000
vn -0.080374 -0.996765 0.000000
vn 0.000000 1.000000 0.000000
vn 0.000000 1.000000 0.000000
vn 0.000000 1.000000 0.000000
vn 0.000000 1.000000 0.000000
vn 1.000000 -0.000066 0.000000
vn 1.000000 -0.000066 0.000000
vn 1.000000 -0.000066 0.000000
vn 1.000000 -0.000066 0.000000
vn -0.071483 -0.997442 0.000002
vn -0.071483 -0.997442 0.000002
vn -0.071483 -0.997442 0.000002
vn -0.071483 -0.997442 0.000002
vn 0.000000 0.000000 -1.000000
vn 0.000000 0.000000 -1.000000
vn 0.000000 0.000000 -1.000000
vn 0.000000 0.000000 -1.000000
vn 0.088833 0.996047 0.000000
vn 0.088833 0.996047 0.000000
vn 0.088833 0.996047 0.000000
vn 0.088833 0.996047 0.000000
vn -0.000000 0.000000 1.000000
vn -0.000000 0.000000 1.000000
vn -0.000000 0.000000 1.000000
vn -0.000000 0.000000 1.000000
vn -0.000001 0.000000 -1.000000
vn -0.000001 0.000000 -1.000000
vn -0.000001 0.000000 -1.000000
vn -0.000001 0.000000 -1.000000
vn 0.258582 0.965989 0.000000
vn 0.258582 0.965989 0.000000
vn 0.258582 0.965989 0.000000
vn 0.258582 0.965989 0.000000
vn -0.000001 0.000000 1.000000
vn -0.000001 0.000000 1.000000
vn -0.000001 0.000000 1.000000
vn -0.000001 0.000000 1.000000
vn -0.006726 0.999977 0.000000
vn -0.006726 0.999977 0.000000
vn -0.006726 0.999977 0.000000
vn -0.006726 0.999977 0.000000
vn -0.006726 0.999977 0.000000
vn -0.006726 0.999977 0.000000
vn -0.006726 0.999977 0.000000
vn -0.006726 0.999977 0.000000
vn 0.068513 0.997527 -0.015659
vn 0.068513 0.997527 -0.015659
vn 0.068513 0.997527 -0.015659
vn 0.068513 0.997527 -0.015659
vn 0.113383 0.993551 0.000000
vn 0.113383 0.993551 0.000000
vn 0.113383 0.993551 0.000000
vn 0.113383 0.993551 0.000000
vn 0.068513 0.997527 0.015659
vn 0.068513 0.997527 0.015659
vn 0.068513 0.997527 0.015659
vn 0.068513 0.997527 0.015659
vn -0.993923 0.110079 0.000000
vn -0.993923 0.110079 0.000000
vn -0.993923 0.110079 0.000000
vn -0.993923 0.110079 0.000000
vn -0.993923 0.110079 0.000000
vn -0.993923 0.110079 0.000000
vn -0.993923 0.110079 0.000000
vn -0.993923 0.110079 0.000000
vn 0.000000 0.000000 1.000000
vn 0.000000 0.000000 1.000000
vn 0.000000 0.000000 1.000000
vn 0.000000 0.000000 1.000000
vn 0.000000 0.000000 -1.000000
vn 0.000000 0.000000 -1.000000
vn 0.000000 0.000000 -1.000000
vn 0.000000 0.000000 -1.000000
vn 0.711942 0.702239 0.000000
vn 0.711942 0.702239 0.000000
vn 0.711942 0.702239 0.000000
vn 0.711942 0.702239 0.000000
vn -0.000000 0.000000 1.000000
vn -0.000000 0.000000 1.000000
vn -0.000000 0.000000 1.000000
vn -0.000000 0.000000 1.000000
vn 0.000000 0.000000 -1.000000
vn 0.000000 0.000000 -1.000000
vn 0.000000 0.000000 -1.000000
vn 0.000000 0.000000 -1.000000
vn -0.000000 0.000000 1.000000
vn -0.000000 0.000000 1.000000
vn -0.000000 0.000000 1.000000
vn -0.000000 0.000000 1.000000
vn -0.997442 -0.071475 0.000000
vn -0.997442 -0.071475 0.000000
vn -0.997442 -0.071475 0.000000
vn -0.997442 -0.071475 0.000000
vn -0.000000 0.000000 -1.000000
vn -0.000000 0.000000 -1.000000
vn -0.000000 0.000000 -1.000000
vn -0.000000 0.000000 -1.000000
vn 0.080374 -0.996765 0.000000
vn 0.080374 -0.996765 0.000000
vn 0.080374 -0.996765 0.000000
vn 0.080374 -0.996765 0.000000
vn 0.000000 1.000000 0.000000
vn 0.000000 1.000000 0.000000
vn 0.000000 1.000000 0.000000
vn 0.000000 1.000000 0.000000
vn -1.000000 -0.000066 0.000000
vn -1.000000 -0.000066 0.000000
vn -1.000000 -0.000066 0.000000
vn -1.000000 -0.000066 0.000000
vn 0.071483 -0.997442 0.000002
vn 0.071483 -0.997442 0.000002
vn 0.071483 -0.997442 0.000002
vn 0.071483 -0.997442 0.000002
vn 0.000000 0.000000 -1.000000
vn 0.000000 0.000000 -1.000000
vn 0.000000 0.000000 -1.000000
vn 0.000000 0.000000 -1.000000
vn -0.088833 0.996047 0.000000
vn -0.088833 0.996047 0.000000
vn -0.088833 0.996047 0.000000
vn -0.088833 0.996047 0.000000
vn 0.000000 0.000000 1.000000
vn 0.000000 0.000000 1.000000
vn 0.000000 0.000000 1.000000
vn 0.000000 0.000000 1.000000
vn 0.000001 0.000000 -1.000000
vn 0.000001 0.000000 -1.000000
vn 0.000001 0.000000 -1.000000
vn 0.000001 0.000000 -1.000000
vn -0.258582 0.965989 0.000000
vn -0.258582 0.965989 0.000000
vn -0.258582 0.965989 0.000000
vn -0.258582 0.965989 0.000000
vn 0.000003 0.000000 1.000000
vn 0.000003 0.000000 1.000000
vn 0.000003 0.000000 1.000000
vn 0.000003 0.000000 1.000000
vn 0.006726 0.999977 0.000000
vn 0.006726 0.999977 0.000000
vn 0.006726 0.999977 0.000000
vn 0.006726 0.999977 0.000000
vn 0.006726 0.999977 0.000000
vn 0.006726 0.999977 0.000000
vn 0.006726 0.999977 0.000000
vn 0.006726 0.999977 0.000000
vn -0.068513 0.997527 -0.015659
vn -0.068513 0.997527 -0.015659
vn -0.068513 0.997527 -0.015659
vn -0.068513 0.997527 -0.015659
vn -0.113382 0.993551 0.000000
vn -0.113382 0.993551 0.000000
vn -0.113382 0.993551 0.000000
vn -0.113382 0.993551 0.000000
vn -0.068513 0.997527 0.015659
vn -0.068513 0.997527 0.015659
vn -0.068513 0.997527 0.015659
vn -0.068513 0.997527 0.015659
vn 0.993923 0.110079 0.000000
vn 0.993923 0.110079 0.000000
vn 0.993923 0.110079 0.000000
vn 0.993923 0.110079 0.000000
vn 0.993923 0.110079 0.000000
vn 0.993923 0.110079 0.000000
vn 0.993923 0.110079 0.000000
vn 0.993923 0.110079 0.000000
vn 0.000000 0.000000 -1.000000
vn 0.000000 0.000000 -1.000000
vn 0.000000 0.000000 -1.000000
vn 0.000000 0.000000 -1.000000
vn 0.000000 0.000000 -1.000000
vn 0.000000 0.000000 -1.000000
vn 0.000000 0.000000 -1.000000
vn 0.000000 0.000000 -1.000000
vn -0.711942 0.702239 0.000000
vn -0.711942 0.702239 0.000000
vn -0.711942 0.702239 0.000000
vn -0.711942 0.702239 0.000000
vn -0.000000 0.000000 1.000000
vn -0.000000 0.000000 1.000000
vn -0.000000 0.000000 1.000000
vn -0.000000 0.000000 1.000000
vn 0.000000 0.000000 1.000000
vn 0.000000 0.000000 1.000000
vn 0.000000 0.000000 1.000000
vn 0.000000 0.000000 1.000000
vn -0.000001 0.000000 -1.000000
vn -0.000001 0.000000 -1.000000
vn -0.000001 0.000000 -1.000000
vn -0.000001 0.000000 -1.000000
vn 0.000001 0.000000 -1.000000
vn 0.000001 0.000000 -1.000000
vn 0.000001 0.000000 -1.000000
vn 0.000001 0.000000 -1.000000
vn 0.000001 0.000000 1.000000
vn 0.000001 0.000000 1.000000
vn 0.000001 0.000000 1.000000
vn 0.000001 0.000000 1.000000
vn -0.000001 0.000000 1.000000
vn -0.000001 0.000000 1.000000
vn -0.000001 0.000000 1.000000
vn -0.000001 0.000000 1.000000
vn 0.000000 0.000000 1.000000
vn 0.000000 0.000000 1.000000
vn 0.000000 0.000000 1.000000
vn 0.539865 0.841752 0.000000
vn 0.539865 0.841752 0.000000
vn 0.539865 0.841752 0.000000
vn 0.539865 0.841752 0.000000
vn 0.000000 0.000000 -1.000000
vn 0.000000 0.000000 -1.000000
vn 0.000000 0.000000 -1.000000
vn 0.000000 0.000000 -1.000000
vn 0.000000 0.000000 -1.000000
vn 0.000000 0.000000 -1.000000
vn -0.539865 0.841752 0.000000
vn -0.539865 0.841752 0.000000
vn -0.539865 0.841752 0.000000
vn -0.539865 0.841752 0.000000
vn -0.000000 0.000000 1.000000
vn -0.000000 0.000000 1.000000
vn -0.000000 0.000000 1.000000
s off
f 1/1/1 14/22/2 15/23/3 2/2/4
f 3/3/5 5/5/6 6/6/7 4/4/8
f 7/7/9 8/8/10 16/24/11 13/20/12
f 7/7/13 1/9/14 2/10/15 8/8/16
f 59/101/17 60/102/18 28/45/19 27/44/20
f 7/12/21 10/15/22 9/14/23 1/1/24
f 10/15/25 5/13/26 3/3/27 9/14/28
f 5/5/29 10/16/30 11/17/31 6/6/32
f 30/49/33 32/48/34 31/47/35 29/46/36
f 9/14/37 3/3/38 4/4/39 12/19/40
f 10/16/41 7/7/42 13/20/43 11/17/44
f 28/45/45 30/49/46 29/46/47 27/44/48
f 1/1/49 9/14/50 12/19/51 14/22/52
f 16/25/53 18/27/54 19/28/55 13/21/56
f 14/22/57 20/29/58 17/26/59 15/23/60
f 11/18/61 21/30/62 23/31/63 6/11/64
f 6/11/65 23/31/66 24/32/67 4/4/68
f 4/4/69 24/32/70 22/33/71 12/19/72
f 13/21/73 19/28/74 21/30/75 11/18/76
f 12/19/77 22/33/78 20/29/79 14/22/80
f 28/45/81 60/102/82 22/38/83 30/49/84
f 21/39/85 29/46/86 31/47/87 23/40/88
f 23/40/89 31/47/90 32/48/91 24/41/92
f 24/41/93 32/48/94 30/49/95 22/38/96
f 27/44/97 29/46/98 21/39/99 59/101/100
f 33/50/101 2/51/102 15/52/103 44/53/104
f 34/54/105 35/55/106 37/56/107 36/57/108
f 38/58/109 43/59/110 16/60/111 8/61/112
f 38/58/113 8/61/114 2/62/115 33/63/116
f 57/99/117 58/100/118 51/66/119 52/67/120
f 38/68/121 33/50/122 39/69/123 40/70/124
f 40/70/125 39/69/126 34/54/127 36/71/128
f 36/57/129 37/56/130 41/72/131 40/73/132
f 54/74/133 53/75/134 55/76/135 56/77/136
f 39/69/137 42/78/138 35/55/139 34/54/140
f 40/73/141 41/72/142 43/59/143 38/58/144
f 52/67/145 51/66/146 53/75/147 54/74/148
f 33/50/149 44/53/150 42/78/151 39/69/152
f 16/79/153 43/80/154 45/81/155 18/82/156
f 44/53/157 15/52/158 17/83/159 46/84/160
f 41/85/161 37/86/162 49/87/163 47/88/164
f 37/86/165 35/55/166 50/89/167 49/87/168
f 35/55/169 42/78/170 48/90/171 50/89/172
f 43/80/173 41/85/174 47/88/175 45/81/176
f 42/78/177 44/53/178 46/84/179 48/90/180
f 51/66/181 58/100/182 47/95/183 53/75/184
f 47/95/185 49/96/186 55/76/187 53/75/188
f 49/96/189 50/97/190 56/77/191 55/76/192
f 50/97/193 48/98/194 54/74/195 56/77/196
f 52/67/197 54/74/198 48/98/199 57/99/200
f 26/43/201 21/39/202 19/36/203 18/35/204
f 47/95/205 26/65/206 18/91/207 45/92/208
f 25/64/209 48/98/210 46/93/211 17/94/212
f 22/38/213 25/42/214 17/34/215 20/37/216
f 57/99/217 48/98/218 25/64/219
f 25/64/220 26/65/221 58/100/222 57/99/223
f 47/95/224 58/100/225 26/65/226
f 59/101/227 21/39/228 26/43/229
f 25/42/230 60/102/231 59/101/232 26/43/233
f 22/38/234 60/102/235 25/42/236
