# This file uses meters as units for non-parametric coordinates.

v 5.667358 -1.178174 5.667389
v 8.014893 -1.178174 0.000000
v 5.667358 -1.178174 -5.667358
v 0.000000 -1.178174 -8.014832
v -5.667358 -1.178174 -5.667358
v -8.014893 -1.178174 0.000000
v -5.667358 -1.178174 5.667389
v 0.000000 -1.178174 8.014862
v 5.911865 0.939194 5.911896
v 8.360657 0.939194 0.000000
v 5.911865 0.939194 -5.911865
v 0.000000 0.939194 -8.360626
v -5.911865 0.939194 -5.911865
v -8.360657 0.939194 0.000000
v -5.911865 0.939194 5.911896
v 0.000000 0.939194 8.360657
v 0.000000 1.069614 0.000000
v 7.217102 -1.178174 7.217133
v 10.206482 -1.178174 0.000000
v 7.217102 -1.178174 -7.217102
v 0.000000 -1.178174 -10.206512
v -7.217041 -1.178174 -7.217102
v -10.206482 -1.178174 0.000000
v -7.217041 -1.178174 7.217133
v 0.000000 -1.178174 10.206543
v 7.169495 19.736414 7.169464
v 10.139160 19.736414 0.000000
v 8.752319 18.998823 8.752350
v 12.377686 18.998823 0.000000
v 7.169495 19.736414 -7.169464
v 8.752319 18.998823 -8.752319
v 0.000000 19.736414 -10.139160
v 0.000000 18.998823 -12.377686
v -7.169495 19.736414 -7.169464
v -8.752319 18.998823 -8.752319
v -10.139160 19.736414 0.000000
v -12.377686 18.998823 0.000000
v -7.169495 19.736414 7.169464
v -8.752319 18.998823 8.752350
v 0.000000 19.736414 10.139191
v 0.000000 18.998823 12.377716
v 8.451721 25.870617 8.451691
v 11.952515 25.870617 0.000000
v 8.451721 25.870617 -8.451691
v 0.000000 25.870617 -11.952515
v -8.451660 25.870617 -8.451691
v -11.952454 25.870617 0.000000
v -8.451721 25.870617 8.451691
v 0.000000 25.870617 11.952545
v 9.680847 19.490465 9.680878
v 13.690796 19.490465 0.000000
v 14.450500 25.917181 0.000000
v 10.218018 25.917181 10.218048
v 9.680847 19.490465 -9.680847
v 10.218018 25.917181 -10.218018
v 0.000000 19.490465 -13.690796
v 0.000000 25.917181 -14.450500
v -9.680847 19.490465 -9.680847
v -10.218018 25.917181 -10.218018
v -13.690796 19.490465 0.000000
v -14.450500 25.917181 0.000000
v -9.680847 19.490465 9.680878
v -10.218079 25.917181 10.218048
v 0.000000 19.490465 13.690826
v 0.000000 25.917181 14.450531
v 5.049805 -0.212477 5.049835
v 7.141541 -0.212477 0.000000
v 0.000000 -0.212477 0.000000
v 5.049805 -0.212477 -5.049805
v 0.000000 -0.212477 -7.141510
v -5.049805 -0.212477 -5.049805
v -7.141541 -0.212477 0.000000
v -5.049805 -0.212477 5.049835
v 0.000000 -0.212477 7.141541
vt 0.157406 0.471403
vt 0.157406 0.471403
vt 0.157406 0.471403
vt 0.157406 0.471403
vt 0.157406 0.471403
vt 0.157406 0.471403
vt 0.157406 0.471403
vt 0.157406 0.471403
vt 0.157406 0.471403
vt 0.157406 0.471403
vt 0.157406 0.471403
vt 0.157406 0.471403
vt 0.157406 0.471403
vt 0.157406 0.471403
vt 0.157406 0.471403
vt 0.157406 0.471403
vt 0.157406 0.471403
vt 0.157406 0.471403
vt 0.157406 0.471403
vt 0.157406 0.471403
vt 0.157406 0.471403
vt 0.157406 0.471403
vt 0.157406 0.471403
vt 0.157406 0.471403
vt 0.157406 0.471403
vt 0.157406 0.471403
vt 0.157406 0.471403
vt 0.157406 0.471403
vt 0.157406 0.471403
vt 0.157406 0.471403
vt 0.157406 0.471403
vt 0.157406 0.471403
vt 0.157406 0.471403
vt 0.157406 0.471403
vt 0.157406 0.471403
vt 0.157406 0.471403
vt 0.157406 0.471403
vt 0.157406 0.471403
vt 0.157406 0.471403
vt 0.157406 0.471403
vt 0.157406 0.471403
vt 0.157406 0.471403
vt 0.218093 0.488284
vt 0.218093 0.488284
vt 0.157406 0.471403
vt 0.157406 0.471403
vt 0.157406 0.471401
vt 0.218093 0.488284
vt 0.218093 0.488284
vt 0.157406 0.471403
vt 0.157406 0.471401
vt 0.218093 0.488284
vt 0.157406 0.471403
vt 0.157406 0.471401
vt 0.218093 0.488284
vt 0.157406 0.471403
vt 0.157406 0.471401
vt 0.218093 0.488284
vt 0.157406 0.471403
vt 0.157406 0.471401
vt 0.218093 0.488284
vt 0.157406 0.471403
vt 0.157406 0.471401
vt 0.218093 0.488284
vt 0.157406 0.471403
vt 0.157406 0.471401
vt 0.218093 0.488284
vt 0.218093 0.488284
vt 0.218093 0.488284
vt 0.157406 0.471401
vt 0.218093 0.488284
vt 0.218093 0.488284
vt 0.157406 0.471401
vt 0.218093 0.488284
vt 0.218093 0.488284
vt 0.218093 0.488284
vt 0.157406 0.471401
vt 0.218093 0.488284
vt 0.218093 0.488284
vt 0.218093 0.488284
vt 0.157406 0.471401
vt 0.218093 0.488284
vt 0.218093 0.488284
vt 0.218093 0.488284
vt 0.157406 0.471401
vt 0.218093 0.488284
vt 0.218093 0.488284
vt 0.218093 0.488284
vt 0.157406 0.471401
vt 0.218093 0.488284
vt 0.218093 0.488284
vt 0.218093 0.488284
vt 0.157406 0.471401
vt 0.218093 0.488284
vt 0.157406 0.471401
vt 0.218093 0.488284
vt 0.157406 0.471401
vt 0.218093 0.488284
vt 0.157406 0.471403
vt 0.157406 0.471403
vt 0.157406 0.471403
vt 0.157406 0.471403
vt 0.157406 0.471403
vt 0.157406 0.471403
vt 0.157406 0.471403
vt 0.157406 0.471403
vn 0.000000 -1.000000 0.000000
vn 0.000000 -1.000000 0.000000
vn 0.000000 -1.000000 0.000000
vn 0.000000 -1.000000 0.000000
vn 0.000000 -1.000000 0.000000
vn 0.000000 -1.000000 0.000000
vn 0.000000 -1.000000 0.000000
vn 0.000000 -1.000000 0.000000
vn 0.000000 -1.000000 0.000000
vn 0.000000 -1.000000 0.000000
vn 0.000000 -1.000000 0.000000
vn 0.000000 -1.000000 0.000000
vn 0.000000 -1.000000 0.000000
vn 0.000000 -1.000000 0.000000
vn 0.000000 -1.000000 0.000000
vn 0.000000 -1.000000 0.000000
vn 0.000000 -1.000000 0.000000
vn 0.000000 -1.000000 0.000000
vn 0.000000 -1.000000 0.000000
vn 0.000000 -1.000000 0.000000
vn 0.000000 -1.000000 0.000000
vn 0.000000 -1.000000 0.000000
vn 0.000000 -1.000000 0.000000
vn 0.000000 -1.000000 0.000000
vn 0.015597 0.999858 0.006460
vn 0.015597 0.999857 0.006460
vn 0.015597 0.999858 0.006460
vn 0.015597 0.999858 -0.006461
vn 0.015597 0.999857 -0.006461
vn 0.015597 0.999858 -0.006461
vn 0.006460 0.999858 -0.015597
vn 0.006460 0.999857 -0.015597
vn 0.006460 0.999858 -0.015597
vn -0.006460 0.999857 -0.015597
vn -0.006460 0.999858 -0.015597
vn -0.006460 0.999858 -0.015597
vn -0.015597 0.999857 -0.006461
vn -0.015597 0.999858 -0.006461
vn -0.015597 0.999858 -0.006461
vn -0.015597 0.999857 0.006460
vn -0.015597 0.999858 0.006460
vn -0.015597 0.999858 0.006460
vn -0.006460 0.999858 0.015597
vn -0.006460 0.999858 0.015597
vn -0.006460 0.999858 0.015597
vn 0.006460 0.999858 0.015597
vn 0.006460 0.999858 0.015597
vn 0.006460 0.999858 0.015597
vn 0.000000 -1.000000 0.000000
vn 0.000000 -1.000000 0.000000
vn 0.000000 -1.000000 0.000000
vn 0.000000 -1.000000 0.000000
vn 0.000000 -1.000000 -0.000000
vn 0.000000 -1.000000 -0.000000
vn 0.000000 -1.000000 -0.000000
vn 0.000000 -1.000000 -0.000000
vn 0.000000 -1.000000 0.000000
vn 0.000000 -1.000000 0.000000
vn 0.000000 -1.000000 0.000000
vn 0.000000 -1.000000 0.000000
vn 0.000000 -1.000000 0.000000
vn 0.000000 -1.000000 0.000000
vn 0.000000 -1.000000 0.000000
vn 0.000000 -1.000000 0.000000
vn 0.000000 -1.000000 0.000000
vn 0.000000 -1.000000 0.000000
vn 0.000000 -1.000000 0.000000
vn 0.000000 -1.000000 0.000000
vn 0.000000 -1.000000 0.000000
vn 0.000000 -1.000000 0.000000
vn 0.000000 -1.000000 0.000000
vn 0.000000 -1.000000 0.000000
vn 0.000000 -1.000000 -0.000000
vn 0.000000 -1.000000 -0.000000
vn 0.000000 -1.000000 -0.000000
vn 0.000000 -1.000000 -0.000000
vn 0.000000 -1.000000 0.000000
vn 0.000000 -1.000000 0.000000
vn 0.000000 -1.000000 0.000000
vn 0.000000 -1.000000 0.000000
vn -0.920370 0.087082 -0.381229
vn -0.920370 0.087082 -0.381229
vn -0.920370 0.087082 -0.381229
vn -0.920370 0.087082 -0.381228
vn 0.919348 -0.098927 0.380805
vn 0.919348 -0.098927 0.380805
vn 0.919348 -0.098927 0.380805
vn 0.919348 -0.098927 0.380805
vn -0.920370 0.087082 0.381229
vn -0.920370 0.087082 0.381229
vn -0.920370 0.087082 0.381229
vn -0.920370 0.087082 0.381229
vn 0.919348 -0.098927 -0.380806
vn 0.919348 -0.098927 -0.380806
vn 0.919348 -0.098927 -0.380806
vn 0.919348 -0.098927 -0.380806
vn -0.381229 0.087082 0.920370
vn -0.381229 0.087082 0.920370
vn -0.381229 0.087082 0.920370
vn -0.381229 0.087082 0.920370
vn 0.380807 -0.098927 -0.919347
vn 0.380807 -0.098927 -0.919347
vn 0.380807 -0.098927 -0.919347
vn 0.380807 -0.098927 -0.919347
vn 0.381229 0.087082 0.920370
vn 0.381229 0.087082 0.920370
vn 0.381229 0.087082 0.920370
vn 0.381229 0.087082 0.920370
vn -0.380809 -0.098927 -0.919347
vn -0.380809 -0.098927 -0.919347
vn -0.380809 -0.098927 -0.919347
vn -0.380809 -0.098927 -0.919347
vn 0.920370 0.087082 0.381229
vn 0.920370 0.087082 0.381229
vn 0.920370 0.087082 0.381229
vn 0.920370 0.087082 0.381229
vn -0.919346 -0.098929 -0.380809
vn -0.919346 -0.098929 -0.380809
vn -0.919346 -0.098929 -0.380809
vn -0.919346 -0.098929 -0.380809
vn 0.920370 0.087082 -0.381229
vn 0.920370 0.087082 -0.381229
vn 0.920370 0.087082 -0.381228
vn 0.920370 0.087082 -0.381229
vn -0.919347 -0.098929 0.380808
vn -0.919347 -0.098929 0.380808
vn -0.919347 -0.098929 0.380808
vn -0.919347 -0.098929 0.380808
vn 0.381230 0.087082 -0.920370
vn 0.381230 0.087082 -0.920370
vn 0.381230 0.087082 -0.920370
vn 0.381230 0.087082 -0.920370
vn -0.380809 -0.098927 0.919347
vn -0.380809 -0.098927 0.919347
vn -0.380809 -0.098927 0.919347
vn -0.380809 -0.098927 0.919347
vn -0.381230 0.087082 -0.920370
vn -0.381230 0.087082 -0.920370
vn -0.381230 0.087082 -0.920370
vn -0.381230 0.087082 -0.920370
vn 0.380807 -0.098927 0.919347
vn 0.380807 -0.098927 0.919347
vn 0.380807 -0.098927 0.919347
vn 0.380807 -0.098927 0.919347
vn -0.891240 0.263461 -0.369161
vn -0.891240 0.263462 -0.369161
vn -0.891240 0.263462 -0.369161
vn -0.891240 0.263462 -0.369161
vn 0.918419 -0.108564 0.380423
vn 0.918419 -0.108564 0.380423
vn 0.918418 -0.108564 0.380423
vn 0.918419 -0.108564 0.380423
vn -0.891240 0.263462 0.369161
vn -0.891240 0.263461 0.369161
vn -0.891240 0.263462 0.369162
vn -0.891240 0.263462 0.369161
vn 0.918418 -0.108564 -0.380424
vn 0.918418 -0.108564 -0.380424
vn 0.918418 -0.108564 -0.380424
vn 0.918418 -0.108564 -0.380424
vn -0.369163 0.263461 0.891239
vn -0.369163 0.263461 0.891239
vn -0.369163 0.263461 0.891239
vn -0.369163 0.263461 0.891239
vn 0.380424 -0.108564 -0.918418
vn 0.380424 -0.108564 -0.918418
vn 0.380424 -0.108564 -0.918418
vn 0.380424 -0.108564 -0.918418
vn 0.369165 0.263460 0.891239
vn 0.369165 0.263460 0.891239
vn 0.369165 0.263460 0.891239
vn 0.369165 0.263460 0.891239
vn -0.380424 -0.108564 -0.918418
vn -0.380424 -0.108564 -0.918418
vn -0.380424 -0.108564 -0.918418
vn -0.380424 -0.108564 -0.918418
vn 0.891242 0.263453 0.369162
vn 0.891242 0.263453 0.369162
vn 0.891242 0.263453 0.369162
vn 0.891242 0.263453 0.369162
vn -0.918418 -0.108564 -0.380424
vn -0.918418 -0.108564 -0.380424
vn -0.918418 -0.108564 -0.380424
vn -0.918418 -0.108564 -0.380423
vn 0.891242 0.263457 -0.369159
vn 0.891242 0.263457 -0.369159
vn 0.891242 0.263457 -0.369159
vn 0.891242 0.263457 -0.369159
vn -0.918419 -0.108569 0.380420
vn -0.918419 -0.108569 0.380420
vn -0.918419 -0.108569 0.380420
vn -0.918419 -0.108569 0.380420
vn 0.369166 0.263461 -0.891238
vn 0.369166 0.263461 -0.891238
vn 0.369166 0.263461 -0.891238
vn 0.369166 0.263461 -0.891238
vn -0.380423 -0.108566 0.918418
vn -0.380423 -0.108566 0.918418
vn -0.380423 -0.108566 0.918418
vn -0.380423 -0.108566 0.918418
vn -0.369166 0.263461 -0.891238
vn -0.369166 0.263461 -0.891238
vn -0.369166 0.263461 -0.891238
vn -0.369166 0.263461 -0.891238
vn 0.380424 -0.108564 0.918418
vn 0.380424 -0.108564 0.918418
vn 0.380424 -0.108564 0.918418
vn 0.380424 -0.108564 0.918418
vn 0.346995 -0.926788 0.143731
vn 0.346995 -0.926788 0.143731
vn 0.346995 -0.926788 0.143731
vn 0.346995 -0.926788 0.143731
vn -0.018637 0.999797 -0.007719
vn -0.018637 0.999797 -0.007719
vn -0.018637 0.999797 -0.007719
vn -0.018637 0.999797 -0.007719
vn 0.346995 -0.926788 -0.143731
vn 0.346995 -0.926788 -0.143731
vn 0.346995 -0.926788 -0.143731
vn 0.346995 -0.926788 -0.143731
vn -0.018637 0.999797 0.007720
vn -0.018637 0.999797 0.007720
vn -0.018637 0.999797 0.007720
vn -0.018637 0.999797 0.007720
vn 0.143731 -0.926788 -0.346995
vn 0.143731 -0.926788 -0.346995
vn 0.143731 -0.926788 -0.346995
vn 0.143731 -0.926788 -0.346995
vn -0.007720 0.999797 0.018637
vn -0.007720 0.999797 0.018637
vn -0.007720 0.999797 0.018637
vn -0.007720 0.999797 0.018637
vn -0.143731 -0.926788 -0.346995
vn -0.143731 -0.926788 -0.346995
vn -0.143731 -0.926788 -0.346995
vn -0.143731 -0.926788 -0.346996
vn 0.007720 0.999797 0.018637
vn 0.007720 0.999797 0.018637
vn 0.007720 0.999797 0.018637
vn 0.007720 0.999797 0.018637
vn -0.346995 -0.926788 -0.143731
vn -0.346995 -0.926788 -0.143731
vn -0.346995 -0.926788 -0.143731
vn -0.346995 -0.926788 -0.143731
vn 0.018637 0.999797 0.007719
vn 0.018637 0.999797 0.007719
vn 0.018637 0.999797 0.007719
vn 0.018637 0.999797 0.007719
vn -0.346995 -0.926788 0.143731
vn -0.346995 -0.926788 0.143731
vn -0.346995 -0.926788 0.143731
vn -0.346995 -0.926788 0.143731
vn 0.018637 0.999797 -0.007720
vn 0.018637 0.999797 -0.007720
vn 0.018637 0.999797 -0.007720
vn 0.018637 0.999797 -0.007720
vn -0.143731 -0.926788 0.346995
vn -0.143731 -0.926788 0.346995
vn -0.143731 -0.926788 0.346995
vn -0.143731 -0.926788 0.346995
vn 0.007720 0.999797 -0.018636
vn 0.007720 0.999797 -0.018636
vn 0.007720 0.999797 -0.018636
vn 0.007720 0.999797 -0.018636
vn 0.143731 -0.926788 0.346995
vn 0.143731 -0.926788 0.346995
vn 0.143731 -0.926788 0.346995
vn 0.143731 -0.926788 0.346996
vn -0.007720 0.999797 -0.018637
vn -0.007720 0.999797 -0.018637
vn -0.007720 0.999797 -0.018637
vn -0.007720 0.999797 -0.018637
vn -0.708975 -0.641181 -0.293670
vn -0.708975 -0.641181 -0.293670
vn -0.708975 -0.641181 -0.293670
vn -0.708975 -0.641180 -0.293670
vn -0.708974 -0.641181 0.293672
vn -0.708974 -0.641181 0.293672
vn -0.708974 -0.641180 0.293672
vn -0.708974 -0.641181 0.293672
vn -0.293669 -0.641174 0.708982
vn -0.293669 -0.641174 0.708982
vn -0.293669 -0.641174 0.708982
vn -0.293669 -0.641174 0.708982
vn 0.293669 -0.641174 0.708982
vn 0.293669 -0.641174 0.708982
vn 0.293669 -0.641174 0.708982
vn 0.293669 -0.641174 0.708982
vn 0.708974 -0.641181 0.293672
vn 0.708974 -0.641181 0.293672
vn 0.708974 -0.641181 0.293672
vn 0.708974 -0.641180 0.293672
vn 0.708975 -0.641181 -0.293670
vn 0.708975 -0.641181 -0.293670
vn 0.708975 -0.641180 -0.293670
vn 0.708975 -0.641181 -0.293670
vn 0.293669 -0.641174 -0.708982
vn 0.293669 -0.641174 -0.708982
vn 0.293669 -0.641174 -0.708982
vn 0.293669 -0.641174 -0.708982
vn -0.293669 -0.641174 -0.708982
vn -0.293669 -0.641174 -0.708982
vn -0.293669 -0.641174 -0.708982
vn -0.293669 -0.641174 -0.708982
s off
f 67/99/1 66/100/2 68/11/3
f 69/101/4 67/99/5 68/11/6
f 70/102/7 69/101/8 68/11/9
f 71/103/10 70/102/11 68/11/12
f 72/104/13 71/103/14 68/11/15
f 73/105/16 72/104/17 68/11/18
f 74/106/19 73/105/20 68/11/21
f 66/100/22 74/106/23 68/11/24
f 9/18/25 10/19/26 17/20/27
f 10/19/28 11/21/29 17/20/30
f 11/21/31 12/22/32 17/20/33
f 12/22/34 13/23/35 17/20/36
f 13/23/37 14/24/38 17/20/39
f 14/24/40 15/25/41 17/20/42
f 15/25/43 16/26/44 17/20/45
f 16/26/46 9/18/47 17/20/48
f 1/10/49 2/9/50 19/2/51 18/1/52
f 2/9/53 3/12/54 20/3/55 19/2/56
f 3/12/57 4/13/58 21/4/59 20/3/60
f 4/13/61 5/14/62 22/5/63 21/4/64
f 5/14/65 6/15/66 23/6/67 22/5/68
f 6/15/69 7/16/70 24/7/71 23/6/72
f 7/16/73 8/17/74 25/8/75 24/7/76
f 8/17/77 1/10/78 18/1/79 25/8/80
f 10/19/81 9/18/82 26/27/83 27/28/84
f 19/2/85 29/29/86 28/30/87 18/1/88
f 11/21/89 10/19/90 27/28/91 30/31/92
f 20/3/93 31/32/94 29/29/95 19/2/96
f 12/22/97 11/21/98 30/31/99 32/33/100
f 21/4/101 33/34/102 31/32/103 20/3/104
f 13/23/105 12/22/106 32/33/107 34/35/108
f 22/5/109 35/36/110 33/34/111 21/4/112
f 14/24/113 13/23/114 34/35/115 36/37/116
f 23/6/117 37/38/118 35/36/119 22/5/120
f 15/25/121 14/24/122 36/37/123 38/39/124
f 24/7/125 39/40/126 37/38/127 23/6/128
f 16/26/129 15/25/130 38/39/131 40/41/132
f 25/8/133 41/42/134 39/40/135 24/7/136
f 9/18/137 16/26/138 40/41/139 26/27/140
f 18/1/141 28/30/142 41/42/143 25/8/144
f 27/28/145 26/27/146 42/95/147 43/97/148
f 50/45/149 51/46/150 52/47/151 53/70/152
f 30/31/153 27/28/154 43/97/155 44/93/156
f 51/46/157 54/50/158 55/51/159 52/47/160
f 32/33/161 30/31/162 44/93/163 45/89/164
f 54/50/165 56/53/166 57/54/167 55/51/168
f 34/35/169 32/33/170 45/89/171 46/85/172
f 56/53/173 58/56/174 59/57/175 57/54/176
f 36/37/177 34/35/178 46/85/179 47/81/180
f 58/56/181 60/59/182 61/60/183 59/57/184
f 38/39/185 36/37/186 47/81/187 48/77/188
f 60/59/189 62/62/190 63/63/191 61/60/192
f 40/41/193 38/39/194 48/77/195 49/73/196
f 62/62/197 64/65/198 65/66/199 63/63/200
f 26/27/201 40/41/202 49/73/203 42/95/204
f 64/65/205 50/45/206 53/70/207 65/66/208
f 28/30/209 29/29/210 51/46/211 50/45/212
f 43/44/213 42/96/214 53/69/215 52/91/216
f 29/29/217 31/32/218 54/50/219 51/46/220
f 44/49/221 43/98/222 52/92/223 55/87/224
f 31/32/225 33/34/226 56/53/227 54/50/228
f 45/52/229 44/94/230 55/88/231 57/83/232
f 33/34/233 35/36/234 58/56/235 56/53/236
f 46/55/237 45/90/238 57/84/239 59/79/240
f 35/36/241 37/38/242 60/59/243 58/56/244
f 47/58/245 46/86/246 59/80/247 61/75/248
f 37/38/249 39/40/250 62/62/251 60/59/252
f 48/61/253 47/82/254 61/76/255 63/71/256
f 39/40/257 41/42/258 64/65/259 62/62/260
f 49/64/261 48/78/262 63/72/263 65/67/264
f 41/42/265 28/30/266 50/45/267 64/65/268
f 42/43/269 49/74/270 65/68/271 53/48/272
f 2/9/273 1/10/274 66/100/275 67/99/276
f 3/12/277 2/9/278 67/99/279 69/101/280
f 4/13/281 3/12/282 69/101/283 70/102/284
f 5/14/285 4/13/286 70/102/287 71/103/288
f 6/15/289 5/14/290 71/103/291 72/104/292
f 7/16/293 6/15/294 72/104/295 73/105/296
f 8/17/297 7/16/298 73/105/299 74/106/300
f 1/10/301 8/17/302 74/106/303 66/100/304
