# This file uses meters as units for non-parametric coordinates.

v 6.428772 11.993368 12.376953
v 10.053711 11.993368 12.376953
v 11.866272 15.132708 12.376953
v 10.053711 18.271942 12.376953
v 6.428772 18.271942 12.376953
v 4.616272 15.132709 12.376953
v 6.577576 12.251227 13.992493
v 9.904907 12.251228 13.992493
v 11.568420 15.132710 13.992493
v 9.904907 18.014084 13.992493
v 6.577576 18.014084 13.992493
v 4.914185 15.132710 13.992493
v 8.241272 15.132709 13.992493
v -10.053711 11.993369 12.376953
v -6.428833 11.993369 12.376953
v -4.616333 15.132709 12.376953
v -6.428833 18.271942 12.376953
v -10.053711 18.271942 12.376953
v -11.866272 15.132709 12.376953
v -9.904968 12.251227 13.992493
v -6.577576 12.251227 13.992493
v -4.914063 15.132709 13.992493
v -6.577576 18.014084 13.992493
v -9.904968 18.014084 13.992493
v -11.568359 15.132709 13.992493
v -8.241211 15.132709 13.992493
v 13.184753 0.000000 -13.806641
v 13.184753 0.000000 12.562805
v 13.184753 26.369415 -13.806641
v 13.184753 26.369411 12.562805
v 13.184753 2.813221 -13.806641
v 13.184753 2.813221 12.562805
v 12.223145 3.726999 11.601257
v 12.223145 3.726999 -12.845093
v 13.184753 4.709146 12.562805
v 13.184753 4.709147 -13.806641
v 0.000000 0.000000 -13.806641
v 0.000000 2.813221 -13.806641
v 0.000000 3.726994 -12.845093
v 0.000000 4.709137 -13.806641
v 0.000000 26.369415 -13.806641
v 0.000000 26.369415 12.562805
v 0.000000 25.219296 12.562805
v 0.000000 22.972469 12.562805
v 0.000000 19.336716 12.562805
v 0.000000 10.814793 12.562805
v 0.000000 8.759878 12.562805
v 0.000000 6.130069 12.562805
v 0.000000 4.709137 12.562805
v 0.000000 3.726994 11.601257
v 0.000000 2.813221 12.562805
v 0.000000 0.000000 12.562805
v 11.866272 25.219297 12.562805
v 11.866272 22.972471 12.562805
v 11.866272 19.336721 12.562805
v 11.866272 10.814799 12.562805
v 11.866272 8.759887 12.562805
v 11.866272 6.130077 12.562805
v -13.184753 0.000000 -13.806641
v -13.184753 0.000000 12.562805
v -13.184753 26.369415 -13.806641
v -13.184753 26.369411 12.562805
v -13.184753 2.813221 -13.806641
v -13.184753 2.813221 12.562805
v -12.223145 3.726999 11.601257
v -12.223145 3.726999 -12.845093
v -13.184753 4.709146 12.562805
v -13.184753 4.709147 -13.806641
v -11.866272 25.219297 12.562805
v -11.866272 22.972471 12.562805
v -11.866272 19.336721 12.562805
v -11.866272 10.814799 12.562805
v -11.866272 8.759887 12.562805
v -11.866272 6.130077 12.562805
v 12.184265 27.790792 -12.806152
v 12.184265 27.790789 11.562317
v 0.000000 27.790792 -12.806152
v 0.000000 27.790792 11.562317
v -12.184265 27.790789 11.562317
v -12.184265 27.790792 -12.806152
v 4.920105 17.923153 12.562805
v 4.920105 16.430233 12.562805
v -4.920105 17.923153 12.562805
v -4.920105 16.430233 12.562805
v -0.462463 16.430233 12.562805
v -0.462463 17.923153 12.562805
v 0.462463 17.923153 12.562805
v 0.462463 16.430233 12.562805
v -2.378784 16.430233 12.562805
v -2.378784 17.923153 12.562805
v 2.378784 17.923153 12.562805
v 2.378784 16.430233 12.562805
v -3.002258 16.430233 12.562805
v -3.002258 17.923153 12.562805
v 3.002258 17.923153 12.562805
v 3.002258 16.430233 12.562805
v 7.776062 24.713396 12.562805
v 11.048523 24.713396 12.562805
v 7.776062 23.900314 12.562805
v 11.048523 23.900318 12.562805
v -10.919312 8.216587 12.562805
v -10.919312 7.264913 12.562805
v -7.646851 7.264910 12.562805
v -7.646851 8.216583 12.562805
vt 0.133900 0.379721
vt 0.133900 0.379721
vt 0.133900 0.379721
vt 0.133900 0.379721
vt 0.133900 0.379721
vt 0.133900 0.379721
vt 0.133900 0.379721
vt 0.133900 0.379721
vt 0.133900 0.379721
vt 0.133900 0.379721
vt 0.133900 0.379721
vt 0.133900 0.379721
vt 0.133900 0.379721
vt 0.133900 0.379721
vt 0.133900 0.379721
vt 0.133900 0.379721
vt 0.133900 0.379721
vt 0.133900 0.379721
vt 0.133900 0.379721
vt 0.133900 0.379721
vt 0.133900 0.379721
vt 0.133900 0.379721
vt 0.133900 0.379721
vt 0.133900 0.379721
vt 0.133900 0.379721
vt 0.133900 0.379721
vt 0.133900 0.379721
vt 0.133900 0.379721
vt 0.133900 0.379721
vt 0.133900 0.379721
vt 0.133900 0.379721
vt 0.133900 0.379721
vt 0.133900 0.379721
vt 0.133900 0.379721
vt 0.133900 0.379721
vt 0.133900 0.379721
vt 0.133900 0.379721
vt 0.133900 0.379721
vt 0.133900 0.379721
vt 0.133900 0.379721
vt 0.133900 0.379721
vt 0.133900 0.379721
vt 0.132403 0.305759
vt 0.132403 0.305759
vt 0.132403 0.305759
vt 0.132403 0.305759
vt 0.132403 0.305759
vt 0.132403 0.305759
vt 0.132403 0.305759
vt 0.132403 0.305759
vt 0.132403 0.305759
vt 0.132403 0.305759
vt 0.132403 0.305759
vt 0.132403 0.305759
vt 0.132403 0.305759
vt 0.132403 0.305759
vt 0.132403 0.305759
vt 0.132403 0.305759
vt 0.132403 0.305759
vt 0.132403 0.305759
vt 0.132403 0.305759
vt 0.132403 0.305759
vt 0.132403 0.305759
vt 0.132403 0.305759
vt 0.132403 0.305759
vt 0.132403 0.305759
vt 0.132403 0.305759
vt 0.099731 0.227468
vt 0.099731 0.227468
vt 0.099731 0.227468
vt 0.099731 0.227468
vt 0.132403 0.305759
vt 0.132403 0.305759
vt 0.132403 0.305759
vt 0.132403 0.305759
vt 0.099731 0.227469
vt 0.099731 0.227469
vt 0.099731 0.227469
vt 0.099731 0.227469
vt 0.132403 0.305759
vt 0.132403 0.305759
vt 0.132403 0.305759
vt 0.132403 0.305759
vt 0.099731 0.227469
vt 0.099731 0.227469
vt 0.099731 0.227469
vt 0.099731 0.227469
vt 0.132403 0.305759
vt 0.132403 0.305759
vt 0.132403 0.305759
vt 0.132403 0.305759
vt 0.132403 0.305759
vt 0.132403 0.305759
vt 0.132403 0.305759
vt 0.132403 0.305759
vt 0.132403 0.305759
vt 0.132403 0.305759
vt 0.132403 0.305759
vt 0.132403 0.305759
vt 0.132403 0.305759
vt 0.132403 0.305759
vt 0.132403 0.305759
vt 0.132403 0.305759
vt 0.132403 0.305759
vt 0.132403 0.305759
vt 0.132403 0.305759
vt 0.132403 0.305759
vt 0.132403 0.305759
vt 0.132403 0.305759
vt 0.132403 0.305759
vt 0.132403 0.305759
vt 0.132403 0.305759
vt 0.132403 0.305759
vt 0.132403 0.305759
vt 0.132403 0.305759
vt 0.132403 0.305759
vt 0.132403 0.305759
vt 0.132403 0.305759
vt 0.132403 0.305759
vt 0.132403 0.305759
vt 0.132403 0.305759
vt 0.132403 0.305759
vt 0.099731 0.227468
vt 0.099731 0.227468
vt 0.132403 0.305759
vt 0.132403 0.305759
vt 0.132403 0.305759
vt 0.132403 0.305759
vt 0.099731 0.227469
vt 0.099731 0.227469
vt 0.132403 0.305759
vt 0.132403 0.305759
vt 0.132403 0.305759
vt 0.132403 0.305759
vt 0.099731 0.227469
vt 0.099731 0.227469
vt 0.132403 0.305759
vt 0.132403 0.305759
vt 0.132403 0.305759
vt 0.132403 0.305759
vt 0.132403 0.305759
vt 0.132403 0.305759
vt 0.132403 0.305759
vt 0.132403 0.305759
vt 0.132403 0.305759
vt 0.132403 0.305759
vt 0.132403 0.305759
vt 0.132403 0.305759
vt 0.132403 0.305759
vt 0.132403 0.305759
vt 0.099731 0.227469
vt 0.099731 0.227469
vt 0.099731 0.227469
vt 0.099731 0.227469
vt 0.099731 0.227469
vt 0.099731 0.227469
vt 0.099731 0.227469
vt 0.099731 0.227469
vt 0.099731 0.227469
vt 0.099731 0.227469
vt 0.099731 0.227469
vt 0.099731 0.227469
vt 0.099731 0.227469
vt 0.099731 0.227469
vt 0.099731 0.227469
vt 0.099731 0.227469
vt 0.133545 0.379861
vt 0.133545 0.379861
vt 0.133545 0.379861
vt 0.133545 0.379861
vt 0.133545 0.379861
vt 0.133545 0.379861
vt 0.133545 0.379861
vt 0.133545 0.379861
vt 0.133545 0.379861
vt 0.133545 0.379861
vt 0.133545 0.379861
vt 0.133545 0.379861
vt 0.133545 0.379861
vt 0.133545 0.379861
vt 0.133545 0.379861
vt 0.133545 0.379861
vt 0.099731 0.227468
vt 0.099731 0.227468
vt 0.099731 0.227468
vt 0.099731 0.227468
vt 0.099731 0.227469
vt 0.099731 0.227469
vt 0.099731 0.227469
vt 0.099731 0.227469
vt 0.133423 0.379183
vt 0.133423 0.379183
vt 0.133423 0.379183
vt 0.133423 0.379183
vt 0.133423 0.379182
vt 0.133423 0.379182
vt 0.133423 0.379182
vt 0.133423 0.379182
vn 0.000000 -0.987500 0.157617
vn 0.000000 -0.987500 0.157617
vn 0.000000 -0.987500 0.157617
vn 0.000000 -0.987500 0.157617
vn 0.855202 -0.493744 0.157625
vn 0.855202 -0.493744 0.157625
vn 0.855202 -0.493744 0.157625
vn 0.855202 -0.493745 0.157625
vn 0.855195 0.493758 0.157624
vn 0.855195 0.493758 0.157624
vn 0.855195 0.493758 0.157624
vn 0.855195 0.493758 0.157624
vn 0.000000 0.987501 0.157615
vn 0.000000 0.987501 0.157615
vn 0.000000 0.987501 0.157615
vn 0.000000 0.987501 0.157615
vn -0.855204 0.493737 0.157640
vn -0.855204 0.493737 0.157640
vn -0.855204 0.493737 0.157640
vn -0.855204 0.493737 0.157640
vn -0.855211 -0.493723 0.157641
vn -0.855211 -0.493723 0.157641
vn -0.855211 -0.493723 0.157641
vn -0.855211 -0.493723 0.157641
vn 0.000000 0.000000 1.000000
vn 0.000000 0.000000 1.000000
vn 0.000000 0.000000 1.000000
vn 0.000000 0.000000 1.000000
vn 0.000000 0.000000 1.000000
vn 0.000000 0.000000 1.000000
vn 0.000000 0.000000 1.000000
vn 0.000000 0.000000 1.000000
vn 0.000000 0.000000 1.000000
vn 0.000000 0.000000 1.000000
vn 0.000000 0.000000 1.000000
vn 0.000000 0.000000 1.000000
vn -0.000001 0.000000 1.000000
vn -0.000001 0.000000 1.000000
vn -0.000001 0.000000 1.000000
vn 0.000000 0.000000 1.000000
vn 0.000000 0.000000 1.000000
vn 0.000000 0.000000 1.000000
vn 0.000000 -0.987500 0.157617
vn 0.000000 -0.987500 0.157617
vn 0.000000 -0.987500 0.157617
vn 0.000000 -0.987500 0.157617
vn 0.855213 -0.493742 0.157577
vn 0.855213 -0.493742 0.157577
vn 0.855213 -0.493742 0.157577
vn 0.855213 -0.493742 0.157577
vn 0.855205 0.493755 0.157577
vn 0.855205 0.493755 0.157577
vn 0.855205 0.493755 0.157577
vn 0.855205 0.493755 0.157577
vn 0.000000 0.987501 0.157616
vn 0.000000 0.987501 0.157616
vn 0.000000 0.987500 0.157616
vn 0.000000 0.987500 0.157616
vn -0.855202 0.493745 0.157624
vn -0.855202 0.493745 0.157624
vn -0.855202 0.493745 0.157624
vn -0.855202 0.493745 0.157624
vn -0.855210 -0.493731 0.157624
vn -0.855210 -0.493732 0.157624
vn -0.855210 -0.493732 0.157624
vn -0.855210 -0.493731 0.157624
vn 0.000000 0.000000 1.000000
vn 0.000000 0.000000 1.000000
vn 0.000000 0.000000 1.000000
vn 0.000000 0.000000 1.000000
vn 0.000000 0.000000 1.000000
vn 0.000000 0.000000 1.000000
vn 0.000000 0.000000 1.000000
vn 0.000000 0.000000 1.000000
vn 0.000000 0.000000 1.000000
vn 0.000000 0.000000 1.000000
vn 0.000000 0.000000 1.000000
vn 0.000000 0.000000 1.000000
vn 0.000000 0.000000 1.000000
vn 0.000000 0.000000 1.000000
vn 0.000000 0.000000 1.000000
vn 0.000000 0.000000 1.000000
vn 0.000000 0.000000 1.000000
vn 0.000000 0.000000 1.000000
vn 0.688848 0.724906 0.000000
vn 0.688848 0.724906 0.000000
vn 0.688848 0.724906 0.000000
vn 0.688848 0.724906 0.000000
vn 1.000000 0.000000 0.000000
vn 1.000000 0.000000 0.000000
vn 1.000000 0.000000 0.000000
vn 1.000000 0.000000 0.000000
vn 0.714539 -0.699596 -0.000000
vn 0.714539 -0.699596 -0.000000
vn 0.714539 -0.699596 -0.000000
vn 0.714539 -0.699596 -0.000000
vn 1.000000 0.000000 0.000000
vn 1.000000 0.000000 0.000000
vn 1.000000 0.000000 0.000000
vn 1.000000 0.000000 0.000000
vn 0.000000 0.000000 -1.000000
vn 0.000000 0.000000 -1.000000
vn 0.000000 0.000000 -1.000000
vn 0.000000 0.000000 -1.000000
vn -0.000000 0.724885 -0.688870
vn -0.000000 0.724885 -0.688870
vn -0.000000 0.724885 -0.688870
vn -0.000000 0.724885 -0.688870
vn 0.000000 -0.699574 -0.714560
vn 0.000000 -0.699574 -0.714560
vn 0.000000 -0.699574 -0.714560
vn 0.000000 -0.699574 -0.714560
vn 0.000000 0.000000 -1.000000
vn 0.000000 0.000000 -1.000000
vn 0.000000 0.000000 -1.000000
vn 0.000000 0.000000 -1.000000
vn 0.000000 1.000000 0.000000
vn 0.000000 1.000000 0.000000
vn 0.000000 1.000000 0.000000
vn 0.000000 1.000000 0.000000
vn 0.000000 0.000000 1.000000
vn 0.000000 0.000000 1.000000
vn 0.000000 0.000000 1.000000
vn 0.000000 0.000000 1.000000
vn 0.000000 0.000000 1.000000
vn 0.000000 0.000000 1.000000
vn 0.000000 0.000000 1.000000
vn 0.000000 0.000000 1.000000
vn 0.000000 0.000000 1.000000
vn 0.000000 0.000000 1.000000
vn 0.000000 0.000000 1.000000
vn 0.000000 0.000000 1.000000
vn 0.000000 0.000000 1.000000
vn 0.000000 0.000000 1.000000
vn 0.000000 0.000000 1.000000
vn 0.000000 0.000000 1.000000
vn 0.000000 0.000000 1.000000
vn 0.000000 0.000000 1.000000
vn 0.000000 0.000000 1.000000
vn 0.000000 0.000000 1.000000
vn 0.000000 0.000000 1.000000
vn 0.000000 0.000000 1.000000
vn 0.000000 0.000000 1.000000
vn 0.000000 0.000000 1.000000
vn -0.000000 0.000000 1.000000
vn -0.000000 0.000000 1.000000
vn -0.000000 0.000000 1.000000
vn -0.000000 0.000000 1.000000
vn 0.000000 -0.699574 0.714560
vn 0.000000 -0.699574 0.714560
vn 0.000000 -0.699574 0.714560
vn 0.000000 -0.699574 0.714560
vn -0.000000 0.724885 0.688870
vn -0.000000 0.724885 0.688870
vn -0.000000 0.724885 0.688870
vn -0.000000 0.724885 0.688870
vn 0.000000 0.000000 1.000000
vn 0.000000 0.000000 1.000000
vn 0.000000 0.000000 1.000000
vn 0.000000 0.000000 1.000000
vn 0.000000 -1.000000 0.000000
vn 0.000000 -1.000000 0.000000
vn 0.000000 -1.000000 0.000000
vn 0.000000 -1.000000 0.000000
vn 0.000000 0.000000 1.000000
vn 0.000000 0.000000 1.000000
vn 0.000000 0.000000 1.000000
vn 0.000000 0.000000 1.000000
vn 0.000000 0.000000 1.000000
vn 0.000000 0.000000 1.000000
vn 0.000000 0.000000 1.000000
vn 0.000000 0.000000 1.000000
vn 0.000000 0.000000 1.000000
vn 0.000000 0.000000 1.000000
vn 0.000003 0.000000 1.000000
vn 0.000003 0.000000 1.000000
vn 0.000003 0.000000 1.000000
vn 0.000000 0.000000 1.000000
vn 0.000000 0.000000 1.000000
vn 0.000000 0.000000 1.000000
vn -0.688848 0.724906 0.000000
vn -0.688848 0.724906 0.000000
vn -0.688848 0.724906 0.000000
vn -0.688848 0.724906 0.000000
vn -1.000000 0.000000 0.000000
vn -1.000000 0.000000 0.000000
vn -1.000000 0.000000 0.000000
vn -1.000000 0.000000 0.000000
vn -0.714539 -0.699596 -0.000000
vn -0.714539 -0.699596 -0.000000
vn -0.714539 -0.699596 -0.000000
vn -0.714539 -0.699596 -0.000000
vn -1.000000 0.000000 0.000000
vn -1.000000 0.000000 0.000000
vn -1.000000 0.000000 0.000000
vn -1.000000 0.000000 0.000000
vn 0.000000 0.000000 -1.000000
vn 0.000000 0.000000 -1.000000
vn 0.000000 0.000000 -1.000000
vn 0.000000 0.000000 -1.000000
vn 0.000000 0.724885 -0.688870
vn 0.000000 0.724885 -0.688870
vn 0.000000 0.724885 -0.688870
vn 0.000000 0.724885 -0.688870
vn -0.000000 -0.699574 -0.714560
vn -0.000000 -0.699574 -0.714560
vn -0.000000 -0.699574 -0.714560
vn -0.000000 -0.699574 -0.714560
vn 0.000000 0.000000 -1.000000
vn 0.000000 0.000000 -1.000000
vn 0.000000 0.000000 -1.000000
vn 0.000000 0.000000 -1.000000
vn -0.000000 1.000000 0.000000
vn -0.000000 1.000000 0.000000
vn -0.000000 1.000000 0.000000
vn -0.000000 1.000000 0.000000
vn 0.000000 0.000000 1.000000
vn 0.000000 0.000000 1.000000
vn 0.000000 0.000000 1.000000
vn 0.000000 0.000000 1.000000
vn 0.000000 0.000000 1.000000
vn 0.000000 0.000000 1.000000
vn 0.000000 0.000000 1.000000
vn 0.000000 0.000000 1.000000
vn -0.000000 0.000000 1.000000
vn -0.000000 0.000000 1.000000
vn -0.000000 0.000000 1.000000
vn -0.000000 0.000000 1.000000
vn 0.000000 0.000000 1.000000
vn 0.000000 0.000000 1.000000
vn 0.000000 0.000000 1.000000
vn 0.000000 0.000000 1.000000
vn 0.000000 0.000000 1.000000
vn 0.000000 0.000000 1.000000
vn 0.000000 0.000000 1.000000
vn 0.000000 0.000000 1.000000
vn -0.000000 0.000000 1.000000
vn -0.000000 0.000000 1.000000
vn -0.000000 0.000000 1.000000
vn -0.000000 0.000000 1.000000
vn 0.000000 0.000000 1.000000
vn 0.000000 0.000000 1.000000
vn 0.000000 0.000000 1.000000
vn 0.000000 0.000000 1.000000
vn -0.000000 -0.699574 0.714560
vn -0.000000 -0.699574 0.714560
vn -0.000000 -0.699574 0.714560
vn -0.000000 -0.699574 0.714560
vn 0.000000 0.724885 0.688870
vn 0.000000 0.724885 0.688870
vn 0.000000 0.724885 0.688870
vn 0.000000 0.724885 0.688870
vn 0.000000 0.000000 1.000000
vn 0.000000 0.000000 1.000000
vn 0.000000 0.000000 1.000000
vn 0.000000 0.000000 1.000000
vn 0.000000 -1.000000 0.000000
vn 0.000000 -1.000000 0.000000
vn 0.000000 -1.000000 0.000000
vn 0.000000 -1.000000 0.000000
vn 0.000001 0.000000 1.000000
vn 0.000001 0.000000 1.000000
vn 0.000001 0.000000 1.000000
vn -0.000002 0.000000 1.000000
vn -0.000002 0.000000 1.000000
vn -0.000002 0.000000 1.000000
vn 0.000000 0.000000 1.000000
vn 0.000000 0.000000 1.000000
vn 0.000000 0.000000 1.000000
vn 0.000000 0.000000 1.000000
vn 0.000000 0.000000 1.000000
vn 0.000000 0.000000 1.000000
vn 0.000000 0.000000 1.000000
vn 0.000000 0.000000 1.000000
vn 0.000000 0.000000 1.000000
vn 0.000000 0.000000 1.000000
vn 0.817736 0.575594 0.000000
vn 0.817736 0.575594 0.000000
vn 0.817736 0.575594 0.000000
vn 0.817736 0.575594 0.000000
vn 0.000000 0.575593 -0.817736
vn 0.000000 0.575593 -0.817736
vn 0.000000 0.575593 -0.817736
vn 0.000000 0.575593 -0.817736
vn 0.000000 0.575594 0.817736
vn 0.000000 0.575594 0.817736
vn 0.000000 0.575594 0.817736
vn 0.000000 0.575594 0.817736
vn -0.000000 0.575594 0.817736
vn -0.000000 0.575594 0.817736
vn -0.000000 0.575594 0.817736
vn -0.000000 0.575594 0.817736
vn 0.000000 0.575593 -0.817736
vn 0.000000 0.575593 -0.817736
vn 0.000000 0.575593 -0.817736
vn 0.000000 0.575593 -0.817736
vn -0.817736 0.575594 0.000000
vn -0.817736 0.575594 0.000000
vn -0.817736 0.575594 0.000000
vn -0.817736 0.575594 0.000000
vn 0.000000 0.000000 1.000000
vn 0.000000 0.000000 1.000000
vn 0.000000 0.000000 1.000000
vn 0.000000 0.000000 1.000000
vn 0.000000 0.000000 1.000000
vn 0.000000 0.000000 1.000000
vn 0.000000 0.000000 1.000000
vn 0.000000 0.000000 1.000000
vn 0.000000 0.000000 1.000000
vn 0.000000 0.000000 1.000000
vn 0.000000 0.000000 1.000000
vn 0.000000 0.000000 1.000000
vn 0.000000 0.000000 1.000000
vn 0.000000 0.000000 1.000000
vn 0.000000 0.000000 1.000000
vn 0.000000 0.000000 1.000000
vn 0.000000 0.000000 1.000000
vn 0.000000 0.000000 1.000000
vn 0.000000 0.000000 1.000000
vn 0.000000 0.000000 1.000000
vn 0.000000 0.000000 1.000000
vn 0.000000 0.000000 1.000000
vn 0.000000 0.000000 1.000000
vn 0.000000 0.000000 1.000000
vn 0.000000 0.000000 1.000000
vn 0.000000 0.000000 1.000000
vn 0.000000 0.000000 1.000000
vn 0.000000 0.000000 1.000000
vn 0.000000 0.000000 1.000000
vn 0.000000 0.000000 1.000000
vn 0.000000 0.000000 1.000000
vn 0.000000 0.000000 1.000000
vn 0.000000 0.000000 1.000000
vn 0.000000 0.000000 1.000000
vn 0.000000 0.000000 1.000000
vn 0.000000 0.000000 1.000000
vn 0.000000 0.000000 1.000000
vn 0.000000 0.000000 1.000000
vn 0.000000 0.000000 1.000000
vn 0.000000 0.000000 1.000000
vn 0.000000 0.000000 1.000000
vn 0.000000 0.000000 1.000000
vn 0.000000 0.000000 1.000000
vn 0.000000 0.000000 1.000000
vn 0.000000 0.000000 1.000000
vn 0.000000 0.000000 1.000000
vn 0.000000 0.000000 1.000000
vn 0.000000 0.000000 1.000000
vn 0.000000 0.000000 1.000000
vn 0.000000 0.000000 1.000000
vn 0.000000 0.000000 1.000000
vn 0.000000 0.000000 1.000000
vn 0.000000 0.000000 1.000000
vn 0.000000 0.000000 1.000000
vn 0.000000 0.000000 1.000000
vn 0.000000 0.000000 1.000000
vn 0.000000 0.000000 1.000000
vn 0.000000 0.000000 1.000000
vn -0.000000 0.000000 1.000000
vn -0.000000 0.000000 1.000000
vn -0.000000 0.000000 1.000000
vn -0.000000 0.000000 1.000000
vn 0.000000 0.000000 1.000000
vn 0.000000 0.000000 1.000000
vn 0.000000 0.000000 1.000000
vn 0.000000 0.000000 1.000000
vn 0.000000 0.000000 1.000000
vn 0.000000 0.000000 1.000000
vn 0.000000 0.000000 1.000000
vn 0.000000 0.000000 1.000000
vn 0.000000 0.000000 1.000000
vn 0.000000 0.000000 1.000000
vn 0.000000 0.000000 1.000000
vn 0.000000 0.000000 1.000000
vn 0.000000 0.000000 1.000000
vn 0.000000 0.000000 1.000000
vn 0.000000 0.000000 1.000000
vn 0.000000 0.000000 1.000000
vn -0.000000 0.000000 1.000000
vn -0.000000 0.000000 1.000000
vn -0.000000 0.000000 1.000000
vn -0.000000 0.000000 1.000000
vn 0.000000 0.000000 1.000000
vn 0.000000 0.000000 1.000000
vn 0.000000 0.000000 1.000000
vn 0.000000 0.000000 1.000000
vn 0.000000 0.000000 1.000000
vn 0.000000 0.000000 1.000000
vn 0.000000 0.000000 1.000000
vn 0.000000 0.000000 1.000000
vn 0.000000 0.000000 1.000000
vn 0.000000 0.000000 1.000000
vn 0.000000 0.000000 1.000000
vn 0.000000 0.000000 1.000000
vn 0.000000 0.000000 1.000000
vn 0.000000 0.000000 1.000000
vn 0.000000 0.000000 1.000000
vn 0.000000 0.000000 1.000000
vn -0.000000 0.000000 1.000000
vn -0.000000 0.000000 1.000000
vn -0.000000 0.000000 1.000000
vn -0.000000 0.000000 1.000000
vn 0.000000 0.000000 1.000000
vn 0.000000 0.000000 1.000000
vn 0.000000 0.000000 1.000000
vn 0.000000 0.000000 1.000000
s off
f 1/1/1 2/2/2 8/9/3 7/8/4
f 2/2/5 3/3/6 9/10/7 8/9/8
f 3/3/9 4/4/10 10/11/11 9/10/12
f 4/4/13 5/5/14 11/12/15 10/11/16
f 5/5/17 6/6/18 12/13/19 11/12/20
f 6/6/21 1/7/22 7/14/23 12/13/24
f 7/19/25 8/18/26 13/21/27
f 8/18/28 9/17/29 13/21/30
f 9/17/31 10/16/32 13/21/33
f 10/16/34 11/15/35 13/21/36
f 11/15/37 12/20/38 13/21/39
f 12/20/40 7/19/41 13/21/42
f 14/22/43 15/23/44 21/24/45 20/25/46
f 15/23/47 16/26/48 22/27/49 21/24/50
f 16/26/51 17/28/52 23/29/53 22/27/54
f 17/28/55 18/30/56 24/31/57 23/29/58
f 18/30/59 19/32/60 25/33/61 24/31/62
f 19/32/63 14/34/64 20/35/65 25/33/66
f 20/36/67 21/37/68 26/38/69
f 21/37/70 22/39/71 26/38/72
f 22/39/73 23/40/74 26/38/75
f 23/40/76 24/41/77 26/38/78
f 24/41/79 25/42/80 26/38/81
f 25/42/82 20/36/83 26/38/84
f 31/43/85 34/44/86 33/45/87 32/46/88
f 27/47/89 31/43/90 32/46/91 28/48/92
f 34/44/93 36/49/94 35/50/95 33/45/96
f 36/51/97 29/52/98 30/53/99 35/54/100
f 38/55/101 31/43/102 27/47/103 37/56/104
f 39/57/105 34/44/106 31/43/107 38/55/108
f 40/58/109 36/49/110 34/44/111 39/57/112
f 41/59/113 29/52/114 36/51/115 40/60/116
f 76/61/117 75/62/118 77/63/119 78/64/120
f 30/53/121 42/65/122 43/66/123 53/67/124
f 98/191/125 97/192/126 99/193/127 100/194/128
f 54/72/129 44/73/130 45/74/131 55/75/132
f 81/167/133 95/168/134 96/169/135 82/170/136
f 56/80/137 46/81/138 47/82/139 57/83/140
f 57/84/141 47/85/142 48/86/143 58/87/144
f 58/88/145 48/89/146 49/90/147 35/50/148
f 50/91/149 33/45/150 35/50/151 49/90/152
f 51/92/153 32/46/154 33/45/155 50/91/156
f 52/93/157 28/48/158 32/46/159 51/92/160
f 27/94/161 28/95/162 52/96/163 37/97/164
f 30/53/165 53/67/166 54/72/167
f 30/53/168 54/72/169 55/75/170
f 35/54/171 30/53/172 55/75/173 56/80/174
f 35/54/175 56/80/176 57/83/177
f 35/54/178 57/83/179 58/88/180
f 63/98/181 64/99/182 65/100/183 66/101/184
f 59/102/185 60/103/186 64/99/187 63/98/188
f 66/101/189 65/100/190 67/104/191 68/105/192
f 68/106/193 67/107/194 62/108/195 61/109/196
f 38/110/197 37/111/198 59/102/199 63/98/200
f 39/112/201 38/110/202 63/98/203 66/101/204
f 40/113/205 39/112/206 66/101/207 68/105/208
f 41/114/209 40/115/210 68/106/211 61/109/212
f 79/116/213 78/117/214 77/118/215 80/119/216
f 62/108/217 69/120/218 43/121/219 42/122/220
f 69/123/221 70/124/222 44/70/223 43/69/224
f 70/125/225 71/126/226 45/127/227 44/128/228
f 83/171/229 84/172/230 93/173/231 94/174/232
f 72/131/233 73/132/234 47/133/235 46/134/236
f 101/195/237 102/196/238 103/197/239 104/198/240
f 74/137/241 67/104/242 49/138/243 48/139/244
f 50/140/245 49/138/246 67/104/247 65/100/248
f 51/141/249 50/140/250 65/100/251 64/99/252
f 52/142/253 51/141/254 64/99/255 60/103/256
f 59/143/257 37/144/258 52/145/259 60/146/260
f 62/108/261 70/125/262 69/120/263
f 62/108/264 71/126/265 70/125/266
f 67/107/267 72/131/268 71/126/269 62/108/270
f 67/107/271 73/132/272 72/131/273
f 67/107/274 74/137/275 73/132/276
f 30/53/277 29/52/278 75/62/279 76/61/280
f 29/52/281 41/147/282 77/63/283 75/62/284
f 42/148/285 30/53/286 76/61/287 78/64/288
f 62/108/289 42/149/290 78/117/291 79/116/292
f 41/150/293 61/109/294 80/119/295 77/118/296
f 61/109/297 62/108/298 79/116/299 80/119/300
f 55/76/301 95/165/302 81/151/303
f 96/166/304 56/79/305 82/152/306
f 56/79/307 55/76/308 81/151/309 82/152/310
f 71/129/311 72/130/312 84/154/313 83/153/314
f 72/130/315 93/163/316 84/154/317
f 94/164/318 71/129/319 83/153/320
f 85/155/321 46/78/322 88/158/323
f 86/156/324 87/157/325 45/77/326
f 85/155/327 88/158/328 87/157/329 86/156/330
f 89/159/331 46/78/332 85/155/333
f 90/175/334 89/176/335 85/177/336 86/178/337
f 45/77/338 90/160/339 86/156/340
f 91/161/341 45/77/342 87/157/343
f 92/179/344 91/180/345 87/181/346 88/182/347
f 46/78/348 92/162/349 88/158/350
f 72/130/351 46/78/352 89/159/353 93/163/354
f 94/164/355 93/163/356 89/159/357 90/160/358
f 45/77/359 71/129/360 94/164/361 90/160/362
f 55/76/363 45/77/364 91/161/365 95/165/366
f 96/166/367 95/165/368 91/161/369 92/162/370
f 46/78/371 56/79/372 96/166/373 92/162/374
f 53/68/375 43/69/376 97/184/377 98/183/378
f 43/69/379 44/70/380 99/185/381 97/184/382
f 44/70/383 54/71/384 100/186/385 99/185/386
f 54/71/387 53/68/388 98/183/389 100/186/390
f 73/135/391 74/136/392 102/188/393 101/187/394
f 74/136/395 48/86/396 103/189/397 102/188/398
f 48/86/399 47/85/400 104/190/401 103/189/402
f 47/85/403 73/135/404 101/187/405 104/190/406
