# This file uses meters as units for non-parametric coordinates.

v -41.511719 69.582367 -12.223633
v -41.511719 69.582367 12.559082
v 41.511841 69.582367 -12.223633
v 41.511841 69.582367 12.559082
v 41.511841 66.415466 12.559082
v -41.511719 66.415466 12.559082
v 41.511841 66.415466 -12.223633
v -41.511719 66.415466 -12.223633
v -41.511719 36.560234 -12.223633
v -41.511719 36.560234 12.559082
v 41.511841 36.560234 -12.223633
v 41.511841 36.560234 12.559082
v 41.511841 33.393341 12.559082
v -41.511719 33.393341 12.559082
v 41.511841 33.393341 -12.223633
v -41.511719 33.393341 -12.223633
v -44.391357 0.000000 -14.627197
v -44.391357 0.000000 14.627197
v -44.391357 102.604492 -14.627197
v -44.391357 102.604492 14.627197
v 44.391357 102.604492 -14.627197
v 44.391357 102.604492 14.627197
v 44.391357 0.000000 -14.627197
v 44.391357 0.000000 14.627197
v 41.511841 3.166895 14.627197
v -41.511841 3.166895 14.627197
v 41.511841 99.437599 14.627197
v -41.511841 99.437599 14.627197
v 41.511841 3.166895 -12.223511
v -41.511841 3.166895 -12.223511
v 41.511841 99.437599 -12.223511
v -41.511841 99.437599 -12.223511
v -37.307861 102.604492 14.627197
v -9.268677 102.604492 14.627197
v -24.045532 102.604492 9.878418
v -24.651855 101.058640 14.627197
v -2.353516 102.604492 14.627197
v 7.609375 102.604492 14.627197
v 2.635376 102.604492 12.563843
v 2.111084 101.164017 14.627197
v 6.432007 102.604492 -14.627197
v 37.013794 102.604492 -14.627197
v 23.758789 102.604492 -10.937622
v 24.219238 101.194855 -14.627197
v 4.059204 36.560234 12.559082
v 26.725464 36.560234 12.559082
v 18.027832 36.560234 9.494141
v 16.563110 34.957664 12.559082
v -44.391479 10.062208 14.627197
v -44.391479 31.193203 14.627197
v -44.391357 20.419422 12.734009
v -42.872070 20.777374 14.627197
v 44.391357 64.732460 14.627197
v 44.391357 53.741669 14.627197
v 42.569336 59.314102 14.627197
v 44.391357 60.628937 11.050659
vt 0.025850 0.307133
vt 0.025850 0.307133
vt 0.025850 0.307133
vt 0.025850 0.307133
vt 0.025850 0.307133
vt 0.025850 0.307133
vt 0.025850 0.307133
vt 0.025850 0.307133
vt 0.025850 0.307133
vt 0.025850 0.307133
vt 0.025850 0.307133
vt 0.025850 0.307133
vt 0.025850 0.307133
vt 0.025850 0.307133
vt 0.025850 0.307133
vt 0.025850 0.307133
vt 0.025850 0.307133
vt 0.025850 0.307133
vt 0.025850 0.307133
vt 0.025850 0.307133
vt 0.025850 0.307133
vt 0.025850 0.307133
vt 0.025850 0.307133
vt 0.025850 0.307133
vt 0.025850 0.307133
vt 0.025850 0.307133
vt 0.025850 0.307133
vt 0.025850 0.307133
vt 0.025850 0.307133
vt 0.025850 0.307133
vt 0.025850 0.307133
vt 0.025850 0.307133
vt 0.025850 0.307133
vt 0.025850 0.307133
vt 0.025850 0.307133
vt 0.025850 0.307133
vt 0.025850 0.307133
vt 0.025850 0.307133
vt 0.025850 0.307133
vt 0.025850 0.307133
vt 0.025850 0.307133
vt 0.025850 0.307133
vt 0.025850 0.307133
vt 0.025850 0.307133
vt 0.025850 0.307133
vt 0.025850 0.307133
vt 0.025850 0.307133
vt 0.025850 0.307133
vt 0.025850 0.307133
vt 0.025850 0.307133
vt 0.025850 0.307133
vt 0.025850 0.307133
vt 0.025850 0.307133
vt 0.025850 0.307133
vt 0.025850 0.307133
vt 0.025850 0.307133
vt 0.025850 0.307133
vt 0.025850 0.307133
vt 0.025850 0.307133
vt 0.025850 0.307133
vt 0.025850 0.307133
vt 0.025850 0.307133
vt 0.025850 0.307133
vt 0.025850 0.307133
vt 0.025850 0.307133
vt 0.025850 0.307133
vt 0.025850 0.307133
vt 0.025850 0.307133
vt 0.025850 0.307133
vt 0.025850 0.307133
vt 0.025850 0.307133
vt 0.025850 0.307133
vt 0.025850 0.307133
vt 0.025850 0.307133
vt 0.025850 0.307133
vt 0.025850 0.307133
vt 0.025850 0.307133
vt 0.025850 0.307133
vt 0.025850 0.307133
vn 0.000000 1.000000 0.000000
vn 0.000000 1.000000 0.000000
vn 0.000000 1.000000 0.000000
vn 0.000000 1.000000 0.000000
vn 0.000000 0.000000 1.000000
vn 0.000000 0.000000 1.000000
vn 0.000000 0.000000 1.000000
vn 0.000000 0.000000 1.000000
vn 0.000000 -1.000000 0.000000
vn 0.000000 -1.000000 0.000000
vn 0.000000 -1.000000 0.000000
vn 0.000000 -1.000000 0.000000
vn 0.000000 1.000000 0.000000
vn 0.000000 1.000000 0.000000
vn 0.000000 1.000000 0.000000
vn 0.000000 0.000000 1.000000
vn 0.000000 0.000000 1.000000
vn 0.000000 0.000000 1.000000
vn 0.000000 0.000000 1.000000
vn 0.000000 -1.000000 0.000000
vn 0.000000 -1.000000 0.000000
vn 0.000000 -1.000000 0.000000
vn 0.000000 -1.000000 0.000000
vn -1.000000 0.000000 0.000000
vn -1.000000 0.000000 0.000000
vn -1.000000 0.000000 0.000000
vn 0.000000 1.000000 0.000000
vn 0.000000 1.000000 0.000000
vn 0.000000 1.000000 0.000000
vn 0.000000 1.000000 0.000000
vn 1.000000 0.000000 0.000000
vn 1.000000 0.000000 0.000000
vn 1.000000 0.000000 0.000000
vn 1.000000 0.000000 0.000000
vn 0.000000 -1.000000 0.000000
vn 0.000000 -1.000000 0.000000
vn 0.000000 -1.000000 0.000000
vn 0.000000 -1.000000 0.000000
vn 0.000000 0.000000 1.000000
vn 0.000000 0.000000 1.000000
vn 0.000000 0.000000 1.000000
vn 0.000000 0.000000 1.000000
vn 0.000000 0.000000 -1.000000
vn 0.000000 0.000000 -1.000000
vn 0.000000 0.000000 -1.000000
vn 0.000000 0.000000 -1.000000
vn 0.000000 0.000000 1.000000
vn 0.000000 0.000000 1.000000
vn 0.000000 0.000000 1.000000
vn 0.000000 0.000000 1.000000
vn 0.000000 0.000000 1.000000
vn 0.000000 0.000000 1.000000
vn 0.000000 0.000000 1.000000
vn 0.000000 0.000000 1.000000
vn 0.000000 0.000000 1.000000
vn 0.000000 0.000000 1.000000
vn 0.000000 0.000000 1.000000
vn 0.000000 0.000000 1.000000
vn -0.000002 0.000000 1.000000
vn -0.000002 0.000000 1.000000
vn -0.000002 0.000000 1.000000
vn 0.000000 1.000000 0.000000
vn 0.000000 1.000000 0.000000
vn 0.000000 1.000000 0.000000
vn 0.000000 1.000000 0.000000
vn -1.000000 0.000000 0.000000
vn -1.000000 0.000000 0.000000
vn -1.000000 0.000000 0.000000
vn -1.000000 0.000000 0.000000
vn 0.000000 -1.000000 0.000000
vn 0.000000 -1.000000 0.000000
vn 0.000000 -1.000000 0.000000
vn 0.000000 -1.000000 0.000000
vn 1.000000 0.000000 0.000000
vn 1.000000 0.000000 0.000000
vn 1.000000 0.000000 0.000000
vn 1.000000 0.000000 0.000000
vn 0.114838 0.940187 0.320720
vn 0.114838 0.940187 0.320720
vn 0.114838 0.940187 0.320720
vn -0.095472 0.950067 0.297081
vn -0.095472 0.950067 0.297081
vn -0.095472 0.950067 0.297081
vn 0.246540 0.764126 0.596096
vn 0.246540 0.764125 0.596096
vn 0.246540 0.764126 0.596096
vn -0.216267 0.825490 0.521340
vn -0.216267 0.825490 0.521340
vn -0.216267 0.825490 0.521340
vn -0.101909 0.924973 -0.366114
vn -0.101909 0.924973 -0.366114
vn -0.101909 0.924973 -0.366114
vn 0.074069 0.934624 -0.347839
vn 0.074069 0.934624 -0.347840
vn 0.074069 0.934624 -0.347839
vn 0.109997 0.858243 0.501317
vn 0.109997 0.858243 0.501317
vn 0.109997 0.858243 0.501317
vn -0.142472 0.903459 0.404307
vn -0.142472 0.903459 0.404307
vn -0.142472 0.903459 0.404307
vn -0.785237 0.111346 0.609102
vn -0.785237 0.111346 0.609101
vn -0.785237 0.111346 0.609102
vn -0.764649 -0.111543 0.634721
vn -0.764649 -0.111543 0.634721
vn -0.764649 -0.111543 0.634721
vn -0.000000 0.000000 -1.000000
vn -0.000000 0.000000 -1.000000
vn -0.000000 0.000000 -1.000000
vn -0.000000 0.000000 -1.000000
vn 0.000000 0.000000 -1.000000
vn 0.000000 0.000000 -1.000000
vn 0.000000 0.000000 -1.000000
vn 0.000000 1.000000 0.000000
vn 0.000000 1.000000 0.000000
vn 0.000000 1.000000 0.000000
vn 0.000000 1.000000 0.000000
vn 0.000000 1.000000 -0.000000
vn 0.000000 1.000000 -0.000000
vn 0.000000 1.000000 -0.000000
vn 0.000000 1.000000 -0.000000
vn 0.000000 1.000000 -0.000000
vn 0.000000 1.000000 -0.000001
vn 0.000000 1.000000 -0.000001
vn 0.000000 1.000000 -0.000001
vn 0.000000 1.000000 0.000000
vn 0.000000 1.000000 0.000000
vn 0.000000 1.000000 0.000000
vn 0.000000 1.000000 0.000000
vn 0.000000 1.000000 0.000001
vn 0.000000 1.000000 0.000001
vn 0.000000 1.000000 0.000001
vn 0.000000 0.000000 1.000000
vn 0.000000 0.000000 1.000000
vn 0.000000 0.000000 1.000000
vn 0.000000 0.000000 1.000000
vn 0.000000 0.000000 1.000000
vn 0.000000 0.000000 1.000000
vn 0.000000 0.000000 1.000000
vn 0.000000 0.000000 1.000000
vn 0.000000 0.000000 1.000000
vn 0.000000 0.000000 1.000000
vn 0.000000 0.000000 1.000000
vn 0.000000 0.000000 1.000000
vn 0.000000 1.000000 0.000000
vn 0.000000 1.000000 0.000000
vn 0.000000 1.000000 0.000000
vn 0.000000 1.000000 0.000000
vn 0.000000 1.000000 0.000000
vn 0.000000 1.000000 0.000000
vn 0.000000 1.000000 0.000000
vn 0.000000 1.000000 0.000000
vn 0.000000 0.000000 1.000000
vn 0.000000 0.000000 1.000000
vn 0.000000 0.000000 1.000000
vn 0.000000 0.000000 1.000000
vn 0.000000 0.000000 1.000000
vn 0.000000 0.000000 1.000000
vn 0.000000 0.000000 1.000000
vn -0.000000 0.000000 1.000000
vn -0.000000 0.000000 1.000000
vn -0.000000 0.000000 1.000000
vn -0.000000 0.000000 1.000000
vn 0.000000 0.000000 1.000000
vn 0.000000 0.000000 1.000000
vn 0.000000 0.000000 1.000000
vn 0.000000 0.000000 1.000000
vn -1.000000 0.000000 -0.000004
vn -1.000000 0.000000 -0.000004
vn -1.000000 0.000000 -0.000004
vn -1.000000 0.000000 -0.000004
vn -1.000000 0.000000 -0.000004
vn -1.000000 0.000000 -0.000004
vn -1.000000 0.000000 -0.000004
vn -1.000000 0.000000 -0.000004
vn 0.890189 -0.299343 0.343449
vn 0.890189 -0.299343 0.343449
vn 0.890189 -0.299343 0.343449
vn 0.815584 0.266672 0.513525
vn 0.815584 0.266672 0.513525
vn 0.815584 0.266672 0.513525
vn 0.000000 0.000000 1.000000
vn 0.000000 0.000000 1.000000
vn 0.000000 0.000000 1.000000
vn 0.000000 0.000000 1.000000
vn 0.000000 0.000000 1.000000
vn 0.000000 0.000000 1.000000
vn 0.000000 0.000000 1.000000
vn 1.000000 -0.000000 0.000000
vn 1.000000 -0.000000 0.000000
vn 1.000000 -0.000000 0.000000
vn 1.000000 -0.000000 0.000000
vn 1.000000 0.000000 0.000000
vn 1.000000 0.000000 0.000000
vn 1.000000 0.000000 0.000000
s off
f 1/1/1 2/2/2 4/3/3 3/4/4
f 4/5/5 2/2/6 6/6/7 5/7/8
f 5/7/9 6/6/10 8/8/11 7/9/12
f 9/10/13 47/66/14 11/13/15
f 14/15/16 48/67/17 45/63/18 10/11/19
f 13/16/20 14/15/21 16/17/22 15/18/23
f 17/19/24 51/71/25 19/22/26
f 43/59/27 39/52/28 38/50/29 22/23/30
f 23/26/31 56/78/32 54/75/33 24/25/34
f 23/26/35 24/25/36 18/27/37 17/28/38
f 30/29/39 29/30/40 31/31/41 32/32/42
f 23/33/43 44/60/44 42/57/45 21/34/46
f 18/20/47 24/35/48 25/36/49 26/37/50
f 27/39/51 55/77/52 53/74/53 22/38/54
f 28/40/55 36/46/56 33/42/57 20/21/58
f 28/40/59 52/72/60 26/37/61
f 26/37/62 25/36/63 29/30/64 30/29/65
f 25/36/66 27/39/67 31/31/68 29/30/69
f 27/39/70 28/40/71 32/32/72 31/31/73
f 28/40/74 26/37/75 30/29/76 32/32/77
f 36/47/78 35/45/79 33/41/80
f 34/43/81 35/45/82 36/47/83
f 40/54/84 39/52/85 37/48/86
f 38/50/87 39/52/88 40/54/89
f 44/61/90 43/59/91 42/58/92
f 41/56/93 43/59/94 44/61/95
f 48/68/96 47/66/97 45/62/98
f 46/64/99 47/66/100 48/68/101
f 52/72/102 51/71/103 49/69/104
f 50/70/105 51/71/106 52/72/107
f 44/60/108 17/19/109 19/22/110 41/55/111
f 23/33/112 17/19/113 44/60/114
f 43/59/115 22/23/116 21/24/117 42/58/118
f 41/56/119 35/45/120 34/43/121 37/48/122 39/52/123
f 41/56/124 39/52/125 43/59/126
f 19/22/127 20/21/128 33/41/129 35/45/130
f 19/22/131 35/45/132 41/56/133
f 36/46/134 40/53/135 37/49/136 34/44/137
f 22/38/138 38/51/139 40/53/140 27/39/141
f 27/39/142 40/53/143 36/46/144 28/40/145
f 9/10/146 10/11/147 45/62/148 47/66/149
f 11/13/150 47/66/151 46/64/152 12/12/153
f 12/14/154 46/65/155 48/67/156 13/16/157
f 13/16/158 48/67/159 14/15/160
f 20/21/161 50/70/162 52/72/163 28/40/164
f 26/37/165 52/72/166 49/69/167 18/20/168
f 17/19/169 18/20/170 49/69/171 51/71/172
f 19/22/173 51/71/174 50/70/175 20/21/176
f 53/74/177 55/77/178 56/79/179
f 56/79/180 55/77/181 54/76/182
f 24/35/183 54/76/184 55/77/185 25/36/186
f 25/36/187 55/77/188 27/39/189
f 21/24/190 22/23/191 53/73/192 56/78/193
f 21/24/194 56/78/195 23/26/196
