# This file uses meters as units for non-parametric coordinates.

v -25.000061 40.968189 30.178955
v 24.999939 40.968189 30.178955
v -25.000061 47.901756 30.178955
v 24.999939 47.901756 30.178955
v -25.000061 47.901756 -19.821045
v 24.999939 47.901756 -19.821045
v -25.000061 40.968189 -19.821045
v 24.999939 40.968189 -19.821045
v -27.681213 49.944031 31.740479
v 27.681091 49.944031 31.740479
v 24.291199 49.231651 -20.015869
v -24.291321 49.231651 -20.015869
v -26.956116 53.931564 31.015625
v 26.955994 53.931564 31.015625
v 23.654724 52.385681 -19.291016
v -23.654846 52.385681 -19.291016
v -18.187805 56.167049 25.424316
v 18.187683 56.167049 25.424316
v 17.525574 55.592171 -11.139404
v -17.525696 55.592171 -11.139404
v 24.999939 40.968189 22.972656
v -25.000061 40.968189 22.972656
v 17.793640 40.968189 30.178955
v 17.793640 40.968189 22.972656
v -17.793762 40.968189 30.178955
v -17.793762 40.968189 22.972656
v -25.000061 0.000000 30.178955
v -17.793762 0.000000 30.178955
v -25.000061 0.000000 22.972656
v -17.793762 0.000000 22.972656
v 17.793640 0.000000 30.178955
v 24.999939 0.000000 30.178955
v 17.793640 0.000000 22.972656
v 24.999939 0.000000 22.972656
v -19.083801 0.000011 -20.313477
v -26.290100 0.000011 -20.313477
v -19.083801 32.155167 -13.893311
v -26.290100 32.155167 -13.893311
v -19.083801 32.155167 -21.099365
v -26.290100 32.155167 -21.099365
v -19.083801 0.000011 -27.519775
v -26.290100 0.000011 -27.519775
v -19.083801 56.737598 -13.893311
v -26.290100 56.737598 -13.893311
v -26.290100 56.737598 -21.099365
v -19.083801 56.737598 -21.099365
v -19.083801 113.430786 -26.003662
v -26.290100 113.430786 -26.003662
v -26.290100 111.747772 -33.010498
v -19.083801 111.747772 -33.010498
v 19.083679 0.000011 -20.313477
v 26.289978 0.000011 -20.313477
v 19.083679 32.155167 -13.893311
v 26.289978 32.155167 -13.893311
v 19.083679 32.155167 -21.099365
v 26.289978 32.155167 -21.099365
v 19.083679 0.000011 -27.519775
v 26.289978 0.000011 -27.519775
v 19.083679 56.737598 -13.893311
v 26.289978 56.737598 -13.893311
v 26.289978 56.737598 -21.099365
v 19.083679 56.737598 -21.099365
v 19.083679 113.430786 -26.003662
v 26.289978 113.430786 -26.003662
v 26.289978 111.747772 -33.010498
v 19.083679 111.747772 -33.010498
v -9.593079 70.078781 -19.051514
v -9.555237 69.934715 -22.232910
v 9.555115 69.934715 -22.232910
v 9.592957 70.078781 -19.051514
v -9.588684 109.616211 -27.681641
v 9.588562 109.616211 -27.681641
v 9.555359 108.434059 -30.740967
v -9.555481 108.434059 -30.740967
v -19.148254 110.359245 -26.528564
v -19.103333 108.944138 -31.068115
v -19.148987 69.597229 -17.759033
v -19.104065 69.418861 -22.445068
v 19.148865 69.597229 -17.759033
v 19.148132 110.359245 -26.528564
v 19.103943 69.418861 -22.445068
v 19.103210 108.944138 -31.068115
vt 0.004947 0.328657
vt 0.004947 0.328657
vt 0.004947 0.328657
vt 0.004947 0.328657
vt 0.004947 0.328657
vt 0.004947 0.328657
vt 0.004947 0.328657
vt 0.004947 0.328657
vt 0.004947 0.328657
vt 0.004947 0.328657
vt 0.004947 0.328657
vt 0.004947 0.328657
vt 0.039149 0.353277
vt 0.039149 0.353277
vt 0.039149 0.353277
vt 0.039149 0.353277
vt 0.039149 0.353277
vt 0.039149 0.353277
vt 0.039149 0.353277
vt 0.039149 0.353277
vt 0.039149 0.353277
vt 0.039149 0.353277
vt 0.039149 0.353277
vt 0.039149 0.353277
vt 0.039149 0.353277
vt 0.039149 0.353277
vt 0.039149 0.353277
vt 0.039149 0.353277
vt 0.004947 0.328657
vt 0.004947 0.328657
vt 0.004947 0.328657
vt 0.004947 0.328657
vt 0.004947 0.328657
vt 0.004947 0.328657
vt 0.004947 0.328657
vt 0.004947 0.328657
vt 0.004947 0.328657
vt 0.004947 0.328657
vt 0.003640 0.329310
vt 0.003640 0.329310
vt 0.003640 0.329310
vt 0.003640 0.329310
vt 0.003640 0.329310
vt 0.003640 0.329310
vt 0.003640 0.329310
vt 0.003640 0.329310
vt 0.003640 0.329310
vt 0.003640 0.329310
vt 0.003640 0.329310
vt 0.003640 0.329310
vt 0.003640 0.329310
vt 0.003640 0.329310
vt 0.003640 0.329310
vt 0.003640 0.329310
vt 0.003640 0.329310
vt 0.003640 0.329310
vt 0.003640 0.329310
vt 0.003640 0.329310
vt 0.003640 0.329310
vt 0.003640 0.329310
vt 0.003640 0.329310
vt 0.003640 0.329310
vt 0.003640 0.329310
vt 0.003640 0.329310
vt 0.003640 0.329310
vt 0.003640 0.329310
vt 0.003640 0.329310
vt 0.003640 0.329310
vt 0.003640 0.329310
vt 0.003640 0.329310
vt 0.003640 0.329310
vt 0.003640 0.329310
vt 0.003640 0.329310
vt 0.003640 0.329310
vt 0.003640 0.329310
vt 0.003640 0.329310
vt 0.003640 0.329310
vt 0.003640 0.329310
vt 0.003640 0.329310
vt 0.003640 0.329310
vt 0.003640 0.329310
vt 0.003640 0.329310
vt 0.003640 0.329310
vt 0.003640 0.329310
vt 0.003640 0.329310
vt 0.003640 0.329310
vt 0.003640 0.329310
vt 0.003640 0.329310
vt 0.003640 0.329310
vt 0.003640 0.329310
vt 0.003640 0.329310
vt 0.003640 0.329310
vt 0.003640 0.329310
vt 0.003640 0.329310
vt 0.003640 0.329310
vt 0.003640 0.329310
vt 0.003640 0.329310
vt 0.003640 0.329310
vt 0.003640 0.329310
vt 0.003640 0.329310
vt 0.003640 0.329310
vt 0.003640 0.329310
vt 0.003640 0.329310
vt 0.003640 0.329310
vt 0.003640 0.329310
vt 0.003640 0.329310
vt 0.003640 0.329310
vt 0.003640 0.329310
vt 0.003640 0.329310
vt 0.003640 0.329310
vt 0.003640 0.329310
vt 0.003640 0.329310
vt 0.003640 0.329310
vt 0.003640 0.329310
vt 0.003640 0.329310
vt 0.003640 0.329310
vt 0.003640 0.329310
vt 0.003640 0.329310
vt 0.003640 0.329310
vt 0.003640 0.329310
vt 0.003640 0.329310
vt 0.003640 0.329310
vt 0.003640 0.329310
vt 0.003640 0.329310
vt 0.003640 0.329310
vt 0.003640 0.329310
vn 0.000000 0.000000 1.000000
vn 0.000000 0.000000 1.000000
vn 0.000000 0.000000 1.000000
vn 0.000000 0.999876 -0.015721
vn 0.000000 0.999876 -0.015721
vn 0.000000 0.999876 -0.015721
vn 0.000000 0.999876 -0.015721
vn 0.000000 0.000000 -1.000000
vn 0.000000 0.000000 -1.000000
vn 0.000000 0.000000 -1.000000
vn 0.000000 0.000000 -1.000000
vn 0.000000 -1.000000 0.000000
vn 0.000000 -1.000000 0.000000
vn 0.000000 -1.000000 0.000000
vn 0.000000 -1.000000 0.000000
vn 0.000000 -1.000000 0.000000
vn 0.000000 -1.000000 0.000000
vn 1.000000 0.000000 0.000000
vn 1.000000 0.000000 0.000000
vn 1.000000 0.000000 0.000000
vn 1.000000 0.000000 0.000000
vn -1.000000 0.000000 0.000000
vn -1.000000 0.000000 0.000000
vn -1.000000 0.000000 0.000000
vn -1.000000 0.000000 0.000000
vn 0.000000 -0.607397 0.794398
vn 0.000000 -0.607397 0.794398
vn 0.000000 -0.607397 0.794398
vn 0.000000 -0.607397 0.794398
vn 0.867362 -0.497028 -0.025416
vn 0.867362 -0.497028 -0.025416
vn 0.867362 -0.497028 -0.025416
vn 0.867362 -0.497028 -0.025416
vn 0.000000 -0.144949 -0.989439
vn 0.000000 -0.144949 -0.989439
vn 0.000000 -0.144949 -0.989439
vn 0.000000 -0.144949 -0.989439
vn -0.867363 -0.497027 -0.025416
vn -0.867362 -0.497027 -0.025416
vn -0.867362 -0.497027 -0.025416
vn -0.867363 -0.497027 -0.025416
vn 0.000000 0.178849 0.983877
vn 0.000000 0.178849 0.983877
vn 0.000000 0.178849 0.983877
vn 0.000000 0.178849 0.983877
vn 0.980007 0.186843 -0.068383
vn 0.980007 0.186843 -0.068383
vn 0.980007 0.186843 -0.068383
vn 0.980007 0.186843 -0.068383
vn 0.000000 0.223980 -0.974594
vn 0.000000 0.223980 -0.974594
vn 0.000000 0.223980 -0.974594
vn 0.000000 0.223980 -0.974594
vn -0.980007 0.186843 -0.068382
vn -0.980007 0.186843 -0.068382
vn -0.980007 0.186843 -0.068382
vn -0.980007 0.186843 -0.068382
vn 0.000000 0.928536 0.371242
vn 0.000000 0.928536 0.371242
vn 0.000000 0.928536 0.371242
vn 0.000000 0.928536 0.371242
vn 0.337046 0.940707 -0.038343
vn 0.337046 0.940707 -0.038343
vn 0.337046 0.940707 -0.038343
vn 0.337046 0.940707 -0.038343
vn 0.000000 0.930593 -0.366055
vn 0.000000 0.930593 -0.366055
vn 0.000000 0.930593 -0.366055
vn 0.000000 0.930593 -0.366055
vn -0.337046 0.940707 -0.038343
vn -0.337046 0.940707 -0.038343
vn -0.337046 0.940707 -0.038343
vn -0.337046 0.940707 -0.038343
vn 1.000000 0.000000 0.000000
vn 1.000000 0.000000 0.000000
vn 1.000000 0.000000 0.000000
vn -1.000000 0.000000 0.000000
vn -1.000000 0.000000 0.000000
vn -1.000000 0.000000 0.000000
vn 0.000000 0.000000 1.000000
vn 0.000000 0.000000 1.000000
vn 0.000000 0.000000 1.000000
vn 0.000000 0.000000 1.000000
vn 0.000000 -1.000000 0.000000
vn 0.000000 -1.000000 0.000000
vn 0.000000 -1.000000 0.000000
vn 0.000000 -1.000000 0.000000
vn 0.000000 0.000000 1.000000
vn 0.000000 0.000000 1.000000
vn 0.000000 0.000000 1.000000
vn 0.000000 0.000000 1.000000
vn 0.000000 0.000000 1.000000
vn 0.000000 0.000000 1.000000
vn 0.000000 0.000000 1.000000
vn 0.000000 0.000000 -1.000000
vn 0.000000 0.000000 -1.000000
vn 0.000000 0.000000 -1.000000
vn 0.000000 0.000000 -1.000000
vn 0.000000 -1.000000 0.000000
vn 0.000000 -1.000000 0.000000
vn 0.000000 -1.000000 0.000000
vn 0.000000 -1.000000 0.000000
vn 1.000000 0.000000 0.000000
vn 1.000000 0.000000 0.000000
vn 1.000000 0.000000 0.000000
vn 1.000000 0.000000 0.000000
vn -1.000000 0.000000 0.000000
vn -1.000000 0.000000 0.000000
vn -1.000000 0.000000 0.000000
vn -1.000000 0.000000 0.000000
vn 0.000000 0.000000 1.000000
vn 0.000000 0.000000 1.000000
vn 0.000000 0.000000 1.000000
vn 0.000000 0.000000 1.000000
vn 0.000000 0.000000 -1.000000
vn 0.000000 0.000000 -1.000000
vn 0.000000 0.000000 -1.000000
vn 0.000000 0.000000 -1.000000
vn 0.000000 -1.000000 0.000000
vn 0.000000 -1.000000 0.000000
vn 0.000000 -1.000000 0.000000
vn 0.000000 -1.000000 0.000000
vn 1.000000 0.000000 0.000000
vn 1.000000 0.000000 0.000000
vn 1.000000 0.000000 0.000000
vn 1.000000 0.000000 0.000000
vn -1.000000 0.000000 0.000000
vn -1.000000 0.000000 0.000000
vn -1.000000 0.000000 0.000000
vn -1.000000 0.000000 0.000000
vn 0.000000 0.972344 -0.233553
vn 0.000000 0.972344 -0.233553
vn 0.000000 0.972344 -0.233553
vn 0.000000 0.972344 -0.233553
vn 0.000000 -1.000000 0.000000
vn 0.000000 -1.000000 0.000000
vn 0.000000 -1.000000 0.000000
vn 0.000000 -1.000000 0.000000
vn 0.000000 0.195805 -0.980643
vn 0.000000 0.195805 -0.980643
vn 0.000000 0.195805 -0.980643
vn 0.000000 0.195805 -0.980643
vn -1.000000 -0.000000 0.000000
vn -1.000000 -0.000000 0.000000
vn -1.000000 -0.000000 0.000000
vn -1.000000 -0.000000 0.000000
vn 0.000000 -0.195798 0.980644
vn 0.000000 -0.195798 0.980644
vn 0.000000 -0.195798 0.980644
vn 0.000000 -0.195798 0.980644
vn 1.000000 -0.000000 0.000000
vn 1.000000 -0.000000 0.000000
vn 1.000000 -0.000000 0.000000
vn 1.000000 -0.000000 0.000000
vn 0.000000 0.000000 1.000000
vn 0.000000 0.000000 1.000000
vn 0.000000 0.000000 1.000000
vn 0.000000 0.000000 1.000000
vn -1.000000 0.000000 0.000000
vn -1.000000 0.000000 0.000000
vn -1.000000 0.000000 0.000000
vn -1.000000 0.000000 0.000000
vn 0.000000 0.000000 -1.000000
vn 0.000000 0.000000 -1.000000
vn 0.000000 0.000000 -1.000000
vn 0.000000 0.000000 -1.000000
vn 1.000000 0.000000 0.000000
vn 1.000000 0.000000 0.000000
vn 1.000000 0.000000 0.000000
vn 1.000000 0.000000 0.000000
vn -1.000000 0.000000 0.000000
vn -1.000000 0.000000 0.000000
vn -1.000000 0.000000 0.000000
vn -1.000000 0.000000 0.000000
vn 0.000000 -0.211622 -0.977352
vn 0.000000 -0.211622 -0.977352
vn 0.000000 -0.211622 -0.977352
vn 0.000000 -0.211622 -0.977352
vn 0.000000 0.208899 0.977937
vn 0.000000 0.208899 0.977937
vn 0.000000 0.208899 0.977937
vn 0.000000 0.208899 0.977937
vn 0.000000 -0.998976 0.045237
vn 0.000000 -0.998976 0.045237
vn 0.000000 -0.998976 0.045237
vn 0.000000 -0.998976 0.045237
vn 0.000000 0.213256 0.976996
vn 0.000000 0.213256 0.976996
vn 0.000000 0.213256 0.976996
vn 0.000000 0.213256 0.976996
vn 0.000000 -0.195798 0.980644
vn 0.000000 -0.195798 0.980644
vn 0.000000 -0.195798 0.980644
vn 0.000000 -0.195798 0.980644
vn 0.000000 0.972344 -0.233553
vn 0.000000 0.972344 -0.233553
vn 0.000000 0.972344 -0.233553
vn 0.000000 0.972344 -0.233553
vn 0.000000 0.195805 -0.980643
vn 0.000000 0.195805 -0.980643
vn 0.000000 0.195805 -0.980643
vn 0.000000 0.195805 -0.980643
vn 0.000000 -1.000000 0.000000
vn 0.000000 -1.000000 0.000000
vn 0.000000 -1.000000 0.000000
vn 0.000000 -1.000000 0.000000
vn 1.000000 0.000000 0.000000
vn 1.000000 0.000000 0.000000
vn 1.000000 0.000000 0.000000
vn 1.000000 0.000000 0.000000
vn -1.000000 0.000000 0.000000
vn -1.000000 0.000000 0.000000
vn -1.000000 0.000000 0.000000
vn -1.000000 0.000000 0.000000
vn 0.000000 0.000000 1.000000
vn 0.000000 0.000000 1.000000
vn 0.000000 0.000000 1.000000
vn 0.000000 0.000000 1.000000
vn 1.000000 0.000000 0.000000
vn 1.000000 0.000000 0.000000
vn 1.000000 0.000000 0.000000
vn 1.000000 0.000000 0.000000
vn 0.000000 0.000000 -1.000000
vn 0.000000 0.000000 -1.000000
vn 0.000000 0.000000 -1.000000
vn 0.000000 0.000000 -1.000000
vn -1.000000 0.000000 0.000000
vn -1.000000 0.000000 0.000000
vn -1.000000 0.000000 0.000000
vn -1.000000 0.000000 0.000000
vn 0.000000 -0.211622 -0.977352
vn 0.000000 -0.211622 -0.977352
vn 0.000000 -0.211622 -0.977352
vn 0.000000 -0.211622 -0.977352
vn 0.000000 0.208899 0.977937
vn 0.000000 0.208899 0.977937
vn 0.000000 0.208899 0.977937
vn 0.000000 0.208899 0.977937
vn 1.000000 0.000000 0.000000
vn 1.000000 0.000000 0.000000
vn 1.000000 0.000000 0.000000
vn 1.000000 0.000000 0.000000
vn 0.000000 0.932783 -0.360437
vn 0.000000 0.932783 -0.360437
vn 0.000000 0.932783 -0.360437
vn 0.000000 0.932783 -0.360437
vn 0.000000 -0.215786 -0.976441
vn 0.000000 -0.215786 -0.976441
vn 0.000000 -0.215786 -0.976441
vn 0.000000 -0.215786 -0.976441
vn 0.048051 0.945312 -0.322608
vn 0.048051 0.945312 -0.322608
vn 0.048051 0.945312 -0.322608
vn 0.048051 0.945312 -0.322608
vn 0.126897 0.210050 0.969420
vn 0.126897 0.210050 0.969420
vn 0.126897 0.210050 0.969420
vn 0.126897 0.210050 0.969420
vn 0.054429 -0.997657 0.041459
vn 0.054429 -0.997657 0.041459
vn 0.054429 -0.997657 0.041459
vn 0.054429 -0.997657 0.041459
vn 0.027638 -0.214370 -0.976361
vn 0.027638 -0.214370 -0.976361
vn 0.027638 -0.214370 -0.976361
vn 0.027638 -0.214370 -0.976361
vn -0.126897 0.210050 0.969420
vn -0.126897 0.210050 0.969420
vn -0.126897 0.210050 0.969420
vn -0.126897 0.210050 0.969420
vn -0.054429 -0.997657 0.041459
vn -0.054429 -0.997657 0.041459
vn -0.054429 -0.997657 0.041459
vn -0.054429 -0.997657 0.041459
vn -0.048051 0.945312 -0.322608
vn -0.048051 0.945312 -0.322608
vn -0.048051 0.945312 -0.322608
vn -0.048051 0.945312 -0.322608
vn -0.027638 -0.214370 -0.976361
vn -0.027638 -0.214370 -0.976361
vn -0.027638 -0.214370 -0.976361
vn -0.027638 -0.214370 -0.976361
vn 0.999895 -0.012542 0.007256
vn 0.999895 -0.012542 0.007256
vn 0.999895 -0.012542 0.007256
vn 0.999895 -0.012542 0.007256
vn 0.998331 -0.012104 -0.056462
vn 0.998331 -0.012104 -0.056462
vn 0.998331 -0.012104 -0.056462
vn 0.998331 -0.012104 -0.056462
vn 0.999985 0.004104 0.003716
vn 0.999985 0.004104 0.003716
vn 0.999985 0.004104 0.003716
vn 0.999985 0.004104 0.003716
vn 0.999889 0.003150 0.014538
vn 0.999889 0.003150 0.014538
vn 0.999889 0.003150 0.014538
vn 0.999889 0.003150 0.014538
vn -0.998331 -0.012105 -0.056462
vn -0.998331 -0.012105 -0.056462
vn -0.998331 -0.012105 -0.056462
vn -0.998331 -0.012105 -0.056462
vn -0.999985 0.004104 0.003716
vn -0.999985 0.004104 0.003716
vn -0.999985 0.004104 0.003716
vn -0.999985 0.004104 0.003716
vn -0.999895 -0.012543 0.007256
vn -0.999895 -0.012543 0.007256
vn -0.999895 -0.012543 0.007256
vn -0.999895 -0.012543 0.007256
vn -0.999889 0.003150 0.014538
vn -0.999889 0.003150 0.014538
vn -0.999889 0.003150 0.014538
vn -0.999889 0.003150 0.014538
s off
f 4/4/1 23/33/2 2/2/3
f 20/16/4 17/13/5 18/14/6 19/15/7
f 7/7/8 5/5/9 6/6/10 8/8/11
f 21/29/12 24/35/13 26/38/14 22/32/15 7/7/16 8/8/17
f 4/4/18 21/30/19 8/9/20 6/10/21
f 7/11/22 22/31/23 3/3/24 5/12/25
f 9/20/26 3/17/27 4/18/28 10/19/29
f 4/18/30 6/21/31 11/22/32 10/19/33
f 5/23/34 12/24/35 11/22/36 6/21/37
f 5/23/38 3/17/39 9/20/40 12/24/41
f 13/26/42 9/20/43 10/19/44 14/25/45
f 10/19/46 11/22/47 15/27/48 14/25/49
f 12/24/50 16/28/51 15/27/52 11/22/53
f 12/24/54 9/20/55 13/26/56 16/28/57
f 17/13/58 13/26/59 14/25/60 18/14/61
f 14/25/62 15/27/63 19/15/64 18/14/65
f 16/28/66 20/16/67 19/15/68 15/27/69
f 16/28/70 13/26/71 17/13/72 20/16/73
f 2/2/74 21/30/75 4/4/76
f 3/3/77 22/31/78 1/1/79
f 4/4/80 3/3/81 25/36/82 23/33/83
f 24/35/84 23/34/85 25/37/86 26/38/87
f 25/36/88 3/3/89 1/1/90
f 27/39/91 28/40/92 25/41/93 1/42/94
f 22/43/95 26/44/96 30/45/97 29/46/98
f 29/46/99 30/45/100 28/47/101 27/48/102
f 28/40/103 30/49/104 26/50/105 25/41/106
f 29/51/107 27/39/108 1/42/109 22/52/110
f 31/53/111 32/54/112 2/55/113 23/56/114
f 24/57/115 21/58/116 34/59/117 33/60/118
f 33/60/119 34/59/120 32/61/121 31/62/122
f 32/54/123 34/63/124 21/64/125 2/55/126
f 33/65/127 31/53/128 23/56/129 24/66/130
f 47/69/131 50/70/132 49/71/133 48/72/134
f 41/73/135 35/75/136 36/76/137 42/74/138
f 40/80/139 39/79/140 41/73/141 42/74/142
f 38/81/143 40/82/144 42/77/145 36/68/146
f 37/83/147 38/81/148 36/68/149 35/67/150
f 41/78/151 39/84/152 37/83/153 35/67/154
f 37/83/155 43/85/156 44/86/157 38/81/158
f 38/81/159 44/86/160 45/87/161 40/80/162
f 40/80/163 45/87/164 46/88/165 39/79/166
f 39/79/167 46/88/168 43/85/169 37/83/170
f 49/71/171 45/87/172 44/86/173 48/72/174
f 50/70/175 46/88/176 45/87/177 49/71/178
f 44/86/179 43/85/180 47/69/181 48/72/182
f 67/91/183 68/92/184 69/93/185 70/94/186
f 71/89/187 67/91/188 70/94/189 72/90/190
f 51/95/191 52/96/192 54/110/193 53/111/194
f 63/97/195 64/98/196 65/99/197 66/100/198
f 58/101/199 57/102/200 55/107/201 56/108/202
f 57/102/203 58/101/204 52/103/205 51/104/206
f 52/96/207 58/105/208 56/109/209 54/110/210
f 55/112/211 57/106/212 51/95/213 53/111/214
f 53/111/215 54/110/216 60/113/217 59/114/218
f 54/110/219 56/108/220 61/115/221 60/113/222
f 56/108/223 55/107/224 62/116/225 61/115/226
f 55/107/227 53/111/228 59/114/229 62/116/230
f 66/100/231 65/99/232 61/115/233 62/116/234
f 60/113/235 64/98/236 63/97/237 59/114/238
f 65/99/239 64/98/240 60/113/241 61/115/242
f 71/89/243 72/90/244 73/117/245 74/118/246
f 68/92/247 74/118/248 73/117/249 69/93/250
f 75/120/251 71/89/252 74/118/253 76/119/254
f 71/89/255 75/120/256 77/121/257 67/91/258
f 78/122/259 68/92/260 67/91/261 77/121/262
f 68/92/263 78/122/264 76/119/265 74/118/266
f 70/94/267 79/123/268 80/124/269 72/90/270
f 81/125/271 79/123/272 70/94/273 69/93/274
f 80/124/275 82/126/276 73/117/277 72/90/278
f 69/93/279 73/117/280 82/126/281 81/125/282
f 50/70/283 47/69/284 75/120/285 76/119/286
f 47/69/287 43/85/288 77/121/289 75/120/290
f 43/85/291 46/88/292 78/122/293 77/121/294
f 46/88/295 50/70/296 76/119/297 78/122/298
f 59/114/299 63/97/300 80/124/301 79/123/302
f 62/116/303 59/114/304 79/123/305 81/125/306
f 63/97/307 66/100/308 82/126/309 80/124/310
f 66/100/311 62/116/312 81/125/313 82/126/314
