# This file uses meters as units for non-parametric coordinates.

v 3.398193 0.000000 -11.339111
v 3.398193 0.000000 13.036499
v 3.398193 28.286598 -11.339111
v 3.398193 28.286598 13.036499
v -2.894775 28.286598 -11.339111
v -2.894775 28.286598 13.036499
v -2.894775 0.000000 -11.339111
v -2.894775 0.000000 13.036499
v 2.457275 28.286598 -11.339111
v -1.954346 28.286598 -11.339111
v -1.954346 28.286598 11.624023
v 2.457275 28.286598 11.624268
v 3.398193 22.629280 13.036499
v -2.894775 22.629280 13.036499
v 3.398193 17.725731 13.036499
v -2.894775 17.725731 13.036499
v -2.916260 0.000000 -13.036499
v -2.916260 0.000000 11.339111
v -2.916260 29.829018 -13.036499
v -2.916260 29.829018 11.339111
v -9.209229 29.829018 -13.036499
v -9.209229 29.829018 11.339111
v -9.209229 0.000000 -13.036499
v -9.209229 0.000000 11.339111
v -3.857056 29.829018 -13.036499
v -8.268677 29.829018 -13.036499
v -8.268677 29.829018 9.926758
v -3.857056 29.829018 9.926758
v -9.832642 0.000000 -11.786255
v -9.832642 0.000000 12.589355
v -9.832642 28.286598 -11.786255
v -9.832642 28.286598 12.589355
v -15.357422 28.286598 -11.786255
v -15.357422 28.286598 12.589355
v -15.357422 0.000000 -11.786255
v -15.357422 0.000000 12.589355
v -10.658691 28.286598 -11.786255
v -14.531616 28.286598 -11.786255
v -14.531616 28.286598 11.177002
v -10.658691 28.286598 11.177002
v -9.832642 2.828659 12.589355
v -15.357422 2.828659 12.589355
v -9.832642 6.473114 12.589355
v -15.357422 6.473114 12.589355
v -9.832642 24.249870 12.589355
v -15.357422 24.249870 12.589355
v -15.679321 0.000000 -13.036499
v -15.679321 0.000000 11.339111
v -15.679321 29.429207 -13.036499
v -15.679321 29.429207 11.339111
v -21.972290 29.429207 -13.036499
v -21.972290 29.429207 11.339111
v -21.972290 0.000000 -13.036499
v -21.972290 0.000000 11.339111
v -16.620117 29.429207 -13.036499
v -21.031860 29.429207 -13.036499
v -21.031860 29.429207 9.926758
v -16.620117 29.429207 9.926758
v 21.972290 1.313263 -13.036499
v 21.972290 1.313263 11.339111
v 9.688965 28.056488 -13.036499
v 9.688965 28.056488 11.339111
v 3.970459 25.429901 -13.036499
v 3.970459 25.429901 11.339111
v 16.253784 -1.313324 -13.036499
v 16.253784 -1.313324 11.339111
v 8.834106 27.663788 -13.036499
v 4.825073 25.822418 -13.036499
v 4.825073 25.822418 9.926758
v 8.834106 27.663788 9.926758
vt 0.122176 0.491171
vt 0.122176 0.491171
vt 0.122176 0.491171
vt 0.122176 0.491171
vt 0.122176 0.491171
vt 0.122176 0.491171
vt 0.122176 0.491171
vt 0.122176 0.491171
vt 0.037598 0.374821
vt 0.037598 0.374821
vt 0.122176 0.491171
vt 0.122176 0.491171
vt 0.122176 0.491171
vt 0.122176 0.491171
vt 0.122176 0.491171
vt 0.122176 0.491171
vt 0.122176 0.491171
vt 0.122176 0.491171
vt 0.122176 0.491171
vt 0.122176 0.491171
vt 0.039307 0.372169
vt 0.039307 0.372169
vt 0.039307 0.372169
vt 0.039307 0.372169
vt 0.037598 0.374821
vt 0.037598 0.374821
vt 0.037598 0.374821
vt 0.037598 0.374821
vt 0.122176 0.491171
vt 0.122176 0.491171
vt 0.122176 0.491171
vt 0.122176 0.491171
vt 0.122176 0.491171
vt 0.122176 0.491171
vt 0.219482 0.472305
vt 0.219482 0.472305
vt 0.219482 0.472305
vt 0.219482 0.472305
vt 0.060803 0.326826
vt 0.060803 0.326826
vt 0.060803 0.326826
vt 0.060803 0.326826
vt 0.060803 0.326826
vt 0.060803 0.326826
vt 0.060803 0.326826
vt 0.060803 0.326826
vt 0.060803 0.326826
vt 0.060803 0.326826
vt 0.037598 0.374821
vt 0.037598 0.374821
vt 0.037598 0.374821
vt 0.037598 0.374821
vt 0.060803 0.326826
vt 0.060803 0.326826
vt 0.037598 0.374821
vt 0.037598 0.374821
vt 0.060803 0.326826
vt 0.060803 0.326826
vt 0.060803 0.326826
vt 0.060803 0.326826
vt 0.060803 0.326826
vt 0.060803 0.326826
vt 0.039307 0.372169
vt 0.039307 0.372169
vt 0.039307 0.372169
vt 0.039307 0.372169
vt 0.322920 0.444952
vt 0.322920 0.444952
vt 0.322920 0.444952
vt 0.322920 0.444952
vt 0.322920 0.444952
vt 0.322920 0.444952
vt 0.322920 0.444952
vt 0.322920 0.444952
vt 0.322920 0.444952
vt 0.322920 0.444952
vt 0.322920 0.444952
vt 0.322920 0.444952
vt 0.037598 0.374821
vt 0.037598 0.374821
vt 0.037598 0.374821
vt 0.037598 0.374821
vt 0.322920 0.444952
vt 0.322920 0.444952
vt 0.037598 0.374821
vt 0.037598 0.374821
vt 0.322920 0.444952
vt 0.322920 0.444952
vt 0.322920 0.444952
vt 0.322920 0.444952
vt 0.322920 0.444952
vt 0.322920 0.444952
vt 0.039307 0.372169
vt 0.039307 0.372169
vt 0.039307 0.372169
vt 0.039307 0.372169
vt 0.051087 0.353606
vt 0.051087 0.353606
vt 0.051087 0.353606
vt 0.051087 0.353606
vt 0.322920 0.444952
vt 0.322920 0.444952
vt 0.322920 0.444952
vt 0.202088 0.471749
vt 0.202088 0.471749
vt 0.202088 0.471745
vt 0.202088 0.471745
vt 0.322920 0.444952
vt 0.322920 0.444952
vt 0.322920 0.444952
vt 0.130791 0.443773
vt 0.130791 0.443773
vt 0.130791 0.443773
vt 0.130791 0.443773
vt 0.130791 0.443773
vt 0.130791 0.443773
vt 0.130791 0.443773
vt 0.130791 0.443773
vt 0.130791 0.443773
vt 0.130791 0.443773
vt 0.037598 0.374821
vt 0.037598 0.374821
vt 0.037598 0.374821
vt 0.037598 0.374821
vt 0.130791 0.443773
vt 0.130791 0.443773
vt 0.037598 0.374821
vt 0.037598 0.374821
vt 0.130791 0.443773
vt 0.130791 0.443773
vt 0.130791 0.443773
vt 0.130791 0.443773
vt 0.130791 0.443773
vt 0.130791 0.443773
vt 0.039307 0.372169
vt 0.039307 0.372169
vt 0.039307 0.372169
vt 0.039307 0.372169
vt 0.339833 0.470346
vt 0.339833 0.470346
vt 0.339833 0.470346
vt 0.339833 0.470346
vt 0.339833 0.470346
vt 0.339833 0.470346
vt 0.339833 0.470346
vt 0.339833 0.470346
vt 0.339833 0.470346
vt 0.339833 0.470346
vt 0.037598 0.374821
vt 0.037598 0.374821
vt 0.037598 0.374821
vt 0.037598 0.374821
vt 0.339833 0.470346
vt 0.339833 0.470346
vt 0.037598 0.374821
vt 0.037598 0.374821
vt 0.339833 0.470346
vt 0.339833 0.470346
vt 0.339833 0.470346
vt 0.339833 0.470346
vt 0.339833 0.470346
vt 0.339833 0.470346
vt 0.039307 0.372169
vt 0.039307 0.372169
vt 0.039307 0.372169
vt 0.039307 0.372169
vn 1.000000 0.000000 0.000000
vn 1.000000 0.000000 0.000000
vn 1.000000 0.000000 0.000000
vn 1.000000 0.000000 0.000000
vn 0.000000 1.000000 0.000001
vn 0.000000 1.000000 0.000001
vn 0.000000 1.000000 0.000001
vn 0.000000 1.000000 0.000001
vn -1.000000 0.000000 0.000000
vn -1.000000 0.000000 0.000000
vn -1.000000 0.000000 0.000000
vn 0.000000 -1.000000 0.000000
vn 0.000000 -1.000000 0.000000
vn 0.000000 -1.000000 0.000000
vn 0.000000 -1.000000 0.000000
vn 0.000000 0.000000 1.000000
vn 0.000000 0.000000 1.000000
vn 0.000000 0.000000 1.000000
vn 0.000000 0.000000 1.000000
vn 0.000000 0.000000 -1.000000
vn 0.000000 0.000000 -1.000000
vn 0.000000 0.000000 -1.000000
vn 0.000000 0.000000 -1.000000
vn 0.000000 1.000000 0.000000
vn 0.000000 1.000000 0.000000
vn 0.000000 1.000000 0.000000
vn 0.000000 1.000000 0.000000
vn 0.000000 1.000000 0.000000
vn 0.000000 1.000000 0.000000
vn 0.000000 1.000000 0.000000
vn 0.000000 1.000000 0.000000
vn 0.000000 0.000000 -1.000000
vn 0.000000 0.000000 -1.000000
vn 0.000000 0.000000 -1.000000
vn 0.000000 0.000000 -1.000000
vn 0.000000 0.000000 -1.000000
vn 0.000000 0.000000 -1.000000
vn 0.000000 1.000000 0.000000
vn 0.000000 1.000000 0.000000
vn 0.000000 1.000000 0.000000
vn 0.000000 1.000000 0.000000
vn 0.000000 0.000000 1.000000
vn 0.000000 0.000000 1.000000
vn 0.000000 0.000000 1.000000
vn 0.000000 0.000000 1.000000
vn 0.000000 0.000000 1.000000
vn 0.000000 0.000000 1.000000
vn 0.000000 0.000000 1.000000
vn 0.000000 0.000000 1.000000
vn 1.000000 0.000000 0.000000
vn 1.000000 0.000000 0.000000
vn 1.000000 0.000000 0.000000
vn 1.000000 0.000000 0.000000
vn 1.000000 0.000000 0.000000
vn 1.000000 0.000000 0.000000
vn -1.000000 0.000000 0.000000
vn -1.000000 0.000000 0.000000
vn -1.000000 0.000000 0.000000
vn -1.000000 0.000000 0.000000
vn -1.000000 0.000000 0.000000
vn -1.000000 0.000000 0.000000
vn -1.000000 0.000000 0.000000
vn 1.000000 0.000000 0.000000
vn 1.000000 0.000000 0.000000
vn 1.000000 0.000000 0.000000
vn 1.000000 0.000000 0.000000
vn 0.000000 1.000000 0.000002
vn 0.000000 1.000000 0.000002
vn 0.000000 1.000000 0.000002
vn 0.000000 1.000000 0.000002
vn -1.000000 0.000000 0.000000
vn -1.000000 0.000000 0.000000
vn -1.000000 0.000000 0.000000
vn -1.000000 0.000000 0.000000
vn 0.000000 -1.000000 0.000000
vn 0.000000 -1.000000 0.000000
vn 0.000000 -1.000000 0.000000
vn 0.000000 -1.000000 0.000000
vn 0.000000 0.000000 1.000000
vn 0.000000 0.000000 1.000000
vn 0.000000 0.000000 1.000000
vn 0.000000 0.000000 1.000000
vn 0.000000 0.000000 -1.000000
vn 0.000000 0.000000 -1.000000
vn 0.000000 0.000000 -1.000000
vn 0.000000 0.000000 -1.000000
vn 0.000000 1.000000 0.000000
vn 0.000000 1.000000 0.000000
vn 0.000000 1.000000 0.000000
vn 0.000000 1.000000 0.000000
vn 0.000000 1.000000 0.000000
vn 0.000000 1.000000 0.000000
vn 0.000000 1.000000 0.000000
vn 0.000000 1.000000 0.000000
vn 0.000000 0.000000 -1.000000
vn 0.000000 0.000000 -1.000000
vn 0.000000 0.000000 -1.000000
vn 0.000000 0.000000 -1.000000
vn 0.000000 0.000000 -1.000000
vn 0.000000 0.000000 -1.000000
vn 0.000000 1.000000 0.000000
vn 0.000000 1.000000 0.000000
vn 0.000000 1.000000 0.000000
vn 0.000000 1.000000 0.000000
vn 1.000000 0.000000 0.000000
vn 1.000000 0.000000 0.000000
vn 1.000000 0.000000 0.000000
vn 1.000000 0.000000 0.000000
vn 0.000000 1.000000 0.000000
vn 0.000000 1.000000 0.000000
vn 0.000000 1.000000 0.000000
vn 0.000000 1.000000 0.000000
vn -1.000000 0.000000 0.000000
vn -1.000000 0.000000 0.000000
vn -1.000000 0.000000 0.000000
vn -1.000000 0.000000 0.000000
vn 0.000000 -1.000000 0.000000
vn 0.000000 -1.000000 0.000000
vn 0.000000 -1.000000 0.000000
vn 0.000000 -1.000000 0.000000
vn 0.000000 0.000000 1.000000
vn 0.000000 0.000000 1.000000
vn 0.000000 0.000000 1.000000
vn 0.000000 0.000000 1.000000
vn 0.000000 0.000000 -1.000000
vn 0.000000 0.000000 -1.000000
vn 0.000000 0.000000 -1.000000
vn 0.000000 0.000000 -1.000000
vn 0.000000 1.000000 0.000000
vn 0.000000 1.000000 0.000000
vn 0.000000 1.000000 0.000000
vn 0.000000 1.000000 0.000000
vn 0.000000 1.000000 0.000000
vn 0.000000 1.000000 0.000000
vn 0.000000 1.000000 0.000000
vn 0.000000 1.000000 0.000000
vn 0.000000 0.000000 -1.000000
vn 0.000000 0.000000 -1.000000
vn 0.000000 0.000000 -1.000000
vn 0.000000 0.000000 -1.000000
vn 0.000000 0.000000 -1.000000
vn 0.000000 0.000000 -1.000000
vn 0.000000 1.000000 0.000000
vn 0.000000 1.000000 0.000000
vn 0.000000 1.000000 0.000000
vn 0.000000 1.000000 0.000000
vn 0.000000 0.000000 1.000000
vn 0.000000 0.000000 1.000000
vn 0.000000 0.000000 1.000000
vn 0.000000 0.000000 1.000000
vn 0.000000 0.000000 1.000000
vn 0.000000 0.000000 1.000000
vn 0.000000 0.000000 1.000000
vn 0.000000 0.000000 1.000000
vn 0.000000 0.000000 1.000000
vn 0.000000 0.000000 1.000000
vn 0.000000 0.000000 1.000000
vn 0.000000 0.000000 1.000000
vn 1.000000 0.000000 0.000000
vn 1.000000 0.000000 0.000000
vn 1.000000 0.000000 0.000000
vn 1.000000 0.000000 0.000000
vn 1.000000 0.000000 0.000000
vn 1.000000 0.000000 0.000000
vn 1.000000 0.000000 0.000000
vn -1.000000 0.000000 0.000000
vn -1.000000 0.000000 0.000000
vn -1.000000 0.000000 0.000000
vn -1.000000 0.000000 0.000000
vn -1.000000 0.000000 0.000000
vn -1.000000 0.000000 0.000000
vn -1.000000 0.000000 0.000000
vn 1.000000 0.000000 0.000000
vn 1.000000 0.000000 0.000000
vn 1.000000 0.000000 0.000000
vn 1.000000 0.000000 0.000000
vn 0.000000 1.000000 0.000000
vn 0.000000 1.000000 0.000000
vn 0.000000 1.000000 0.000000
vn 0.000000 1.000000 0.000000
vn -1.000000 0.000000 0.000000
vn -1.000000 0.000000 0.000000
vn -1.000000 0.000000 0.000000
vn -1.000000 0.000000 0.000000
vn 0.000000 -1.000000 0.000000
vn 0.000000 -1.000000 0.000000
vn 0.000000 -1.000000 0.000000
vn 0.000000 -1.000000 0.000000
vn 0.000000 0.000000 1.000000
vn 0.000000 0.000000 1.000000
vn 0.000000 0.000000 1.000000
vn 0.000000 0.000000 1.000000
vn 0.000000 0.000000 -1.000000
vn 0.000000 0.000000 -1.000000
vn 0.000000 0.000000 -1.000000
vn 0.000000 0.000000 -1.000000
vn 0.000000 1.000000 0.000000
vn 0.000000 1.000000 0.000000
vn 0.000000 1.000000 0.000000
vn 0.000000 1.000000 0.000000
vn 0.000000 1.000000 0.000000
vn 0.000000 1.000000 0.000000
vn 0.000000 1.000000 0.000000
vn 0.000000 1.000000 0.000000
vn 0.000000 0.000000 -1.000000
vn 0.000000 0.000000 -1.000000
vn 0.000000 0.000000 -1.000000
vn 0.000000 0.000000 -1.000000
vn 0.000000 0.000000 -1.000000
vn 0.000000 0.000000 -1.000000
vn 0.000000 1.000000 0.000000
vn 0.000000 1.000000 0.000000
vn 0.000000 1.000000 0.000000
vn 0.000000 1.000000 0.000000
vn 0.908730 0.417385 0.000000
vn 0.908730 0.417385 0.000000
vn 0.908730 0.417385 0.000000
vn 0.908730 0.417385 0.000000
vn -0.417388 0.908728 -0.000023
vn -0.417388 0.908728 -0.000023
vn -0.417388 0.908728 -0.000023
vn -0.417388 0.908728 -0.000023
vn -0.908730 -0.417385 0.000000
vn -0.908730 -0.417385 0.000000
vn -0.908730 -0.417385 0.000000
vn -0.908730 -0.417385 0.000000
vn 0.417391 -0.908727 0.000000
vn 0.417391 -0.908727 0.000000
vn 0.417391 -0.908727 0.000000
vn 0.417391 -0.908727 0.000000
vn 0.000000 0.000000 1.000000
vn 0.000000 0.000000 1.000000
vn 0.000000 0.000000 1.000000
vn 0.000000 0.000000 1.000000
vn -0.000000 0.000000 -1.000000
vn -0.000000 0.000000 -1.000000
vn -0.000000 0.000000 -1.000000
vn -0.000000 0.000000 -1.000000
vn -0.417436 0.908706 0.000000
vn -0.417436 0.908706 0.000000
vn -0.417436 0.908706 0.000000
vn -0.417436 0.908706 0.000000
vn -0.417374 0.908735 0.000000
vn -0.417374 0.908735 0.000000
vn -0.417374 0.908735 0.000000
vn -0.417374 0.908735 0.000000
vn 0.000000 0.000000 -1.000000
vn 0.000000 0.000000 -1.000000
vn 0.000000 0.000000 -1.000000
vn 0.000000 0.000000 -1.000000
vn 0.000000 0.000000 -1.000000
vn 0.000000 0.000000 -1.000000
vn -0.417384 0.908730 0.000000
vn -0.417384 0.908730 0.000000
vn -0.417384 0.908730 0.000000
vn -0.417384 0.908730 0.000000
s off
f 1/1/1 3/3/2 13/29/3 15/32/4
f 11/19/5 6/6/6 4/4/7 12/20/8
f 7/7/9 8/8/10 16/33/11
f 7/9/12 1/26/13 2/25/14 8/10/15
f 13/29/16 4/4/17 6/12/18 14/31/19
f 7/9/20 10/28/21 9/27/22 1/26/23
f 3/3/24 9/16/25 12/20/26 4/4/27
f 10/18/28 5/5/29 6/6/30 11/19/31
f 7/13/32 5/14/33 10/17/34
f 9/15/35 3/3/36 1/1/37
f 9/21/38 10/24/39 11/23/40 12/22/41
f 15/35/42 13/36/43 14/37/44 16/38/45
f 2/2/46 15/32/47 16/34/48 8/11/49
f 1/1/50 15/32/51 2/2/52
f 3/3/53 4/4/54 13/29/55
f 5/5/56 14/30/57 6/6/58
f 5/5/59 7/7/60 16/33/61 14/30/62
f 17/39/63 19/42/64 20/41/65 18/40/66
f 27/43/67 22/45/68 20/41/69 28/44/70
f 21/46/71 23/48/72 24/47/73 22/45/74
f 23/49/75 17/52/76 18/51/77 24/50/78
f 18/40/79 20/41/80 22/54/81 24/53/82
f 23/49/83 26/56/84 25/55/85 17/52/86
f 19/42/87 25/57/88 28/44/89 20/41/90
f 26/58/91 21/46/92 22/45/93 27/43/94
f 23/59/95 21/61/96 26/60/97
f 25/62/98 19/42/99 17/39/100
f 25/63/101 26/66/102 27/65/103 28/64/104
f 29/67/105 31/70/106 45/69/107 43/68/108
f 39/71/109 34/74/110 32/73/111 40/72/112
f 33/75/113 35/78/114 44/77/115 46/76/116
f 35/79/117 29/82/118 30/81/119 36/80/120
f 45/69/121 32/73/122 34/84/123 46/83/124
f 35/79/125 38/86/126 37/85/127 29/82/128
f 31/70/129 37/87/130 40/72/131 32/73/132
f 38/88/133 33/75/134 34/74/135 39/71/136
f 35/89/137 33/91/138 38/90/139
f 37/92/140 31/70/141 29/67/142
f 37/93/143 38/96/144 39/95/145 40/94/146
f 30/97/147 41/100/148 42/99/149 36/98/150
f 41/101/151 43/68/152 44/103/153 42/102/154
f 43/104/155 45/107/156 46/106/157 44/105/158
f 29/67/159 43/68/160 41/101/161 30/108/162
f 31/70/163 32/73/164 45/69/165
f 33/75/166 46/76/167 34/74/168
f 35/78/169 36/110/170 42/109/171 44/77/172
f 47/111/173 49/114/174 50/113/175 48/112/176
f 57/115/177 52/117/178 50/113/179 58/116/180
f 51/118/181 53/120/182 54/119/183 52/117/184
f 53/121/185 47/124/186 48/123/187 54/122/188
f 48/112/189 50/113/190 52/126/191 54/125/192
f 53/121/193 56/128/194 55/127/195 47/124/196
f 49/114/197 55/129/198 58/116/199 50/113/200
f 56/130/201 51/118/202 52/117/203 57/115/204
f 53/131/205 51/133/206 56/132/207
f 55/134/208 49/114/209 47/111/210
f 55/135/211 56/138/212 57/137/213 58/136/214
f 59/139/215 61/140/216 62/141/217 60/142/218
f 69/143/219 64/144/220 62/141/221 70/145/222
f 63/146/223 65/147/224 66/148/225 64/144/226
f 65/149/227 59/150/228 60/151/229 66/152/230
f 60/142/231 62/141/232 64/153/233 66/154/234
f 65/149/235 68/155/236 67/156/237 59/150/238
f 61/140/239 67/157/240 70/145/241 62/141/242
f 68/158/243 63/146/244 64/144/245 69/143/246
f 65/159/247 63/160/248 68/161/249
f 67/162/250 61/140/251 59/139/252
f 67/163/253 68/164/254 69/165/255 70/166/256
